<svg width="106" height="106" viewBox="0 0 106 106" fill="none" xmlns="http://www.w3.org/2000/svg">
<path d="M80.031 60.1771C81.1684 60.1771 82.0904 59.2551 82.0904 58.1177C82.0904 56.9804 81.1684 56.0583 80.031 56.0583C78.8937 56.0583 77.9717 56.9804 77.9717 58.1177C77.9717 59.2551 78.8937 60.1771 80.031 60.1771Z" fill="#92E3A9"/>
<path d="M84.2674 70.9657C85.4047 70.9657 86.3267 70.0436 86.3267 68.9063C86.3267 67.7689 85.4047 66.8469 84.2674 66.8469C83.13 66.8469 82.208 67.7689 82.208 68.9063C82.208 70.0436 83.13 70.9657 84.2674 70.9657Z" fill="#92E3A9"/>
<path d="M77.5603 87.5359C78.6977 87.5359 79.6197 86.6138 79.6197 85.4765C79.6197 84.3391 78.6977 83.4171 77.5603 83.4171C76.423 83.4171 75.501 84.3391 75.501 85.4765C75.501 86.6138 76.423 87.5359 77.5603 87.5359Z" fill="#92E3A9"/>
<path d="M92.8953 77.2574C94.0327 77.2574 94.9547 76.3354 94.9547 75.198C94.9547 74.0607 94.0327 73.1387 92.8953 73.1387C91.758 73.1387 90.8359 74.0607 90.8359 75.198C90.8359 76.3354 91.758 77.2574 92.8953 77.2574Z" fill="#92E3A9"/>
<path opacity="0.15" d="M91.6518 51.7924C92.6267 51.7924 93.4169 51.0022 93.4169 50.0273C93.4169 49.0525 92.6267 48.2622 91.6518 48.2622C90.677 48.2622 89.8867 49.0525 89.8867 50.0273C89.8867 51.0022 90.677 51.7924 91.6518 51.7924Z" fill="black"/>
<path opacity="0.15" d="M35.0132 74.087C35.988 74.087 36.7783 73.2967 36.7783 72.3219C36.7783 71.347 35.988 70.5568 35.0132 70.5568C34.0383 70.5568 33.248 71.347 33.248 72.3219C33.248 73.2967 34.0383 74.087 35.0132 74.087Z" fill="black"/>
<path d="M88.5719 60.1947C89.9579 60.1947 91.0814 59.0712 91.0814 57.6852C91.0814 56.2993 89.9579 55.1758 88.5719 55.1758C87.186 55.1758 86.0625 56.2993 86.0625 57.6852C86.0625 59.0712 87.186 60.1947 88.5719 60.1947Z" fill="#92E3A9"/>
<path d="M68.3811 66.0458C68.6846 64.6936 67.8344 63.3513 66.4822 63.0478C65.1299 62.7443 63.7877 63.5944 63.4841 64.9467C63.1806 66.2989 64.0308 67.6412 65.383 67.9447C66.7353 68.2482 68.0775 67.3981 68.3811 66.0458Z" fill="#92E3A9"/>
<path d="M12.7224 72.2466C13.0549 70.9012 12.2337 69.5409 10.8882 69.2084C9.54279 68.876 8.18255 69.6971 7.85006 71.0426C7.51758 72.3881 8.33876 73.7483 9.68422 74.0808C11.0297 74.4133 12.3899 73.5921 12.7224 72.2466Z" fill="#92E3A9"/>
<path d="M22.4756 80.5579C23.4556 79.5779 23.4556 77.989 22.4756 77.009C21.4956 76.029 19.9068 76.029 18.9268 77.009C17.9468 77.989 17.9468 79.5779 18.9268 80.5579C19.9068 81.5379 21.4956 81.5379 22.4756 80.5579Z" fill="#92E3A9"/>
<path d="M22.4786 92.4474C22.7971 91.0986 21.9619 89.747 20.6131 89.4285C19.2643 89.11 17.9127 89.9452 17.5942 91.294C17.2758 92.6428 18.111 93.9944 19.4598 94.3129C20.8086 94.6314 22.1601 93.7961 22.4786 92.4474Z" fill="#92E3A9"/>
<path opacity="0.15" d="M41.0503 67.8262C42.0251 67.8262 42.8154 67.036 42.8154 66.0611C42.8154 65.0863 42.0251 64.296 41.0503 64.296C40.0754 64.296 39.2852 65.0863 39.2852 66.0611C39.2852 67.036 40.0754 67.8262 41.0503 67.8262Z" fill="black"/>
<path opacity="0.15" d="M46.1018 78.8653C46.2584 77.9031 45.6053 76.9962 44.6431 76.8397C43.6809 76.6831 42.774 77.3362 42.6175 78.2984C42.4609 79.2605 43.114 80.1674 44.0762 80.324C45.0383 80.4806 45.9452 79.8275 46.1018 78.8653Z" fill="black"/>
<path opacity="0.15" d="M23.7934 86.3413C24.7683 86.3413 25.5585 85.551 25.5585 84.5761C25.5585 83.6013 24.7683 82.811 23.7934 82.811C22.8186 82.811 22.0283 83.6013 22.0283 84.5761C22.0283 85.551 22.8186 86.3413 23.7934 86.3413Z" fill="black"/>
<path d="M26.5765 77.1073C27.4772 76.7342 27.9049 75.7017 27.5318 74.801C27.1587 73.9003 26.1262 73.4727 25.2255 73.8457C24.3249 74.2188 23.8972 75.2514 24.2702 76.152C24.6433 77.0527 25.6759 77.4804 26.5765 77.1073Z" fill="#92E3A9"/>
<path opacity="0.15" d="M89.5396 78.8223C89.7627 77.8734 89.1744 76.9233 88.2255 76.7001C87.2765 76.477 86.3264 77.0653 86.1033 78.0143C85.8801 78.9632 86.4685 79.9133 87.4174 80.1365C88.3663 80.3596 89.3164 79.7712 89.5396 78.8223Z" fill="black"/>
<path opacity="0.15" d="M16.3913 75.8903C16.6738 74.9573 16.1464 73.9719 15.2134 73.6894C14.2804 73.4069 13.295 73.9342 13.0125 74.8673C12.73 75.8003 13.2573 76.7857 14.1904 77.0682C15.1234 77.3507 16.1088 76.8233 16.3913 75.8903Z" fill="black"/>
<path d="M92.5904 68.6185C94.0839 67.1249 94.0839 64.7034 92.5904 63.2099C91.0969 61.7164 88.6754 61.7164 87.1818 63.2099C85.6883 64.7034 85.6883 67.1249 87.1818 68.6185C88.6754 70.112 91.0969 70.112 92.5904 68.6185Z" fill="#92E3A9"/>
<path d="M97.8306 64.1486C99.4554 64.1486 100.773 62.8315 100.773 61.2067C100.773 59.5819 99.4554 58.2648 97.8306 58.2648C96.2058 58.2648 94.8887 59.5819 94.8887 61.2067C94.8887 62.8315 96.2058 64.1486 97.8306 64.1486Z" fill="#92E3A9"/>
<path d="M82.9107 81.2257C84.5355 81.2257 85.8526 79.9085 85.8526 78.2837C85.8526 76.6589 84.5355 75.3418 82.9107 75.3418C81.2859 75.3418 79.9688 76.6589 79.9688 78.2837C79.9688 79.9085 81.2859 81.2257 82.9107 81.2257Z" fill="#92E3A9"/>
<path d="M64.7007 76.0311C66.3255 76.0311 67.6426 74.7139 67.6426 73.0891C67.6426 71.4644 66.3255 70.1472 64.7007 70.1472C63.0759 70.1472 61.7588 71.4644 61.7588 73.0891C61.7588 74.7139 63.0759 76.0311 64.7007 76.0311Z" fill="#92E3A9"/>
<path opacity="0.15" d="M36.9773 85.0221C37.4565 82.965 36.1774 80.9089 34.1204 80.4297C32.0633 79.9504 30.0072 81.2295 29.5279 83.2866C29.0487 85.3436 30.3277 87.3997 32.3848 87.879C34.4419 88.3583 36.498 87.0792 36.9773 85.0221Z" fill="black"/>
<path opacity="0.15" d="M40.9039 81.9776C41.3707 79.9176 40.0791 77.8692 38.0191 77.4024C35.959 76.9356 33.9106 78.2272 33.4438 80.2872C32.977 82.3472 34.2686 84.3956 36.3286 84.8624C38.3887 85.3292 40.4371 84.0376 40.9039 81.9776Z" fill="black"/>
<path opacity="0.15" d="M92.8958 71.5691C94.267 71.5691 95.3786 70.4575 95.3786 69.0864C95.3786 67.7152 94.267 66.6036 92.8958 66.6036C91.5246 66.6036 90.4131 67.7152 90.4131 69.0864C90.4131 70.4575 91.5246 71.5691 92.8958 71.5691Z" fill="black"/>
<path opacity="0.15" d="M79.4134 66.8954C80.7846 66.8954 81.8961 65.7838 81.8961 64.4127C81.8961 63.0415 80.7846 61.9299 79.4134 61.9299C78.0422 61.9299 76.9307 63.0415 76.9307 64.4127C76.9307 65.7838 78.0422 66.8954 79.4134 66.8954Z" fill="black"/>
<path opacity="0.15" d="M45.6195 99.4314C46.9906 99.4314 48.1022 98.3198 48.1022 96.9487C48.1022 95.5775 46.9906 94.4659 45.6195 94.4659C44.2483 94.4659 43.1367 95.5775 43.1367 96.9487C43.1367 98.3198 44.2483 99.4314 45.6195 99.4314Z" fill="black"/>
<path opacity="0.15" d="M28.1829 97.6339C29.5541 97.6339 30.6657 96.5224 30.6657 95.1512C30.6657 93.78 29.5541 92.6685 28.1829 92.6685C26.8118 92.6685 25.7002 93.78 25.7002 95.1512C25.7002 96.5224 26.8118 97.6339 28.1829 97.6339Z" fill="black"/>
<path d="M41.1973 74.4457C41.8473 74.4457 42.3741 73.9188 42.3741 73.2689C42.3741 72.6189 41.8473 72.092 41.1973 72.092C40.5474 72.092 40.0205 72.6189 40.0205 73.2689C40.0205 73.9188 40.5474 74.4457 41.1973 74.4457Z" fill="#92E3A9"/>
<path d="M34.4737 69.1844C35.1236 69.1844 35.6505 68.6576 35.6505 68.0076C35.6505 67.3577 35.1236 66.8308 34.4737 66.8308C33.8238 66.8308 33.2969 67.3577 33.2969 68.0076C33.2969 68.6576 33.8238 69.1844 34.4737 69.1844Z" fill="#92E3A9"/>
<path d="M52.3683 98.5665C52.3683 99.2165 51.8415 99.7433 51.1915 99.7433C50.5415 99.7433 50.0146 99.2165 50.0146 98.5665C50.0146 97.9165 50.5415 97.3896 51.1915 97.3896C51.8415 97.3896 52.3683 97.9167 52.3683 98.5665Z" fill="#92E3A9"/>
<path d="M68.4483 85.5423C69.0982 85.5423 69.6251 85.0155 69.6251 84.3655C69.6251 83.7156 69.0982 83.1887 68.4483 83.1887C67.7984 83.1887 67.2715 83.7156 67.2715 84.3655C67.2715 85.0155 67.7984 85.5423 68.4483 85.5423Z" fill="#92E3A9"/>
<path d="M47.0224 89.2156C47.3011 88.0293 46.5653 86.8416 45.379 86.5629C44.1926 86.2842 43.005 87.02 42.7263 88.2063C42.4476 89.3927 43.1834 90.5803 44.3697 90.859C45.556 91.1377 46.7437 90.4019 47.0224 89.2156Z" fill="#92E3A9"/>
<path d="M37.2666 92.611C38.1283 91.7493 38.1283 90.3522 37.2666 89.4906C36.4049 88.6289 35.0078 88.6289 34.1461 89.4906C33.2845 90.3523 33.2845 91.7493 34.1461 92.611C35.0078 93.4727 36.4049 93.4727 37.2666 92.611Z" fill="#92E3A9"/>
<path d="M12.6289 82.8899C13.4015 81.9475 13.2639 80.5573 12.3215 79.7847C11.3792 79.0121 9.9889 79.1497 9.2163 80.0921C8.4437 81.0344 8.58132 82.4247 9.52367 83.1973C10.466 83.9699 11.8563 83.8322 12.6289 82.8899Z" fill="#92E3A9"/>
<path opacity="0.15" d="M67.3491 71.3375C68.4738 70.8682 69.005 69.5761 68.5357 68.4514C68.0665 67.3268 66.7743 66.7955 65.6497 67.2648C64.525 67.7341 63.9937 69.0262 64.463 70.1509C64.9323 71.2755 66.2244 71.8068 67.3491 71.3375Z" fill="black"/>
<path opacity="0.15" d="M84.1815 84.6675C85.1437 83.9197 85.3176 82.5335 84.5699 81.5713C83.8221 80.6091 82.4359 80.4352 81.4737 81.183C80.5115 81.9307 80.3376 83.3169 81.0853 84.2791C81.8331 85.2413 83.2193 85.4152 84.1815 84.6675Z" fill="black"/>
<path d="M52.9656 94.3042C53.453 94.3042 53.8481 93.909 53.8481 93.4216C53.8481 92.9342 53.453 92.5391 52.9656 92.5391C52.4781 92.5391 52.083 92.9342 52.083 93.4216C52.083 93.909 52.4781 94.3042 52.9656 94.3042Z" fill="#92E3A9"/>
<path d="M33.3139 77.5186C34.2525 77.5186 35.0135 76.7577 35.0135 75.819C35.0135 74.8803 34.2525 74.1194 33.3139 74.1194C32.3752 74.1194 31.6143 74.8803 31.6143 75.819C31.6143 76.7577 32.3752 77.5186 33.3139 77.5186Z" fill="#92E3A9"/>
<path d="M35.3403 99.2855C35.3403 99.7729 34.9451 100.168 34.4578 100.168C33.9704 100.168 33.5752 99.7729 33.5752 99.2855C33.5752 98.7981 33.9704 98.403 34.4578 98.403C34.9451 98.403 35.3403 98.7981 35.3403 99.2855Z" fill="#92E3A9"/>
<path opacity="0.15" d="M18.434 85.0718C18.9381 82.9371 17.6162 80.798 15.4815 80.2939C13.3469 79.7899 11.2077 81.1117 10.7037 83.2464C10.1996 85.3811 11.5215 87.5202 13.6562 88.0242C15.7909 88.5283 17.93 87.2064 18.434 85.0718Z" fill="black"/>
<path d="M26.4138 91.068C26.7794 91.068 27.0757 90.7717 27.0757 90.4061C27.0757 90.0406 26.7794 89.7443 26.4138 89.7443C26.0483 89.7443 25.752 90.0406 25.752 90.4061C25.752 90.7717 26.0483 91.068 26.4138 91.068Z" fill="#92E3A9"/>
<path d="M38.3234 61.8689C30.5375 62.4404 30.0741 62.9036 29.5025 70.6898C28.931 62.9039 28.4678 62.4404 20.6816 61.8689C28.4676 61.2973 28.931 60.8341 29.5025 53.048C30.0743 60.8341 30.5375 61.2973 38.3234 61.8689Z" fill="white" stroke="#263238" stroke-width="0.106" stroke-miterlimit="10"/>
<path d="M49.209 93.6423C41.423 94.2139 40.9596 94.6771 40.3883 102.463C39.8167 94.6773 39.3535 94.2139 31.5674 93.6423C39.3533 93.0708 39.8167 92.6075 40.3883 84.8214C40.9596 92.6073 41.423 93.0708 49.209 93.6423Z" fill="white" stroke="#263238" stroke-width="0.106" stroke-miterlimit="10"/>
<path d="M74.5889 59.4417C71.6024 59.6609 71.4248 59.8385 71.2056 62.825C70.9864 59.8385 70.8087 59.6609 67.8223 59.4417C70.8087 59.2225 70.9864 59.0448 71.2056 56.0583C71.4248 59.0448 71.6024 59.2225 74.5889 59.4417Z" fill="white" stroke="#263238" stroke-width="0.106" stroke-miterlimit="10"/>
<path d="M77.8252 57.3823C74.8388 57.6015 74.6611 57.7792 74.4419 60.7656C74.2227 57.7792 74.045 57.6015 71.0586 57.3823C74.045 57.1631 74.2227 56.9855 74.4419 53.999C74.6611 56.9855 74.839 57.1631 77.8252 57.3823Z" fill="white" stroke="#263238" stroke-width="0.106" stroke-miterlimit="10"/>
<path d="M78.8545 81.9478C75.8681 82.167 75.6904 82.3446 75.4712 85.3311C75.252 82.3446 75.0743 82.167 72.0879 81.9478C75.0743 81.7285 75.252 81.5509 75.4712 78.5645C75.6904 81.5509 75.8683 81.7285 78.8545 81.9478Z" fill="white" stroke="#263238" stroke-width="0.106" stroke-miterlimit="10"/>
<path d="M27.6637 66.8702C22.6647 67.2371 22.3673 67.5346 22.0003 72.5335C21.6333 67.5346 21.3359 67.2371 16.3369 66.8702C21.3359 66.5032 21.6333 66.2057 22.0003 61.2068C22.3675 66.2057 22.6649 66.5032 27.6637 66.8702Z" fill="white" stroke="#263238" stroke-width="0.106" stroke-miterlimit="10"/>
<path d="M83.3414 32.3754C78.3424 32.7424 78.045 33.0398 77.678 38.0388C77.311 33.0398 77.0136 32.7424 72.0146 32.3754C77.0136 32.0084 77.311 31.711 77.678 26.712C78.045 31.711 78.3424 32.0084 83.3414 32.3754Z" fill="white" stroke="#263238" stroke-width="0.106" stroke-miterlimit="10"/>
<path d="M14.9713 54.1664C9.97231 54.5334 9.67487 54.8308 9.3079 59.8298C8.94093 54.8308 8.64349 54.5334 3.64453 54.1664C8.64349 53.7994 8.94093 53.502 9.3079 48.5031C9.67487 53.5018 9.97231 53.7994 14.9713 54.1664Z" fill="white" stroke="#263238" stroke-width="0.106" stroke-miterlimit="10"/>
<path d="M104.67 57.5818C99.6715 57.9488 99.3741 58.2462 99.0071 63.2452C98.6401 58.2462 98.3427 57.9488 93.3438 57.5818C98.3427 57.2149 98.6401 56.9174 99.0071 51.9185C99.3741 56.9174 99.6717 57.2149 104.67 57.5818Z" fill="white" stroke="#263238" stroke-width="0.106" stroke-miterlimit="10"/>
<path d="M32.245 13.133C36.7392 13.133 40.4313 14.6386 40.8496 16.5636C40.8757 16.4434 40.8903 16.3219 40.8903 16.1988C40.8903 14.1025 37.0196 12.4033 32.245 12.4033C27.4703 12.4033 23.5996 14.1027 23.5996 16.1988C23.5996 16.3219 23.614 16.4434 23.6403 16.5636C24.0586 14.6386 27.7508 13.133 32.245 13.133Z" fill="#92E3A9" stroke="#263238" stroke-width="0.212" stroke-miterlimit="10"/>
<path d="M32.245 19.9944C27.7508 19.9944 24.0586 18.4888 23.6403 16.5638C23.6142 16.684 23.5996 16.8055 23.5996 16.9287C23.5996 19.025 27.4703 20.7241 32.245 20.7241C37.0196 20.7241 40.8903 19.0247 40.8903 16.9287C40.8903 16.8055 40.8757 16.684 40.8496 16.5638C40.4311 18.4886 36.7392 19.9944 32.245 19.9944Z" fill="#92E3A9" stroke="#263238" stroke-width="0.212" stroke-miterlimit="10"/>
<path d="M23.5996 16.9285C23.5996 16.9285 23.5803 18.9531 24.9102 22.0218C26.2401 25.0907 27.3652 28.9777 27.3652 30.0008C27.3652 31.0237 27.1606 31.7398 27.1606 31.7398L29.0018 31.2283L30.843 32.149L32.6845 31.0237L34.0143 31.7398L35.8556 30.7169L37.4922 32.0468L38.9243 30.7169C38.9243 30.7169 37.6968 27.3413 38.5151 25.1931C39.3334 23.0449 40.0129 19.8004 40.8494 16.5636" stroke="#263238" stroke-width="0.212" stroke-miterlimit="10" stroke-linecap="round" stroke-linejoin="round"/>
<path d="M38.9253 30.7169C38.9253 30.7169 36.7771 27.955 35.2426 26.6251C33.7082 25.2952 32.1739 23.7607 31.9691 23.454C31.7646 23.147 28.3889 19.26 27.7751 18.3393C27.1614 17.4186 25.627 14.3499 25.627 14.3499C25.627 14.3499 29.3096 27.0344 27.1614 31.74" stroke="#263238" stroke-width="0.212" stroke-miterlimit="10" stroke-linecap="round" stroke-linejoin="round"/>
<path d="M27.3662 29.4894L29.0029 31.2285C29.0029 31.2285 29.719 29.5918 29.719 27.5458C29.719 25.5 29.719 22.2265 29.719 20.5897C29.719 18.953 30.2305 12.9176 30.2305 12.9176C30.2305 12.9176 33.9132 20.2827 34.6291 21.9195C35.3453 23.5562 36.1636 24.2723 36.7773 24.9882C37.3911 25.7044 38.2094 26.8295 38.2094 26.8295" stroke="#263238" stroke-width="0.212" stroke-miterlimit="10" stroke-linecap="round" stroke-linejoin="round"/>
<path d="M30.8438 32.149C30.8438 32.149 31.4575 27.8526 31.969 26.1136C32.4806 24.3745 32.6852 23.0447 33.7081 19.976C34.731 16.907 35.3447 13.5314 35.3447 13.5314C35.3447 13.5314 37.4929 19.5668 37.7999 20.8965C38.1069 22.2263 38.9252 23.7608 38.9252 23.7608" stroke="#263238" stroke-width="0.212" stroke-miterlimit="10" stroke-linecap="round" stroke-linejoin="round"/>
<path d="M39.2316 14.6566C39.2316 14.6566 37.4926 18.8506 36.6742 21.408C35.8559 23.9653 34.526 26.8297 33.9123 28.2617C33.2986 29.6938 32.6848 31.0237 32.6848 31.0237C32.6848 31.0237 31.7641 29.6938 29.8205 28.5687C27.8769 27.4434 26.4448 25.7044 26.2402 25.3976" stroke="#263238" stroke-width="0.212" stroke-miterlimit="10" stroke-linecap="round" stroke-linejoin="round"/>
<path d="M39.8451 20.7944C39.8451 20.7944 36.674 26.1137 36.2649 27.7504C35.8557 29.387 35.8557 30.7169 35.8557 30.7169C35.8557 30.7169 31.048 26.932 29.2065 25.7044C27.3653 24.4769 24.9102 22.0217 24.9102 22.0217" stroke="#263238" stroke-width="0.212" stroke-miterlimit="10" stroke-linecap="round" stroke-linejoin="round"/>
<path d="M23.6406 16.5636C23.6406 16.5636 25.7288 21.2034 26.2404 22.3287C26.7519 23.454 27.6724 24.4769 27.6724 24.4769" stroke="#263238" stroke-width="0.212" stroke-miterlimit="10" stroke-linecap="round" stroke-linejoin="round"/>
<path d="M4.99512 9.13328L5.04367 19.5726L48.4814 6.28845" stroke="#263238" stroke-width="0.212" stroke-miterlimit="10" stroke-linecap="round" stroke-linejoin="round"/>
<path d="M49.7467 8.18601L7.36344 20.2051L5.04395 19.5725L50.0227 5.80249" fill="white"/>
<path d="M49.7467 8.18601L7.36344 20.2051L5.04395 19.5725L50.0227 5.80249" stroke="#263238" stroke-width="0.212" stroke-miterlimit="10" stroke-linecap="round" stroke-linejoin="round"/>
<path d="M9.79688 14.5802V9.70654" stroke="#263238" stroke-width="0.212" stroke-miterlimit="10" stroke-linecap="round" stroke-linejoin="round"/>
<path d="M7.93359 8.12979L7.98532 15.3323L46.369 3.75623" stroke="#263238" stroke-width="0.212" stroke-miterlimit="10" stroke-linecap="round" stroke-linejoin="round"/>
<path d="M10.3477 8.66363L19.9277 14.3586L26.6337 12.3361V9.67487L18.0117 3.02209" fill="white"/>
<path d="M10.3477 8.66363L19.9277 14.3586L26.6337 12.3361V9.67487L18.0117 3.02209" stroke="#263238" stroke-width="0.212" stroke-miterlimit="10" stroke-linecap="round" stroke-linejoin="round"/>
<path d="M26.6333 12.3361L14.126 4.03333" stroke="#263238" stroke-width="0.212" stroke-miterlimit="10" stroke-linecap="round" stroke-linejoin="round"/>
<path d="M72.2678 14.9099C74.3743 12.8034 74.3743 9.38803 72.2678 7.28152C70.1612 5.175 66.7459 5.175 64.6394 7.28152C62.5329 9.38803 62.5329 12.8034 64.6394 14.9099C66.7459 17.0164 70.1612 17.0164 72.2678 14.9099Z" fill="#92E3A9" stroke="#263238" stroke-width="0.212" stroke-miterlimit="10"/>
<path d="M73.1716 8.48025C73.9062 9.80546 72.3894 12.0505 69.7839 13.4949C67.1782 14.939 64.4705 15.0355 63.7359 13.7103C63.0014 12.3851 64.5182 10.14 67.1237 8.69564C69.7292 7.25149 72.437 7.15503 73.1716 8.48025Z" stroke="#263238" stroke-width="0.212" stroke-miterlimit="10"/>
<path d="M53.7783 39.1311L61.1831 28.024C61.1831 28.024 62.8615 24.519 64.0463 23.1862C65.2312 21.8533 70.7599 17.4105 70.7599 17.4105L71.2537 16.4232C71.2537 16.4232 71.4511 15.0409 71.1549 14.5472C70.8587 14.0537 71.5499 13.6587 71.9448 13.9549C72.3398 14.251 72.3398 14.4978 72.3398 14.4978C72.3398 14.4978 73.3271 13.6585 73.5738 12.4244C73.8206 11.1904 73.475 10.4499 73.3765 10.0055C73.2777 9.56116 73.1297 9.06763 73.4258 9.06763C73.722 9.06763 74.1664 10.1537 74.3143 10.5487C74.4623 10.9436 74.5117 12.1283 74.5611 12.9182C74.6105 13.7081 74.4623 14.3004 74.3143 14.9915C74.1661 15.6827 73.6726 16.9661 73.3271 17.5093C72.9815 18.0522 71.0563 20.7181 70.612 21.7054C70.1676 22.6927 69.1803 24.9634 68.6374 25.6545C68.0945 26.3456 65.6262 28.8631 65.478 29.1101C65.3298 29.3569 65.2806 29.4557 64.9842 29.8506C64.6881 30.2456 64.2437 31.1341 64.2437 31.1341L61.6274 40.1186L53.7783 39.1311Z" fill="#969696" stroke="#263238" stroke-width="0.212" stroke-miterlimit="10"/>
<path d="M71.2531 16.4231C71.2531 16.4231 71.1759 17.2524 71.5016 17.5486C71.8272 17.8446 72.1234 17.9334 72.6561 17.4006" stroke="#263238" stroke-width="0.212" stroke-miterlimit="10"/>
<path d="M72.3397 14.4979C72.3397 14.4979 72.2719 14.9137 72.568 14.884" stroke="#263238" stroke-width="0.212" stroke-miterlimit="10"/>
<path d="M58.1811 28.9766C58.1811 28.9766 56.5992 29.7192 56.4701 30.0419C56.341 30.3648 56.341 30.6552 56.341 30.6552C56.341 30.6552 54.5653 31.5592 54.4361 31.882C54.307 32.2049 54.5975 32.6247 54.5975 32.6247C54.5975 32.6247 54.0808 33.3995 53.7582 35.2397C53.4353 37.0799 54.0488 36.983 54.5008 36.983C54.9528 36.983 55.1788 36.983 55.1788 36.983L54.9206 38.3389C54.9206 38.3389 55.5985 38.3067 57.0189 38.3711C58.4393 38.4358 61.9583 39.8884 61.9583 39.8884C61.9583 39.8884 62.023 37.3056 62.2165 37.0152C62.4103 36.7248 64.1536 35.9175 64.5733 35.1428C64.9931 34.368 65.5095 32.4309 64.5087 30.8167C63.5078 29.2026 60.9897 28.6215 59.892 28.589C58.7944 28.5568 58.1811 28.9766 58.1811 28.9766Z" fill="#B5B5B5" stroke="#263238" stroke-width="0.212" stroke-miterlimit="10"/>
<path d="M56.9541 30.2032C56.9541 30.2032 58.2132 29.6544 58.6007 30.623" stroke="#263238" stroke-width="0.212" stroke-miterlimit="10"/>
<path d="M57.6001 31.0428C57.5197 31.2601 57.3393 31.3939 57.1971 31.3413C57.0548 31.2887 57.0048 31.0699 57.0854 30.8524C57.1657 30.6351 57.3461 30.5013 57.4884 30.5539C57.6304 30.6065 57.6804 30.8253 57.6001 31.0428Z" fill="#263238"/>
<path d="M54.4043 34.2388C54.4043 34.2388 55.4052 34.3035 56.0831 33.6577" stroke="#263238" stroke-width="0.212" stroke-miterlimit="10"/>
<path d="M64.5737 35.1429C64.9935 34.368 65.5099 32.431 64.5091 30.8168C63.5082 29.2027 60.9901 28.6216 59.8923 28.5893C59.8245 28.5874 59.7586 28.5872 59.6943 28.5883C60.0418 28.7045 60.7145 29.003 61.087 29.6546C61.6036 30.5586 60.1183 30.1713 60.0861 30.7199C60.0539 31.2688 61.0223 32.5279 60.9579 32.7216C60.8932 32.9154 60.409 33.0767 60.5705 33.2383C60.7319 33.3996 61.1838 33.3674 61.5392 33.5934C61.8943 33.8194 60.7321 35.5627 60.9903 35.9502C61.1966 36.2597 61.5896 36.7537 62.3482 36.8908C62.8071 36.5332 64.2038 35.8257 64.5737 35.1429Z" fill="#263238" stroke="#263238" stroke-width="0.212" stroke-miterlimit="10"/>
<path d="M60.8931 33.69C60.8931 33.69 62.0198 33.5221 62.2812 34.0451C62.5719 34.6262 62.249 35.5948 61.2804 35.6915C60.3118 35.7884 59.5693 35.4977 59.6338 34.9813" fill="#B5B5B5"/>
<path d="M60.8931 33.69C60.8931 33.69 62.0198 33.5221 62.2812 34.0451C62.5719 34.6262 62.249 35.5948 61.2804 35.6915C60.3118 35.7884 59.5693 35.4977 59.6338 34.9813" stroke="#263238" stroke-width="0.212" stroke-miterlimit="10"/>
<path d="M61.4305 42.8829C61.4305 42.8829 61.1837 44.364 60.0977 44.9069" stroke="#263238" stroke-width="0.212" stroke-miterlimit="10"/>
<path d="M60.7709 86.841C60.7709 86.841 66.7035 81.202 68.7593 79.5575C70.815 77.9128 71.4025 77.1492 71.4025 77.1492L68.7593 74.6821C68.7593 74.6821 63.4728 78.0302 62.1805 78.559C60.8881 79.0877 58.5975 80.1449 58.5975 80.1449C58.5975 80.1449 57.4815 81.4371 57.1877 83.728C56.8941 86.0188 57.2464 86.4299 57.8926 86.7237C58.5388 87.0171 60.7709 86.841 60.7709 86.841Z" fill="#969696" stroke="#263238" stroke-width="0.212" stroke-miterlimit="10"/>
<path d="M67.5847 75.328C67.5847 75.328 69.7581 78.1474 70.0517 78.1474C70.3453 78.1474 71.3438 77.56 71.3438 77.56C71.3438 77.56 71.99 77.6187 72.9885 77.2076C73.9871 76.7966 74.1632 75.9155 73.9871 75.2693C73.8109 74.6231 72.0487 72.5674 71.4026 72.5674C70.7564 72.5674 69.053 73.5072 68.7594 74.0359C68.4657 74.5644 67.5259 74.6819 67.5847 75.328Z" fill="white" stroke="#263238" stroke-width="0.212" stroke-miterlimit="10"/>
<path d="M75.9855 95.0642C75.9855 95.0642 75.5742 96.004 76.2791 96.2389C76.984 96.4738 79.9796 96.4738 80.2734 97.0025C80.567 97.5312 82.4466 100.468 82.6817 101.467C82.9166 102.465 83.8564 102.7 84.209 102.524C84.5613 102.348 85.2662 100.468 85.3837 99.2932C85.5011 98.1185 84.9724 95.1814 84.7962 94.2416C84.62 93.3018 83.5628 90.4237 83.269 89.7776C82.9753 89.1314 82.5053 87.7805 80.8019 88.2503C79.0985 88.7201 78.4523 89.4837 78.3349 89.6601C78.2174 89.8363 77.1015 90.5412 77.1015 90.5412C77.1015 90.5412 76.8666 94.1244 75.9855 95.0642Z" fill="#92E3A9" stroke="#263238" stroke-width="0.212" stroke-miterlimit="10"/>
<path d="M84.2088 102.524C84.5611 102.348 85.266 100.468 85.3835 99.2934C85.5009 98.1187 84.9722 95.1816 84.796 94.2418C84.6198 93.302 83.5626 90.4239 83.2687 89.7778C82.9948 89.1755 82.567 87.9618 81.1299 88.1808C82.0296 89.6995 83.9575 93.1426 84.312 95.3283C84.7424 97.9828 84.1114 101.431 83.7074 102.549C83.9079 102.594 84.0913 102.583 84.2088 102.524Z" fill="#263238" stroke="#263238" stroke-width="0.212" stroke-miterlimit="10"/>
<path d="M77.0449 96.3795C77.0449 96.3795 78.0646 94.238 78.4725 93.5751C78.8804 92.9124 79.9001 92.8613 79.8491 93.728C79.798 94.5946 78.9822 96.5323 78.9822 96.5323L77.0449 96.3795Z" fill="#263238"/>
<path d="M83.2692 89.7778C82.9756 89.1316 82.5056 87.7808 80.8022 88.2506C79.378 88.6434 78.6945 89.2404 78.4395 89.5289C78.6542 90.2164 78.9868 90.9845 79.4859 91.4836C80.5777 92.5754 81.6697 92.0791 82.5631 93.7666C83.4564 95.4541 82.8609 96.1488 83.4564 97.7371C83.8423 98.7658 84.7257 99.4592 85.3017 99.8217C85.3386 99.6364 85.3674 99.4577 85.3837 99.2934C85.5012 98.1187 84.9724 95.1817 84.7963 94.2419C84.6203 93.3021 83.5631 90.424 83.2692 89.7778Z" stroke="#263238" stroke-width="0.212" stroke-miterlimit="10"/>
<path d="M52.2539 86.9584C52.2539 86.9584 54.3686 91.6576 55.7195 92.0687C57.0705 92.4797 73.9284 93.5372 73.9284 93.5372L76.8065 94.3008L77.1001 90.5416L73.1058 89.9542L66.1159 87.5459C66.1159 87.5459 64.0015 86.4886 62.6504 86.3124C61.2993 86.1363 59.0087 86.3124 59.0087 86.3124L58.6561 84.4916L52.2539 86.9584Z" fill="#B5B5B5" stroke="#263238" stroke-width="0.212" stroke-miterlimit="10"/>
<path d="M57.834 88.4854C57.834 88.4854 58.8325 90.3062 59.7723 90.6588C60.7121 91.0111 62.9442 90.9524 62.9442 90.9524" stroke="#263238" stroke-width="0.212" stroke-miterlimit="10"/>
<path d="M74.6925 90.1888C74.6925 90.1888 74.5163 90.9524 74.3401 92.0684C74.1639 93.1843 73.929 93.5369 73.929 93.5369C73.929 93.5369 73.8116 94.3593 74.9863 94.7703C76.161 95.1814 77.2184 94.6529 77.4533 93.948C77.6882 93.2431 77.9821 91.1873 77.6295 90.6586C77.2769 90.1301 75.1037 90.0126 74.6925 90.1888Z" fill="white" stroke="#263238" stroke-width="0.212" stroke-miterlimit="10"/>
<path d="M53.8394 38.4426C53.8394 38.4426 55.9573 37.6834 57.2361 37.7633C58.5149 37.8433 61.8717 39.1619 62.3112 39.2819C62.7506 39.4017 63.39 39.242 63.5899 39.7214C63.7899 40.2009 63.8297 41.1199 63.7899 41.4396C63.7498 41.7593 65.588 45.7155 65.5482 47.194C65.5083 48.6724 60.3932 54.307 59.0746 55.6657C57.7559 57.0244 58.2355 59.3021 58.4752 59.9816C58.715 60.6608 58.9147 61.1404 58.715 61.4202C58.5153 61.6998 57.1964 62.0195 55.1983 62.3392C53.2002 62.6589 51.482 63.5381 49.2043 63.6579C46.9265 63.7777 46.1273 65.0564 45.8875 64.537C45.6477 64.0174 45.4879 62.7389 45.8474 61.8995C46.2072 61.0604 46.5267 55.4658 47.0062 52.9881C47.4858 50.5105 48.2051 48.0328 48.5248 47.074C48.8445 46.1149 50.4828 43.0379 51.7616 41.1197C53.0402 39.202 53.8394 38.4426 53.8394 38.4426Z" fill="#92E3A9" stroke="#263238" stroke-width="0.212" stroke-miterlimit="10"/>
<path d="M51.6504 62.7497C51.6716 62.5586 51.6472 62.413 51.6258 62.2845C51.5789 62.0043 51.5149 61.6205 52.2573 60.0121C53.3154 57.7202 56.2658 48.1441 56.3909 47.7375L55.5187 47.4691C55.4884 47.5681 52.4613 57.3928 51.4288 59.6299C50.6334 61.3534 50.6398 61.9199 50.7258 62.4346C50.7426 62.5355 50.7504 62.5868 50.7434 62.649C50.7104 62.9462 50.5321 63.0831 50.5327 63.0831L50.2139 63.2956L50.3197 63.5364C50.7233 63.4715 51.1123 63.3876 51.4914 63.2928C51.5647 63.1433 51.6262 62.9657 51.6504 62.7497Z" fill="#263238"/>
<path d="M53.3086 59.6299C52.5131 61.3534 52.5195 61.9199 52.6056 62.4346C52.6223 62.5355 52.6302 62.5868 52.6234 62.649C52.6024 62.8381 52.5229 62.9617 52.4678 63.0272C52.8246 62.9241 53.178 62.8198 53.532 62.721C53.5477 62.5447 53.5261 62.4062 53.5057 62.2845C53.4589 62.0043 53.3948 61.6205 54.1373 60.0121C55.1954 57.7202 58.1458 48.1441 58.2708 47.7375L57.3987 47.4691C57.3682 47.5681 54.3412 57.3928 53.3086 59.6299Z" fill="#263238"/>
<path d="M63.7895 41.4399C63.8296 41.1202 63.7895 40.2012 63.5896 39.7216C63.3899 39.2421 62.7505 39.4019 62.3108 39.2821C61.8713 39.1624 58.5145 37.8435 57.2357 37.7636C55.9569 37.6837 53.8391 38.4428 53.8391 38.4428C53.8391 38.4428 53.1734 39.0771 52.0871 40.6417L51.9599 43.3744C51.9599 43.3744 50.9614 46.8399 52.2535 49.5419C53.5456 52.2438 57.305 53.8298 60.007 52.9487C60.9031 52.6566 61.8105 52.2006 62.651 51.643C64.155 49.8257 65.5268 47.957 65.5474 47.1942C65.5877 45.7157 63.7496 41.7594 63.7895 41.4399Z" fill="#263238" stroke="#263238" stroke-width="0.212" stroke-miterlimit="10"/>
<path d="M60.0754 39.8147C60.0754 39.8147 64.3146 44.1009 64.5972 45.7024C64.8798 47.3038 61.8183 49.0937 60.9705 49.282C60.1227 49.4705 58.7549 49.4319 58.7549 49.4319L60.0754 39.8147Z" fill="#7D7D7D" stroke="#263238" stroke-width="0.212" stroke-miterlimit="10"/>
<path d="M46.2635 64.4026C46.2635 64.4026 47.6733 71.9212 47.3794 74.6232C47.0858 77.3251 46.3809 82.7292 47.262 83.199C48.1431 83.669 49.9639 84.315 50.2578 84.5501C50.5514 84.785 51.8437 87.5456 51.9025 87.8395C51.9612 88.1331 54.1346 87.3107 57.5414 85.8424C57.5414 85.8424 59.2449 84.8439 59.3036 84.4913C59.3623 84.139 59.3623 81.7894 59.3623 81.7894C59.3623 81.7894 60.2434 80.8496 60.1847 80.3209C60.1259 79.7922 59.9498 77.5015 59.9498 77.2077C59.9498 76.914 60.5959 72.861 60.7134 69.1606C60.8308 65.4601 58.4225 61.642 57.9527 61.3484C57.4829 61.0547 47.2035 63.2867 46.9099 63.4631C46.6158 63.639 46.2047 63.4628 46.2635 64.4026Z" fill="#92E3A9" stroke="#263238" stroke-width="0.212" stroke-miterlimit="10"/>
<path d="M48.5166 77.4082C49.054 80.0803 49.9391 84.2713 50.2575 84.5501" stroke="#263238" stroke-width="0.212" stroke-miterlimit="10"/>
<path d="M48.084 75.2106C48.084 75.2106 48.1764 75.6954 48.3244 76.4444" stroke="#263238" stroke-width="0.212" stroke-miterlimit="10"/>
<path d="M59.3031 84.4913C59.3618 84.139 59.3618 81.7894 59.3618 81.7894C59.3618 81.7894 60.2429 80.8496 60.1842 80.3209C60.1479 79.9952 60.0674 79.0014 60.0105 78.217C59.8547 77.9649 59.6847 77.7803 59.4793 77.6776C58.7744 77.3251 58.7156 78.9111 58.7156 78.9111C58.7156 78.9111 56.366 76.3853 54.7801 78.3823C53.5066 79.9859 53.6722 85.3357 53.7871 87.383C54.7389 87.0268 56.0148 86.5 57.541 85.8422C57.541 85.8422 59.2444 84.8437 59.3031 84.4913Z" fill="#263238" stroke="#263238" stroke-width="0.212" stroke-miterlimit="10"/>
<path d="M55.9072 69.9856C54.5021 66.5665 53.5351 64.3197 53.2068 63.5626C53.3454 63.3837 53.4896 63.1162 53.5303 62.7494C53.5515 62.5584 53.5271 62.4127 53.5057 62.2843C53.4927 62.2073 53.4792 62.1215 53.4809 62.0055C53.1817 62.0642 52.8786 62.1248 52.5746 62.1863C52.5813 62.2728 52.5922 62.3544 52.6055 62.4344C52.6223 62.5353 52.6301 62.5866 52.6233 62.6487C52.5903 62.9459 52.412 63.0829 52.4126 63.0829L52.0938 63.2953L52.2477 63.646C52.2583 63.6699 53.3234 66.0996 55.0628 70.3322C56.7209 74.367 57.1332 78.1841 57.2608 83.0346C57.2935 84.271 57.2852 85.2269 57.2574 85.9636C57.352 85.9231 57.444 85.8839 57.5407 85.8421C57.5407 85.8421 57.8362 85.6685 58.1847 85.4415C58.1991 84.773 58.1983 83.9714 58.1731 83.0107C58.0463 78.194 57.6125 74.1357 55.9072 69.9856Z" fill="#263238"/>
<path d="M56.2707 86.3834C56.3137 85.5682 56.332 84.4743 56.2934 83.0106C56.1664 78.1938 55.7327 74.1357 54.0273 69.9856C52.6222 66.5664 51.6553 64.3197 51.3269 63.5626C51.4655 63.3837 51.6097 63.1161 51.6504 62.7494C51.6665 62.6033 51.6561 62.4837 51.6406 62.3782C51.337 62.4413 51.0373 62.5045 50.7441 62.5669C50.7462 62.5955 50.7466 62.6211 50.7434 62.6487C50.7104 62.9459 50.5321 63.0829 50.5327 63.0829L50.2139 63.2953L50.3678 63.6459C50.3784 63.6699 51.4435 66.0996 53.1829 70.3322C54.841 74.367 55.2533 78.184 55.3809 83.0346C55.4269 84.7849 55.3918 85.9753 55.3343 86.7722C55.6307 86.6509 55.9423 86.5216 56.2707 86.3834Z" fill="#263238"/>
<path d="M50.1445 69.9731C50.4994 70.3297 50.8887 70.6876 51.3146 71.0401" stroke="#263238" stroke-width="0.212" stroke-miterlimit="10"/>
<path d="M46.8506 65.0488C46.8506 65.0488 47.4951 66.9821 49.3986 69.1716" stroke="#263238" stroke-width="0.212" stroke-miterlimit="10"/>
<path d="M58.9316 73.5752C59.1316 73.9294 59.2812 74.2633 59.362 74.5644" stroke="#263238" stroke-width="0.212" stroke-miterlimit="10"/>
<path d="M53.6641 67.6333C53.6641 67.6333 56.9588 70.5833 58.567 72.9869" stroke="#263238" stroke-width="0.212" stroke-miterlimit="10"/>
<path d="M51.8594 51.2236C52.3088 53.0937 53.1456 55.526 54.6622 57.2953" stroke="#263238" stroke-width="0.212" stroke-miterlimit="10"/>
<path d="M51.373 48.4257C51.373 48.4257 51.4337 49.146 51.6423 50.2215" stroke="#263238" stroke-width="0.212" stroke-miterlimit="10"/>
<path d="M50.9033 55.2983C50.9033 55.2983 52.4893 58.3528 55.72 59.3514" stroke="#263238" stroke-width="0.212" stroke-miterlimit="10"/>
<path d="M49.2354 81.3344L46.8638 80.0338C46.7826 81.6533 46.8447 82.977 47.2611 83.199C48.0071 83.5969 49.4233 84.1199 50.0194 84.4139L49.2354 81.3344Z" fill="#263238"/>
<path d="M70.875 72.7436C70.875 72.7436 73.7531 76.9141 74.3406 76.9141C74.928 76.9141 77.3951 74.6819 77.3951 74.6819C77.3951 74.6819 81.6242 74.2121 82.0353 74.2121C82.4464 74.2121 84.1498 74.7996 84.8547 74.6819C85.5596 74.5645 85.5596 73.2134 85.2658 72.7436C84.9722 72.2736 81.5653 70.0417 79.8032 69.4542C78.041 68.8667 73.988 66.9871 72.9895 67.5746C71.991 68.1621 72.0497 68.8082 72.0497 69.6893C72.0497 70.5704 71.8735 71.2166 71.8148 71.3927C71.7561 71.5689 70.875 72.1561 70.875 72.7436Z" fill="#92E3A9" stroke="#263238" stroke-width="0.212" stroke-miterlimit="10"/>
<path d="M79.8029 69.4542C78.0408 68.8667 73.9878 66.9871 72.9893 67.5746C72.4826 67.8727 72.2487 68.186 72.1406 68.5373C72.4554 69.0614 73.0777 69.6384 74.3054 69.9634C76.9426 70.6615 77.9511 69.9634 79.1146 71.0493C80.278 72.1351 82.9929 72.9109 84.4667 73.5314C84.8454 73.6908 85.1513 73.8655 85.3985 74.0372C85.5062 73.5844 85.4358 73.016 85.2655 72.7432C84.9719 72.2738 81.5651 70.0417 79.8029 69.4542Z" fill="#263238" stroke="#263238" stroke-width="0.212" stroke-miterlimit="10"/>
<path d="M75.1071 76.6479C75.1071 76.6479 73.5266 74.8633 73.3227 74.4046C73.1188 73.9458 73.4247 73.2829 74.3935 73.4868C75.3622 73.6907 76.331 75.5773 76.331 75.5773L75.1071 76.6479Z" fill="#263238"/>
<path d="M79.8036 69.4542C78.0415 68.8667 73.9885 66.9871 72.99 67.5746C71.9914 68.1621 72.0502 68.808 72.0502 69.6893C72.0502 70.2439 71.9804 70.7048 71.9141 71.0147C72.5187 71.6936 73.5007 72.5488 74.7214 72.723C76.806 73.0209 78.1956 72.3259 78.7911 72.8222C79.3046 73.2501 82.8403 74.5615 85.142 74.5346C85.5505 74.1479 85.5126 73.1377 85.2665 72.7438C84.9726 72.2738 81.5658 70.0417 79.8036 69.4542Z" stroke="#263238" stroke-width="0.212" stroke-miterlimit="10"/>
<path d="M58.755 49.432C58.755 49.432 61.3126 46.4749 61.4724 44.8365C61.6323 43.1982 61.5125 41.0402 59.7542 39.6016C57.9958 38.163 55.678 38.163 53.84 38.4428C52.0017 38.7227 50.9229 39.322 50.9229 39.322C50.9229 39.322 47.7259 39.0023 45.688 39.442C43.65 39.8817 41.7717 40.7207 41.7717 40.7207C41.7717 40.7207 36.2171 40.3211 34.3788 40.9205C32.5406 41.5198 26.7063 42.2792 26.3866 42.2792C26.0669 42.2792 23.5893 41.6398 23.2696 41.52C22.9499 41.4 21.4714 40.5609 21.4313 40.0814C21.3915 39.6018 21.1116 39.1623 20.7521 39.7617C20.3923 40.361 20.7521 41.0004 20.9119 41.2003C21.0718 41.4002 21.3116 41.6798 21.3915 41.7998C21.4714 41.9196 20.3525 42.3593 20.3525 42.3593C20.3525 42.3593 17.1956 42.2395 17.0756 42.2395C16.9558 42.2395 16.6361 42.6391 16.7559 42.799C16.8757 42.9588 17.1954 43.0388 17.1954 43.0388L20.3124 43.2385C20.3124 43.2385 17.0756 44.2374 17.0355 44.3574C16.9957 44.4774 17.0355 44.877 17.3152 44.9567C17.595 45.0366 17.355 45.1166 17.595 45.0366C17.8348 44.9567 20.672 44.5172 20.672 44.5172C20.672 44.5172 19.5931 45.4363 19.2734 45.7161C18.9537 45.9957 17.9548 46.6752 18.1146 46.9548C18.2745 47.2347 18.4343 47.3945 18.754 47.1946C19.0737 46.9947 21.3116 45.676 21.3116 45.676C21.3116 45.676 21.4313 46.1954 21.3116 46.4352C21.1918 46.675 20.3525 47.5141 20.1127 47.714C19.8729 47.9137 20.2325 48.5132 20.5923 48.3133C20.9518 48.1134 22.1507 46.6349 22.2707 46.4352C22.3904 46.2353 23.3896 46.1954 24.1888 46.0356C24.9881 45.8757 26.2669 45.2764 26.2669 45.2764C26.2669 45.2764 34.6987 45.9158 36.8965 45.6362C39.0943 45.3563 41.6118 44.9968 41.6118 44.9968C41.6118 44.9968 48.7649 45.1168 50.6032 45.0767C52.4414 45.0369 53.5604 44.7172 53.5604 44.7172C53.5604 44.7172 53.3206 46.5554 55.1589 47.8342C56.9967 49.1123 58.755 49.432 58.755 49.432Z" fill="#B5B5B5" stroke="#263238" stroke-width="0.212" stroke-miterlimit="10"/>
<path d="M54.1191 44.5168L56.5169 44.0771C56.5169 44.0771 58.0753 44.7965 58.1153 44.9563" stroke="#263238" stroke-width="0.212" stroke-miterlimit="10"/>
<path d="M34.5186 40.8793C34.9184 41.8588 35.3839 43.5228 35.2061 45.7061C35.9112 45.7059 36.5035 45.6856 36.8955 45.6358C37.732 45.5293 38.6146 45.4113 39.3873 45.3059C39.5716 44.1022 39.6964 42.23 39.1132 40.6025C37.4952 40.5664 35.5495 40.5963 34.5186 40.8793Z" fill="white" stroke="#263238" stroke-width="0.212" stroke-miterlimit="10"/>
<path d="M39.8574 42.9323C39.8574 42.9323 40.5485 42.8829 40.9435 43.1297C41.3385 43.3764 42.0296 43.327 42.5231 42.8335" stroke="#263238" stroke-width="0.212" stroke-miterlimit="10"/>
<path d="M35.1186 42.8829H33.292" stroke="#263238" stroke-width="0.212" stroke-miterlimit="10"/>
<path d="M51.6562 40.3652C51.6562 40.3652 53.1373 42.241 54.9143 42.6854" stroke="#263238" stroke-width="0.212" stroke-miterlimit="10"/>
</svg>
