<svg width="132" height="79" viewBox="0 0 132 79" fill="none" xmlns="http://www.w3.org/2000/svg">
<path d="M95.0805 61.8652C95.1354 62.0415 95.1904 62.2087 95.2453 62.3663C96.3289 65.454 98.1626 68.4643 98.5795 69.1589C98.8693 69.6416 104.633 69.6416 104.924 69.1589C105.34 68.4643 107.174 65.454 108.257 62.3663C108.78 60.8781 109.283 58.5297 109.485 55.9336C109.705 53.144 109.577 50.0692 108.757 47.4705C108.436 46.4554 108.038 45.4058 107.608 44.3578C107.225 43.4263 106.817 42.4954 106.417 41.5919C105.7 39.9684 105.009 38.4328 104.534 37.1321C104.159 36.1029 103.92 35.2217 103.911 34.5604C103.91 34.4594 103.913 34.363 103.923 34.2725C104.173 31.9574 106.257 28.8703 105.09 25.3197C103.923 21.7697 99.5794 21.7697 98.4123 25.3197C97.2459 28.8703 99.3297 31.9574 99.5794 34.2725C99.5857 34.3274 99.5896 34.3843 99.5909 34.4436C99.612 35.1388 99.3494 36.1049 98.9276 37.244C98.4693 38.4802 97.8237 39.9217 97.1501 41.4432C96.7224 42.4092 96.2838 43.4078 95.8738 44.4078C95.4517 45.439 95.0598 46.4715 94.7449 47.4705C93.2425 52.2316 94.0667 58.5903 95.0805 61.8652Z" fill="#E2E0E0"/>
<path d="M95.875 44.4077C101.616 42.5618 105.672 43.5719 107.609 44.3574C107.226 43.4259 106.818 42.495 106.419 41.5915C102.13 40.2039 98.9791 40.7715 97.1517 41.4427C96.7236 42.4088 96.285 43.4078 95.875 44.4077Z" fill="#FF612B"/>
<path d="M98.9268 37.2442C101.141 36.8598 103.022 36.9076 104.533 37.1323C104.158 36.1031 103.919 35.2219 103.91 34.5605C102.239 34.2713 100.793 34.2841 99.5901 34.4437C99.6108 35.139 99.3483 36.105 98.9268 37.2442Z" fill="#FF612B"/>
<path d="M95.082 61.8651C95.137 62.0415 95.1919 62.2087 95.2469 62.3663C96.3304 65.4539 98.1641 68.4643 98.581 69.1589C98.8709 69.6416 104.635 69.6416 104.926 69.1589C105.342 68.4643 107.175 65.4539 108.259 62.3663C108.782 60.878 109.284 58.5297 109.487 55.9336C106.784 58.633 103.52 61.3676 100.69 62.2636C98.5932 62.9276 96.6861 62.5949 95.082 61.8651Z" fill="#BEBECE"/>
<path d="M127.053 63.7224C129.786 57.218 126.728 49.7303 120.223 46.998C113.719 44.2657 106.231 47.3237 103.499 53.828C100.767 60.3324 103.825 67.8202 110.329 70.5524C116.833 73.2847 124.321 70.2268 127.053 63.7224Z" fill="#433A55"/>
<path d="M114.924 58.4717C115.768 58.4717 116.453 57.7873 116.453 56.943C116.453 56.0987 115.768 55.4143 114.924 55.4143C114.08 55.4143 113.396 56.0987 113.396 56.943C113.396 57.7873 114.08 58.4717 114.924 58.4717Z" fill="black"/>
<path d="M108.571 52.6625C108.571 53.5068 109.256 54.1912 110.1 54.1912C110.944 54.1912 111.629 53.5068 111.629 52.6625C111.629 51.8182 110.944 51.1338 110.1 51.1338C109.256 51.1338 108.571 51.8182 108.571 52.6625Z" fill="black"/>
<path d="M107.145 58.37C107.145 59.2143 107.829 59.8987 108.673 59.8987C109.518 59.8987 110.202 59.2143 110.202 58.37C110.202 57.5257 109.518 56.8413 108.673 56.8413C107.829 56.841 107.145 57.5257 107.145 58.37Z" fill="black"/>
<path d="M122.424 63.7255C121.652 65.0512 120.521 65.5941 121.307 66.0518C122.093 66.5095 123.356 65.806 124.129 64.48C124.901 63.154 124.891 61.7082 124.105 61.2502C123.319 60.7928 123.197 62.3995 122.424 63.7255Z" fill="#6E6582"/>
<path d="M111.28 77.8296C114.392 76.8172 117.443 75.0532 118.148 74.6525C118.637 74.3738 118.769 68.6114 118.293 68.3096C117.609 67.8776 114.641 65.9751 111.579 64.8212C108.518 63.6672 101.751 62.5113 96.6989 63.9798C95.6769 64.277 94.6184 64.6511 93.5606 65.0574C92.6205 65.4187 91.6808 65.8047 90.768 66.1837C89.1288 66.8638 87.5777 67.5196 86.2661 67.9641C85.2287 68.3159 84.3423 68.5347 83.6809 68.5281C83.5799 68.5271 83.4835 68.5209 83.3933 68.5094C81.0845 68.2063 78.0461 66.0524 74.4698 67.1369C70.8939 68.2221 70.7942 72.5647 74.3165 73.8131C77.8395 75.0605 80.9736 73.0484 83.2936 72.8517C83.3486 72.8467 83.4058 72.8441 83.4651 72.8441C84.1606 72.8391 85.1204 73.1238 86.2497 73.5716C87.475 74.0582 88.9014 74.7367 90.4067 75.4448C91.3629 75.8946 92.351 76.3559 93.3414 76.7889C94.3628 77.2348 95.3861 77.65 96.3774 77.9879C101.356 79.6861 108.169 78.8414 111.28 77.8296Z" fill="#E2E0E0"/>
<path d="M93.3401 76.7889C91.6265 71.0073 92.7294 66.975 93.5592 65.0574C92.6192 65.4187 91.6794 65.8046 90.7667 66.1837C89.2808 70.4394 89.776 73.6025 90.4054 75.4447C91.3613 75.8949 92.3497 76.3562 93.3401 76.7889Z" fill="#FF612B"/>
<path d="M86.2481 73.5716C85.9148 71.3489 86.0056 69.4698 86.2649 67.9641C85.2274 68.3159 84.341 68.5347 83.6796 68.5281C83.3522 70.1923 83.3318 71.6378 83.4638 72.8441C84.159 72.8391 85.1188 73.1241 86.2481 73.5716Z" fill="#FF612B"/>
<path d="M68.2923 75.7942C68.2864 75.811 68.2798 75.8274 68.2732 75.8442C68.1798 76.0769 68.0258 76.246 67.8172 76.37C67.8165 76.3707 67.8156 76.3717 67.8146 76.3717C67.1101 76.7909 65.7851 76.6935 64.0596 76.7418C61.8106 76.8044 56.4714 77.3611 56.0495 76.7619C56.0446 76.7553 56.0403 76.7484 56.037 76.7418C55.9544 76.576 55.9238 76.1568 55.9229 75.6257C55.9222 74.128 56.163 71.7507 56.163 71.7507L60.8383 70.8037C60.8383 70.8037 62.142 71.724 63.2548 72.5417C63.3423 72.6052 63.4282 72.6694 63.5124 72.7319C63.6141 72.8069 63.7125 72.8803 63.8076 72.951C64.0027 73.0978 64.2001 73.232 64.3985 73.356C64.487 73.411 64.5745 73.4643 64.6627 73.5153C66.3148 74.4764 67.9192 74.7607 68.2627 75.35C68.3384 75.479 68.3525 75.6241 68.2923 75.7942Z" fill="#2A223F"/>
<path d="M68.292 75.794C67.913 76.8677 65.8278 76.994 63.5542 77.0575C61.2802 77.121 56.3529 77.3738 56.037 76.742C55.9544 76.5762 55.9238 76.157 55.9229 75.6259C56.4615 75.8934 57.3749 76.1734 58.8792 76.2359C61.5507 76.3475 66.967 76.0668 68.2621 75.3499C68.3381 75.4788 68.3522 75.6239 68.292 75.794Z" fill="white"/>
<path d="M63.5129 72.7314C63.4856 72.7647 63.457 72.7982 63.4297 72.8315C63.1437 73.1756 62.8687 73.5359 62.5653 73.8643C62.4429 73.9969 62.207 73.811 62.3162 73.6666C62.587 73.3089 62.8914 72.9739 63.1796 72.6314C63.2046 72.6015 63.2303 72.5712 63.2553 72.5413C63.3428 72.6051 63.4287 72.6689 63.5129 72.7314Z" fill="white"/>
<path d="M64.6628 73.5152C64.6079 73.5935 64.5536 73.6712 64.4986 73.7485C64.3729 73.9252 64.2436 74.1002 64.1127 74.2736C64.0475 74.3612 63.9827 74.4487 63.9152 74.5346C63.8544 74.6119 63.781 74.7113 63.6718 74.6971C63.6369 74.6928 63.5934 74.678 63.5793 74.6412C63.5359 74.5286 63.5885 74.447 63.6566 74.3552C63.7214 74.2687 63.7882 74.1828 63.854 74.096C63.9807 73.9275 64.1058 73.7574 64.2308 73.5876C64.2877 73.5109 64.3427 73.4333 64.3983 73.356C64.4868 73.4109 64.5743 73.4642 64.6628 73.5152Z" fill="white"/>
<path d="M34.2848 78.6158C34.2726 78.6283 34.2595 78.6408 34.2463 78.653C34.0633 78.8241 33.8518 78.9119 33.6103 78.9363C33.6093 78.9366 33.608 78.9369 33.6073 78.9366C32.7916 79.0179 31.6328 78.3677 30.0494 77.6803C27.986 76.7837 22.9139 75.0247 22.7859 74.3031C22.7843 74.2949 22.7833 74.287 22.7833 74.2797C22.7787 74.0945 22.9284 73.7016 23.1528 73.2206C23.7869 71.8636 25.0129 69.8127 25.0129 69.8127L29.6487 70.9367C29.6487 70.9367 30.4393 72.3226 31.1007 73.5351C31.153 73.6296 31.2037 73.724 31.2534 73.8165C31.3136 73.9274 31.3718 74.0356 31.4278 74.1399C31.5423 74.3554 31.6643 74.5607 31.7913 74.7572C31.8479 74.8444 31.9049 74.9299 31.9631 75.0135C33.0519 76.5843 34.3848 77.5217 34.446 78.2009C34.4598 78.3496 34.4111 78.4871 34.2848 78.6158Z" fill="#2A223F"/>
<path d="M34.2848 78.6158C33.4862 79.4272 31.5442 78.6582 29.4581 77.7517C27.3717 76.8452 22.8017 74.9855 22.7833 74.2794C22.7787 74.0941 22.9284 73.7013 23.1528 73.2202C23.5269 73.6907 24.2357 74.3317 25.5719 75.026C27.9439 76.2595 32.9686 78.3009 34.4457 78.2005C34.4598 78.3496 34.4111 78.4871 34.2848 78.6158Z" fill="white"/>
<path d="M31.2533 73.8157C31.2141 73.8342 31.1743 73.8523 31.1355 73.871C30.7308 74.0615 30.329 74.2711 29.9148 74.4399C29.7476 74.508 29.6127 74.2395 29.773 74.1553C30.1698 73.9464 30.5873 73.7717 30.9937 73.5838C31.0289 73.5673 31.0651 73.5512 31.1006 73.5344C31.1529 73.6289 31.2033 73.7236 31.2533 73.8157Z" fill="white"/>
<path d="M31.963 75.0133C31.8801 75.061 31.7982 75.1081 31.7152 75.1551C31.5264 75.2617 31.3352 75.3657 31.143 75.4671C31.047 75.5187 30.9512 75.5704 30.8535 75.6197C30.7656 75.6642 30.6571 75.723 30.5643 75.6638C30.5343 75.6451 30.5014 75.6132 30.5041 75.574C30.5123 75.4536 30.5945 75.4019 30.6956 75.3479C30.7913 75.2969 30.888 75.2476 30.9844 75.1969C31.1707 75.0982 31.3559 74.9972 31.5412 74.8962C31.6251 74.8508 31.7077 74.8037 31.7912 74.7573C31.8478 74.8442 31.9044 74.9297 31.963 75.0133Z" fill="white"/>
<path d="M10.8013 32.6586C14.0534 31.3019 15.5899 27.5658 14.2333 24.3137C12.8766 21.0616 9.14051 19.525 5.88843 20.8817C2.63634 22.2384 1.09978 25.9745 2.45644 29.2266C3.81309 32.4787 7.54921 34.0152 10.8013 32.6586Z" fill="#433A55"/>
<path d="M16.24 27.1514C16.24 27.1514 14.5974 27.9727 12.1971 27.9095C9.79678 27.8463 8.7228 27.1514 9.03868 26.7723C9.35455 26.3933 12.1971 26.5828 12.387 26.0142C12.5765 25.4457 11.3762 24.2453 9.92313 23.4876C8.4701 22.7295 7.01708 22.4768 7.14343 22.0345C7.26978 21.5923 8.34375 21.5291 8.34375 21.5291C8.34375 21.5291 7.83835 20.8342 9.10185 20.8342C9.10185 20.8342 9.10185 20.1393 11.313 20.392C13.5241 20.6447 16.3667 23.5507 16.3667 23.5507L16.24 27.1514Z" fill="#FFA78A"/>
<path d="M12.1684 23.1763C12.1303 23.0989 12.0464 23.0453 11.9802 22.9917C11.9082 22.9328 11.8302 22.8814 11.7509 22.8327C11.6035 22.7426 11.4521 22.6584 11.3001 22.5764C10.9892 22.4089 10.6703 22.2573 10.3456 22.1191C10.0221 21.9812 9.68949 21.8641 9.35321 21.7611C9.18771 21.7104 9.02088 21.6657 8.85209 21.6272C8.69382 21.5913 8.49179 21.5169 8.33056 21.5564C8.27726 21.5696 8.24337 21.6489 8.29207 21.6887C8.41546 21.7894 8.59577 21.8141 8.74515 21.8608C8.91033 21.9121 9.07485 21.9661 9.23871 22.021C9.57301 22.1329 9.90073 22.2625 10.2248 22.4014C10.5417 22.5373 10.8516 22.6899 11.1544 22.8555C11.306 22.9387 11.4544 23.0269 11.6035 23.1151C11.6779 23.1592 11.7529 23.2032 11.8315 23.2391C11.9111 23.2756 11.9845 23.327 12.0734 23.3322C12.1563 23.3372 12.2027 23.2454 12.1684 23.1763Z" fill="#C9634F"/>
<path d="M12.8182 22.3991C12.7879 22.3241 12.7099 22.275 12.6491 22.2237C12.5839 22.1691 12.5132 22.1184 12.4428 22.0707C12.3029 21.9759 12.1581 21.8871 12.0121 21.8025C11.7136 21.6298 11.4027 21.4778 11.0868 21.3402C10.4626 21.0681 9.79237 20.8898 9.12245 20.7727C9.00499 20.7523 8.94839 20.926 9.06948 20.9546C9.72459 21.1102 10.3498 21.3432 10.9624 21.6209C11.2651 21.7581 11.559 21.9128 11.8465 22.0789C11.993 22.1635 12.1371 22.252 12.2799 22.3425C12.3513 22.3876 12.4237 22.431 12.4974 22.4725C12.5698 22.5133 12.632 22.5606 12.7168 22.5652C12.81 22.5705 12.8481 22.4734 12.8182 22.3991Z" fill="#C9634F"/>
<path d="M64.9473 42.0599C64.9473 42.0599 65.1368 43.4497 66.5898 44.9659C68.0428 46.4821 71.5803 49.5774 71.833 49.2615C72.0857 48.9456 69.8746 46.4818 69.8746 46.4818C69.8746 46.4818 72.7806 48.9456 73.0333 48.5666C73.286 48.1875 72.3384 47.0504 72.3384 47.0504C72.3384 47.0504 73.5387 47.998 73.8546 47.8085C74.1705 47.6189 73.0333 46.4818 73.0333 46.4818C73.0333 46.4818 74.2968 47.4294 74.4864 47.0504C74.6759 46.6713 70.8854 43.2602 70.8854 43.2602C70.8854 43.2602 73.3492 43.6392 73.5387 43.1338C73.7283 42.6284 66.5898 40.2278 66.5898 40.2278L64.9473 42.0599Z" fill="#FFA78A"/>
<path d="M71.5589 44.5981C71.1344 44.7978 70.7952 45.1653 70.4477 45.475C70.1029 45.7823 69.7054 46.0787 69.4435 46.4637C69.3912 46.5404 69.4886 46.6276 69.5636 46.5888C69.7752 46.4798 69.9608 46.3226 70.1417 46.1696C70.326 46.0136 70.5053 45.8511 70.6866 45.6911C71.0305 45.3888 71.4233 45.1028 71.6685 44.7123C71.7142 44.6399 71.6293 44.5652 71.5589 44.5981Z" fill="#C9634F"/>
<path d="M70.0025 42.9491C69.969 42.8856 69.8894 42.881 69.8262 42.8783C69.6988 42.8731 69.5715 42.8889 69.4438 42.8846C69.3191 42.8803 69.1934 42.8685 69.071 42.8441C68.7818 42.7865 68.5206 42.6644 68.2481 42.5578C68.1659 42.5256 68.1083 42.6408 68.1632 42.6987C68.514 43.0682 69.1151 43.1981 69.6061 43.1751C69.7196 43.1699 69.8959 43.1613 69.9808 43.0728C70.0131 43.0402 70.0243 42.9905 70.0025 42.9491Z" fill="#C9634F"/>
<path d="M27.1061 33.0264C27.1061 33.0264 26.4743 34.9216 27.7378 39.8489C29.0013 44.7763 38.2246 55.5157 38.2246 55.5157C38.2246 55.5157 32.499 60.6414 30.7702 62.5278C29.0987 64.3516 24.6426 70.298 24.6426 70.298C24.6426 70.298 30.7071 73.0777 31.4652 73.2037C32.2233 73.3301 46.816 61.4538 46.9424 57.7897C47.0687 54.1258 42.2678 44.9026 42.2678 44.9026C42.2678 44.9026 50.6065 50.9671 50.9856 51.7252C51.3646 52.4833 54.6494 71.8139 54.9021 72.1929C55.1548 72.572 60.0821 73.4564 62.3564 70.8031C62.3564 70.8031 60.2085 52.5465 58.4399 48.061C57.8157 46.4787 46.0583 36.5638 46.0583 36.5638L27.1061 33.0264Z" fill="#433A55"/>
<path d="M30.7695 26.3301C30.7695 26.3301 26.5999 32.6473 26.4739 33.5318C26.3475 34.4162 30.1377 36.3115 34.1809 37.5746C38.2241 38.8381 46.3099 37.9537 46.6889 37.4483C47.068 36.9429 50.9845 28.9832 52.248 27.2146C52.248 27.2146 53.2588 32.1419 56.5436 36.3115C59.8287 40.4807 64.5033 43.2604 64.8824 43.134C65.2614 43.0077 68.4202 40.8597 68.1675 40.4807C67.9148 40.1016 62.2293 31.8892 60.5868 28.7308C58.9442 25.572 58.9442 19.2549 57.3017 17.1072C55.6591 14.9593 53.0061 13.3171 53.0061 13.3171C53.0061 13.3171 45.4254 12.938 38.3501 15.5914C31.2749 18.2447 16.8716 23.172 16.3662 23.5511C15.8608 23.9301 15.7345 27.594 16.3662 28.2257C16.998 28.8568 29.2533 26.8355 30.7695 26.3301Z" fill="#3E51B8"/>
<path d="M45.5794 15.083C45.5071 14.9563 45.407 14.8405 45.3083 14.7339C45.2771 14.7003 45.228 14.7411 45.2461 14.7799C45.4982 15.3235 45.6265 15.9184 45.6051 16.5166C45.5831 17.1335 45.438 17.7383 45.2336 18.3191C45.0092 18.9561 44.7167 19.571 44.3186 20.1186C43.9619 20.6088 43.5207 21.0356 43.0452 21.41C42.0611 22.1856 40.9186 22.7377 39.7858 23.2576C38.4808 23.8564 37.1492 24.3977 35.7965 24.8791C34.4504 25.3581 33.083 25.7638 31.7066 26.1468C31.5358 26.1942 31.3657 26.2413 31.1959 26.2919C31.0804 26.3265 31.1203 26.4979 31.2394 26.4746C31.9583 26.3321 32.6657 26.1304 33.3686 25.9241C34.072 25.7175 34.7709 25.4944 35.4642 25.2558C36.8494 24.7794 38.2133 24.2407 39.5502 23.6425C40.7373 23.1112 41.9327 22.5534 42.9847 21.7795C43.4874 21.4097 43.9547 20.9908 44.3488 20.5055C44.7802 19.9744 45.1099 19.3809 45.3672 18.7481C45.6114 18.1483 45.7973 17.5231 45.8614 16.8766C45.9187 16.2905 45.8776 15.6058 45.5794 15.083Z" fill="#2A398C"/>
<path d="M56.1914 23.1296C55.9219 23.1872 55.686 23.3767 55.4633 23.5297C55.2303 23.6896 55.002 23.8565 54.7808 24.0325C54.6433 24.1424 54.5058 24.2543 54.3719 24.3701C54.5143 24.1904 54.6588 24.0124 54.8068 23.8377C54.9319 23.69 55.0589 23.5442 55.1875 23.3998C55.3155 23.2563 55.4669 23.1115 55.5491 22.9355C55.5837 22.8615 55.5143 22.77 55.4327 22.8144C55.2836 22.896 55.1661 23.0296 55.0536 23.1546C54.9368 23.2846 54.822 23.4162 54.7081 23.5488C54.4818 23.8134 54.2616 24.0835 54.0474 24.3582C53.6184 24.9084 53.2097 25.4786 52.8451 26.0738C52.6372 26.4137 52.424 26.7563 52.2614 27.1205C52.2206 27.2123 52.3371 27.287 52.3973 27.2018C52.5954 26.9214 52.7694 26.6247 52.9583 26.3377C53.1505 26.0459 53.3456 25.7553 53.547 25.4701C53.6114 25.3786 53.6773 25.2884 53.7431 25.1983C53.9247 25.0505 54.0955 24.8873 54.2741 24.736C54.4873 24.5553 54.6969 24.3717 54.9174 24.1997C55.1346 24.0302 55.3557 23.8654 55.5824 23.7087C55.8028 23.5567 56.0664 23.4271 56.2408 23.2201C56.2743 23.1813 56.2467 23.1178 56.1914 23.1296Z" fill="#2A398C"/>
<path d="M42.2722 44.7378C42.2008 44.565 42.1472 44.3877 42.0666 44.2186C41.9869 44.0514 41.9047 43.8859 41.8178 43.7227C41.6503 43.4075 41.475 43.0966 41.292 42.7899C41.2716 42.7557 41.2499 42.7221 41.2292 42.6879C41.2466 42.6501 41.2637 42.6119 41.2775 42.5721C41.3012 42.5033 41.3279 42.4355 41.3519 42.3668C41.3963 42.2388 41.4374 42.1098 41.4858 41.9828C41.5842 41.7241 41.7155 41.4685 41.7698 41.1964C41.7829 41.1299 41.7013 41.0631 41.6467 41.1223C41.449 41.3375 41.3394 41.6248 41.2413 41.8966C41.1923 42.0325 41.1423 42.1703 41.1071 42.3105C41.0962 42.3542 41.0877 42.3983 41.0781 42.4428C40.9607 42.2555 40.8416 42.07 40.7178 41.8867C40.6172 41.7376 40.5175 41.5873 40.4089 41.4438C40.3046 41.3056 40.1878 41.1171 40.0311 41.0351C39.9532 40.9943 39.8627 41.0575 39.8801 41.1457C39.9124 41.3096 40.0433 41.4632 40.1338 41.5998C40.2325 41.7485 40.3378 41.8926 40.4382 42.04C40.6425 42.3404 40.8402 42.6458 41.0314 42.9547C41.2196 43.2581 41.4003 43.5664 41.5733 43.8787C41.6599 44.0346 41.7471 44.1906 41.8326 44.3472C41.9215 44.5098 42.0297 44.6601 42.1192 44.822C42.1751 44.9217 42.314 44.8391 42.2722 44.7378Z" fill="#2A223F"/>
<path d="M39.8628 56.5647C39.8029 56.4647 39.6999 56.4107 39.5999 56.3584C39.5028 56.3074 39.4031 56.261 39.3041 56.2133C39.1484 56.1386 38.9882 56.0731 38.828 56.008C38.6539 55.7961 38.4756 55.5855 38.2781 55.3986C38.2104 55.3348 38.1021 55.4115 38.1459 55.4963C38.3193 55.8343 38.5605 56.1468 38.7951 56.4443C38.9102 56.5904 39.0254 56.7375 39.1458 56.8793C39.2093 56.954 39.2718 57.031 39.3422 57.0997C39.4064 57.1626 39.4794 57.2452 39.5712 57.261C39.6265 57.2708 39.6913 57.2396 39.69 57.1744C39.6884 57.0833 39.6354 57.0125 39.5857 56.9398C39.5288 56.8566 39.464 56.7789 39.4002 56.7006C39.3258 56.6095 39.2504 56.5193 39.1748 56.4292C39.178 56.4308 39.181 56.4328 39.1843 56.4344C39.2781 56.4835 39.3715 56.5331 39.4673 56.5785C39.5696 56.6272 39.6779 56.6861 39.7953 56.6746C39.8476 56.6694 39.8947 56.618 39.8628 56.5647Z" fill="#2A223F"/>
<path d="M53.3224 13.0007C53.3224 13.0007 51.2376 12.369 50.3535 15.2115C49.469 18.0544 49.4059 18.623 49.9113 18.6862C50.4167 18.7493 54.3332 17.3595 54.3332 17.3595L55.344 17.6122C55.344 17.6122 55.0913 20.8341 55.5967 20.8973C56.1021 20.9605 58.1237 19.697 57.6183 17.0436C57.1126 14.3906 53.3224 13.0007 53.3224 13.0007Z" fill="white"/>
<path d="M60.882 15.3381L58.7166 16.6918L56.5019 18.0754C56.5019 18.0754 54.3964 18.1596 53.4695 16.5592C52.5436 14.9587 53.0062 13.3168 53.0062 13.3168L55.3233 11.8891L57.1754 10.748L60.882 15.3381Z" fill="#FFA78A"/>
<path d="M60.8826 15.3381L58.7172 16.6918C57.7153 16.2676 56.6335 16.061 56.1659 15.0222C55.5973 13.7591 55.4966 12.7167 55.3242 11.8891L57.1764 10.748L60.8826 15.3381Z" fill="#C9634F"/>
<path d="M60.3659 0.966687C57.0492 0.429699 55.1543 2.04066 55.1543 2.04066C55.1543 2.04066 55.5649 0.777163 55.1227 0.745576C54.6805 0.713988 53.8592 2.32495 53.8592 2.32495C53.8592 2.32495 53.954 0.871926 53.3854 1.09304C52.9376 1.2671 52.7839 2.4796 52.7385 2.98664C52.7286 2.9748 52.7184 2.96328 52.7096 2.95144C52.6421 2.86194 52.5858 2.75731 52.5493 2.65136C52.5121 2.54442 52.4842 2.42991 52.4776 2.31673C52.4704 2.19564 52.4773 2.07159 52.4769 1.95051C52.4766 1.85805 52.3499 1.81495 52.3009 1.89918C52.1574 2.14629 52.1857 2.47335 52.2795 2.73526C52.3213 2.8524 52.3756 2.96164 52.444 3.0643C52.424 3.05936 52.4039 3.0541 52.3841 3.04752C52.3743 3.04423 52.3641 3.04061 52.3542 3.03699C52.3483 3.03468 52.3384 3.03074 52.3351 3.02942C52.2917 3.01001 52.2489 2.98829 52.2084 2.96328C52.1871 2.95012 52.1663 2.93564 52.1459 2.92084C52.1433 2.91886 52.1433 2.91886 52.142 2.9182C52.142 2.9182 52.142 2.91788 52.1397 2.9159C52.1301 2.90768 52.1206 2.89945 52.111 2.8909C52.0772 2.85964 52.0452 2.82575 52.0179 2.78889C52.015 2.78429 52.0074 2.77343 52.0058 2.7708C51.9988 2.76027 51.9923 2.74974 51.9854 2.73921C51.9715 2.71848 51.9587 2.69676 51.9449 2.67603C51.9179 2.63688 51.8883 2.57732 51.8439 2.55725C51.8198 2.54639 51.7916 2.54541 51.7718 2.56548C51.7442 2.59345 51.7396 2.61812 51.7376 2.6553C51.7359 2.68623 51.734 2.72078 51.7392 2.75533C51.7481 2.81456 51.7741 2.8728 51.8037 2.92479C51.8649 3.03238 51.9475 3.12484 52.0442 3.20118C52.1423 3.27883 52.2548 3.33509 52.3766 3.36569C52.419 3.37655 52.4628 3.38346 52.5065 3.3884C50.2224 5.23989 50.5412 10.2514 52.5013 12.2115C54.5545 14.2647 57.5865 12.6537 57.5865 12.6537L57.555 11.8641L63.1983 5.52582C63.1983 5.52582 64.5039 5.00989 64.5986 3.43052C64.6931 1.85114 63.6823 1.50368 60.3659 0.966687Z" fill="#823B2A"/>
<path d="M64.6294 11.7372C64.5452 12.158 63.6183 12.1373 63.4916 12.2215C63.4515 12.2482 63.3607 12.6108 63.2366 13.1027C63.129 13.0892 62.9948 13.0668 62.8289 13.0326C61.9754 12.8585 61.802 12.1482 61.5177 12.4167C61.2568 12.6634 61.8754 13.8693 63.0188 13.9421C62.7661 14.8713 62.4495 15.86 62.1445 16.0124C61.5546 16.3065 58.0586 15.2747 57.4903 14.0743C57.3554 13.7894 57.2435 13.2768 57.1669 12.8391C57.0909 12.4107 57.0484 12.0531 57.0484 12.0531C55.574 11.7165 55.4055 8.97887 56.164 8.8522C56.9217 8.72617 57.5535 9.77909 57.5535 9.77909C58.7331 9.98902 59.0697 6.87271 59.0697 6.87271C61.2176 7.04184 63.1971 5.52563 63.1971 5.52563C63.3231 6.66246 63.458 9.35497 63.4498 9.69486C63.4291 10.5372 64.7137 11.3164 64.6294 11.7372Z" fill="#FFA78A"/>
<path d="M53.6689 6.28751C53.6955 6.18222 53.7534 6.05653 53.7238 5.94729C53.7172 5.92261 53.6886 5.89892 53.6616 5.90879C53.5409 5.95288 53.4849 6.08614 53.4379 6.19637C53.3842 6.32173 53.3569 6.45795 53.3369 6.59253C53.3174 6.72085 53.3119 6.84951 53.3201 6.97915C53.3273 7.09365 53.3309 7.30094 53.4556 7.35589C53.4869 7.36971 53.527 7.373 53.5527 7.34471C53.6363 7.25192 53.5958 7.11076 53.5886 6.9979C53.581 6.87681 53.585 6.75441 53.5978 6.63399C53.6103 6.51553 53.6399 6.40234 53.6689 6.28751Z" fill="#5E1F13"/>
<path d="M52.5474 7.23097C52.5478 7.229 52.5478 7.22735 52.5478 7.22538C52.5504 7.1961 52.5264 7.16385 52.4977 7.15694C52.4694 7.15003 52.4326 7.15957 52.4188 7.18787C52.4178 7.18985 52.4171 7.19149 52.4161 7.19346C52.4079 7.2007 52.4007 7.20893 52.3944 7.21946C52.3878 7.23065 52.3832 7.24249 52.378 7.25434C52.3704 7.27178 52.3619 7.28954 52.3566 7.30797C52.3451 7.34877 52.3385 7.39385 52.3349 7.43597C52.3316 7.47282 52.3306 7.51 52.3312 7.54751C52.3322 7.59686 52.3362 7.65379 52.3655 7.69492C52.3885 7.72683 52.4171 7.74723 52.4586 7.74328C52.4984 7.73901 52.5267 7.71269 52.5405 7.67583C52.5553 7.63602 52.5517 7.59522 52.5491 7.55343C52.5468 7.51789 52.5464 7.4817 52.5481 7.44616C52.5494 7.41063 52.5524 7.37509 52.554 7.33923C52.5563 7.30435 52.5573 7.26519 52.5474 7.23097Z" fill="#5E1F13"/>
<path d="M58.4614 3.44645C58.3328 3.14604 57.9715 3.123 57.7007 3.21711C57.6724 3.06904 57.5319 2.95388 57.371 2.92887C57.1374 2.89268 56.8847 2.9904 56.6731 3.08023C56.4615 3.17006 56.2588 3.29542 56.0871 3.44842C55.9976 3.52805 55.9242 3.61623 55.8492 3.70869C55.7798 3.79424 55.7028 3.88407 55.6672 3.98969C55.6426 4.06306 55.734 4.10156 55.7854 4.06076C55.8535 4.0068 55.9055 3.93342 55.9667 3.87189C56.0325 3.80543 56.1058 3.74883 56.1786 3.68994C56.3181 3.57708 56.4671 3.47474 56.6264 3.39117C56.7817 3.30957 56.9439 3.24212 57.1143 3.19901C57.2071 3.17565 57.3104 3.15591 57.4026 3.19342C57.445 3.21053 57.4904 3.24903 57.5148 3.29443C57.2966 3.39676 57.0943 3.53299 56.911 3.68895C56.7975 3.78569 56.6935 3.88834 56.6047 4.00811C56.5112 4.13413 56.4517 4.2697 56.3793 4.40756C56.3546 4.45429 56.4168 4.48851 56.448 4.44869C56.524 4.35229 56.6221 4.27365 56.7109 4.18908C56.7962 4.10781 56.8843 4.02818 56.9728 3.95086C57.1505 3.79556 57.3489 3.66723 57.5585 3.55964C57.7336 3.46981 58.0268 3.32438 58.1975 3.49975C58.2762 3.58004 58.262 3.70112 58.2271 3.79819C58.1853 3.91533 58.1176 4.02457 58.0692 4.14006C58.0508 4.18415 58.1107 4.22923 58.1495 4.20455C58.2841 4.11834 58.3933 4.01535 58.4548 3.86465C58.5085 3.73304 58.518 3.57839 58.4614 3.44645Z" fill="#5E1F13"/>
<path d="M57.3782 1.83406C57.3663 1.79228 57.3311 1.76168 57.2867 1.7597C57.2209 1.75707 57.1604 1.78372 57.1008 1.8084C57.0508 1.82946 57.0024 1.85381 56.9557 1.88145C56.8596 1.93837 56.7731 2.01602 56.6984 2.09894C56.6685 2.13217 56.6612 2.18712 56.6964 2.22068C56.7316 2.25359 56.782 2.25457 56.8178 2.22233C56.8369 2.20522 56.8567 2.18877 56.8767 2.17297C56.8813 2.16902 56.8863 2.16573 56.8912 2.16178L56.8919 2.16146C56.8925 2.16113 56.8922 2.16146 56.8932 2.16047C56.9031 2.15389 56.9126 2.14665 56.9228 2.14007C56.9652 2.11177 57.01 2.08709 57.0544 2.06209C57.0978 2.03774 57.1429 2.01668 57.189 1.99793C57.1896 1.9976 57.19 1.9976 57.1906 1.99727C57.1952 1.99562 57.2002 1.99365 57.2048 1.992C57.2163 1.98805 57.2275 1.98411 57.239 1.98049C57.2709 1.97029 57.3018 1.9591 57.3301 1.941C57.3654 1.91863 57.3904 1.87651 57.3782 1.83406Z" fill="#5E1F13"/>
<path d="M62.4172 3.37948C62.3093 3.37125 62.1944 3.45384 62.1062 3.51043C62.0148 3.56933 61.924 3.62823 61.8295 3.68252C61.7384 3.73484 61.6469 3.78682 61.5545 3.83717C61.5058 3.86382 61.4561 3.88981 61.409 3.91976C61.362 3.94937 61.3064 3.98161 61.2777 4.03064C61.2511 4.07605 61.2744 4.13495 61.3248 4.15008C61.4297 4.182 61.5693 4.11981 61.6663 4.08197C61.7716 4.04117 61.873 3.99642 61.9723 3.94312C62.0678 3.89212 62.1632 3.83914 62.2533 3.77926C62.3481 3.71674 62.486 3.62625 62.5116 3.50945C62.5264 3.44364 62.4856 3.38507 62.4172 3.37948Z" fill="#5E1F13"/>
<path d="M62.572 3.87964C62.5723 3.87964 62.5723 3.87964 62.572 3.87964C62.5516 3.89299 62.5663 3.88421 62.572 3.87964Z" fill="#5E1F13"/>
<path d="M63.0362 3.70551C63.0303 3.65978 62.9809 3.62918 62.9388 3.62622C62.9138 3.62457 62.8894 3.63148 62.869 3.64563C62.8628 3.64991 62.8618 3.65122 62.8628 3.65155C62.8546 3.65451 62.8463 3.65682 62.8391 3.66109C62.8111 3.67656 62.7878 3.7042 62.7638 3.72493C62.7272 3.75619 62.6917 3.7881 62.6535 3.81706C62.6535 3.81706 62.6525 3.81771 62.6519 3.81804C62.6525 3.81771 62.6519 3.81804 62.6499 3.81936C62.6469 3.82166 62.644 3.82397 62.641 3.82627C62.643 3.82462 62.645 3.82298 62.6469 3.82166C62.646 3.82232 62.646 3.82232 62.6446 3.82331C62.6285 3.83483 62.6127 3.84634 62.5976 3.85852C62.5887 3.86575 62.5798 3.87266 62.5706 3.87957C62.5716 3.87892 62.5716 3.87892 62.5729 3.87826C62.5686 3.88089 62.5644 3.88451 62.5601 3.88747C62.5157 3.91906 62.4722 3.95097 62.4341 3.98947C62.3906 4.03323 62.4183 4.11747 62.4837 4.11714C62.594 4.11648 62.7039 4.0691 62.795 4.00889C62.8427 3.9773 62.8908 3.94406 62.9329 3.90524C62.9566 3.88352 62.9862 3.8595 63.0026 3.83153C63.0043 3.82857 63.0105 3.81541 63.0145 3.8062C63.0155 3.80455 63.0168 3.80258 63.0178 3.80093C63.0375 3.76935 63.0408 3.74171 63.0362 3.70551Z" fill="#5E1F13"/>
<path d="M62.6533 3.81787C62.6525 3.81864 62.6502 3.82019 62.6475 3.82212C62.649 3.82096 62.6502 3.82019 62.6509 3.81942C62.6517 3.81903 62.6525 3.81864 62.6533 3.81787Z" fill="#5E1F13"/>
<path d="M55.8877 0.897264C55.861 0.860083 55.8189 0.851528 55.7765 0.86469C55.7238 0.881471 55.6916 0.934445 55.6643 0.979523C55.6172 1.05718 55.58 1.14174 55.5363 1.22169C55.4909 1.30461 55.4431 1.38621 55.3961 1.46814C55.3441 1.5583 55.2895 1.64714 55.2362 1.73664C55.1829 1.82548 55.1128 1.91333 55.0825 2.01336C55.0677 2.06304 55.1233 2.10713 55.1684 2.08213C55.2497 2.03771 55.3102 1.96104 55.3698 1.89194C55.4313 1.82087 55.4899 1.74782 55.5445 1.67116C55.6527 1.51947 55.7468 1.35989 55.8321 1.19406C55.8739 1.1141 55.9492 0.983472 55.8877 0.897264Z" fill="#5E1F13"/>
<path d="M62.4831 9.73684C62.4831 9.96947 62.3607 10.158 62.2093 10.158C62.0583 10.158 61.9355 9.96947 61.9355 9.73684C61.9355 9.50421 62.0583 9.31567 62.2093 9.31567C62.3607 9.31567 62.4831 9.50421 62.4831 9.73684Z" fill="black"/>
<path d="M62.6712 8.38917C62.6712 8.61028 62.486 8.5629 62.1606 8.5629C61.8348 8.5629 61.3604 8.67839 61.3604 8.45761C61.3604 8.23649 61.9191 8.01538 62.2448 8.01538C62.5705 8.01538 62.6712 8.16838 62.6712 8.38917Z" fill="#823B2A"/>
</svg>
