<svg width="108" height="108" viewBox="0 0 108 108" fill="none" xmlns="http://www.w3.org/2000/svg">
<path d="M53.9248 16.4442C54.0639 15.4331 52.637 14.6015 51.565 14.5151C51.0537 14.4739 50.5225 14.5521 50.0383 14.3834C48.9887 14.0177 48.5697 12.6618 47.5456 12.2298C46.7801 11.9069 45.8986 12.1944 45.1564 12.5679C44.4143 12.9413 43.6807 13.4116 42.8515 13.4645C42.1303 13.5107 41.3471 13.2431 40.7159 13.5956C40.2457 13.8583 39.9994 14.4 39.5659 14.7197C39.1419 15.0324 38.5888 15.0988 38.0628 15.1273C37.5366 15.1558 36.9921 15.1612 36.513 15.3806C36.0339 15.6001 35.6375 16.1066 35.7371 16.6239L53.9248 16.4442Z" fill="#EBEBEB"/>
<path d="M96.1269 34.9566C96.266 33.9455 94.8393 33.1139 93.7671 33.0275C93.2558 32.9863 92.7247 33.0645 92.2404 32.8956C91.1909 32.5299 90.7718 31.1741 89.7478 30.7421C88.9823 30.4191 88.1008 30.7066 87.3586 31.0801C86.6164 31.4536 85.8829 31.9238 85.0537 31.9767C84.3324 32.0229 83.5492 31.7553 82.9181 32.1078C82.4478 32.3703 82.2016 32.9122 81.7681 33.2319C81.3441 33.5446 80.7909 33.611 80.2649 33.6395C79.7388 33.668 79.1942 33.6734 78.7151 33.8928C78.2361 34.1121 77.8397 34.6188 77.9393 35.1361L96.1269 34.9566Z" fill="#EBEBEB"/>
<path d="M9.43985 9.57471H7.46777V50.5238H9.43985V9.57471Z" fill="#FAFAFA"/>
<path d="M39.7094 9.57471H37.7373V50.5238H39.7094V9.57471Z" fill="#FAFAFA"/>
<path d="M69.9799 9.57471H68.0078V50.5238H69.9799V9.57471Z" fill="#FAFAFA"/>
<path d="M100.249 9.57471H98.2773V50.5238H100.249V9.57471Z" fill="#FAFAFA"/>
<path d="M3.39616 88.4861L104.066 88.4861V49.67L3.39616 49.67V88.4861Z" fill="#FAFAFA"/>
<path d="M99.5808 9.70753C99.5808 9.73863 78.9804 9.76369 53.5743 9.76369C28.1595 9.76369 7.56348 9.73842 7.56348 9.70753C7.56348 9.67643 28.1595 9.65137 53.5743 9.65137C78.9802 9.65115 99.5808 9.67643 99.5808 9.70753Z" fill="#F5F5F5"/>
<path d="M82.1636 88.4545H79.6602V55.0492C79.6602 54.358 80.2205 53.7975 80.9119 53.7975C81.6031 53.7975 82.1636 54.3578 82.1636 55.0492V88.4545Z" fill="#E0E0E0"/>
<path d="M88.9915 88.4543H86.4883V55.0491C86.4883 54.3579 87.0486 53.7974 87.74 53.7974C88.4312 53.7974 88.9917 54.3577 88.9917 55.0491V88.4543H88.9915Z" fill="#E0E0E0"/>
<path d="M87.2885 53.9201H81.2887C81.0399 53.9201 80.8379 53.7184 80.8379 53.4693C80.8379 53.2203 81.0396 53.0186 81.2887 53.0186H87.2885C87.5376 53.0186 87.7393 53.2203 87.7393 53.4693C87.7393 53.7182 87.5376 53.9201 87.2885 53.9201Z" fill="#E0E0E0"/>
<path d="M82.6539 54.5025C82.3159 54.5025 82.042 54.2286 82.042 53.8905V52.8863C82.042 52.5483 82.3159 52.2744 82.6539 52.2744C82.992 52.2744 83.2659 52.5483 83.2659 52.8863V53.8905C83.2659 54.2286 82.992 54.5025 82.6539 54.5025Z" fill="#E0E0E0"/>
<path d="M83.777 54.5025C83.4389 54.5025 83.165 54.2286 83.165 53.8905V52.8863C83.165 52.5483 83.4389 52.2744 83.777 52.2744C84.115 52.2744 84.3889 52.5483 84.3889 52.8863V53.8905C84.3889 54.2286 84.115 54.5025 83.777 54.5025Z" fill="#E0E0E0"/>
<path d="M84.9 54.5025C84.562 54.5025 84.2881 54.2286 84.2881 53.8905V52.8863C84.2881 52.5483 84.562 52.2744 84.9 52.2744C85.2381 52.2744 85.5119 52.5483 85.5119 52.8863V53.8905C85.5119 54.2286 85.2381 54.5025 84.9 54.5025Z" fill="#E0E0E0"/>
<path d="M86.024 54.5025C85.686 54.5025 85.4121 54.2286 85.4121 53.8905V52.8863C85.4121 52.5483 85.686 52.2744 86.024 52.2744C86.3621 52.2744 86.636 52.5483 86.636 52.8863V53.8905C86.636 54.2286 86.3621 54.5025 86.024 54.5025Z" fill="#E0E0E0"/>
<path d="M95.4944 88.4545H92.9912V55.0492C92.9912 54.358 93.5515 53.7975 94.2429 53.7975C94.9341 53.7975 95.4947 54.3578 95.4947 55.0492V88.4545H95.4944Z" fill="#E0E0E0"/>
<path d="M93.7914 53.9201H87.7916C87.5428 53.9201 87.3408 53.7184 87.3408 53.4693C87.3408 53.2203 87.5426 53.0186 87.7916 53.0186H93.7914C94.0405 53.0186 94.2422 53.2203 94.2422 53.4693C94.2422 53.7182 94.0405 53.9201 93.7914 53.9201Z" fill="#E0E0E0"/>
<path d="M89.1568 54.5025C88.8188 54.5025 88.5449 54.2286 88.5449 53.8905V52.8863C88.5449 52.5483 88.8188 52.2744 89.1568 52.2744C89.4949 52.2744 89.7688 52.5483 89.7688 52.8863V53.8905C89.7688 54.2286 89.4949 54.5025 89.1568 54.5025Z" fill="#E0E0E0"/>
<path d="M90.2799 54.5025C89.9419 54.5025 89.668 54.2286 89.668 53.8905V52.8863C89.668 52.5483 89.9419 52.2744 90.2799 52.2744C90.6179 52.2744 90.8918 52.5483 90.8918 52.8863V53.8905C90.8918 54.2286 90.6179 54.5025 90.2799 54.5025Z" fill="#E0E0E0"/>
<path d="M91.4029 54.5025C91.0649 54.5025 90.791 54.2286 90.791 53.8905V52.8863C90.791 52.5483 91.0649 52.2744 91.4029 52.2744C91.741 52.2744 92.0149 52.5483 92.0149 52.8863V53.8905C92.0151 54.2286 91.741 54.5025 91.4029 54.5025Z" fill="#E0E0E0"/>
<path d="M92.527 54.5025C92.1889 54.5025 91.915 54.2286 91.915 53.8905V52.8863C91.915 52.5483 92.1889 52.2744 92.527 52.2744C92.865 52.2744 93.1389 52.5483 93.1389 52.8863V53.8905C93.1389 54.2286 92.8648 54.5025 92.527 54.5025Z" fill="#E0E0E0"/>
<path d="M30.2772 32.7298C30.4163 31.7187 28.9894 30.8871 27.9174 30.8007C27.4062 30.7595 26.875 30.8377 26.3907 30.6688C25.3412 30.3031 24.9222 28.9472 23.8981 28.5152C23.1326 28.1923 22.2511 28.4798 21.5089 28.8533C20.7668 29.2267 20.0332 29.697 19.204 29.7499C18.4828 29.7961 17.6996 29.5285 17.0684 29.881C16.5982 30.1435 16.3519 30.6854 15.9184 31.0051C15.4944 31.3178 14.9412 31.3842 14.4153 31.4127C13.8891 31.4414 13.3446 31.4466 12.8655 31.666C12.3864 31.8855 11.9902 32.392 12.0896 32.9093L30.2772 32.7298Z" fill="#EBEBEB"/>
<path d="M104.718 88.47C104.718 88.5011 82.0093 88.5261 54.0027 88.5261C25.9864 88.5261 3.28223 88.5009 3.28223 88.47C3.28223 88.4391 25.9864 88.4138 54.0027 88.4138C82.009 88.4138 104.718 88.4389 104.718 88.47Z" fill="#263238"/>
<path d="M23.4479 85.0657C23.4567 85.0557 23.6423 85.1985 23.9084 85.4666C24.1747 85.734 24.5149 86.1338 24.8268 86.62C25.1378 87.1069 25.3584 87.5834 25.4899 87.9372C25.6219 88.2912 25.6737 88.5193 25.6612 88.5232C25.6444 88.5286 25.5657 88.3098 25.4163 87.9672C25.2672 87.6244 25.0387 87.1609 24.7322 86.6807C24.4246 86.2014 24.0993 85.7999 23.8505 85.521C23.6019 85.2417 23.436 85.0788 23.4479 85.0657Z" fill="#263238"/>
<path d="M26.2003 84.8203C26.2168 84.8207 26.2237 85.0257 26.2368 85.356C26.2496 85.6863 26.2721 86.142 26.3168 86.6438C26.3619 87.1456 26.4209 87.5981 26.4671 87.9255C26.5131 88.253 26.5425 88.4558 26.5265 88.459C26.512 88.4621 26.455 88.2644 26.3887 87.9387C26.3224 87.6132 26.2502 87.1592 26.2049 86.6537C26.1599 86.1485 26.15 85.6888 26.1576 85.3569C26.1647 85.0246 26.1859 84.8199 26.2003 84.8203Z" fill="#263238"/>
<path d="M29.1004 85.4028C29.1282 85.4274 28.5286 86.0065 28.0504 86.8993C27.5637 87.7879 27.4065 88.6063 27.3706 88.5964C27.3577 88.594 27.3797 88.3871 27.465 88.0622C27.5497 87.7378 27.7074 87.2978 27.9514 86.8455C28.1966 86.394 28.4791 86.0217 28.7044 85.7735C28.9299 85.5249 29.0913 85.3933 29.1004 85.4028Z" fill="#263238"/>
<path d="M15.528 96.9998C15.5368 96.9898 15.7224 97.1324 15.9885 97.4006C16.2548 97.6681 16.595 98.0679 16.9069 98.5541C17.2179 99.041 17.4387 99.5175 17.57 99.8713C17.702 100.225 17.7541 100.453 17.7413 100.457C17.7245 100.463 17.6458 100.244 17.4964 99.9013C17.3473 99.5585 17.1188 99.095 16.8121 98.6148C16.5045 98.1355 16.1792 97.7339 15.9304 97.4551C15.6818 97.1758 15.5159 97.0127 15.528 96.9998Z" fill="#263238"/>
<path d="M18.2808 96.7542C18.2973 96.7546 18.3042 96.9596 18.3171 97.2898C18.3299 97.6201 18.3523 98.0759 18.3971 98.5776C18.4422 99.0794 18.5012 99.5319 18.5472 99.8594C18.5932 100.187 18.6226 100.39 18.6066 100.393C18.5923 100.396 18.5351 100.198 18.4688 99.8728C18.4025 99.5472 18.3303 99.0932 18.285 98.5878C18.24 98.0825 18.2301 97.6229 18.2376 97.2907C18.245 96.9585 18.2662 96.7539 18.2808 96.7542Z" fill="#263238"/>
<path d="M21.1804 97.3369C21.2083 97.3615 20.6087 97.9406 20.1305 98.8334C19.6438 99.722 19.4866 100.54 19.4507 100.531C19.4377 100.528 19.4598 100.321 19.5451 99.9965C19.63 99.6721 19.7874 99.2319 20.0315 98.7798C20.2767 98.3283 20.5592 97.956 20.7847 97.7078C21.01 97.4589 21.1714 97.3274 21.1804 97.3369Z" fill="#263238"/>
<path d="M85.5318 97.291C85.5407 97.2811 85.7262 97.4239 85.9924 97.6919C86.2587 97.9593 86.5989 98.3591 86.9108 98.8454C87.2218 99.3322 87.4426 99.8087 87.5739 100.163C87.7059 100.517 87.7579 100.745 87.7452 100.749C87.7284 100.754 87.6497 100.535 87.5003 100.193C87.3512 99.8498 87.1227 99.3862 86.816 98.906C86.5084 98.4267 86.1831 98.0252 85.9343 97.7463C85.6856 97.4671 85.52 97.304 85.5318 97.291Z" fill="#263238"/>
<path d="M88.2845 97.0454C88.301 97.0458 88.3079 97.2508 88.321 97.5811C88.3338 97.9114 88.3563 98.3671 88.401 98.8689C88.4461 99.3706 88.5051 99.8232 88.5511 100.151C88.5971 100.478 88.6265 100.681 88.6105 100.684C88.5962 100.687 88.539 100.49 88.4727 100.164C88.4064 99.8383 88.3342 99.3843 88.2889 98.8788C88.2439 98.3736 88.234 97.9139 88.2416 97.5817C88.2489 97.2497 88.2699 97.045 88.2845 97.0454Z" fill="#263238"/>
<path d="M91.1843 97.6282C91.2122 97.6528 90.6126 98.2319 90.1344 99.1246C89.6477 100.013 89.4905 100.832 89.4546 100.822C89.4417 100.82 89.4637 100.613 89.549 100.288C89.6337 99.9634 89.7914 99.5232 90.0354 99.0711C90.2806 98.6196 90.5631 98.2472 90.7886 97.9991C91.0139 97.75 91.175 97.6185 91.1843 97.6282Z" fill="#263238"/>
<path d="M53.1852 95.8318C53.194 95.8218 53.3796 95.9646 53.6457 96.2327C53.912 96.5001 54.2522 96.8999 54.5641 97.3861C54.8752 97.873 55.0959 98.3495 55.2272 98.7033C55.3592 99.0573 55.4113 99.2854 55.3985 99.2893C55.3817 99.2947 55.303 99.0759 55.1536 98.7333C55.0045 98.3905 54.776 97.927 54.4693 97.4468C54.1617 96.9675 53.8364 96.566 53.5876 96.2871C53.339 96.0078 53.1733 95.845 53.1852 95.8318Z" fill="#263238"/>
<path d="M55.9381 95.5864C55.9545 95.5869 55.9614 95.7918 55.9744 96.1221C55.9871 96.4524 56.0096 96.9081 56.0543 97.4099C56.0994 97.9117 56.1584 98.3642 56.2044 98.6916C56.2504 99.0191 56.2798 99.2219 56.2638 99.2252C56.2495 99.2282 56.1923 99.0305 56.126 98.7048C56.0597 98.3793 55.9875 97.9253 55.9422 97.4198C55.8973 96.9146 55.8873 96.455 55.8949 96.1228C55.9024 95.7905 55.9234 95.586 55.9381 95.5864Z" fill="#263238"/>
<path d="M58.8377 96.1689C58.8655 96.1936 58.2659 96.7727 57.7877 97.6654C57.301 98.554 57.1438 99.3724 57.1079 99.3625C57.095 99.3601 57.117 99.1532 57.2023 98.8283C57.287 98.5039 57.4447 98.0639 57.6888 97.6116C57.9339 97.1602 58.2164 96.7878 58.4419 96.5396C58.6672 96.291 58.8284 96.1594 58.8377 96.1689Z" fill="#263238"/>
<path d="M13.903 79.795C14.3089 79.9711 14.6074 80.3463 14.7571 80.7625C14.9068 81.1787 14.9204 81.6336 14.8705 82.0732C14.7742 82.9238 14.2908 83.7822 13.7704 84.4619C13.0542 83.8368 12.8894 82.7465 12.8405 82.1881C12.7634 81.3055 13.16 79.6635 13.903 79.795Z" fill="#FF725E"/>
<path d="M14.6026 85.8654C14.4879 85.3848 14.6879 84.8573 15.0571 84.5285C15.426 84.1998 15.9416 84.0607 16.4343 84.0983C16.6622 84.1158 16.9084 84.1821 17.0389 84.3698C17.1609 84.5452 17.1471 84.7899 17.0482 84.9793C16.9492 85.1685 16.7779 85.3102 16.5969 85.4236C15.9764 85.8131 15.3042 86.0762 14.6026 85.8654Z" fill="#FF725E"/>
<path d="M13.6846 88.4734C13.6803 88.4723 13.6902 88.4103 13.7101 88.2989C13.7325 88.176 13.7617 88.0172 13.7967 87.8265C13.8758 87.4318 13.9775 86.8664 14.2842 86.3175C14.5868 85.7699 15.0104 85.3669 15.367 85.1669C15.5441 85.0643 15.699 85.0034 15.8085 84.9716C15.8625 84.9535 15.9066 84.9465 15.9357 84.9392C15.9651 84.9329 15.9807 84.9308 15.9811 84.9329C15.9863 84.9468 15.7329 84.9923 15.3897 85.2045C15.0454 85.4105 14.6361 85.8095 14.3384 86.3477C14.0378 86.8851 13.9298 87.4426 13.8397 87.8353C13.7963 88.0332 13.7611 88.1937 13.7338 88.3038C13.7064 88.414 13.6885 88.4743 13.6846 88.4734Z" fill="#263238"/>
<path d="M13.7116 81.0723C13.7138 81.0723 13.7168 81.0984 13.7203 81.1485C13.7237 81.2051 13.7281 81.2779 13.7332 81.3678C13.7434 81.5583 13.7546 81.8339 13.7656 82.1745C13.7877 82.856 13.8049 83.798 13.8006 84.8384C13.7959 85.8791 13.7706 86.8211 13.7425 87.5024C13.7287 87.843 13.7151 88.1186 13.7032 88.3089C13.6972 88.3988 13.6922 88.4713 13.6883 88.5279C13.6842 88.578 13.681 88.6042 13.6788 88.6042C13.6766 88.604 13.6758 88.5776 13.6758 88.5275C13.6766 88.4707 13.6777 88.3981 13.679 88.3081C13.6838 88.1098 13.6905 87.8361 13.6987 87.5011C13.7153 86.8198 13.7339 85.8785 13.7386 84.8382C13.743 83.7986 13.7326 82.8571 13.7218 82.1756C13.7166 81.8406 13.7123 81.5669 13.709 81.3684C13.7086 81.2783 13.708 81.2055 13.7077 81.1487C13.7082 81.0986 13.7095 81.0723 13.7116 81.0723Z" fill="#263238"/>
<path d="M13.3637 86.3836C13.2006 85.3545 12.5073 84.4242 11.5674 83.9741C11.3281 83.8594 11.0156 83.7844 10.819 83.9626C10.622 84.141 10.6661 84.4609 10.7624 84.7087C11.1635 85.7392 12.2409 86.4667 13.3466 86.4537" fill="#FF725E"/>
<path d="M11.6837 84.7804C11.6857 84.7766 11.7395 84.8003 11.8358 84.8468C11.8842 84.8697 11.9431 84.8979 12.0075 84.9383C12.0719 84.9785 12.1496 85.0178 12.2261 85.0755C12.3043 85.1308 12.3913 85.1893 12.4762 85.2636C12.5652 85.333 12.6518 85.4168 12.7423 85.5056C12.9188 85.6874 13.0964 85.9045 13.2482 86.1555C13.3977 86.4078 13.5059 86.667 13.5815 86.9089C13.6156 87.0312 13.6485 87.1472 13.6657 87.2588C13.6899 87.369 13.699 87.4737 13.7087 87.569C13.7219 87.664 13.7174 87.7511 13.7206 87.8269C13.7241 87.9029 13.7191 87.9682 13.7148 88.0215C13.707 88.1282 13.7007 88.1865 13.6964 88.1863C13.6824 88.1857 13.7068 87.9498 13.6651 87.5738C13.6528 87.48 13.6413 87.3772 13.6154 87.269C13.5962 87.1595 13.5621 87.0459 13.5271 86.926C13.4497 86.689 13.342 86.4354 13.1953 86.1875C13.0463 85.941 12.873 85.7267 12.7017 85.5457C12.6136 85.4574 12.5298 85.3734 12.4434 85.3034C12.3613 85.2282 12.2766 85.1684 12.201 85.1116C11.893 84.8906 11.6775 84.7925 11.6837 84.7804Z" fill="#263238"/>
<path d="M90.6466 19.6392C90.9592 18.308 90.1334 16.9754 88.8022 16.6628C87.471 16.3502 86.1384 17.176 85.8258 18.5072C85.5132 19.8384 86.3389 21.171 87.6702 21.4836C89.0014 21.7962 90.334 20.9705 90.6466 19.6392Z" fill="#FF725E"/>
<path d="M87.8865 24.6089C87.872 24.6089 87.8604 24.1516 87.8604 23.5877C87.8604 23.0235 87.872 22.5664 87.8865 22.5664C87.901 22.5664 87.9126 23.0237 87.9126 23.5877C87.9124 24.1516 87.9007 24.6089 87.8865 24.6089Z" fill="#FF725E"/>
<path d="M86.4599 21.9906C86.4724 21.9977 86.2394 22.4243 85.9398 22.9433C85.64 23.4624 85.387 23.8773 85.3745 23.8702C85.362 23.8631 85.5948 23.4365 85.8946 22.9174C86.1942 22.3984 86.4474 21.9834 86.4599 21.9906Z" fill="#FF725E"/>
<path d="M84.9947 21.0788C85.0036 21.09 84.7448 21.3108 84.4165 21.5717C84.0882 21.8327 83.8147 22.035 83.8059 22.0238C83.797 22.0126 84.0558 21.7918 84.3841 21.5309C84.7124 21.27 84.9859 21.0676 84.9947 21.0788Z" fill="#FF725E"/>
<path d="M90.3565 23.6029C90.3492 23.6042 90.327 23.5074 90.2913 23.3517C90.2557 23.1957 90.2051 22.981 90.1421 22.7456C90.0788 22.5101 90.0146 22.2989 89.9671 22.1462C89.9198 21.9935 89.8904 21.8986 89.8975 21.896C89.904 21.8937 89.9455 21.984 90.0019 22.1343C90.0585 22.2846 90.1284 22.4952 90.1922 22.732C90.2557 22.9687 90.3008 23.186 90.3272 23.3443C90.354 23.5029 90.3632 23.6018 90.3565 23.6029Z" fill="#FF725E"/>
<path d="M92.8682 21.8208C92.8587 21.8316 92.531 21.5608 92.1364 21.2158C91.7415 20.8706 91.4292 20.5823 91.4387 20.5715C91.4482 20.5607 91.7759 20.8315 92.1705 21.1767C92.5653 21.5214 92.8777 21.81 92.8682 21.8208Z" fill="#FF725E"/>
<path d="M93.8303 19.3719C93.8285 19.3795 93.7151 19.3594 93.5315 19.3289C93.3481 19.2985 93.0946 19.2591 92.8129 19.2267C92.5312 19.1946 92.2753 19.1753 92.0897 19.1637C91.9042 19.1518 91.7891 19.1455 91.7891 19.138C91.7891 19.1313 91.9044 19.1246 92.091 19.127C92.2777 19.1293 92.5356 19.1427 92.8187 19.1751C93.1017 19.2077 93.3559 19.2531 93.5382 19.2931C93.721 19.3328 93.8318 19.3654 93.8303 19.3719Z" fill="#FF725E"/>
<path d="M93.8325 16.9636C93.8359 16.9777 93.2998 17.1202 92.6354 17.282C91.9708 17.444 91.4293 17.5639 91.4258 17.5499C91.4223 17.5358 91.9582 17.3933 92.6231 17.2315C93.2875 17.0695 93.8292 16.9496 93.8325 16.9636Z" fill="#FF725E"/>
<path d="M91.035 14.1578C91.0471 14.1658 90.7905 14.5749 90.4623 15.0715C90.134 15.5683 89.8582 15.9645 89.8461 15.9565C89.8342 15.9485 90.0906 15.5396 90.4189 15.0428C90.747 14.5462 91.0231 14.1498 91.035 14.1578Z" fill="#FF725E"/>
<path d="M88.2584 13.5718C88.2658 13.5722 88.2649 13.702 88.2621 13.9118C88.2591 14.1215 88.255 14.4109 88.2552 14.7306C88.2556 15.0505 88.2604 15.34 88.2638 15.5497C88.2673 15.7594 88.2684 15.8892 88.261 15.8897C88.2541 15.8901 88.2398 15.7609 88.2271 15.5512C88.2141 15.3417 88.2036 15.0514 88.2031 14.7308C88.2029 14.4103 88.2128 14.1202 88.2252 13.9105C88.2375 13.7007 88.2513 13.5713 88.2584 13.5718Z" fill="#FF725E"/>
<path d="M86.1562 16.1906C86.1439 16.1982 85.8832 15.7936 85.5737 15.2873C85.2641 14.7808 85.0233 14.3644 85.0356 14.3568C85.0479 14.3492 85.3086 14.7536 85.6182 15.2601C85.9275 15.7664 86.1685 16.1831 86.1562 16.1906Z" fill="#FF725E"/>
<path d="M84.8994 17.258C84.8979 17.2647 84.7971 17.25 84.6361 17.2163C84.4752 17.1826 84.2542 17.1286 84.0134 17.0576C83.7726 16.9865 83.5576 16.912 83.4041 16.853C83.2505 16.7941 83.1578 16.7517 83.1602 16.7452C83.1628 16.7383 83.26 16.7684 83.4162 16.8183C83.5723 16.8682 83.7881 16.9368 84.0281 17.0077C84.2678 17.0783 84.4864 17.1377 84.6448 17.1807C84.8031 17.2233 84.9009 17.2507 84.8994 17.258Z" fill="#FF725E"/>
<path d="M84.3509 19.1603C84.3521 19.1745 83.9983 19.2203 83.5607 19.2625C83.1229 19.3046 82.7669 19.327 82.7656 19.3128C82.7643 19.2985 83.1179 19.2527 83.5558 19.2106C83.9934 19.1685 84.3496 19.146 84.3509 19.1603Z" fill="#FF725E"/>
<path d="M24.4585 19.6523C24.4561 19.6592 24.3377 19.6106 24.1144 19.5609C23.8921 19.5121 23.5586 19.4689 23.154 19.524C22.7525 19.5777 22.2764 19.7391 21.86 20.0821C21.4444 20.4186 21.0886 20.9282 20.9465 21.5325C20.945 21.5379 20.9437 21.5436 20.9424 21.5485L20.9158 21.6522L20.8761 21.5539C20.6437 20.9798 20.2305 20.5234 19.7825 20.2333C19.3332 19.9378 18.85 19.8156 18.447 19.7879C18.0413 19.7596 17.7121 19.8179 17.4927 19.8752C17.2724 19.9333 17.1559 19.9845 17.1533 19.9778C17.1525 19.9756 17.181 19.9618 17.2363 19.9378C17.2916 19.9134 17.375 19.8814 17.4853 19.849C17.7046 19.7832 18.0368 19.7162 18.45 19.7387C18.8602 19.7603 19.3557 19.8799 19.8173 20.1791C20.2773 20.4728 20.7022 20.9383 20.9409 21.5276L20.8744 21.533C20.8757 21.5278 20.8772 21.5222 20.8787 21.5163C21.0247 20.8949 21.3915 20.3739 21.8196 20.0318C22.2488 19.6829 22.7382 19.5229 23.1478 19.4747C23.5605 19.425 23.8982 19.4767 24.1206 19.5341C24.2325 19.5622 24.3176 19.5914 24.3738 19.6142C24.4302 19.6371 24.4593 19.6499 24.4585 19.6523Z" fill="#263238"/>
<path d="M30.8196 21.7704C30.8175 21.7762 30.7518 21.7514 30.6289 21.7261C30.5068 21.7013 30.3241 21.6794 30.1036 21.7108C29.8843 21.7414 29.6258 21.8306 29.3994 22.0179C29.1735 22.2017 28.9804 22.4795 28.9033 22.808L28.9011 22.8169L28.8745 22.9206L28.8348 22.8223C28.7082 22.5098 28.4838 22.2609 28.2399 22.1022C27.9956 21.9406 27.7325 21.8728 27.5124 21.8561C27.291 21.8393 27.1107 21.8693 26.9899 21.8989C26.8688 21.9289 26.804 21.9551 26.8018 21.9494C26.8009 21.9473 26.816 21.9386 26.8463 21.9244C26.8763 21.9099 26.9221 21.8913 26.9828 21.8726C27.1033 21.8343 27.2869 21.7957 27.5157 21.8067C27.7429 21.8173 28.0181 21.8825 28.2749 22.0479C28.5307 22.2104 28.767 22.4685 28.8996 22.796L28.8333 22.8014L28.8356 22.7923C28.9169 22.4467 29.1212 22.1575 29.3594 21.968C29.5983 21.7749 29.8707 21.6872 30.0977 21.662C30.3267 21.6358 30.5131 21.6663 30.6358 21.6998C30.6974 21.7162 30.744 21.7332 30.7747 21.7468C30.8049 21.7602 30.8205 21.7682 30.8196 21.7704Z" fill="#263238"/>
<path d="M27.2776 11.0831C27.2819 11.0875 27.212 11.1585 27.0929 11.2924C26.9739 11.4264 26.8117 11.6296 26.6424 11.9009C26.3019 12.4364 25.9615 13.2898 25.9732 14.2689C25.9732 14.2791 25.973 14.2894 25.973 14.2987L25.9036 14.3043C25.8313 13.8268 25.6719 13.3883 25.4708 13.022C25.2701 12.6545 25.0342 12.356 24.8115 12.1314C24.5891 11.9061 24.3862 11.7471 24.24 11.6469C24.0942 11.546 24.0097 11.4953 24.0128 11.4899C24.0139 11.4877 24.0361 11.4985 24.0774 11.5208C24.118 11.5443 24.1808 11.5743 24.2549 11.6244C24.4065 11.7186 24.6163 11.873 24.8461 12.0968C25.0761 12.3197 25.3196 12.6193 25.5267 12.9911C25.7343 13.3615 25.8987 13.8073 25.9725 14.2944L25.9032 14.3002C25.9032 14.2907 25.9034 14.2804 25.9034 14.2698C25.8915 13.2736 26.2458 12.4092 26.6007 11.8746C26.7771 11.6037 26.9469 11.4032 27.0728 11.2743C27.1335 11.2076 27.1875 11.1624 27.2217 11.1296C27.2569 11.0974 27.2759 11.0814 27.2776 11.0831Z" fill="#263238"/>
<path d="M12.0482 55.2491C13.4491 55.2491 14.5847 54.1135 14.5847 52.7126C14.5847 51.3118 13.4491 50.1761 12.0482 50.1761C10.6473 50.1761 9.51172 51.3118 9.51172 52.7126C9.51172 54.1135 10.6473 55.2491 12.0482 55.2491Z" fill="#E0E0E0"/>
<path d="M14.5852 52.7126C14.5694 52.7139 14.5843 52.4865 14.4845 52.0985C14.386 51.7182 14.1314 51.1596 13.5592 50.7278C13.2758 50.517 12.9192 50.3381 12.5081 50.2666C12.1001 50.1977 11.6398 50.2116 11.2022 50.3788C10.9819 50.4556 10.7696 50.5716 10.5745 50.7179C10.3771 50.8613 10.198 51.0393 10.0503 51.2456C9.74506 51.6519 9.57334 52.1739 9.56816 52.712C9.57313 53.2503 9.74485 53.7723 10.0501 54.1788C10.1978 54.3851 10.3769 54.5633 10.5743 54.7067C10.7693 54.8532 10.9819 54.9692 11.2022 55.0461C11.6398 55.2133 12.1001 55.2271 12.5084 55.1582C12.9194 55.0867 13.276 54.9078 13.5594 54.697C14.1316 54.2655 14.386 53.7067 14.4848 53.3265C14.5841 52.9388 14.5694 52.7113 14.5852 52.7126C14.5891 52.7126 14.5902 52.7684 14.5884 52.8751C14.5889 52.9286 14.5865 52.9945 14.574 53.0718C14.564 53.1494 14.5547 53.2392 14.5273 53.3373C14.44 53.7272 14.1916 54.3067 13.6078 54.7605C13.3186 54.9821 12.9514 55.1718 12.5256 55.2502C12.1029 55.3258 11.6245 55.3152 11.167 55.1439C10.937 55.0651 10.7147 54.9454 10.5106 54.7936C10.3041 54.6448 10.1164 54.4594 9.96149 54.2445C9.64181 53.8209 9.46059 53.2747 9.45605 52.7124C9.46102 52.1504 9.64203 51.6041 9.96171 51.1808C10.1166 50.9658 10.3043 50.7807 10.5108 50.6319C10.7149 50.4803 10.9372 50.3604 11.1672 50.2816C11.6245 50.1103 12.1029 50.0995 12.5256 50.1751C12.9514 50.2535 13.3186 50.4429 13.6078 50.6647C14.1919 51.1186 14.4403 51.6981 14.5275 52.088C14.555 52.186 14.5642 52.2761 14.5742 52.3536C14.5867 52.431 14.5893 52.4968 14.5886 52.5504C14.5899 52.6569 14.5891 52.7126 14.5852 52.7126Z" fill="#263238"/>
<path d="M14.3209 51.6677C14.3261 51.6724 14.2816 51.7308 14.1905 51.8269C14.0995 51.923 13.9585 52.0539 13.7691 52.1971C13.3934 52.4839 12.7997 52.8056 12.0817 52.9412C11.3637 53.0775 10.6932 52.995 10.2388 52.8652C10.01 52.8013 9.83095 52.7311 9.71107 52.6747C9.59119 52.6185 9.52833 52.5805 9.53135 52.5742C9.53935 52.5557 9.80373 52.6818 10.2582 52.7881C10.7096 52.8959 11.3624 52.963 12.0605 52.8306C12.7584 52.6987 13.3416 52.3975 13.7224 52.1323C14.1065 51.8675 14.3067 51.6532 14.3209 51.6677Z" fill="#263238"/>
<path d="M14.5415 52.4039C14.5465 52.4089 14.5001 52.4679 14.4052 52.5646C14.3106 52.6618 14.164 52.7934 13.9678 52.937C13.5784 53.2245 12.9667 53.5455 12.231 53.6788C11.4953 53.8131 10.8099 53.7308 10.3436 53.6014C10.109 53.5375 9.92496 53.4675 9.80163 53.4111C9.67807 53.355 9.61349 53.317 9.6163 53.3105C9.62407 53.2917 9.89623 53.4178 10.3626 53.5241C10.8259 53.6317 11.4944 53.6988 12.2107 53.5679C12.9271 53.4383 13.5281 53.1377 13.9223 52.8718C14.3197 52.6057 14.5275 52.389 14.5415 52.4039Z" fill="#263238"/>
<path d="M84.547 88.3604L90.8329 86.6613C90.8329 86.6613 94.671 92.4799 95.8631 92.2791L93.0063 79.9729L83.1035 82.2184L84.547 88.3604Z" fill="#263238"/>
<path d="M89.4159 82.9799C89.4258 82.7265 89.6552 82.4999 89.9088 82.4993C90.1622 82.4986 90.3948 82.7302 90.3894 82.9835C90.384 83.2369 90.1168 83.5175 89.8647 83.4896C89.6129 83.462 89.3545 83.1751 89.4206 82.9304" fill="#E0E0E0"/>
<path d="M93.0069 79.9729L92.0176 80.2384L95.1265 91.938C95.1265 91.938 95.4919 92.4305 95.8635 92.2791L93.0069 79.9729Z" fill="#455A64"/>
<path d="M90.8168 86.8755C90.8764 86.8595 90.8339 86.5528 90.9585 86.2122C91.0743 85.8683 91.2991 85.6556 91.2624 85.6059C91.238 85.5532 90.8995 85.7262 90.7559 86.1411C90.6088 86.5548 90.7648 86.9012 90.8168 86.8755Z" fill="white"/>
<path d="M91.6498 88.0423C91.7111 88.0425 91.7531 87.7585 91.9598 87.4954C92.1587 87.2263 92.4218 87.1109 92.4049 87.0517C92.4015 86.9932 92.0399 87.0332 91.7889 87.3654C91.5353 87.6948 91.5923 88.0542 91.6498 88.0423Z" fill="white"/>
<path d="M93.3649 88.4166C93.3649 88.3592 93.0454 88.3451 92.7521 88.5758C92.457 88.8046 92.3931 89.118 92.449 89.1318C92.5065 89.1543 92.6406 88.9309 92.8843 88.7452C93.1234 88.5538 93.3729 88.4778 93.3649 88.4166Z" fill="white"/>
<path d="M89.3413 87.1039C89.3903 87.0658 89.2432 86.8095 89.1877 86.4645C89.1248 86.1206 89.1776 85.8299 89.1186 85.8105C89.067 85.7858 88.9045 86.0954 88.9758 86.501C89.0443 86.9067 89.3011 87.1443 89.3413 87.1039Z" fill="white"/>
<path d="M58.626 67.6925C58.6236 67.8962 60.3862 77.7927 61.2184 80.5006C62.0507 83.2086 63.2125 88.1095 65.2838 89.4074C67.355 90.7054 87.3458 86.7329 87.3458 86.7329L86.5507 80.9713L71.2101 81.3193L70.6438 73.4828L71.1449 71.9347C71.1449 71.9347 72.6859 66.8149 72.7092 65.0653C72.7325 63.3159 64.1636 64.4004 64.1636 64.4004L58.626 67.6925Z" fill="#263238"/>
<path d="M65.4928 71.7523C65.4947 71.7832 64.299 71.8862 62.822 71.9819C61.3445 72.0778 60.1455 72.1303 60.1436 72.0992C60.1416 72.0683 61.3372 71.9655 62.8146 71.8696C64.2916 71.7739 65.4909 71.7214 65.4928 71.7523Z" fill="#455A64"/>
<path d="M70.8107 43.8025C70.8107 43.8025 73.425 46.5576 74.4132 47.7011C75.4014 48.8446 75.4902 52.1755 74.3492 52.9376C73.2083 53.6996 68.8367 51.656 68.8367 51.656L66.3184 47.1831L70.8107 43.8025Z" fill="#FFBF9D"/>
<path d="M71.5642 52.7112C71.5625 52.7188 71.4573 52.6976 71.2681 52.6527C71.1728 52.6324 71.0583 52.6002 70.927 52.5566C70.8601 52.5352 70.7899 52.5125 70.716 52.489C70.6421 52.4598 70.565 52.4291 70.4846 52.3974C70.1639 52.2635 69.7852 52.074 69.4342 51.7643C69.0794 51.4617 68.791 51.0029 68.659 50.4826C68.5849 50.2292 68.5305 49.9659 68.5139 49.7153C68.494 49.4643 68.4908 49.2235 68.4763 48.9967C68.456 48.5422 68.3512 48.1459 68.2022 47.8372C67.9039 47.2162 67.5436 46.9486 67.5643 46.9324C67.5682 46.9276 67.6572 46.9896 67.7948 47.1285C67.932 47.267 68.1145 47.4886 68.2737 47.8024C68.4359 48.1133 68.5538 48.5278 68.5795 48.9898C68.6121 49.4507 68.6035 49.9512 68.767 50.4523C68.8966 50.9588 69.1651 51.39 69.5036 51.6876C69.8375 51.9902 70.2039 52.1833 70.5158 52.3246C71.148 52.5972 71.5711 52.6875 71.5642 52.7112Z" fill="#FF9A6C"/>
<path d="M74.2766 48.4804C74.2563 48.5039 73.1763 47.6073 71.8645 46.4781C70.5523 45.3484 69.5054 44.4138 69.5257 44.3902C69.546 44.3667 70.6258 45.2631 71.938 46.3928C73.2495 47.5222 74.2967 48.4569 74.2766 48.4804Z" fill="#FF9A6C"/>
<path d="M60.5107 35.1266C60.5107 35.1266 61.6564 34.5285 63.2978 35.3487C64.9392 36.1691 71.5719 42.4179 71.5719 42.4179L66.4453 47.4086L61.8348 42.6458L60.5107 35.1266Z" fill="#FF725E"/>
<path d="M49.246 37.4552L48.4969 39.7191L45.9209 41.5583L48.9617 51.1455L57.4991 62.2226L72.3483 58.848L70.6194 54.822L63.9016 42.8897L60.5108 35.1267L57.7024 35.8414L55.2279 35.0647L49.246 37.4552Z" fill="#FF725E"/>
<path d="M46.5936 41.3656C46.5936 41.3656 43.7476 41.7062 44.557 45.6841C45.3663 49.6619 51.4973 52.5788 51.4973 52.5788L54.7561 49.1867L53.7499 43.7587L46.5936 41.3656Z" fill="#FF725E"/>
<path d="M52.501 43.478C52.4954 43.4925 52.2668 43.4167 51.9027 43.2819C51.5059 43.132 51.021 42.9488 50.4848 42.7462C49.9308 42.5389 49.4258 42.3624 49.0584 42.2382C48.6912 42.114 48.4633 42.0375 48.4678 42.0218C48.4717 42.0077 48.7074 42.057 49.0819 42.1622C49.4565 42.2671 49.9684 42.4326 50.5242 42.6408C51.0797 42.849 51.5752 43.0549 51.932 43.208C52.2889 43.3616 52.5066 43.4636 52.501 43.478Z" fill="#263238"/>
<path d="M54.8283 40.7954C54.8257 40.8021 54.7365 40.7731 54.5754 40.7146C54.3959 40.6468 54.1674 40.5599 53.8913 40.4556L53.9419 40.4154C54 40.7522 54.0309 41.1773 53.9786 41.6512L53.9717 41.7134L53.9119 41.6929C53.4129 41.5214 52.8476 41.3267 52.2497 41.1213C51.2108 40.7602 50.2725 40.4273 49.5953 40.1811C49.2728 40.0612 49.0039 39.9614 48.7952 39.8841C48.6071 39.8115 48.5043 39.7679 48.5069 39.7607C48.5095 39.7534 48.617 39.783 48.8097 39.8428C49.0216 39.9115 49.2942 40.0001 49.6217 40.1061C50.3057 40.3331 51.2481 40.6541 52.2869 41.0153C52.8835 41.2248 53.4475 41.4231 53.9451 41.5978L53.8786 41.6395C53.9363 41.1768 53.9151 40.7597 53.8687 40.4271L53.8594 40.361L53.9192 40.3869C54.1901 40.5042 54.4145 40.6012 54.5905 40.6775C54.7469 40.7474 54.8311 40.7889 54.8283 40.7954Z" fill="#263238"/>
<path d="M57.2012 36.1351C57.2087 36.1343 57.226 36.23 57.2496 36.4038C57.2712 36.5779 57.2986 36.8304 57.318 37.1439C57.358 37.77 57.3651 38.6407 57.2686 39.5948C57.2474 39.8149 57.2198 40.0294 57.1915 40.2363L57.1822 40.3044L57.1178 40.2808C56.4722 40.0441 55.9313 39.7434 55.5345 39.4784L55.5965 39.4466C55.5734 39.7778 55.474 40.0316 55.3907 40.1933C55.3056 40.356 55.2384 40.4327 55.2332 40.429C55.2252 40.424 55.2794 40.3391 55.3503 40.1743C55.4198 40.0102 55.5039 39.7605 55.5159 39.4423L55.5185 39.3734L55.5779 39.4103C55.9788 39.66 56.5175 39.9471 57.1554 40.1767L57.0817 40.221C57.1085 40.0151 57.1355 39.802 57.1565 39.5834C57.2524 38.6356 57.258 37.7713 57.2386 37.1471C57.2293 36.8348 57.2141 36.5823 57.2059 36.4075C57.196 36.233 57.1934 36.1358 57.2012 36.1351Z" fill="#263238"/>
<path d="M66.5592 49.8727C66.5628 49.8738 66.5553 49.9122 66.5376 49.9848C66.5153 50.0695 66.4879 50.1738 66.4544 50.3006C66.4188 50.438 66.371 50.6049 66.3039 50.795C66.2382 50.9855 66.1714 51.2056 66.0732 51.4398C65.9812 51.6765 65.8783 51.9349 65.7496 52.2046C65.6312 52.4792 65.4802 52.7604 65.326 53.0587C65.0025 53.6471 64.6108 54.2752 64.1464 54.8966C63.6769 55.5144 63.1809 56.0639 62.7042 56.5374C62.4597 56.7679 62.231 56.9905 61.9998 57.18C61.7761 57.3781 61.556 57.548 61.3538 57.7016C61.1557 57.8606 60.9626 57.9854 60.7976 58.101C60.6334 58.2181 60.4861 58.3097 60.3639 58.382C60.2511 58.449 60.1584 58.5043 60.0833 58.549C60.0185 58.5859 59.9835 58.6039 59.9815 58.6006C59.9796 58.5974 60.0105 58.573 60.0714 58.5298C60.1433 58.4805 60.2321 58.4196 60.3401 58.3455C60.4582 58.268 60.6015 58.1712 60.7615 58.0498C60.9224 57.9297 61.1114 57.8012 61.3052 57.639C61.5033 57.4822 61.719 57.3096 61.9387 57.1098C62.1659 56.9186 62.3906 56.6946 62.6314 56.4639C63.1008 55.9898 63.5905 55.4423 64.0566 54.8293C64.5173 54.2124 64.9087 53.5909 65.2351 53.0092C65.3906 52.7142 65.544 52.4364 65.6651 52.1655C65.7967 51.8994 65.9032 51.6443 65.9993 51.4106C66.1017 51.1795 66.1734 50.9624 66.2445 50.7747C66.317 50.5874 66.3706 50.4231 66.4125 50.2881C66.454 50.1639 66.4881 50.0617 66.5157 49.979C66.5406 49.9083 66.5553 49.8716 66.5592 49.8727Z" fill="#263238"/>
<path d="M64.2923 50.3443C64.296 50.3456 64.2865 50.3801 64.2649 50.4447C64.2377 50.5212 64.2048 50.6138 64.1653 50.7253C64.0785 50.9687 63.9381 51.3158 63.7517 51.7392C63.3801 52.5859 62.7963 53.7277 62.0202 54.9086C61.2417 56.0884 60.4231 57.0757 59.7917 57.7513C59.4766 58.0896 59.2131 58.3555 59.0236 58.5315C58.9368 58.6119 58.8647 58.6786 58.8053 58.7337C58.7545 58.7791 58.7264 58.8015 58.7238 58.7987C58.7212 58.7959 58.7437 58.7681 58.7895 58.7175C58.845 58.6583 58.912 58.5868 58.9928 58.5007C59.1722 58.3155 59.4263 58.0419 59.733 57.6978C60.3471 57.0107 61.1517 56.0205 61.9262 54.8466C62.6987 53.6715 63.2905 52.5416 63.6793 51.7062C63.8741 51.2886 64.0253 50.9471 64.1245 50.7091C64.1718 50.6009 64.2111 50.511 64.2435 50.4367C64.272 50.3747 64.2889 50.343 64.2923 50.3443Z" fill="#263238"/>
<path d="M63.289 41.5432C63.2962 41.5399 63.3432 41.6259 63.4225 41.7836C63.5111 41.9622 63.6223 42.1864 63.7545 42.4532C64.0344 43.0185 64.4289 43.7954 64.8898 44.6398C65.3516 45.4841 65.7922 46.2358 66.1167 46.7766C66.2696 47.032 66.3983 47.2467 66.5007 47.4177C66.5908 47.5696 66.6375 47.6555 66.631 47.6599C66.6245 47.6642 66.5653 47.5862 66.4638 47.4415C66.3621 47.297 66.2199 47.0844 66.0489 46.8188C65.7065 46.2876 65.2538 45.5403 64.7909 44.6938C64.3286 43.8473 63.9446 43.0625 63.6824 42.4875C63.5513 42.2 63.4489 41.9657 63.3823 41.8019C63.3156 41.6384 63.2819 41.5464 63.289 41.5432Z" fill="#263238"/>
<path d="M50.9799 44.4668C51.1341 44.3657 51.3259 44.3391 51.5021 44.3933C51.5021 44.3933 53.053 42.7139 56.1619 41.4011C59.2706 40.0882 62.408 37.9246 62.408 37.9246L63.7409 40.3565C63.7409 40.3565 59.1663 46.0347 57.5923 46.9953C56.0183 47.9558 53.1889 49.8981 51.689 50.0072C50.1891 50.1165 49.5532 49.981 49.5532 49.981C49.5532 49.981 48.8104 48.1545 49.5959 46.4743C50.0012 45.6654 50.4025 44.8452 50.9799 44.4668Z" fill="#FFBF9D"/>
<path d="M51.502 44.3933C51.5005 44.4048 51.4009 44.3683 51.2314 44.4173C51.0633 44.4644 50.8398 44.6031 50.6281 44.8377C50.2302 45.3247 49.7502 46.0937 49.4727 47.0242C49.336 47.4904 49.2729 47.9522 49.2742 48.3723C49.2763 48.7926 49.3362 49.1695 49.4206 49.4763C49.5917 50.0921 49.8304 50.4213 49.809 50.4325C49.8058 50.4346 49.7896 50.4154 49.7617 50.3768C49.7336 50.3383 49.6934 50.2806 49.6487 50.2018C49.5571 50.0461 49.4401 49.8091 49.3442 49.4983C49.2483 49.1881 49.1785 48.8036 49.1705 48.3731C49.1632 47.9431 49.2249 47.4685 49.3647 46.9927C49.5036 46.5164 49.7032 46.0855 49.9159 45.7142C50.133 45.3446 50.3449 45.0241 50.57 44.7832C50.797 44.5469 51.0387 44.4115 51.2208 44.3748C51.3117 44.3558 51.3849 44.3594 51.4327 44.3685C51.48 44.3795 51.5031 44.3903 51.502 44.3933Z" fill="#263238"/>
<path d="M58.734 88.4321C58.734 88.4321 64.5014 90.987 66.1558 90.8764C66.1558 90.8764 66.4169 91.8914 67.8224 91.1287C67.8224 91.1287 68.7245 92.6532 69.7982 91.4026C69.7982 91.4026 70.5756 91.8985 71.4534 90.7714L91.0515 88.7484C91.7127 88.6801 92.1944 88.0904 92.1294 87.429C92.0667 86.7923 91.5196 86.3147 90.8802 86.3406C86.217 86.5294 68.7227 87.2089 66.9044 86.8478C64.8043 86.4305 60.3851 87.2288 59.4313 87.5828C59.4313 87.5828 58.277 87.9176 58.734 88.4321Z" fill="#E0E0E0"/>
<path d="M58.7341 88.4322C58.7341 88.4322 58.7175 88.4132 58.6849 88.37C58.6525 88.3292 58.6112 88.2482 58.6278 88.1372C58.6479 88.0248 58.7475 87.9123 58.8864 87.8186C59.0266 87.7237 59.208 87.6399 59.427 87.5691L59.426 87.5693C59.888 87.4095 60.5142 87.2686 61.2807 87.1276C62.0482 86.9902 62.9578 86.8492 63.9993 86.7628C64.5199 86.7176 65.0741 86.6928 65.6584 86.6997C65.9507 86.7036 66.2503 86.7217 66.5559 86.7574C66.8622 86.8077 67.1689 86.8429 67.4853 86.868C68.7613 86.9282 70.1536 86.9114 71.6405 86.8924C74.6155 86.8513 77.9775 86.7496 81.6135 86.6299C83.4313 86.5645 85.3177 86.4966 87.2584 86.4269C88.2287 86.3889 89.2126 86.3506 90.2083 86.3118C90.4589 86.3035 90.7032 86.288 90.9611 86.2854C91.2235 86.2899 91.4836 86.382 91.6929 86.5424C91.905 86.7001 92.0592 86.9306 92.1381 87.1833C92.2117 87.4375 92.2096 87.716 92.1186 87.9672C92.0348 88.2132 91.8683 88.427 91.659 88.5772C91.5531 88.6508 91.4374 88.7104 91.3149 88.7502C91.1926 88.7886 91.0609 88.8057 90.9414 88.8163C90.4533 88.8666 89.9677 88.9167 89.4852 88.9664C88.5196 89.066 87.5656 89.1643 86.6242 89.2612C84.7418 89.4548 82.9114 89.6429 81.1467 89.8246C77.6175 90.1859 74.3513 90.5203 71.4585 90.8162L71.4893 90.7992C71.2811 91.0672 71.0297 91.3018 70.7282 91.4426C70.4279 91.58 70.0691 91.6007 69.7758 91.4383L69.8309 91.4301C69.7531 91.5059 69.6827 91.5882 69.6 91.6573C69.5119 91.7202 69.4315 91.7928 69.3296 91.8331C69.1393 91.9299 68.9099 91.9662 68.7047 91.907C68.499 91.8532 68.3217 91.737 68.1718 91.6035C68.0217 91.4681 67.8947 91.316 67.7893 91.1482L67.8411 91.1625C67.5294 91.3284 67.1991 91.4597 66.8587 91.4456C66.6909 91.4379 66.5237 91.3841 66.3939 91.281C66.2628 91.1789 66.171 91.0406 66.1222 90.8849L66.1585 90.9113C65.8422 90.9143 65.5405 90.8719 65.2519 90.8128C65.1083 90.7804 64.9666 90.7486 64.827 90.7173C64.6892 90.6797 64.5534 90.6428 64.4197 90.6063C63.8864 90.4546 63.3928 90.29 62.936 90.1293C62.0225 89.8064 61.254 89.5016 60.6319 89.2491C60.0104 88.9949 59.5359 88.791 59.2164 88.6515C59.0592 88.5813 58.9391 88.5277 58.8553 88.4903C58.7741 88.4538 58.7341 88.4322 58.7341 88.4322C58.7341 88.4322 58.7767 88.4476 58.8587 88.4815C58.9434 88.5169 59.0648 88.5674 59.2236 88.6338C59.5454 88.7675 60.0223 88.9657 60.6457 89.2141C61.2697 89.461 62.0398 89.7604 62.9537 90.0777C63.4107 90.2356 63.9043 90.3974 64.4363 90.546C64.5696 90.5816 64.705 90.6179 64.8424 90.6546C64.981 90.6851 65.1219 90.7162 65.2646 90.7477C65.5511 90.8054 65.8489 90.8452 66.1535 90.8415L66.182 90.8411L66.1898 90.8678C66.2719 91.1476 66.5462 91.3692 66.8622 91.3724C67.1782 91.3852 67.4994 91.259 67.8039 91.0951L67.8353 91.0782L67.8558 91.1095C68.0584 91.4184 68.3465 91.7243 68.7243 91.8288C68.9122 91.8822 69.1166 91.8487 69.2931 91.7588C69.3866 91.7226 69.4628 91.6526 69.5458 91.5936C69.624 91.5279 69.6918 91.448 69.7661 91.3754L69.7914 91.3508L69.8212 91.3672C70.0763 91.5074 70.4134 91.494 70.6914 91.3633C70.9737 91.2307 71.2159 91.0059 71.4178 90.7443L71.4295 90.7292L71.4487 90.7272C74.341 90.4261 77.6067 90.0864 81.1352 89.7189C82.8998 89.536 84.7301 89.3463 86.6124 89.1513C87.5535 89.0539 88.5078 88.9552 89.4731 88.8554C89.9558 88.8055 90.4414 88.7554 90.9293 88.7048C91.054 88.6936 91.1669 88.6782 91.2801 88.6435C91.3918 88.6072 91.497 88.553 91.5935 88.4858C91.784 88.3491 91.9361 88.154 92.0124 87.9298C92.0953 87.7013 92.097 87.4475 92.0303 87.2157C91.9584 86.9859 91.8184 86.7755 91.6249 86.6319C91.4341 86.4856 91.1976 86.4018 90.9583 86.3977C90.7151 86.4001 90.4602 86.4156 90.2129 86.4239C89.2171 86.4623 88.233 86.5003 87.2627 86.5379C85.3218 86.6062 83.4352 86.6725 81.6171 86.7364C77.9808 86.852 74.6183 86.9479 71.6418 86.9816C70.1536 86.9967 68.7621 87.0097 67.4808 86.9449C67.1596 86.9185 66.844 86.8805 66.5468 86.8304C66.2451 86.7941 65.9479 86.7749 65.6573 86.7699C65.0765 86.7606 64.524 86.7828 64.0047 86.8254C62.9653 86.9064 62.0564 87.042 61.2894 87.1738C60.5232 87.309 59.896 87.4445 59.4365 87.5972L59.4357 87.5974H59.4355C59.0095 87.732 58.6926 87.9227 58.6427 88.1404C58.6246 88.2447 58.6615 88.3249 58.6913 88.3657C58.7205 88.4091 58.7341 88.4322 58.7341 88.4322Z" fill="#263238"/>
<path d="M78.2275 86.8645L78.3591 80.7139L80.1584 80.7245L80.407 86.7126L78.2275 86.8645Z" fill="#E0E0E0"/>
<path d="M85.1895 80.7057L85.9649 86.7383L88.3584 86.4949L86.9823 80.6877L85.1895 80.7057Z" fill="#E0E0E0"/>
<path d="M71.2176 81.1937L66.2188 87.2233L69.9696 88.48L69.9972 88.1915L72.035 81.0764L71.2176 81.1937Z" fill="#E0E0E0"/>
<path d="M66.4208 86.8731C66.4372 86.8765 66.402 87.1042 66.3538 87.4725C66.3054 87.8405 66.2492 88.3503 66.2205 88.9154C66.1924 89.4806 66.1972 89.9934 66.2084 90.3645C66.2194 90.7356 66.2315 90.9658 66.2149 90.9674C66.2006 90.9689 66.1605 90.7412 66.1289 90.3688C66.0972 89.9967 66.0797 89.4796 66.108 88.9095C66.1369 88.3397 66.2063 87.8269 66.275 87.46C66.3439 87.0928 66.4069 86.8701 66.4208 86.8731Z" fill="#263238"/>
<path d="M68.0768 86.7922C68.093 86.7944 68.0718 87.0409 68.0381 87.4381C68.0044 87.8355 67.9615 88.3844 67.9321 88.9918C67.9031 89.5994 67.8936 90.1497 67.8893 90.5487C67.8848 90.9474 67.8824 91.1948 67.8662 91.1954C67.8515 91.1961 67.8258 90.9498 67.8098 90.5498C67.7938 90.15 67.7908 89.5968 67.8198 88.9864C67.8491 88.3764 67.9049 87.8258 67.9591 87.4294C68.0131 87.0331 68.0623 86.7903 68.0768 86.7922Z" fill="#263238"/>
<path d="M69.6804 87.0295C69.6968 87.0306 69.6942 87.2723 69.6921 87.662C69.6899 88.0519 69.6921 88.5899 69.7156 89.1837C69.7396 89.7777 69.7806 90.3143 69.8139 90.7028C69.8472 91.0912 69.869 91.332 69.8528 91.3342C69.8383 91.3364 69.7884 91.0992 69.7348 90.7115C69.6811 90.324 69.6273 89.7853 69.6033 89.1882C69.5795 88.5914 69.5901 88.0501 69.6128 87.6596C69.635 87.2691 69.6659 87.0287 69.6804 87.0295Z" fill="#263238"/>
<path d="M71.3194 86.8379C71.3359 86.839 71.3326 87.0623 71.3294 87.4222C71.3259 87.782 71.3261 88.279 71.3467 88.827C71.3678 89.3755 71.4052 89.871 71.4359 90.2295C71.4663 90.5881 71.4864 90.8106 71.4702 90.8129C71.4557 90.8151 71.4078 90.5965 71.3568 90.2386C71.3058 89.8809 71.2553 89.3832 71.2341 88.8316C71.2134 88.2801 71.2259 87.7801 71.2497 87.4194C71.2734 87.0586 71.3048 86.8368 71.3194 86.8379Z" fill="#263238"/>
<path d="M90.5775 86.2767C90.5775 86.2786 90.5564 86.2812 90.5149 86.2846C90.467 86.2879 90.4063 86.2918 90.3307 86.2967C90.1605 86.3054 89.9233 86.3173 89.6215 86.3326C88.9973 86.3592 88.1082 86.3968 87.0129 86.4434C84.8028 86.5264 81.7628 86.6402 78.4051 86.7661C76.724 86.8244 75.123 86.8797 73.6654 86.9303C72.9377 86.9534 72.2443 86.9905 71.5948 86.9586C70.9462 86.9374 70.3433 86.9043 69.793 86.8765C68.6924 86.8175 67.8016 86.7881 67.1856 86.7877C66.8776 86.7866 66.6385 86.789 66.4763 86.7927C66.4005 86.7935 66.3395 86.794 66.2916 86.7946C66.2499 86.7944 66.2285 86.7933 66.2285 86.7914C66.2285 86.7894 66.2497 86.7866 66.2912 86.7832C66.3389 86.7797 66.3996 86.7756 66.4754 86.7702C66.6374 86.7592 66.8767 86.7497 67.1852 86.7441C67.8021 86.7309 68.695 86.7482 69.7964 86.7972C70.347 86.8201 70.9501 86.8486 71.5972 86.8657C72.2437 86.8933 72.9344 86.8527 73.6634 86.8268C75.1208 86.7737 76.7218 86.7151 78.4025 86.6538C81.7602 86.5408 84.8002 86.4384 87.0103 86.3639C88.1059 86.3324 88.9953 86.3069 89.6198 86.289C89.9218 86.2827 90.1592 86.2777 90.3296 86.2743C90.4056 86.2738 90.4663 86.2734 90.5143 86.2732C90.5562 86.2736 90.5775 86.2747 90.5775 86.2767Z" fill="#263238"/>
<path d="M90.5028 87.345C90.5058 87.3758 86.2325 87.8215 80.9595 88.3403C75.6846 88.8591 71.4073 89.2546 71.4043 89.2237C71.4013 89.1928 75.6735 88.7472 80.9485 88.2284C86.2217 87.7098 90.4998 87.3141 90.5028 87.345Z" fill="#263238"/>
<path d="M90.7666 88.1925C90.7699 88.2234 86.4723 88.693 81.1689 89.2412C75.8637 89.7896 71.5618 90.2091 71.5586 90.1782C71.5554 90.1473 75.852 89.6777 81.1572 89.1293C86.4607 88.5811 90.7634 88.1616 90.7666 88.1925Z" fill="#263238"/>
<path d="M38.7716 81.9861L38.8537 88.497C38.8537 88.497 32.2631 90.7669 32.1611 91.9715L44.7911 92.266L45.0797 82.1159L38.7716 81.9861Z" fill="#263238"/>
<path d="M42.7713 88.0407C43.0143 88.1133 43.1768 88.3919 43.1143 88.6375C43.0519 88.8831 42.7698 89.051 42.5257 88.9827C42.2817 88.9145 42.0765 88.5859 42.1659 88.3487C42.2555 88.1118 42.5975 87.9329 42.818 88.0578" fill="#E0E0E0"/>
<path d="M44.7909 92.2662L44.7798 91.2419L32.6745 91.3426C32.6745 91.3426 32.1065 91.5742 32.1609 91.9716L44.7909 92.2662Z" fill="#455A64"/>
<path d="M38.6507 88.4279C38.6513 88.4896 38.9591 88.5249 39.2578 88.7303C39.5622 88.9279 39.7123 89.1988 39.7696 89.1754C39.8266 89.1649 39.7432 88.794 39.3771 88.5516C39.0133 88.306 38.6386 88.3711 38.6507 88.4279Z" fill="white"/>
<path d="M37.3132 88.945C37.2976 89.0044 37.5624 89.1156 37.7657 89.3813C37.9769 89.6409 38.0231 89.9243 38.0847 89.923C38.1424 89.9343 38.1936 89.574 37.9344 89.2485C37.6782 88.9204 37.316 88.886 37.3132 88.945Z" fill="white"/>
<path d="M36.5232 90.513C36.5789 90.5272 36.672 90.2212 36.5214 89.8799C36.3733 89.5373 36.0856 89.3973 36.0583 89.4481C36.0223 89.498 36.2052 89.6835 36.3244 89.9658C36.4504 90.2449 36.462 90.5054 36.5232 90.513Z" fill="white"/>
<path d="M38.7959 86.942C38.8203 86.9988 39.1055 86.9204 39.4534 86.9522C39.8021 86.9768 40.0706 87.1001 40.104 87.0481C40.1408 87.0042 39.8813 86.7699 39.4707 86.7381C39.0608 86.7033 38.7668 86.8928 38.7959 86.942Z" fill="white"/>
<path d="M64.8941 58.2857C64.8941 58.2857 45.2608 60.24 43.5706 60.7511C41.8804 61.2621 40.3362 64.3453 39.6089 65.8431C38.8816 67.3408 37.75 87.4452 37.75 87.4452L44.9318 87.8597C44.9318 87.8597 46.1522 75.4544 46.4315 73.4217C46.7108 71.3889 46.4874 68.8412 46.4874 68.8412C46.4874 68.8412 66.2106 71.067 68.0961 70.8865C69.9817 70.7059 72.1677 68.6051 72.7869 66.5099C73.5835 63.8142 71.6864 58.9564 71.6864 58.9564C71.6864 58.9564 70.1744 58.2129 68.9631 58.1394C66.9072 58.0152 64.8941 58.2857 64.8941 58.2857Z" fill="#263238"/>
<path d="M64.4678 64.3116C64.468 64.3136 64.449 64.3166 64.4123 64.3205C64.3688 64.3244 64.3148 64.3291 64.2485 64.3352C64.0956 64.3462 63.8848 64.3615 63.618 64.3808C63.0703 64.4188 62.2773 64.4654 61.2971 64.5164C59.3367 64.6188 56.6263 64.727 53.6315 64.7834C50.6356 64.8387 47.9228 64.8318 45.96 64.8024C44.9785 64.7879 44.1845 64.7709 43.6359 64.7534C43.3685 64.7441 43.1574 64.7367 43.0043 64.7313C42.9375 64.7279 42.8835 64.7251 42.8401 64.7227C42.8032 64.7201 42.7842 64.7179 42.7842 64.716C42.7842 64.714 42.8032 64.7125 42.8403 64.7112C42.884 64.7106 42.938 64.7097 43.0047 64.7087C43.1581 64.7089 43.3693 64.7093 43.6367 64.7095C44.1949 64.7128 44.9865 64.7173 45.9609 64.7229C47.9235 64.7318 50.6349 64.7264 53.6295 64.6709C56.6233 64.6145 59.3328 64.519 61.2937 64.4369C62.2672 64.395 63.0582 64.3609 63.6159 64.3369C63.8833 64.3265 64.0943 64.3183 64.2475 64.3123C64.3142 64.3108 64.3682 64.3097 64.4118 64.3088C64.4485 64.3088 64.4678 64.3097 64.4678 64.3116Z" fill="#455A64"/>
<path d="M40.6659 55.6747C40.6659 55.6747 37.4917 61.1259 37.4198 62.7824C37.4198 62.7824 36.3821 62.9301 36.9856 64.411C36.9856 64.411 35.3713 65.1398 36.496 66.3446C36.496 66.3446 35.9175 67.0626 36.9411 68.0593L36.9429 87.9241C36.9429 88.5855 37.4747 89.1238 38.1361 89.1318C38.7795 89.1396 39.3161 88.6432 39.3562 88.001C39.6502 83.3121 40.7825 65.7368 41.3415 63.9695C41.9873 61.9281 41.68 57.4478 41.4331 56.4607C41.4331 56.4607 41.2275 55.277 40.6659 55.6747Z" fill="#E0E0E0"/>
<path d="M40.6656 55.6747C40.6656 55.6747 40.6863 55.6602 40.7327 55.6326C40.7768 55.6049 40.8619 55.5727 40.9703 55.6015C41.0796 55.6339 41.1805 55.7451 41.2585 55.8935C41.3373 56.0432 41.4008 56.2328 41.447 56.4583L41.4468 56.4572C41.555 56.9355 41.6263 57.5753 41.6823 58.3559C41.7343 59.1365 41.7749 60.0599 41.7447 61.109C41.7326 61.6335 41.695 62.1895 41.6222 62.7716C41.5855 63.0627 41.5341 63.36 41.4622 63.6604C41.3784 63.9609 41.3103 64.262 41.2544 64.5767C41.061 65.8448 40.9325 67.2374 40.7971 68.725C40.5288 71.7012 40.2824 75.071 40.0251 78.7163C39.9024 80.5393 39.775 82.4312 39.6439 84.3778C39.5814 85.3513 39.5179 86.3385 39.4538 87.3375C39.4361 87.5889 39.4268 87.8343 39.4019 88.0926C39.3689 88.3542 39.2492 88.6043 39.0656 88.7955C38.8848 88.9901 38.6375 89.1184 38.3764 89.1683C38.1144 89.2132 37.8364 89.1797 37.5964 89.0594C37.3597 88.9469 37.1659 88.7549 37.0398 88.5281C36.9786 88.4131 36.9348 88.2896 36.9093 88.1624C36.8836 88.0345 36.8866 87.903 36.8862 87.7818C36.8862 87.2874 36.8862 86.7955 36.8862 86.3065C36.8862 85.3287 36.8864 84.3623 36.8864 83.4091C36.8871 81.5027 36.8875 79.6492 36.8881 77.8624C36.8907 74.2896 36.8933 70.9843 36.8955 68.0595L36.9091 68.0917C36.6654 67.8551 36.46 67.5793 36.3531 67.2642C36.2496 66.9505 36.2687 66.5917 36.4622 66.3183L36.4641 66.3738C36.3972 66.2883 36.3231 66.209 36.2637 66.1194C36.2108 66.025 36.1475 65.9368 36.1188 65.8312C36.0436 65.6314 36.0328 65.3994 36.1142 65.202C36.1905 65.0035 36.3252 64.8402 36.4745 64.7061C36.6257 64.5719 36.7905 64.4624 36.9689 64.376L36.9491 64.4259C36.8184 64.0978 36.7242 63.755 36.7756 63.4181C36.802 63.2522 36.8737 63.0919 36.9903 62.9742C37.1063 62.8552 37.2536 62.7791 37.4139 62.7478L37.3839 62.7811C37.4156 62.4664 37.4908 62.1713 37.5815 61.8907C37.6295 61.7514 37.6768 61.6142 37.7232 61.479C37.7757 61.3462 37.8273 61.2153 37.8783 61.0863C38.0878 60.5729 38.3058 60.1005 38.5157 59.664C38.9371 58.7916 39.3246 58.0613 39.6441 57.4707C39.9651 56.881 40.2199 56.4318 40.3938 56.1298C40.4809 55.9812 40.5472 55.8678 40.5936 55.7887C40.6398 55.712 40.6656 55.6747 40.6656 55.6747C40.6656 55.6747 40.6457 55.7153 40.6029 55.793C40.5584 55.8734 40.4947 55.9883 40.4115 56.1389C40.2433 56.4441 39.9938 56.8959 39.6782 57.4882C39.3642 58.0811 38.982 58.8136 38.566 59.6871C38.3587 60.1241 38.1435 60.5969 37.9373 61.1092C37.8871 61.238 37.8362 61.3684 37.7845 61.5011C37.739 61.6356 37.6925 61.7721 37.6457 61.9106C37.5569 62.189 37.4845 62.4808 37.4547 62.7839L37.4519 62.8124L37.4245 62.8171C37.1374 62.8679 36.8871 63.1161 36.849 63.4297C36.8017 63.7425 36.8916 64.0756 37.0212 64.3965L37.0346 64.4296L37.0013 64.4464C36.6719 64.6136 36.3365 64.8666 36.1909 65.2303C36.117 65.4111 36.128 65.618 36.1976 65.8033C36.2235 65.9003 36.2844 65.9839 36.3341 66.0727C36.3907 66.1576 36.4626 66.2338 36.5268 66.3157L36.5484 66.3433L36.5287 66.3712C36.3613 66.6092 36.3376 66.9458 36.4367 67.2365C36.5376 67.5318 36.7341 67.7972 36.9722 68.0269L36.9858 68.04V68.0592C36.9886 70.9841 36.9916 74.2891 36.9951 77.862C36.9959 79.6487 36.9968 81.5022 36.9979 83.4086C36.9981 84.3619 36.9985 85.3282 36.9987 86.3063C36.9987 86.7953 36.9989 87.2869 36.9989 87.7816C36.9994 87.9073 36.9966 88.025 37.0201 88.141C37.0434 88.2568 37.0834 88.3691 37.1389 88.4738C37.254 88.6803 37.4305 88.8557 37.6463 88.9579C37.8647 89.0674 38.118 89.0977 38.3569 89.057C38.5945 89.0115 38.8203 88.895 38.9849 88.7175C39.1523 88.5434 39.2611 88.3157 39.2914 88.0775C39.3147 87.8347 39.3251 87.5781 39.3426 87.3301C39.4071 86.3311 39.4709 85.3438 39.5337 84.3703C39.6663 82.4237 39.7955 80.5317 39.9197 78.7085C40.1808 75.0631 40.4333 71.6934 40.7092 68.7165C40.8485 67.2283 40.9809 65.8368 41.1794 64.5637C41.2369 64.2462 41.3092 63.9334 41.3917 63.6425C41.4639 63.3459 41.5162 63.0513 41.5537 62.7621C41.6285 62.1836 41.6684 61.6298 41.6831 61.1066C41.7183 60.0606 41.6831 59.1384 41.6367 58.3587C41.5866 57.5794 41.5209 56.9389 41.4194 56.4642L41.4192 56.4633C41.3323 56.0252 41.1777 55.6891 40.9667 55.6155C40.8649 55.5859 40.7811 55.614 40.7373 55.6388C40.6902 55.6637 40.6656 55.6747 40.6656 55.6747Z" fill="#263238"/>
<path d="M40.0792 75.2222L46.1778 76.0298L45.9695 77.8168L39.9902 77.4051L40.0792 75.2222Z" fill="#E0E0E0"/>
<path d="M45.4339 82.8193L39.3524 82.9265L39.3311 85.3321L45.2546 84.6033L45.4339 82.8193Z" fill="#E0E0E0"/>
<path d="M46.4867 68.8792L41.0435 63.2469L39.3818 66.8369L39.4987 67.7002L46.5684 70.5996L46.4867 68.8792Z" fill="#E0E0E0"/>
<path d="M41.3695 63.4861C41.3643 63.502 41.1418 63.442 40.7811 63.3536C40.4206 63.2651 39.9201 63.1532 39.3615 63.0625C38.8027 62.9724 38.2925 62.9208 37.9223 62.891C37.5521 62.8612 37.322 62.8478 37.3223 62.8311C37.3223 62.8169 37.5532 62.802 37.9266 62.8117C38.2999 62.8212 38.8159 62.8607 39.3795 62.9514C39.9426 63.043 40.4445 63.1683 40.8018 63.277C41.1595 63.3854 41.374 63.4724 41.3695 63.4861Z" fill="#263238"/>
<path d="M41.2673 65.1413C41.2634 65.1571 41.0209 65.1089 40.6295 65.0318C40.2383 64.9545 39.6974 64.8515 39.097 64.7556C38.4963 64.6601 37.9502 64.5899 37.5543 64.5417C37.1584 64.4933 36.913 64.464 36.9141 64.4475C36.9151 64.4329 37.1627 64.4344 37.5618 64.4624C37.961 64.4905 38.5112 64.5484 39.1147 64.6443C39.7177 64.7406 40.2588 64.8566 40.6468 64.9541C41.0351 65.0515 41.271 65.1271 41.2673 65.1413Z" fill="#263238"/>
<path d="M40.8554 66.7086C40.8526 66.7248 40.6126 66.6957 40.2253 66.6508C39.838 66.6056 39.303 66.5486 38.7101 66.5067C38.1171 66.4652 37.5791 66.4469 37.1894 66.4371C36.7998 66.4274 36.558 66.4227 36.5576 66.4062C36.5572 66.3916 36.7982 66.3682 37.1894 66.3576C37.5806 66.3468 38.1219 66.3527 38.718 66.3944C39.314 66.4365 39.8508 66.5065 40.2365 66.5719C40.6225 66.6374 40.858 66.6942 40.8554 66.7086Z" fill="#263238"/>
<path d="M40.8652 68.3589C40.8624 68.3751 40.6407 68.3474 40.2833 68.3047C39.9258 68.2617 39.432 68.2073 38.8849 68.1673C38.3375 68.128 37.8409 68.1107 37.4811 68.1016C37.1212 68.0923 36.8981 68.0878 36.8975 68.0716C36.8968 68.0569 37.1195 68.0334 37.4809 68.0221C37.842 68.0107 38.3423 68.0155 38.8929 68.0552C39.4432 68.0954 39.9387 68.1628 40.2947 68.226C40.6509 68.2889 40.8678 68.3444 40.8652 68.3589Z" fill="#263238"/>
<path d="M39.3045 87.5621C39.3025 87.5619 39.3023 87.5405 39.3034 87.4991C39.3055 87.4511 39.3081 87.3904 39.3116 87.3146C39.3217 87.1444 39.336 86.9074 39.3541 86.6059C39.3965 85.9825 39.4567 85.0946 39.531 84.0009C39.692 81.7952 39.9131 78.7612 40.1574 75.41C40.2845 73.7327 40.4056 72.1352 40.5158 70.6809C40.573 69.9551 40.6123 69.2618 40.7154 68.6196C40.8076 67.9772 40.907 67.3817 40.9953 66.8378C41.175 65.7505 41.3022 64.8683 41.3703 64.2562C41.4053 63.9503 41.4293 63.7123 41.4435 63.5507C41.4511 63.4751 41.4571 63.4146 41.4621 63.3671C41.4668 63.3259 41.4703 63.3047 41.4722 63.3047C41.4742 63.3049 41.4746 63.3261 41.4735 63.3678C41.4716 63.4157 41.4692 63.4764 41.4662 63.5522C41.4593 63.7144 41.4424 63.9536 41.4139 64.2607C41.3593 64.8752 41.2437 65.761 41.0739 66.8503C40.9906 67.3951 40.8959 67.9912 40.8078 68.6325C40.7091 69.2721 40.6735 69.9631 40.619 70.6904C40.5117 72.1447 40.3935 73.7422 40.2695 75.4197C40.0125 78.7694 39.7797 81.8023 39.6105 84.0072C39.5213 85.0995 39.4487 85.9864 39.398 86.6091C39.371 86.9098 39.3498 87.1466 39.3345 87.3161C39.3265 87.3917 39.3202 87.4522 39.315 87.4997C39.3099 87.5412 39.3064 87.5624 39.3045 87.5621Z" fill="#263238"/>
<path d="M38.2502 87.3699C38.2191 87.3694 38.2463 83.0732 38.3111 77.7749C38.3757 72.4749 38.4534 68.18 38.4845 68.1804C38.5156 68.1809 38.4884 72.4762 38.4236 77.7762C38.3588 83.0745 38.2813 87.3703 38.2502 87.3699Z" fill="#263238"/>
<path d="M37.3792 87.539C37.3481 87.5388 37.3543 83.2155 37.3928 77.8842C37.4315 72.551 37.4878 68.229 37.5189 68.2292C37.55 68.2295 37.544 72.5516 37.5053 77.8849C37.4667 83.2164 37.4103 87.5392 37.3792 87.539Z" fill="#263238"/>
<path d="M72.9076 65.9031C72.9115 65.9037 72.9031 65.9651 72.8839 66.0815C72.8655 66.1979 72.8286 66.3686 72.7672 66.5843C72.645 67.0148 72.4208 67.6322 71.9993 68.3184C71.7874 68.6597 71.5252 69.0178 71.19 69.355C70.8522 69.6922 70.4223 69.9747 69.943 70.2067C68.9812 70.6752 67.8025 70.8931 66.5793 70.902C65.3519 70.9128 64.1946 70.7603 63.1438 70.6557C62.0947 70.5438 61.1492 70.4432 60.3507 70.3581C59.5642 70.2702 58.9242 70.1987 58.4687 70.1477C58.2548 70.1213 58.0846 70.1004 57.9576 70.0848C57.841 70.0693 57.7798 70.0591 57.7803 70.0553C57.7807 70.0514 57.8425 70.054 57.96 70.0622C58.0874 70.0725 58.2585 70.0866 58.4732 70.1041C58.9296 70.1464 59.5709 70.2058 60.3589 70.2788C61.1581 70.357 62.1046 70.4497 63.1544 70.5525C64.2065 70.6514 65.3621 70.8002 66.578 70.7894C67.7901 70.7806 68.9514 70.568 69.8983 70.1129C70.3707 69.8876 70.7934 69.6135 71.1248 69.2882C71.4557 68.961 71.7183 68.6106 71.9319 68.2761C72.3573 67.603 72.591 66.9952 72.7253 66.5716C72.7927 66.3593 72.8361 66.1912 72.8616 66.0768C72.888 65.9623 72.9037 65.9022 72.9076 65.9031Z" fill="#455A64"/>
<path d="M68.1234 33.6228C67.4901 36.1543 66.4719 40.1361 66.1647 41.3353C66.0809 41.6626 66.103 42.0118 66.2522 42.3149C66.4213 42.6577 66.7494 43.0393 67.3851 43.1713C67.859 43.2698 68.3524 43.1059 68.6926 42.7614C68.9038 42.5475 69.1012 42.2954 69.1036 42.0982C69.1077 41.7621 70.4316 36.5345 70.9895 34.3458C71.1366 33.7684 70.9226 33.1597 70.4467 32.8012C69.6015 32.164 68.3802 32.5957 68.1234 33.6228Z" fill="#455A64"/>
<path d="M68.8369 42.1911C68.8279 42.188 68.8423 42.1455 68.8365 42.0701C68.8318 41.9958 68.8004 41.8869 68.7145 41.785C68.5456 41.5742 68.1451 41.4821 67.734 41.3856C67.3172 41.2947 66.9271 41.3225 66.6679 41.4202C66.4061 41.5122 66.2776 41.6383 66.2652 41.6234C66.2553 41.6171 66.3681 41.4642 66.6387 41.3461C66.9046 41.2225 67.3254 41.1804 67.7563 41.2752C67.9725 41.3204 68.1699 41.3793 68.3503 41.445C68.5302 41.5115 68.6879 41.6102 68.7771 41.7359C68.8668 41.8593 68.889 41.9876 68.8801 42.0705C68.8722 42.155 68.8421 42.1936 68.8369 42.1911Z" fill="#263238"/>
<path d="M71.9702 39.2328C71.8615 38.5904 71.6615 38.2675 71.6615 38.2675C71.6615 38.2675 71.6693 37.629 71.3269 37.0408C71.0405 36.549 69.6443 35.3266 68.2362 35.2279C67.5096 35.1769 66.8985 35.7971 66.9784 36.5211C66.9795 36.5306 66.9806 36.5401 66.9817 36.5498C66.9817 36.5498 65.7656 36.7388 65.7548 37.6128L65.7505 37.9655C65.7505 37.9655 64.9511 39.0016 66.1133 39.2779C66.1133 39.2779 65.8429 40.7206 66.9296 40.8119C68.0163 40.9035 68.9788 40.837 68.9788 40.837L69.2533 41.3362L69.1505 41.8503C69.1505 41.8503 68.9267 42.7469 68.3546 43.0082C67.5513 43.3752 67.2039 43.2439 66.9091 43.7053C66.371 44.547 66.8745 45.3473 66.8745 45.3473L67.4363 46.3809C67.5605 47.2142 67.8483 47.5444 67.8483 47.5444L71.0937 46.097C71.2656 46.0204 71.303 45.7931 71.1649 45.6652L70.5912 45.1343C70.5912 45.1343 70.9425 44.9874 71.231 44.2848L71.4304 43.8005C71.4304 43.8005 71.9369 42.9618 72.0549 42.3514C72.1726 41.7407 72.0788 39.8749 71.9702 39.2328Z" fill="#E0E0E0"/>
<path d="M71.1405 40.9685C71.1166 40.9787 71.0481 40.6363 70.7155 40.213C70.3921 39.7913 69.7689 39.3254 68.9702 39.142C68.1695 38.9608 67.4128 39.0533 66.8856 39.1505C66.3546 39.2509 66.0328 39.3498 66.0274 39.3315C66.0252 39.3243 66.103 39.2919 66.2475 39.2435C66.3918 39.1949 66.6035 39.1325 66.8698 39.0725C67.3977 38.9545 68.1695 38.8459 68.9954 39.0323C69.8223 39.2219 70.4614 39.7168 70.7787 40.1648C70.9405 40.3883 71.0366 40.592 71.0844 40.7376C71.1332 40.883 71.1462 40.9672 71.1405 40.9685Z" fill="#263238"/>
<path d="M71.3335 38.7835C71.3177 38.8 71.106 38.5451 70.6615 38.2716C70.2221 37.9954 69.5333 37.7351 68.7402 37.6744C67.9462 37.6139 67.2245 37.7282 66.7111 37.8251C66.1963 37.9249 65.8805 38.0051 65.876 37.988C65.8741 37.9807 65.9505 37.9519 66.0914 37.9083C66.2322 37.8647 66.4376 37.807 66.6949 37.7474C67.2072 37.6299 67.9373 37.5007 68.749 37.5623C69.561 37.6238 70.266 37.9042 70.7043 38.2044C70.9252 38.3528 71.087 38.4965 71.1883 38.6047C71.2905 38.7127 71.3384 38.7792 71.3335 38.7835Z" fill="#263238"/>
<path d="M70.8128 37.1814C70.8028 37.1976 70.605 37.0786 70.2674 36.9287C69.9304 36.7782 69.4466 36.609 68.8912 36.5181C68.3355 36.4291 67.8229 36.4367 67.4557 36.4732C67.0881 36.5088 66.863 36.5591 66.8584 36.5408C66.8565 36.5332 66.9109 36.5138 67.0118 36.4846C67.112 36.4542 67.2606 36.4224 67.4462 36.3941C67.8166 36.3367 68.3413 36.3157 68.9094 36.4069C69.477 36.4997 69.9682 36.6853 70.3015 36.8568C70.4685 36.9421 70.5994 37.0192 70.6851 37.0799C70.7713 37.1393 70.8169 37.175 70.8128 37.1814Z" fill="#263238"/>
<path d="M68.0196 45.9289C68.0127 45.8972 68.5901 45.7477 69.291 45.5291C69.9928 45.312 70.5531 45.1081 70.5654 45.1384C70.577 45.1658 70.0314 45.4179 69.3245 45.6367C68.6181 45.8566 68.0256 45.9579 68.0196 45.9289Z" fill="#263238"/>
<path d="M67.6889 29.8379C68.9047 30.5241 71.5574 32.0629 71.5574 32.0629C71.8212 31.94 76.6984 15.149 77.6147 11.9881C77.7093 11.6617 77.6428 11.3105 77.4344 11.0422C76.7952 10.2192 75.3811 8.53379 74.6391 8.70076C73.7652 8.89753 68.4326 25.3731 67.31 28.8695C67.1908 29.2417 67.3485 29.6456 67.6889 29.8379Z" fill="#FF725E"/>
<path d="M71.9682 30.874C71.9567 30.8885 71.7329 30.7198 71.3536 30.477C70.9744 30.2344 70.4318 29.9266 69.7935 29.6748C69.1543 29.4244 68.5472 29.2816 68.1035 29.2052C67.6596 29.1285 67.3805 29.1047 67.3818 29.086C67.3823 29.0782 67.4525 29.0767 67.5795 29.0806C67.7065 29.0829 67.8899 29.098 68.1156 29.1266C68.5662 29.1834 69.1861 29.3158 69.8345 29.57C70.4821 29.8255 71.0266 30.1491 71.3977 30.4109C71.5835 30.542 71.7293 30.6541 71.8252 30.7375C71.9219 30.8198 71.9729 30.868 71.9682 30.874Z" fill="#263238"/>
<path d="M75.1843 8.93753C75.186 8.93818 75.1808 8.95632 75.1688 8.9911C75.1538 9.03171 75.1353 9.08182 75.1124 9.14381C75.0573 9.28551 74.9815 9.48034 74.8856 9.72701C74.6845 10.2417 74.3996 10.9718 74.0486 11.8702C73.3479 13.682 72.4098 16.1966 71.4497 19.0005C70.4906 21.8059 69.6916 24.3684 69.1357 26.2298C68.8626 27.1548 68.6408 27.9064 68.4844 28.4365C68.409 28.6903 68.3496 28.8905 68.3064 29.0363C68.2866 29.0992 68.2704 29.1504 68.2574 29.1916C68.2457 29.2264 68.2388 29.2439 68.2369 29.2435C68.2349 29.243 68.2382 29.2245 68.2462 29.1886C68.2563 29.1465 68.2688 29.0944 68.2844 29.0305C68.3226 28.8834 68.3753 28.681 68.4421 28.4248C68.5803 27.8993 68.7905 27.1416 69.0592 26.2076C69.596 24.3396 70.3835 21.7716 71.3432 18.9643C72.3039 16.1584 73.2543 13.6465 73.9743 11.8412C74.3339 10.9386 74.632 10.2106 74.8448 9.7106C74.9489 9.46716 75.0312 9.27492 75.091 9.13539C75.118 9.07512 75.14 9.02631 75.1577 8.98678C75.1735 8.9533 75.1824 8.93667 75.1843 8.93753Z" fill="#263238"/>
<path d="M62.2402 37.6178L63.4589 36.6272C63.4589 36.6272 63.6879 35.5245 64.0456 34.6873C64.0456 34.6873 64.0702 33.2712 65.4496 32.3636C65.7114 31.7577 66.1974 31.3791 66.8298 31.1488C66.8298 31.1488 67.1946 30.0682 68.4861 30.0124C70.6249 29.9204 72.3311 31.306 72.6048 31.953C72.8785 32.5999 72.2292 33.0744 72.2292 33.0744L72.3668 33.8613C72.4231 34.1838 72.3518 34.5156 72.168 34.7865C72.168 34.7865 72.316 35.8505 71.6319 35.8824C70.9478 35.9144 70.8556 35.4306 70.8556 35.4306C70.8556 35.4306 70.2666 35.7049 69.9862 35.6211C69.7056 35.5373 69.3049 35.4116 69.3049 35.4116L68.1398 35.317L67.2635 35.9228C67.2635 35.9228 66.8214 37.9284 66.452 38.5271C66.0827 39.1259 63.971 40.7759 63.971 40.7759L62.2402 37.6178Z" fill="#E0E0E0"/>
<path d="M65.1719 33.5356C65.17 33.5281 65.2607 33.4987 65.4272 33.4518C65.5942 33.4073 65.8393 33.3548 66.1463 33.3121C66.7586 33.2326 67.6293 33.219 68.5538 33.4369C69.0154 33.5438 69.4431 33.6944 69.8163 33.8642C70.184 34.0396 70.5268 34.1983 70.7449 34.44C70.8523 34.5582 70.9199 34.696 70.9391 34.823C70.9607 34.9494 70.9443 35.0621 70.9121 35.1457C70.8806 35.2302 70.8343 35.2852 70.7991 35.3155C70.7641 35.3464 70.741 35.3561 70.7395 35.3537C70.7296 35.3451 70.8223 35.2926 70.8704 35.1317C70.9188 34.977 70.9002 34.7068 70.6862 34.494C70.4808 34.2782 70.1393 34.1262 69.7738 33.9588C69.4038 33.7968 68.9821 33.6516 68.5279 33.5464C67.6185 33.3319 66.7627 33.3326 66.1549 33.3911C65.5454 33.4536 65.1769 33.5562 65.1719 33.5356Z" fill="#263238"/>
<path d="M67.0723 32.0694C67.071 32.0627 67.1567 32.0372 67.3161 32.0076C67.4753 31.9778 67.709 31.9503 67.9996 31.9488C68.5769 31.9424 69.3973 32.0758 70.1781 32.5126C70.9592 32.9496 71.5022 33.5788 71.7988 34.0743C71.9496 34.3227 72.0487 34.5361 72.1064 34.6873C72.1647 34.8383 72.1876 34.9249 72.1813 34.9273C72.161 34.9359 72.0453 34.595 71.7316 34.1168C71.4227 33.6405 70.8838 33.0364 70.1231 32.6107C69.3625 32.1854 68.5657 32.0421 67.9983 32.0283C67.4265 32.0115 67.0755 32.0912 67.0723 32.0694Z" fill="#263238"/>
<path d="M67.8701 31.0544C67.8693 31.0466 67.9384 31.0354 68.0656 31.0214C68.1291 31.0118 68.2071 31.011 68.2978 31.0112C68.3887 31.0084 68.492 31.0116 68.6056 31.0235C68.8341 31.0376 69.1022 31.0883 69.3955 31.1592C69.6871 31.2376 70.0018 31.3454 70.3206 31.4862C70.6373 31.632 70.9274 31.7955 71.1784 31.964C71.4253 32.1379 71.6395 32.3074 71.7989 32.472C71.8821 32.5506 71.9517 32.6271 72.0078 32.6988C72.0666 32.7681 72.116 32.8284 72.1491 32.8835C72.2195 32.9904 72.2547 33.0509 72.2482 33.055C72.2305 33.0675 72.0767 32.831 71.7441 32.5297C71.5812 32.3757 71.3661 32.216 71.1209 32.0502C70.8714 31.8897 70.5855 31.732 70.2746 31.5888C69.9614 31.4503 69.6536 31.3417 69.3687 31.2592C69.0821 31.1844 68.8205 31.1263 68.5974 31.1026C68.1518 31.0458 67.8719 31.0756 67.8701 31.0544Z" fill="#263238"/>
<path d="M67.7637 35.272C67.7657 35.3044 67.29 35.3556 66.7282 35.5327C66.1668 35.7107 65.705 35.8565 65.6944 35.8223C65.6867 35.7971 66.126 35.6055 66.6958 35.4251C67.2693 35.2443 67.7641 35.2419 67.7637 35.272Z" fill="#263238"/>
<path d="M66.9294 40.8118C66.9292 40.8152 66.8834 40.8107 66.7946 40.7988C66.7065 40.788 66.576 40.7461 66.4333 40.6465C66.1371 40.4363 65.9833 39.8909 66.0777 39.271L66.1047 39.3125C66.0447 39.2946 65.9831 39.276 65.9203 39.2572C65.8591 39.233 65.798 39.2019 65.7367 39.1697C65.6198 39.0941 65.5101 38.9805 65.4662 38.83C65.4215 38.6803 65.4418 38.5172 65.4906 38.3677C65.5414 38.2169 65.6146 38.0735 65.7135 37.9368L65.7038 37.9644C65.709 37.8018 65.6965 37.6441 65.7207 37.4622C65.7516 37.2853 65.8397 37.1156 65.9667 36.9803C66.2255 36.7099 66.5855 36.5531 66.9683 36.4682L66.9247 36.5272C66.9007 36.3332 66.9346 36.0898 67.029 35.8885C67.1232 35.6822 67.2808 35.5023 67.4752 35.372C67.672 35.2465 67.9075 35.1668 68.1494 35.1703C68.2718 35.1659 68.385 35.1927 68.5043 35.2027C68.6196 35.2288 68.7386 35.245 68.8524 35.2817C69.6342 35.5072 70.3076 35.9394 70.8556 36.4304C70.9939 36.5531 71.12 36.6853 71.236 36.8244C71.3544 36.9641 71.4388 37.1274 71.5054 37.2871C71.6376 37.6115 71.7032 37.9428 71.7093 38.2675L71.7021 38.2416C72.0007 38.8159 72.0449 39.4039 72.0851 39.905C72.1214 40.4102 72.1339 40.8513 72.1354 41.2144C72.1367 41.5775 72.1242 41.8628 72.1045 42.0568C72.0933 42.1535 72.0849 42.2276 72.0732 42.2769C72.0631 42.3263 72.0568 42.3514 72.0542 42.3508C72.0477 42.3495 72.0648 42.2477 72.075 42.0544C72.0851 41.8611 72.0886 41.5768 72.0791 41.215C72.0696 40.8532 72.0493 40.4137 72.0065 39.9113C71.9618 39.4142 71.9052 38.83 71.6201 38.2921L71.6131 38.2792L71.6127 38.2662C71.6047 37.9614 71.5386 37.635 71.4099 37.3268C71.2907 37.0093 71.0524 36.7542 70.7828 36.5105C70.2448 36.0315 69.5797 35.6081 68.8224 35.3899C68.7118 35.3543 68.5974 35.339 68.4859 35.3135C68.3734 35.3042 68.258 35.2776 68.1494 35.2822C67.9293 35.2785 67.7156 35.3508 67.5357 35.4647C67.3584 35.583 67.2139 35.7468 67.1277 35.9343C67.0413 36.1168 67.0098 36.339 67.0303 36.514L67.0359 36.5624L66.9866 36.573C66.6264 36.6505 66.2747 36.8037 66.0397 37.0488C65.9231 37.1715 65.8446 37.3212 65.8155 37.4787C65.7926 37.6333 65.8017 37.8074 65.7958 37.9653L65.7952 37.9804L65.7861 37.9932C65.609 38.2418 65.4749 38.5463 65.5453 38.8066C65.5811 38.9347 65.6725 39.0332 65.7773 39.1038C65.8332 39.1337 65.8891 39.1635 65.946 39.187C66.0054 39.2058 66.0635 39.2244 66.1205 39.2423L66.1527 39.2525L66.1475 39.2838C66.0475 39.8834 66.1849 40.4102 66.4566 40.6156C66.5886 40.7148 66.7125 40.7621 66.7979 40.7787C66.8845 40.7973 66.9296 40.8085 66.9294 40.8118Z" fill="#263238"/>
<path d="M54.5355 29.2365C54.5355 29.2365 54.7124 28.0619 54.4618 27.002C54.434 26.8839 53.9754 24.4213 52.3113 22.7779C51.1242 21.6057 49.1295 21.0108 47.5274 21.3901C45.9253 21.7694 44.072 22.7531 43.3776 24.5997C42.6831 26.4463 42.9836 27.3444 42.9836 27.3444C42.9836 27.3444 42.8745 28.9201 42.9903 29.3342C43.1862 30.0349 44.2731 31.5486 44.2731 31.5486L44.8874 32.1411L53.5641 30.6425L54.5355 29.2365Z" fill="#FF725E"/>
<path d="M54.0645 30.4988C54.1082 29.3372 54.1451 28.1686 53.9881 27.0169C53.831 25.8652 53.4697 24.7206 52.7824 23.7832C52.6783 23.641 51.8719 22.7181 51.7078 22.7827C51.5905 22.8289 52.1832 23.7352 52.1521 23.8573C51.854 25.0217 52.0374 26.2685 52.4577 27.3945C52.8781 28.5205 53.4124 29.4892 54.0645 30.4988Z" fill="#263238"/>
<path d="M43.5993 28.514C42.9275 25.8823 44.3907 23.1766 46.9598 22.2958L47.2151 22.2083C50.0234 21.4251 52.2574 23.3726 52.9627 26.2013L55.3694 35.2167L54.7557 40.2214L49.4389 38.0938C49.2062 37.3065 49.1339 37.07 49.1278 37.0717C49.1278 37.0717 46.3401 37.5676 45.3999 34.9329C44.9461 33.66 44.2242 30.9626 43.5993 28.514Z" fill="#FFBF9D"/>
<path d="M49.1279 37.0718C49.1279 37.0718 50.8296 36.5976 52.2241 34.8716C52.2241 34.8716 52.0774 37.1452 49.3552 37.8124L49.1279 37.0718Z" fill="#FF9A6C"/>
<path d="M53.4189 28.2348C53.4574 28.1998 55.0528 27.0736 55.6152 28.9024C56.1777 30.7313 54.2255 30.919 54.2063 30.8674C54.187 30.816 53.4189 28.2348 53.4189 28.2348Z" fill="#FFBF9D"/>
<path d="M54.5513 30.0027C54.5576 29.9945 54.59 30.0152 54.6515 30.0232C54.7114 30.031 54.8068 30.02 54.8911 29.9547C55.0626 29.8245 55.1308 29.4676 55.0384 29.1352C54.9919 28.9674 54.9081 28.8196 54.809 28.7065C54.712 28.5898 54.5967 28.5231 54.4941 28.5356C54.3904 28.543 54.3394 28.6224 54.3329 28.6808C54.3243 28.7395 54.347 28.7723 54.3383 28.7786C54.3347 28.7847 54.2897 28.76 54.2811 28.6799C54.2774 28.6412 54.2856 28.5916 54.3178 28.5432C54.3506 28.4939 54.4096 28.4559 54.4796 28.4425C54.6237 28.4088 54.7904 28.4995 54.8997 28.6237C55.0168 28.746 55.1146 28.911 55.1669 29.0996C55.2686 29.4718 55.1859 29.8746 54.9451 30.0323C54.8267 30.1055 54.7075 30.0997 54.6388 30.0735C54.5681 30.0459 54.5459 30.0079 54.5513 30.0027Z" fill="#FF9A6C"/>
<path d="M47.5875 37.324C46.5669 37.324 45.9133 37.1069 45.5068 36.9719L45.3923 36.9343C44.7918 36.7416 42.9839 33.3578 42.8917 32.91C42.7867 32.3998 43.2761 30.1802 43.3323 29.9288L43.5431 29.9758C43.3934 30.6465 43.0223 32.473 43.1033 32.8666C43.2139 33.4038 45.0197 36.5878 45.4584 36.7287L45.5748 36.7669C46.1317 36.9516 47.1687 37.2957 49.0174 36.9779C50.9571 36.6442 52.8447 34.8486 53.1888 34.1878C53.4567 33.6738 54.0345 29.8154 54.3027 27.8472L54.5166 27.8763C54.4848 28.1103 53.7323 33.6122 53.3804 34.2876C53.011 34.9968 51.0938 36.8399 49.0541 37.1907C48.4966 37.2866 48.0104 37.324 47.5875 37.324Z" fill="#E0E0E0"/>
<path d="M43.0806 32.9571L42.9141 32.8195C42.9737 32.7473 44.4211 31.0483 48.5597 30.6997C52.7125 30.3489 53.7648 31.7166 53.8074 31.7749L53.6335 31.9032C53.6236 31.8898 52.59 30.5774 48.5778 30.915C44.5397 31.255 43.0946 32.9402 43.0806 32.9571Z" fill="#E0E0E0"/>
<path d="M44.1671 35.1729L44.0596 34.9856C44.0788 34.9746 46.0068 33.8823 48.6457 33.5745C51.2975 33.2647 53.0905 34.2795 53.1657 34.3229L53.0577 34.5099C53.0398 34.4998 51.2476 33.4885 48.671 33.7889C46.0781 34.0913 44.1861 35.1621 44.1671 35.1729Z" fill="#E0E0E0"/>
<path d="M50.0191 36.712C49.9822 36.6046 49.116 34.0826 49.0439 33.8461C48.9696 33.6029 48.8389 31.11 48.8242 30.8264L49.04 30.8152C49.097 31.9176 49.2001 33.618 49.2504 33.783C49.3214 34.0161 50.2142 36.6157 50.2232 36.6418L50.0191 36.712Z" fill="#E0E0E0"/>
<path d="M48.084 37.2451C48.084 37.2451 46.5565 34.5501 46.3537 34.1904C46.1459 33.8222 45.5787 31.4948 45.5547 31.3958L45.7646 31.3448C45.9264 32.0106 46.3818 33.8001 46.542 34.0844C46.7448 34.444 48.2722 37.1386 48.2722 37.1386L48.084 37.2451Z" fill="#E0E0E0"/>
<path d="M46.3656 37.1751C46.3114 37.0952 45.0341 35.2143 44.7624 34.7745C44.6598 34.6088 43.5932 32.4776 43.5479 32.3868L43.7412 32.2903C44.1237 33.0551 44.8683 34.535 44.9462 34.6609C45.2156 35.0968 46.531 37.0343 46.5442 37.0539L46.3656 37.1751Z" fill="#E0E0E0"/>
<path d="M51.8712 35.7593L51.6562 35.7389C51.661 35.6871 51.7774 34.4658 51.9133 33.9338C52.0448 33.4182 52.2366 31.1921 52.2384 31.1697C52.2699 30.7867 52.3451 29.8888 52.3574 29.8326L52.5682 29.8793L52.4628 29.856L52.5689 29.8767C52.5589 29.9357 52.4928 30.7122 52.4535 31.1878C52.4455 31.2805 52.2585 33.4547 52.1224 33.9874C51.9908 34.503 51.8725 35.7469 51.8712 35.7593Z" fill="#E0E0E0"/>
<path d="M47.601 21.0747L49.5701 21.1914C49.6349 21.1953 49.6971 21.2106 49.7561 21.238C50.1956 21.4421 51.8798 21.6426 52.5369 22.742C53.0041 23.5235 53.7406 24.6726 54.0363 25.5941C54.1666 25.9997 53.7817 26.3875 53.3799 26.246C52.8635 26.0641 52.169 25.9008 51.4484 25.9689C48.9148 26.2084 45.4521 26.7588 43.9498 27.0858C43.5949 27.1631 43.2363 27.0359 43.2918 26.6769C43.4154 25.8762 43.6115 24.6668 43.7264 24.2743C43.8822 23.7428 44.9773 22.5701 45.2395 22.2947C45.2769 22.2554 45.3192 22.2232 45.367 22.1975L47.3237 21.1365C47.4086 21.0905 47.5047 21.0691 47.601 21.0747Z" fill="#FF725E"/>
<path d="M44.452 25.3826C45.497 25.0852 47.9367 24.8793 49.1547 25.0521C50.3727 25.2249 51.4696 25.9267 51.4696 25.9267L43.2246 27.3471L41.5684 27.7318C42.2209 26.6805 43.407 25.68 44.452 25.3826Z" fill="#FF725E"/>
<path d="M42.961 26.173C42.9574 26.1661 43.0641 26.102 43.2606 25.9916C43.4574 25.8816 43.7486 25.7337 44.1179 25.57C44.489 25.411 44.9407 25.2401 45.4604 25.1088C45.9801 24.9796 46.5693 24.8999 47.1869 24.8997C48.4206 24.8783 49.5363 25.0542 50.3093 25.2952C50.6956 25.4181 50.9936 25.5585 51.1906 25.6693C51.2893 25.7244 51.3634 25.7717 51.4122 25.8056C51.4611 25.8397 51.4855 25.8592 51.4835 25.8624C51.4788 25.8702 51.3719 25.8063 51.1703 25.708C50.969 25.6101 50.6703 25.4827 50.286 25.3712C49.5181 25.1531 48.4109 24.9906 47.1877 25.012C46.5767 25.0125 45.9991 25.0876 45.4848 25.2095C44.9709 25.3334 44.521 25.4948 44.1486 25.6432C43.7782 25.7963 43.4829 25.9328 43.2805 26.0305C43.0785 26.1285 42.9647 26.1797 42.961 26.173Z" fill="#263238"/>
<path d="M54.1831 26.6657L54.293 27.8597L53.3618 28.2727C53.3618 28.2727 53.3722 29.6199 52.8627 29.8106C52.3529 30.0013 51.8723 29.6076 51.8723 29.6076L51.7129 25.885C51.7129 25.885 53.3692 25.4109 53.3603 25.4766C53.3517 25.5422 54.1831 26.6657 54.1831 26.6657Z" fill="#FF725E"/>
<path d="M46.4691 24.1132C46.4404 24.1111 46.4819 23.4639 46.6797 22.6919C46.875 21.9189 47.1478 21.3309 47.1742 21.3426C47.205 21.3549 46.9817 21.9556 46.7888 22.7196C46.5931 23.4827 46.5022 24.1171 46.4691 24.1132Z" fill="#263238"/>
<path d="M43.2483 25.2705C43.2353 25.2627 43.3261 25.083 43.4887 24.8016C43.6514 24.5201 43.8868 24.1378 44.1618 23.725C44.4369 23.3122 44.6994 22.9479 44.8966 22.6895C45.0938 22.4312 45.2247 22.2783 45.237 22.2871C45.2497 22.2966 45.1417 22.466 44.9614 22.7357C44.7575 23.0394 44.519 23.3948 44.2555 23.7874C43.9946 24.1816 43.7585 24.5385 43.5565 24.8435C43.3768 25.1137 43.2619 25.2787 43.2483 25.2705Z" fill="#263238"/>
<path d="M51.4939 23.6317C51.4624 23.6462 51.1885 23.0431 50.7153 22.3854C50.2459 21.7244 49.764 21.2702 49.788 21.2451C49.7977 21.2346 49.9307 21.3348 50.1241 21.5218C50.3174 21.7085 50.5673 21.9858 50.8068 22.3202C51.0455 22.6548 51.227 22.9809 51.341 23.2244C51.4553 23.4676 51.5071 23.6259 51.4939 23.6317Z" fill="#263238"/>
<path d="M54.5796 27.8117C54.5461 27.8417 54.1405 27.1155 53.3074 26.5902C52.473 26.0662 51.6429 26.0148 51.6554 25.9718C51.6565 25.9595 51.8593 25.9602 52.1809 26.0234C52.5011 26.0869 52.9402 26.2276 53.3672 26.4952C53.7932 26.7643 54.11 27.0993 54.3057 27.3603C54.5019 27.6227 54.5902 27.8054 54.5796 27.8117Z" fill="#263238"/>
<path d="M69.0502 48.006C69.0502 48.006 69.0114 48.0282 68.9332 48.0664C68.8509 48.106 68.7351 48.1615 68.5845 48.2338C68.2729 48.3801 67.8199 48.5928 67.2382 48.8661C66.0485 49.3663 64.3278 50.1081 62.1194 50.7917C59.9178 51.4896 57.2476 52.1789 54.2341 52.6847C54.046 52.7176 53.8568 52.7508 53.6665 52.7841C53.4751 52.8113 53.2827 52.8385 53.0889 52.866C52.7016 52.92 52.3098 52.9748 51.9139 53.0301C51.1216 53.1375 50.3075 53.2053 49.4815 53.2973C47.8243 53.4228 46.105 53.5299 44.3418 53.5226C40.8156 53.5282 37.4538 53.263 34.4442 52.7221C32.9422 52.4426 31.5269 52.0836 30.2573 51.5905C28.9857 51.106 27.8612 50.4872 26.9585 49.7564C26.5151 49.3817 26.1345 48.9782 25.8135 48.5652C25.504 48.1436 25.2556 47.7148 25.0754 47.2897C24.7227 46.435 24.6631 45.6116 24.7743 44.9733C24.8832 44.3279 25.151 43.886 25.3217 43.5948C25.4234 43.462 25.5016 43.3598 25.5573 43.2872C25.6109 43.2185 25.6405 43.1851 25.6405 43.1851C25.6405 43.1851 25.6167 43.2233 25.5664 43.2941C25.5133 43.368 25.4383 43.4719 25.3409 43.6071C25.1776 43.9007 24.9186 44.342 24.8178 44.9804C24.7145 45.612 24.7797 46.4233 25.1338 47.2651C25.3146 47.6839 25.5625 48.1062 25.8708 48.5216C26.1904 48.9283 26.5689 49.3257 27.0093 49.6946C27.9057 50.4137 29.025 51.025 30.2908 51.5028C31.5548 51.9894 32.9651 52.3439 34.463 52.6195C37.4648 53.1532 40.8225 53.415 44.3416 53.4094C46.1015 53.4168 47.8176 53.3107 49.4722 53.1867C50.2969 53.0958 51.1095 53.0288 51.9007 52.9228C52.296 52.8681 52.6872 52.8141 53.074 52.7608C53.2673 52.7338 53.4596 52.7068 53.6507 52.68C53.8408 52.6472 54.0298 52.6143 54.2177 52.5817C57.227 52.0823 59.8946 51.4021 62.0961 50.715C64.3045 50.0422 66.0271 49.3125 67.2214 48.825C67.8065 48.5604 68.262 48.3542 68.5755 48.2125C68.728 48.1444 68.8455 48.0924 68.9288 48.0552C69.0081 48.0213 69.0502 48.006 69.0502 48.006Z" fill="#263238"/>
<path d="M37.9413 54.7096C37.9411 54.7135 37.8907 54.715 37.7944 54.7145C37.6868 54.7126 37.5471 54.71 37.3738 54.707C37.0086 54.7007 36.4805 54.6724 35.8292 54.6225C34.5272 54.5199 32.7307 54.2955 30.7856 53.8497C29.8134 53.6257 28.8971 53.3717 28.0725 53.1125C27.2512 52.8435 26.5162 52.5859 25.9122 52.3362C25.6075 52.2182 25.3368 52.0994 25.099 51.9953C24.8603 51.8936 24.6571 51.8007 24.4931 51.7201C24.3372 51.6443 24.2117 51.5832 24.1149 51.5361C24.0289 51.4929 23.9846 51.4685 23.9864 51.465C23.9881 51.4616 24.0356 51.4791 24.1246 51.5156C24.2235 51.5577 24.3518 51.6123 24.5113 51.6802C24.6778 51.7547 24.8832 51.8413 25.1238 51.9374C25.3634 52.0359 25.6355 52.1491 25.9414 52.2621C26.5477 52.5016 27.2832 52.7507 28.1038 53.0135C28.9276 53.2665 29.8417 53.5166 30.8109 53.7399C32.7499 54.1845 34.5386 54.4206 35.8364 54.5432C36.4854 54.6031 37.0118 54.6437 37.376 54.6633C37.5488 54.6752 37.6879 54.6847 37.7953 54.6921C37.8912 54.6996 37.9415 54.7057 37.9413 54.7096Z" fill="#263238"/>
</svg>
