<svg width="91" height="101" viewBox="0 0 91 101" fill="none" xmlns="http://www.w3.org/2000/svg">
<path opacity="0.56" d="M3.29045 94.3079C2.04452 94.4982 0.584907 94.8511 0.125695 96.0249C-0.424141 97.4306 0.925581 98.8828 2.31737 99.4674C4.29085 100.296 6.50356 100.271 8.64373 100.232C16.0434 100.1 23.4431 99.9667 30.8428 99.8338C32.9236 99.7965 35.0628 99.7473 36.9814 98.9409C38.533 98.2889 39.8566 97.1733 41.4132 96.5334C45.8496 94.7093 50.7543 97.089 55.4358 98.1336C59.2586 98.9866 63.2193 98.9295 67.1344 98.8165C72.9618 98.6482 78.7857 98.3652 84.6019 97.9671C86.0154 97.8704 87.4695 97.7562 88.7386 97.1267C90.0079 96.4974 91.0626 95.2216 90.9971 93.8065C90.8766 91.2029 87.5375 90.2084 84.9312 90.2122C78.5946 90.2212 72.3931 91.9209 66.099 92.6523C55.2399 93.9142 44.3442 92.3177 33.4801 92.0134C23.5068 91.7341 13.1181 92.8063 3.29045 94.3079Z" fill="url(#paint0_linear_1872_8775)" fill-opacity="0.1"/>
<path d="M75.4243 47.0375C76.7787 47.0043 78.8613 46.9913 79.439 46.0957C80.0333 45.1745 78.8861 44.0367 78.0669 43.3337C77.73 43.0446 78.4811 42.6683 78.933 42.9123C80.4174 43.7131 81.6191 45.2091 80.9535 46.4179C80.2077 47.7721 77.3166 48.0165 75.2599 47.8858C74.403 47.8313 74.5668 47.0586 75.4243 47.0375Z" fill="#404050"/>
<path d="M78.8688 44.1214C79.424 44.7947 79.4955 45.8714 78.9197 46.527C78.4697 47.0394 77.7294 47.2168 77.051 47.1479C76.3724 47.0791 75.7361 46.7984 75.1129 46.5214C74.6522 44.7251 74.0937 42.9539 73.4404 41.2183C73.693 40.5218 74.7392 40.5155 75.3351 40.956C75.9309 41.3966 76.2761 42.0998 76.8228 42.6001C77.4519 43.176 78.3259 43.463 78.8688 44.1214Z" fill="#C6AE8B"/>
<path d="M71.971 42.2834C73.1699 42.228 75.1147 41.3233 76.0186 42.167C77.2431 43.3103 75.5737 40.558 75.1106 40.1855C74.7048 39.8594 74.4192 39.3879 74.1607 38.9441C72.5881 36.2429 71.1188 33.4663 70.0671 30.5231C69.7779 29.7136 69.5208 28.8931 69.2639 28.0728C68.5699 25.8581 67.8762 23.6434 67.1823 21.4289C66.6619 19.7684 65.764 18.3017 65.231 16.6732C64.8033 15.3664 64.4113 13.7699 63.1449 13.0109C62.52 12.6365 61.8044 12.4418 61.0899 12.3001C60.0838 12.1006 59.3352 12.029 58.4979 12.6728C57.7895 13.2177 57.2361 14.0202 57.1993 14.9361C57.1592 15.9382 57.7122 16.8565 58.2418 17.7084C63.1966 25.681 67.7797 33.8845 71.971 42.2834Z" fill="#C6AE8B"/>
<path d="M73.874 43.6195C74.3539 44.2667 74.1504 45.2464 74.5257 45.9681C74.8052 46.5055 75.3584 46.8091 75.901 47.0103C76.5929 47.2671 77.3553 47.4076 78.0518 47.1751C78.7482 46.9425 79.3462 46.2553 79.3232 45.4733C79.305 44.855 78.9261 44.3196 78.5383 43.8584C78.0233 43.2462 77.4606 42.6799 76.8581 42.167C76.1196 43.076 75.0032 43.6193 73.874 43.6195ZM78.062 45.0646C77.8992 44.903 78.1292 44.6323 78.2922 44.7939C78.5011 45.0013 78.6625 45.2417 78.7842 45.5167C78.8243 45.6076 78.7555 45.72 78.6751 45.7479C78.578 45.7815 78.4984 45.7202 78.4583 45.6298C78.3629 45.4143 78.2246 45.2262 78.062 45.0646ZM77.6867 45.2913C77.7565 45.561 77.9012 45.79 78.0651 46.0052C78.2055 46.1896 77.9163 46.3862 77.7779 46.2042C77.5965 45.9657 77.4382 45.7027 77.361 45.4043C77.3018 45.1761 77.6275 45.0626 77.6867 45.2913ZM76.8308 45.6378C77.0081 45.8171 77.1306 46.0392 77.2493 46.2647C77.3576 46.4709 77.0708 46.6705 76.9621 46.4637C76.8585 46.2667 76.7559 46.0652 76.6008 45.9085C76.4394 45.7456 76.6692 45.4745 76.8308 45.6378Z" fill="#484949"/>
<path d="M41.9254 59.1355C43.6142 58.8993 45.2767 59.0992 46.8954 59.5975C47.1637 59.6801 47.4458 59.7797 47.6198 59.9999C47.7857 60.2101 47.8225 60.4914 47.8529 60.7575C48.0849 62.7756 48.3171 64.7939 48.549 66.812C48.7352 68.4311 48.9207 70.0572 48.9056 71.6896C48.8913 73.2439 48.3786 74.6434 48.2999 76.1498C48.1148 79.6912 47.5942 83.2033 47.0751 86.7078C46.5136 86.7461 45.952 86.7846 45.3906 86.823C45.3896 86.823 45.3964 82.4589 45.4 82.1793C45.4134 81.1447 45.6644 80.1734 45.662 79.1182C45.6593 77.9236 45.597 76.7303 45.535 75.5377C45.4737 74.3537 45.4104 73.1582 45.0931 72.0159C44.8962 71.307 44.604 70.6286 44.3129 69.953C42.8592 66.5801 41.4057 63.2071 39.9521 59.8342C40.5446 59.4432 41.2228 59.2338 41.9254 59.1355Z" fill="#C6AE8B"/>
<path d="M47.2729 36.0608C47.4718 36.3287 47.7338 36.7801 47.7454 37.1139C48.011 44.7784 48.5396 53.3581 48.8052 61.0228C45.9039 61.555 42.9371 61.7299 39.9933 61.543C35.7385 51.9718 31.4129 42.1076 31.0137 31.6409C36.3031 33.2833 41.5923 34.9259 46.8817 36.5684C47.2147 36.6718 47.0649 35.7807 47.2729 36.0608Z" fill="#54514C"/>
<path d="M67.1127 21.3738C64.6698 22.6726 63.959 23.5104 62.0804 25.5417C60.7494 26.9807 59.5925 28.5749 58.2393 29.9931C56.3198 32.0047 54.0385 33.629 51.7725 35.2402C51.0304 35.7678 50.2661 36.3061 49.3841 36.5317C48.7635 36.6906 48.1128 36.6863 47.4741 36.6369C41.559 36.1799 36.3077 32.9394 30.4795 34.0483C30.7783 26.6374 38.6303 22.0831 44.236 17.9118C45.1511 17.2309 45.9419 16.5377 46.952 16.0022C48.0068 15.443 49.0839 14.926 50.1796 14.4522C52.3349 13.5206 54.5628 12.7573 56.8368 12.173C59.8278 11.4044 62.7877 11.4897 64.7638 14.1416C66.2505 16.1373 67.1086 18.8902 67.1127 21.3738Z" fill="#3C3D4F"/>
<path d="M67.1968 94.4969C74.8706 99.4588 87.7783 93.7436 89.2664 84.7756C90.0853 79.8404 87.0794 74.6981 83.5127 71.5272C78.8806 67.4097 71.9333 66.645 66.4123 69.2634C63.9334 70.4392 62.2617 72.3517 61.2815 74.6295C58.4683 81.1681 61.3525 90.7178 67.1968 94.4969ZM65.1078 74.151C65.3777 73.8353 65.6739 73.5477 65.9881 73.2817C68.5584 75.954 71.0921 78.6851 73.5727 81.4671C73.5631 81.478 73.5527 81.4876 73.5435 81.4986C73.3948 81.6388 73.2655 81.7948 73.1619 81.9924C72.9879 82.3238 72.9173 82.7011 72.9496 83.071L63.5267 83.57C62.6446 80.3498 62.8493 76.7917 65.1078 74.151ZM76.8401 82.8648C76.8383 82.6737 76.8083 82.4805 76.7465 82.2912C76.722 82.2161 76.6921 82.1438 76.6589 82.0732L84.2243 76.0708C85.4822 77.9476 86.2801 80.1872 86.3943 82.359L76.8401 82.8648ZM73.2891 70.8978C73.8478 74.2084 74.3327 77.5477 74.7442 80.8976C74.352 80.9183 73.9974 81.0752 73.7196 81.3213C71.2423 78.5432 68.7121 75.816 66.1455 73.1473C68.0541 71.6135 70.6669 70.9345 73.2891 70.8978ZM84.1077 75.8992L76.559 81.8884C76.3437 81.5377 76.0206 81.2633 75.641 81.1039C75.4283 80.99 75.1928 80.9204 74.9529 80.9018C74.5417 77.5501 74.0567 74.2088 73.4982 70.8964C75.7902 70.894 78.075 71.3774 79.8889 72.2104C81.5396 72.9684 82.9933 74.2925 84.1077 75.8992ZM81.8205 90.8018C80.0147 88.5963 78.1708 86.4094 76.293 84.2476C76.5956 83.9285 76.787 83.512 76.8303 83.0726L86.4018 82.5658C86.4311 83.4664 86.3436 84.3527 86.1185 85.1935C85.4391 87.7306 83.8517 89.5623 81.8205 90.8018ZM66.7817 89.9097L73.6907 84.428C74.1092 84.752 74.6535 84.9042 75.1922 84.8226C75.4696 87.4627 75.7025 90.1045 75.8851 92.7387L76.0915 92.7241C75.9083 90.0805 75.6746 87.4294 75.3958 84.7799C75.4296 84.7709 75.4637 84.7636 75.4973 84.7526C75.7402 84.6734 75.9571 84.5476 76.1424 84.3891C78.0096 86.5389 79.8433 88.7135 81.639 90.9066C78.6964 92.6302 74.8751 93.1505 71.5307 92.7933C69.6362 92.5911 68.049 91.4271 66.7817 89.9097ZM63.9356 84.8397C63.8056 84.4904 63.6885 84.1343 63.5841 83.774L72.9781 83.2767C72.993 83.3531 73.0111 83.4292 73.0355 83.5037C73.1357 83.8114 73.3103 84.0773 73.5319 84.2902L66.6492 89.7511C66.231 89.2333 65.8489 88.6785 65.5039 88.1082C64.8453 87.0194 64.3213 85.8766 63.9356 84.8397Z" fill="#404040"/>
<path d="M12.1617 97.3779C20.56 100.98 32.3238 93.1766 32.2837 84.0861C32.2616 79.0835 28.4342 74.5193 24.3852 71.9931C19.1273 68.7125 12.1501 69.1261 7.14766 72.6353C4.90153 74.2109 3.575 76.377 2.99175 78.7873C1.31708 85.7056 5.76531 94.6348 12.1617 97.3779ZM6.68314 77.6725C6.89624 77.3159 7.1398 76.9827 7.40479 76.6676C10.3877 78.8699 13.3443 81.1364 16.257 83.462C16.2493 83.4742 16.2407 83.4856 16.2334 83.498C16.1106 83.6611 16.0091 83.8367 15.9401 84.0488C15.8243 84.4048 15.8181 84.7885 15.9122 85.1479L6.70732 87.2232C5.29666 84.197 4.90055 80.655 6.68314 77.6725ZM19.7129 84.2906C19.6791 84.1024 19.6168 83.9171 19.5242 83.7407C19.4874 83.6708 19.4458 83.6045 19.4011 83.5406L25.8502 76.3522C27.4055 77.9909 28.5685 80.0647 29.046 82.1864L19.7129 84.2906ZM14.2012 73.0906C15.3083 76.2602 16.3476 79.4706 17.316 82.7038C16.9329 82.7901 16.6097 83.0043 16.3773 83.2935C13.4685 80.9713 10.5159 78.7079 7.53729 76.5087C9.16104 74.676 11.6226 73.5675 14.2012 73.0906ZM25.7067 76.2026L19.2718 83.3751C19.0005 83.0657 18.636 82.8494 18.235 82.7561C18.0064 82.6796 17.7622 82.6507 17.5228 82.6725C16.5542 79.4376 15.5145 76.2255 14.4074 73.054C16.6663 72.6666 19.0001 72.7589 20.928 73.2752C22.6823 73.7452 24.3381 74.8061 25.7067 76.2026ZM25.9561 91.2776C23.8053 89.407 21.6201 87.5611 19.4056 85.7455C19.6502 85.38 19.7689 84.9373 19.7379 84.4968L29.088 82.3887C29.2683 83.2713 29.331 84.1598 29.2504 85.0266C29.0074 87.6421 27.7503 89.7146 25.9561 91.2776ZM10.9816 92.9258L16.8711 86.361C17.3382 86.61 17.9002 86.6684 18.4176 86.4976C19.1348 89.0535 19.8082 91.6187 20.431 94.1847L20.6319 94.1357C20.007 91.5605 19.3309 88.9865 18.6109 86.4215C18.6427 86.407 18.675 86.394 18.7064 86.3775C18.9327 86.2585 19.1251 86.0979 19.2812 85.9108C21.4831 87.7164 23.6561 89.5519 25.7949 91.4117C23.1839 93.6052 19.5043 94.7605 16.1475 94.9704C14.2458 95.0893 12.4858 94.2087 10.9816 92.9258ZM7.3238 88.406C7.13705 88.0834 6.9617 87.7522 6.79814 87.4144L15.9751 85.3454C16.0028 85.4183 16.0333 85.4903 16.0699 85.5595C16.2205 85.8459 16.4371 86.0789 16.6913 86.2515L10.8241 92.7913C10.325 92.3512 9.85497 91.8686 9.41895 91.3643C8.58683 90.4019 7.87816 89.3635 7.3238 88.406Z" fill="#404040"/>
<path d="M38.0639 57.0359C40.6346 57.1442 43.289 56.7699 45.8534 56.5786C48.5839 56.375 51.3123 56.145 54.0396 55.901C56.7664 55.657 59.491 55.3875 62.2136 55.0991C64.9013 54.8145 67.6758 54.2843 70.3788 54.2869C70.8605 54.2873 71.0423 55.0219 70.5375 55.1522C68.0075 55.8051 65.2695 55.9482 62.678 56.2499C59.9573 56.5666 57.2333 56.8536 54.5077 57.1237C51.7823 57.3938 49.0541 57.6342 46.3244 57.8556C43.6175 58.075 40.8107 58.0665 38.1335 58.5155C37.196 58.6728 37.0961 56.995 38.0639 57.0359Z" fill="#5F709E"/>
<path d="M33.9933 45.0101C36.3381 50.3604 37.4782 56.3109 38.5333 62.0253C39.6296 67.963 40.4238 73.9694 41.7289 79.867C41.8455 80.394 41.054 80.6647 40.9225 80.1304C39.5099 74.3934 38.5368 68.5846 37.4531 62.7796C36.9131 59.8867 36.3125 57.005 35.5891 54.1521C34.8325 51.1682 33.8234 48.2977 32.7998 45.4001C32.5252 44.6228 33.6752 44.2843 33.9933 45.0101Z" fill="#5F709E"/>
<path d="M17.6214 84.5846C19.666 79.7029 22.7003 75.5029 25.6808 71.3205C29.0249 66.6277 32.3451 61.8942 35.8224 57.3251C36.1712 56.8667 36.7367 57.4824 36.4326 57.9489C33.3372 62.6985 30.0713 67.3193 26.8424 71.9543C23.8951 76.1847 20.8815 80.4067 18.8795 85.3284C18.5025 86.2553 17.2345 85.5085 17.6214 84.5846Z" fill="#5F709E"/>
<path d="M15.9446 83.6402C17.978 83.2014 20.086 82.9868 22.144 82.6791C24.4225 82.3383 26.704 82.0186 28.9875 81.7137C33.4151 81.1224 37.863 80.6056 42.3181 80.2724C42.9184 80.2276 42.9406 81.1147 42.3611 81.193C38.0589 81.7747 33.7481 82.2917 29.4481 82.8916C27.2997 83.1914 25.1522 83.4965 23.0073 83.8211C20.7353 84.1651 18.4604 84.6617 16.1801 84.9243C15.4467 85.0088 15.2174 83.7971 15.9446 83.6402Z" fill="#404050"/>
<path d="M41.3982 79.5684C42.4098 78.5892 43.6345 77.7954 44.7523 76.9407C46.0471 75.9503 47.3402 74.9574 48.6322 73.9631C51.1089 72.057 53.5738 70.1364 56.0332 68.208C60.9493 64.3534 65.8243 60.4446 70.7754 56.6347C71.1755 56.3268 71.7343 56.9812 71.3488 57.3101C66.6616 61.3096 61.8534 65.168 57.0411 69.0153C54.5978 70.9687 52.148 72.9145 49.6992 74.861C48.5278 75.7922 47.3548 76.7213 46.1808 77.6491C44.9193 78.6462 43.6819 79.8052 42.3091 80.6413C41.6406 81.0488 40.8012 80.1463 41.3982 79.5684Z" fill="#5F709E"/>
<path d="M69.7816 44.9535C69.7602 44.216 70.7727 44.2156 70.8927 44.9016C71.451 48.0941 71.6847 51.3668 72.0438 54.5868C72.4175 57.9355 72.7897 61.2843 73.1514 64.6342C73.8418 71.0259 74.6438 77.442 76.7455 83.5486C77.126 84.6546 75.395 85.2158 75.0244 84.1109C72.9634 77.9671 72.2037 71.5191 71.5758 65.0987C71.2487 61.7533 70.9455 58.4056 70.6383 55.0582C70.3306 51.7041 69.8793 48.3214 69.7816 44.9535Z" fill="#5F709E"/>
<path d="M70.2637 44.3613C71.7017 44.0124 73.1883 43.807 74.6471 43.5608C76.2764 43.286 78.046 42.7822 79.7012 42.8423C80.2843 42.8636 80.4195 43.6076 79.883 43.8345C78.4696 44.4321 76.7839 44.5858 75.2829 44.885C73.7047 45.1995 72.1199 45.5715 70.5262 45.7928C69.7059 45.9066 69.4629 44.5555 70.2637 44.3613Z" fill="#5F709E"/>
<path d="M76.739 48.9582C78.094 48.9391 80.1786 48.9663 80.737 47.659C81.3115 46.3142 80.1377 44.6116 79.3022 43.5571C78.9584 43.1235 79.7021 42.5856 80.1599 42.955C81.6635 44.1685 82.8996 46.4005 82.2602 48.1676C81.5436 50.1475 78.6549 50.4436 76.5933 50.2051C75.7341 50.1056 75.8811 48.9702 76.739 48.9582Z" fill="#5F709E"/>
<path d="M28.3521 44.3242C30.8194 44.3674 33.2739 44.4555 35.7434 44.3932C36.9746 44.3621 38.2034 44.2917 39.4328 44.2229C40.5401 44.1608 41.7817 43.9271 42.8592 44.2448C43.2756 44.3674 43.4657 44.9731 43.0336 45.221C42.102 45.7553 40.9711 45.7946 39.9235 45.9308C38.7019 46.0897 37.4703 46.176 36.2417 46.2599C33.6628 46.4362 31.0343 46.5514 28.4506 46.43C27.1131 46.367 26.981 44.3 28.3521 44.3242Z" fill="#5F709E"/>
<path d="M42.9787 74.7403C41.8524 74.1638 40.9598 73.1459 40.5352 71.954C44.1574 68.99 47.8706 65.5048 50.2403 61.4344C50.4951 60.9968 50.7326 60.5032 50.6473 60.0041C50.5641 59.5179 50.194 59.1379 49.8344 58.8002C49.2873 58.2865 46.4338 56.3921 46.6012 55.7978C46.7495 55.2714 48.6602 54.4878 49.1643 54.1927C50.2199 53.5749 50.9223 53.2841 52.1354 53.0929C52.2805 53.0701 52.432 53.0477 52.5714 53.0939C52.6874 53.1324 52.7829 53.2148 52.8732 53.2971C54.0497 54.3705 54.9034 55.7689 55.457 57.2624C55.7145 57.9569 55.9115 58.6856 55.9048 59.4263C55.8828 61.8631 53.5559 63.3634 51.95 64.8421C49.8592 66.7676 47.8914 68.8207 45.925 70.8714C44.7976 72.0476 43.6482 73.2548 42.9787 74.7403Z" fill="#DDC59E"/>
<path d="M33.8254 31.5917C32.7757 31.1794 31.5783 31.628 31.0768 32.6382C28.8043 37.2148 29.26 43.1091 32.3914 47.1809C34.0892 49.3887 36.4112 51.018 38.6951 52.6116C41.1644 54.3345 43.6336 56.0573 46.1029 57.7803C47.7822 56.026 49.717 54.5165 51.8271 53.3142C52.0923 53.1632 52.3732 53.0042 52.5238 52.7388C52.8013 52.2493 52.5251 51.6421 52.2429 51.1554C50.8534 48.7598 49.2452 46.4722 48.201 43.9074C47.1565 41.3426 46.7207 38.3865 47.7547 35.8175C43.0091 34.7814 38.3464 33.3668 33.8254 31.5917Z" fill="#66635C"/>
<path d="M45.217 78.136C45.2076 78.5015 44.9251 78.7664 44.1661 78.7344C42.064 78.6457 40.0646 77.2931 39.2003 75.3748C39.0528 75.0477 38.9351 74.7045 38.7401 74.4031C38.3723 73.835 37.7151 73.3558 37.7589 72.6803C37.8047 71.9742 38.5812 71.5865 39.2451 71.3414C39.8242 71.1275 40.2421 70.8435 40.6976 71.4149C41.5388 72.4704 42.3825 73.5293 43.0827 74.6831C43.5341 75.4267 43.9321 76.2178 44.5406 76.8394C44.9139 77.2211 45.2272 77.7381 45.217 78.136Z" fill="#B4A260"/>
<path d="M51.882 87.8642C52.0847 88.1685 52.0064 88.5477 51.3673 88.9586C49.5975 90.0964 47.1839 90.1416 45.3728 89.0708C45.064 88.8882 44.7701 88.6753 44.4371 88.5414C43.8092 88.2886 42.996 88.2753 42.6429 87.6977C42.2737 87.094 42.6853 86.3299 43.0872 85.7472C43.4377 85.2391 43.6158 84.7661 44.317 84.9711C45.6124 85.3497 46.9118 85.7299 48.1487 86.2699C48.9459 86.6181 49.7267 87.0356 50.5822 87.1937C51.1075 87.2906 51.6612 87.533 51.882 87.8642Z" fill="#B4A260"/>
<path d="M39.7003 81.9213C39.823 81.5024 40.0677 81.1265 40.4591 80.8611C41.8407 79.9242 43.9767 79.8169 45.0493 81.3068C46.1949 82.8983 45.7933 85.1481 44.1 86.132C43.3897 86.5447 42.4049 86.9392 41.5706 86.7929C40.6191 86.6262 39.9645 86.0214 39.4257 85.2492C38.6244 84.1014 38.9466 82.8788 39.7003 81.9213Z" fill="#525252"/>
<path d="M35.7596 75.0274C37.067 75.1719 38.3926 75.4162 39.62 75.9024C40.1195 76.1003 39.8903 76.9574 39.356 76.8236C38.1034 76.5094 36.8846 76.2486 35.5889 76.198C34.8386 76.1688 34.9921 74.9425 35.7596 75.0274Z" fill="#525252"/>
<path d="M39.6544 76.001C40.8555 77.9756 41.8349 80.1146 42.8195 82.2031C43.1268 82.8549 42.0792 83.278 41.7838 82.622C40.8494 80.5465 39.7883 78.5215 38.8862 76.4332C38.6888 75.9772 39.3886 75.5645 39.6544 76.001Z" fill="#525252"/>
<path d="M44.1014 85.2826C44.3678 86.0488 44.5174 86.8448 44.6552 87.6427C44.7674 88.2936 44.6931 89.2366 44.9394 89.9199C45.873 89.8033 46.7816 89.7306 47.7044 89.452C48.7464 89.1375 49.2705 90.7491 48.228 91.0556C46.9864 91.4208 45.6477 91.6858 44.3591 91.445C44.0458 91.3864 43.7841 91.0748 43.7818 90.7558C43.7761 89.9981 43.5773 89.2087 43.5119 88.4503C43.4293 87.4943 43.2251 86.5674 43.0438 85.6278C42.9117 84.9427 43.8594 84.5867 44.1014 85.2826Z" fill="#525252"/>
<path d="M77.5798 47.7647C78.1349 48.438 78.2064 49.5147 77.6307 50.1703C77.1807 50.6827 76.4404 50.8601 75.762 50.7913C75.0834 50.7225 74.447 50.4417 73.8239 50.1648C73.3631 48.3684 72.8046 46.5972 72.1514 44.8616C72.404 44.1651 73.4502 44.1588 74.0458 44.5994C74.6417 45.0399 74.9868 45.7431 75.5335 46.2434C76.163 46.8193 77.037 47.1065 77.5798 47.7647Z" fill="#D6D3C6"/>
<path d="M77.7176 7.9202C78.2366 8.99628 77.7917 10.2727 77.2897 11.3568C76.7925 12.4309 76.2246 13.5011 75.364 14.3136C74.7636 14.8803 74.0423 15.3006 73.3205 15.7011C72.4025 16.2102 71.394 16.6195 70.508 17.1778C69.718 17.6757 69.1005 18.0791 68.0901 17.9305C67.8453 17.8945 67.602 17.8275 67.3891 17.7015C66.8841 17.4027 66.6216 16.8243 66.4345 16.2682C66.1314 15.3675 65.6521 14.4986 65.7087 13.5499C65.7647 12.6138 66.5216 11.898 66.7689 11.0445C66.9939 10.2672 66.9428 9.50327 67.3645 8.7598C67.5961 8.3513 67.9159 7.99766 68.2701 7.68942C70.0419 6.14803 72.6101 5.79261 74.9185 6.2243C76.0321 6.43268 77.2252 6.89955 77.7176 7.9202Z" fill="#DDC59E"/>
<path d="M65.8187 12.592C65.5289 12.3219 65.3021 11.9699 65.1684 11.6235C64.8743 10.8619 64.8973 10.0166 64.9887 9.20554C65.0959 8.25586 65.2189 6.15304 65.8877 5.41507C66.5504 4.68399 68.3852 4.75259 69.2642 4.94308C70.3149 5.17092 71.306 5.85246 71.7069 6.85011C70.6711 6.94388 69.7006 7.44615 68.9192 8.13261C68.2071 8.75812 67.4234 9.59634 67.2248 10.55C67.0469 11.4041 67.2779 12.212 66.9339 13.0707C66.5146 13.0784 66.1305 12.8826 65.8187 12.592Z" fill="#7E775E"/>
<path d="M65.8669 2.96216C66.0029 3.81139 65.9687 4.68755 65.7666 5.52361C68.205 6.20908 70.5881 7.09055 72.8856 8.15681C72.9088 8.03021 72.9322 7.90361 72.9554 7.77701C72.1071 7.68088 71.4551 7.01487 70.8427 6.42041C70.0509 5.65178 69.204 4.94015 68.3104 4.29262C67.5561 3.74593 66.7562 3.23934 65.8669 2.96216Z" fill="#525252"/>
<path d="M63.904 2.26842C63.5691 2.01975 63.285 1.68261 63.4116 1.31186C63.5187 0.997922 63.8759 0.853633 64.1983 0.775983C64.9949 0.58412 65.8219 0.565249 66.6332 0.450446C67.2571 0.362181 67.8718 0.217104 68.495 0.122942C72.4681 -0.478595 76.7056 1.16207 79.2377 4.2822C79.4575 4.55289 79.6659 4.83518 79.8251 5.14538C80.2733 6.01859 80.2867 7.03393 80.119 7.98145C79.9495 8.93841 79.6449 9.35732 78.5922 9.27908C77.714 9.21382 77.0073 9.43006 76.1573 9.38976C75.1624 9.34277 74.1282 9.00524 73.2634 8.54544C71.7382 8.0534 70.4476 6.31661 69.2062 5.36103C68.5113 4.82614 67.7946 4.49372 67.0167 4.12297C66.0352 3.6553 65.1053 2.99538 64.1686 2.44259C64.0812 2.39129 63.9907 2.3329 63.904 2.26842Z" fill="#C9C9A4"/>
<path d="M80.6939 9.35593C80.5203 9.05083 80.3032 8.7251 79.9345 8.59634C78.9858 9.11059 77.79 9.30403 76.6453 9.12868C76.3288 9.08013 76.0121 9.00306 75.7326 8.86035C75.3691 8.67477 75.0897 8.39052 74.8228 8.11C74.7799 8.06498 74.7329 8.01721 74.6687 7.99972C74.5655 7.9716 74.4626 8.03215 74.3993 8.10214C74.1717 8.35396 74.2297 8.7367 74.4349 9.02056C74.6402 9.30423 74.9639 9.51142 75.2794 9.71095C75.9897 10.1601 76.6999 10.6093 77.4102 11.0585C78.4522 11.7175 79.5464 12.3966 80.8041 12.5972C80.9671 12.6231 81.1373 12.6404 81.292 12.6003C81.5682 12.5287 81.7346 12.2848 81.7625 12.0391C81.7904 11.7933 81.7055 11.5443 81.6143 11.3042C81.3614 10.6396 81.0538 9.98793 80.6939 9.35593Z" fill="#525252"/>
<path d="M68.4186 13.7553C68.9211 12.808 69.3785 11.8733 69.9594 10.9663C70.6148 9.94286 71.2008 8.9401 71.4615 7.73919C71.5309 7.41994 71.9844 7.53671 71.9468 7.84888C71.7569 9.43136 70.7493 10.6914 69.9099 11.9901C69.3602 12.8403 69.0825 13.7023 68.8733 14.685C68.7137 15.4347 68.3801 17.6929 69.3638 18.0782C69.7882 18.2443 69.4573 18.8796 69.0341 18.708C68.3624 18.4355 68.1847 17.8195 68.0915 17.1479C67.9592 16.1947 67.9527 14.6339 68.4186 13.7553Z" fill="#525252"/>
<path d="M66.3751 5.35362C66.3775 4.9461 67.0213 4.92134 67.0046 5.32413C66.8927 8.00569 68.2411 10.6729 69.0178 13.1921C69.1005 13.4606 68.7056 13.5856 68.6061 13.3265C67.6419 10.816 66.3598 8.09041 66.3751 5.35362Z" fill="#525252"/>
<path d="M72.2072 45.8564C73.7315 45.7859 73.7024 45.2628 74.8597 44.2685C69.6422 35.0435 65.7719 25.1313 61.9199 15.2581C60.6494 15.2683 59.3431 15.2852 58.1674 15.7666C56.9916 16.248 55.9622 17.3104 55.9112 18.5799C55.8711 19.582 56.4241 20.5003 56.9537 21.3523C61.9085 29.3244 68.0159 37.4573 72.2072 45.8564Z" fill="#DDC59E"/>
<path d="M72.7188 47.34C73.1986 47.9872 72.9951 48.9669 73.3704 49.6886C73.65 50.226 74.2031 50.5296 74.7457 50.7309C75.4377 50.9876 76.2 51.1279 76.8965 50.8956C77.593 50.663 78.191 49.9758 78.168 49.1938C78.1497 48.5755 77.7709 48.0401 77.383 47.5791C76.868 46.9669 76.3054 46.4006 75.7028 45.8877C74.9643 46.7967 73.8479 47.34 72.7188 47.34ZM76.9067 48.7853C76.7439 48.6237 76.9739 48.353 77.1369 48.5146C77.3459 48.722 77.5073 48.9624 77.6289 49.2374C77.6691 49.3283 77.6002 49.4407 77.5198 49.4686C77.4227 49.5022 77.3431 49.4409 77.303 49.3505C77.2079 49.135 77.0695 48.9467 76.9067 48.7853ZM76.5314 49.0118C76.6012 49.2815 76.7459 49.5105 76.9099 49.7257C77.0502 49.9101 76.761 50.1067 76.6226 49.9247C76.4412 49.6862 76.283 49.4232 76.2057 49.1248C76.1465 48.8966 76.4723 48.7833 76.5314 49.0118ZM75.6755 49.3585C75.8528 49.5378 75.9753 49.7599 76.094 49.9854C76.2024 50.1916 75.9155 50.3912 75.8068 50.1844C75.7032 49.9874 75.6006 49.7859 75.4455 49.6292C75.2841 49.4661 75.5139 49.1952 75.6755 49.3585Z" fill="#525252"/>
<path opacity="0.37" d="M75.2637 5.1665C76.9482 5.862 77.327 7.7822 77.2356 9.42621C77.2163 9.77337 76.6838 9.8115 76.6862 9.45196C76.696 7.94438 76.6716 6.21388 75.1086 5.46274C74.9116 5.36839 75.0673 5.08551 75.2637 5.1665Z" fill="#484949"/>
<path opacity="0.37" d="M78.1614 9.18789C79.3482 8.08015 78.8738 6.15602 78.0014 4.99521C77.8886 4.84503 78.1243 4.64392 78.2524 4.78212C79.5131 6.14265 79.7276 8.03966 78.6892 9.55707C78.4089 9.96694 77.8367 9.49101 78.1614 9.18789Z" fill="#484949"/>
<defs>
<linearGradient id="paint0_linear_1872_8775" x1="4.03841e-05" y1="95.2298" x2="91.0001" y2="95.2298" gradientUnits="userSpaceOnUse">
<stop/>
<stop offset="1"/>
</linearGradient>
</defs>
</svg>
