<svg width="73" height="100" viewBox="0 0 73 100" fill="none" xmlns="http://www.w3.org/2000/svg">
<mask id="mask0_1872_10387" style="mask-type:luminance" maskUnits="userSpaceOnUse" x="0" y="0" width="73" height="100">
<path d="M72.4055 0H0V99.8731H72.4055V0Z" fill="white"/>
</mask>
<g mask="url(#mask0_1872_10387)">
<path d="M36.5977 47.7656C36.5977 47.7656 44.4401 49.5503 44.2432 43.1375C44.2432 43.1375 50.5547 49.3896 50.8104 60.9867C56.0717 67.0656 53.7856 74.9398 54.0672 75.5299C54.349 76.1199 56.0717 80.8421 56.0717 80.8421L53.3285 81.5898L52.2609 82.4299C52.2609 82.4299 51.197 84.425 50.5473 84.8501C49.8975 85.2752 48.8755 85.0673 48.8755 85.0673L50.9827 76.6424C50.9827 76.6424 47.7986 70.1257 44.4295 62.5572C39.0359 56.4879 40.1893 50.963 36.5977 47.7656Z" fill="#A74C3A"/>
<path d="M34.6843 24.06C36.3394 24.06 37.6811 22.7183 37.6811 21.0632C37.6811 19.4081 36.3394 18.0664 34.6843 18.0664C33.0292 18.0664 31.6875 19.4081 31.6875 21.0632C31.6875 22.7183 33.0292 24.06 34.6843 24.06Z" fill="#A74C3A"/>
<path d="M37.6877 10.4114C39.1355 10.9905 41.669 11.7868 39.2079 13.4154C36.7467 15.0441 35.0038 15.37 35.0038 15.37L34.6836 11.0629L37.6877 10.4114Z" fill="#2B1A21"/>
<path d="M23.4788 99.205C23.4788 99.205 20.2006 107.088 20.92 108.008C21.6395 108.928 21.8639 111.707 20.9613 114.072C20.0587 116.437 12.048 141.249 12.048 141.249L7.83008 139.673C7.83008 139.673 9.94263 104.99 11.1267 103.346C12.3109 101.701 12.5736 97.4969 12.5736 97.4969C12.5736 97.4969 19.8565 96.9406 23.4788 99.205Z" fill="#E5886E"/>
<mask id="mask1_1872_10387" style="mask-type:luminance" maskUnits="userSpaceOnUse" x="7" y="97" width="17" height="45">
<path d="M23.4779 99.205C23.4779 99.205 20.1996 107.088 20.9191 108.008C21.6385 108.928 21.8629 111.707 20.9603 114.072C20.0577 116.437 12.047 141.249 12.047 141.249L7.8291 139.673C7.8291 139.673 9.94165 104.99 11.1258 103.346C12.3099 101.701 12.5726 97.4969 12.5726 97.4969C12.5726 97.4969 19.8555 96.9406 23.4779 99.205Z" fill="white"/>
</mask>
<g mask="url(#mask1_1872_10387)">
<path d="M16.461 100.047C16.461 100.047 18.1747 107.621 18.1747 110.07C18.1747 112.518 12.2764 152.332 12.2764 152.332L33.0827 147.958V93.6313L8.2627 90.4819L11.1267 103.346" fill="#A74C3A"/>
</g>
<path d="M40.601 101.423C40.601 101.423 42.0116 105.912 41.4987 106.425C40.9858 106.938 38.6775 111.554 38.9339 112.837C39.1904 114.119 45.5359 139.382 46.4669 139.511C47.3978 139.639 51.1167 138.869 51.1167 138.869C51.1167 138.869 48.9319 115.058 49.8344 107.707C50.7367 100.356 46.467 95.3962 46.467 95.3962L40.601 101.423Z" fill="#E5886E"/>
<mask id="mask2_1872_10387" style="mask-type:luminance" maskUnits="userSpaceOnUse" x="38" y="95" width="14" height="45">
<path d="M40.601 101.423C40.601 101.423 42.0116 105.912 41.4987 106.425C40.9858 106.938 38.6775 111.554 38.9339 112.837C39.1904 114.119 45.5359 139.382 46.4669 139.511C47.3978 139.639 51.1167 138.869 51.1167 138.869C51.1167 138.869 48.9319 115.058 49.8344 107.707C50.7367 100.356 46.467 95.3962 46.467 95.3962L40.601 101.423Z" fill="white"/>
</mask>
<g mask="url(#mask2_1872_10387)">
<path d="M58.7278 99.6603C58.7278 99.6603 48.5277 103.035 46.8643 105.322C45.2011 107.609 51.5357 143.801 51.5357 143.801L36.4607 146.179L30.7158 109.688L34.8058 90.7686L50.5417 89.937L58.7278 99.6603Z" fill="#A74C3A"/>
</g>
<path d="M46.4664 72.358C48.8847 87.438 53.6026 96.1232 53.6026 104.395C53.6026 104.395 45.0149 107.994 35.0139 104.321L33.6318 92.2385C33.5748 91.7409 33.2479 91.3155 32.7815 91.1326C32.0934 90.8626 31.3159 91.1947 31.0354 91.8787L26.3314 103.346C26.3314 103.346 24.9026 104.81 15.6545 103.958C9.51855 103.392 7.83008 101.621 7.83008 101.621C7.83008 101.621 12.6439 92.9167 13.7751 75.9039C13.7751 75.9038 24.566 65.8994 46.4664 72.358Z" fill="#EAA03D"/>
<mask id="mask3_1872_10387" style="mask-type:luminance" maskUnits="userSpaceOnUse" x="7" y="70" width="47" height="36">
<path d="M46.4654 72.358C48.8837 87.438 53.6017 96.1232 53.6017 104.395C53.6017 104.395 45.014 107.994 35.013 104.321L33.6308 92.2385C33.5739 91.7409 33.2469 91.3155 32.7806 91.1326C32.0924 90.8626 31.315 91.1947 31.0344 91.8787L26.3304 103.346C26.3304 103.346 24.9017 104.81 15.6536 103.958C9.51757 103.392 7.8291 101.621 7.8291 101.621C7.8291 101.621 12.6429 92.9167 13.7741 75.9039C13.7741 75.9038 24.565 65.8994 46.4654 72.358Z" fill="white"/>
</mask>
<g mask="url(#mask3_1872_10387)">
<path d="M20.8839 109.905C27.4625 169.936 63.7868 82.6196 50.785 82.6196C37.7831 82.6196 18.791 90.8074 20.8839 109.905Z" fill="#C46C23"/>
</g>
<mask id="mask4_1872_10387" style="mask-type:luminance" maskUnits="userSpaceOnUse" x="7" y="70" width="47" height="36">
<path d="M46.4654 72.358C48.8837 87.438 53.6017 96.1232 53.6017 104.395C53.6017 104.395 45.014 107.994 35.013 104.321L33.6308 92.2385C33.5739 91.7409 33.2469 91.3155 32.7806 91.1326C32.0924 90.8626 31.315 91.1947 31.0344 91.8787L26.3304 103.346C26.3304 103.346 24.9017 104.81 15.6536 103.958C9.51757 103.392 7.8291 101.621 7.8291 101.621C7.8291 101.621 12.6429 92.9167 13.7741 75.9039C13.7741 75.9038 24.565 65.8994 46.4654 72.358Z" fill="white"/>
</mask>
<g mask="url(#mask4_1872_10387)">
<path d="M16.922 74.9058C16.922 74.9058 42.915 76.1421 56.0517 85.8074L54.4269 69.4991L8.68555 68.4329L16.922 74.9058Z" fill="#C46C23"/>
</g>
<mask id="mask5_1872_10387" style="mask-type:luminance" maskUnits="userSpaceOnUse" x="7" y="70" width="47" height="36">
<path d="M46.4654 72.358C48.8837 87.438 53.6017 96.1232 53.6017 104.395C53.6017 104.395 45.014 107.994 35.013 104.321L33.6308 92.2385C33.5739 91.7409 33.2469 91.3155 32.7806 91.1326C32.0924 90.8626 31.315 91.1947 31.0344 91.8787L26.3304 103.346C26.3304 103.346 24.9017 104.81 15.6536 103.958C9.51757 103.392 7.8291 101.621 7.8291 101.621C7.8291 101.621 12.6429 92.9167 13.7741 75.9039C13.7741 75.9038 24.565 65.8994 46.4654 72.358Z" fill="white"/>
</mask>
<g mask="url(#mask5_1872_10387)">
<path d="M10.9151 106.089L10.2539 105.856C10.2712 105.807 11.9995 100.889 13.6338 94.3564C15.1395 88.3385 16.8714 79.6813 16.5713 72.613L17.272 72.5833C17.5758 79.7373 15.8303 88.4688 14.3126 94.5336C12.67 101.096 10.9327 106.04 10.9151 106.089Z" fill="white"/>
</g>
<path d="M25.3886 32.5035C25.3886 32.5035 18.4641 31.0329 15.0327 31.0497C11.6013 31.0665 7.43418 33.3221 7.14047 38.2508C6.976 41.01 9.49466 46.4341 11.5985 49.5506C13.7025 52.6669 17.0365 57.6402 16.9221 59.7545C16.8077 61.8687 13.7745 73.3872 13.7745 75.9037C25.6253 73.6062 37.3632 83.0051 46.9669 75.2296C45.6575 64.8941 43.0427 60.996 41.6833 57.1453C41.4061 56.36 49.2358 44.2226 49.2358 44.2226C49.2358 44.2226 47.2261 39.1697 39.3956 36.6712C34.6384 35.1533 25.3886 32.5035 25.3886 32.5035Z" fill="#4E8762"/>
<mask id="mask6_1872_10387" style="mask-type:luminance" maskUnits="userSpaceOnUse" x="15" y="25" width="57" height="48">
<path d="M24.5526 36.698C24.5526 36.698 19.0929 41.2035 16.9711 43.9C14.8493 46.5966 14.0221 51.262 17.6976 54.5586C19.7551 56.4041 25.5682 57.8074 29.3168 58.0996C33.0654 58.3915 39.0329 58.8761 40.6168 60.2811C42.2006 61.6861 49.33 71.2274 51.2999 72.7931C56.875 62.0868 71.5358 58.7464 71.4246 46.3907C62.5192 40.985 57.8408 40.6064 53.9807 39.2746C53.1935 39.003 48.564 25.3221 48.564 25.3221C48.564 25.3221 43.3581 23.7513 36.5302 28.3265C32.382 31.106 24.5526 36.698 24.5526 36.698Z" fill="white"/>
</mask>
<g mask="url(#mask6_1872_10387)">
<path d="M33.8043 39.0416C34.9634 37.5833 33.8903 34.8012 31.4074 32.8276C28.9244 30.8541 25.9719 30.4364 24.8127 31.8948C23.6536 33.3532 24.7267 36.1353 27.2096 38.1088C29.6926 40.0824 32.6451 40.5 33.8043 39.0416Z" fill="#E5886E"/>
</g>
<mask id="mask7_1872_10387" style="mask-type:luminance" maskUnits="userSpaceOnUse" x="7" y="31" width="43" height="48">
<path d="M25.3886 32.5035C25.3886 32.5035 18.4641 31.0329 15.0327 31.0497C11.6013 31.0665 7.43418 33.3221 7.14047 38.2508C6.976 41.01 9.49466 46.4341 11.5985 49.5506C13.7025 52.6669 17.0365 57.6402 16.9221 59.7545C16.8077 61.8687 13.7745 73.3872 13.7745 75.9037C25.6253 73.6062 37.3632 83.0051 46.9669 75.2296C45.6575 64.8941 43.0427 60.996 41.6833 57.1453C41.4061 56.36 49.2358 44.2226 49.2358 44.2226C49.2358 44.2226 47.2261 39.1697 39.3956 36.6712C34.6384 35.1533 25.3886 32.5035 25.3886 32.5035Z" fill="white"/>
</mask>
<g mask="url(#mask7_1872_10387)">
<path opacity="0.2" d="M27.6602 18.6306C27.6602 32.4511 36.0799 43.6549 46.4662 43.6549C56.8526 43.6549 65.2723 32.4511 65.2723 18.6306C65.2723 4.81005 56.1756 22.9515 45.7894 22.9515C35.4031 22.9515 27.6602 4.81005 27.6602 18.6306Z" fill="#002A37"/>
</g>
<path d="M30.219 26.9823C30.219 26.9823 31.043 34.9072 31.0448 35.697C31.0507 38.0857 26.6336 36.9837 25.0636 35.4135C23.4936 33.8435 21.9004 21.6101 21.9004 21.6101C21.9004 21.6101 26.7622 31.1167 30.219 26.9823Z" fill="#E5886E"/>
<mask id="mask8_1872_10387" style="mask-type:luminance" maskUnits="userSpaceOnUse" x="21" y="21" width="11" height="17">
<path d="M30.217 26.9823C30.217 26.9823 31.041 34.9072 31.0428 35.697C31.0487 38.0857 26.6317 36.9837 25.0616 35.4135C23.4916 33.8435 21.8984 21.6101 21.8984 21.6101C21.8984 21.6101 26.7602 31.1167 30.217 26.9823Z" fill="white"/>
</mask>
<g mask="url(#mask8_1872_10387)">
<path d="M23.2637 25.1113C23.2637 25.1113 24.9324 35.3448 35.8368 34.5509L33.7106 28.5692L23.2637 25.1113Z" fill="#A74C3A"/>
</g>
<path d="M29.5331 6.29497C34.7544 6.8003 37.6521 11.9305 37.079 15.5602C36.5059 19.1899 34.6911 24.7299 34.5 25.2074C34.3561 25.5672 31.6103 28.7999 30.2644 30.3729C29.8159 30.8971 29.1129 31.127 28.4412 30.9701L28.3521 30.9494C27.8592 30.8343 27.3977 30.6032 27.0161 30.2708C24.2295 27.8441 23.3842 25.0829 22.4194 22.6236C22.4194 22.6236 17.8777 22.0456 17.0519 18.1921C16.078 13.6469 20.9365 15.5602 20.9365 15.5602C20.9365 15.5602 20.65 5.4353 29.5331 6.29497Z" fill="#E5886E"/>
<path d="M17.683 38.1144C17.683 38.1144 10.5473 34.558 8.83398 43.6007C8.83398 43.6007 10.9063 57.4504 23.1335 60.899C28.173 62.3204 44.0919 47.6492 44.0919 47.6492C44.0919 47.6492 44.7351 44.7268 41.9035 45.0958C29.2525 46.7441 24.2052 52.4264 24.2052 52.4264C23.58 46.4444 23.0042 43.8902 17.683 38.1144Z" fill="#E5886E"/>
<path d="M23.9355 17.1411C23.9355 17.1411 25.245 15.685 26.6926 16.3462C28.1403 17.0076 28.1073 17.7032 28.9647 17.357C29.8222 17.0108 28.6083 15.2258 27.2874 15.2056C25.9666 15.1857 24.6859 15.5418 23.9355 17.1411Z" fill="#2B1A21"/>
<path d="M35.6372 18.5841C35.6372 18.5841 35.0805 17.0752 33.8647 17.5714C32.6489 18.0676 32.4884 18.7336 31.9635 18.3243C31.4385 17.9149 32.7833 16.3262 33.7385 16.4294C34.6936 16.5326 35.5204 16.9905 35.6372 18.5841Z" fill="#2B1A21"/>
<path d="M31.8506 21.1715C31.8506 21.8247 32.1265 22.3542 32.4666 22.3542C32.8069 22.3542 33.0827 21.8247 33.0827 21.1715C33.0827 20.5182 32.8068 19.9888 32.4666 19.9888C32.1263 19.9886 31.8506 20.5182 31.8506 21.1715Z" fill="#2B1A21"/>
<path d="M30.6595 26.3951C30.6517 26.3966 30.6435 26.3973 30.6354 26.397C27.9597 26.3424 26.9569 24.2569 26.9472 24.2359C26.9183 24.174 26.9451 24.1006 27.0068 24.0718C27.0697 24.0426 27.1422 24.0697 27.1712 24.1313C27.1804 24.1508 28.123 26.0985 30.6404 26.1499C30.7088 26.1513 30.7628 26.2077 30.7614 26.2759C30.7601 26.3359 30.7164 26.385 30.6595 26.3951Z" fill="#A74C3A"/>
<path d="M35.0052 19.8975C35.0052 19.8975 32.8944 19.2324 31.5283 20.0355C31.6303 20.2554 31.8264 20.366 32.054 20.3325L35.0052 19.8975Z" fill="#2B1A21"/>
<path d="M24.6641 17.8796C24.6641 17.8796 27.8572 18.1127 29.209 19.3947C28.9459 19.5555 28.621 19.5788 28.3377 19.4571L24.6641 17.8796Z" fill="#2B1A21"/>
<path d="M26.6816 20.1282C26.6816 20.9467 26.9644 21.61 27.3133 21.61C27.6621 21.61 27.9449 20.9465 27.9449 20.1282C27.9449 19.31 27.6621 18.6465 27.3133 18.6465C26.9644 18.6465 26.6816 19.3098 26.6816 20.1282Z" fill="#2B1A21"/>
<path d="M21.9564 18.7071C21.9564 18.7071 20.2911 15.8328 21.0925 11.6171C19.4905 7.58441 24.1271 3.75309 26.3534 6.24313C26.3534 6.24313 44.1327 4.1216 37.15 11.8422C34.8137 14.4254 24.3484 10.9823 24.3484 10.9823L21.9564 18.7071Z" fill="#2B1A21"/>
<path d="M29.1338 24.0601C29.1338 24.0601 29.6487 24.5477 30.2837 24.5477C30.9188 24.5477 31.4335 24.0601 31.4335 24.0601C31.4335 24.0601 30.9361 24.095 30.3009 24.095C29.6659 24.095 29.1338 24.0601 29.1338 24.0601Z" fill="#A74C3A"/>
<path d="M26.5033 21.8471C26.5033 22.1271 26.021 22.3541 25.426 22.3541C24.831 22.3541 24.3486 22.1272 24.3486 21.8471C24.3486 21.5671 24.831 21.3401 25.426 21.3401C26.021 21.3401 26.5033 21.5671 26.5033 21.8471Z" fill="#A74C3A"/>
<path d="M34.7618 23.3535C34.6728 23.619 34.1435 23.681 33.5793 23.4921C33.0152 23.3032 32.6299 22.9349 32.7188 22.6694C32.8078 22.4038 33.3371 22.3418 33.9013 22.5307C34.4655 22.7196 34.8507 23.088 34.7618 23.3535Z" fill="#A74C3A"/>
<path d="M25.6562 6.30694C27.6572 5.05125 30.1779 4.38482 32.4668 5.15145C31.3367 4.89928 30.16 4.96397 29.0615 5.3089C27.9946 5.63686 26.9448 6.18218 26.0798 6.86588L25.6562 6.30694Z" fill="#2B1A21"/>
<path d="M38.0907 10.0298C40.7357 11.1037 42.9016 13.3718 39.3223 15.0781C40.0258 14.5075 41.1487 13.5266 40.4228 12.6115C39.7869 11.901 38.6215 11.5687 37.6992 11.3768L38.0907 10.0298Z" fill="#2B1A21"/>
<path d="M54.772 47.0988C57.6092 47.0988 59.9093 43.9444 59.9093 40.0533C59.9093 36.1622 57.6092 33.0078 54.772 33.0078C51.9348 33.0078 49.6348 36.1622 49.6348 40.0533C49.6348 43.9444 51.9348 47.0988 54.772 47.0988Z" fill="white"/>
<path d="M52.0767 47.0988C54.9139 47.0988 57.2139 43.9444 57.2139 40.0533C57.2139 36.1622 54.9139 33.0078 52.0767 33.0078C49.2395 33.0078 46.9395 36.1622 46.9395 40.0533C46.9395 43.9444 49.2395 47.0988 52.0767 47.0988Z" fill="#2B1A21"/>
<path d="M50.6021 47.0988C53.4393 47.0988 55.7393 43.9444 55.7393 40.0533C55.7393 36.1622 53.4393 33.0078 50.6021 33.0078C47.7649 33.0078 45.4648 36.1622 45.4648 40.0533C45.4648 43.9444 47.7649 47.0988 50.6021 47.0988Z" fill="#EFE5D8"/>
<path d="M49.8933 46.744C52.5877 46.744 54.7719 43.7484 54.7719 40.0532C54.7719 36.3579 52.5877 33.3623 49.8933 33.3623C47.1989 33.3623 45.0146 36.3579 45.0146 40.0532C45.0146 43.7484 47.1989 46.744 49.8933 46.744Z" fill="#2B1A21"/>
<path d="M43.2173 48.5297C43.2173 48.5297 48.0182 43.6748 48.3032 42.3747C48.964 39.3614 46.1271 37.7446 46.1271 37.7446L39.3145 38.0416V46.4046" fill="#E5886E"/>
<path d="M39.4595 47.0988C42.2967 47.0988 44.5968 43.9444 44.5968 40.0533C44.5968 36.1622 42.2967 33.0078 39.4595 33.0078C36.6223 33.0078 34.3223 36.1622 34.3223 40.0533C34.3223 43.9444 36.6223 47.0988 39.4595 47.0988Z" fill="white"/>
<path d="M36.7652 47.0988C39.6024 47.0988 41.9024 43.9444 41.9024 40.0533C41.9024 36.1622 39.6024 33.0078 36.7652 33.0078C33.928 33.0078 31.6279 36.1622 31.6279 40.0533C31.6279 43.9444 33.928 47.0988 36.7652 47.0988Z" fill="#2B1A21"/>
<path d="M35.2896 47.0988C38.1268 47.0988 40.4268 43.9444 40.4268 40.0533C40.4268 36.1622 38.1268 33.0078 35.2896 33.0078C32.4524 33.0078 30.1523 36.1622 30.1523 40.0533C30.1523 43.9444 32.4524 47.0988 35.2896 47.0988Z" fill="#EFE5D8"/>
<path d="M34.5808 46.7443C37.2751 46.7443 39.4594 43.7487 39.4594 40.0534C39.4594 36.3581 37.2751 33.3625 34.5808 33.3625C31.8864 33.3625 29.7021 36.3581 29.7021 40.0534C29.7021 43.7487 31.8864 46.7443 34.5808 46.7443Z" fill="#2B1A21"/>
<path d="M52.1177 86.9772C54.9549 86.9772 57.255 83.8228 57.255 79.9316C57.255 76.0404 54.9549 72.886 52.1177 72.886C49.2805 72.886 46.9805 76.0404 46.9805 79.9316C46.9805 83.8228 49.2805 86.9772 52.1177 86.9772Z" fill="white"/>
<path d="M54.8121 86.977C57.6493 86.977 59.9493 83.8225 59.9493 79.9314C59.9493 76.0402 57.6493 72.8857 54.8121 72.8857C51.9748 72.8857 49.6748 76.0402 49.6748 79.9314C49.6748 83.8225 51.9748 86.977 54.8121 86.977Z" fill="#2B1A21"/>
<path d="M56.2876 86.9772C59.1248 86.9772 61.4249 83.8228 61.4249 79.9316C61.4249 76.0404 59.1248 72.886 56.2876 72.886C53.4504 72.886 51.1504 76.0404 51.1504 79.9316C51.1504 83.8228 53.4504 86.9772 56.2876 86.9772Z" fill="#EFE5D8"/>
<path d="M56.9958 86.6224C59.6902 86.6224 61.8744 83.6268 61.8744 79.9316C61.8744 76.2363 59.6902 73.2407 56.9958 73.2407C54.3014 73.2407 52.1172 76.2363 52.1172 79.9316C52.1172 83.6268 54.3014 86.6224 56.9958 86.6224Z" fill="#2B1A21"/>
</g>
</svg>
