<svg width="108" height="108" viewBox="0 0 108 108" fill="none" xmlns="http://www.w3.org/2000/svg">
<path d="M93.1887 13.6204C92.4636 12.8153 90.927 11.5293 88.6231 11.7135C85.3023 11.9792 85.3023 16.0968 83.1771 17.0267C81.0519 17.9566 78.7938 16.2296 77.1997 16.3625C75.6059 16.4953 75.2073 17.9563 74.4103 18.4877C73.6133 19.0191 71.488 17.8235 70.4255 17.9563C69.3628 18.0892 69.23 18.7534 68.1675 19.0191C67.1047 19.2847 66.4408 18.6205 65.6437 18.8862C64.8467 19.1519 63.7842 19.9489 63.7842 19.9489H104.563C104.563 19.9489 103.102 15.6985 100.578 15.3C98.0539 14.9015 96.5928 16.761 96.1943 16.6282C95.7958 16.4953 93.6706 14.2373 93.6706 14.2373" stroke="#263238" stroke-width="0.216" stroke-miterlimit="10"/>
<path d="M27.2392 8.19203C27.2392 8.19203 26.44 6.90078 24.9027 7.0239C23.3657 7.14681 23.3657 9.05279 22.3818 9.48328C21.3981 9.91377 20.3529 9.11435 19.6151 9.17591C18.8772 9.23747 18.6927 9.91377 18.3238 10.1596C17.9549 10.4054 16.9712 9.85221 16.4794 9.91355C15.9876 9.97511 15.926 10.2825 15.4342 10.4054C14.9423 10.5283 14.6347 10.2209 14.266 10.3438C13.8971 10.4667 13.4053 10.8357 13.4053 10.8357H32.2809C32.2809 10.8357 31.6046 8.86811 30.4362 8.68365C29.2681 8.49918 28.5918 9.35994 28.4073 9.2986C28.2229 9.23725 27.2392 8.19203 27.2392 8.19203Z" stroke="#263238" stroke-width="0.216" stroke-miterlimit="10"/>
<path d="M50.3908 26.6896C50.3908 26.6896 49.5916 25.3983 48.0543 25.5215C46.5173 25.6444 46.5173 27.5503 45.5334 27.9808C44.5497 28.4113 43.5045 27.6119 42.7666 27.6735C42.0288 27.735 41.8443 28.4113 41.4754 28.6571C41.1065 28.9029 40.1228 28.3498 39.6308 28.4111C39.1389 28.4727 39.0774 28.78 38.5855 28.9029C38.0937 29.0258 37.7863 28.7185 37.4174 28.8414C37.0485 28.9643 36.5566 29.3332 36.5566 29.3332H55.4322C55.4322 29.3332 54.7559 27.3657 53.5878 27.1812C52.4197 26.9967 51.7434 27.8575 51.5589 27.7962C51.3745 27.7348 50.3908 26.6896 50.3908 26.6896Z" stroke="#263238" stroke-width="0.216" stroke-miterlimit="10"/>
<path d="M18.1891 72.123C17.9865 61.5485 17.9865 50.8695 18.1891 40.26" stroke="#CCCCCC" stroke-width="0.216" stroke-miterlimit="10"/>
<path d="M21.0061 72.123C20.899 61.5485 20.899 50.8695 21.0061 40.26" stroke="#CCCCCC" stroke-width="0.216" stroke-miterlimit="10"/>
<path d="M23.8232 72.123C23.8115 61.5485 23.8115 50.8695 23.8232 40.26" stroke="#CCCCCC" stroke-width="0.216" stroke-miterlimit="10"/>
<path d="M26.6396 72.123C26.7235 61.5485 26.7235 50.8695 26.6396 40.26" stroke="#CCCCCC" stroke-width="0.216" stroke-miterlimit="10"/>
<path d="M29.457 72.123C29.6363 61.5485 29.6363 50.8695 29.457 40.26" stroke="#CCCCCC" stroke-width="0.216" stroke-miterlimit="10"/>
<path d="M32.2742 72.123C32.0636 61.5485 32.0636 50.8695 32.2742 40.26" stroke="#CCCCCC" stroke-width="0.216" stroke-miterlimit="10"/>
<path d="M35.0912 72.123C34.9761 61.5485 34.9761 50.8695 35.0912 40.26" stroke="#CCCCCC" stroke-width="0.216" stroke-miterlimit="10"/>
<path d="M37.9083 72.123C37.8886 61.5485 37.8886 50.8695 37.9083 40.26" stroke="#CCCCCC" stroke-width="0.216" stroke-miterlimit="10"/>
<path d="M40.7246 72.123C40.8004 61.5485 40.8004 50.8695 40.7246 40.26" stroke="#CCCCCC" stroke-width="0.216" stroke-miterlimit="10"/>
<path d="M43.542 72.123C43.7133 61.5485 43.7133 50.8695 43.542 40.26" stroke="#CCCCCC" stroke-width="0.216" stroke-miterlimit="10"/>
<path d="M46.3583 72.123C46.1397 61.5485 46.1397 50.8695 46.3583 40.26" stroke="#CCCCCC" stroke-width="0.216" stroke-miterlimit="10"/>
<path d="M49.1763 72.123C49.0532 61.5485 49.0532 50.8695 49.1763 40.26" stroke="#CCCCCC" stroke-width="0.216" stroke-miterlimit="10"/>
<path d="M51.9924 72.123C51.9648 61.5485 51.9648 50.8695 51.9924 40.26" stroke="#CCCCCC" stroke-width="0.216" stroke-miterlimit="10"/>
<path d="M54.8096 72.123C54.8774 61.5485 54.8774 50.8695 54.8096 40.26" stroke="#CCCCCC" stroke-width="0.216" stroke-miterlimit="10"/>
<path d="M57.627 72.123C57.7902 61.5485 57.7902 50.8695 57.627 40.26" stroke="#CCCCCC" stroke-width="0.216" stroke-miterlimit="10"/>
<path d="M60.4444 72.123C60.2178 61.5485 60.2178 50.8695 60.4444 40.26" stroke="#CCCCCC" stroke-width="0.216" stroke-miterlimit="10"/>
<path d="M63.2604 72.123C63.1293 61.5485 63.1293 50.8695 63.2604 40.26" stroke="#CCCCCC" stroke-width="0.216" stroke-miterlimit="10"/>
<path d="M66.0775 72.123C66.0419 61.5485 66.0419 50.8695 66.0775 40.26" stroke="#CCCCCC" stroke-width="0.216" stroke-miterlimit="10"/>
<path d="M68.8945 72.123C68.9544 61.5485 68.9544 50.8695 68.8945 40.26" stroke="#CCCCCC" stroke-width="0.216" stroke-miterlimit="10"/>
<path d="M71.7119 72.123C71.8672 61.5485 71.8672 50.8695 71.7119 40.26" stroke="#CCCCCC" stroke-width="0.216" stroke-miterlimit="10"/>
<path d="M74.5285 72.123C74.2939 61.5485 74.2939 50.8695 74.5285 40.26" stroke="#CCCCCC" stroke-width="0.216" stroke-miterlimit="10"/>
<path d="M77.3455 72.123C77.2064 61.5485 77.2064 50.8695 77.3455 40.26" stroke="#CCCCCC" stroke-width="0.216" stroke-miterlimit="10"/>
<path d="M80.1626 72.123C80.119 61.5485 80.119 50.8695 80.1626 40.26" stroke="#CCCCCC" stroke-width="0.216" stroke-miterlimit="10"/>
<path d="M82.9795 72.123C83.0313 61.5485 83.0313 50.8695 82.9795 40.26" stroke="#CCCCCC" stroke-width="0.216" stroke-miterlimit="10"/>
<path d="M85.7969 72.123C85.9442 61.5485 85.9442 50.8695 85.7969 40.26" stroke="#CCCCCC" stroke-width="0.216" stroke-miterlimit="10"/>
<path d="M88.6136 72.123C88.371 61.5485 88.371 50.8695 88.6136 40.26" stroke="#CCCCCC" stroke-width="0.216" stroke-miterlimit="10"/>
<path d="M91.4306 72.123C91.2835 61.5485 91.2835 50.8695 91.4306 40.26" stroke="#CCCCCC" stroke-width="0.216" stroke-miterlimit="10"/>
<path d="M18.1891 74.1115C17.9865 63.537 17.9865 50.2258 18.1891 39.6163" stroke="#CCCCCC" stroke-width="0.216" stroke-miterlimit="10"/>
<path d="M21.0061 74.1115C20.899 63.537 20.899 50.2258 21.0061 39.6163" stroke="#CCCCCC" stroke-width="0.216" stroke-miterlimit="10"/>
<path d="M23.8232 74.1115C23.8115 63.537 23.8115 50.2258 23.8232 39.6163" stroke="#CCCCCC" stroke-width="0.216" stroke-miterlimit="10"/>
<path d="M26.6396 74.1115C26.7235 63.537 26.7235 50.2258 26.6396 39.6163" stroke="#CCCCCC" stroke-width="0.216" stroke-miterlimit="10"/>
<path d="M29.457 74.1115C29.6363 63.537 29.6363 50.2258 29.457 39.6163" stroke="#CCCCCC" stroke-width="0.216" stroke-miterlimit="10"/>
<path d="M32.2742 74.1115C32.0636 63.537 32.0636 50.2258 32.2742 39.6163" stroke="#CCCCCC" stroke-width="0.216" stroke-miterlimit="10"/>
<path d="M35.0912 74.1115C34.9761 63.537 34.9761 50.2258 35.0912 39.6163" stroke="#CCCCCC" stroke-width="0.216" stroke-miterlimit="10"/>
<path d="M37.9083 74.1115C37.8886 63.537 37.8886 50.2258 37.9083 39.6163" stroke="#CCCCCC" stroke-width="0.216" stroke-miterlimit="10"/>
<path d="M40.7246 74.1115C40.8004 63.537 40.8004 50.2258 40.7246 39.6163" stroke="#CCCCCC" stroke-width="0.216" stroke-miterlimit="10"/>
<path d="M43.542 74.1115C43.7133 63.537 43.7133 50.2258 43.542 39.6163" stroke="#CCCCCC" stroke-width="0.216" stroke-miterlimit="10"/>
<path d="M46.3583 74.1115C46.1397 63.537 46.1397 50.2258 46.3583 39.6163" stroke="#CCCCCC" stroke-width="0.216" stroke-miterlimit="10"/>
<path d="M49.1763 74.1115C49.0532 63.537 49.0532 50.2258 49.1763 39.6163" stroke="#CCCCCC" stroke-width="0.216" stroke-miterlimit="10"/>
<path d="M51.9924 74.1115C51.9648 63.537 51.9648 50.2258 51.9924 39.6163" stroke="#CCCCCC" stroke-width="0.216" stroke-miterlimit="10"/>
<path d="M54.8096 74.1115C54.8774 63.537 54.8774 50.2258 54.8096 39.6163" stroke="#CCCCCC" stroke-width="0.216" stroke-miterlimit="10"/>
<path d="M57.627 74.1115C57.7902 63.537 57.7902 50.2258 57.627 39.6163" stroke="#CCCCCC" stroke-width="0.216" stroke-miterlimit="10"/>
<path d="M60.4444 74.1115C60.2178 63.537 60.2178 50.2258 60.4444 39.6163" stroke="#CCCCCC" stroke-width="0.216" stroke-miterlimit="10"/>
<path d="M63.2604 74.1115C63.1293 63.537 63.1293 50.2258 63.2604 39.6163" stroke="#CCCCCC" stroke-width="0.216" stroke-miterlimit="10"/>
<path d="M66.0775 74.1115C66.0419 63.537 66.0419 50.2258 66.0775 39.6163" stroke="#CCCCCC" stroke-width="0.216" stroke-miterlimit="10"/>
<path d="M68.8945 74.1115C68.9544 63.537 68.9544 50.2258 68.8945 39.6163" stroke="#CCCCCC" stroke-width="0.216" stroke-miterlimit="10"/>
<path d="M71.7119 74.1115C71.8672 63.537 71.8672 50.2258 71.7119 39.6163" stroke="#CCCCCC" stroke-width="0.216" stroke-miterlimit="10"/>
<path d="M74.5285 74.1115C74.2939 63.537 74.2939 50.2258 74.5285 39.6163" stroke="#CCCCCC" stroke-width="0.216" stroke-miterlimit="10"/>
<path d="M77.3455 74.1115C77.2064 63.537 77.2064 50.2258 77.3455 39.6163" stroke="#CCCCCC" stroke-width="0.216" stroke-miterlimit="10"/>
<path d="M80.1626 74.1115C80.119 63.537 80.119 50.2258 80.1626 39.6163" stroke="#CCCCCC" stroke-width="0.216" stroke-miterlimit="10"/>
<path d="M82.9795 74.1115C83.0313 63.537 83.0313 50.2258 82.9795 39.6163" stroke="#CCCCCC" stroke-width="0.216" stroke-miterlimit="10"/>
<path d="M85.7969 74.1115C85.9442 63.537 85.9442 50.2258 85.7969 39.6163" stroke="#CCCCCC" stroke-width="0.216" stroke-miterlimit="10"/>
<path d="M88.6136 74.1115C88.371 63.537 88.371 50.2258 88.6136 39.6163" stroke="#CCCCCC" stroke-width="0.216" stroke-miterlimit="10"/>
<path d="M91.4306 74.1115C91.2835 63.537 91.2835 50.2258 91.4306 39.6163" stroke="#CCCCCC" stroke-width="0.216" stroke-miterlimit="10"/>
<path d="M15.8652 42.6104H94.5266" stroke="#CCCCCC" stroke-width="0.216" stroke-miterlimit="10"/>
<path d="M15.8652 45.1174H94.5266" stroke="#CCCCCC" stroke-width="0.216" stroke-miterlimit="10"/>
<path d="M15.8652 47.6245H94.5266" stroke="#CCCCCC" stroke-width="0.216" stroke-miterlimit="10"/>
<path d="M15.8652 50.1318H94.5266" stroke="#CCCCCC" stroke-width="0.216" stroke-miterlimit="10"/>
<path d="M15.8652 52.639H94.5266" stroke="#CCCCCC" stroke-width="0.216" stroke-miterlimit="10"/>
<path d="M15.8652 55.1461H94.5266" stroke="#CCCCCC" stroke-width="0.216" stroke-miterlimit="10"/>
<path d="M15.8652 57.6532H94.5266" stroke="#CCCCCC" stroke-width="0.216" stroke-miterlimit="10"/>
<path d="M15.8652 60.1603H94.5266" stroke="#CCCCCC" stroke-width="0.216" stroke-miterlimit="10"/>
<path d="M15.8652 62.6675H94.5266" stroke="#CCCCCC" stroke-width="0.216" stroke-miterlimit="10"/>
<path d="M15.8652 65.1746H94.5266" stroke="#CCCCCC" stroke-width="0.216" stroke-miterlimit="10"/>
<path d="M15.8652 67.6816H94.5266" stroke="#CCCCCC" stroke-width="0.216" stroke-miterlimit="10"/>
<path d="M15.8652 70.1887H94.5266" stroke="#CCCCCC" stroke-width="0.216" stroke-miterlimit="10"/>
<path d="M15.8652 72.8209H94.5266" stroke="#CCCCCC" stroke-width="0.216" stroke-miterlimit="10"/>
<path d="M94.0559 39.7095H16.6484C15.7401 39.7095 15.001 40.4486 15.001 41.3569V74.263H15.7885V42.1814L19.2583 44.4809C19.8476 44.8717 20.199 45.527 20.199 46.2333V74.2572H20.9866V46.2333C20.9866 45.262 20.5031 44.3617 19.6934 43.8245L15.8 41.2439C15.8559 40.8236 16.213 40.497 16.6484 40.497H94.0559C94.4626 40.497 94.8024 40.7815 94.8912 41.1614L90.8731 43.8249C90.0634 44.3617 89.5799 45.2624 89.5799 46.2333V74.2572H90.3675V46.2333C90.3675 45.527 90.7193 44.8721 91.3086 44.4813L94.9156 42.0904V74.263H95.7031V41.3569C95.7033 40.4486 94.9642 39.7095 94.0559 39.7095Z" fill="white" stroke="#263238" stroke-width="0.216" stroke-miterlimit="10"/>
<path d="M101.729 74.2631H104.412" stroke="#263238" stroke-width="0.216" stroke-miterlimit="10"/>
<path d="M3.96973 74.2631H100.199" stroke="#263238" stroke-width="0.216" stroke-miterlimit="10"/>
<path d="M51.4951 64.9427C51.4951 64.9427 50.6172 66.4919 50.5656 67.0084C50.514 67.5248 50.1008 73.9279 50.1008 73.9279C50.1008 73.9279 48.5 75.1157 48.5 75.3738C48.5 75.6319 49.0165 75.6319 49.2746 75.5287C49.5327 75.4254 51.1853 74.7025 51.2369 74.4444C51.2886 74.1862 51.2369 73.4633 51.2369 73.4633C51.2369 73.4633 52.8377 67.6797 52.8893 67.2667C52.941 66.8535 54.0255 65.3562 54.0255 65.3562L51.4951 64.9427Z" fill="#D4D4D4" stroke="#263238" stroke-width="0.216" stroke-miterlimit="10"/>
<path d="M49.2744 75.5285C49.5325 75.4252 51.1851 74.7023 51.2367 74.4441C51.2747 74.2543 51.2568 73.8136 51.2447 73.5935C50.8406 73.6264 50.4531 73.6108 50.1235 73.5769C50.1092 73.7972 50.1008 73.9279 50.1008 73.9279C50.1008 73.9279 48.5 75.1157 48.5 75.3738C48.4998 75.6317 49.0162 75.6317 49.2744 75.5285Z" fill="#263238" stroke="#263238" stroke-width="0.216" stroke-miterlimit="10" stroke-linecap="round" stroke-linejoin="round"/>
<path d="M51.2372 73.4632C51.2372 73.4632 52.7339 68.0558 52.8794 67.3253C51.9135 67.8009 51.0488 67.5986 50.5367 67.3795C50.4319 68.8103 50.1228 73.5934 50.1025 73.9105C50.8942 74.4479 51.0825 73.7729 51.0825 73.7729L51.2506 73.6945C51.2441 73.5597 51.2372 73.4632 51.2372 73.4632Z" fill="white" stroke="#263238" stroke-width="0.216" stroke-miterlimit="10" stroke-linecap="round" stroke-linejoin="round"/>
<path d="M62.4951 64.9427C62.4951 64.9427 63.3729 66.4919 63.4245 67.0084C63.4761 67.5248 63.8893 73.9279 63.8893 73.9279C63.8893 73.9279 65.4901 75.1157 65.4901 75.3738C65.4901 75.6319 64.9737 75.6319 64.7155 75.5287C64.4574 75.4254 62.8048 74.7025 62.7532 74.4444C62.7016 74.1862 62.7532 73.4633 62.7532 73.4633C62.7532 73.4633 61.1524 67.6797 61.1008 67.2667C61.0492 66.8535 59.9648 65.3562 59.9648 65.3562L62.4951 64.9427Z" fill="#D4D4D4" stroke="#263238" stroke-width="0.216" stroke-miterlimit="10"/>
<path d="M64.7158 75.5285C64.4577 75.4252 62.8051 74.7023 62.7534 74.4441C62.7154 74.2543 62.7333 73.8136 62.7454 73.5935C63.1496 73.6264 63.5371 73.6108 63.8667 73.5769C63.881 73.7972 63.8894 73.9279 63.8894 73.9279C63.8894 73.9279 65.4902 75.1157 65.4902 75.3738C65.4904 75.6317 64.9739 75.6317 64.7158 75.5285Z" fill="#263238" stroke="#263238" stroke-width="0.216" stroke-miterlimit="10" stroke-linecap="round" stroke-linejoin="round"/>
<path d="M62.7536 73.463C62.7536 73.463 61.2569 68.0557 61.1113 67.3252C62.0773 67.8008 62.9419 67.5984 63.4541 67.3794C63.5588 68.8102 63.8679 73.5933 63.8884 73.9104C63.0966 74.4478 62.9084 73.7728 62.9084 73.7728L62.7404 73.6944C62.7467 73.5596 62.7536 73.463 62.7536 73.463Z" fill="white" stroke="#263238" stroke-width="0.216" stroke-miterlimit="10" stroke-linecap="round" stroke-linejoin="round"/>
<path d="M65.5238 62.1369C65.5238 62.1369 65.1795 57.9713 65.1451 57.5238C65.1108 57.0762 62.1501 53.3239 62.1501 53.3239C62.1501 53.3239 61.255 52.4631 60.2566 51.6369C59.2583 50.8107 58.1223 50.7075 58.1223 50.7075L57.6059 50.6761V50.6385L57.2959 50.6573L56.9862 50.6385V50.6761L56.4697 50.7075C56.4697 50.7075 55.3338 50.8107 54.3354 51.6369C53.3371 52.4631 52.442 53.3239 52.442 53.3239C52.442 53.3239 49.4815 57.0762 49.4469 57.5238C49.4126 57.9713 49.0683 62.1369 49.0683 62.1369C49.0683 62.1369 48.9307 62.8942 48.9307 63.0663C48.9307 63.2385 49.4471 63.5828 49.4471 63.5828C49.4471 63.5828 50.4111 63.4452 50.5144 63.2041C50.6176 62.9631 50.6176 62.7222 50.6176 62.7222C50.6176 62.7222 50.7552 62.6879 50.7209 62.4125C50.6865 62.1371 50.1357 61.4141 50.1357 61.4141C50.1357 61.4141 50.5833 59.3142 50.7898 58.5569C50.9963 57.7996 51.1341 57.352 51.1341 57.352L54.2363 54.7326L54.37 59.0044C54.37 59.0044 52.6487 61.5176 52.2357 62.6192C51.8225 63.7208 51.2028 65.1324 51.2028 65.1324L53.9913 66.6472C53.9913 66.6472 56.0569 63.8932 56.1602 63.7554C56.2634 63.6178 57.0896 62.757 57.0896 62.757L57.2961 62.6743L57.5026 62.757C57.5026 62.757 58.3288 63.6176 58.4321 63.7554C58.5353 63.8932 60.6009 66.6472 60.6009 66.6472L63.3895 65.1324C63.3895 65.1324 62.7698 63.721 62.3568 62.6192C61.9438 61.5176 60.2225 59.0044 60.2225 59.0044L60.3063 55.219L63.4586 57.352C63.4586 57.352 63.5962 57.7996 63.8029 58.5569C64.0094 59.3142 64.457 61.4141 64.457 61.4141C64.457 61.4141 63.9062 62.1371 63.8718 62.4125C63.8375 62.6879 63.9751 62.7222 63.9751 62.7222C63.9751 62.7222 63.9751 62.9633 64.0783 63.2041C64.1816 63.4452 65.1456 63.5828 65.1456 63.5828C65.1456 63.5828 65.662 63.2385 65.662 63.0663C65.6614 62.8944 65.5238 62.1369 65.5238 62.1369Z" fill="#D4D4D4" stroke="#263238" stroke-width="0.216" stroke-miterlimit="10"/>
<path d="M65.1451 57.524C65.1108 57.0765 62.1501 53.3241 62.1501 53.3241C62.1501 53.3241 61.255 52.4633 60.2566 51.6371C59.2583 50.8109 58.1223 50.7077 58.1223 50.7077L57.6059 50.6764V50.6388L57.2959 50.6576L56.9862 50.6388V50.6764L56.4697 50.7077C56.4697 50.7077 55.3338 50.8109 54.3354 51.6371C53.3371 52.4633 52.442 53.3241 52.442 53.3241C52.442 53.3241 49.4815 57.0765 49.4469 57.524C49.4203 57.8694 49.2093 60.4286 49.1143 61.5788L50.1353 61.4142C50.1353 61.4142 50.5828 59.3142 50.7893 58.5569C50.9958 57.7996 51.1336 57.3521 51.1336 57.3521L54.2358 54.7326L54.3695 59.0045C54.3695 59.0045 52.6482 61.5176 52.2352 62.6192C51.822 63.7208 51.2023 65.1324 51.2023 65.1324L53.9909 66.6472C53.9909 66.6472 56.0565 63.8932 56.1597 63.7554C56.263 63.6178 57.0892 62.757 57.0892 62.757L57.2957 62.6743L57.5022 62.757C57.5022 62.757 58.3284 63.6176 58.4316 63.7554C58.5349 63.8932 60.6005 66.6472 60.6005 66.6472L63.389 65.1324C63.389 65.1324 62.7693 63.721 62.3564 62.6192C61.9434 61.5176 60.2221 59.0045 60.2221 59.0045L60.3059 55.2191L63.4582 57.3521C63.4582 57.3521 63.5958 57.7996 63.8025 58.5569C63.9917 59.2507 64.3829 61.0701 64.4472 61.3708L65.4881 61.7075C65.3996 60.6327 65.1728 57.883 65.1451 57.524Z" fill="#92E3A9" stroke="#263238" stroke-width="0.216" stroke-miterlimit="10"/>
<path d="M62.3569 62.619C61.9982 61.6622 60.6529 59.6413 60.3054 59.1265C59.7045 59.7259 58.4452 60.7899 57.2935 60.5297C55.7104 60.1722 54.3701 59.0043 54.3701 59.0043C54.3701 59.0043 52.6488 61.5174 52.2358 62.619C51.8226 63.7206 51.2031 65.1322 51.2031 65.1322L53.9917 66.647C53.9917 66.647 56.0573 63.893 56.1605 63.7552C56.2638 63.6176 57.09 62.7568 57.09 62.7568L57.2965 62.6741L57.503 62.7568C57.503 62.7568 58.3292 63.6174 58.4324 63.7552C58.5357 63.893 60.6013 66.647 60.6013 66.647L63.3898 65.1322C63.3898 65.1322 62.7701 63.7206 62.3569 62.619Z" fill="#263238" stroke="#263238" stroke-width="0.216" stroke-miterlimit="10" stroke-linecap="round" stroke-linejoin="round"/>
<path d="M55.6221 50.8899C55.6221 50.8899 55.7208 52.8901 56.2558 53.7318C56.7909 54.5736 57.2943 54.6939 57.9868 53.7318C58.6793 52.7697 58.3225 50.8899 58.3225 50.8899H55.6221Z" fill="#263238" stroke="#263238" stroke-width="0.216" stroke-miterlimit="10" stroke-linecap="round" stroke-linejoin="round"/>
<path d="M62.1504 53.3241C62.1504 53.3241 61.2553 52.4634 60.2569 51.6372C60.0791 51.4901 59.8971 51.3667 59.7178 51.262L60.3064 55.2189L63.4587 57.3519C63.4587 57.3519 63.5963 57.7994 63.803 58.5567C63.9922 59.2505 64.3834 61.0699 64.4477 61.3705L65.4886 61.7073C65.3999 60.6327 65.1731 57.883 65.1454 57.5238C65.1109 57.0765 62.1504 53.3241 62.1504 53.3241Z" fill="#263238" stroke="#263238" stroke-width="0.216" stroke-miterlimit="10" stroke-linecap="round" stroke-linejoin="round"/>
<path d="M54.3354 51.6372C53.3371 52.4634 52.442 53.3241 52.442 53.3241C52.442 53.3241 49.4815 57.0765 49.4469 57.524C49.4203 57.8694 49.2093 60.4286 49.1143 61.5788L50.1353 61.4142C50.1353 61.4142 50.5828 59.3142 50.7893 58.5569C50.9958 57.7997 51.1336 57.3521 51.1336 57.3521L54.2358 54.7327L54.3816 51.6013C54.3665 51.6134 54.3507 51.6244 54.3354 51.6372Z" fill="#263238" stroke="#263238" stroke-width="0.216" stroke-miterlimit="10" stroke-linecap="round" stroke-linejoin="round"/>
<path d="M55.8799 51.4458C55.8799 51.4458 56.1361 52.7483 56.4992 53.3462C56.8623 53.9441 57.2037 54.0294 57.6735 53.3462C58.1433 52.663 58.1433 51.51 58.1433 51.51L55.8799 51.4458Z" fill="#D4D4D4" stroke="#263238" stroke-width="0.216" stroke-miterlimit="10"/>
<path d="M55.2561 49.336C55.2561 49.336 54.8496 49.1733 54.8088 49.7425C54.7682 50.3116 55.1341 50.6778 55.3779 50.5151C55.6222 50.3525 55.2561 49.336 55.2561 49.336Z" fill="#D4D4D4" stroke="#263238" stroke-width="0.216" stroke-miterlimit="10"/>
<path d="M58.7536 49.336C58.7536 49.336 59.1603 49.1733 59.2009 49.7425C59.2416 50.3116 58.8757 50.6778 58.6318 50.5151C58.3877 50.3525 58.7536 49.336 58.7536 49.336Z" fill="#D4D4D4" stroke="#263238" stroke-width="0.216" stroke-miterlimit="10"/>
<path d="M57.6598 46.3821C56.9997 46.1108 56.2329 46.183 55.6731 46.6256C55.473 46.7837 55.3089 46.9779 55.2478 47.2096C55.0445 47.9823 55.0529 49.783 55.3782 50.5151C55.7035 51.2469 55.9882 52.3042 56.8827 52.3854C57.7773 52.4668 58.3059 52.1413 58.4277 51.2469C58.5497 50.3524 58.7936 49.8645 58.8344 49.2951C58.875 48.7259 59.037 47.5915 58.5672 46.9746C58.4247 46.7876 58.0601 46.5467 57.6598 46.3821Z" fill="#D4D4D4" stroke="#263238" stroke-width="0.216" stroke-miterlimit="10"/>
<path d="M56.8047 50.2648L57.2036 50.6557L57.1397 49.3532L57.3922 49.0899L58.0553 48.491" stroke="#263238" stroke-width="0.216" stroke-miterlimit="10" stroke-linecap="round" stroke-linejoin="round"/>
<path d="M55.0342 48.8596C55.0342 48.8596 56.7946 49.0931 57.8186 48.9853C58.8427 48.8775 58.9323 48.8235 58.9323 48.8235C58.9323 48.8235 59.0043 49.1648 58.9682 49.2905C58.9323 49.4162 58.5191 50.1169 58.1418 50.2067C57.7644 50.2966 57.2616 49.7756 56.9382 49.7756C56.6149 49.7756 56.5429 50.153 56.0939 50.2067C55.6448 50.2605 55.1059 49.7935 55.0698 49.632C55.0342 49.4702 55.0342 48.8596 55.0342 48.8596Z" fill="#263238" stroke="#263238" stroke-width="0.216" stroke-miterlimit="10" stroke-linecap="round" stroke-linejoin="round"/>
<path d="M56.335 50.7642L56.9519 51.1167" stroke="#263238" stroke-width="0.216" stroke-miterlimit="10" stroke-linecap="round" stroke-linejoin="round"/>
<path d="M56.6314 48.7317L55.6553 48.5194" stroke="#263238" stroke-width="0.216" stroke-miterlimit="10" stroke-linecap="round" stroke-linejoin="round"/>
<path d="M85.1958 41.2548C85.1958 41.2548 86.8469 43.0616 88.7786 44.6194C90.7102 46.1772 93.0156 48.1087 93.0156 48.1087C93.0156 48.1087 95.9753 48.9498 96.3491 49.2301C96.723 49.5105 97.6266 50.2583 97.7512 50.6322C97.8758 51.0061 98.748 52.5636 98.5923 52.9375C98.4366 53.3114 98.0316 53.0311 98.0316 53.0311C98.0316 53.0311 98.1562 53.4672 97.7201 53.5607C97.284 53.6542 96.6608 52.3457 96.5986 52.2522C96.5362 52.1587 96.3494 52.0029 96.3494 52.0029C96.3494 52.0029 96.9412 53.3425 96.9725 53.7475C97.0036 54.1525 96.879 54.6822 96.5675 54.4953C96.256 54.3085 96.1001 53.7789 96.069 53.6853C96.0379 53.5918 95.9133 53.2803 95.9133 53.1557C95.9133 53.0311 95.8197 52.8753 95.8197 52.7818C95.8197 52.6883 95.9133 53.5607 95.8508 53.9968C95.7884 54.4329 95.4458 54.5264 95.3834 54.215C95.3212 53.9035 95.3523 52.9689 95.3523 52.9689L94.8538 52.2211C94.8538 52.2211 93.483 51.785 92.673 51.2553C91.863 50.7257 91.5202 50.1025 91.5202 50.1025C91.5202 50.1025 86.5978 48.2022 83.7317 46.3329C80.8654 44.4636 80.6475 42.8125 80.6475 42.8125C80.6475 42.8125 81.6443 41.4105 82.4232 41.2859C83.2019 41.1612 85.1958 41.2548 85.1958 41.2548Z" fill="white" stroke="#263238" stroke-width="0.216" stroke-miterlimit="10"/>
<path d="M95.1962 49.2302C95.1962 49.2302 97.159 49.7288 97.3459 49.6976C97.5327 49.6665 97.8444 49.6665 97.7509 50.0404C97.6573 50.4143 97.1588 50.5076 96.9409 50.5076C96.7227 50.5076 95.5701 50.3208 95.4142 50.3208C95.2584 50.3208 94.137 50.6947 93.6073 50.6636C93.0777 50.6325 92.6416 50.3832 92.6416 49.8536" fill="white"/>
<path d="M95.1962 49.2302C95.1962 49.2302 97.159 49.7288 97.3459 49.6976C97.5327 49.6665 97.8444 49.6665 97.7509 50.0404C97.6573 50.4143 97.1588 50.5076 96.9409 50.5076C96.7227 50.5076 95.5701 50.3208 95.4142 50.3208C95.2584 50.3208 94.137 50.6947 93.6073 50.6636C93.0777 50.6325 92.6416 50.3832 92.6416 49.8536" stroke="#263238" stroke-width="0.216" stroke-miterlimit="10"/>
<path d="M98.0312 53.0311C98.0312 53.0311 97.5951 52.3146 97.4704 52.1275C97.3458 51.9407 96.7227 51.224 96.7227 51.224" fill="white"/>
<path d="M98.0312 53.0311C98.0312 53.0311 97.5951 52.3146 97.4704 52.1275C97.3458 51.9407 96.7227 51.224 96.7227 51.224" stroke="#263238" stroke-width="0.216" stroke-miterlimit="10"/>
<path d="M95.8196 52.7819L95.5703 52.1277" stroke="#263238" stroke-width="0.216" stroke-miterlimit="10"/>
<path d="M96.9098 50.9127C96.9098 50.9127 96.3801 51.567 95.7881 51.7849L96.9098 50.9127Z" fill="white"/>
<path d="M96.9098 50.9127C96.9098 50.9127 96.3801 51.567 95.7881 51.7849" stroke="#263238" stroke-width="0.216" stroke-miterlimit="10"/>
<path d="M65.291 71.1221V75.879C65.291 75.879 63.1053 76.9076 62.2912 78.3648C61.4769 79.8219 59.1199 86.5501 59.1199 86.5501C59.1199 86.5501 57.7336 89.8363 57.4057 91.3498C56.8487 93.9211 57.7485 93.7498 58.1343 93.9641C58.5201 94.1783 61.8199 94.1356 62.2912 94.0498C62.7625 93.9641 62.934 93.4498 62.8913 92.4642C62.8485 91.4786 62.0769 89.7642 62.2912 88.9928C62.5055 88.2215 62.9768 87.7072 63.3198 87.2787C63.6626 86.8501 65.1625 85.2217 66.3626 83.0787C67.5625 80.936 69.6624 80.036 70.5625 78.6218C71.4626 77.2076 72.0196 75.3647 72.0196 74.4649C72.0196 73.565 72.3196 71.1221 72.3196 71.1221H65.291Z" fill="white" stroke="#263238" stroke-width="0.216" stroke-miterlimit="10"/>
<path d="M63.053 87.6083C62.6958 87.6289 62.2962 87.6455 61.8503 87.6544C60.644 87.6785 59.564 87.4124 58.8603 87.1807C58.4427 88.2103 57.6444 90.2487 57.4057 91.3499C56.8487 93.9212 57.7485 93.7499 58.1343 93.9641C58.5201 94.1784 61.8199 94.1356 62.2912 94.0499C62.7625 93.9641 62.934 93.4498 62.8913 92.4642C62.8485 91.4786 62.0769 89.7642 62.2912 88.9929C62.4536 88.4086 62.7634 87.9721 63.053 87.6083Z" fill="#92E3A9" stroke="#263238" stroke-width="0.216" stroke-miterlimit="10"/>
<path d="M62.2911 78.3648C61.4768 79.8219 59.1198 86.5501 59.1198 86.5501C59.1198 86.5501 58.8215 87.291 58.4668 88.2297C58.8048 88.6322 59.3241 89.0819 60.0626 89.2929C61.5625 89.7214 62.2911 88.9929 62.2911 88.9929C62.5053 88.2215 62.9767 87.7072 63.3197 87.2787C63.6625 86.8502 65.1624 85.2217 66.3625 83.0788C67.5623 80.9361 69.6623 80.036 70.5624 78.6218C70.673 78.4482 70.7781 78.2678 70.8779 78.0838C70.0783 78.5087 68.6454 78.9653 67.2625 78.4931C65.5054 77.8931 65.2911 75.6218 65.2911 75.6218V75.8789C65.2911 75.8789 63.1052 76.9077 62.2911 78.3648Z" fill="white" stroke="#263238" stroke-width="0.216" stroke-miterlimit="10"/>
<path d="M58.3059 93.407C57.7302 93.2027 57.4207 92.7329 57.254 92.2659C57.0887 93.8794 57.8022 93.7794 58.1344 93.9641C58.5202 94.1783 61.82 94.1356 62.2913 94.0498C62.5777 93.9978 62.752 93.785 62.8361 93.407C61.9591 93.6476 59.5604 93.852 58.3059 93.407Z" fill="white" stroke="#263238" stroke-width="0.216" stroke-miterlimit="10"/>
<path d="M81.5341 84.3128C81.5341 84.3128 81.3177 84.8072 81.1324 84.9001C80.947 84.9927 80.7924 84.9309 80.6688 85.3018C80.5453 85.6727 79.4327 90.1232 79.6489 91.0193C79.8651 91.9155 81.2868 92.3173 82.3377 92.3173C83.3885 92.3173 85.6446 92.0391 86.1081 92.1628C86.5717 92.2864 89.1678 92.9355 90.0333 92.8737C90.8986 92.8119 93.1238 92.132 92.9076 91.2358C92.6912 90.3396 92.6603 89.8141 90.4968 89.0723C88.3334 88.3306 88.2407 88.4852 87.0972 87.867C85.9537 87.2488 85.7993 87.0326 85.7993 87.0326L85.861 86.1364C85.861 86.1364 83.1103 84.2819 81.5341 84.3128Z" fill="white" stroke="#263238" stroke-width="0.216" stroke-miterlimit="10"/>
<path d="M90.0333 92.8738C90.8986 92.812 93.1238 92.132 92.9076 91.2358C92.6912 90.3396 92.6603 89.8141 90.4968 89.0724C88.3334 88.3306 88.2407 88.4853 87.0972 87.8671C85.9537 87.2489 85.7993 87.0327 85.7993 87.0327C85.7993 87.0327 84.9957 87.4653 84.934 87.6818C84.8722 87.8982 84.254 88.4235 83.4814 88.2071C82.7087 87.9906 81.5343 87.0636 81.3488 86.0436C81.2527 85.5151 81.1818 85.1455 81.1354 84.8979C81.1343 84.8984 81.1334 84.8997 81.1324 84.9001C80.947 84.9928 80.7924 84.931 80.6688 85.3019C80.5453 85.6727 79.4327 90.1232 79.6489 91.0194C79.8653 91.9156 81.2868 92.3173 82.3377 92.3173C83.3885 92.3173 85.6446 92.0391 86.1081 92.1629C86.5717 92.2864 89.1678 92.9355 90.0333 92.8738Z" fill="#92E3A9" stroke="#263238" stroke-width="0.216" stroke-miterlimit="10"/>
<path d="M90.5657 92.4188C89.9293 92.5685 88.1702 91.9697 86.9349 91.6328C85.6998 91.2958 85.0635 91.7077 82.3311 91.7824C80.8275 91.8237 80.0389 91.355 79.6328 90.9249C79.6371 90.9597 79.6425 90.9912 79.6492 91.0193C79.8657 91.9155 81.2872 92.3173 82.338 92.3173C83.3888 92.3173 85.645 92.0391 86.1085 92.1628C86.572 92.2864 89.1681 92.9355 90.0336 92.8737C90.8989 92.8119 93.1242 92.1319 92.908 91.2357C92.7427 91.7369 91.202 92.2691 90.5657 92.4188Z" fill="white" stroke="#263238" stroke-width="0.216" stroke-miterlimit="10"/>
<path d="M84.4903 72.922C84.4903 72.922 82.8941 75.0407 82.7394 76.7098C82.585 78.3788 82.3377 82.0255 82.3377 82.1184C82.3377 82.2111 81.4415 84.251 81.6577 84.869C81.8741 85.4871 84.2229 86.5689 84.81 86.5689C85.3973 86.5689 86.0462 86.3836 86.2626 86.0125C86.479 85.6414 88.3643 80.542 88.6423 79.7076C88.9205 78.8732 88.8896 78.3786 88.9514 78.1933C89.0131 78.0079 90.0331 75.2263 90.0331 74.639C90.0331 74.0517 89.8167 73.6808 89.8167 73.6808L84.4903 72.922Z" fill="white" stroke="#263238" stroke-width="0.216" stroke-miterlimit="10"/>
<path d="M88.2821 65.7366C88.2821 65.7366 89.762 68.7221 90.2335 70.265C90.7048 71.8079 90.062 73.5648 89.8907 74.0363C89.7192 74.5077 87.6622 75.2792 86.1623 74.5506C84.6624 73.8221 84.4909 72.9222 84.4909 72.9222L80.334 68.4653L88.005 65.4225L88.2821 65.7366Z" fill="white" stroke="#263238" stroke-width="0.216" stroke-miterlimit="10"/>
<path d="M86.8213 73.3025C87.1695 73.2329 87.5339 73.0506 87.8337 72.665" stroke="#263238" stroke-width="0.216" stroke-miterlimit="10"/>
<path d="M84.834 72.8364C84.834 72.8364 85.434 73.1365 85.9053 73.265" stroke="#263238" stroke-width="0.216" stroke-miterlimit="10"/>
<path d="M80.2804 52.2815C80.2804 52.2815 80.5934 52.952 80.8615 53.0414C81.1297 53.1308 82.1132 53.6225 82.0238 53.9802C81.9343 54.3379 81.8002 55.0083 81.8002 55.0083C81.8002 55.0083 83.32 56.5728 83.7224 57.1988C84.1246 57.8245 88.1925 65.5133 88.2819 65.7368C88.3714 65.9604 79.5205 69.8493 79.0734 69.9834C78.6265 70.1175 78.2241 70.2964 78.2241 70.2964L73.7093 65.3346L73.173 71.7269L63.5886 71.9298C63.5886 71.9298 63.3825 65.8748 63.4272 63.461C63.472 61.0472 63.5089 55.6881 63.9111 54.3469C64.3133 53.006 64.903 51.343 64.903 51.343L80.2804 52.2815Z" fill="#92E3A9" stroke="#263238" stroke-width="0.216" stroke-miterlimit="10"/>
<path d="M73.0732 60.8019C73.929 62.5528 73.8882 62.9206 73.8882 62.9206" stroke="#263238" stroke-width="0.216" stroke-miterlimit="10"/>
<path d="M69.7305 58.2268C69.7305 58.2268 71.3859 58.4916 72.4743 59.8192" stroke="#263238" stroke-width="0.216" stroke-miterlimit="10"/>
<path d="M80.3248 57.6456C80.3248 57.6456 78.3132 60.9087 77.4639 61.6688" stroke="#263238" stroke-width="0.216" stroke-miterlimit="10"/>
<path d="M81.3086 55.947C81.3086 55.947 80.817 57.6904 80.1016 59.076" stroke="#263238" stroke-width="0.216" stroke-miterlimit="10"/>
<path d="M73.709 65.3344L73.9325 63.9038" stroke="#263238" stroke-width="0.216" stroke-miterlimit="10"/>
<path d="M77.5615 67.9489L78.8376 69.4347" stroke="#263238" stroke-width="0.216" stroke-miterlimit="10"/>
<path d="M74.6807 64.5946L76.4869 66.6976" stroke="#263238" stroke-width="0.216" stroke-miterlimit="10"/>
<path d="M75.1489 25.4202C75.1489 25.4202 74.4829 25.2152 74.0732 25.5226C73.6634 25.83 73.4073 26.035 73.4073 26.035C73.4073 26.035 70.7433 26.9571 69.6165 27.5206C68.4894 28.0842 66.9013 32.6435 66.6452 34.1291C66.389 35.6148 65.5181 46.68 65.2619 48.2169C65.0057 49.7537 64.4422 51.3929 64.7495 52.0077C65.0569 52.6224 69.7186 54.4154 71.2555 54.5692C72.7923 54.723 75.5074 55.2863 77.8128 54.313C80.1182 53.3397 80.7329 53.0836 80.7841 52.0077C80.8353 50.932 82.0136 42.9402 82.1673 42.3255C82.3209 41.7107 83.0895 42.4279 84.3701 42.1719C85.6508 41.9157 86.0093 40.9424 86.0093 40.9424C86.0093 40.9424 85.907 40.3277 85.702 39.2006C85.497 38.0735 85.4458 34.4877 85.1896 32.6433C84.9334 30.7991 84.4211 30.1331 83.243 29.0572C82.0647 27.9816 79.97 26.8056 79.5062 26.7532C79.0423 26.7009 75.1489 25.4202 75.1489 25.4202Z" fill="white" stroke="#263238" stroke-width="0.216" stroke-miterlimit="10"/>
<path d="M70.8928 27.5168C70.8928 27.5168 70.5351 27.2933 69.1048 27.9192C67.6744 28.545 66.7804 29.3496 66.5121 29.8861C66.2439 30.4225 64.59 35.3397 64.277 36.0996C63.964 36.8595 63.2041 37.3513 63.2041 37.8876C63.2041 38.4242 63.7406 39.8545 64.1428 40.1675C64.5452 40.4805 69.507 39.8993 69.6858 39.6759C69.8647 39.4524 70.3116 37.7537 70.401 37.3513C70.4904 36.9489 71.5633 36.0104 71.8761 35.0717C72.189 34.1329 72.1443 32.6131 71.9655 31.1379" fill="white"/>
<path d="M70.8928 27.5168C70.8928 27.5168 70.5351 27.2933 69.1048 27.9192C67.6744 28.545 66.7804 29.3496 66.5121 29.8861C66.2439 30.4225 64.59 35.3397 64.277 36.0996C63.964 36.8595 63.2041 37.3513 63.2041 37.8876C63.2041 38.4242 63.7406 39.8545 64.1428 40.1675C64.5452 40.4805 69.507 39.8993 69.6858 39.6759C69.8647 39.4524 70.3116 37.7537 70.401 37.3513C70.4904 36.9489 71.5633 36.0104 71.8761 35.0717C72.189 34.1329 72.1443 32.6131 71.9655 31.1379" stroke="#263238" stroke-width="0.216" stroke-miterlimit="10"/>
<path d="M73.3495 33.3833C73.1729 34.1138 72.8843 35.0538 72.457 35.742" stroke="#263238" stroke-width="0.216" stroke-miterlimit="10"/>
<path d="M73.5747 32.2554C73.5747 32.2554 73.5417 32.4863 73.4697 32.8422" stroke="#263238" stroke-width="0.216" stroke-miterlimit="10"/>
<path d="M74.0145 36.0686C73.3201 36.5131 72.3167 37.0762 71.1611 37.3514" stroke="#263238" stroke-width="0.216" stroke-miterlimit="10"/>
<path d="M74.9159 35.4739C74.8193 35.5274 74.661 35.6378 74.4502 35.7806" stroke="#263238" stroke-width="0.216" stroke-miterlimit="10"/>
<path d="M74.5859 45.5387C75.3633 45.8111 76.045 46.0012 76.4809 46.0234" stroke="#263238" stroke-width="0.216" stroke-miterlimit="10"/>
<path d="M69.0605 43.1625C69.0605 43.1625 71.8206 44.5099 74.0825 45.356" stroke="#263238" stroke-width="0.216" stroke-miterlimit="10"/>
<path d="M69.5566 44.7825C70.1094 45.1257 70.7926 45.4423 71.5639 45.5765" stroke="#263238" stroke-width="0.216" stroke-miterlimit="10"/>
<path d="M68.0771 43.5648C68.0771 43.5648 68.494 44.0467 69.2012 44.5468" stroke="#263238" stroke-width="0.216" stroke-miterlimit="10"/>
<path d="M82.3809 42.0001C82.3809 42.0001 83.9453 35.2503 83.4984 33.3281L82.3809 42.0001Z" fill="white"/>
<path d="M82.3809 42.0001C82.3809 42.0001 83.9453 35.2503 83.4984 33.3281" stroke="#263238" stroke-width="0.216" stroke-miterlimit="10"/>
<path d="M83.9007 32.3C83.9007 32.3 84.169 33.1941 83.7666 34.848" stroke="#263238" stroke-width="0.216" stroke-miterlimit="10"/>
<path d="M83.6937 19.1433C83.6937 19.1433 83.3613 18.2461 83.3282 17.9471C83.295 17.648 83.8931 18.0137 83.6605 16.8505C83.4278 15.6873 83.0624 14.8899 82.863 15.2553C82.6636 15.6208 82.3977 15.7871 82.3977 15.7871C82.3977 15.7871 82.1318 15.1225 81.4339 15.0227C80.736 14.9231 80.736 14.9231 80.736 14.9231C80.736 14.9231 80.736 14.5907 79.008 14.6572C77.28 14.7238 76.0173 15.4214 75.6516 15.8204C75.2861 16.2191 74.7876 17.2162 74.5217 17.9471C74.2558 18.6783 74.3889 19.5423 74.4219 19.6751C74.4552 19.808 74.4219 21.5692 74.4552 22.0678C74.4884 22.5663 74.8539 23.2309 74.8539 23.2309C74.8539 23.2309 75.1198 24.1615 74.9537 24.7596C74.7876 25.3577 74.5217 25.8895 74.5217 25.8895C74.5217 25.8895 75.419 27.7505 76.4158 28.2821C77.4129 28.8139 79.3735 29.9103 79.3735 29.9103C79.3735 29.9103 80.0714 29.3785 80.4036 28.6808C80.7358 27.9829 80.8689 27.0857 80.8689 27.0857C80.8689 27.0857 82.1316 27.0191 82.5303 26.1884C82.9291 25.3577 83.3278 23.7292 83.4941 22.9983C83.6605 22.2671 83.8598 20.3396 83.6937 19.1433Z" fill="white" stroke="#263238" stroke-width="0.216" stroke-miterlimit="10"/>
<path d="M82.8628 15.2553C82.6634 15.6208 82.3975 15.7871 82.3975 15.7871C82.3975 15.7871 82.1316 15.1225 81.4337 15.0227C80.7358 14.9231 80.7358 14.9231 80.7358 14.9231C80.7358 14.9231 80.7358 14.5907 79.0078 14.6572C77.2798 14.7238 76.0171 15.4214 75.6516 15.8204C75.2861 16.2191 74.7876 17.2162 74.5217 17.9471C74.2558 18.6783 74.3889 19.5423 74.4219 19.6751C74.4457 19.77 74.4355 20.6931 74.4398 21.396C74.7965 21.2776 75.1758 21.172 75.319 21.2038C75.6181 21.2703 75.7842 21.9017 76.1164 21.7686C76.4486 21.6358 76.3158 20.7716 76.3491 20.3728C76.3823 19.9741 77.047 18.8774 77.1135 18.4787C77.18 18.08 77.0139 17.8141 77.047 17.3821C77.0802 16.9501 77.5788 16.5181 78.2101 16.4183C78.8415 16.3185 79.9049 16.6842 80.7358 16.7838C81.5665 16.8836 81.6331 16.6509 82.2312 16.9166C82.8293 17.1825 83.3278 17.9467 83.3278 17.9467C83.2945 17.6475 83.8927 18.0132 83.66 16.8501C83.4276 15.6873 83.0621 14.8897 82.8628 15.2553Z" fill="#263238" stroke="#263238" stroke-width="0.216" stroke-miterlimit="10"/>
<path d="M74.0564 19.808C74.0564 19.808 74.0232 22.0678 74.1893 22.0013C74.3554 21.9348 75.02 21.4364 75.4853 21.4364C75.9505 21.4364 78.2434 22.3337 79.5726 22.0678C80.9019 21.8019 81.6331 20.639 81.932 20.7718C82.2312 20.9047 82.4638 21.6691 82.4971 21.9682C82.5303 22.2674 83.0619 23.1977 83.4939 22.9983C83.9259 22.799 84.3912 20.9379 84.1918 20.0739C83.9924 19.2099 83.0952 18.5453 81.8324 18.2129C80.5697 17.8804 78.3099 17.8807 76.8811 18.2129C75.452 18.5453 74.0564 19.808 74.0564 19.808Z" fill="#92E3A9" stroke="#263238" stroke-width="0.216" stroke-miterlimit="10"/>
<path d="M82.4967 21.968C82.4967 21.968 82.4635 22.4 81.7988 22.4665" stroke="#263238" stroke-width="0.216" stroke-miterlimit="10"/>
<path d="M82.2646 24.0284C82.2646 24.0284 81.9654 23.6962 81.3673 23.6629C80.7692 23.6297 80.1709 23.7294 80.1709 23.7294" stroke="#263238" stroke-width="0.216" stroke-miterlimit="10"/>
<path d="M80.9023 24.3274C80.9023 24.3274 81.4341 24.3939 81.6002 24.4272" stroke="#263238" stroke-width="0.216" stroke-miterlimit="10"/>
<path d="M74.8545 23.2306C74.8545 23.2306 75.22 23.6959 75.5856 23.7291C75.9511 23.7624 76.2503 23.1643 76.2503 23.1643" stroke="#263238" stroke-width="0.216" stroke-miterlimit="10"/>
<path d="M80.4033 28.6806C80.7357 27.9827 80.8685 27.0855 80.8685 27.0855C80.8685 27.0855 80.0711 26.9526 79.506 26.7533C78.9412 26.5539 78.3096 26.1552 78.3096 26.1552L79.3729 29.9103C79.3729 29.9103 80.0708 29.3785 80.4033 28.6806Z" fill="#263238" stroke="#263238" stroke-width="0.216" stroke-miterlimit="10"/>
<path d="M84.2116 37.4306C84.2116 37.4306 84.9212 37.401 85.2169 37.2533C85.5126 37.1055 85.8083 37.4602 85.69 37.7263C85.5718 37.9924 85.2169 38.1698 84.6551 38.2289C84.0933 38.2881 83.6498 38.5838 82.6739 38.8203C81.6983 39.0569 82.2305 37.9924 82.6443 37.8151C83.0584 37.6375 84.2116 37.4306 84.2116 37.4306Z" fill="white" stroke="#263238" stroke-width="0.216" stroke-miterlimit="10"/>
<path d="M80.1012 38.1994C80.1012 38.1994 82.2005 36.7211 82.5258 36.5731C82.8511 36.4254 84.2408 36.307 84.7139 36.1591C85.1869 36.0113 85.6306 36.1295 85.453 36.4252C85.2757 36.7209 84.98 36.8686 84.8024 36.8686C84.6251 36.8686 84.152 37.0164 84.152 37.0164C84.152 37.0164 85.2757 37.0756 85.1869 37.3713C85.0981 37.667 84.6547 37.8443 84.5069 37.8443C84.3592 37.8443 83.8566 37.8739 83.6198 37.9627C83.3833 38.0514 84.5659 38.081 84.5069 38.3767C84.4477 38.6724 84.3 38.7612 83.9155 38.8202C83.531 38.8794 82.2005 38.9975 82.2005 38.9975C82.2005 38.9975 83.2057 39.3228 82.91 39.5002C82.6143 39.6775 81.6387 39.6185 81.4611 39.6185C81.2838 39.6185 80.9289 39.9142 80.3375 40.2099C79.7461 40.5056 79.273 41.0675 78.1198 40.7717C76.9666 40.476 75.4587 40.7717 75.2814 40.8013C75.104 40.8309 71.7627 41.4223 69.1016 41.9842C66.4405 42.546 64.962 42.2799 64.4889 42.0729C64.0159 41.866 64.1044 38.9684 64.4001 38.229C64.6958 37.4898 67.2092 36.8688 68.4214 37.1054C69.6336 37.3419 73.3002 38.6429 75.9909 38.6429C78.6816 38.6429 80.1012 38.1994 80.1012 38.1994Z" fill="white" stroke="#263238" stroke-width="0.216" stroke-miterlimit="10"/>
<path d="M84.1523 37.0166C84.1523 37.0166 83.0583 36.9575 82.5557 37.0462L84.1523 37.0166Z" fill="white"/>
<path d="M84.1523 37.0166C84.1523 37.0166 83.0583 36.9575 82.5557 37.0462" stroke="#263238" stroke-width="0.216" stroke-miterlimit="10"/>
<path d="M83.6202 37.9629C83.6202 37.9629 82.467 37.8445 82.2305 37.8445L83.6202 37.9629Z" fill="white"/>
<path d="M83.6202 37.9629C83.6202 37.9629 82.467 37.8445 82.2305 37.8445" stroke="#263238" stroke-width="0.216" stroke-miterlimit="10"/>
<path d="M82.2006 38.9978C82.2006 38.9978 81.491 38.8794 81.3135 38.8794L82.2006 38.9978Z" fill="white"/>
<path d="M82.2006 38.9978C82.2006 38.9978 81.491 38.8794 81.3135 38.8794" stroke="#263238" stroke-width="0.216" stroke-miterlimit="10"/>
<path d="M48.3145 67.2747C48.3145 67.2747 51.6167 74.582 52.1789 75.3548C52.7409 76.1276 54.2164 77.6031 55.2001 78.2356C56.1838 78.868 57.7295 79.7813 57.7295 79.7813C57.7295 79.7813 59.5562 82.6621 60.3994 83.7159C61.2425 84.7698 62.9288 86.2453 63.2802 86.7371C63.6314 87.229 64.4045 88.9855 64.4045 88.9855C64.4045 88.9855 64.3343 92.5689 64.1937 93.6228C64.0531 94.6766 62.7884 96.7144 63.1398 97.2062C63.491 97.6981 65.3882 97.7683 66.442 97.3468C67.4959 96.9252 69.0418 95.3795 69.393 94.3256C69.7442 93.2718 69.8849 92.3583 70.1659 91.7259C70.4469 91.0934 71.8522 88.5641 71.4306 87.5804C71.0089 86.5967 70.2361 85.9643 69.8849 85.8239C69.5336 85.6833 68.6202 85.1212 68.4094 84.8402C68.1986 84.5592 67.4959 83.0133 66.2312 81.3974C64.9665 79.7813 63.1396 76.6899 61.8749 75.5656C60.6103 74.4413 59.6266 73.9495 58.7833 72.6146C57.9403 71.2797 57.097 70.1555 56.9566 69.8745C56.816 69.5934 56.254 67.1343 56.254 67.1343L48.3145 67.2747Z" fill="#A3A3A3" stroke="#263238" stroke-width="0.216" stroke-miterlimit="10"/>
<path d="M52.9681 68.8275L49.2321 69.2472L48.0566 66.6444L52.9681 68.8275Z" fill="#263238" stroke="#263238" stroke-width="0.216" stroke-miterlimit="10"/>
<path d="M60.5469 77.0222C60.9277 76.461 61.1463 75.7212 61.272 75.0557C60.2899 74.2574 59.487 73.7295 58.7828 72.6147C58.3595 71.9445 57.9363 71.3273 57.6017 70.8435C57.2777 71.3554 56.7265 72.0816 55.834 72.875C54.7335 73.8532 52.6821 73.9191 51.376 73.8448C51.7462 74.5987 52.0426 75.1683 52.1784 75.3549C52.7404 76.1277 54.2159 77.6032 55.1996 78.2357C55.7804 78.6091 56.5552 79.0792 57.0941 79.4027C58.2964 79.0645 59.843 78.0594 60.5469 77.0222Z" fill="#263238" stroke="#263238" stroke-width="0.216" stroke-miterlimit="10"/>
<path d="M71.4305 87.5804C71.0089 86.5968 70.236 85.9643 69.8848 85.8239C69.5852 85.704 68.8785 85.2783 68.5456 84.9811C68.5452 85.1126 68.5614 85.2442 68.6063 85.364C68.8035 85.8878 69.2189 86.9192 68.7478 88.0975C68.2765 89.2758 66.3912 88.8987 65.6372 88.7574C64.8831 88.6159 64.4042 88.9859 64.4042 88.9859C64.4042 88.9859 64.334 92.5694 64.1934 93.6232C64.0528 94.6771 62.7881 96.7148 63.1396 97.2067C63.491 97.6985 65.3879 97.7687 66.4418 97.3473C67.4956 96.9257 69.0416 95.38 69.3928 94.3261C69.744 93.2722 69.8846 92.3588 70.1656 91.7263C70.4468 91.0937 71.8519 88.5641 71.4305 87.5804Z" fill="#263238" stroke="#263238" stroke-width="0.216" stroke-miterlimit="10"/>
<path d="M71.4304 87.5804C71.3051 87.2884 71.1478 87.0315 70.9809 86.8052C70.7349 87.6204 70.3316 89.0961 69.973 90.5953C69.4546 92.7633 69.3928 94.3256 67.8523 96.0623C66.3118 97.7989 63.1396 97.2064 63.1396 97.2064C63.4909 97.6983 65.388 97.7685 66.4419 97.3471C67.4957 96.9254 69.0416 95.3797 69.3929 94.3259C69.7441 93.272 69.8847 92.3585 70.1657 91.7261C70.4467 91.0936 71.8518 88.5641 71.4304 87.5804Z" fill="white" stroke="#263238" stroke-width="0.216" stroke-miterlimit="10"/>
<path d="M25.8927 58.677C25.8927 58.677 24.509 61.6308 23.3752 64.7618C22.2417 67.8927 22.2417 69.4043 22.9974 70.16C23.7532 70.9158 25.2648 71.6716 26.6144 71.1318C27.9639 70.592 38.1667 62.9264 38.1667 62.9264C38.1667 62.9264 35.3056 60.3353 32.0666 59.3095C28.8277 58.2839 26.7764 58.4457 26.7764 58.4457L25.8927 58.677Z" fill="#A3A3A3" stroke="#263238" stroke-width="0.216" stroke-miterlimit="10"/>
<path d="M34.5264 61.2025L35.3418 65.0858L37.5942 63.2217L34.5264 61.2025Z" fill="#263238" stroke="#263238" stroke-width="0.216" stroke-miterlimit="10"/>
<path d="M23.8068 63.5742C23.8068 63.5742 23.6999 63.6924 23.5329 63.887C23.0619 64.4369 22.1143 65.5979 21.7555 66.4351C21.2697 67.5687 20.9457 69.9441 20.8917 70.8076C20.8377 71.6712 20.6217 72.697 20.4599 73.4528C20.2979 74.2085 19.0564 79.3908 19.0564 81.874C19.0564 84.3571 19.1104 85.8147 19.4341 86.7324C19.7581 87.6502 19.8119 88.082 19.8119 88.082L18.5704 90.8351C18.5704 90.8351 16.1412 91.7529 14.8994 92.1307C13.6579 92.5085 12.0923 92.5085 11.2287 93.2103C10.3649 93.9121 11.8225 94.9916 12.5243 95.3696C13.2261 95.7474 14.5756 96.1254 15.8712 96.3414C17.1668 96.5574 19.3261 96.5574 19.5419 96.5574C19.7577 96.5574 20.2977 96.5574 20.6755 96.7194C21.0535 96.8814 22.5108 96.9894 23.1586 96.0176C23.8064 95.0458 23.6444 92.2929 23.6444 91.2671C23.6444 90.2414 24.94 81.7122 25.21 81.1724C25.48 80.6326 26.9373 79.013 27.0453 76.0441C27.1533 73.075 27.3691 71.2396 27.3691 71.2396L27.9089 70.4298L29.3125 69.5121C29.3125 69.5121 29.3665 67.8387 27.0451 66.0031C24.7246 64.1682 23.8068 63.5742 23.8068 63.5742Z" fill="#A3A3A3" stroke="#263238" stroke-width="0.216" stroke-miterlimit="10"/>
<path d="M27.0461 66.0035C24.7248 64.1681 23.8072 63.5743 23.8072 63.5743C23.8072 63.5743 23.7001 63.6925 23.5333 63.8871C23.0622 64.437 22.1146 65.5983 21.7558 66.4355C21.2701 67.569 20.9461 69.9444 20.8921 70.808C20.8646 71.2477 20.7949 71.7294 20.7119 72.1962C21.3364 73.0397 22.5371 74.2089 24.401 74.2089C25.603 74.2089 26.5199 73.8415 27.1831 73.4101C27.2774 72.0318 27.3701 71.24 27.3701 71.24L27.9099 70.4302L29.3135 69.5124C29.3135 69.5124 29.3672 67.8388 27.0461 66.0035Z" fill="#263238" stroke="#263238" stroke-width="0.216" stroke-miterlimit="10"/>
<path d="M11.2297 93.2107C10.3659 93.9125 11.8235 94.992 12.5253 95.37C13.2271 95.7478 14.5766 96.1258 15.8722 96.3418C17.1678 96.5578 19.3271 96.5578 19.5429 96.5578C19.7587 96.5578 20.2987 96.5578 20.6765 96.7198C21.0545 96.8818 22.5118 96.9898 23.1596 96.018C23.6205 95.3266 23.6711 93.7358 23.6622 92.5046C22.5326 92.5992 21.0542 92.4551 21.0542 92.4551C21.0542 92.4551 21.2702 91.6453 20.6225 90.7818C19.9747 89.918 18.5711 90.8358 18.5711 90.8358C18.5711 90.8358 16.142 91.7535 14.9004 92.1313C13.6591 92.5089 12.0935 92.5089 11.2297 93.2107Z" fill="#263238" stroke="#263238" stroke-width="0.216" stroke-miterlimit="10"/>
<path d="M12.5253 95.3701C13.2271 95.7479 14.5766 96.1259 15.8722 96.3419C17.1678 96.5579 19.3271 96.5579 19.5429 96.5579C19.7587 96.5579 20.2987 96.5579 20.6765 96.7199C21.0534 96.8814 22.5049 96.9888 23.1548 96.0243C21.8541 96.3963 20.7935 96.0518 19.7343 96.0153C18.3674 95.9682 15.9169 96.0624 13.372 95.0726C10.8271 94.0829 11.2297 93.2109 11.2297 93.2109C10.3659 93.9125 11.8235 94.9923 12.5253 95.3701Z" fill="white" stroke="#263238" stroke-width="0.216" stroke-miterlimit="10"/>
<path d="M34.0453 48.2369C34.0453 48.2369 33.4919 48.7533 33.4919 49.1961C33.4919 49.6389 33.3074 50.0815 33.3074 50.0815C33.3074 50.0815 32.422 50.4874 32.3114 50.6349C32.2009 50.7824 31.8319 51.2252 31.7581 51.3358C31.6842 51.4464 31.3522 51.9998 31.2416 52.1473C31.131 52.2949 30.5037 52.8852 30.4301 52.9958C30.3562 53.1064 30.0981 53.5122 29.8767 53.7336C29.6553 53.955 28.2165 55.3569 27.8478 55.9839C27.4789 56.6112 25.8926 58.677 25.8926 58.677C25.8926 58.677 29.9612 59.3635 31.6885 59.9575C33.4159 60.5513 37.6806 64.2222 37.6806 64.2222L41.7833 61.685L43.0788 65.086C43.0788 65.086 46.6958 67.2453 48.3151 67.8391C49.9347 68.4329 52.4718 69.2967 54.3612 68.8649C56.2505 68.4331 57.1143 67.7313 57.1143 67.7313C57.1143 67.7313 56.4125 60.4977 55.7647 58.1763C55.1169 55.855 53.8214 52.0223 52.9576 50.8347C52.0938 49.6471 49.3947 47.4878 49.3947 47.4878C49.3947 47.4878 44.6982 49.7551 40.9733 49.7011C37.2483 49.6467 34.0453 48.2369 34.0453 48.2369Z" fill="white" stroke="#263238" stroke-width="0.216" stroke-miterlimit="10"/>
<path d="M41.5137 57.5821C41.5137 57.5821 49.8811 57.5281 52.3642 57.0424" stroke="#263238" stroke-width="0.216" stroke-miterlimit="10"/>
<path d="M53.7139 57.9602C53.7139 57.9602 49.6652 58.662 46.9121 58.608" stroke="#263238" stroke-width="0.216" stroke-miterlimit="10"/>
<path d="M34.0225 56.9368C36.0306 57.9807 39.8456 59.9774 40.8658 60.6053" stroke="#263238" stroke-width="0.216" stroke-miterlimit="10"/>
<path d="M32.7686 56.2866C32.7686 56.2866 33.0189 56.4158 33.4328 56.6305" stroke="#263238" stroke-width="0.216" stroke-miterlimit="10"/>
<path d="M45.6016 63.7073C45.8817 63.858 46.1426 63.9961 46.3714 64.1142" stroke="#263238" stroke-width="0.216" stroke-miterlimit="10"/>
<path d="M41.2969 61.3071C41.2969 61.3071 43.3003 62.4519 44.9883 63.3747" stroke="#263238" stroke-width="0.216" stroke-miterlimit="10"/>
<path d="M36.4395 52.6699C36.4395 52.6699 40.2182 54.8833 41.8377 55.1531C43.4573 55.4231 46.8042 54.0735 46.8042 54.0735" stroke="#263238" stroke-width="0.216" stroke-miterlimit="10"/>
<path d="M31.084 35.693C31.084 35.693 29.4329 37.5 27.5012 39.0576C25.5696 40.6154 23.2642 42.5469 23.2642 42.5469C23.2642 42.5469 20.3046 43.388 19.9307 43.6684C19.5568 43.9487 18.6532 44.6965 18.5286 45.0702C18.404 45.4441 17.5318 47.0019 17.6875 47.3756C17.8432 47.7495 18.2482 47.4691 18.2482 47.4691C18.2482 47.4691 18.1236 47.9052 18.5597 47.9987C18.9958 48.0923 19.619 46.7837 19.6812 46.6902C19.7434 46.5967 19.9304 46.4409 19.9304 46.4409C19.9304 46.4409 19.3384 47.7806 19.3073 48.1856C19.2762 48.5906 19.4008 49.1202 19.7123 48.9334C20.0238 48.7465 20.1797 48.2169 20.2108 48.1234C20.2419 48.0298 20.3665 47.7184 20.3665 47.5937C20.3665 47.4691 20.4601 47.3134 20.4601 47.2198C20.4601 47.1263 20.3665 47.9987 20.429 48.4348C20.4912 48.8709 20.834 48.9645 20.8962 48.653C20.9584 48.3415 20.9273 47.4069 20.9273 47.4069L21.4258 46.6591C21.4258 46.6591 22.7965 46.223 23.6065 45.6934C24.4165 45.1637 24.7593 44.5406 24.7593 44.5406C24.7593 44.5406 29.6818 42.6402 32.5479 40.7709C35.4142 38.9017 35.6321 37.2506 35.6321 37.2506C35.6321 37.2506 34.6353 35.8485 33.8564 35.7241C33.0779 35.5995 31.084 35.693 31.084 35.693Z" fill="#A3A3A3" stroke="#263238" stroke-width="0.216" stroke-miterlimit="10"/>
<path d="M21.0835 43.6683C21.0835 43.6683 19.1207 44.1669 18.9338 44.1355C18.747 44.1042 18.4353 44.1044 18.5288 44.4783C18.6224 44.8522 19.1209 44.9455 19.3388 44.9455C19.557 44.9455 20.7096 44.7587 20.8653 44.7587C21.021 44.7587 22.1425 45.1326 22.6724 45.1013C23.202 45.0702 23.6381 44.8209 23.6381 44.2913" fill="#A3A3A3"/>
<path d="M21.0835 43.6683C21.0835 43.6683 19.1207 44.1669 18.9338 44.1355C18.747 44.1042 18.4353 44.1044 18.5288 44.4783C18.6224 44.8522 19.1209 44.9455 19.3388 44.9455C19.557 44.9455 20.7096 44.7587 20.8653 44.7587C21.021 44.7587 22.1425 45.1326 22.6724 45.1013C23.202 45.0702 23.6381 44.8209 23.6381 44.2913" stroke="#263238" stroke-width="0.216" stroke-miterlimit="10"/>
<path d="M18.248 47.4693C18.248 47.4693 18.6842 46.7528 18.8088 46.5658C18.9334 46.3789 19.5566 45.6622 19.5566 45.6622" fill="#263238"/>
<path d="M18.248 47.4693C18.248 47.4693 18.6842 46.7528 18.8088 46.5658C18.9334 46.3789 19.5566 45.6622 19.5566 45.6622" stroke="#263238" stroke-width="0.216" stroke-miterlimit="10"/>
<path d="M20.46 47.2199L20.7092 46.5657" stroke="#263238" stroke-width="0.216" stroke-miterlimit="10"/>
<path d="M19.3701 45.3507C19.3701 45.3507 19.8997 46.005 20.4916 46.2231L19.3701 45.3507Z" fill="#263238"/>
<path d="M19.3701 45.3507C19.3701 45.3507 19.8997 46.005 20.4916 46.2231" stroke="#263238" stroke-width="0.216" stroke-miterlimit="10"/>
<path d="M28.7695 32.7429C28.8862 33.5835 28.8773 36.2542 29.8024 38.3135C30.9462 40.8591 32.7169 43.0724 32.7536 43.2938C32.7906 43.5152 33.8235 46.3558 33.8604 46.5403C33.8974 46.7248 33.7129 47.6101 34.008 48.7169C34.303 49.8237 35.9263 52.406 39.1727 52.9963C42.4192 53.5867 45.0015 53.5867 46.2927 53.0333C47.584 52.4799 48.4694 51.7789 48.7644 50.8936C49.0595 50.0082 50.9059 49.8985 50.9059 48.4597C50.9059 47.0209 49.3548 42.999 49.3178 42.1136C49.2809 41.2282 49.244 40.7487 49.244 40.7487C49.244 40.7487 48.5061 35.5103 47.2518 32.4482C45.9975 29.3862 43.9316 27.8738 41.0541 26.5456C38.1765 25.2176 36.9592 24.7748 36.6272 24.6643C36.2952 24.5537 35.3729 23.705 33.971 23.373C32.5692 23.041 31.6099 23.041 31.0935 23.2255C31.0935 23.2255 29.8761 23.8525 29.3596 25.2546C28.8434 26.6558 28.7695 32.7429 28.7695 32.7429Z" fill="#92E3A9" stroke="#263238" stroke-width="0.216" stroke-miterlimit="10"/>
<path d="M31.2051 32.4475C31.2051 32.4475 32.7914 34.2922 33.2342 34.0708C33.6768 33.8494 35.2633 31.4515 35.6689 29.6438C36.0748 27.8361 35.7424 26.6185 34.9311 25.9548C34.1198 25.291 33.7137 25.2169 33.7137 25.2169L31.2051 32.4475Z" fill="#A3A3A3" stroke="#263238" stroke-width="0.216" stroke-miterlimit="10"/>
<path d="M24.6471 19.8779C24.6471 19.8779 22.8633 21.4771 22.6786 23.6916C22.4942 25.906 23.5398 28.428 24.3395 29.043C25.1391 29.6581 25.0162 30.3346 25.3236 31.2574C25.6311 32.1801 26.7384 32.8567 27.6609 33.4103C28.5837 33.9639 29.6293 34.4559 30.4289 34.0254C31.2286 33.5949 31.7206 32.9182 32.2127 31.9341C32.7047 30.95 33.3199 28.9816 33.3199 28.9816C33.3199 28.9816 35.1036 27.8744 34.6116 26.5827C34.1195 25.291 34.1195 25.291 34.1195 25.291C34.1195 25.291 33.8119 23.6302 32.6432 21.4773C31.4748 19.3243 28.0918 17.2329 24.6471 19.8779Z" fill="#A3A3A3" stroke="#263238" stroke-width="0.216" stroke-miterlimit="10"/>
<path d="M32.6436 21.4774C31.4748 19.3245 28.0918 17.233 24.647 19.8781C24.647 19.8781 22.8633 21.4774 22.6786 23.6918C22.5751 24.9347 22.8592 26.2741 23.2696 27.3191L23.2735 27.3199V25.9918C23.2735 25.9918 24.7492 26.619 25.9666 26.3237C27.1839 26.0287 28.8441 24.9219 29.25 24.7005C29.6558 24.4791 29.914 24.9956 29.914 25.4753C29.914 25.9548 29.877 26.5082 30.3566 26.7665C30.8361 27.0249 31.5739 26.9879 31.5739 26.9879C31.5739 26.9879 31.7215 27.5783 31.869 27.615C32.0165 27.6519 32.4224 27.8733 32.533 27.6519C32.6436 27.4305 32.6068 27.0616 32.6436 26.8771C32.6805 26.6927 33.2708 25.7336 34.2299 25.7704C34.2551 25.7714 34.2787 25.7723 34.3033 25.7732C34.1206 25.2936 34.1195 25.2908 34.1195 25.2908C34.1195 25.2908 33.8123 23.6302 32.6436 21.4774Z" fill="#263238" stroke="#263238" stroke-width="0.216" stroke-miterlimit="10"/>
<path d="M23.6426 28.2051C23.6426 28.2051 24.6386 30.1234 26.7782 29.7175C28.9179 29.3117 32.1644 26.5819 32.7545 25.6226C33.3449 24.6633 33.3818 23.778 33.6399 23.778C33.898 23.778 34.2303 24.1099 34.2672 24.5158C34.3041 24.9217 34.4886 25.6962 34.2302 25.7701C33.9719 25.844 32.6809 28.5369 31.943 29.7545C31.2052 30.9718 30.2459 31.8572 28.9918 32.0047C27.7375 32.1523 26.9996 31.4514 26.7785 31.5989C26.5571 31.7464 26.4095 32.1153 25.967 32.1153C25.5244 32.1153 24.8641 30.9822 24.6021 30.0126C24.3396 29.0432 23.6426 28.2051 23.6426 28.2051Z" fill="#263238" stroke="#263238" stroke-width="0.216" stroke-miterlimit="10"/>
<path d="M26.7413 31.968C26.7413 31.968 26.6307 32.8165 26.8889 32.964C27.147 33.1115 27.9956 33.259 28.3276 32.7057C28.3276 32.7057 28.3397 32.8173 28.3674 33.0158" stroke="#263238" stroke-width="0.216" stroke-miterlimit="10"/>
<path d="M28.5488 33.4804C28.5488 33.4804 28.9547 33.2959 29.5081 33.2959" stroke="#263238" stroke-width="0.216" stroke-miterlimit="10"/>
<path d="M50.3042 40.7709L51.1118 42.0272C51.1118 42.0272 50.3491 45.3026 49.4516 48.3987C48.5542 51.4947 47.3428 54.0074 47.3428 54.0074C47.3428 54.0074 45.4455 54.1435 45.0573 54.3227C44.669 54.502 44.4599 55.1591 44.3705 55.4576C44.2808 55.7563 43.9523 56.1745 44.0717 56.4432C44.1912 56.7121 44.3106 56.8614 44.3106 56.8614C44.3106 56.8614 44.1912 57.8172 44.3705 58.0263C44.5497 58.2354 44.6392 58.325 44.7886 58.2952C44.9379 58.2654 45.147 58.2654 45.147 58.2654C45.147 58.2654 45.3859 58.803 45.6548 58.7732C45.9235 58.7434 47.9844 58.4745 48.552 58.1161C49.1197 57.7578 49.6272 56.5631 49.926 55.9358C50.2247 55.3086 50.4934 54.2932 50.4934 54.2932C50.4934 54.2932 53.6891 48.1704 54.3164 46.7366C54.9437 45.303 55.5709 42.824 55.6305 41.8086C55.6904 40.7932 55.6603 39.927 55.0929 39.3894C54.5255 38.8517 52.6437 37.2987 52.6437 37.2987L50.3042 40.7709Z" fill="#A3A3A3" stroke="#263238" stroke-width="0.216" stroke-miterlimit="10"/>
<path d="M44.3105 56.8615C44.3105 56.8615 44.7287 55.6966 45.2962 55.0396" stroke="#263238" stroke-width="0.216" stroke-miterlimit="10"/>
<path d="M39.9482 33.0009C39.9482 33.0009 40.0958 35.0301 40.6861 35.6571C41.2764 36.2844 46.9207 39.789 47.5847 40.2685C48.2487 40.748 49.6875 42.0023 49.6875 42.0023C49.6875 42.0023 52.1222 40.6741 52.4175 39.6412C52.7125 38.6083 53.0078 37.1326 53.0078 37.1326C53.0078 37.1326 48.9498 32.5951 47.843 31.562C46.7363 30.529 45.4083 29.0903 44.2646 28.7213C43.1208 28.3524 42.1987 28.7213 42.1987 28.7213" fill="#92E3A9"/>
<path d="M39.9482 33.0009C39.9482 33.0009 40.0958 35.0301 40.6861 35.6571C41.2764 36.2844 46.9207 39.789 47.5847 40.2685C48.2487 40.748 49.6875 42.0023 49.6875 42.0023C49.6875 42.0023 52.1222 40.6741 52.4175 39.6412C52.7125 38.6083 53.0078 37.1326 53.0078 37.1326C53.0078 37.1326 48.9498 32.5951 47.843 31.562C46.7363 30.529 45.4083 29.0903 44.2646 28.7213C43.1208 28.3524 42.1987 28.7213 42.1987 28.7213" stroke="#263238" stroke-width="0.216" stroke-miterlimit="10"/>
<path d="M46.9172 44.8956C46.9189 45.3525 46.9163 45.7724 46.9072 46.1182" stroke="#263238" stroke-width="0.216" stroke-miterlimit="10"/>
<path d="M46.8047 39.8394C46.8047 39.8394 46.8762 41.8425 46.9058 43.7386" stroke="#263238" stroke-width="0.216" stroke-miterlimit="10"/>
<path d="M46.0325 39.3761C46.0325 39.3761 45.1577 43.133 45.0547 43.4419" stroke="#263238" stroke-width="0.216" stroke-miterlimit="10"/>
<path d="M32.4375 41.2145C33.8147 43.1518 36.0341 46.1544 37.026 46.8385" stroke="#263238" stroke-width="0.216" stroke-miterlimit="10"/>
<path d="M31.2617 39.5305C31.2617 39.5305 31.5676 39.9802 32.0445 40.6587" stroke="#263238" stroke-width="0.216" stroke-miterlimit="10"/>
<path d="M33.2178 43.3903L35.2763 46.0151" stroke="#263238" stroke-width="0.216" stroke-miterlimit="10"/>
<path d="M36.2539 26.3555C36.2539 26.3555 37.0773 27.745 37.0773 29.1345C37.0773 30.5241 36.6656 32.068 36.6656 32.068" stroke="#263238" stroke-width="0.216" stroke-miterlimit="10"/>
<path d="M36.4085 28.0538C36.4085 28.0538 36.6143 30.2668 36.0996 31.9652" stroke="#263238" stroke-width="0.216" stroke-miterlimit="10"/>
<path d="M23.0121 97.5314C25.206 95.3375 25.206 91.7804 23.0121 89.5865C20.8181 87.3926 17.2611 87.3926 15.0672 89.5865C12.8733 91.7804 12.8733 95.3375 15.0672 97.5314C17.2611 99.7253 20.8181 99.7253 23.0121 97.5314Z" fill="white" stroke="#263238" stroke-width="0.216" stroke-miterlimit="10"/>
<path d="M18.706 90.4412L16.7615 91.1188L16.2902 93.3872L14.8467 94.4477L15.6716 96.4805L17.7044 96.8045L19.295 97.924L21.4161 97.2758L21.8874 95.0664L23.3016 93.8881L22.4177 91.767H20.3851L18.706 90.4412Z" fill="#92E3A9" stroke="#263238" stroke-width="0.216" stroke-miterlimit="10"/>
<path d="M17.0947 94.1717L18.0075 94.7802L20.1157 94.063L20.3112 92.3245" stroke="#263238" stroke-width="0.216" stroke-miterlimit="10"/>
<path d="M17.7031 96.4537L18.0727 94.9324" stroke="#263238" stroke-width="0.216" stroke-miterlimit="10"/>
<path d="M20.3984 94.2803L21.572 94.9324" stroke="#263238" stroke-width="0.216" stroke-miterlimit="10"/>
<path d="M16.7615 91.1188L15.834 90.3468" stroke="#263238" stroke-width="0.216" stroke-miterlimit="10"/>
<path d="M19.295 97.9241L19.0723 98.8663" stroke="#263238" stroke-width="0.216" stroke-miterlimit="10"/>
<path d="M21.5498 97.3231L22.2669 97.6925" stroke="#263238" stroke-width="0.216" stroke-miterlimit="10"/>
<path d="M15.6716 96.4805L15.3994 97.4317" stroke="#263238" stroke-width="0.216" stroke-miterlimit="10"/>
<path d="M23.3018 93.8881L24.2884 94.2369" stroke="#263238" stroke-width="0.216" stroke-miterlimit="10"/>
<path d="M22.4844 91.6071L22.6148 90.7814" stroke="#263238" stroke-width="0.216" stroke-miterlimit="10"/>
</svg>
