<svg width="123" height="92" viewBox="0 0 123 92" fill="none" xmlns="http://www.w3.org/2000/svg">
<path d="M24.6904 45.0053L28.6428 29.2925L34.8385 43.8902L33.0225 43.3833L37.509 52.1012L34.9453 51.2903L38.9283 60.196L24.3301 56.1871L25.3314 51.6958L24.1562 53.2165L26.7251 44.0197L24.6904 45.0053Z" fill="#EBEBEB"/>
<path d="M9.86341 39.0732L14.9373 18.9019L22.891 37.6417L20.5598 36.991L26.3194 48.1828L23.0282 47.1416L26.6516 56.7539C20.8378 55.1923 15.5532 54.2578 9.17773 53.7102L10.6862 47.6622L9.17773 49.6143L12.4754 37.808L9.86341 39.0732Z" fill="#F5F5F5"/>
<path d="M0.534104 42.5075L4.48659 26.7947L10.6823 41.3924L8.86641 40.8855L13.3528 49.6036L10.7891 48.7928L13.8869 54.2584C9.18 53.5252 4.52587 53.5252 0 53.9812L1.17499 49.1982L0 50.7187L2.56865 41.5219L0.534104 42.5075Z" fill="#E0E0E0"/>
<path d="M116.041 54.1924L117.973 46.5122L121.001 53.6472L120.114 53.3995L122.307 57.6607L121.054 57.2642L122.699 60.4496C120.304 60.2563 118.026 60.1684 115.747 60.0734L116.354 57.4623L115.78 58.2054L117.036 53.7102L116.041 54.1924Z" fill="#E0E0E0"/>
<path d="M107.301 52.0119L110.816 38.0403L116.325 51.0204L114.71 50.5697L118.699 58.3217L116.42 57.6006L118.174 60.1738C115.025 60.0705 110.877 59.9461 106.911 60.7263L107.871 57.9613L106.826 59.3134L109.11 51.1357L107.301 52.0119Z" fill="#F5F5F5"/>
<path d="M91.8429 11.7925C92.0139 10.55 90.2605 9.52802 88.9429 9.42185C88.3147 9.37112 87.6619 9.46727 87.0667 9.25984C85.7769 8.81022 85.2618 7.14429 84.0034 6.61346C83.0626 6.21662 81.9795 6.56989 81.0674 7.02892C80.1554 7.48795 79.254 8.06563 78.235 8.13088C77.3487 8.18754 76.3862 7.85882 75.6108 8.29187C75.0329 8.61446 74.7301 9.2803 74.1977 9.67326C73.6766 10.0576 72.9969 10.139 72.3505 10.174C71.7041 10.2092 71.0346 10.2157 70.446 10.4852C69.8573 10.7548 69.3703 11.3772 69.4926 12.013L91.8429 11.7925Z" fill="#F5F5F5"/>
<path d="M28.9268 12.0093C29.0297 11.2628 27.976 10.6487 27.1844 10.5849C26.8067 10.5544 26.4146 10.6121 26.057 10.4876C25.2822 10.2175 24.9727 9.21642 24.2166 8.89751C23.6512 8.6592 23.0005 8.87133 22.4525 9.14707C21.9045 9.42282 21.363 9.76996 20.7508 9.80923C20.2183 9.84339 19.64 9.64579 19.174 9.90599C18.8269 10.0999 18.645 10.4998 18.3249 10.7359C18.0119 10.9668 17.6034 11.0157 17.215 11.0368C16.8265 11.0579 16.4244 11.0617 16.0707 11.2238C15.717 11.3858 15.4243 11.7597 15.4977 12.1418L28.9268 12.0093Z" fill="#F5F5F5"/>
<path d="M122.695 29.343C122.798 28.5966 121.745 27.9825 120.953 27.9187C120.576 27.8882 120.183 27.9459 119.826 27.8213C119.051 27.5513 118.741 26.5502 117.985 26.2313C117.42 25.9929 116.769 26.2051 116.221 26.4808C115.673 26.7566 115.132 27.1037 114.519 27.143C113.987 27.1771 113.408 26.9795 112.943 27.2397C112.595 27.4337 112.414 27.8336 112.093 28.0696C111.78 28.3006 111.372 28.3495 110.984 28.3705C110.595 28.3916 110.193 28.3955 109.839 28.5575C109.486 28.7195 109.193 29.0934 109.266 29.4756L122.695 29.343Z" fill="#F5F5F5"/>
<path d="M63.8985 29.3961C64.0431 28.3451 62.5598 27.4804 61.4452 27.3906C60.9137 27.3479 60.3614 27.4291 59.858 27.2536C58.7669 26.8733 58.3312 25.4637 57.2667 25.0147C56.4707 24.679 55.5545 24.9779 54.7829 25.3661C54.0113 25.7544 53.2487 26.2433 52.3867 26.2983C51.637 26.3464 50.8226 26.0682 50.1666 26.4345C49.6777 26.7074 49.4216 27.2708 48.9712 27.6032C48.5303 27.9282 47.9553 27.9971 47.4083 28.0268C46.8614 28.0567 46.2951 28.062 45.7972 28.2901C45.2991 28.5182 44.8872 29.0447 44.9907 29.5827L63.8985 29.3961Z" fill="#EBEBEB"/>
<path d="M100.26 31.5815C100.26 31.2798 100.504 31.0352 100.806 31.0352C101.108 31.0352 101.353 31.2798 101.353 31.5815C101.353 31.8227 101.195 32.025 100.978 32.0974V62.0387H100.634V32.0974C100.417 32.025 100.26 31.8227 100.26 31.5815Z" fill="#E0E0E0"/>
<path d="M94.8046 36.1262C95.5846 36.2463 96.1566 35.5913 96.3388 35.0079C96.5072 34.4695 96.5872 33.9092 96.8236 33.397C97.1542 32.6812 98.0295 32.3502 98.8152 32.4165C99.6009 32.4828 100.306 32.7311 101.001 33.1032V37.6264C101.001 37.6264 99.3822 35.9456 98.6548 35.9161C97.4412 35.867 97.5073 37.8621 96.3288 38.1566C96.3288 38.1566 94.6766 38.6046 93.5597 37.1619C92.8509 36.2463 92.7881 35.1339 92.7881 35.1339C92.7881 35.1339 93.331 35.8993 94.8046 36.1262Z" fill="#EBEBEB"/>
<path d="M95.7696 37.5949C95.7704 37.5959 95.7823 37.5892 95.8046 37.5748C95.8269 37.5605 95.8584 37.5378 95.8976 37.5063C95.9752 37.4427 96.0811 37.3408 96.1853 37.1937C96.2902 37.0475 96.3908 36.8562 96.4733 36.6335C96.5563 36.4107 96.6244 36.1591 96.6866 35.893C96.8108 35.3601 96.8654 34.8665 96.8855 34.5093C96.8955 34.3305 96.8971 34.1857 96.8969 34.0857C96.8959 34.0392 96.8951 34.0012 96.8943 33.9705C96.8932 33.9441 96.892 33.9304 96.8906 33.9304C96.8891 33.9304 96.8879 33.9443 96.8863 33.9705C96.8851 34.0012 96.8834 34.039 96.8816 34.0855C96.8771 34.1853 96.8713 34.3295 96.8578 34.5075C96.831 34.863 96.7721 35.3539 96.6488 35.8842C96.5868 36.1489 96.5201 36.4001 96.4397 36.621C96.3599 36.8421 96.2634 37.0317 96.1627 37.178C96.0629 37.3249 95.9615 37.4284 95.8876 37.4947C95.8136 37.5609 95.7677 37.592 95.7696 37.5949Z" fill="#E0E0E0"/>
<path d="M49.5205 52.6705C50.0697 52.4789 50.6699 52.772 50.8563 53.3231L51.7641 56.0059C51.9331 56.5054 51.7042 57.0526 51.2298 57.2827L50.9606 57.4132L49.5205 52.6705Z" fill="#E0E0E0"/>
<path d="M48.7689 52.7477C49.1142 53.8326 49.4593 54.9176 49.8046 56.0024C49.9874 56.5772 50.1703 57.1518 50.3532 57.7266C50.3724 57.7872 50.3867 57.8535 50.4121 57.9118C50.4633 58.0288 50.4189 57.8005 50.4088 57.8424C50.3593 58.0507 50.4088 58.326 50.4088 58.5398C50.4088 59.2031 50.4088 59.8665 50.4088 60.5299C50.4088 61.188 51.4316 61.1892 51.4316 60.5299C51.4316 59.9533 51.4316 59.3768 51.4316 58.8002C51.4316 58.4092 51.4985 57.9547 51.378 57.5755C50.9775 56.3164 50.5768 55.0571 50.176 53.7981C50.0357 53.3573 49.8956 52.9164 49.7553 52.4758C49.5562 51.8509 48.5684 52.1178 48.7689 52.7477Z" fill="#EBEBEB"/>
<path d="M57.1108 60.5123H51.5879V60.3748C51.5879 59.2017 52.5391 58.2505 53.7122 58.2505H54.9864C56.1598 58.2505 57.1108 59.2017 57.1108 60.3748V60.5123Z" fill="#E0E0E0"/>
<path d="M46.8046 60.2439H57.1727C57.475 60.2439 57.7199 60.489 57.7199 60.7911V65.8277C57.7199 66.1301 57.4748 66.3749 57.1727 66.3749H48.5761C48.3439 66.3749 48.1369 66.2283 48.0598 66.0092L46.2883 60.9725C46.1631 60.6168 46.4272 60.2439 46.8046 60.2439Z" fill="#F5F5F5"/>
<path d="M39.5029 52.8856V53.8663C39.5029 53.8663 43.0569 54.0133 43.0569 53.8663C43.0569 53.7192 43.0569 51.8806 43.0569 51.8806H41.9292L41.059 52.7508L39.5029 52.8856Z" fill="#E0E0E0"/>
<path d="M64.917 56.6889L65.0943 58.3738L65.9283 59.1499L67.4666 59.2385V56.3786L65.1269 56.2847L64.917 56.6889Z" fill="#E0E0E0"/>
<path d="M65.1483 40.9387C65.5243 41.9161 65.9001 42.8932 66.2761 43.8706C66.8026 45.2395 67.3291 46.6082 67.8557 47.9771C67.9037 48.1021 67.9383 48.2635 68.0097 48.3775C68.058 48.4546 67.9976 48.1651 68.013 48.3724C68.0443 48.7972 68.0821 49.2219 68.1167 49.6466C68.2449 51.2225 68.3734 52.7984 68.5017 54.3743C68.5921 55.4849 68.67 56.5971 68.7729 57.7066C68.7745 57.725 68.776 57.7434 68.7774 57.7616C68.7999 58.037 68.9963 58.273 69.2888 58.273C69.5482 58.273 69.8227 58.0384 69.8002 57.7616C69.7245 56.8321 69.6488 55.9026 69.5731 54.9731C69.4408 53.3472 69.3084 51.7216 69.1761 50.0958C69.1342 49.5813 69.0922 49.0666 69.0505 48.5522C69.0337 48.3476 69.0192 48.1655 68.9451 47.9731C68.463 46.7199 67.9811 45.4666 67.4989 44.2135C67.0522 43.0518 66.6124 41.8872 66.1582 40.7282C66.1503 40.7077 66.1425 40.6873 66.1347 40.6668C66.0357 40.4093 65.7906 40.2313 65.5057 40.3097C65.2592 40.3774 65.0487 40.6795 65.1483 40.9387Z" fill="#EBEBEB"/>
<path d="M44.2492 41.934C44.2492 42.5324 44.2492 43.1307 44.2492 43.729C44.2492 45.1659 44.2492 46.6027 44.2492 48.0393C44.2492 49.7772 44.2492 51.5152 44.2492 53.2529C44.2492 54.7488 44.2492 56.2446 44.2492 57.7405C44.2492 58.4716 44.2202 59.2094 44.2492 59.9399C44.2496 59.9506 44.2492 59.9612 44.2492 59.9718C44.2492 60.6299 45.272 60.6311 45.272 59.9718C45.272 59.3735 45.272 58.7752 45.272 58.1768C45.272 56.74 45.272 55.3032 45.272 53.8666C45.272 52.1286 45.272 50.3907 45.272 48.653C45.272 47.157 45.272 45.6613 45.272 44.1654C45.272 43.4343 45.3011 42.6966 45.272 41.9659C45.2716 41.9553 45.272 41.9447 45.272 41.934C45.272 41.2758 44.2492 41.2747 44.2492 41.934Z" fill="#EBEBEB"/>
<path d="M43.6551 53.6416H39.0605V61.6581H43.6551V53.6416Z" fill="#E0E0E0"/>
<path d="M74.3169 60.7642H67.0039V67.1955H74.3169V60.7642Z" fill="#E0E0E0"/>
<path d="M39.5029 66.375V59.4392C39.5029 59.4392 45.4478 57.7218 49.477 61.5529C49.477 61.5529 51.3266 63.4026 51.7889 66.3748H39.5029V66.375Z" fill="#F5F5F5"/>
<path d="M66.4788 55.1533C66.4788 55.1533 66.1877 55.4121 66.2523 55.9945C66.317 56.5766 67.0286 60.038 67.0286 60.038L65.9287 66.375H67.2551C67.2551 66.375 67.5914 62.7228 70.9103 61.8494C72.2975 61.4844 73.427 61.737 74.1481 62.0267C74.565 62.1942 75.0185 61.8864 75.0185 61.437V59.0097C75.0185 58.3878 74.6194 57.8359 74.0286 57.6414L66.4788 55.1533Z" fill="#F5F5F5"/>
<path d="M62.2516 52.0632L59.7971 55.6342C59.7128 55.7567 59.5453 55.7878 59.4227 55.7036L59.3941 55.6839C59.2716 55.5996 59.2405 55.4321 59.3248 55.3096L61.7793 51.7386C61.8635 51.6161 62.0311 51.585 62.1536 51.6692L62.1822 51.6889C62.3048 51.7729 62.3359 51.9407 62.2516 52.0632Z" fill="#E0E0E0"/>
<path d="M65.4935 57.1718L60.897 54.0124C60.7745 53.9281 60.7434 53.7606 60.8277 53.6381L60.8473 53.6094C60.9316 53.4869 61.0991 53.4558 61.2217 53.5401L65.8181 56.6995C65.9406 56.7838 65.9717 56.9513 65.8875 57.0738L65.8678 57.1025C65.7835 57.225 65.6158 57.2561 65.4935 57.1718Z" fill="#E0E0E0"/>
<path d="M43.5215 41.934H67.2413V41.5167C67.2413 40.498 66.4155 39.6724 65.397 39.6724H45.3658C44.3471 39.6724 43.5215 40.4982 43.5215 41.5167V41.934Z" fill="#E0E0E0"/>
<path d="M68.2121 66.3569C67.904 69.0679 70.1344 71.3637 72.8533 71.1338C74.8652 70.9636 76.5135 69.3621 76.7412 67.356C77.0491 64.6452 74.819 62.3498 72.1004 62.5793C70.0885 62.7493 68.44 64.3508 68.2121 66.3569Z" fill="#E0E0E0"/>
<path d="M68.1926 66.7849L68.192 66.7855C68.1521 69.1609 70.0482 71.1162 72.4225 71.1506C74.7968 71.1848 76.7485 69.285 76.7772 66.9095C76.7772 66.9095 76.777 66.9091 76.7765 66.9089L68.1926 66.7849Z" fill="#E0E0E0"/>
<path d="M69.4975 66.4213C69.2206 68.3892 70.8546 70.0711 72.8296 69.851C74.1752 69.701 75.2755 68.632 75.4641 67.2913C75.7411 65.3237 74.1073 63.6418 72.1323 63.8617C70.7867 64.0116 69.6863 65.0806 69.4975 66.4213Z" fill="#F5F5F5"/>
<path d="M72.5239 63.8431C70.8594 63.8192 69.4907 65.149 69.4668 66.8133L75.4941 66.9002C75.5181 65.2359 74.1884 63.867 72.5239 63.8431Z" fill="#F5F5F5"/>
<path d="M70.6757 66.5215C70.4515 67.775 71.5071 68.8614 72.7665 68.6732C73.5291 68.5593 74.1516 67.9544 74.2872 67.1953C74.5112 65.9417 73.4557 64.8557 72.1964 65.0437C71.4338 65.1577 70.8116 65.7626 70.6757 66.5215Z" fill="#E0E0E0"/>
<path d="M39.3125 64.3056H39.1799C38.6139 64.3056 38.1553 63.8468 38.1553 63.281V59.2751C38.1553 58.7093 38.6141 58.2505 39.1799 58.2505H39.3125C39.8785 58.2505 40.3371 58.7093 40.3371 59.2751V63.281C40.3371 63.8468 39.8785 64.3056 39.3125 64.3056Z" fill="#E0E0E0"/>
<path d="M38.3756 49.0573C38.3756 49.0573 37.7382 48.9593 37.4931 49.3514C37.2481 49.7438 37.2724 50.1114 37.4931 50.3566C37.7139 50.6017 38.4002 50.6262 38.915 50.6262C39.4299 50.6262 40.2144 50.6262 40.2144 50.6262C40.2144 50.6262 40.2389 50.2584 40.0182 50.0134C39.7975 49.7681 38.3756 49.0573 38.3756 49.0573Z" fill="#E0E0E0"/>
<path d="M39.8711 50.3564V54.0502H40.2152V50.4448L39.8711 50.3564Z" fill="#E0E0E0"/>
<path d="M39.3561 45.9928C39.3561 45.9928 38.7187 45.8948 38.4736 46.287C38.2286 46.6791 38.2529 47.0469 38.4736 47.2922C38.6943 47.5372 39.3806 47.5618 39.8955 47.5618C40.4104 47.5618 41.1949 47.5618 41.1949 47.5618C41.1949 47.5618 41.2194 47.194 40.9987 46.9489C40.778 46.7039 39.3561 45.9928 39.3561 45.9928Z" fill="#E0E0E0"/>
<path d="M40.8525 47.292V53.0246H41.1966V47.3804L40.8525 47.292Z" fill="#E0E0E0"/>
<path d="M67.4672 65.9482H38.5381V67.365H67.4672V65.9482Z" fill="#E0E0E0"/>
<path d="M41.3723 65.8584C41.0642 68.5694 43.2945 70.8652 46.0135 70.6353C48.0253 70.4651 49.6735 68.8636 49.9014 66.8577C50.2092 64.1469 47.9791 61.8515 45.2605 62.081C43.2487 62.2508 41.6001 63.8523 41.3723 65.8584Z" fill="#E0E0E0"/>
<path d="M41.3469 66.2874L41.3463 66.288C41.3064 68.6635 43.2027 70.6187 45.5768 70.653C47.9511 70.6872 49.903 68.7875 49.9315 66.4119L49.9308 66.4113L41.3469 66.2874Z" fill="#E0E0E0"/>
<path d="M42.6548 65.9247C42.3778 67.8926 44.0118 69.5745 45.9866 69.3544C47.3322 69.2044 48.4325 68.1354 48.6211 66.7947C48.8979 64.8271 47.2641 63.1452 45.2893 63.3651C43.9437 63.515 42.8434 64.5841 42.6548 65.9247Z" fill="#F5F5F5"/>
<path d="M45.6929 63.3458C44.0284 63.3218 42.6597 64.6517 42.6357 66.316L48.6631 66.4029C48.6872 64.7386 47.3574 63.3697 45.6929 63.3458Z" fill="#F5F5F5"/>
<path d="M43.8378 66.0222C43.6136 67.2758 44.6692 68.3622 45.9286 68.174C46.6912 68.0601 47.3137 67.4552 47.4493 66.6963C47.6733 65.4427 46.6178 64.3567 45.3585 64.5447C44.5959 64.6584 43.9737 65.2633 43.8378 66.0222Z" fill="#E0E0E0"/>
<path d="M26.4665 90.9142C28.1426 90.9142 29.5013 90.6007 29.5013 90.2138C29.5013 89.827 28.1426 89.5134 26.4665 89.5134C24.7904 89.5134 23.4316 89.827 23.4316 90.2138C23.4316 90.6007 24.7904 90.9142 26.4665 90.9142Z" fill="#263238"/>
<path d="M23.6168 87.1521C23.6288 87.145 23.7264 87.2816 23.8651 87.5144C24.004 87.747 24.182 88.0767 24.3552 88.4523C24.5283 88.8281 24.6633 89.1777 24.75 89.4344C24.8368 89.6911 24.8775 89.8539 24.8642 89.8584C24.8345 89.8685 24.6036 89.2425 24.2585 88.4969C23.916 87.7507 23.59 87.1681 23.6168 87.1521Z" fill="#263238"/>
<path d="M25.0942 84.8257C25.1015 84.8247 25.1175 84.8924 25.1404 85.0157C25.1635 85.1391 25.1921 85.3181 25.2234 85.54C25.2864 85.9837 25.357 86.5992 25.4086 87.2814C25.4597 87.9638 25.4818 88.583 25.4859 89.0312C25.4879 89.2552 25.4867 89.4367 25.4822 89.5621C25.4779 89.6875 25.4722 89.7568 25.4648 89.7568C25.4495 89.757 25.4341 89.4804 25.4106 89.0337C25.3873 88.5869 25.3533 87.9702 25.3024 87.2896C25.2511 86.6095 25.1926 85.9945 25.1488 85.5492C25.1052 85.1037 25.079 84.8277 25.0942 84.8257Z" fill="#263238"/>
<path d="M26.5572 87.6535C26.586 87.665 26.4352 88.0948 26.2953 88.6366C26.1534 89.1781 26.075 89.6267 26.0443 89.6226C26.0165 89.6198 26.0482 89.1591 26.1922 88.6098C26.3344 88.0602 26.5316 87.6425 26.5572 87.6535Z" fill="#263238"/>
<path d="M30.3581 87.7646C30.3843 87.7828 30.0591 88.2656 29.7481 88.9085C29.4337 89.55 29.2543 90.1035 29.2239 90.0943C29.1977 90.088 29.3335 89.5132 29.6524 88.8619C29.9683 88.2093 30.3371 87.7478 30.3581 87.7646Z" fill="#263238"/>
<path d="M29.1573 87.6032C29.1882 87.6128 29.0294 88.1389 28.9515 88.8074C28.8697 89.4757 28.9002 90.0243 28.8678 90.0264C28.8414 90.0305 28.7625 89.4759 28.8457 88.7947C28.9253 88.1135 29.1327 87.5931 29.1573 87.6032Z" fill="#263238"/>
<path d="M25.1899 90.733C25.1604 90.733 25.1367 90.5872 25.1367 90.4072C25.1367 90.2271 25.1607 90.0813 25.1899 90.0813C25.2194 90.0813 25.2431 90.2271 25.2431 90.4072C25.2431 90.5872 25.2192 90.733 25.1899 90.733Z" fill="#455A64"/>
<path d="M25.5356 90.8689C25.5062 90.8689 25.4824 90.6674 25.4824 90.419C25.4824 90.1705 25.5064 89.969 25.5356 89.969C25.5649 89.969 25.5888 90.1705 25.5888 90.419C25.5888 90.6674 25.5651 90.8689 25.5356 90.8689Z" fill="#455A64"/>
<path d="M27.7475 90.793C27.7181 90.793 27.6943 90.6547 27.6943 90.4841C27.6943 90.3135 27.7183 90.175 27.7475 90.175C27.777 90.175 27.8007 90.3133 27.8007 90.4841C27.8007 90.6547 27.777 90.793 27.7475 90.793Z" fill="#455A64"/>
<path d="M21.212 29.791C21.212 29.2536 20.7763 28.8179 20.2389 28.8179C19.7013 28.8179 19.2656 29.2536 19.2656 29.791C19.2656 30.2205 19.5459 30.581 19.9321 30.71V90.9056H20.5458V30.71C20.9318 30.581 21.212 30.2205 21.212 29.791Z" fill="#455A64"/>
<path d="M21.2125 29.7909C21.2125 29.7909 21.2133 29.8165 21.2121 29.8674C21.2069 29.9179 21.2014 29.9951 21.1697 30.092C21.1122 30.2792 20.9412 30.5811 20.5495 30.7198L20.5565 30.71C20.5603 36.2934 20.5779 60.9784 20.5994 90.9056V90.9588H20.546C20.3529 90.9588 20.1428 90.9588 19.9323 90.9588H19.879V90.9056C19.879 90.521 19.879 90.1045 19.879 89.6872C19.8947 62.6588 19.9082 39.5981 19.9133 30.71L19.9262 30.728C19.5832 30.6126 19.3404 30.3201 19.2747 30.012C19.2031 29.7028 19.2939 29.3945 19.4608 29.1842C19.6278 28.97 19.8652 28.8506 20.0872 28.8184C20.3106 28.7837 20.5186 28.8309 20.6784 28.9125C21.0044 29.0817 21.1329 29.3542 21.1789 29.5225C21.2027 29.6097 21.2096 29.6778 21.2112 29.723C21.2131 29.7684 21.2125 29.7909 21.2125 29.7909C21.2072 29.7917 21.217 29.6985 21.1697 29.5254C21.121 29.3595 20.9909 29.0928 20.67 28.9301C20.5127 28.8516 20.3089 28.807 20.0913 28.8426C19.8751 28.8753 19.6449 28.9931 19.4839 29.202C19.323 29.4072 19.237 29.7062 19.3076 30.0047C19.3725 30.3017 19.6079 30.5826 19.9385 30.6922L19.9514 30.6965V30.7102C19.9565 39.5983 19.97 62.6591 19.9857 89.6874C19.9857 90.1047 19.9857 90.5212 19.9857 90.9058L19.9325 90.8526C20.1428 90.8526 20.3529 90.8526 20.5462 90.8526L20.493 90.9058C20.5143 60.9786 20.5319 36.2936 20.536 30.7102V30.7028L20.5432 30.7004C20.9279 30.568 21.1002 30.2733 21.1601 30.089C21.2211 29.8959 21.2063 29.7899 21.2125 29.7909Z" fill="#263238"/>
<path d="M30.9286 37.886C29.5393 38.1 28.5206 36.933 28.1957 35.8938C27.896 34.9346 27.7533 33.9368 27.3321 33.0244C26.7434 31.7494 25.184 31.1601 23.7844 31.2779C22.385 31.3957 21.1288 31.8384 19.8906 32.5012V40.5584C19.8906 40.5584 22.7745 37.5642 24.0702 37.5119C26.232 37.4245 26.1141 40.9781 28.2135 41.5026C28.2135 41.5026 31.1565 42.3004 33.1463 39.7305C34.409 38.0996 34.5209 36.118 34.5209 36.118C34.5209 36.118 33.5535 37.4816 30.9286 37.886Z" fill="#FF725E"/>
<g opacity="0.2">
<path d="M27.3369 35.573C27.5288 36.2912 27.9586 37.2502 28.3587 37.8769C28.7588 38.5035 29.3657 39.0311 30.0936 39.1829C30.2253 39.2103 30.3615 39.226 30.483 39.2839C30.6043 39.3418 30.7111 39.4547 30.7148 39.5893C30.7203 39.7904 30.5127 39.9219 30.3323 40.0109C30.0755 40.1373 29.8149 40.2652 29.5337 40.3177C29.2524 40.3703 29.0321 40.3996 28.839 40.1885C28.6764 40.0107 28.4599 39.7967 28.3366 39.5864C27.7023 38.5058 27.3885 36.9599 27.3369 35.7371" fill="black"/>
</g>
<path d="M29.2142 40.502C29.2128 40.504 29.1915 40.4917 29.1518 40.4664C29.1123 40.4408 29.0559 40.4005 28.9859 40.3445C28.8479 40.2313 28.659 40.0497 28.4735 39.7876C28.2863 39.5272 28.1071 39.1864 27.9605 38.7896C27.8126 38.393 27.6913 37.9446 27.5806 37.4708C27.3597 36.5219 27.2621 35.6425 27.2265 35.0063C27.2087 34.688 27.2059 34.4298 27.2061 34.2517C27.2079 34.169 27.2093 34.1011 27.2106 34.0465C27.2124 33.9996 27.2147 33.9751 27.2169 33.9751C27.2194 33.9751 27.2218 33.9996 27.2243 34.0465C27.2265 34.1011 27.2292 34.1688 27.2327 34.2513C27.2406 34.429 27.2511 34.6861 27.2748 35.003C27.3225 35.6365 27.4272 36.5106 27.6473 37.4553C27.7576 37.927 27.8766 38.3741 28.0196 38.7677C28.1618 39.1617 28.3338 39.4994 28.5132 39.7598C28.6912 40.0215 28.8718 40.2058 29.0031 40.324C29.1361 40.4414 29.2175 40.4971 29.2142 40.502Z" fill="#263238"/>
<path d="M19.2146 91.0657C19.1833 91.0772 18.9941 90.5132 18.596 89.9073C18.2029 89.2979 17.7639 88.897 17.787 88.8728C17.7958 88.8628 17.9171 88.9504 18.0902 89.1187C18.2632 89.2867 18.4835 89.5399 18.6852 89.8492C18.8863 90.1589 19.0287 90.4629 19.1123 90.6889C19.1964 90.9152 19.2273 91.0616 19.2146 91.0657Z" fill="#263238"/>
<path d="M21.5101 87.691C21.5252 87.6942 21.4939 87.8894 21.4448 88.2042C21.3957 88.519 21.3321 88.9541 21.2807 89.4369C21.2298 89.9198 21.2006 90.3586 21.1828 90.6767C21.1646 90.9948 21.1543 91.1922 21.1388 91.1922C21.1249 91.1924 21.1085 90.9948 21.1075 90.6747C21.1063 90.3545 21.1236 89.9119 21.175 89.4256C21.2267 88.9396 21.3026 88.5031 21.371 88.1905C21.4391 87.8777 21.4966 87.6879 21.5101 87.691Z" fill="#263238"/>
<path d="M22.7232 88.4687C22.7495 88.4859 22.4656 88.9498 22.1829 89.5549C21.8976 90.1591 21.7218 90.6738 21.6918 90.6644C21.6654 90.6575 21.7973 90.1221 22.0866 89.5095C22.3732 88.8962 22.7009 88.4529 22.7232 88.4687Z" fill="#263238"/>
<path d="M42.5468 11.4704C44.5127 11.4704 46.1064 9.87672 46.1064 7.91085C46.1064 5.94498 44.5127 4.35132 42.5468 4.35132C40.581 4.35132 38.9873 5.94498 38.9873 7.91085C38.9873 9.87672 40.581 11.4704 42.5468 11.4704Z" fill="#FF725E"/>
<path d="M42.5447 11.4739C42.0635 11.4739 41.5971 11.3796 41.1575 11.194C40.7333 11.0146 40.3522 10.7577 40.0251 10.4304C39.6978 10.1031 39.4409 9.72224 39.2615 9.29778C39.0758 8.85859 38.9814 8.39179 38.9814 7.91087C38.9814 7.42995 39.0758 6.96315 39.2615 6.52396C39.4409 6.0997 39.6978 5.71861 40.0251 5.39132C40.3524 5.06402 40.7333 4.8073 41.1575 4.6277C41.5969 4.44196 42.0635 4.34766 42.5447 4.34766C43.0258 4.34766 43.4922 4.44196 43.9316 4.6277C44.3558 4.8071 44.7369 5.06402 45.0642 5.39132C45.3915 5.71861 45.6484 6.0997 45.8278 6.52396C46.0136 6.96335 46.1079 7.42995 46.1079 7.91087C46.1079 8.39179 46.0136 8.85859 45.8278 9.29778C45.6484 9.72203 45.3915 10.1031 45.0642 10.4304C44.7369 10.7577 44.3558 11.0146 43.9316 11.194C43.4924 11.3796 43.0258 11.4739 42.5447 11.4739Z" fill="#FF725E"/>
<path d="M42.0384 15.8698C42.0178 15.8698 42.001 15.2123 42.001 14.4017C42.001 13.5906 42.0178 12.9333 42.0384 12.9333C42.0591 12.9333 42.0758 13.5906 42.0758 14.4017C42.0758 15.2123 42.0591 15.8698 42.0384 15.8698Z" fill="#FF725E"/>
<path d="M42.0413 15.8735C42.0346 15.8735 42.0221 15.8735 42.011 15.4398C42.0039 15.1629 42 14.794 42 14.4017C42 14.0091 42.0039 13.6405 42.011 13.3634C42.0221 12.9297 42.0348 12.9297 42.0413 12.9297C42.0479 12.9297 42.0603 12.9297 42.0716 13.3634C42.0788 13.6407 42.0826 14.0096 42.0826 14.4017C42.0826 14.7938 42.0788 15.1624 42.0716 15.4398C42.0606 15.8735 42.0481 15.8735 42.0413 15.8735ZM42.0413 12.9401C42.0248 12.9939 42.0076 13.5513 42.0076 14.4015C42.0076 15.2516 42.0248 15.8091 42.0413 15.8629C42.0579 15.8089 42.0749 15.2516 42.0749 14.4015C42.0751 13.5515 42.0579 12.9941 42.0413 12.9401Z" fill="#FF725E"/>
<path d="M39.9888 12.1054C40.0068 12.1158 39.6719 12.7291 39.2411 13.4751C38.8101 14.2213 38.4464 14.8178 38.4284 14.8074C38.4104 14.7972 38.7453 14.1839 39.1761 13.4377C39.6071 12.6914 39.971 12.0949 39.9888 12.1054Z" fill="#FF725E"/>
<path d="M38.4275 14.8114C38.4265 14.8114 38.4257 14.811 38.4251 14.8108C38.4193 14.8075 38.4085 14.8012 38.6292 14.397C38.7704 14.1384 38.9628 13.797 39.1715 13.4359C39.3797 13.0753 39.5792 12.7378 39.7326 12.4862C39.9488 12.1317 39.9789 12.1018 39.9871 12.1018C39.9879 12.1018 39.9885 12.1022 39.9891 12.1026C39.9948 12.1059 40.0057 12.1122 39.785 12.5164C39.6436 12.7752 39.4511 13.1164 39.2427 13.4773C38.873 14.1173 38.4621 14.8024 38.429 14.8114C38.4285 14.8112 38.4279 14.8114 38.4275 14.8114ZM39.9836 12.1116C39.94 12.154 39.6293 12.6578 39.1778 13.4394C38.7264 14.2212 38.4453 14.7423 38.4306 14.8012C38.4742 14.7588 38.7849 14.2548 39.2363 13.4732C39.6878 12.6916 39.9689 12.1705 39.9836 12.1116Z" fill="#FF725E"/>
<path d="M37.8835 10.7956C37.8963 10.8117 37.524 11.129 37.0521 11.5042C36.58 11.8793 36.187 12.1704 36.1742 12.154C36.1613 12.1379 36.5334 11.8206 37.0055 11.4454C37.4774 11.0705 37.8706 10.7794 37.8835 10.7956Z" fill="#FF725E"/>
<path d="M36.175 12.1588C36.1725 12.1588 36.1717 12.1578 36.1711 12.157C36.1672 12.1521 36.1592 12.142 36.4053 11.9322C36.5624 11.7984 36.7745 11.6247 37.0028 11.4431C37.4015 11.1262 37.8432 10.7917 37.8816 10.7917C37.8818 10.7917 37.882 10.7917 37.8822 10.7917C37.8843 10.792 37.8853 10.793 37.8859 10.7936C37.8865 10.7944 37.8871 10.7958 37.8869 10.7977C37.883 10.8316 37.4549 11.1886 37.054 11.5073C36.8257 11.6887 36.6086 11.8563 36.4427 11.9792C36.2298 12.1373 36.186 12.1588 36.175 12.1588ZM37.8789 10.7995C37.8393 10.81 37.488 11.0671 37.0075 11.4488C36.5115 11.8432 36.1965 12.1154 36.178 12.1512C36.2171 12.1414 36.5534 11.8962 37.0497 11.5018C37.5302 11.1199 37.8599 10.8359 37.8789 10.7995Z" fill="#FF725E"/>
<path d="M45.5901 14.4237C45.5795 14.4256 45.5475 14.2865 45.4962 14.0625C45.4451 13.8383 45.3724 13.5296 45.2816 13.1913C45.1906 12.8529 45.0983 12.5493 45.0302 12.3297C44.9621 12.1102 44.9202 11.9739 44.9302 11.97C44.9394 11.9666 44.9991 12.0965 45.0803 12.3125C45.1615 12.5285 45.2622 12.8314 45.3538 13.1716C45.4453 13.5118 45.5101 13.8244 45.548 14.052C45.5864 14.2797 45.5997 14.4221 45.5901 14.4237Z" fill="#FF725E"/>
<path d="M45.5871 14.4272C45.575 14.4272 45.5603 14.3724 45.4899 14.0631C45.4421 13.8543 45.3678 13.5368 45.2752 13.1919C45.1802 12.8394 45.0864 12.5316 45.024 12.3305L45.0227 12.3266C44.9323 12.0341 44.9141 11.9711 44.9262 11.9664C44.9305 11.9643 44.937 11.9629 44.9792 12.0572C45.0074 12.1212 45.0438 12.2112 45.0812 12.3109C45.1367 12.4581 45.2461 12.7656 45.3551 13.1704C45.4638 13.5754 45.5235 13.896 45.5493 14.051C45.5834 14.2542 45.6012 14.4113 45.5914 14.4248C45.5904 14.4262 45.5892 14.4268 45.5881 14.4268C45.5877 14.4272 45.5875 14.4272 45.5871 14.4272ZM44.9295 11.976C44.9299 12.002 44.9743 12.1456 45.0297 12.3246L45.0309 12.3287C45.0935 12.5297 45.1874 12.8376 45.2825 13.1903C45.3752 13.5351 45.4494 13.8528 45.4973 14.0617C45.538 14.2394 45.5732 14.3943 45.5863 14.4176C45.5898 14.3949 45.5787 14.2726 45.5419 14.0527C45.5161 13.8978 45.4564 13.5775 45.3478 13.1727C45.239 12.7683 45.1297 12.461 45.0743 12.3139C44.9957 12.1051 44.9438 11.9938 44.9295 11.976Z" fill="#FF725E"/>
<path d="M49.2055 11.8616C49.1918 11.8772 48.7209 11.4877 48.1534 10.9918C47.5858 10.4958 47.137 10.0811 47.1507 10.0654C47.1644 10.0498 47.6353 10.4391 48.2027 10.9354C48.7702 11.4314 49.219 11.8461 49.2055 11.8616Z" fill="#FF725E"/>
<path d="M49.2032 11.8659C49.1664 11.8659 48.6337 11.4177 48.1497 10.9947C47.8754 10.7547 47.6199 10.5262 47.4305 10.3511C47.1341 10.0774 47.1423 10.068 47.1468 10.0629C47.1474 10.0623 47.1484 10.0615 47.1505 10.0613C47.1873 10.0613 47.7202 10.5095 48.2041 10.9325C48.4785 11.1722 48.7339 11.4007 48.9234 11.5758C49.2198 11.8495 49.2116 11.8589 49.2071 11.8641C49.2065 11.8647 49.2055 11.8655 49.2034 11.8657C49.2036 11.8659 49.2034 11.8659 49.2032 11.8659ZM47.1543 10.0699C47.1807 10.1149 47.5598 10.469 48.1548 10.9892C48.7499 11.5094 49.1517 11.8377 49.1997 11.8577C49.1733 11.8127 48.7945 11.4586 48.1994 10.9384C47.6042 10.4182 47.2024 10.0899 47.1543 10.0699Z" fill="#FF725E"/>
<path d="M50.5824 8.34084C50.58 8.35147 50.4167 8.32304 50.1531 8.27906C49.8894 8.23508 49.5247 8.17862 49.12 8.13219C48.7152 8.08596 48.3472 8.05834 48.0805 8.04136C47.8137 8.02438 47.6482 8.01518 47.6484 8.00434C47.6484 7.99472 47.8143 7.9849 48.0825 7.98859C48.3507 7.99206 48.7216 8.01129 49.1286 8.05793C49.5355 8.10477 49.901 8.16982 50.1631 8.22731C50.4253 8.28438 50.5847 8.33143 50.5824 8.34084Z" fill="#FF725E"/>
<path d="M50.5678 8.34623C50.5361 8.34623 50.4491 8.33232 50.235 8.29652L50.1505 8.28241C49.7898 8.22227 49.4423 8.17277 49.1177 8.13554C48.7945 8.09851 48.4447 8.06803 48.0781 8.04471L47.9934 8.03939C47.6999 8.02078 47.6424 8.01607 47.6426 8.0038C47.6426 8.00298 47.6428 8.00155 47.6442 8.00032C47.6565 7.98825 47.8482 7.9813 48.0805 7.98437C48.2657 7.98662 48.6478 7.99889 49.1271 8.05351C49.6072 8.10894 49.9815 8.1834 50.1617 8.22309C50.3888 8.27279 50.5739 8.32291 50.5831 8.33764C50.5841 8.33907 50.5839 8.3405 50.5839 8.34132C50.5833 8.34439 50.579 8.34623 50.5678 8.34623ZM47.6534 8.00421C47.6788 8.01198 47.813 8.02057 47.994 8.03203L48.0789 8.03755C48.4455 8.06087 48.7953 8.09135 49.1187 8.12838C49.4433 8.16581 49.7911 8.21511 50.1519 8.27525L50.2364 8.28936C50.4076 8.3178 50.5365 8.33948 50.57 8.33948C50.5715 8.33948 50.5727 8.33948 50.5737 8.33928C50.5485 8.32557 50.4021 8.28343 50.1605 8.23066C49.9801 8.19118 49.6061 8.11651 49.1262 8.06128C48.6472 8.00646 48.2655 7.99439 48.0805 7.99214C47.833 7.98907 47.6808 7.99664 47.6534 8.00421Z" fill="#FF725E"/>
<path d="M50.5859 4.87903C50.5908 4.89907 49.8202 5.10404 48.865 5.33683C47.9093 5.56962 47.1309 5.74186 47.126 5.72181C47.1211 5.70176 47.8915 5.4968 48.8472 5.26401C49.8025 5.03122 50.581 4.85898 50.5859 4.87903Z" fill="#FF725E"/>
<path d="M47.1357 5.72654C47.125 5.72654 47.1246 5.72429 47.1242 5.72265C47.1226 5.71611 47.1197 5.70404 47.6272 5.56903C47.9525 5.4825 48.3859 5.37286 48.848 5.26035C49.3101 5.14784 49.7454 5.04577 50.0738 4.97315C50.5868 4.85982 50.5899 4.8721 50.5913 4.87823C50.5929 4.88478 50.5958 4.89685 50.0881 5.03186C49.763 5.11839 49.3296 5.22782 48.8675 5.34033C48.4056 5.45284 47.9701 5.55491 47.6413 5.62774C47.2668 5.71058 47.1643 5.72654 47.1357 5.72654ZM50.5798 4.88089C50.5095 4.88089 49.8502 5.02388 48.8499 5.26751C47.8498 5.51114 47.1985 5.68747 47.1357 5.71979C47.2062 5.71979 47.8655 5.5768 48.8658 5.33317C49.8659 5.08954 50.5172 4.91321 50.5798 4.88089Z" fill="#FF725E"/>
<path d="M46.5673 0.846361C46.5845 0.857816 46.2159 1.44592 45.7439 2.15983C45.2718 2.87395 44.8752 3.44344 44.858 3.43219C44.8408 3.42074 45.2092 2.83283 45.6813 2.11851C46.1533 1.4046 46.5499 0.834906 46.5673 0.846361Z" fill="#FF725E"/>
<path d="M44.8608 3.43598C44.8598 3.43598 44.8592 3.43558 44.8588 3.43517C44.858 3.43455 44.8571 3.43353 44.8565 3.43189C44.8496 3.39794 45.2761 2.72882 45.6811 2.11637C45.9094 1.77087 46.1272 1.44828 46.2946 1.20813C46.5521 0.83829 46.566 0.839108 46.5722 0.842995C46.5779 0.846677 46.5881 0.853632 46.3451 1.24148C46.1894 1.48981 45.9783 1.81649 45.7498 2.16158C45.5218 2.50667 45.3039 2.82926 45.1364 3.06982C44.9021 3.40592 44.8692 3.43598 44.8608 3.43598ZM46.566 0.8522C46.5202 0.891271 46.1817 1.37239 45.687 2.12047C45.1924 2.86874 44.8827 3.36868 44.8645 3.42596C44.9103 3.38689 45.2489 2.90577 45.7435 2.1577C46.2379 1.40962 46.5478 0.909681 46.566 0.8522Z" fill="#FF725E"/>
<path d="M42.5727 0.00390776C42.5834 0.00452144 42.5822 0.191284 42.5779 0.492599C42.5736 0.794119 42.5676 1.21019 42.568 1.66984C42.5687 2.12968 42.5754 2.54576 42.5805 2.84728C42.5854 3.14859 42.5871 3.33536 42.5764 3.33597C42.5664 3.33658 42.5462 3.15084 42.5275 2.84932C42.5089 2.54801 42.4938 2.13091 42.4932 1.67004C42.4928 1.20937 42.5071 0.792278 42.5249 0.490758C42.5429 0.189238 42.5627 0.00329409 42.5727 0.00390776Z" fill="#FF725E"/>
<path d="M42.5719 3.33922C42.567 3.33922 42.5608 3.33349 42.5475 3.20585C42.5381 3.11564 42.5287 2.99208 42.5197 2.8491C42.5072 2.64618 42.4862 2.22315 42.4854 1.66961C42.4849 1.11751 42.5052 0.69366 42.5171 0.490328C42.5257 0.347341 42.5349 0.223992 42.5441 0.133577C42.557 0.00531852 42.5635 0 42.5682 0H42.5688C42.5801 0.000613677 42.584 0.0452074 42.5776 0.492373C42.5735 0.776506 42.5674 1.20588 42.5678 1.66941C42.5684 2.11964 42.575 2.52876 42.5799 2.82762L42.5803 2.84685C42.5878 3.29401 42.584 3.33861 42.5727 3.33922C42.5723 3.33922 42.5719 3.33922 42.5719 3.33922ZM42.5684 0.0112508C42.5588 0.0425483 42.5412 0.211718 42.5248 0.490532C42.5128 0.694069 42.4925 1.11771 42.4931 1.66941C42.4937 2.22294 42.515 2.64577 42.5275 2.84848C42.5445 3.12709 42.5627 3.29647 42.5723 3.32756C42.5805 3.28685 42.576 3.024 42.5729 2.84664L42.5727 2.82741C42.568 2.52855 42.561 2.11923 42.5606 1.669C42.5602 1.20547 42.5664 0.775892 42.5705 0.49176C42.5727 0.315021 42.5764 0.0521626 42.5684 0.0112508Z" fill="#FF725E"/>
<path d="M39.5471 3.76765C39.5295 3.77849 39.1546 3.19693 38.7096 2.46911C38.2647 1.74108 37.9184 1.14213 37.9362 1.1315C37.9538 1.12066 38.3288 1.70201 38.7737 2.43004C39.2186 3.15786 39.5647 3.75681 39.5471 3.76765Z" fill="#FF725E"/>
<path d="M39.5466 3.77175C39.5384 3.77175 39.5071 3.74189 39.2851 3.39761C39.127 3.15235 38.9212 2.82321 38.7062 2.47137C38.3247 1.84706 37.9236 1.16547 37.9318 1.13171C37.9322 1.13008 37.9332 1.12905 37.9338 1.12844C37.9397 1.12496 37.9498 1.11801 38.1973 1.50176C38.3554 1.74703 38.5612 2.07616 38.7764 2.42821C38.9914 2.78025 39.1904 3.11328 39.3365 3.36591C39.5648 3.76091 39.5543 3.76725 39.5486 3.77093C39.5482 3.77134 39.5476 3.77175 39.5466 3.77175ZM37.9397 1.13765C37.9555 1.19533 38.2466 1.70448 38.7128 2.46728C39.1788 3.23008 39.4991 3.72123 39.5433 3.76152C39.5273 3.70384 39.2364 3.19469 38.7703 2.43209C38.3041 1.6695 37.9837 1.17835 37.9397 1.13765Z" fill="#FF725E"/>
<path d="M37.7443 5.30263C37.7423 5.31245 37.5973 5.29117 37.3659 5.24269C37.1345 5.19421 36.8169 5.11648 36.4707 5.0144C36.1244 4.91213 35.8155 4.80514 35.5948 4.72025C35.3741 4.63556 35.2407 4.5746 35.2442 4.5654C35.2481 4.55537 35.3876 4.59874 35.6122 4.67034C35.8368 4.74214 36.1469 4.84073 36.4918 4.9426C36.8365 5.04407 37.1507 5.12957 37.3782 5.19114C37.6058 5.25272 37.7466 5.2922 37.7443 5.30263Z" fill="#FF725E"/>
<path d="M37.7291 5.30842C37.7152 5.30842 37.6886 5.30597 37.6374 5.29799C37.5671 5.28715 37.4717 5.26915 37.3619 5.24603C37.2054 5.2133 36.8812 5.13986 36.4665 5.01774C36.0525 4.89562 35.7399 4.78107 35.5904 4.72359C35.4857 4.68349 35.3961 4.64688 35.3308 4.61783C35.2339 4.57446 35.2361 4.56833 35.2378 4.56383C35.2421 4.55298 35.2911 4.56464 35.6103 4.66651C35.7903 4.7242 36.1257 4.83139 36.4897 4.93878C36.8215 5.03656 37.1211 5.11839 37.376 5.18732C37.699 5.27487 37.7473 5.29144 37.7448 5.3031C37.7444 5.30556 37.7438 5.30842 37.7291 5.30842ZM35.2472 4.5673C35.2656 4.58162 35.3771 4.63379 35.5929 4.71663C35.7424 4.77411 36.055 4.88867 36.4686 5.01079C36.883 5.13291 37.207 5.20614 37.3635 5.23887C37.5869 5.28592 37.699 5.30126 37.7299 5.30126C37.7319 5.30126 37.7336 5.30126 37.735 5.30106C37.709 5.28551 37.5241 5.23519 37.3742 5.19448C37.1193 5.12554 36.8194 5.04372 36.4876 4.94594C36.1235 4.83834 35.788 4.73115 35.6078 4.67367C35.4677 4.62867 35.2781 4.56833 35.2472 4.5673Z" fill="#FF725E"/>
<path d="M36.9528 8.03641C36.9549 8.05707 36.4461 8.12274 35.8169 8.18329C35.1875 8.24384 34.6759 8.27616 34.6738 8.2555C34.6718 8.23504 35.1803 8.16917 35.8098 8.10862C36.439 8.04828 36.951 8.01596 36.9528 8.03641Z" fill="#FF725E"/>
<path d="M34.7384 8.26568C34.7002 8.26568 34.6767 8.26384 34.672 8.25995C34.6703 8.25872 34.6699 8.25729 34.6699 8.25627C34.6699 8.25525 34.6699 8.25381 34.6712 8.25218C34.6928 8.22579 35.2736 8.15685 35.8091 8.1053C36.3442 8.05396 36.9278 8.0108 36.954 8.03269C36.9557 8.03391 36.9561 8.03534 36.9561 8.03637C36.9561 8.03739 36.9561 8.03882 36.9548 8.04046C36.9332 8.06685 36.3524 8.13578 35.8171 8.18733C35.3793 8.22927 34.9099 8.26568 34.7384 8.26568ZM34.6791 8.25525C34.7196 8.26731 35.1553 8.24318 35.8163 8.17976C36.4774 8.11615 36.9096 8.05723 36.9469 8.03698C36.9066 8.02471 36.4711 8.04885 35.8099 8.11246C35.1486 8.17608 34.7164 8.2352 34.6791 8.25525Z" fill="#FF725E"/>
<path d="M93.2676 80.8154L94.0756 86.1741L94.0623 87.6025L85.584 87.5665C85.637 86.7568 90.0301 85.1494 90.0301 85.1494L89.0018 80.9513L93.2676 80.8154Z" fill="#455A64"/>
<path d="M92.6467 84.7944C92.8105 84.8401 92.9232 85.025 92.8844 85.1907C92.8455 85.3564 92.6585 85.4723 92.4939 85.4298C92.3292 85.387 92.1872 85.1692 92.2443 85.009C92.3014 84.8488 92.5286 84.7245 92.6782 84.8055" fill="white"/>
<path d="M94.0603 87.6149L94.0705 86.8853L85.9164 87.1618C85.9164 87.1618 85.5392 87.3269 85.5826 87.5926L94.0603 87.6149Z" fill="#263238"/>
<path d="M89.8928 85.1059C89.894 85.1474 90.1008 85.167 90.3042 85.3008C90.5108 85.4295 90.6151 85.6093 90.6531 85.5931C90.6914 85.5851 90.6306 85.3374 90.3819 85.1795C90.1346 85.0195 89.884 85.0678 89.8928 85.1059Z" fill="#263238"/>
<path d="M88.9935 85.4699C88.9839 85.51 89.1629 85.5812 89.3028 85.7569C89.4479 85.9285 89.4826 86.1179 89.5238 86.1163C89.5626 86.123 89.5923 85.8806 89.4143 85.6654C89.2382 85.4488 88.9946 85.4306 88.9935 85.4699Z" fill="#263238"/>
<path d="M88.4953 86.5302C88.5328 86.5392 88.5915 86.3326 88.4861 86.1053C88.3822 85.8772 88.1875 85.787 88.1699 85.8216C88.1464 85.8556 88.2716 85.9777 88.3552 86.1655C88.4432 86.3512 88.4542 86.5259 88.4953 86.5302Z" fill="#263238"/>
<path d="M89.9643 84.1054C89.9815 84.1433 90.1718 84.087 90.4056 84.1038C90.64 84.1159 90.8216 84.1952 90.8433 84.1598C90.8675 84.13 90.6903 83.9761 90.4146 83.96C90.139 83.9418 89.9441 84.0729 89.9643 84.1054Z" fill="#263238"/>
<path d="M80.6686 25.7066L84.9672 32.7872C85.7936 33.8861 86.3934 35.0879 85.3552 35.9896C84.2124 36.9825 82.4675 36.8027 81.5519 35.597C81.0671 34.9588 80.6735 34.4333 80.6735 34.4333C80.6735 34.4333 78.9307 35.5285 77.5781 34.0099C76.7969 33.1327 75.2017 30.9879 73.9938 29.3326C73.177 28.2135 73.3544 26.6558 74.4003 25.7473L75.3278 24.9416C77.0058 23.6473 79.4212 23.9932 80.6686 25.7066Z" fill="#FFBF9D"/>
<path d="M80.666 34.43C80.666 34.43 81.6831 33.6461 82.1515 32.1025C82.1515 32.1025 82.6273 33.6488 80.9755 34.8414L80.666 34.43Z" fill="#FF9A6C"/>
<path d="M75.5345 30.5455C75.5865 30.5504 75.6458 30.2832 75.8823 30.0789C76.1155 29.8715 76.3941 29.8424 76.3945 29.7913C76.3959 29.7676 76.3235 29.7401 76.2003 29.7506C76.0786 29.7604 75.906 29.8173 75.7595 29.9455C75.6133 30.074 75.5366 30.2356 75.5136 30.3526C75.4897 30.4712 75.51 30.5445 75.5345 30.5455Z" fill="#263238"/>
<path d="M78.3802 29.5661C78.4768 29.6853 78.6574 29.7021 78.7838 29.6037C78.91 29.5055 78.9346 29.3292 78.838 29.2097C78.7415 29.0905 78.5608 29.0735 78.4346 29.1719C78.3082 29.2703 78.2839 29.4468 78.3802 29.5661Z" fill="#263238"/>
<path d="M76.187 31.1794C76.2835 31.2986 76.4641 31.3154 76.5906 31.217C76.7168 31.1188 76.7413 30.9425 76.6448 30.823C76.5482 30.7038 76.3676 30.6868 76.2412 30.7852C76.115 30.8834 76.0904 31.0601 76.187 31.1794Z" fill="#263238"/>
<path d="M77.8594 28.5967C77.9116 28.6016 77.9711 28.3343 78.2074 28.1301C78.4406 27.9227 78.7192 27.8936 78.7198 27.8425C78.7212 27.8188 78.649 27.7911 78.5257 27.802C78.404 27.8118 78.2313 27.8687 78.0849 27.9967C77.9386 28.1252 77.8621 28.2868 77.839 28.4038C77.8148 28.5222 77.8351 28.5955 77.8594 28.5967Z" fill="#263238"/>
<path d="M78.5945 31.1644C78.5839 31.1501 78.4153 31.2522 78.1513 31.4281C78.0856 31.4743 78.0181 31.5118 77.9723 31.4794C77.9203 31.4483 77.889 31.3614 77.8573 31.2659C77.7873 31.0709 77.7139 30.8666 77.637 30.6524C77.3171 29.7843 77.0295 29.0918 76.9947 29.1049C76.9599 29.1182 77.1909 29.8325 77.511 30.7005C77.5914 30.9132 77.6677 31.1163 77.7413 31.3103C77.7781 31.3984 77.8062 31.5101 77.9156 31.5737C77.9708 31.6046 78.0435 31.5989 78.0911 31.5758C78.14 31.5541 78.1744 31.5253 78.2057 31.5011C78.456 31.3064 78.6052 31.1787 78.5945 31.1644Z" fill="#263238"/>
<path d="M79.448 30.7219C79.4077 30.753 79.6296 31.0095 79.5685 31.3816C79.5081 31.7541 79.2101 31.9624 79.2393 32C79.2498 32.0192 79.3432 31.9969 79.4613 31.9C79.5777 31.8057 79.711 31.6261 79.7487 31.3984C79.7855 31.1707 79.7137 30.9721 79.6313 30.8594C79.5478 30.744 79.4641 30.7054 79.448 30.7219Z" fill="#263238"/>
<path d="M77.259 28.0976C77.338 28.1416 77.5473 27.9066 77.8529 27.6996C78.1544 27.4862 78.4481 27.3735 78.4348 27.2839C78.4273 27.2422 78.336 27.2156 78.1918 27.2319C78.0486 27.2477 77.8547 27.3127 77.6725 27.4385C77.4906 27.5648 77.3613 27.7233 77.2961 27.852C77.23 27.981 77.2226 28.0759 77.259 28.0976Z" fill="#263238"/>
<path d="M74.9033 29.8652C74.9915 29.8828 75.1056 29.686 75.2987 29.5136C75.4859 29.3344 75.6909 29.236 75.6802 29.147C75.6733 29.1053 75.6007 29.0742 75.4843 29.0864C75.3691 29.0977 75.214 29.1601 75.0833 29.2808C74.9528 29.4017 74.8786 29.5514 74.8583 29.6653C74.837 29.7801 74.8622 29.855 74.9033 29.8652Z" fill="#263238"/>
<path d="M81.1436 27.3059C81.1599 27.2718 81.9272 26.0776 82.8056 27.1562C83.6838 28.2348 82.4198 28.8941 82.3928 28.8647C82.3656 28.8352 81.1436 27.3059 81.1436 27.3059Z" fill="#FFBF9D"/>
<path d="M82.3854 28.1858C82.3874 28.1784 82.415 28.1838 82.4586 28.1723C82.5011 28.1613 82.5623 28.1277 82.6014 28.0608C82.6814 27.9262 82.63 27.6672 82.4768 27.4686C82.3997 27.3682 82.3029 27.2915 82.2051 27.2424C82.108 27.1902 82.012 27.1767 81.9464 27.2131C81.8785 27.2463 81.866 27.3138 81.8774 27.3549C81.8875 27.3968 81.912 27.4128 81.9077 27.4193C81.9069 27.4244 81.8699 27.4201 81.8423 27.3686C81.8294 27.3434 81.8212 27.3078 81.8296 27.2665C81.8384 27.2244 81.8676 27.1826 81.9112 27.1544C81.999 27.0924 82.1362 27.108 82.2436 27.1618C82.3559 27.2123 82.4668 27.2966 82.5535 27.4093C82.7235 27.6323 82.7779 27.9262 82.6587 28.0982C82.5989 28.1799 82.5169 28.2085 82.4635 28.2097C82.4085 28.2101 82.3831 28.1907 82.3854 28.1858Z" fill="#FF9A6C"/>
<path d="M81.7021 26.763C81.5084 26.8634 81.3599 27.2517 81.4219 27.4607C81.4839 27.67 81.6164 27.8529 81.6786 28.0619C81.7408 28.271 81.7048 28.5402 81.5117 28.6416C81.3785 28.7114 81.2094 28.6766 81.085 28.5921C80.9606 28.5076 80.8714 28.3814 80.7878 28.2564C80.4239 27.7125 80.1045 27.1369 79.6954 26.6263C79.2863 26.1155 78.7704 25.6639 78.1459 25.4683C77.5214 25.273 76.7766 25.3773 76.3186 25.8449C76.0152 26.1546 75.8638 26.5846 75.5793 26.9115C75.2418 27.2991 74.7179 27.5164 74.2051 27.4814C74.1394 27.4769 73.8816 27.5112 73.8816 27.5112C73.8596 27.4859 73.693 27.2457 73.7102 27.0909C73.8366 25.9378 74.8508 24.7654 75.8857 24.2414C76.9206 23.7173 78.2375 23.6254 79.2941 24.1037C80.3506 24.5817 81.2038 25.7827 81.7021 26.763Z" fill="#263238"/>
<path d="M74.5018 26.3122C75.1038 25.8321 76.4007 25.091 77.1697 25.0519C77.2605 25.0472 77.3804 25.067 77.3945 25.1568C77.4051 25.225 77.3436 25.28 77.2902 25.3236C76.9338 25.6144 76.1669 26.5417 75.9151 26.9267C75.6633 27.3117 75.3964 27.7009 75.0204 27.9659C74.6444 28.231 74.1324 28.35 73.7177 28.1508L73.6171 28.3334C73.507 27.5717 73.9 26.7923 74.5018 26.3122Z" fill="#263238"/>
<path d="M73.7625 29.108C73.7625 29.108 73.8131 28.262 74.457 27.5982C75.686 26.3316 78.2176 24.8483 81.3472 26.1415C81.3472 26.1415 80.9362 25.186 80.5302 24.7186C80.2589 24.4065 78.457 22.7094 76.0358 23.7867C76.0358 23.7867 72.1983 25.1905 73.7625 29.108Z" fill="#455A64"/>
<g opacity="0.2">
<path d="M73.7625 29.108C73.7625 29.108 73.7472 28.1646 74.538 27.4139C75.6805 26.3293 78.398 24.9228 81.3474 26.1415C81.3474 26.1415 80.9364 25.186 80.5304 24.7186C80.2591 24.4065 78.4572 22.7094 76.036 23.7867C76.036 23.7867 72.1983 25.1905 73.7625 29.108Z" fill="black"/>
</g>
<path d="M80.8834 25.9709C79.4723 25.5049 78.0386 25.5873 76.6103 25.8134C75.1821 26.0394 73.1543 26.7973 71.8562 27.4339C71.4665 27.6249 71.0723 27.8383 70.798 28.1748C70.5237 28.5111 70.3944 29.0008 70.5902 29.388C70.8354 29.8728 72.0745 29.8734 72.6159 29.8266C73.1572 29.7798 74.1415 29.546 74.1415 29.546C74.1415 29.546 73.4886 28.8136 74.54 27.6382C75.9734 26.0357 80.9681 25.9696 80.8834 25.9709Z" fill="#455A64"/>
<path d="M83.5404 57.4662C83.5404 57.4662 82.678 49.7746 82.8306 48.7403C83.0225 47.4401 83.3719 46.35 83.3719 46.35L83.0411 38.2344L86.7154 38.5128L85.1793 54.3272L85.4021 57.2207L83.5404 57.4662Z" fill="#FF9A6C"/>
<path d="M83.5405 57.4663C83.5405 57.4663 83.042 59.8647 83.0246 60.3675C83.0072 60.8701 83.1025 62.7249 83.1025 62.7249C83.1025 62.7249 83.3365 63.0196 83.6139 62.3262C83.8913 61.6329 83.9433 60.6795 83.9433 60.6795L84.1513 60.0382L85.16 56.9463L83.5405 57.4663Z" fill="#FF9A6C"/>
<path d="M84.1507 61.39C84.1507 61.39 84.1853 62.2047 84.584 62.3087C84.9826 62.4126 85.0866 62.43 85.1559 62.1873C85.2253 61.9447 85.0346 61.39 85.0346 61.39C85.0346 61.39 85.4852 61.4593 85.6413 61.2861C85.7974 61.1128 85.7281 60.8006 85.7281 60.8006C85.7281 60.8006 86.1267 60.9393 86.1961 60.6619C86.2654 60.3846 85.9692 59.9687 85.9692 59.9687C85.9692 59.9687 85.1561 58.9113 84.8442 59.1887C84.5322 59.4661 84.7229 59.882 84.7229 59.882C84.7229 59.882 84.3457 59.7842 84.2917 60.0931C84.2376 60.402 84.4629 61.0952 84.4629 61.0952C84.4629 61.0952 84.2374 61.0085 84.1509 61.1298C84.0642 61.2513 84.1507 61.39 84.1507 61.39Z" fill="#FF9A6C"/>
<path d="M75.2856 87.1909C75.2562 87.1909 75.2324 86.8333 75.2324 86.3921C75.2324 85.9508 75.2564 85.5933 75.2856 85.5933C75.3151 85.5933 75.3388 85.9508 75.3388 86.3921C75.3388 86.8331 75.3151 87.1909 75.2856 87.1909Z" fill="#263238"/>
<path d="M75.6277 85.8713C75.9509 85.0005 76.2741 84.1297 76.5973 83.2587C77.3732 81.1683 78.1491 79.0777 78.925 76.9873C79.8576 74.4745 80.7904 71.9619 81.723 69.4491C82.5338 67.2644 83.3447 65.0797 84.1556 62.8951C84.4225 62.1756 84.6897 61.4564 84.9566 60.737C85.0822 60.3986 85.2287 60.0613 85.3355 59.7162C85.34 59.7017 85.3461 59.6874 85.3514 59.673C85.51 59.2457 84.8267 59.0614 84.6694 59.4851C84.3462 60.3559 84.023 61.2267 83.6998 62.0977C82.9239 64.1881 82.148 66.2787 81.3719 68.3691C80.4393 70.8819 79.5066 73.3947 78.574 75.9073C77.7631 78.092 76.9522 80.2766 76.1414 82.4613C75.8744 83.1808 75.6073 83.9002 75.3403 84.6194C75.2147 84.9578 75.0682 85.2953 74.9615 85.6402C74.957 85.6547 74.9508 85.669 74.9455 85.6833C74.7872 86.1107 75.4704 86.295 75.6277 85.8713Z" fill="#E0E0E0"/>
<path d="M75.6285 85.8714C75.6256 85.8694 75.6205 85.925 75.5546 86.0023C75.4922 86.0768 75.3339 86.1599 75.1406 86.0977C75.0496 86.0674 74.9426 85.994 74.9176 85.8671C74.9009 85.8058 74.915 85.7393 74.934 85.6755C74.9567 85.6159 74.9743 85.5484 74.9976 85.4821C75.0868 85.2127 75.213 84.9112 75.3388 84.5667C75.8478 83.1843 76.5819 81.1897 77.4889 78.7256C79.315 73.7943 81.8358 66.9869 84.6201 59.4682C84.6669 59.3352 84.7915 59.225 84.9322 59.2012C85.0713 59.1754 85.22 59.2108 85.327 59.3115C85.3773 59.3634 85.4178 59.4309 85.4254 59.5058C85.4354 59.578 85.4162 59.6549 85.3949 59.712C85.3569 59.828 85.3166 59.9491 85.2732 60.0649C85.093 60.5286 84.92 60.985 84.7514 61.4448C84.4114 62.3602 84.0763 63.2621 83.747 64.1485C83.0881 65.9208 82.4523 67.6303 81.8469 69.259C80.6338 72.5147 79.5415 75.4467 78.6236 77.9102C77.7033 80.3694 76.9583 82.36 76.442 83.7393C76.183 84.4244 75.9817 84.957 75.8439 85.3222C75.7751 85.5006 75.7226 85.6372 75.6857 85.7329C75.6495 85.8252 75.6285 85.8714 75.6285 85.8714C75.6285 85.8714 75.6428 85.8225 75.6755 85.7291C75.7101 85.6325 75.7594 85.4946 75.8236 85.3146C75.9572 84.9478 76.1523 84.4129 76.4031 83.7248C76.9119 82.3426 77.646 80.3481 78.553 77.8838C79.4648 75.418 80.5499 72.4834 81.7548 69.2246C82.3585 67.5953 82.9922 65.885 83.6492 64.1119C83.978 63.2253 84.3126 62.3232 84.6522 61.4076C84.8195 60.9502 84.995 60.4871 85.1736 60.0276C85.217 59.9117 85.2548 59.7973 85.2943 59.6772C85.3415 59.5674 85.3282 59.4618 85.2528 59.3874C85.1773 59.315 85.0588 59.2849 84.9525 59.3053C84.8455 59.325 84.7583 59.4015 84.7201 59.5048C81.9244 67.0193 79.3934 73.8227 77.5597 78.7511C76.6394 81.2103 75.8944 83.2009 75.3779 84.5807C75.2486 84.9253 75.1195 85.225 75.0277 85.492C74.9892 85.6264 74.9166 85.7485 74.9436 85.8612C74.9639 85.9762 75.0612 86.0465 75.1473 86.077C75.33 86.1394 75.4834 86.0643 75.5464 85.9946C75.6131 85.9224 75.6223 85.8682 75.6285 85.8714Z" fill="#263238"/>
<path d="M72.4179 86.6721C72.0673 86.6635 71.7691 86.9591 71.8081 87.3076C71.8147 87.3651 71.8296 87.4228 71.856 87.4788C72.0321 87.8532 72.2524 87.8313 73.5076 87.8313H75.9816C76.099 87.8313 76.1943 87.736 76.1943 87.6186V87.414C76.1943 87.3162 76.1282 87.2313 76.0333 87.2078C75.6565 87.1143 74.7176 86.8832 74.3005 86.7962C73.9333 86.7197 72.9713 86.6858 72.4179 86.6721Z" fill="#E0E0E0"/>
<path d="M72.4181 86.672C72.4184 86.6683 72.4531 86.6657 72.5192 86.6638C72.5978 86.6634 72.6933 86.6632 72.8087 86.6626C73.0601 86.6657 73.4236 86.671 73.873 86.7035C73.9853 86.7123 74.1031 86.7223 74.2262 86.7407C74.3512 86.76 74.4715 86.7943 74.6016 86.8219C74.86 86.8817 75.1349 86.9453 75.4235 87.012C75.5684 87.0457 75.7167 87.0803 75.8678 87.1157L75.982 87.1425C76.0182 87.1523 76.0597 87.1562 76.107 87.1807C76.1951 87.2251 76.2522 87.3286 76.2469 87.4244L76.2471 87.5461C76.2455 87.5858 76.2522 87.6265 76.2397 87.6807C76.2168 87.7813 76.1297 87.864 76.0258 87.8803C75.8419 87.8881 75.685 87.8828 75.5101 87.8844C74.8254 87.883 74.1741 87.8816 73.5784 87.8803C73.2816 87.8785 72.9997 87.8793 72.7346 87.8728C72.6021 87.8687 72.4736 87.8629 72.3492 87.8472C72.2263 87.831 72.1011 87.8026 72.0006 87.7294C71.812 87.5712 71.7492 87.3411 71.7832 87.1554C71.8174 86.968 71.9331 86.8383 72.0397 86.7675C72.1485 86.6953 72.25 86.6745 72.3163 86.6683C72.3498 86.6642 72.3754 86.6663 72.3926 86.6675C72.4096 86.6685 72.4181 86.6702 72.4181 86.672C72.4226 86.6869 72.2664 86.6591 72.0637 86.8013C71.9673 86.8723 71.8669 86.9962 71.8421 87.1646C71.8137 87.3274 71.8845 87.5406 72.0452 87.6684C72.2177 87.783 72.4787 87.7754 72.7366 87.7844C73.0013 87.7838 73.2828 87.783 73.5786 87.7821C74.1741 87.7809 74.8256 87.7795 75.5103 87.7779C75.6776 87.7768 75.8596 87.7803 76.0086 87.7758C76.0705 87.7664 76.1237 87.7165 76.1374 87.6561C76.145 87.63 76.1411 87.5878 76.1424 87.5463L76.1426 87.4246C76.1458 87.3579 76.1117 87.3012 76.0583 87.272C76.0352 87.2583 75.9969 87.2523 75.9574 87.2421L75.8437 87.2147C75.6929 87.1783 75.5452 87.1427 75.401 87.1077C75.1136 87.0378 74.8401 86.9711 74.583 86.9085C74.4554 86.8792 74.3304 86.842 74.2132 86.8219C74.0943 86.8021 73.9775 86.7896 73.8664 86.7786C73.4209 86.7366 73.0578 86.7199 72.8074 86.7041C72.6923 86.6966 72.5971 86.6904 72.5188 86.6853C72.4527 86.6802 72.4179 86.6757 72.4181 86.672Z" fill="#263238"/>
<path d="M89.6859 51.713C89.6859 51.8779 86.2595 65.685 86.0533 67.327C85.8471 68.969 85.9083 68.7065 86.3007 70.7834C86.6942 72.8668 88.6717 85.0931 88.6717 85.0931L94.5548 84.8745L93.3518 68.118L97.8613 57.412C97.8613 57.412 99.9192 54.6848 99.6146 51.38C99.4442 49.5322 98.1798 47.2368 98.1798 47.2368L88.9331 50.3044L89.6859 51.713Z" fill="#263238"/>
<path d="M89.5986 50.4109L90.0886 51.3799L91.0799 50.9358L90.6134 50.0264L89.5986 50.4109Z" fill="#455A64"/>
<path d="M91.3535 49.7546L91.7964 50.6502L95.6724 49.3073L95.3533 48.4639L91.3535 49.7546Z" fill="#455A64"/>
<path d="M96.0488 48.299L96.3178 49.1109L98.4407 48.3152L98.0844 47.6035L96.0488 48.299Z" fill="#455A64"/>
<path d="M94.9076 54.0865C94.9078 54.093 94.8462 54.1033 94.7333 54.1078C94.6206 54.1125 94.4564 54.1068 94.2561 54.0761C93.8578 54.0174 93.3065 53.8298 92.8252 53.4303C92.3439 53.0306 92.0579 52.5233 91.9268 52.1424C91.8597 51.9511 91.8239 51.7907 91.8077 51.679C91.7914 51.5674 91.7901 51.5048 91.7967 51.5039C91.8157 51.5005 91.8482 51.7484 91.9971 52.1156C92.143 52.4805 92.4294 52.9631 92.8931 53.3482C93.3568 53.733 93.8838 53.9257 94.2694 54.0018C94.6578 54.0808 94.9076 54.0671 94.9076 54.0865Z" fill="#455A64"/>
<path d="M94.4511 83.4164C94.4519 83.4459 93.1033 83.5026 91.4394 83.5433C89.7749 83.584 88.4254 83.593 88.4248 83.5635C88.424 83.5341 89.7724 83.4774 91.4369 83.4367C93.1006 83.3962 94.4505 83.387 94.4511 83.4164Z" fill="#455A64"/>
<path d="M90.4403 52.7964C90.4421 52.7968 90.437 52.824 90.4253 52.8764C90.4118 52.9337 90.3938 53.0106 90.3709 53.1086C90.3196 53.3178 90.2463 53.6165 90.1529 53.9986C89.9598 54.7765 89.683 55.8926 89.3414 57.2693C89.0043 58.6533 88.6033 60.2986 88.1582 62.1249C87.9403 63.0397 87.7125 64.0003 87.4891 64.9988C87.2682 65.9968 87.0284 67.0319 86.8658 68.0999C86.8576 68.2318 86.8423 68.3631 86.839 68.4945C86.8552 68.627 86.8672 68.7586 86.8863 68.8907C86.9278 69.155 86.9644 69.418 87.01 69.6784C87.0998 70.1993 87.1882 70.7125 87.2751 71.2167C87.4582 72.2238 87.6347 73.1952 87.8029 74.1209C88.1478 75.9691 88.4585 77.634 88.7199 79.0344C88.9809 80.4286 89.1927 81.5588 89.3401 82.3466C89.4107 82.7334 89.4662 83.0362 89.5048 83.2479C89.5218 83.3471 89.5351 83.4248 89.5451 83.4827C89.5537 83.5357 89.557 83.5631 89.5553 83.5635C89.5535 83.5639 89.5465 83.5373 89.5345 83.485C89.522 83.4275 89.5052 83.3504 89.4837 83.2522C89.4404 83.0413 89.3786 82.74 89.2994 82.3546C89.144 81.5682 88.921 80.4403 88.6459 79.0487C88.3781 77.6495 88.0598 75.9858 87.7063 74.1391C87.5361 73.2136 87.3576 72.2422 87.1722 71.2354C87.0847 70.7307 86.9957 70.2173 86.9053 69.696C86.8595 69.4356 86.8224 69.1711 86.7807 68.9058C86.7615 68.7727 86.7488 68.6362 86.7324 68.501C86.7355 68.3638 86.7508 68.2249 86.76 68.0862C86.9243 67.0075 87.1645 65.9755 87.387 64.9758C87.6118 63.9768 87.842 63.0166 88.0625 62.102C88.5045 60.2732 88.9175 58.63 89.2679 57.2509C89.6233 55.8775 89.9115 54.7643 90.1124 53.9882C90.2142 53.6083 90.294 53.3111 90.3498 53.103C90.3771 53.0063 90.3985 52.9302 90.4145 52.8735C90.4298 52.822 90.4384 52.7958 90.4403 52.7964Z" fill="#455A64"/>
<path d="M83.7035 30.741L84.9073 31.1941L86.7273 31.3739C88.7745 31.728 90.5386 33.7954 92.1469 35.8159C93.3918 37.3801 96.3088 42.4264 97.563 44.6262C97.9494 45.3039 98.1437 46.0737 98.1257 46.8537L98.1159 47.2792L88.8017 50.3285C88.517 50.4218 88.2093 50.2737 88.1044 49.993L86.8572 47.6034L83.2316 40.5486L81.9261 36.4913L81.7217 36.8732L81.0723 35.4937L83.7035 30.741Z" fill="#FF725E"/>
<path opacity="0.3" d="M88.7992 42.4146L88.4052 37.6061L88.6059 36.0269L88.1327 37.2352L88.0691 42.1299L87.389 42.1454L87.3912 42.5056H87.2617L87.5757 48.8685L87.9351 49.5572C87.9351 49.5572 88.2669 48.4853 88.2669 47.8506C88.2669 47.312 88.1475 43.8392 88.1113 42.8L88.4547 42.7945C88.6578 42.7912 88.8158 42.6169 88.7992 42.4146Z" fill="black"/>
<path d="M83.085 39.1965C83.085 39.1965 83.9098 44.5572 84.0333 45.7531C84.1571 46.9489 83.6209 47.7324 83.8271 50.2478C84.0333 52.7633 84.0521 57.7116 84.0521 57.7116L86.3426 57.5054C86.3426 57.5054 87.7839 49.1956 87.5777 47.9997C87.3715 46.8039 87.4077 45.0504 87.4077 45.0504L87.3735 39.4852L83.085 39.1965Z" fill="#FFBF9D"/>
<path d="M84.1229 32.0932C84.1229 32.0932 82.0597 34.042 82.0892 35.9004C82.1235 38.0563 82.3138 42.3667 82.3138 42.3667L88.0175 42.1311L88.1355 37.1259L88.8312 35.4866C88.8312 35.4866 87.8743 33.6887 86.3651 32.697C84.856 31.7049 84.1229 32.0932 84.1229 32.0932Z" fill="#FF725E"/>
<path d="M84.9666 31.194C84.9693 31.1965 84.9453 31.229 84.8968 31.2889C84.8402 31.3573 84.7692 31.443 84.6821 31.5483C84.4845 31.7831 84.2146 32.1039 83.8855 32.4954C83.5537 32.8978 83.1456 33.3711 82.7451 33.9275C82.5518 34.209 82.3775 34.5255 82.2889 34.8847C82.2421 35.0635 82.2124 35.2517 82.1738 35.4433L82.1435 35.5875C82.1351 35.635 82.1322 35.6802 82.1261 35.727C82.1175 35.8213 82.1181 35.9216 82.1134 36.0196C82.1179 37.6104 82.2053 39.0546 82.2447 40.0981C82.2662 40.6093 82.284 41.028 82.2969 41.3346C82.301 41.4711 82.3043 41.5825 82.3067 41.6711C82.3077 41.748 82.3067 41.7887 82.303 41.7889C82.2994 41.7892 82.2932 41.7491 82.2852 41.6726C82.2775 41.5842 82.2674 41.4733 82.2554 41.3371C82.2321 41.0456 82.202 40.6238 82.1695 40.1022C82.1105 39.0581 82.0113 37.618 82.0068 36.0179C82.0115 35.9169 82.0109 35.8185 82.0201 35.7168C82.0287 35.6113 82.0492 35.5157 82.0696 35.4227C82.1083 35.2339 82.1388 35.0436 82.1877 34.8587C82.2812 34.4856 82.4651 34.1564 82.6641 33.8719C83.0757 33.3098 83.4878 32.8444 83.828 32.4467C84.1711 32.0519 84.4534 31.7369 84.6508 31.5213C84.744 31.4215 84.8199 31.3401 84.8805 31.2752C84.9343 31.2194 84.9637 31.1914 84.9666 31.194Z" fill="#263238"/>
<path d="M88.6071 36.0264C88.6098 36.0276 88.6018 36.054 88.5834 36.1037C88.5605 36.1626 88.5327 36.2344 88.4989 36.3218C88.4163 36.5239 88.304 36.7976 88.1647 37.1382L88.1673 37.1265C88.1551 38.1968 88.1225 39.9312 88.0765 41.885C88.0745 41.9697 88.0724 42.0539 88.0706 42.1323L88.0694 42.1824L88.0194 42.1842C86.4384 42.2432 85.0184 42.2961 83.9761 42.335C83.4721 42.3489 83.0601 42.3604 82.759 42.3685C82.6248 42.3702 82.5156 42.3714 82.4288 42.3724C82.3534 42.3722 82.3137 42.3704 82.3135 42.3667C82.3133 42.3632 82.3527 42.3581 82.4278 42.3516C82.5146 42.3454 82.6234 42.3377 82.7572 42.3282C83.0579 42.3117 83.4694 42.289 83.9729 42.2614C85.0147 42.2141 86.4343 42.1497 88.0147 42.0781L87.9638 42.13C87.9656 42.0517 87.9677 41.9674 87.9695 41.8827C88.0156 39.929 88.0649 38.1951 88.1031 37.1253L88.1033 37.1187L88.1056 37.1136C88.2563 36.7779 88.3774 36.5081 88.467 36.3089C88.5069 36.2242 88.5398 36.1545 88.5668 36.0974C88.591 36.0493 88.6045 36.0254 88.6071 36.0264Z" fill="#263238"/>
<path d="M88.608 35.2653C88.5874 35.2694 88.5538 34.9486 88.3646 34.4745C88.1799 34.0034 87.8064 33.3807 87.1966 32.8984C86.5862 32.4162 85.894 32.1967 85.393 32.1257C84.8879 32.0513 84.5682 32.0926 84.5674 32.0715C84.5668 32.0652 84.6453 32.0494 84.7895 32.0374C84.9338 32.0249 85.1444 32.0226 85.4028 32.0511C85.916 32.104 86.6332 32.3176 87.2627 32.8149C87.8915 33.3124 88.265 33.9606 88.435 34.4479C88.5223 34.6927 88.5688 34.8983 88.5898 35.0415C88.6117 35.1843 88.6144 35.2645 88.608 35.2653Z" fill="#263238"/>
<path d="M83.4793 55.5933L84.067 57.9795C84.067 57.9795 83.6354 58.4872 83.4578 59.2741C83.28 60.0611 83.331 62.5487 83.331 62.5487C83.331 62.5487 83.9655 62.498 84.0418 61.5587C84.1179 60.6195 84.2196 60.9495 84.2196 60.9495C84.2196 60.9495 85.0826 61.7364 85.5142 61.5333C85.9459 61.3302 86.1234 60.6956 86.1234 60.6956C86.1234 60.6956 86.9864 60.2133 87.0625 59.9594C87.1386 59.7056 86.4026 57.8271 86.4026 57.8271L87.0681 55.4978L85.9383 55.4153L85.3426 56.126L84.9214 55.4119L83.4793 55.5933Z" fill="#263238"/>
<path d="M83.4797 55.5928C83.4777 55.5913 83.5082 55.586 83.5695 55.5764C83.6385 55.5662 83.7295 55.5527 83.8447 55.5355C84.0993 55.4999 84.46 55.4492 84.9182 55.3849L84.9352 55.3825L84.9442 55.3976C85.07 55.6073 85.2134 55.8466 85.3705 56.1087L85.3179 56.1044C85.4969 55.8886 85.6963 55.6478 85.9097 55.3905L85.9217 55.3757L85.9412 55.3772C86.2887 55.4011 86.669 55.4273 87.0714 55.4549L87.1231 55.4584L87.109 55.5087C86.9104 56.2116 86.688 56.9979 86.4501 57.8398L86.4487 57.8085C86.64 58.3044 86.8374 58.825 87.0057 59.3802C87.0468 59.5195 87.0863 59.6602 87.1109 59.8112C87.125 59.8793 87.1256 59.9916 87.0689 60.0581C87.0219 60.1272 86.9648 60.178 86.9077 60.2295C86.6741 60.4267 86.4166 60.5867 86.1496 60.7411L86.1748 60.7092C86.0954 60.9586 85.9727 61.2122 85.7692 61.417C85.7113 61.4695 85.6507 61.5209 85.5797 61.5575C85.5128 61.5996 85.4212 61.6181 85.3418 61.6185C85.1788 61.6142 85.0348 61.5544 84.9012 61.4892C84.6349 61.3525 84.4019 61.1778 84.1844 60.9876L84.1701 60.9751L84.1695 60.9641C84.1689 60.9516 84.1464 60.9301 84.1652 60.943C84.2161 60.9442 84.1889 60.9332 84.1865 60.9581C84.1722 60.9905 84.1625 61.0347 84.1533 61.076C84.1376 61.1615 84.1247 61.2482 84.1157 61.3358C84.094 61.508 84.0918 61.689 84.0435 61.8639C83.9641 62.21 83.7074 62.5439 83.3351 62.5975L83.2819 62.6051L83.2813 62.5486C83.2696 61.6064 83.2756 60.7276 83.3326 59.9325C83.3601 59.1286 83.6608 58.4353 84.0418 57.9569L84.0349 57.9863C83.8575 57.2327 83.7164 56.6332 83.6176 56.2134C83.5726 56.016 83.5372 55.8614 83.5112 55.7482C83.5008 55.7006 83.4924 55.6619 83.4857 55.6302C83.4805 55.6048 83.4785 55.592 83.4797 55.5928C83.481 55.5936 83.4857 55.6083 83.4936 55.6361C83.5026 55.6691 83.5137 55.7092 83.5272 55.7587C83.5573 55.8726 83.5984 56.0287 83.6509 56.2277C83.7571 56.6405 83.9089 57.2301 84.0997 57.971L84.1036 57.9863L84.0928 58.0004C83.7289 58.4717 83.4398 59.1466 83.4188 59.9392C83.3676 60.729 83.366 61.6078 83.3811 62.547L83.3271 62.4983C83.4715 62.4764 83.6207 62.3913 83.7246 62.2726C83.8338 62.155 83.9013 62 83.9435 61.8386C83.9881 61.677 83.9901 61.5033 84.0118 61.3243C84.0208 61.2355 84.0337 61.1459 84.0504 61.0555C84.0607 61.0097 84.0689 60.9653 84.0905 60.9152C84.0952 60.9033 84.1016 60.8896 84.1143 60.8739C84.121 60.863 84.1548 60.8291 84.201 60.8446C84.2601 60.8794 84.255 60.9048 84.2697 60.9334L84.255 60.9101C84.4643 61.0927 84.696 61.2654 84.9483 61.3943C85.0741 61.4565 85.2101 61.5096 85.3431 61.5123C85.4721 61.5172 85.5914 61.4362 85.6945 61.3407C85.878 61.158 85.9991 60.9109 86.0721 60.6808L86.0788 60.6593L86.0973 60.6486C86.3585 60.4981 86.6162 60.3375 86.8382 60.1503C86.8914 60.1027 86.9458 60.0532 86.9816 59.9994C87.0217 59.9468 87.017 59.9002 87.0069 59.8255C86.9846 59.687 86.9462 59.5465 86.9059 59.4094C86.7408 58.8602 86.5448 58.3384 86.3566 57.8443L86.3507 57.8286L86.3552 57.8128C86.598 56.9723 86.8247 56.1872 87.0272 55.4856L87.0648 55.5394C86.6629 55.5083 86.2828 55.4788 85.9355 55.452L85.967 55.4387C85.7507 55.6936 85.5486 55.9321 85.3674 56.1461L85.3377 56.1813L85.3148 56.1418C85.1616 55.8775 85.0215 55.6361 84.899 55.4246L84.9249 55.4373C84.4718 55.4878 84.1155 55.5275 83.8639 55.5555C83.7454 55.5678 83.6518 55.5776 83.581 55.585C83.5159 55.5915 83.4818 55.5942 83.4797 55.5928Z" fill="#455A64"/>
<path d="M74.2821 87.819C74.621 88.406 74.4199 89.1568 73.8326 89.4957C73.2456 89.8347 72.4948 89.6336 72.1559 89.0465C71.8169 88.4594 72.018 87.7087 72.6051 87.3697C73.1922 87.0308 73.9431 87.2319 74.2821 87.819Z" fill="white"/>
<path d="M74.2822 87.8185C74.2728 87.8246 74.221 87.7276 74.0842 87.5926C73.9498 87.4603 73.7088 87.2927 73.3697 87.2533C73.0381 87.2089 72.604 87.3279 72.318 87.6745C72.0288 88.0081 71.9388 88.5727 72.202 89.0192C72.4571 89.4707 72.9912 89.6752 73.4249 89.5914C73.868 89.5171 74.1883 89.2007 74.3155 88.8912C74.4512 88.5776 74.4262 88.2853 74.3789 88.1028C74.3303 87.9171 74.2722 87.8236 74.2822 87.8185C74.2855 87.8166 74.3008 87.8389 74.3274 87.8835C74.3548 87.9275 74.3884 87.9972 74.4186 88.0915C74.4798 88.2767 74.5195 88.5831 74.3849 88.9204C74.2589 89.253 73.9215 89.602 73.4419 89.6881C73.2068 89.7325 72.9438 89.709 72.7046 89.6026C72.4632 89.5008 72.2505 89.3117 72.1098 89.0724C71.9729 88.8308 71.9158 88.5522 71.9484 88.2922C71.9758 88.032 72.0871 87.7923 72.2429 87.611C72.5573 87.2389 73.0282 87.1211 73.3793 87.1782C73.7387 87.2301 73.9841 87.4177 74.114 87.5634C74.1807 87.6366 74.2243 87.7006 74.2486 87.7465C74.2738 87.7923 74.2855 87.8166 74.2822 87.8185Z" fill="#263238"/>
</svg>
