<svg width="96" height="98" viewBox="0 0 96 98" fill="none" xmlns="http://www.w3.org/2000/svg">
<g opacity="0.2">
<path opacity="0.4" d="M78.6328 31.2827C87.5421 46.5055 82.4231 66.0674 67.2016 74.9756C51.9802 83.8841 32.4177 78.7673 23.5084 63.5445C19.2275 56.2303 18.1864 47.9142 19.9486 40.2574C19.9486 40.2574 19.9501 40.2567 19.9506 40.2545L19.9504 40.2508C19.9585 40.2196 19.992 40.0958 20.032 39.9024C20.2068 39.0611 20.2927 37.3798 19.1814 36.2852C17.7769 34.8996 17.0408 35.0678 16.7964 34.1481C16.3778 32.5714 19.0394 31.9506 19.6664 34.0978C20.2811 36.2009 21.677 34.8491 21.7347 34.7927L21.7352 34.7905C24.3345 28.7385 28.8212 23.4342 34.9401 19.8528C50.1618 10.9446 69.7242 16.0613 78.6328 31.2827Z" fill="black"/>
<path opacity="0.4" d="M27.8242 25.5176C27.8242 25.5158 27.826 25.5143 27.8294 25.5125L27.8276 25.5158C27.8258 25.5176 27.8242 25.5176 27.8242 25.5176Z" fill="black"/>
<path opacity="0.4" d="M28.0755 25.2529C27.9434 25.3998 27.8522 25.4895 27.8291 25.5123C27.9108 25.426 27.9924 25.3395 28.0755 25.2529Z" fill="black"/>
<path opacity="0.4" d="M95.7229 17.2064H80.959C80.959 17.2064 81.607 13.0419 83.4335 13.204C83.9384 13.2486 84.2827 13.7613 84.508 14.3111C84.6468 14.6504 85.132 14.6261 85.2325 14.2743C85.7156 12.5817 86.7035 9.99878 88.2348 9.99878C89.8183 9.99878 89.8707 12.9541 89.756 14.7539C89.7391 15.0251 90.0902 15.1455 90.2425 14.9211C90.6603 14.3064 91.2701 13.7157 92.0116 13.8871C92.6449 14.0333 92.9257 14.6899 93.0412 15.3811C93.076 15.5888 93.3636 15.6158 93.4376 15.4186C93.8233 14.3934 94.5074 12.9026 95.234 12.8715C96.344 12.8239 95.7229 17.2064 95.7229 17.2064Z" fill="black"/>
<path opacity="0.4" d="M0.43457 28.7183C0.43457 28.7183 1.01054 25.0195 2.63229 25.1636C3.08125 25.2036 3.38652 25.6584 3.5866 26.1469C3.70994 26.448 4.14075 26.4266 4.23 26.114C4.6591 24.611 5.53667 22.3169 6.89678 22.3169C8.30349 22.3169 8.35008 24.9417 8.24783 26.5402C8.23238 26.781 8.54452 26.8879 8.68011 26.6883C9.0511 26.1422 9.5925 25.618 10.2511 25.77C11.5337 26.066 11.1885 28.7185 11.1885 28.7185L0.43457 28.7183Z" fill="black"/>
<path opacity="0.4" d="M84.6895 65.0786C84.6895 65.0786 85.2654 61.3798 86.8872 61.5237C87.3361 61.5637 87.6414 62.0185 87.8415 62.507C87.9648 62.8081 88.3956 62.7868 88.4849 62.4741C88.914 60.9711 89.7918 58.677 91.1517 58.677C92.5584 58.677 92.605 61.3018 92.5027 62.9003C92.4873 63.1411 92.7994 63.248 92.935 63.0484C93.306 62.5023 93.8474 61.9781 94.506 62.1301C95.7886 62.4261 95.4434 65.0786 95.4434 65.0786H84.6895Z" fill="black"/>
<path opacity="0.4" d="M35.348 13.5076C35.348 13.5076 30.6328 15.0009 31.4709 16.8943C32.309 18.7877 34.1965 15.1588 36.98 15.0622C39.7635 14.9656 39.3258 12.1166 35.348 13.5076Z" fill="black"/>
<path opacity="0.4" d="M67.5752 14.7969C67.3849 14.4531 67.0161 14.2464 66.6238 14.2261C65.8456 14.1859 64.3695 14.3548 64.3594 16.2129C64.3471 18.4918 68.49 16.451 67.5752 14.7969Z" fill="black"/>
<path opacity="0.4" d="M41.6539 11.9721C41.5749 11.8017 41.4065 11.6906 41.2201 11.6673C40.8506 11.6215 40.1415 11.6514 40.0728 12.5365C39.989 13.622 42.0332 12.7915 41.6539 11.9721Z" fill="black"/>
<path opacity="0.4" d="M76.3749 74.3396C76.3749 74.3396 80.4205 71.4941 79.0503 69.9417C77.6804 68.3892 76.9749 72.4182 74.3501 73.3497C71.7252 74.281 73.0015 76.8651 76.3749 74.3396Z" fill="black"/>
<path opacity="0.4" d="M70.8242 77.7055C70.9507 77.8442 71.1451 77.8992 71.3295 77.8651C71.6956 77.7974 72.3628 77.5551 72.1612 76.6906C71.9143 75.6301 70.2156 77.0383 70.8242 77.7055Z" fill="black"/>
<path opacity="0.4" d="M18.0178 40.6864C18.0244 40.4157 17.8771 40.1646 17.6507 40.0161C17.2023 39.7213 16.2661 39.3082 15.6136 40.4093C14.8138 41.7597 17.9862 41.9879 18.0178 40.6864Z" fill="black"/>
</g>
<path opacity="0.1" d="M47.1853 98C61.9367 98 73.8951 96.58 73.8951 94.8284C73.8951 93.0767 61.9367 91.6567 47.1853 91.6567C32.4339 91.6567 20.4756 93.0767 20.4756 94.8284C20.4756 96.58 32.4339 98 47.1853 98Z" fill="black"/>
<path d="M52.9287 69.8169C52.9287 69.8169 59.9036 71.829 66.4092 69.1463L64.5985 66.866C64.5985 66.866 55.2091 67.2683 52.9287 69.8169Z" fill="#111119"/>
<path d="M64.9678 69.8174C64.9523 70.4042 64.9334 70.7555 64.9334 70.7555C63.2585 72.0119 58.5188 72.0019 56.519 71.9362C55.9565 71.9183 55.611 71.896 55.611 71.896C55.5838 71.7746 55.5565 71.6535 55.5298 71.5333C55.2814 70.438 55.0301 69.3908 54.7849 68.4105C53.7087 64.1117 52.749 61.1109 52.749 61.1109C53.6415 59.5142 63.9276 59.6898 63.9276 59.6898C64.7947 61.8787 64.9756 65.5662 64.9862 68.0775C64.9891 68.7636 64.9795 69.3616 64.9678 69.8174Z" fill="#FBAA7F"/>
<path d="M64.9335 70.7556L64.8524 71.3867C64.5672 73.594 63.2112 75.5183 61.2286 76.5283L46.7586 83.9006L45.8867 81.1512L49.1057 77.3284C49.1484 77.233 49.1915 77.1393 49.2342 77.0474L49.2347 77.0469C51.6084 71.9635 54.0408 71.9836 55.3428 71.5603C55.4218 71.5348 55.4816 71.5277 55.5296 71.5331C55.6907 71.5498 55.7216 71.7033 55.9269 71.7389C56.0934 71.7678 56.2873 71.7869 56.5041 71.797C59.1037 71.9166 64.9335 70.7556 64.9335 70.7556Z" fill="#FBAA7F"/>
<path d="M64.9683 69.8173C64.5659 69.8298 57.8796 70.0449 56.3471 70.3514L56.5048 71.7971L56.5195 71.9363L56.545 72.1693C56.545 72.1693 52.4757 73.155 49.2354 77.047C51.6091 71.9636 54.0415 71.9837 55.3435 71.5604C55.4225 71.5349 55.4823 71.5278 55.5303 71.5332C55.282 70.4379 55.0306 69.3907 54.7854 68.4104L54.7866 68.3957C54.7866 68.3957 62.9954 66.7955 64.9808 68.0698C64.9808 68.0698 64.9825 68.0723 64.9867 68.0774C64.9896 68.7635 64.9801 69.3615 64.9683 69.8173Z" fill="#F68E78"/>
<path d="M48.6695 77.8467C49.881 78.7595 50.5144 80.1366 51.0354 81.7218L46.7586 83.9008L45.8867 81.1512L48.6695 77.8467Z" fill="#F25759"/>
<path d="M46.2756 91.0297C46.3266 92.2194 45.2455 94.5292 44.2863 94.8043C43.3273 95.0792 42.3313 92.9089 41.8242 91.9747C41.3179 91.0413 41.2963 89.013 41.6948 87.6529C42.0937 86.2935 42.116 86.4705 41.9503 85.6047C41.7852 84.739 41.2112 85.2031 41.3508 82.5062C41.491 79.8095 42.9482 79.1455 42.9482 79.1455L43.4023 79.2688L46.6242 80.1435L46.4739 81.6048C46.4129 82.2051 46.6108 82.8107 47.0406 83.2347C47.6114 83.7974 49.1022 82.1038 48.4711 84.2917C47.9716 86.0235 46.2253 89.8408 46.2756 91.0297Z" fill="#2C2A40"/>
<path d="M48.6695 77.8467C48.6695 77.8467 50.3526 78.8071 51.0354 81.7218L50.2851 82.104C50.2851 82.104 50.1086 80.2437 48.1973 78.3322L48.6695 77.8467Z" fill="#2C2A40"/>
<path d="M44.2863 94.8043C43.3273 95.0792 42.3313 92.9089 41.8242 91.9747C41.3179 91.0413 41.2963 89.013 41.6948 87.6529C42.0937 86.2935 42.116 86.4705 41.9503 85.6047C41.7852 84.739 41.2112 85.2031 41.3508 82.5062C41.491 79.8095 42.9482 79.1455 42.9482 79.1455L43.4023 79.2688C43.4023 79.2688 41.6913 80.9141 41.9598 83.4289C42.2281 85.9438 42.9659 85.2732 42.3622 87.2517C41.7585 89.2305 42.1195 93.6389 44.2863 94.8043Z" fill="#61617E"/>
<path d="M37.5039 51.2396C37.5039 51.2396 42.7352 58.8851 47.698 57.8121C47.698 57.8121 45.7531 49.2275 37.5039 51.2396Z" fill="#111119"/>
<path d="M47.6971 54.0559C47.6059 54.1805 47.5135 54.3035 47.4203 54.4257C46.9284 55.071 46.4128 55.6845 45.8863 56.2636C45.7868 56.3737 45.6865 56.4829 45.5857 56.5907C42.0509 60.3756 38.1954 62.6184 38.1954 62.6184L35.9242 64.7882L35.6022 65.0957L30.6615 69.8164L27.6436 66.9324L27.6708 66.8922L30.774 62.3826L37.7997 52.1711L39.1789 50.1661C40.1587 49.9307 41.0802 49.9349 41.9283 50.0938C45.4359 50.7511 47.6971 54.0559 47.6971 54.0559Z" fill="#FBAA7F"/>
<path d="M35.6032 65.0957L30.6624 69.8165L27.672 66.8922L27.6445 66.8655L30.7752 62.3821C33.0031 62.5042 34.63 63.3862 35.6032 65.0957Z" fill="#F25759"/>
<path d="M31.5786 68.7663C31.7563 69.1802 31.8039 69.5884 31.6509 69.9501C30.9258 71.6689 29.7489 72.0299 28.2681 73.1673C27.8415 73.4952 27.5612 73.8522 27.3312 74.2264C27.3003 74.2754 27.2709 74.3257 27.242 74.3752C27.2412 74.3764 27.24 74.3786 27.2393 74.3806C27.179 74.4838 27.1218 74.5892 27.0657 74.6944C27.0657 74.6964 27.0644 74.6979 27.063 74.6998C26.639 75.494 26.2555 76.3397 25.0705 77.131C23.0177 78.5019 21.8601 77.6817 21.0303 76.7117C20.4093 75.9859 20.3222 75.1652 20.7064 73.7642C20.8352 73.2934 21.0176 72.7576 21.2503 72.137C22.1759 69.6703 24.7954 69.0333 25.9463 68.1138C26.6015 67.5894 27.0931 66.9965 27.395 66.5826C27.6995 66.1655 28.2313 65.9939 28.7149 66.142C29.1736 65.8671 30.2393 65.3728 31.2218 65.9777C32.2144 66.5885 31.8186 68.0935 31.5786 68.7663Z" fill="#2C2A40"/>
<path d="M30.4307 62.8769C30.4307 62.8769 33.9728 63.242 34.9823 65.69L35.6041 65.0959C35.6041 65.0959 34.5471 62.5287 30.7759 62.3823L30.4307 62.8769Z" fill="#2C2A40"/>
<path d="M27.062 74.6998C26.638 75.494 26.2546 76.3397 25.0695 77.131C23.0167 78.5019 21.8591 77.6817 21.0294 76.7117C20.4083 75.9859 20.3212 75.1652 20.7055 73.7642C20.7055 73.7642 20.5316 75.4482 20.9006 76.0518L21.2694 75.9344L21.957 76.7058V77.1753C21.957 77.1753 23.0133 77.7118 23.9521 77.3767C24.8201 77.0667 26.2889 75.9788 27.062 74.6998Z" fill="#61617E"/>
<path d="M47.4209 54.4259C46.9291 55.0713 46.4134 55.6847 45.887 56.2639C45.7874 56.374 45.6871 56.4831 45.5864 56.591C42.0516 60.3759 38.1961 62.6187 38.1961 62.6187L35.9248 64.7884L38.0129 61.1843C39.9284 60.2371 41.5999 58.6124 42.744 57.3008C43.7219 56.1796 43.3747 54.4384 42.0482 53.7651C40.2879 52.8716 38.493 52.3533 37.8008 52.1713L39.1801 50.1663C40.1599 49.9309 41.0813 49.9351 41.9295 50.094C43.8766 50.9828 46.2278 53.2136 47.4209 54.4259Z" fill="#F68E78"/>
<path d="M70.2992 27.6318C70.2992 27.6318 72.6766 25.0477 72.2441 19.6509L72.0415 19.9397C70.7116 21.8366 70.0066 24.1088 70.0726 26.4245C70.0895 27.0085 70.1538 27.4685 70.2992 27.6318Z" fill="#D44646"/>
<path d="M87.298 36.1603L85.2349 37.0551C85.2349 37.0551 85.1973 37.0256 85.1282 36.9692C85.127 36.968 85.1255 36.9673 85.1243 36.9658C84.2779 36.2763 78.842 31.7642 78.3747 29.1403C78.3747 29.1403 73.9356 27.7481 71.1904 25.9648C71.0447 25.8701 70.904 25.775 70.7691 25.6784C70.7691 25.6784 70.7691 25.6784 70.7691 25.6777C70.2118 25.2799 69.7518 24.8648 69.4512 24.4451L70.0703 20.9615L70.3633 19.3143L70.5605 19.2935L71.0896 19.6321L72.871 20.773L79.9464 25.3032C80.2215 25.4791 80.4562 25.7117 80.6344 25.9846L87.298 36.1603Z" fill="#FBAA7F"/>
<path d="M85.1865 37.0215L85.2537 40.1735L87.3607 41.654C87.5674 41.7992 87.8528 41.7492 87.9977 41.5422C88.1191 41.3689 88.1054 41.135 87.9649 40.9768L86.5952 39.4357L86.7293 38.8992L87.5341 39.8381L88.2047 40.777L88.6811 42.3119C88.7505 42.535 88.9923 42.6549 89.2117 42.5752C89.4035 42.5056 89.5145 42.3053 89.4721 42.1057L89.0764 40.2405L88.674 38.8992L89.4118 40.2405L90.3185 42.4769C90.3786 42.625 90.5223 42.7219 90.6822 42.7219C90.9281 42.7219 91.1132 42.4983 91.0676 42.2567L90.6861 40.2405L90.0824 38.8321L91.5578 40.71L92.4013 42.0596C92.4944 42.2087 92.6832 42.2665 92.8438 42.1949C93.0223 42.1155 93.1025 41.9063 93.0226 41.7281L92.2956 40.1061L91.2226 38.5636L92.2286 39.7707L92.5207 40.2576C92.5815 40.3592 92.7131 40.392 92.8147 40.3312C92.9027 40.2785 92.9409 40.1706 92.9059 40.0742L92.6979 39.5027L91.9601 38.3625L87.1984 36.0152C87.1986 36.0157 86.3267 35.8144 85.1865 37.0215Z" fill="#FBAA7F"/>
<path d="M85.126 36.9658C84.2796 36.2763 78.8437 31.7642 78.3764 29.1403C78.3764 29.1403 73.9373 27.7481 71.1921 25.9648C71.1457 25.9346 71.0996 25.9045 71.054 25.8736C71.0084 25.8434 70.9635 25.8125 70.9187 25.7816C70.8743 25.7507 70.8302 25.7206 70.7865 25.6889C70.7811 25.6855 70.7765 25.6816 70.7711 25.6782C70.7711 25.6782 70.7711 25.6782 70.7711 25.6774C70.2137 25.2797 69.7537 24.8646 69.4531 24.4448L70.0723 20.9613L71.0918 19.6321L72.8732 20.773C72.8707 20.7784 72.8683 20.784 72.8656 20.7894C71.8813 22.9427 72.6132 25.4918 74.5876 26.7982C75.613 27.4767 76.8856 28.0801 78.3766 28.3341C78.3766 28.3341 81.1952 33.4038 85.126 36.9658Z" fill="#F68E78"/>
<path d="M30.795 5.86855C30.795 6.70982 30.6182 7.50941 30.2997 8.23274C30.1742 8.51791 30.0261 8.79081 29.8589 9.04998C29.6556 9.36408 29.4236 9.65807 29.1652 9.92681C28.946 10.1561 28.7084 10.3672 28.4544 10.5584C28.3136 10.6649 28.1692 10.7637 28.0199 10.8561C27.4498 11.2102 26.8142 11.4701 26.1365 11.6113H26.1358C25.8526 11.6714 25.563 11.7101 25.266 11.7273H25.2653C25.2298 11.7293 25.1944 11.7312 25.1582 11.7317C25.0814 11.7354 25.0049 11.7369 24.9269 11.7369C24.8225 11.7369 24.7178 11.7344 24.6146 11.7285C21.5192 11.5664 19.0586 9.00511 19.0586 5.86855C19.0586 4.42409 19.5806 3.10076 20.4467 2.07829C20.4986 2.01675 20.5526 1.95594 20.607 1.89636C20.645 1.85516 20.6838 1.8147 20.7223 1.77474C20.9027 1.58912 21.0955 1.41675 21.2987 1.25664H21.2995C21.7327 0.915076 22.2148 0.633835 22.7336 0.424191C23.0776 0.285409 23.4369 0.178503 23.8093 0.10617C23.8093 0.10617 23.8093 0.10617 23.8101 0.10617C23.8392 0.100531 23.8689 0.0953817 23.8981 0.0902326H23.8988C24.0116 0.0698812 24.1256 0.0529624 24.2409 0.0394766C24.3632 0.0255003 24.4866 0.0147119 24.6114 0.0083368C24.7158 0.00269727 24.821 0 24.9269 0C25.001 0 25.0738 0.00122637 25.1461 0.00441393C28.2857 0.119657 30.795 2.70183 30.795 5.86855Z" fill="#93BD1D"/>
<path d="M29.8594 9.0503C29.6561 9.3644 29.4241 9.65839 29.1657 9.92713C30.2534 3.2455 25.0718 0.637341 23.8105 0.106489C23.8397 0.10085 23.8694 0.0957001 23.8986 0.0905509H23.8993C24.0121 0.0701996 24.1261 0.0532808 24.2414 0.0397949C29.5085 1.6375 29.9457 6.73025 29.8594 9.0503Z" fill="#2C2A40"/>
<path d="M25.2676 11.6762L25.1588 11.7318C25.082 11.7355 25.0055 11.737 24.9275 11.737C24.8231 11.737 24.7184 11.7345 24.6152 11.7286C25.7161 6.09426 22.4295 3.2485 20.4473 2.07842C20.4992 2.01688 20.5532 1.95607 20.6076 1.89648C26.5738 4.37935 25.2676 11.6762 25.2676 11.6762Z" fill="#2C2A40"/>
<path opacity="0.2" d="M30.3 8.23311C29.8922 9.158 29.2525 9.95807 28.4544 10.5591C28.3141 10.665 28.1694 10.7643 28.0199 10.857C27.4498 11.211 26.8147 11.4707 26.1365 11.6122H26.1358C25.8528 11.6718 25.563 11.7107 25.2658 11.7274H25.2651C25.153 11.734 25.041 11.7375 24.9269 11.7375C21.6861 11.7375 19.0586 9.10969 19.0586 5.86916C19.0586 4.2771 19.6932 2.8324 20.7225 1.77535C20.903 1.58949 21.0955 1.41712 21.2985 1.257H21.2992C21.7325 0.91569 22.2145 0.634694 22.7339 0.424805C22.7339 0.424805 20.8694 5.50039 24.0886 8.58546C26.5582 10.9516 29.3388 9.35636 30.3 8.23311Z" fill="#2C2A40"/>
<path d="M38.5086 28.2354C38.1893 28.2393 37.8762 28.2381 37.569 28.2327C37.4971 28.2307 37.426 28.2293 37.3556 28.2273C34.5905 28.1523 32.3215 27.692 31.0293 27.3642C30.3076 27.181 29.7329 26.6387 29.5061 25.9296L27.38 19.2685C27.3733 19.247 27.368 19.231 27.3645 19.2202L27.3606 19.2075C27.3599 19.2048 27.3594 19.2036 27.3594 19.2036L25.833 14.4198C26.3695 13.0113 28.985 12.4749 28.985 12.4749C28.8509 13.682 30.3935 17.1025 30.3935 17.1025C32.5397 19.3156 33.6796 23.2726 33.6796 23.2726C34.8573 22.82 36.3408 22.7126 37.1798 22.6905C37.5829 22.679 37.837 22.6885 37.837 22.6885C40.3186 23.5803 38.5086 28.2354 38.5086 28.2354Z" fill="#FBAA7F"/>
<path d="M30.7956 10.2615C30.662 11.2011 28.9851 12.4749 28.9851 12.4749L25.8328 14.4198C24.2903 13.8833 22.8818 11.3347 22.8818 11.3347C23.091 11.4799 23.3771 11.5128 23.7086 11.4792C24.7583 11.372 26.2567 10.5974 27.1745 10.5974C28.2071 10.5974 29.2398 9.66495 29.5167 8.93328V8.93254C29.5635 8.8097 29.589 8.69176 29.589 8.58534V6.98004C29.589 6.8312 29.6246 6.68605 29.689 6.55634C29.7538 6.42638 29.8487 6.31187 29.9678 6.22189C30.1294 6.10101 30.3619 6.18511 30.4075 6.38151C30.5087 6.81796 30.7959 7.27673 30.7959 7.91448C30.7956 8.78591 30.9297 9.32265 30.7956 10.2615Z" fill="#FBAA7F"/>
<path d="M38.5094 28.2355C38.1902 28.2394 37.877 28.2382 37.5698 28.2328C37.498 28.2309 37.4269 28.2294 37.3565 28.2274C34.5914 28.1524 32.3223 27.6922 31.0301 27.3643C30.3085 27.1812 29.7337 26.6388 29.5069 25.9297L27.3916 19.3015C27.6437 20.0633 29.3419 25.0303 31.1843 26.2435C31.327 26.3374 31.4786 26.4203 31.6367 26.4931C33.9235 27.5458 36.574 26.0758 36.9951 23.5939C37.0551 23.2396 37.1223 22.9312 37.1809 22.6904C37.584 22.6789 37.838 22.6884 37.838 22.6884C40.3195 23.5804 38.5094 28.2355 38.5094 28.2355Z" fill="#F68E78"/>
<path d="M27.6569 10.9545C26.1156 11.4613 26.2841 11.187 25.5664 11.4785C24.8639 11.7642 23.7551 11.4905 23.709 11.4792C24.7587 11.3721 26.2571 10.5975 27.1749 10.5975C28.2074 10.5975 29.2402 9.66502 29.517 8.93335C29.6232 9.44434 29.1975 10.4477 27.6569 10.9545Z" fill="#F68E78"/>
<path d="M48.5028 19.7183V27.3638C46.3191 29.5475 41.6399 29.6166 39.8063 29.5521C39.3309 29.5355 39.0465 29.51 39.0465 29.51C38.4462 28.9097 38.0652 28.2009 37.834 27.4638L37.832 27.4577C37.0586 24.9829 37.9735 22.1997 37.9735 22.1997L38.6823 22.146L42.3998 21.8642L48.5028 19.7183Z" fill="#D44646"/>
<path d="M39.8061 29.552C39.3307 29.5353 39.0463 29.5098 39.0463 29.5098C36.4307 26.8943 37.9733 22.1995 37.9733 22.1995L38.9121 22.1323C38.5098 23.4069 38.33 27.3207 39.8061 29.552Z" fill="#2C2A40"/>
<path d="M62.9896 51.7088C62.9896 51.7088 66.4101 65.0551 66.4101 69.1462C66.4101 69.1462 58.8987 67.2013 52.9296 69.8168C52.9296 69.8168 51.1857 57.0742 52.46 51.7088L53.7051 49.4888L62.9896 51.7088Z" fill="#2C2A40"/>
<path d="M60.641 4.15877C60.641 4.15877 56.4158 3.42097 54.2698 5.5C52.1236 7.57903 52.1907 6.70711 52.2577 9.9263C52.3246 13.1455 54.4039 15.4271 54.4039 15.4271L53.465 18.4437C53.465 18.4437 51.3056 18.9836 49.7093 17.1694C50.2828 18.6779 52.217 18.8213 52.217 18.8213L52.103 19.3176C52.103 19.3176 50.3799 19.1815 49.0387 18.1083C47.6975 17.0353 49.0635 13.2796 49.0635 13.2796L49.0647 13.287C49.0284 12.7532 48.7776 12.2118 47.9655 11.603C45.551 9.79218 46.5946 8.22071 48.0327 6.37168C49.4411 4.5609 47.8314 3.75616 50.5141 2.28056C53.2103 0.797855 52.9285 1.74407 55.0076 0.805211C57.0866 -0.133649 58.7633 0.805211 59.9707 2.0795C61.178 3.35379 60.641 4.15877 60.641 4.15877Z" fill="#2C2A40"/>
<path d="M64.6583 43.5872C64.319 46.5548 63.7864 49.3516 62.9878 51.7089C62.9878 51.7089 50.4461 50.3005 43.8066 43.7951C43.8066 43.7951 48.5684 29.0404 48.5012 19.7182C48.5012 19.7182 49.3979 19.1952 50.821 18.621C50.9471 18.57 51.0765 18.519 51.2107 18.468C53.0752 17.7545 55.6895 17.0267 58.3599 17.1697L59.3572 17.1128L64.2619 16.8345C64.2619 16.8345 66.028 31.6091 64.6583 43.5872Z" fill="#F25759"/>
<path d="M64.6583 43.587C64.319 46.5546 63.7864 49.3513 62.9878 51.7087C62.9878 51.7087 50.4461 50.3003 43.8066 43.7949C43.8066 43.7949 48.5684 29.0402 48.5012 19.718C48.5012 19.718 49.3979 19.195 50.821 18.6208C50.9471 18.5698 51.0765 18.5188 51.2107 18.4678C51.9296 18.8145 52.7088 19.3061 53.5526 19.9613C53.5526 19.9613 49.8356 33.2598 51.6834 39.7016C53.5312 46.1434 60.7984 48.144 64.6576 43.5875L64.6583 43.587Z" fill="#D44646"/>
<path d="M59.4334 17.1694C58.994 18.3746 58.547 19.5594 55.7302 20.0289C52.9133 20.4985 50.8213 18.6208 50.8213 18.6208C52.7005 17.8629 55.498 17.0164 58.3602 17.1694L59.3574 17.1125L59.4334 17.1694Z" fill="#2C2A40"/>
<path d="M60.7351 3.39795C60.7351 3.39795 62.6285 5.56721 61.3331 7.64624C61.3331 7.64624 60.091 4.71637 60.7351 3.39795Z" fill="#2C2A40"/>
<path d="M58.3609 17.1696L58.0255 17.6391C57.874 17.9395 57.6231 18.2428 57.0893 18.4983H57.0886C54.4079 19.4252 52.2913 18.4983 52.2913 18.4983L53.0627 15.1577C51.3188 12.7433 51.6991 8.97485 51.6991 8.97485C52.0125 12.0472 58.3609 17.1696 58.3609 17.1696Z" fill="#FBAA7F"/>
<path d="M61.0436 9.12163C61.1838 9.54288 61.2522 9.98154 61.2468 10.4199C61.2434 10.7988 61.1858 11.1786 61.0732 11.5454L60.3249 13.9851C60.0466 14.8926 59.221 15.5223 58.2723 15.5482C57.1849 15.5782 55.7191 15.4345 54.4041 14.6881C51.9227 13.2797 51.6544 9.65812 51.6544 9.65812C51.6544 9.65812 51.5875 5.96937 54.5382 4.3599C57.4892 2.75042 60.7084 4.15859 60.7084 4.15859L61.2468 6.70447C61.277 6.84669 61.2991 6.98939 61.3133 7.13308C61.3616 7.61538 61.3214 8.10357 61.1931 8.57435L61.0436 9.12163Z" fill="#FBAA7F"/>
<path d="M58.3668 6.58516C58.3668 6.58516 56.5322 5.0338 55.459 6.62636L55.7003 6.99685C55.7003 6.99685 56.8193 5.87287 58.2908 7.07262L58.3668 6.58516Z" fill="#2C2A40"/>
<path d="M57.7268 7.72111C57.7572 7.94351 57.6017 8.14825 57.3796 8.17865C57.1574 8.20906 56.9524 8.0536 56.9218 7.83145C56.8914 7.6093 57.0468 7.40432 57.269 7.37392C57.4914 7.34351 57.6961 7.49897 57.7268 7.72111Z" fill="#2C2A40"/>
<path d="M61.0444 9.12161C61.1846 9.54286 61.253 9.98151 61.2476 10.4199C60.8612 10.1853 60.1055 10.0203 58.6299 10.3287C58.6299 10.3287 59.3831 9.62254 60.1795 9.55119C60.3936 9.53207 60.528 9.31163 60.4471 9.11253L59.9042 7.78013C59.9042 7.78013 60.0449 7.49644 60.3769 7.36967C60.5795 7.29268 60.9838 7.18798 61.3138 7.13306C61.3621 7.61536 61.3219 8.10355 61.1937 8.57433L61.0444 9.12161Z" fill="#F68E78"/>
<path d="M60.9219 8.24778C60.9445 8.41157 60.8297 8.56237 60.6662 8.58492C60.5024 8.60748 60.3516 8.49273 60.329 8.32918C60.3064 8.16539 60.4212 8.01459 60.5847 7.99204C60.7485 7.96972 60.8996 8.08423 60.9219 8.24778Z" fill="#2C2A40"/>
<path d="M61.2091 6.72741C60.6334 6.80685 60.1805 7.00522 60.1805 7.00522L60.1592 7.45368C60.5616 7.28499 60.9217 7.21167 61.2395 7.20015C61.3967 7.19451 61.5173 7.06774 61.4994 6.92847C61.4992 6.92675 61.4989 6.92504 61.4987 6.92332C61.4823 6.79557 61.3526 6.70755 61.2091 6.72741Z" fill="#2C2A40"/>
<path d="M60.5135 11.2961L56.4121 11.2014C56.4121 11.2014 57.0366 13.367 59.1993 13.1561C60.8953 12.9909 60.5135 11.2961 60.5135 11.2961Z" fill="white"/>
<path d="M58.0255 15.4929C58.0255 15.4929 55.4769 15.3587 53.8674 11.9382C53.8674 11.9382 53.3309 13.2795 54.2028 15.0902C55.0747 16.901 58.3609 17.1693 58.3609 17.1693L58.0255 15.4929Z" fill="#F68E78"/>
<path d="M52.6603 8.98746C52.6603 8.98746 51.7884 7.57904 50.7154 8.31684C49.6424 9.05464 50.5052 12.3494 52.0858 11.6074C53.6663 10.8652 52.6603 8.98746 52.6603 8.98746Z" fill="#FBAA7F"/>
<path d="M55.0074 4.12958C55.0074 4.12958 54.3368 4.42676 54.5378 5.33227C54.7391 6.23779 55.0743 7.78032 53.9341 8.11551C52.794 8.45094 53.1294 9.85935 53.1294 9.85935L52.2575 9.92629C52.2575 9.92629 51.3856 7.51183 51.6538 6.50579C51.9223 5.49999 53.8003 3.56416 55.0074 4.12958Z" fill="#2C2A40"/>
<path d="M70.2995 27.6317C69.9636 27.5251 69.6549 27.4253 69.3714 27.3319C65.9134 26.1998 66.0777 26.0301 64.2637 25.2173V16.834C64.2637 16.834 67.8183 17.4644 71.3761 19.2033C71.6665 19.3448 71.9563 19.4936 72.2446 19.6506C72.2446 19.6506 70.1654 24.2115 70.2995 27.6317Z" fill="#F25759"/>
<path d="M44.0208 43.1165L37.5039 51.2392C37.5039 51.2392 46.0214 52.3793 47.6311 57.8117C47.6311 57.8117 52.1697 50.2361 53.3317 46.5446C54.4719 42.9228 51.2083 36.201 44.0208 43.1165Z" fill="#2C2A40"/>
<path d="M49.3896 54.7525C49.3896 54.7525 51.6545 55.8667 56.4163 54.7267C54.5717 51.7459 53.344 48.6091 53.5524 45.1094L49.3896 54.7525Z" fill="#2C2A40"/>
<path d="M70.2998 27.632C69.9639 27.5254 69.6551 27.4256 69.3717 27.3321C68.846 23.985 71.3757 19.2044 71.3757 19.2044C71.3757 19.2044 71.3757 19.2036 71.3764 19.2036C71.6668 19.3451 71.9566 19.4939 72.2449 19.6509C72.2449 19.6509 70.1657 24.2118 70.2998 27.632Z" fill="#2C2A40"/>
<path d="M27.3314 74.2263C27.3005 74.2754 27.2711 74.3256 27.2422 74.3752C27.2736 74.3121 27.3032 74.2631 27.3314 74.2263Z" fill="#61617E"/>
</svg>
