<svg width="110" height="98" viewBox="0 0 110 98" fill="none" xmlns="http://www.w3.org/2000/svg">
<path d="M39.3623 10.1263V64.6562H4.11621V1H39.3623V7.82041" stroke="#263238" stroke-width="0.120647" stroke-miterlimit="10"/>
<path d="M11.7734 14.7766V64.6525" stroke="#263238" stroke-width="0.120647" stroke-miterlimit="10"/>
<path d="M11.7734 1.1604V13.0003" stroke="#263238" stroke-width="0.120647" stroke-miterlimit="10"/>
<path d="M21.2529 1.1604V64.6523" stroke="#263238" stroke-width="0.120647" stroke-miterlimit="10"/>
<path d="M30.7227 25.8767V64.6527" stroke="#263238" stroke-width="0.120647" stroke-miterlimit="10"/>
<path d="M30.7227 1.16064V24.2487" stroke="#263238" stroke-width="0.120647" stroke-miterlimit="10"/>
<path d="M4.38086 10.1265H39.3093" stroke="#263238" stroke-width="0.120647" stroke-miterlimit="10"/>
<path d="M4.38086 19.1541H39.3093" stroke="#263238" stroke-width="0.120647" stroke-miterlimit="10"/>
<path d="M4.38086 28.1816H39.3093" stroke="#263238" stroke-width="0.120647" stroke-miterlimit="10"/>
<path d="M4.38086 37.2104H39.3093" stroke="#263238" stroke-width="0.120647" stroke-miterlimit="10"/>
<path d="M4.38086 46.2378H39.3093" stroke="#263238" stroke-width="0.120647" stroke-miterlimit="10"/>
<path d="M7.18457 55.2666H39.3011" stroke="#263238" stroke-width="0.120647" stroke-miterlimit="10"/>
<path d="M4.38086 55.2666H6.00889" stroke="#263238" stroke-width="0.120647" stroke-miterlimit="10"/>
<path d="M105.815 1H70.5693V64.6562H105.815V1Z" stroke="#263238" stroke-width="0.120647" stroke-miterlimit="10"/>
<path d="M78.2266 1.1604V64.6523" stroke="#263238" stroke-width="0.120647" stroke-miterlimit="10"/>
<path d="M87.707 6.63672V64.6526" stroke="#263238" stroke-width="0.120647" stroke-miterlimit="10"/>
<path d="M87.707 1.1604V5.15648" stroke="#263238" stroke-width="0.120647" stroke-miterlimit="10"/>
<path d="M97.1758 1.16064V64.6525" stroke="#263238" stroke-width="0.120647" stroke-miterlimit="10"/>
<path d="M70.8242 10.1267H105.753" stroke="#263238" stroke-width="0.120647" stroke-miterlimit="10"/>
<path d="M74.8281 19.1541H105.76" stroke="#263238" stroke-width="0.120647" stroke-miterlimit="10"/>
<path d="M70.8242 19.1541H73.1923" stroke="#263238" stroke-width="0.120647" stroke-miterlimit="10"/>
<path d="M90.8135 28.1816H105.762" stroke="#263238" stroke-width="0.120647" stroke-miterlimit="10"/>
<path d="M70.8242 28.1816H88.4366" stroke="#263238" stroke-width="0.120647" stroke-miterlimit="10"/>
<path d="M70.8242 37.2102H105.753" stroke="#263238" stroke-width="0.120647" stroke-miterlimit="10"/>
<path d="M70.8242 46.2378H105.753" stroke="#263238" stroke-width="0.120647" stroke-miterlimit="10"/>
<path d="M70.8242 55.2666H105.753" stroke="#263238" stroke-width="0.120647" stroke-miterlimit="10"/>
<path d="M97.3926 46.626L100.662 77.9557" stroke="#263238" stroke-width="0.241293" stroke-miterlimit="10"/>
<path d="M100.131 71.9611L98.6484 70.3955" stroke="#263238" stroke-width="0.241293" stroke-miterlimit="10"/>
<path d="M99.0973 70.8641C99.0973 70.8641 99.1396 70.1716 98.5074 69.6068C98.1268 69.2669 96.1246 68.4246 95.9344 69.1299C95.7279 69.897 97.7774 71.4032 99.0973 70.8641Z" fill="#92E3A9" stroke="#263238" stroke-width="0.120647" stroke-miterlimit="10"/>
<path d="M99.1005 70.8643L97.1943 69.6765" stroke="#263238" stroke-width="0.0603234" stroke-miterlimit="10"/>
<path d="M100.508 75.5231L99.0264 73.9575" stroke="#263238" stroke-width="0.241293" stroke-miterlimit="10"/>
<path d="M99.4752 74.4273C99.4752 74.4273 99.5176 73.7348 98.8853 73.17C98.505 72.8301 96.5025 71.9878 96.3124 72.6932C96.1056 73.4602 98.1552 74.9666 99.4752 74.4273Z" fill="#92E3A9" stroke="#263238" stroke-width="0.120647" stroke-miterlimit="10"/>
<path d="M99.4777 74.4266L97.5713 73.2388" stroke="#263238" stroke-width="0.0603234" stroke-miterlimit="10"/>
<path d="M99.2333 63.2662L97.751 61.7007" stroke="#263238" stroke-width="0.241293" stroke-miterlimit="10"/>
<path d="M98.1998 62.1695C98.1998 62.1695 98.2422 61.477 97.6099 60.9121C97.2294 60.5725 95.2271 59.73 95.037 60.4353C94.8302 61.2023 96.8798 62.7088 98.1998 62.1695Z" fill="#92E3A9" stroke="#263238" stroke-width="0.120647" stroke-miterlimit="10"/>
<path d="M98.204 62.17L96.2979 60.9822" stroke="#263238" stroke-width="0.0603234" stroke-miterlimit="10"/>
<path d="M99.6024 66.8292L98.1201 65.2637" stroke="#263238" stroke-width="0.241293" stroke-miterlimit="10"/>
<path d="M98.568 65.7325C98.568 65.7325 98.6103 65.04 97.9781 64.4752C97.5975 64.1353 95.5953 63.293 95.4051 63.9983C95.1986 64.7654 97.2481 66.2718 98.568 65.7325Z" fill="#92E3A9" stroke="#263238" stroke-width="0.120647" stroke-miterlimit="10"/>
<path d="M98.5624 65.733L96.6562 64.5452" stroke="#263238" stroke-width="0.0603234" stroke-miterlimit="10"/>
<path d="M98.6308 57.4786L97.1484 55.9131" stroke="#263238" stroke-width="0.241293" stroke-miterlimit="10"/>
<path d="M97.5963 56.3817C97.5963 56.3817 97.6386 55.6891 97.0064 55.1243C96.6258 54.7846 94.6236 53.9421 94.4334 54.6475C94.2269 55.4145 96.2765 56.9207 97.5963 56.3817Z" fill="#92E3A9" stroke="#263238" stroke-width="0.120647" stroke-miterlimit="10"/>
<path d="M97.6005 56.3822L95.6943 55.1943" stroke="#263238" stroke-width="0.0603234" stroke-miterlimit="10"/>
<path d="M98.0165 51.6649L96.5342 50.0994" stroke="#263238" stroke-width="0.241293" stroke-miterlimit="10"/>
<path d="M96.982 50.5681C96.982 50.5681 97.0244 49.8755 96.3921 49.3107C96.0118 48.9708 94.0093 48.1286 93.8192 48.8336C93.6127 49.6009 95.6622 51.1073 96.982 50.5681Z" fill="#92E3A9" stroke="#263238" stroke-width="0.120647" stroke-miterlimit="10"/>
<path d="M96.9863 50.5684L95.0801 49.3806" stroke="#263238" stroke-width="0.0603234" stroke-miterlimit="10"/>
<path d="M99.8857 69.8532L101.013 68.0151" stroke="#263238" stroke-width="0.241293" stroke-miterlimit="10"/>
<path d="M100.665 68.5664C100.665 68.5664 100.48 67.8975 100.983 67.2145C101.285 66.8034 103.07 65.5659 103.402 66.2166C103.762 66.9242 102.068 68.8214 100.665 68.5664Z" fill="#92E3A9" stroke="#263238" stroke-width="0.120647" stroke-miterlimit="10"/>
<path d="M100.669 68.5663L102.386 66.9258" stroke="#263238" stroke-width="0.0603234" stroke-miterlimit="10"/>
<path d="M98.9033 60.476L100.03 58.6382" stroke="#263238" stroke-width="0.241293" stroke-miterlimit="10"/>
<path d="M99.6825 59.1908C99.6825 59.1908 99.498 58.5219 100 57.8388C100.302 57.4277 102.088 56.19 102.419 56.8409C102.78 57.5486 101.085 59.4458 99.6825 59.1908Z" fill="#92E3A9" stroke="#263238" stroke-width="0.120647" stroke-miterlimit="10"/>
<path d="M99.6875 59.1903L101.404 57.5498" stroke="#263238" stroke-width="0.0603234" stroke-miterlimit="10"/>
<path d="M98.4785 56.3559L99.6056 54.5181" stroke="#263238" stroke-width="0.241293" stroke-miterlimit="10"/>
<path d="M99.2577 55.0696C99.2577 55.0696 99.0732 54.4007 99.5754 53.7176C99.8774 53.3065 101.663 52.0691 101.994 52.7197C102.355 53.4276 100.661 55.3248 99.2577 55.0696Z" fill="#92E3A9" stroke="#263238" stroke-width="0.120647" stroke-miterlimit="10"/>
<path d="M99.2617 55.0692L100.978 53.4287" stroke="#263238" stroke-width="0.0603234" stroke-miterlimit="10"/>
<path d="M97.8477 50.3141L98.975 48.4761" stroke="#263238" stroke-width="0.241293" stroke-miterlimit="10"/>
<path d="M98.6259 49.0288C98.6259 49.0288 98.4414 48.3599 98.9435 47.6769C99.2456 47.2658 101.031 46.0283 101.363 46.679C101.723 47.3866 100.029 49.2838 98.6259 49.0288Z" fill="#92E3A9" stroke="#263238" stroke-width="0.120647" stroke-miterlimit="10"/>
<path d="M98.6211 49.029L100.338 47.3882" stroke="#263238" stroke-width="0.0603234" stroke-miterlimit="10"/>
<path d="M97.3602 46.4525C97.3602 46.4525 97.1758 45.7836 97.6779 45.1005C97.98 44.6895 99.7653 43.4517 100.097 44.1026C100.458 44.8103 98.7631 46.7075 97.3602 46.4525Z" fill="#92E3A9" stroke="#263238" stroke-width="0.120647" stroke-miterlimit="10"/>
<path d="M97.3564 46.4523L99.0729 44.8115" stroke="#263238" stroke-width="0.0603234" stroke-miterlimit="10"/>
<path d="M97.4606 46.523C97.4606 46.523 96.7761 46.6363 96.1493 46.0654C95.7723 45.7219 94.7284 43.8167 95.4106 43.5551C96.1524 43.2708 97.8613 45.1547 97.4606 46.523Z" fill="#92E3A9" stroke="#263238" stroke-width="0.120647" stroke-miterlimit="10"/>
<path d="M97.4574 46.5232L96.0059 44.644" stroke="#263238" stroke-width="0.0603234" stroke-miterlimit="10"/>
<path d="M106.016 50.9409L102.765 82.2726" stroke="#263238" stroke-width="0.241293" stroke-miterlimit="10"/>
<path d="M103.487 76.2975L102.359 74.4604" stroke="#263238" stroke-width="0.241293" stroke-miterlimit="10"/>
<path d="M102.701 75.0115C102.701 75.0115 102.885 74.3426 102.383 73.6598C102.08 73.2489 100.294 72.0124 99.9632 72.6633C99.6027 73.3712 101.298 75.2674 102.701 75.0115Z" fill="#92E3A9" stroke="#263238" stroke-width="0.120647" stroke-miterlimit="10"/>
<path d="M102.705 75.0119L101.084 73.457" stroke="#263238" stroke-width="0.0603234" stroke-miterlimit="10"/>
<path d="M104.386 67.6017L103.258 65.7646" stroke="#263238" stroke-width="0.241293" stroke-miterlimit="10"/>
<path d="M103.598 66.3157C103.598 66.3157 103.782 65.6468 103.28 64.964C102.978 64.5531 101.192 63.3166 100.861 63.9675C100.5 64.6754 102.196 66.5716 103.598 66.3157Z" fill="#92E3A9" stroke="#263238" stroke-width="0.120647" stroke-miterlimit="10"/>
<path d="M103.602 66.3152L101.981 64.7603" stroke="#263238" stroke-width="0.0603234" stroke-miterlimit="10"/>
<path d="M104.027 71.1647L102.898 69.3276" stroke="#263238" stroke-width="0.241293" stroke-miterlimit="10"/>
<path d="M103.239 69.8787C103.239 69.8787 103.423 69.2098 102.921 68.527C102.618 68.1161 100.832 66.8796 100.501 67.5305C100.141 68.2386 101.836 70.1346 103.239 69.8787Z" fill="#92E3A9" stroke="#263238" stroke-width="0.120647" stroke-miterlimit="10"/>
<path d="M103.243 69.8791L101.622 68.3242" stroke="#263238" stroke-width="0.0603234" stroke-miterlimit="10"/>
<path d="M104.99 61.8136L103.862 59.9766" stroke="#263238" stroke-width="0.241293" stroke-miterlimit="10"/>
<path d="M104.203 60.5279C104.203 60.5279 104.387 59.859 103.885 59.1761C103.582 58.7653 101.796 57.5288 101.465 58.1797C101.105 58.8876 102.8 60.7836 104.203 60.5279Z" fill="#92E3A9" stroke="#263238" stroke-width="0.120647" stroke-miterlimit="10"/>
<path d="M104.207 60.5273L102.586 58.9722" stroke="#263238" stroke-width="0.0603234" stroke-miterlimit="10"/>
<path d="M105.594 56.0002L104.466 54.1631" stroke="#263238" stroke-width="0.241293" stroke-miterlimit="10"/>
<path d="M104.806 54.7143C104.806 54.7143 104.99 54.0454 104.488 53.3625C104.186 52.9517 102.4 51.7149 102.069 52.366C101.708 53.074 103.404 54.9702 104.806 54.7143Z" fill="#92E3A9" stroke="#263238" stroke-width="0.120647" stroke-miterlimit="10"/>
<path d="M104.81 54.7146L103.189 53.1597" stroke="#263238" stroke-width="0.0603234" stroke-miterlimit="10"/>
<path d="M103.682 74.1822L105.163 72.6157" stroke="#263238" stroke-width="0.241293" stroke-miterlimit="10"/>
<path d="M104.712 73.0846C104.712 73.0846 104.669 72.3921 105.301 71.827C105.681 71.4869 107.683 70.6435 107.873 71.3485C108.08 72.1153 106.032 73.623 104.712 73.0846Z" fill="#92E3A9" stroke="#263238" stroke-width="0.120647" stroke-miterlimit="10"/>
<path d="M104.711 73.0839L106.729 71.8318" stroke="#263238" stroke-width="0.0603234" stroke-miterlimit="10"/>
<path d="M104.654 64.8063L106.135 63.24" stroke="#263238" stroke-width="0.241293" stroke-miterlimit="10"/>
<path d="M105.684 63.7089C105.684 63.7089 105.641 63.0163 106.273 62.4513C106.654 62.1112 108.655 61.2677 108.846 61.9728C109.053 62.7396 107.005 64.2472 105.684 63.7089Z" fill="#92E3A9" stroke="#263238" stroke-width="0.120647" stroke-miterlimit="10"/>
<path d="M105.684 63.7082L107.701 62.4561" stroke="#263238" stroke-width="0.0603234" stroke-miterlimit="10"/>
<path d="M105.078 60.6849L106.56 59.1187" stroke="#263238" stroke-width="0.241293" stroke-miterlimit="10"/>
<path d="M106.108 59.5876C106.108 59.5876 106.065 58.895 106.697 58.33C107.078 57.9898 109.079 57.1464 109.27 57.8515C109.477 58.6183 107.428 60.1259 106.108 59.5876Z" fill="#92E3A9" stroke="#263238" stroke-width="0.120647" stroke-miterlimit="10"/>
<path d="M106.107 59.5883L108.125 58.3362" stroke="#263238" stroke-width="0.0603234" stroke-miterlimit="10"/>
<path d="M105.7 54.6436L107.182 53.0771" stroke="#263238" stroke-width="0.241293" stroke-miterlimit="10"/>
<path d="M106.731 53.5473C106.731 53.5473 106.688 52.8547 107.32 52.2897C107.701 51.9496 109.702 51.1061 109.893 51.8112C110.1 52.578 108.051 54.0856 106.731 53.5473Z" fill="#92E3A9" stroke="#263238" stroke-width="0.120647" stroke-miterlimit="10"/>
<path d="M106.73 53.5468L108.748 52.2947" stroke="#263238" stroke-width="0.0603234" stroke-miterlimit="10"/>
<path d="M106.022 50.7655C106.022 50.7655 105.979 50.0729 106.611 49.5079C106.992 49.168 108.993 48.3243 109.184 49.0294C109.391 49.7965 107.342 51.3038 106.022 50.7655Z" fill="#92E3A9" stroke="#263238" stroke-width="0.120647" stroke-miterlimit="10"/>
<path d="M106.021 50.7646L108.039 49.5127" stroke="#263238" stroke-width="0.0603234" stroke-miterlimit="10"/>
<path d="M106.107 50.8546C106.107 50.8546 105.414 50.8245 104.918 50.1367C104.62 49.7228 103.991 47.6438 104.712 47.5281C105.497 47.4025 106.781 49.5979 106.107 50.8546Z" fill="#92E3A9" stroke="#263238" stroke-width="0.120647" stroke-miterlimit="10"/>
<path d="M106.112 50.855L105.078 48.7173" stroke="#263238" stroke-width="0.0603234" stroke-miterlimit="10"/>
<path d="M102.294 38.1829V77.8037" stroke="#263238" stroke-width="0.241293" stroke-miterlimit="10"/>
<path d="M102.331 71.8458L101.02 70.1348" stroke="#263238" stroke-width="0.241293" stroke-miterlimit="10"/>
<path d="M101.417 70.6479C101.417 70.6479 101.531 69.9634 100.96 69.3361C100.617 68.9586 98.7131 67.913 98.4508 68.5946C98.1658 69.3361 100.048 71.0469 101.417 70.6479Z" fill="#92E3A9" stroke="#263238" stroke-width="0.120647" stroke-miterlimit="10"/>
<path d="M101.412 70.648L99.6396 69.2686" stroke="#263238" stroke-width="0.0603234" stroke-miterlimit="10"/>
<path d="M102.331 64.4L101.02 62.689" stroke="#263238" stroke-width="0.241293" stroke-miterlimit="10"/>
<path d="M101.417 63.2018C101.417 63.2018 101.531 62.5174 100.96 61.8901C100.617 61.5126 98.7131 60.4669 98.4508 61.1486C98.1658 61.8903 100.048 63.6011 101.417 63.2018Z" fill="#92E3A9" stroke="#263238" stroke-width="0.120647" stroke-miterlimit="10"/>
<path d="M101.412 63.2019L99.6396 61.8225" stroke="#263238" stroke-width="0.0603234" stroke-miterlimit="10"/>
<path d="M102.331 55.6578L101.02 53.947" stroke="#263238" stroke-width="0.241293" stroke-miterlimit="10"/>
<path d="M101.417 54.4601C101.417 54.4601 101.531 53.7757 100.96 53.1484C100.617 52.7709 98.7131 51.7252 98.4508 52.4069C98.1658 53.1484 100.048 54.8594 101.417 54.4601Z" fill="#92E3A9" stroke="#263238" stroke-width="0.120647" stroke-miterlimit="10"/>
<path d="M101.412 54.4602L99.6396 53.0808" stroke="#263238" stroke-width="0.0603234" stroke-miterlimit="10"/>
<path d="M102.331 49.8394L101.02 48.1284" stroke="#263238" stroke-width="0.241293" stroke-miterlimit="10"/>
<path d="M101.417 48.6415C101.417 48.6415 101.531 47.957 100.96 47.3298C100.617 46.9523 98.7131 45.9066 98.4508 46.5883C98.1658 47.3298 100.048 49.0408 101.417 48.6415Z" fill="#92E3A9" stroke="#263238" stroke-width="0.120647" stroke-miterlimit="10"/>
<path d="M101.412 48.6416L99.6396 47.2622" stroke="#263238" stroke-width="0.0603234" stroke-miterlimit="10"/>
<path d="M102.331 43.9937L101.02 42.2827" stroke="#263238" stroke-width="0.241293" stroke-miterlimit="10"/>
<path d="M101.417 42.7958C101.417 42.7958 101.531 42.1116 100.96 41.4841C100.617 41.1066 98.7131 40.0609 98.4508 40.7426C98.1658 41.4843 100.048 43.1951 101.417 42.7958Z" fill="#92E3A9" stroke="#263238" stroke-width="0.120647" stroke-miterlimit="10"/>
<path d="M101.412 42.7957L99.6396 41.4165" stroke="#263238" stroke-width="0.0603234" stroke-miterlimit="10"/>
<path d="M102.293 74.1199L103.605 72.4089" stroke="#263238" stroke-width="0.241293" stroke-miterlimit="10"/>
<path d="M103.209 72.922C103.209 72.922 103.095 72.2375 103.665 71.6102C104.008 71.2327 105.912 70.187 106.174 70.8689C106.459 71.61 104.577 73.321 103.209 72.922Z" fill="#92E3A9" stroke="#263238" stroke-width="0.120647" stroke-miterlimit="10"/>
<path d="M103.209 72.9219L105.087 71.4683" stroke="#263238" stroke-width="0.0603234" stroke-miterlimit="10"/>
<path d="M102.293 62.2779L103.605 60.5669" stroke="#263238" stroke-width="0.241293" stroke-miterlimit="10"/>
<path d="M103.209 61.08C103.209 61.08 103.095 60.3955 103.665 59.7683C104.008 59.3908 105.912 58.3451 106.174 59.0268C106.459 59.7683 104.577 61.4793 103.209 61.08Z" fill="#92E3A9" stroke="#263238" stroke-width="0.120647" stroke-miterlimit="10"/>
<path d="M103.209 61.0799L105.087 59.6262" stroke="#263238" stroke-width="0.0603234" stroke-miterlimit="10"/>
<path d="M102.293 56.4332L103.605 54.7224" stroke="#263238" stroke-width="0.241293" stroke-miterlimit="10"/>
<path d="M103.209 55.2355C103.209 55.2355 103.095 54.551 103.665 53.9238C104.008 53.5463 105.912 52.5006 106.174 53.1823C106.459 53.9238 104.577 55.6348 103.209 55.2355Z" fill="#92E3A9" stroke="#263238" stroke-width="0.120647" stroke-miterlimit="10"/>
<path d="M103.209 55.2354L105.087 53.7817" stroke="#263238" stroke-width="0.0603234" stroke-miterlimit="10"/>
<path d="M102.293 48.7074L103.605 46.9966" stroke="#263238" stroke-width="0.241293" stroke-miterlimit="10"/>
<path d="M103.209 47.5097C103.209 47.5097 103.095 46.8252 103.665 46.1979C104.008 45.8205 105.912 44.7748 106.174 45.4564C106.459 46.1979 104.577 47.909 103.209 47.5097Z" fill="#92E3A9" stroke="#263238" stroke-width="0.120647" stroke-miterlimit="10"/>
<path d="M103.209 47.5096L105.087 46.0559" stroke="#263238" stroke-width="0.0603234" stroke-miterlimit="10"/>
<path d="M102.291 42.6341L103.603 40.9231" stroke="#263238" stroke-width="0.241293" stroke-miterlimit="10"/>
<path d="M103.207 41.4362C103.207 41.4362 103.093 40.752 103.663 40.1245C104.006 39.747 105.91 38.7013 106.172 39.383C106.457 40.1245 104.575 41.8355 103.207 41.4362Z" fill="#92E3A9" stroke="#263238" stroke-width="0.120647" stroke-miterlimit="10"/>
<path d="M103.206 41.4359L105.084 39.9824" stroke="#263238" stroke-width="0.0603234" stroke-miterlimit="10"/>
<path d="M102.216 38.7431C102.216 38.7431 102.102 38.0588 102.673 37.4313C103.016 37.0539 104.92 36.0082 105.182 36.6898C105.467 37.4316 103.585 39.1426 102.216 38.7431Z" fill="#92E3A9" stroke="#263238" stroke-width="0.120647" stroke-miterlimit="10"/>
<path d="M102.216 38.7427L104.093 37.2893" stroke="#263238" stroke-width="0.0603234" stroke-miterlimit="10"/>
<path d="M102.304 38.8231C102.304 38.8231 101.611 38.8647 101.047 38.2318C100.708 37.851 99.8674 35.8476 100.573 35.6584C101.34 35.4526 102.844 37.5038 102.304 38.8231Z" fill="#92E3A9" stroke="#263238" stroke-width="0.120647" stroke-miterlimit="10"/>
<path d="M102.303 38.8239L101.055 36.8042" stroke="#263238" stroke-width="0.0603234" stroke-miterlimit="10"/>
<path d="M103.927 88.0799H99.7307L99.2061 77.4829H104.451L103.927 88.0799Z" fill="#263238" stroke="#263238" stroke-width="0.120647" stroke-miterlimit="10"/>
<path d="M0.09375 88.0791H109.671" stroke="#263238" stroke-width="0.120647" stroke-miterlimit="10"/>
<path d="M53.2178 97.6828C77.3171 97.6828 96.8535 96.2396 96.8535 94.4594C96.8535 92.6792 77.3171 91.2361 53.2178 91.2361C29.1184 91.2361 9.58203 92.6792 9.58203 94.4594C9.58203 96.2396 29.1184 97.6828 53.2178 97.6828Z" fill="#263238" fill-opacity="0.1"/>
<path d="M75.1551 72.4811C75.1551 72.4811 69.7322 79.6844 68.1134 82.4361C66.4946 85.1881 64.2284 88.5874 65.5234 91.5012C66.8184 94.4149 71.6746 93.7673 73.6981 93.6864C75.7216 93.6055 97.0082 92.7152 97.0082 92.7152C97.0082 92.7152 87.9432 86.483 86.1624 84.6216C84.3818 82.7602 82.1965 79.7653 81.7109 77.9038C81.2253 76.0424 86.0006 74.0998 86.9718 71.267C87.943 68.4341 85.353 66.8965 83.5724 66.8965C81.7918 66.8965 75.1551 72.4811 75.1551 72.4811Z" fill="#B8B8B8" stroke="#263238" stroke-width="0.120647" stroke-miterlimit="10"/>
<path d="M87.0187 85.4036L82.6162 93.316C89.2184 93.0407 97.0052 92.715 97.0052 92.715C97.0052 92.715 89.8708 87.8095 87.0187 85.4036Z" fill="white" stroke="#263238" stroke-width="0.120647" stroke-miterlimit="10"/>
<path d="M80.3371 86.0786C80.3371 86.0786 75.5618 88.6686 73.0527 89.3162" stroke="#263238" stroke-width="0.120647" stroke-miterlimit="10"/>
<path d="M78.3207 87.0498C78.3207 87.0498 75.5687 89.1542 74.5166 89.9635" stroke="#263238" stroke-width="0.120647" stroke-miterlimit="10"/>
<path d="M92.5593 62.3633L94.0161 65.7626L74.51 73.4515L74.0244 72.2375L85.7605 64.0629L92.5593 62.3633Z" fill="#263238" stroke="#263238" stroke-width="0.120647" stroke-miterlimit="10"/>
<path d="M62.6262 71.2871C62.6262 71.2871 60.9873 72.6225 60.6836 72.8654C60.3801 73.1084 59.5303 73.1084 58.6804 72.9262C57.8306 72.7441 57.2236 72.9262 57.0415 73.7153C56.8594 74.5043 56.8594 74.9899 56.8594 74.9899L62.0798 76.993L64.6293 77.7821L66.7541 74.0185C66.7541 74.0185 64.3864 70.9229 62.6262 71.2871Z" fill="white" stroke="#263238" stroke-width="0.120647" stroke-miterlimit="10"/>
<path d="M59.1689 73.6543L58.8047 75.7182" stroke="#263238" stroke-width="0.120647" stroke-miterlimit="10"/>
<path d="M61.6548 53.076C61.6548 53.076 60.5014 55.7468 60.6836 58.6C60.8657 61.453 61.7763 61.8172 61.7763 61.8172C61.7763 61.8172 61.4729 62.3028 61.8977 62.9705C62.3227 63.6382 63.1726 64.1846 63.3544 64.4881C63.5363 64.7915 63.3545 65.52 63.4152 66.3091C63.476 67.0981 63.7187 67.2802 63.7187 67.2802C63.7187 67.2802 62.019 71.4081 61.9582 71.5902C61.8974 71.7723 62.9294 71.8936 64.447 72.9256C65.9645 73.9576 67.2394 75.4143 67.4821 75.4751C67.725 75.5359 71.7313 73.0469 72.4599 72.5006C73.1884 71.9542 72.2777 70.7401 71.9743 70.558C71.6708 70.3759 69.2426 68.3727 67.4216 64.6092C65.6005 60.8456 64.9934 53.804 64.9934 53.804C64.9934 53.804 62.4441 51.9227 61.6548 53.076Z" fill="#B8B8B8" stroke="#263238" stroke-width="0.120647" stroke-miterlimit="10"/>
<path d="M67.8406 67.4011C67.8406 67.4011 65.3518 67.7654 64.1377 67.1582" stroke="#263238" stroke-width="0.120647" stroke-miterlimit="10"/>
<path d="M63.8386 64.5485C63.8386 64.5485 64.4458 64.7914 66.0239 64.3664C66.0239 64.3664 63.6565 62.6059 62.8066 61.9382" stroke="#263238" stroke-width="0.120647" stroke-miterlimit="10"/>
<path d="M66.6926 45.1239L69.2421 44.5775C69.2421 44.5775 74.2199 42.5136 77.1337 42.6957C80.0475 42.8778 83.2647 44.6383 84.4181 45.7308C85.5714 46.8233 89.2137 51.7404 91.0955 55.6253C92.9773 59.5102 94.0701 61.8776 93.5843 62.3632C93.0987 62.8488 92.8557 63.0917 92.5523 63.2738C92.2488 63.4559 86.5426 65.459 86.3604 65.6412C86.1783 65.8233 81.6861 67.2195 78.8331 69.5261C75.9801 71.8329 73.8554 73.1075 73.0055 72.804C72.1557 72.5006 68.2707 69.5261 67.178 67.3408C66.0852 65.1556 64.082 55.5037 64.082 55.5037C64.082 55.5037 64.2642 52.3471 64.8105 50.7082C65.3569 49.0693 66.5102 45.1844 66.5102 45.1844L66.6926 45.1239Z" fill="#B8B8B8" stroke="#263238" stroke-width="0.120647" stroke-miterlimit="10"/>
<path d="M67.6716 65.0348C69.521 68.959 72.8771 71.4742 74.4803 72.5083C75.429 72.0671 76.7006 71.2112 78.2026 70.0342C76.7846 68.4117 72.8336 63.7644 71.2531 60.6035C69.3107 56.7186 68.218 49.5557 68.218 49.5557C64.333 47.1884 65.3042 51.8623 65.3042 51.8623C65.3042 51.8623 65.1829 59.7537 67.6716 65.0348Z" fill="white" stroke="#263238" stroke-width="0.120647" stroke-miterlimit="10"/>
<path d="M56.5348 41.4302C56.5348 41.4302 53.3495 44.0734 52.8074 46.7163C52.2653 49.3595 54.5016 51.2571 55.315 51.6637C56.1282 52.0703 56.9417 52.4092 57.6193 53.0869C58.297 53.7645 57.8227 54.51 58.568 55.1879C59.3136 55.8655 60.2623 54.849 60.2623 54.849L60.9399 55.2556C60.9399 55.2556 60.9399 56.0687 61.4144 56.2721C61.8889 56.4755 62.9055 56.6787 62.9055 56.6787C62.9055 56.6787 63.3121 57.0853 63.99 57.0853C64.6679 57.0853 65.5487 54.4421 65.5487 54.4421C65.5487 54.4421 67.3785 54.51 67.7174 53.7645C68.0564 53.019 68.5985 51.4603 68.124 49.2916C67.6495 47.1229 67.1753 45.1576 67.1753 45.1576C67.1753 45.1576 66.9719 44.8866 65.7521 43.1245C64.5321 41.3624 62.2957 40.5492 60.6015 40.1426C58.9067 39.736 56.5348 41.4302 56.5348 41.4302Z" fill="white" stroke="#263238" stroke-width="0.120647" stroke-miterlimit="10"/>
<path d="M65.6161 45.4975C66.0615 45.84 66.8009 46.2506 67.4499 46.3204C67.2844 45.6125 67.1749 45.1588 67.1749 45.1588C67.1749 45.1588 66.9714 44.8878 65.7517 43.1257C64.5319 41.3636 62.2953 40.5504 60.601 40.1438C58.9068 39.7372 56.5346 41.4315 56.5346 41.4315C56.5346 41.4315 53.3493 44.0746 52.8072 46.7178C52.5467 47.9872 52.9292 49.0818 53.4853 49.9248C53.7504 49.2353 54.7878 46.7298 56.128 45.9722C57.6867 45.0912 57.7546 48.1409 58.5678 48.1409C59.381 48.1409 60.1944 46.5822 60.7365 46.3788C61.2787 46.1757 61.821 47.3278 62.2953 46.7854C62.7697 46.2433 62.0919 45.1588 62.3629 44.5488C62.634 43.9388 64.7351 44.8199 65.6161 45.4975Z" fill="#263238" stroke="#263238" stroke-width="0.120647" stroke-miterlimit="10"/>
<path d="M62.7515 46.4603C62.7515 46.4603 61.5374 44.7606 62.4481 44.1534C63.3587 43.5465 64.9976 44.639 65.4226 45.9744C65.8474 47.3098 65.4834 48.0383 65.1797 48.0383" fill="white"/>
<path d="M62.7515 46.4603C62.7515 46.4603 61.5374 44.7606 62.4481 44.1534C63.3587 43.5465 64.9976 44.639 65.4226 45.9744C65.8474 47.3098 65.4834 48.0383 65.1797 48.0383" stroke="#263238" stroke-width="0.120647" stroke-miterlimit="10"/>
<path d="M65.5449 48.0378C65.5449 48.0378 66.334 48.6448 66.334 49.9804L65.5449 48.0378Z" fill="white"/>
<path d="M65.5449 48.0378C65.5449 48.0378 66.334 48.6448 66.334 49.9804" stroke="#263238" stroke-width="0.120647" stroke-miterlimit="10"/>
<path d="M57.3524 52.0447C57.3524 52.0447 57.1703 51.4984 57.6558 50.8307C58.1414 50.163 57.4129 49.7379 56.9881 50.8307C56.5631 51.9234 57.0487 51.9842 57.3524 52.0447Z" fill="#263238" stroke="#263238" stroke-width="0.120647" stroke-miterlimit="10"/>
<path d="M65.5557 54.4428L66.0961 52.5911L67.5529 53.9873C67.5529 53.9873 66.9578 54.5341 65.5557 54.4428Z" fill="#263238" stroke="#263238" stroke-width="0.120647" stroke-miterlimit="10"/>
<path d="M59.26 52.1915C59.211 52.3341 58.9402 52.3708 58.6547 52.2729C58.3692 52.1752 58.1774 51.9803 58.2264 51.8374C58.2753 51.6948 58.5464 51.6582 58.8317 51.7561C59.1169 51.854 59.3087 52.0489 59.26 52.1915Z" fill="#263238"/>
<path d="M60.9375 55.2555L61.5946 54.4724" stroke="#263238" stroke-width="0.120647" stroke-miterlimit="10"/>
<path d="M34.0248 68.9198C34.0248 68.9198 33.3571 66.431 33.3571 63.4565C33.3571 60.482 33.3571 57.0827 33.3571 57.0827C33.3571 57.0827 31.111 56.7792 29.2292 55.8078C27.3474 54.8366 22.4912 53.137 22.4912 53.137L17.9385 43.9102C17.9385 43.9102 20.6701 44.5779 23.4018 45.3669C26.1335 46.156 35.1176 48.2807 36.9994 48.5236C38.8812 48.7662 41.37 49.1913 42.2806 51.9229C43.1912 54.6545 44.4659 63.8205 44.8909 65.7023C45.316 67.5841 45.7408 69.2838 45.7408 69.2838C45.7408 69.2838 46.4085 72.6223 46.105 74.0185C45.8015 75.4147 40.7025 80.7566 40.1561 81.5457C39.6097 82.3347 36.7567 83.124 36.4532 82.1526" fill="#92E3A9"/>
<path d="M34.0248 68.9197C34.0248 68.9197 33.3571 66.431 33.3571 63.4565C33.3571 60.482 33.3571 57.0827 33.3571 57.0827C33.3571 57.0827 31.111 56.7792 29.2292 55.8078C27.3473 54.8366 22.4912 53.137 22.4912 53.137L17.9385 43.9102C17.9385 43.9102 20.6701 44.5779 23.4018 45.3669C26.1335 46.156 35.1176 48.2807 36.9994 48.5236C38.8812 48.7662 41.37 49.1913 42.2806 51.9229C43.1912 54.6545 44.4659 63.8205 44.8909 65.7023C45.316 67.5841 45.7408 69.2838 45.7408 69.2838C45.7408 69.2838 46.4085 72.6223 46.105 74.0185C45.8015 75.4147 40.7025 80.7566 40.1561 81.5456C39.6097 82.3347 36.7567 83.124 36.4532 82.1526" stroke="#263238" stroke-width="0.120647" stroke-miterlimit="10"/>
<path d="M9.68986 39.904C9.68986 39.904 8.53655 37.051 7.38323 34.8658C6.22992 32.6805 4.83369 31.2235 4.3481 30.131C3.86251 29.0383 2.58762 30.1918 2.34494 30.738C2.10226 31.2843 0.584455 33.0448 1.49509 35.1692C2.40573 37.2937 4.04463 38.3256 4.89448 38.9328C5.74433 39.5397 7.07977 41.361 7.07977 41.361L9.68986 39.904Z" fill="white" stroke="#263238" stroke-width="0.120647" stroke-miterlimit="10"/>
<path d="M1.91504 36.2621C1.91504 36.2621 4.95018 34.3195 5.6179 32.1343L7.37838 34.8659C7.37838 34.8659 5.6179 37.7189 3.73607 38.1439C3.73607 38.1439 2.34008 37.3548 1.91504 36.2621Z" fill="white" stroke="#263238" stroke-width="0.120647" stroke-miterlimit="10"/>
<path d="M38.3945 71.5301C36.3914 70.8624 33.5989 67.9487 33.5989 67.9487C33.5989 67.9487 27.2249 61.5748 26.7393 61.15C26.2537 60.725 25.4647 59.3896 25.1004 58.7219C24.7362 58.0542 24.0685 56.1724 23.3399 54.0477C22.6114 51.9232 19.8798 45.8528 17.9979 43.182C16.1161 40.5112 13.5666 38.4473 13.5666 38.4473C13.5666 38.4473 10.5314 38.5686 7.98191 39.6613C5.43236 40.7541 4.8252 42.8178 4.8252 42.8178C4.8252 42.8178 5.00732 42.9999 5.31079 43.4855C5.61426 43.9711 8.77097 51.4982 9.68137 53.5621C10.592 55.626 13.6877 59.3288 14.7197 60.4821C15.7516 61.6354 17.9369 61.9391 18.3012 62.6673C18.6654 63.3958 21.5184 69.5268 22.3683 72.1976C23.2181 74.8684 24.4322 77.843 25.5856 79.2997C26.7389 80.7567 29.5921 82.2135 30.6846 82.5777C31.7774 82.942 33.8411 84.3987 34.9339 84.9451C36.0266 85.4915 36.5728 85.188 36.5728 85.188C36.5728 85.188 36.7549 84.5203 37.3013 82.6993C37.8477 80.8783 39.9722 76.5076 39.9722 76.5076" fill="#92E3A9"/>
<path d="M38.3945 71.5301C36.3914 70.8624 33.5989 67.9487 33.5989 67.9487C33.5989 67.9487 27.2249 61.5748 26.7393 61.15C26.2537 60.725 25.4647 59.3896 25.1004 58.7219C24.7362 58.0542 24.0685 56.1724 23.3399 54.0477C22.6114 51.9232 19.8798 45.8528 17.9979 43.182C16.1161 40.5112 13.5666 38.4473 13.5666 38.4473C13.5666 38.4473 10.5314 38.5686 7.98191 39.6613C5.43236 40.7541 4.8252 42.8178 4.8252 42.8178C4.8252 42.8178 5.00732 42.9999 5.31079 43.4855C5.61426 43.9711 8.77097 51.4982 9.68136 53.5621C10.592 55.626 13.6877 59.3288 14.7197 60.4821C15.7516 61.6354 17.9369 61.9391 18.3012 62.6673C18.6654 63.3958 21.5184 69.5268 22.3683 72.1976C23.2181 74.8684 24.4322 77.843 25.5856 79.2997C26.7389 80.7567 29.5921 82.2135 30.6846 82.5777C31.7774 82.942 33.8411 84.3987 34.9339 84.9451C36.0266 85.4915 36.5728 85.188 36.5728 85.188C36.5728 85.188 36.7549 84.5203 37.3013 82.6993C37.8477 80.8783 39.9722 76.5076 39.9722 76.5076" stroke="#263238" stroke-width="0.120647" stroke-miterlimit="10"/>
<path d="M20.2539 56.6001C20.8287 57.3068 21.2961 57.7477 21.5832 57.9322" stroke="#263238" stroke-width="0.120647" stroke-miterlimit="10"/>
<path d="M10.5273 39.6003C11.2559 39.9038 14.0481 44.0316 16.1728 49.3127C17.2665 52.0316 18.4409 54.0908 19.4388 55.5234" stroke="#263238" stroke-width="0.120647" stroke-miterlimit="10"/>
<path d="M38.3351 86.4024L36.1498 85.1276C36.1498 85.1276 35.4821 83.0031 37.3031 79.6643C39.1241 76.3258 42.0379 72.4407 42.0379 72.4407C42.0379 72.4407 42.6449 69.2234 42.2201 67.6451C41.7953 66.0668 40.9454 63.0317 41.6131 61.6355C42.2809 60.2393 44.4661 58.7218 45.1946 58.4183C45.9232 58.1149 49.0191 55.9296 49.1404 55.2011C49.2618 54.4726 49.5047 53.1372 49.5047 53.1372H51.083C51.083 53.1372 50.5366 55.2011 50.4761 55.3832C50.4153 55.5654 46.9554 58.1149 45.377 59.0255C43.7987 59.9361 42.524 60.9681 42.3419 61.575C42.1598 62.1819 43.556 65.5207 43.9808 67.0382C44.4058 68.5557 44.5272 70.3767 44.4058 70.6197C44.2845 70.8626 41.7349 74.019 41.7349 74.019L41.0064 76.8719C41.0064 76.8719 38.4564 83.9135 38.3351 86.4024Z" fill="#263238" stroke="#263238" stroke-width="0.120647" stroke-miterlimit="10"/>
<path d="M56.8545 74.9894C56.8545 74.9894 54.7906 73.8969 54.0015 73.2897C53.2125 72.6828 52.3626 72.2578 51.6341 71.7114C50.9056 71.165 49.9344 71.0437 47.8705 70.7402C45.8065 70.4368 42.4679 72.3186 40.9504 75.7785C39.4328 79.2386 37.9152 85.0053 38.34 86.4015C38.7651 87.7977 42.1037 90.3472 44.1068 91.3183C46.11 92.2895 49.8736 93.3215 52.3018 93.5036C54.73 93.6857 59.1006 93.5036 61.1038 92.3503C63.1069 91.197 65.8386 87.9798 66.6277 87.0692C67.4167 86.1586 71.666 84.3983 73.4265 82.8808C75.1869 81.3633 75.3691 78.0247 75.8547 77.1747C76.3403 76.3248 77.4936 73.7753 78.5863 72.8042C79.6791 71.833 80.7716 70.4368 81.1967 68.0086C81.6215 65.5805 80.7716 63.3344 80.7716 63.3344C80.7716 63.3344 79.6183 61.9382 78.5255 61.9382C77.4328 61.9382 76.9472 62.5452 76.2795 63.9414C75.6117 65.3376 73.9728 66.7338 73.7299 68.0084C73.487 69.283 72.4553 69.3438 72.5158 70.1331C72.5766 70.9221 71.7873 72.5005 70.634 72.8039C69.4807 73.1074 67.8415 72.8039 67.1133 73.4108C66.3848 74.0178 65.1101 75.8995 65.1101 75.8995C65.1101 75.8995 63.3496 76.203 62.1963 76.203C61.043 76.2035 56.8545 74.9894 56.8545 74.9894Z" fill="#92E3A9" stroke="#263238" stroke-width="0.120647" stroke-miterlimit="10"/>
<path d="M78.4626 68.5557C78.4626 68.5557 75.6702 70.2553 75.1846 70.9838" stroke="#263238" stroke-width="0.120647" stroke-miterlimit="10"/>
<path d="M77.914 67.7661L74.9395 68.7373" stroke="#263238" stroke-width="0.120647" stroke-miterlimit="10"/>
<path d="M70.9932 73.7759C70.9932 73.7759 71.7822 74.4436 72.2073 76.9323C72.6323 79.421 74.1499 79.1783 74.5747 78.0856" stroke="#263238" stroke-width="0.120647" stroke-miterlimit="10"/>
<path d="M79.5001 60.1173C79.5001 60.1173 77.8611 60.2994 77.6182 61.574C77.3753 62.8489 77.9825 63.9414 78.8929 64.0628C79.8035 64.1841 81.3816 63.1521 81.5638 61.8775C81.7459 60.6029 80.4104 59.3282 79.5001 60.1173Z" fill="white" stroke="#263238" stroke-width="0.120647" stroke-miterlimit="10"/>
<path d="M78.5313 61.9388C78.5313 61.9388 78.4705 62.6065 78.8956 62.7887C79.3204 62.9708 79.7454 63.6385 79.7454 63.9419C79.7454 64.2454 79.9276 64.3667 80.3524 64.0027C80.7774 63.6385 80.7774 63.0316 80.7774 63.0316C80.7774 63.0316 81.8702 61.9388 81.9307 60.7855C81.9915 59.6322 81.263 58.5395 80.7166 58.1147C80.1702 57.6897 78.5921 58.1755 78.5921 58.8432C78.5921 59.5109 79.5633 60.7858 79.5633 60.7858L80.1097 61.6964" fill="white"/>
<path d="M78.5313 61.9388C78.5313 61.9388 78.4705 62.6065 78.8956 62.7887C79.3204 62.9708 79.7454 63.6385 79.7454 63.9419C79.7454 64.2454 79.9276 64.3667 80.3524 64.0027C80.7774 63.6385 80.7774 63.0316 80.7774 63.0316C80.7774 63.0316 81.8702 61.9388 81.9307 60.7855C81.9915 59.6322 81.263 58.5395 80.7166 58.1147C80.1702 57.6897 78.5921 58.1755 78.5921 58.8432C78.5921 59.5109 79.5633 60.7858 79.5633 60.7858L80.1097 61.6964" stroke="#263238" stroke-width="0.120647" stroke-miterlimit="10"/>
<path d="M78.9542 59.8145C78.9542 59.8145 78.8934 59.2076 79.4398 59.2682C79.9861 59.3289 81.0787 60.3609 81.0787 61.3321" stroke="#263238" stroke-width="0.120647" stroke-miterlimit="10"/>
<path d="M78.7725 58.3574C78.7725 58.3574 80.3508 57.8111 81.1399 59.7536" stroke="#263238" stroke-width="0.120647" stroke-miterlimit="10"/>
<path d="M50.2324 63.5774L52.539 60.8458C52.539 60.8458 54.2995 59.0854 54.7851 58.2355C55.2707 57.3857 56.9099 55.9289 57.2739 55.9289C57.6381 55.9289 57.8808 56.0503 57.8808 56.0503C57.8808 56.0503 58.4877 55.8074 58.7307 55.8074C58.9733 55.8074 59.3376 55.5645 59.7018 55.9287C60.0661 56.293 59.8232 57.3249 59.8232 57.3249C59.8232 57.3249 60.0659 57.507 59.6411 58.2355C59.2163 58.964 58.6091 59.6317 58.6091 59.6317C58.9267 59.592 58.9128 60.9896 57.82 61.6956C57.25 62.0639 56.9094 63.0918 55.9382 63.1524C54.967 63.2132 54.2993 63.5774 54.2993 63.5774L52.9639 65.9448L50.2324 63.5774Z" fill="white" stroke="#263238" stroke-width="0.120647" stroke-miterlimit="10"/>
<path d="M58.6089 59.632L56.8484 61.8173L53.9346 59.5712L55.0273 57.8716L55.5737 57.5681C55.5737 57.5681 57.8803 58.4179 58.6089 59.632Z" fill="white" stroke="#263238" stroke-width="0.120647" stroke-miterlimit="10"/>
<path d="M59.8257 57.325L58.126 58.8425" stroke="#263238" stroke-width="0.120647" stroke-miterlimit="10"/>
<path d="M59.4018 55.8687L57.3984 58.236" stroke="#263238" stroke-width="0.120647" stroke-miterlimit="10"/>
<path d="M46.5941 89.6796C46.5941 89.6796 41.8593 80.3315 40.7057 77.4177C39.5524 74.504 39.1274 72.8651 39.8559 71.8937C40.5844 70.9225 49.7506 63.2741 50.3575 63.2133C50.9644 63.1525 51.9964 63.8202 53.15 65.2164C54.3033 66.6126 56.1245 68.6157 55.2745 69.1013C54.4246 69.5869 48.4149 75.657 48.4149 75.657C48.4149 75.657 52.3607 77.7815 52.2393 78.9956C52.118 80.2097 51.9964 80.8166 51.9964 80.8166L55.5171 80.0275" fill="#92E3A9"/>
<path d="M46.5941 89.6796C46.5941 89.6796 41.8593 80.3315 40.7057 77.4177C39.5524 74.504 39.1274 72.8651 39.8559 71.8937C40.5844 70.9225 49.7506 63.2741 50.3575 63.2133C50.9644 63.1525 51.9964 63.8202 53.15 65.2164C54.3033 66.6126 56.1245 68.6157 55.2745 69.1013C54.4246 69.5869 48.4149 75.657 48.4149 75.657C48.4149 75.657 52.3607 77.7815 52.2393 78.9956C52.118 80.2097 51.9964 80.8166 51.9964 80.8166L55.5171 80.0275" stroke="#263238" stroke-width="0.120647" stroke-miterlimit="10"/>
<path d="M48.2032 82.021L47.0215 82.3957" stroke="#263238" stroke-width="0.120647" stroke-miterlimit="10"/>
<path d="M51.9934 80.8169L49.627 81.5671" stroke="#263238" stroke-width="0.120647" stroke-miterlimit="10"/>
<path d="M43.9871 73.7776C43.5401 73.6544 43.138 73.5825 42.8291 73.5943" stroke="#263238" stroke-width="0.120647" stroke-miterlimit="10"/>
<path d="M48.4185 75.6577C48.4185 75.6577 46.6978 74.7452 45.0674 74.1333" stroke="#263238" stroke-width="0.120647" stroke-miterlimit="10"/>
<path d="M48.6543 64.7319C48.6543 64.7319 52.7822 66.7351 53.6926 70.1952" stroke="#263238" stroke-width="0.120647" stroke-miterlimit="10"/>
<path d="M53.6677 87.8889C53.3735 88.2484 53.0941 88.5543 52.8477 88.77" stroke="#263238" stroke-width="0.120647" stroke-miterlimit="10"/>
<path d="M56.9137 83.063C56.9137 83.063 55.8358 84.893 54.6787 86.5392" stroke="#263238" stroke-width="0.120647" stroke-miterlimit="10"/>
<path d="M57.2197 83.731C57.2197 83.731 56.1269 88.0409 54.2451 90.2869" stroke="#263238" stroke-width="0.120647" stroke-miterlimit="10"/>
<path d="M57.8857 56.0513L56.3682 57.8723" stroke="#263238" stroke-width="0.120647" stroke-miterlimit="10"/>
<path d="M61.8717 74.6997C61.8717 74.6997 59.1358 73.5071 58.8553 74.0684C58.5748 74.6297 58.715 75.6117 58.715 75.6117C58.715 75.6117 57.1717 75.6117 56.5404 76.8043C55.9091 77.9968 55.9791 79.7504 56.4001 80.873C56.8209 81.9953 56.4704 83.5386 59.4868 85.2222C62.5033 86.9057 64.9584 87.537 66.9928 87.046C69.0272 86.555 71.7631 82.6266 71.3421 78.9086C70.9211 75.1907 67.5541 73.9281 65.73 73.8579C63.9061 73.7876 62.9241 73.8579 62.5733 74.0684C62.2225 74.2787 61.8717 74.6997 61.8717 74.6997Z" fill="white" stroke="#263238" stroke-width="0.120647" stroke-miterlimit="10"/>
<path d="M60.6047 75.6113C60.6047 75.6113 59.2016 76.5934 59.3419 78.4172" stroke="#263238" stroke-width="0.120647" stroke-miterlimit="10"/>
<path d="M58.2959 76.0327C58.2959 76.0327 57.4541 76.594 57.4541 77.646" stroke="#263238" stroke-width="0.120647" stroke-miterlimit="10"/>
<path d="M61.7335 84.8009C60.4505 85.5439 58.7158 84.4691 58.0869 84.2624C58.4486 84.5755 58.9048 84.896 59.4886 85.2217C62.505 86.9053 64.9602 87.5366 66.9946 87.0455C69.029 86.5545 71.7647 82.6261 71.3439 78.9082C70.968 75.5883 68.2453 74.2292 66.3675 73.9258C66.4255 74.0589 66.5343 74.2016 66.7138 74.3487C67.4854 74.98 67.2049 77.4351 65.942 78.0666C64.6792 78.6979 62.0135 78.4174 61.3822 78.8382C60.7509 79.2592 61.1017 80.3112 60.3299 80.8725C59.5581 81.4338 59.8389 80.8725 59.4179 81.5038C58.9968 82.1351 60.3999 82.6963 60.3999 82.6963C60.3999 82.6963 63.0663 84.0294 61.7335 84.8009Z" fill="#263238" stroke="#263238" stroke-width="0.120647" stroke-miterlimit="10"/>
<path d="M80.1708 65.3987C80.1708 65.3987 79.3818 65.4595 79.0175 65.9451C78.6533 66.4306 78.1069 67.4626 77.9247 67.7661C77.7426 68.0695 78.4711 68.5551 78.4711 68.5551C78.4711 68.5551 77.437 69.6308 78.197 70.0338C78.9569 70.4369 79.5639 70.194 79.5639 70.194C79.5639 70.194 80.4137 70.6188 81.0207 70.6188C81.6276 70.6188 82.4777 70.194 83.1454 69.7689C83.8131 69.3439 84.4201 67.6442 84.5416 67.4016C84.6627 67.1589 81.0812 66.7949 80.1708 65.3987Z" fill="white" stroke="#263238" stroke-width="0.120647" stroke-miterlimit="10"/>
<path d="M73.0245 53.3917C72.3203 52.8966 71.8354 52.527 71.7969 52.4692L73.0245 53.3917Z" fill="white"/>
<path d="M73.0245 53.3917C72.3203 52.8966 71.8354 52.527 71.7969 52.4692" stroke="#263238" stroke-width="0.120647" stroke-miterlimit="10"/>
<path d="M70.3428 44.7606C70.3428 44.7606 74.167 41.4826 78.2343 41.3612C82.3014 41.2399 85.3366 45.8533 87.5218 47.8564C89.7071 49.8596 92.9852 53.1375 92.5601 54.8372C92.1353 56.5369 86.9755 65.7637 86.6112 66.6135C86.247 67.4633 86.0648 67.8881 86.0648 67.8881C86.0648 67.8881 84.0009 68.1916 82.3012 67.5239C80.6015 66.8562 79.7516 65.7634 79.9943 65.0957C80.2372 64.428 81.5119 62.8497 81.5727 61.8785C81.6335 60.9074 81.694 59.1469 81.4513 58.2363C81.2084 57.3257 81.2084 56.7188 81.2692 56.5366C81.33 56.3545 81.33 55.6868 81.33 55.6868C81.33 55.6868 80.2372 57.0222 78.3554 56.4758C77.3857 56.1944 75.7065 55.1873 74.2902 54.2525" fill="#B8B8B8"/>
<path d="M70.3428 44.7606C70.3428 44.7606 74.167 41.4826 78.2343 41.3612C82.3014 41.2399 85.3366 45.8533 87.5218 47.8564C89.7071 49.8596 92.9852 53.1375 92.5601 54.8372C92.1353 56.5369 86.9755 65.7637 86.6112 66.6135C86.247 67.4633 86.0648 67.8881 86.0648 67.8881C86.0648 67.8881 84.0009 68.1916 82.3012 67.5239C80.6015 66.8562 79.7516 65.7634 79.9943 65.0957C80.2372 64.428 81.5119 62.8497 81.5727 61.8785C81.6335 60.9074 81.694 59.1469 81.4513 58.2363C81.2084 57.3257 81.2084 56.7188 81.2692 56.5366C81.33 56.3545 81.33 55.6868 81.33 55.6868C81.33 55.6868 80.2372 57.0222 78.3554 56.4758C77.3857 56.1944 75.7065 55.1873 74.2902 54.2525" stroke="#263238" stroke-width="0.120647" stroke-miterlimit="10"/>
<path d="M83.2695 51.5998C83.5529 51.3573 83.8732 51.1717 84.2343 51.0742" stroke="#263238" stroke-width="0.120647" stroke-miterlimit="10"/>
<path d="M81.3242 55.6873C81.3242 55.6873 81.6662 53.6354 82.684 52.2461" stroke="#263238" stroke-width="0.120647" stroke-miterlimit="10"/>
<path d="M81.626 55.5054C81.626 55.5054 83.3257 53.927 85.511 54.4126" stroke="#263238" stroke-width="0.120647" stroke-miterlimit="10"/>
<path d="M82.665 58.0546C82.665 58.0546 83.8791 57.144 85.4575 59.3293" stroke="#263238" stroke-width="0.120647" stroke-miterlimit="10"/>
<path d="M77.5079 48.5864C76.4097 50.0803 75.5284 51.6331 75.8629 52.4692" stroke="#263238" stroke-width="0.120647" stroke-miterlimit="10"/>
<path d="M80.2563 51.088C80.3528 48.7587 81.2613 45.1247 81.2613 45.1247C81.2613 45.1247 81.14 44.2141 80.6544 44.8213C80.4529 45.0732 79.467 46.12 78.4346 47.3885" stroke="#263238" stroke-width="0.120647" stroke-miterlimit="10"/>
<path d="M80.3502 52.4698C80.2828 52.2253 80.2516 51.9071 80.248 51.5403" stroke="#263238" stroke-width="0.120647" stroke-miterlimit="10"/>
<path d="M86.7212 93.5249C86.7212 93.5249 92.958 92.8068 94.3294 90.6123C95.7008 88.4181 89.5293 87.5952 88.8436 87.5952C88.1579 87.5952 84.736 90.5402 86.7212 93.5249Z" fill="#263238" stroke="#263238" stroke-width="0.120647" stroke-miterlimit="10"/>
<path d="M88.9902 89.964C88.9902 89.964 92.3896 91.8254 92.9561 92.473L92.4705 93.4442C92.4705 93.4442 90.2852 93.5251 90.1234 94.4154C89.9617 95.3056 90.2852 95.5485 90.9328 95.7912C91.5802 96.0341 92.3087 95.8721 92.3087 95.8721C92.3087 95.8721 92.6325 96.115 93.6037 95.8721C94.5749 95.6292 100.726 95.3865 101.536 95.1436C102.345 94.9007 102.912 92.6346 101.86 91.7443C100.807 90.854 97.0842 90.5302 97.0842 90.5302L95.4654 89.3161C95.4654 89.3161 92.7134 87.6978 88.9902 89.964Z" fill="white" stroke="#263238" stroke-width="0.120647" stroke-miterlimit="10"/>
<path d="M92.9551 92.4726L93.6027 92.3917C93.6027 92.3917 93.3598 92.3108 94.0883 92.0679C94.8168 91.825 94.8168 91.825 94.8168 91.825C94.8168 91.825 95.1406 91.2585 95.5453 91.1776C95.95 91.0967 96.1927 91.0159 96.1927 91.0159C96.1927 91.0159 96.0309 90.5303 97.083 90.5303" stroke="#263238" stroke-width="0.120647" stroke-miterlimit="10"/>
<path d="M96.19 91.0154C96.19 91.0154 95.9473 91.7439 97.4041 91.5819" stroke="#263238" stroke-width="0.120647" stroke-miterlimit="10"/>
<path d="M94.8167 91.8252C94.8167 91.8252 94.7358 92.4728 95.8688 92.149" stroke="#263238" stroke-width="0.120647" stroke-miterlimit="10"/>
<path d="M93.6055 92.3916C93.6055 92.3916 93.6055 93.201 94.7387 93.201" stroke="#263238" stroke-width="0.120647" stroke-miterlimit="10"/>
<path d="M92.4639 93.4443C92.4639 93.4443 93.1115 94.3346 94.0827 93.687" stroke="#263238" stroke-width="0.120647" stroke-miterlimit="10"/>
<path d="M92.3037 95.8725C92.3037 95.8725 92.7893 95.8725 92.7893 94.9822" stroke="#263238" stroke-width="0.120647" stroke-miterlimit="10"/>
<path d="M94.0124 65.764C94.0124 65.764 91.5033 65.5211 87.3754 66.5734C83.2475 67.6254 77.6628 71.9962 75.8013 74.4243C73.9399 76.8525 74.8301 80.1709 76.206 82.1941C77.5819 84.2176 79.5245 84.9459 79.5245 84.9459L83.0857 88.5881C83.0857 88.5881 86.1613 93.5253 86.728 93.5253C86.728 93.5253 87.3756 91.9065 90.3703 90.2878C93.365 88.669 95.4694 89.3166 95.4694 89.3166C95.4694 89.3166 92.5556 86.322 91.1797 83.732C89.8038 81.1421 88.3468 78.633 88.3468 78.633C88.3468 78.633 90.0465 79.1995 92.8794 78.0666C95.7123 76.9334 97.5738 72.2391 97.1691 70.4585C96.7644 68.6777 95.3074 66.0067 94.0124 65.764Z" fill="#B8B8B8" stroke="#263238" stroke-width="0.120647" stroke-miterlimit="10"/>
<path d="M79.3353 80.5102L78.3965 79.0376" stroke="#263238" stroke-width="0.120647" stroke-miterlimit="10"/>
<path d="M87.2207 92.878L80.2197 81.8948" stroke="#263238" stroke-width="0.120647" stroke-miterlimit="10"/>
<path d="M79.5283 84.9462C79.5283 84.9462 78.0715 82.9227 76.8574 81.7898" stroke="#263238" stroke-width="0.120647" stroke-miterlimit="10"/>
<path d="M88.3482 78.6328C88.3482 78.6328 86.2438 77.2569 85.0297 76.6093C83.8156 75.9617 82.6826 76.9331 82.6826 76.9331" stroke="#263238" stroke-width="0.120647" stroke-miterlimit="10"/>
<path d="M90.9922 77.1575C91.952 77.465 92.5601 77.596 92.7997 77.5002" stroke="#263238" stroke-width="0.120647" stroke-miterlimit="10"/>
<path d="M83.8154 75.5567C83.8154 75.5567 86.0816 75.3949 88.5098 76.2852C88.9542 76.4481 89.3663 76.5976 89.7452 76.7319" stroke="#263238" stroke-width="0.120647" stroke-miterlimit="10"/>
<path d="M83.9766 74.5045C83.9766 74.5045 85.7571 74.0189 88.2662 74.7474" stroke="#263238" stroke-width="0.120647" stroke-miterlimit="10"/>
<path d="M94.7695 68.4485C95.0427 68.7252 95.283 69.0426 95.4753 69.4069" stroke="#263238" stroke-width="0.120647" stroke-miterlimit="10"/>
<path d="M89.3203 66.5735C89.3203 66.5735 92.3034 66.5212 94.2718 68.0158" stroke="#263238" stroke-width="0.120647" stroke-miterlimit="10"/>
</svg>
