<svg width="111" height="101" viewBox="0 0 111 101" fill="none" xmlns="http://www.w3.org/2000/svg">
<path d="M72.4481 100.485C79.151 100.485 84.5848 99.737 84.5848 98.8144C84.5848 97.8919 79.151 97.144 72.4481 97.144C65.7453 97.144 60.3115 97.8919 60.3115 98.8144C60.3115 99.737 65.7453 100.485 72.4481 100.485Z" fill="#B3D5FF"/>
<path d="M19.1169 97.6051C19.1169 98.1664 14.8375 98.6215 9.55844 98.6215C4.27938 98.6215 0 98.1664 0 97.6051C0 97.0435 4.27938 96.5884 9.55844 96.5884C14.8375 96.5884 19.1169 97.0435 19.1169 97.6051Z" fill="#B3D5FF"/>
<path d="M75.7827 4.24927C75.0238 4.40775 73.9162 4.58926 72.6547 4.63833C72.6056 5.89988 72.4244 7.00722 72.2656 7.76606C72.2065 8.04871 71.8045 8.04871 71.7454 7.76606C71.5869 7.00722 71.4054 5.89963 71.3566 4.63833C70.095 4.58926 68.9877 4.408 68.2286 4.24927C67.9459 4.19019 67.9459 3.78811 68.2286 3.72903C68.9874 3.57055 70.095 3.38904 71.3566 3.33997C71.4056 2.07841 71.5869 0.971078 71.7454 0.211991C71.8045 -0.0706637 72.2065 -0.0706637 72.2656 0.211991C72.4241 0.970828 72.6056 2.07841 72.6547 3.33997C73.9162 3.38904 75.0236 3.5703 75.7827 3.72903C76.0656 3.78811 76.0656 4.19019 75.7827 4.24927Z" fill="#B3D5FF"/>
<path d="M16.7531 12.1267C15.9943 12.2852 14.8867 12.4667 13.6254 12.5158C13.5763 13.7773 13.3951 14.8847 13.2363 15.6437C13.1772 15.9264 12.7752 15.9264 12.7161 15.6437C12.5576 14.8847 12.3761 13.7773 12.3273 12.5158C11.0657 12.4667 9.95838 12.2854 9.1993 12.1267C8.91664 12.0676 8.91664 11.6656 9.1993 11.6065C9.95813 11.448 11.0657 11.2665 12.3273 11.2174C12.3763 9.95585 12.5576 8.84852 12.7161 8.08943C12.7752 7.80678 13.1772 7.80678 13.2363 8.08943C13.3948 8.84852 13.5763 9.95585 13.6254 11.2174C14.8869 11.2665 15.9943 11.4477 16.7531 11.6065C17.036 11.6656 17.036 12.0676 16.7531 12.1267Z" fill="#B3D5FF"/>
<path d="M89.6811 68.7349C88.9223 68.8933 87.8147 69.0749 86.5531 69.1239C86.5041 70.3855 86.3228 71.4928 86.1641 72.2517C86.105 72.5343 85.7029 72.5343 85.6438 72.2517C85.4853 71.4928 85.3038 70.3852 85.255 69.1239C83.9935 69.0749 82.8861 68.8936 82.127 68.7349C81.8444 68.6758 81.8444 68.2737 82.127 68.2146C82.8859 68.0561 83.9935 67.8746 85.255 67.8256C85.3041 66.564 85.4853 65.4567 85.6438 64.6978C85.7029 64.4152 86.105 64.4152 86.1641 64.6978C86.3225 65.4567 86.5041 66.5643 86.5531 67.8256C87.8147 67.8746 88.922 68.0559 89.6809 68.2146C89.9638 68.2737 89.9638 68.6758 89.6811 68.7349Z" fill="#FFFDFD"/>
<path d="M16.299 59.7065C15.5402 59.865 14.4326 60.0465 13.171 60.0956C13.122 61.3572 12.9407 62.4645 12.7822 63.2236C12.7231 63.5062 12.3211 63.5062 12.262 63.2236C12.1035 62.4647 11.922 61.3572 11.8732 60.0956C10.6116 60.0465 9.50428 59.8653 8.74519 59.7065C8.46254 59.6475 8.46254 59.2454 8.74519 59.1863C9.50428 59.0278 10.6116 58.8463 11.8732 58.7975C11.9222 57.5359 12.1035 56.4286 12.262 55.6695C12.3211 55.3869 12.7231 55.3869 12.7822 55.6695C12.9407 56.4286 13.1222 57.5359 13.171 58.7975C14.4326 58.8466 15.5399 59.0278 16.299 59.1863C16.5819 59.2454 16.5819 59.6475 16.299 59.7065Z" fill="#FFFDFD"/>
<path d="M74.7812 20.6234C75.7951 20.6234 76.6171 19.8015 76.6171 18.7875C76.6171 17.7736 75.7951 16.9517 74.7812 16.9517C73.7673 16.9517 72.9453 17.7736 72.9453 18.7875C72.9453 19.8015 73.7673 20.6234 74.7812 20.6234Z" fill="#FFFDFD"/>
<path d="M72.5603 14.4967C72.5603 15.1236 72.0521 15.6318 71.4252 15.6318C70.7983 15.6318 70.29 15.1236 70.29 14.4967C70.29 13.8698 70.7983 13.3616 71.4252 13.3616C72.0521 13.3616 72.5603 13.8698 72.5603 14.4967Z" fill="#FFFDFD"/>
<path d="M76.3905 67.5792C77.1075 66.8622 77.1075 65.6998 76.3905 64.9829C75.6736 64.2659 74.5112 64.2659 73.7942 64.9829C73.0773 65.6998 73.0773 66.8622 73.7942 67.5792C74.5112 68.2961 75.6736 68.2961 76.3905 67.5792Z" fill="#B3D5FF"/>
<path d="M77.3154 61.9901C77.3154 62.617 77.8237 63.1252 78.4506 63.1252C79.0775 63.1252 79.5857 62.617 79.5857 61.9901C79.5857 61.3632 79.0775 60.855 78.4506 60.855C77.8237 60.855 77.3154 61.3632 77.3154 61.9901Z" fill="#B3D5FF"/>
<path d="M32.3464 4.30351C33.3596 4.26621 34.2113 5.05734 34.2486 6.07054C34.286 7.08374 33.4948 7.93546 32.4816 7.97277C31.4684 8.01007 30.6167 7.21894 30.5794 6.20574C30.5421 5.19254 31.3332 4.34082 32.3464 4.30351Z" fill="#FFFDFD"/>
<path d="M28.2076 8.51616C28.834 8.49313 29.3608 8.98233 29.3838 9.60873C29.4068 10.2351 28.9179 10.7619 28.2912 10.7849C27.6646 10.8079 27.1381 10.3187 27.115 9.69235C27.092 9.06595 27.581 8.53945 28.2076 8.51616Z" fill="#FFFDFD"/>
<path d="M84.9768 38.5378C84.908 38.9409 83.8206 45.2853 82.5391 47.3605L83.7092 48.6341C84.7527 47.0658 85.4575 44.7895 85.9046 42.871C85.286 41.5251 84.9783 40.05 84.9768 38.5378Z" fill="#FDC026"/>
<path d="M85.1277 50.1784C87.3039 49.0766 93.7155 48.5273 94.1231 48.493C92.6165 48.3648 91.1724 47.9337 89.883 47.2026C87.9338 47.486 85.6064 47.996 83.9561 48.9031L85.1277 50.1784Z" fill="#FDC026"/>
<path d="M85.1276 50.1786L82.5384 47.3604C82.5122 47.4027 82.4861 47.4465 82.4598 47.4853C81.371 49.0838 77.9719 52.2827 76.6535 53.5004C76.3613 53.7703 76.3433 54.2254 76.6122 54.5184L77.4945 55.4787C77.7634 55.7714 78.2188 55.7919 78.5122 55.5235C79.8371 54.3128 83.3118 51.1963 84.9965 50.2465C85.0375 50.2237 85.0833 50.2012 85.1276 50.1786Z" fill="#24736B"/>
<path d="M104.049 44.9129C101.153 47.5742 97.495 48.7771 94.1375 48.4937C94.1337 48.4935 94.1282 48.4915 94.1224 48.493C91.6171 48.2797 89.2805 47.2352 87.55 45.352C85.8215 43.4705 84.9783 41.0541 84.9756 38.5377C84.9778 38.5322 84.9778 38.5285 84.9763 38.5227C84.9776 35.1531 86.4858 31.6101 89.3821 28.949C94.4421 24.3001 101.83 24.1043 105.88 28.5116C109.931 32.9209 109.109 40.2639 104.049 44.9129Z" fill="#FDDE44"/>
<path d="M102.781 43.527C106.965 39.6832 107.642 33.6131 104.294 29.9691C100.946 26.3251 94.8405 26.4871 90.657 30.3309C86.4735 34.1747 85.7962 40.2448 89.1443 43.8888C92.4923 47.5328 98.5979 47.3708 102.781 43.527Z" fill="#319C91"/>
<path d="M96.4246 32.4126C96.0225 32.7821 95.3968 32.7556 95.0273 32.3535C94.6578 31.9514 94.6843 31.3258 95.0864 30.9563C95.4885 30.5867 96.1141 30.6133 96.4836 31.0153C96.8532 31.4174 96.8269 32.0431 96.4246 32.4126Z" fill="#24736B"/>
<path d="M98.4607 34.6287C98.0586 34.9982 97.433 34.9716 97.0634 34.5696C96.6939 34.1675 96.7204 33.5419 97.1225 33.1723C97.5246 32.8028 98.1502 32.8293 98.5198 33.2314C98.8896 33.6335 98.863 34.2591 98.4607 34.6287Z" fill="#24736B"/>
<path d="M100.497 36.8445C100.095 37.214 99.4691 37.1875 99.0996 36.7854C98.73 36.3833 98.7566 35.7577 99.1587 35.3881C99.5607 35.0186 100.186 35.0451 100.556 35.4472C100.925 35.8493 100.899 36.4749 100.497 36.8445Z" fill="#24736B"/>
<path d="M102.533 39.0603C102.131 39.4298 101.505 39.4033 101.136 39.0012C100.766 38.5991 100.793 37.9735 101.195 37.604C101.597 37.2344 102.223 37.261 102.592 37.663C102.962 38.0651 102.935 38.6908 102.533 39.0603Z" fill="#24736B"/>
<path d="M93.3074 33.2229C92.9053 33.5924 92.2796 33.5659 91.9101 33.1638C91.5406 32.7617 91.5671 32.1361 91.9692 31.7666C92.3713 31.397 92.9969 31.4236 93.3665 31.8256C93.7362 32.228 93.7097 32.8534 93.3074 33.2229Z" fill="#24736B"/>
<path d="M95.3435 35.439C94.9414 35.8085 94.3158 35.7819 93.9462 35.3799C93.5767 34.9778 93.6033 34.3522 94.0053 33.9826C94.4074 33.6131 95.0331 33.6396 95.4026 34.0417C95.7721 34.4438 95.7456 35.0694 95.3435 35.439Z" fill="#24736B"/>
<path d="M97.3796 37.6548C96.9776 38.0243 96.3519 37.9978 95.9824 37.5957C95.6129 37.1936 95.6394 36.568 96.0415 36.1984C96.4435 35.8289 97.0692 35.8555 97.4387 36.2575C97.8082 36.6596 97.7817 37.2853 97.3796 37.6548Z" fill="#24736B"/>
<path d="M99.4158 39.8708C99.0137 40.2404 98.388 40.2138 98.0185 39.8118C97.649 39.4097 97.6755 38.784 98.0776 38.4145C98.4797 38.045 99.1053 38.0715 99.4748 38.4736C99.8444 38.8757 99.8178 39.5013 99.4158 39.8708Z" fill="#24736B"/>
<path d="M99.4988 31.6211C99.0967 31.9906 98.4711 31.9641 98.1015 31.562C97.732 31.1599 97.7585 30.5343 98.1606 30.1648C98.5627 29.7952 99.1883 29.8218 99.5579 30.2238C99.9274 30.6262 99.9008 31.2518 99.4988 31.6211Z" fill="#24736B"/>
<path d="M101.535 33.8372C101.133 34.2067 100.507 34.1801 100.138 33.7781C99.7681 33.376 99.7947 32.7503 100.197 32.3808C100.599 32.0113 101.224 32.0378 101.594 32.4399C101.964 32.842 101.937 33.4676 101.535 33.8372Z" fill="#24736B"/>
<path d="M103.571 36.053C103.169 36.4225 102.543 36.396 102.174 35.9939C101.804 35.5918 101.831 34.9662 102.233 34.5966C102.635 34.2271 103.261 34.2536 103.63 34.6557C104 35.0578 103.973 35.6834 103.571 36.053Z" fill="#24736B"/>
<path d="M92.2371 36.2602C92.6391 35.8907 92.6657 35.2651 92.2961 34.863C91.9266 34.4609 91.3012 34.4344 90.8989 34.8039C90.4968 35.1734 90.4703 35.7991 90.8398 36.2012C91.2093 36.6032 91.835 36.6298 92.2371 36.2602Z" fill="#24736B"/>
<path d="M94.2732 38.4761C94.6753 38.1065 94.7018 37.4809 94.3323 37.0788C93.9627 36.6767 93.3371 36.6502 92.935 37.0197C92.5329 37.3893 92.5064 38.0149 92.8759 38.417C93.2455 38.8191 93.8711 38.8456 94.2732 38.4761Z" fill="#24736B"/>
<path d="M96.3093 40.6921C96.7114 40.3226 96.7379 39.697 96.3684 39.2949C95.9989 38.8928 95.3732 38.8663 94.9712 39.2358C94.5691 39.6053 94.5425 40.231 94.9121 40.633C95.2816 41.0351 95.907 41.0617 96.3093 40.6921Z" fill="#24736B"/>
<path d="M98.3454 42.9082C98.7475 42.5387 98.7741 41.913 98.4045 41.5109C98.035 41.1089 97.4094 41.0823 97.0073 41.4519C96.6052 41.8214 96.5787 42.447 96.9482 42.8491C97.3177 43.2512 97.9431 43.2775 98.3454 42.9082Z" fill="#24736B"/>
<path d="M91.1892 39.2566C91.5913 38.8871 91.6178 38.2614 91.2483 37.8593C90.8788 37.4573 90.2531 37.4307 89.851 37.8003C89.449 38.1698 89.4224 38.7954 89.792 39.1975C90.1615 39.5998 90.7869 39.6261 91.1892 39.2566Z" fill="#24736B"/>
<path d="M93.2244 41.4724C93.6264 41.1029 93.653 40.4772 93.2834 40.0752C92.9139 39.6731 92.2883 39.6465 91.8862 40.0161C91.4841 40.3856 91.4576 41.0112 91.8271 41.4133C92.1966 41.8156 92.822 41.8419 93.2244 41.4724Z" fill="#24736B"/>
<path d="M95.2605 43.6885C95.6626 43.3189 95.6891 42.6933 95.3196 42.2912C94.95 41.8891 94.3244 41.8626 93.9223 42.2321C93.5202 42.6017 93.4937 43.2273 93.8632 43.6294C94.2328 44.0315 94.8584 44.058 95.2605 43.6885Z" fill="#24736B"/>
<path d="M101.462 42.0977C101.06 42.4672 100.434 42.4406 100.064 42.0386C99.6949 41.6365 99.7214 41.0108 100.123 40.6413C100.526 40.2718 101.151 40.2983 101.521 40.7004C101.89 41.1025 101.864 41.7281 101.462 42.0977Z" fill="#24736B"/>
<path d="M95.7478 21.1126C95.6026 21.2103 95.4473 21.3004 95.2821 21.378C95.1519 21.4406 95.0217 21.4932 94.889 21.5383C93.5321 22.0089 92.045 21.6309 91.0686 20.637C90.8157 20.3816 90.5979 20.0862 90.4276 19.7532C90.4051 19.7156 90.3851 19.6781 90.3675 19.638C90.1673 19.2174 90.0521 18.7793 90.0196 18.3437C89.9069 16.9417 90.6104 15.5522 91.8922 14.8337C91.9623 14.7961 92.0349 14.7585 92.1075 14.7235C92.3354 14.6158 92.5682 14.5307 92.8035 14.4731C94.4033 14.0701 96.1133 14.7911 96.9219 16.2732C96.9395 16.3033 96.957 16.3333 96.972 16.3633C96.992 16.3959 97.0096 16.4284 97.0246 16.4635C97.1648 16.7589 97.2624 17.0618 97.32 17.3698C97.5904 18.8018 96.982 20.289 95.7478 21.1126Z" fill="#FDC026"/>
<path d="M95.2996 19.6305C95.1544 19.7282 94.9992 19.8183 94.8339 19.8959C94.7038 19.9585 94.5736 20.0111 94.4409 20.0561C93.0839 20.5268 91.5968 20.1488 90.6204 19.1548C90.3851 18.917 90.1823 18.6466 90.0196 18.3437C89.9069 16.9417 90.6104 15.5522 91.8922 14.8337C91.9623 14.7961 92.0349 14.7585 92.1075 14.7235C92.3354 14.6158 92.5682 14.5307 92.8035 14.4731C94.4033 14.0701 96.1133 14.7911 96.9219 16.2732C97.0271 17.5801 96.4237 18.882 95.2996 19.6305Z" fill="#FDDE44"/>
<path d="M91.2859 12.2221C90.2269 12.3122 89.2415 12.8305 88.5327 13.6173C87.7223 14.5169 87.35 15.7083 87.3262 16.9023C87.3222 17.1066 87.553 17.2548 87.7376 17.2383C87.9594 17.2185 88.0695 17.0285 88.0735 16.8269C88.1113 14.9455 89.4002 13.1364 91.3612 12.9697C91.8429 12.9286 91.7686 12.181 91.2859 12.2221Z" fill="#B3D5FF"/>
<path d="M88.7136 10.6968C87.6533 10.7682 86.6589 11.2692 85.9361 12.0435C85.1102 12.9285 84.7169 14.1135 84.6721 15.3067C84.6643 15.511 84.8926 15.6632 85.0774 15.6499C85.2995 15.6342 85.4131 15.4461 85.4206 15.2446C85.4915 13.3639 86.8119 11.5778 88.7757 11.4457C89.2581 11.4129 89.197 10.6643 88.7136 10.6968Z" fill="#B3D5FF"/>
<path d="M100.057 16.2617C100.56 17.1983 100.663 18.3069 100.39 19.3304C100.079 20.5003 99.2835 21.4624 98.2959 22.1339C98.1269 22.2488 97.8768 22.1361 97.7899 21.9724C97.6855 21.7759 97.7846 21.5798 97.9514 21.4664C99.5076 20.4082 100.32 18.3409 99.3899 16.6065C99.1611 16.1804 99.8281 15.8346 100.057 16.2617Z" fill="#B3D5FF"/>
<path d="M103.389 17.4498C103.845 18.4092 103.896 19.5215 103.575 20.5307C103.207 21.6844 102.367 22.6072 101.348 23.2308C101.174 23.3375 100.93 23.2131 100.851 23.0456C100.756 22.8443 100.864 22.653 101.036 22.5479C102.641 21.5652 103.552 19.5393 102.706 17.7623C102.498 17.3259 103.18 17.0127 103.389 17.4498Z" fill="#B3D5FF"/>
<path d="M63.8447 94.6768C63.8447 94.6768 61.8874 95.7994 62.4129 97.3278C62.9384 98.8565 65.6017 99.2793 67.2495 99.2793C69.293 99.2793 70.4794 97.9903 71.7214 98.2291C72.9635 98.4679 73.7601 99.2831 76.2802 99.5252C78.8519 99.7721 82.74 99.5372 84.1049 98.1758C85.4701 96.8143 83.497 96.1729 83.497 96.1729L63.8447 94.6768Z" fill="#D4883B"/>
<path d="M66.0044 67.4192C65.4562 64.3473 64.7977 61.7135 63.2605 60.8347C62.2265 60.2439 58.9268 58.0082 56.8814 56.6137C55.89 55.9352 55.194 55.457 55.194 55.457C55.194 55.457 45.0444 65.4438 45.813 65.6091C46.0133 65.6516 46.9472 65.947 48.2165 66.3601C51.7941 67.5218 58.048 69.6148 58.048 69.6148C55.0312 72.5765 57.3896 77.2958 59.6403 80.6982C59.748 80.8609 59.8561 81.0314 59.9645 81.2052C62.8787 81.0184 65.6955 80.0578 68.2742 78.6497C67.275 73.8158 66.2626 68.8655 66.0044 67.4192Z" fill="#FFAB96"/>
<path d="M70.503 89.3682C70.503 89.3682 66.2244 91.5088 65.2905 90.7953C64.7072 90.3496 63.5205 87.836 62.161 85.1822C61.9032 84.674 61.6353 84.1633 61.3674 83.6601C60.9042 82.7938 60.4311 81.9526 59.9629 81.2041C62.8771 81.0188 65.6961 80.0574 68.2748 78.6504C68.4851 79.6744 68.6979 80.6933 68.9007 81.6722C69.0284 82.2831 69.151 82.8789 69.2687 83.4523C69.9697 86.8246 70.503 89.3682 70.503 89.3682Z" fill="#319C91"/>
<path d="M69.2685 83.4524C67.0603 84.4614 64.5993 85.0797 62.1608 85.1824C61.903 84.6742 61.6351 84.1634 61.3672 83.6602C62.1583 83.6552 62.9595 83.5826 63.7656 83.4449C65.6008 83.1294 67.2706 82.456 68.9005 81.6724C69.0282 82.2832 69.1508 82.8791 69.2685 83.4524Z" fill="#FDDE44"/>
<path d="M55.194 55.457C55.194 55.457 45.0444 65.4438 45.813 65.6091C46.0133 65.6516 46.9472 65.947 48.2165 66.3601C48.9726 64.7629 50.0591 63.3308 51.2208 61.9764C52.8481 60.0811 54.5656 58.196 56.636 56.7764C56.7161 56.7213 56.7988 56.6663 56.8814 56.6137C55.89 55.9352 55.194 55.457 55.194 55.457Z" fill="#ED8368"/>
<path d="M23.9337 83.4649C23.0224 83.6977 22.0836 83.9381 21.1572 84.1784C20.5764 84.3261 20.0006 84.4738 19.4398 84.6215C15.8972 85.5353 12.928 86.314 12.928 86.314L10.2842 81.84C11.9315 81.1666 14.0521 79.9348 16.5807 78.5628C17.0313 78.32 17.492 78.0696 17.9677 77.8193C18.8189 77.3711 19.7127 76.913 20.6415 76.4648C20.7066 79.1287 22.016 81.6122 23.9337 83.4649Z" fill="#319C91"/>
<path d="M21.1576 84.1784C20.5768 84.3262 20.001 84.4739 19.4402 84.6216C18.0932 82.7839 17.0768 80.7135 16.5811 78.5629C17.0317 78.3201 17.4924 78.0697 17.968 77.8193C18.3511 79.647 19.1072 81.3844 20.2288 82.9892C20.5217 83.4073 20.8321 83.8004 21.1576 84.1784Z" fill="#FDDE44"/>
<path d="M30.9939 70.3835C30.9939 70.3835 30.9088 71.0194 30.7861 71.803C30.6209 72.8595 30.3906 74.1814 30.2153 74.5519C30.2153 74.5519 29.1989 72.7569 23.5032 75.1628C22.513 75.5814 21.5599 76.0198 20.6416 76.4642C20.7059 79.1277 22.0156 81.6125 23.9346 83.4642C26.1037 82.9101 28.1226 82.4017 29.4692 82.0777C33.9782 80.9911 36.622 81.4318 37.9088 80.2476C38.6148 79.5966 39.8917 75.9564 40.9006 72.7969C41.7318 70.1907 42.3827 67.9099 42.3827 67.9099L30.9939 70.3835Z" fill="#FFAB96"/>
<path d="M42.3827 67.9099C42.3827 67.9099 41.7318 70.1907 40.9006 72.7969C37.6485 71.7604 34.176 71.4224 30.7861 71.803C30.9088 71.0194 30.9939 70.3835 30.9939 70.3835L42.3827 67.9099Z" fill="#ED8368"/>
<path d="M56.5906 55.7115C55.1786 56.7379 49.6732 59.7698 45.7175 67.5935C45.7175 67.5935 45.1743 67.974 44.1228 68.4747C41.857 69.5563 37.2354 71.2086 30.6109 70.8581C30.6109 70.8581 30.9364 64.1911 30.6109 62.7916C30.2854 61.3921 24.9703 55.7991 26.5551 49.9232C28.1399 44.0498 46.5988 46.8713 46.5988 46.8713C46.5988 46.8713 56.2852 55.1732 56.5906 55.7115Z" fill="#FDDE44"/>
<path d="M40.3981 63.7952C39.8072 63.6442 39.1808 63.6187 38.578 63.5341C37.9881 63.4515 37.4003 63.3541 36.8167 63.2357C35.6358 62.9958 34.4766 62.6603 33.351 62.2292C33.179 62.1634 33.0566 62.4503 33.2248 62.5286C34.3347 63.0461 35.5068 63.3944 36.7025 63.6502C37.3032 63.7787 37.9083 63.8846 38.5156 63.9752C39.1158 64.0648 39.7396 64.1878 40.3478 64.1657C40.5556 64.1582 40.6106 63.8495 40.3981 63.7952Z" fill="#FDC026"/>
<path d="M42.1297 65.4351C41.5236 65.3675 40.8997 65.4291 40.2909 65.4293C39.6953 65.4293 39.0997 65.4146 38.5053 65.3783C37.3026 65.3046 36.1079 65.1334 34.9334 64.8628C34.7539 64.8215 34.6726 65.1224 34.8501 65.1767C36.021 65.535 37.23 65.7172 38.4497 65.8046C39.0623 65.8484 39.6765 65.8692 40.2906 65.8747C40.8972 65.8802 41.5324 65.9155 42.1315 65.8091C42.336 65.7731 42.3478 65.4594 42.1297 65.4351Z" fill="#FDC026"/>
<path d="M33.1946 18.229L30.9188 25.4869L28.5505 25.3066L25.3208 25.0588C23.8512 27.1468 13.9345 33.7412 13.9345 33.7412C13.9345 33.7412 15.5619 35.5313 15.7772 37.5492C15.8047 37.8095 15.7596 38.0724 15.6595 38.3127C15.0912 39.6847 15.3691 40.4909 15.1463 40.9615C14.265 41.4673 13.6742 39.2566 13.6742 39.2566C13.6266 39.5245 13.4038 40.1253 13.1484 40.6361C12.9957 40.9415 12.8304 41.2144 12.6827 41.3671C11.7739 42.311 10.4596 43.062 9.0275 43.2648C8.66448 43.3149 8.30897 43.1772 8.05611 42.9168C8.03358 42.8943 8.01104 42.8718 7.99102 42.8467C7.98851 42.8442 7.98851 42.8442 7.98601 42.8417C7.89087 42.7316 7.78322 42.654 7.66305 42.6064C7.56541 42.5663 7.45775 42.5463 7.34259 42.5413C7.02213 42.5263 6.68665 42.6214 6.54895 42.2559C6.5139 42.1658 6.48386 42.0806 6.4438 42.003C6.37871 41.8804 6.28858 41.7852 6.12584 41.7427C6.08579 41.7326 6.03822 41.7251 5.99065 41.7226C5.70024 41.6976 5.30467 41.7627 5.14194 41.5173C5.0468 41.3746 5.04179 41.1844 4.96168 41.0316C4.92913 40.9691 4.88657 40.914 4.84151 40.8614C4.79143 40.8088 4.73636 40.7613 4.67877 40.7212C4.59115 40.6611 4.49601 40.6185 4.39587 40.5785C4.21311 40.5059 4.02033 40.4433 3.87512 40.3081C3.87512 40.3056 3.87262 40.3056 3.87262 40.3031C3.69737 40.1379 3.73492 39.8499 3.92519 39.6997C5.07684 38.7984 8.40911 37.6368 8.40911 37.6368C8.40911 37.6368 8.19631 36.6754 8.27642 34.7802C8.35654 32.8875 10.6623 32.6021 10.6623 32.6021C12.6076 29.092 20.6241 19.9364 22.1413 18.94C23.2203 18.2315 27.9271 17.9185 30.5608 17.7984C31.6324 17.7458 32.3609 17.7283 32.3609 17.7283L33.1946 18.229Z" fill="#FFAB96"/>
<path d="M33.1949 18.2287L30.9192 25.4866L28.5508 25.3064C29.0365 24.4051 29.4571 23.4712 29.7876 22.5024C30.3033 20.9927 30.5937 19.3879 30.5612 17.7981C31.6327 17.7456 32.3612 17.728 32.3612 17.728L33.1949 18.2287Z" fill="#ED8368"/>
<path d="M48.6494 19.0075C48.6494 19.0075 37.5686 31.3702 36.0589 29.8205C35.9237 29.6828 35.761 29.5526 35.5732 29.4349C35.423 29.3348 35.2553 29.2446 35.0775 29.157C34.9749 29.1069 34.8672 29.0594 34.7571 29.0118C34.5818 28.9392 34.399 28.8691 34.2088 28.804C34.0861 28.7615 33.9609 28.7214 33.8332 28.6813C33.6254 28.6187 33.4101 28.5587 33.1948 28.5036C32.9244 28.4335 32.6515 28.3709 32.3811 28.3158C30.7914 27.9828 29.3418 27.8727 29.3418 27.8727C29.3794 24.4928 32.3611 17.7282 32.3611 17.7282C34.6409 17.5717 39.3303 17.6798 43.629 18.163C46.5379 18.4885 48.6494 19.0075 48.6494 19.0075Z" fill="#24736B"/>
<path d="M33.768 28.4851C33.788 28.5502 33.8105 28.6153 33.833 28.6804C33.6252 28.6178 33.4099 28.5577 33.1946 28.5027C32.7315 27.0481 32.2658 25.571 31.9504 24.0788C31.9028 23.861 32.2057 23.7809 32.2833 23.9887C32.8341 25.4633 33.2798 26.988 33.768 28.4851Z" fill="#1D5C55"/>
<path d="M35.0727 23.2275C35.0627 24.1063 34.9601 24.99 34.9075 25.8688C34.8549 26.73 34.8073 27.5938 34.7748 28.4575C34.7673 28.6428 34.7623 28.8255 34.7573 29.0108C34.582 28.9382 34.3993 28.8681 34.209 28.803C34.2115 28.6678 34.2165 28.5301 34.2215 28.3949C34.254 27.5112 34.3041 26.6274 34.3792 25.7461C34.4518 24.8899 34.5119 24.0162 34.6872 23.1749C34.7322 22.9521 35.0752 23.0097 35.0727 23.2275Z" fill="#1D5C55"/>
<path d="M37.4055 23.105C36.6269 25.1629 36.0085 27.281 35.5729 29.434C35.4226 29.3339 35.2549 29.2438 35.0771 29.1561C35.5103 27.0281 36.1712 24.9501 37.06 22.9573C37.1476 22.762 37.4831 22.9047 37.4055 23.105Z" fill="#1D5C55"/>
<path d="M63.5382 13.1456C63.1777 13.1481 62.6169 12.7225 62.1587 12.1867L62.1562 12.1842C61.7982 11.7661 61.5228 11.3731 61.5228 11.3731C61.5228 11.3731 61.2399 12.1166 60.7567 12.2193C60.1533 12.352 59.3922 10.0287 59.3922 10.0287C59.3922 10.0287 59.207 11.1077 58.6211 11.1778C57.507 11.3155 57.3468 9.97107 56.5306 9.62057C55.712 9.27007 55.2263 9.87344 54.6805 10.8874C54.3976 11.4131 53.9194 12.0666 53.5263 12.5748C53.1909 13.0079 52.9155 13.3359 52.8729 13.3835C52.8679 13.386 52.8679 13.3885 52.8679 13.3885C52.8679 13.3885 51.894 11.4131 50.7724 12.9478C49.9412 14.082 50.8575 15.1385 51.3883 15.6091C50.7474 16.548 50.144 17.3867 50.164 17.1939C50.2041 16.7858 48.9373 13.8441 48.6644 10.6521C48.6043 9.95355 48.7295 9.36771 48.9623 8.87951C49.7885 7.13952 51.9741 6.64131 51.9741 6.64131C52.8504 4.63844 55.8472 4.79366 57.9301 5.08408C60.0131 5.377 61.2224 8.04332 63.3429 10.1088C65.4659 12.1717 64.497 13.1381 63.5382 13.1456Z" fill="#4F2D33"/>
<path d="M53.5263 12.5749C53.1909 13.0081 52.9155 13.336 52.8729 13.3836C52.8679 13.3861 52.8679 13.3886 52.8679 13.3886C52.8679 13.3886 51.894 11.4133 50.7724 12.948C49.9412 14.0821 50.8575 15.1386 51.3883 15.6093C50.7474 16.5481 50.144 17.3868 50.164 17.194C50.2041 16.786 48.9373 13.8442 48.6644 10.6522C48.6043 9.95368 48.7295 9.36784 48.9623 8.87964C49.0024 8.9247 49.0499 8.95975 49.1025 8.9898C49.3529 9.13 49.6608 9.08243 49.9462 9.07993C50.2341 9.07492 50.5696 9.15253 50.6848 9.41791C50.7248 9.51305 50.7298 9.6207 50.7298 9.72585C50.7248 10.0914 50.6723 10.5045 50.9176 10.7723C51.1805 11.0578 51.6286 11.0177 52.0117 10.9827C52.3947 10.9451 52.8654 10.9751 53.0482 11.3131C53.256 11.6987 52.9931 12.3196 53.3786 12.5299C53.4237 12.5549 53.4738 12.5699 53.5263 12.5749Z" fill="#331D21"/>
<path d="M54.5399 19.9178C54.5474 20.0881 54.4198 20.4811 54.2245 20.9618C54.0943 21.2848 53.9341 21.6478 53.7588 22.0108C53.2631 23.0523 52.6673 24.0913 52.4194 24.1814C51.9562 24.3492 48.6415 19.5974 48.9144 19.1217C49.1873 18.6435 51.2627 15.0158 51.3529 14.9557C51.3829 14.9357 51.4155 14.9232 51.4505 14.9157C51.7059 14.8656 52.0539 15.1761 52.4219 15.6643C53.3958 16.9561 54.5249 19.4897 54.5399 19.9178Z" fill="#FFAB96"/>
<path d="M54.2249 20.9618C54.0947 21.2848 53.9345 21.6478 53.7592 22.0108C51.8715 20.2058 50.8025 17.4844 51.4509 14.9157C51.7063 14.8656 52.0543 15.1761 52.4223 15.6643C52.4498 15.9922 52.4874 16.3177 52.5324 16.6356C52.6576 17.5144 52.8779 18.3806 53.2259 19.1993C53.4913 19.8227 53.8268 20.4136 54.2249 20.9618Z" fill="#ED8368"/>
<path d="M62.0739 14.8655C61.6308 15.574 61.07 16.8133 61.1301 17.6095C61.1877 18.4056 58.4738 22.8019 57.4423 23.0372C56.4083 23.2751 51.7141 20.4736 51.7141 15.8695C51.7141 15.8695 51.5739 15.7768 51.3886 15.6091C50.8579 15.1384 49.9416 14.0819 50.7727 12.9478C51.8944 11.4131 52.8682 13.3884 52.8682 13.3884C52.8682 13.3884 52.8682 13.3859 52.8733 13.3834C52.9634 13.2783 54.1551 11.8612 54.6808 10.8873C55.2266 9.87339 55.7123 9.27002 56.531 9.62052C57.3472 9.97103 57.5074 11.3155 58.6215 11.1778C59.2073 11.1077 59.3926 10.0286 59.3926 10.0286C59.3926 10.0286 60.1537 12.3519 60.757 12.2192C61.2402 12.1166 61.5231 11.373 61.5231 11.373C61.5231 11.373 61.7985 11.7661 62.1565 12.1842L62.1591 12.1867C62.3043 13.2232 62.3518 14.4224 62.0739 14.8655Z" fill="#FFAB96"/>
<path d="M58.7134 15.2108C58.5416 15.8853 57.7963 16.2769 57.049 16.0866L57.0392 16.0841C56.2957 15.8896 55.8323 15.1931 56.0033 14.5209C56.1743 13.8489 56.9151 13.4561 57.6611 13.6408L57.6709 13.6434C58.418 13.8336 58.8849 14.5364 58.7134 15.2108Z" fill="#FFFDFD"/>
<path d="M58.7137 15.2109C58.542 15.8853 57.7967 16.2769 57.0494 16.0866L57.0396 16.0841C56.9137 15.7058 56.8939 15.2462 57.0131 14.778C57.1322 14.3098 57.3701 13.913 57.6615 13.6411L57.6712 13.6436C58.4183 13.8336 58.8852 14.5364 58.7137 15.2109Z" fill="#4F2D33"/>
<path d="M62.3941 16.4237C62.2223 17.0982 61.477 17.4898 60.7297 17.2995L60.7199 17.297C59.9763 17.1025 59.5129 16.406 59.6839 15.734C59.8549 15.0618 60.5957 14.6692 61.3418 14.854L61.3516 14.8565C62.0989 15.0465 62.5658 15.7493 62.3941 16.4237Z" fill="#FFFDFD"/>
<path d="M62.3944 16.4238C62.2227 17.0982 61.4773 17.4898 60.73 17.2995L60.7203 17.297C60.5943 16.9187 60.5745 16.4591 60.6937 15.9909C60.8129 15.5227 61.0507 15.1259 61.3421 14.854L61.3519 14.8565C62.0992 15.0465 62.5662 15.7493 62.3944 16.4238Z" fill="#4F2D33"/>
<path d="M59.425 15.4614C59.2788 15.3192 59.0265 15.5025 59.1379 15.683C59.255 15.8732 59.396 16.047 59.4941 16.2488C59.5685 16.402 59.6396 16.6218 59.5697 16.7888C59.4976 16.9605 59.2758 17.0662 59.1186 17.1416C58.9221 17.2359 58.699 17.3015 58.4899 17.3621C58.2841 17.4217 58.3377 17.7051 58.5385 17.7214C58.8377 17.7454 59.1031 17.6713 59.3704 17.5396C59.6211 17.4162 59.8912 17.2389 59.9973 16.9691C60.2076 16.4345 59.792 15.8187 59.425 15.4614Z" fill="#ED8368"/>
<path d="M58.4879 12.3863C58.4636 12.3425 58.4303 12.2974 58.3867 12.2519C58.397 12.2636 58.407 12.2756 58.4173 12.2874C57.9999 11.6871 56.7654 11.7905 56.2582 12.2143C56.1345 12.3177 56.0772 12.4612 56.1277 12.6184C56.1803 12.7811 56.3385 12.9313 56.5215 12.9181C56.8029 12.8975 57.0881 12.9066 57.369 12.9271C57.3385 12.9191 57.3077 12.9113 57.2771 12.9033C57.5851 12.9824 58.8669 13.0708 58.4879 12.3863Z" fill="#331D21"/>
<path d="M60.7956 13.0507C60.8362 13.0212 60.8855 12.9944 60.9441 12.9716C60.9298 12.9781 60.9156 12.9844 60.9013 12.9909C61.5329 12.6226 62.6085 13.237 62.8899 13.8354C62.9585 13.9813 62.95 14.1358 62.8376 14.2565C62.7212 14.3819 62.5144 14.4512 62.3541 14.3621C62.1075 14.2249 61.8454 14.1128 61.5818 14.0126C61.6128 14.0184 61.6441 14.0241 61.6752 14.0299C61.363 13.9721 60.1632 13.5116 60.7956 13.0507Z" fill="#331D21"/>
<path d="M55.3437 16.9927C55.3437 16.9927 54.3956 19.2396 56.2745 20.0891C57.5704 20.6752 58.6216 19.1758 58.6216 19.1758C58.6216 19.1758 56.1927 18.9778 55.3437 16.9927Z" fill="#FFFDFD"/>
<path d="M52.3267 13.9429C52.3392 13.8237 52.3255 13.701 52.2934 13.5851C52.2434 13.4033 52.1515 13.2361 52.0526 13.0756C52.0173 13.0183 51.9802 12.961 51.9294 12.9169C51.8786 12.8728 51.8115 12.843 51.7446 12.8516C51.491 12.8836 51.63 13.3813 51.6723 13.5313C51.7088 13.661 51.7522 13.7884 51.7967 13.9156C51.7286 13.9554 51.662 13.9982 51.6002 14.0465C51.47 14.1484 51.2867 14.2986 51.2329 14.4611C51.15 14.7115 51.3501 14.8882 51.5912 14.8189C51.8318 14.7498 52.0143 14.5537 52.154 14.3555C52.2018 14.2876 52.2469 14.2173 52.2782 14.1401C52.3039 14.0771 52.3195 14.0105 52.3267 13.9429Z" fill="#ED8368"/>
<path d="M55.2448 8.44612C55.0437 8.15546 54.7773 7.90785 54.4977 7.69455C54.2256 7.487 53.9236 7.32277 53.5876 7.24816C53.3468 7.19458 53.2462 7.54959 53.4852 7.61919C53.7654 7.70056 54.0405 7.86254 54.2619 8.04154C54.5165 8.24759 54.7418 8.49094 55.0057 8.68522C55.1459 8.78861 55.3414 8.58582 55.2448 8.44612Z" fill="#331D21"/>
<path d="M58.2142 8.42623C57.5067 7.54872 56.6498 6.76009 55.586 6.34675C55.4868 6.3082 55.3727 6.38906 55.3456 6.4832C55.3136 6.59536 55.3852 6.68298 55.4821 6.72354C56.4703 7.13638 57.1868 7.97458 57.9661 8.67459C58.1374 8.82831 58.3544 8.59998 58.2142 8.42623Z" fill="#331D21"/>
<path d="M60.8545 8.86303C60.49 8.24465 60.1162 7.64879 59.6125 7.1313C59.3872 6.89972 59.1371 6.68942 58.8724 6.5039C58.5981 6.31163 58.3099 6.18044 57.9967 6.06553C57.8189 6.00018 57.692 6.2951 57.8665 6.37422C59.0354 6.90498 59.8336 8.02308 60.5514 9.04003C60.6795 9.22179 60.9712 9.06106 60.8545 8.86303Z" fill="#331D21"/>
<path d="M85.6992 50.6177C85.4288 50.8756 85.0658 51.0058 84.7203 51.1485C84.3773 51.2937 84.0243 51.4739 83.8265 51.7919C83.6738 52.0422 83.6312 52.3527 83.4435 52.578C83.2056 52.8609 82.8051 52.9285 82.4846 53.1113C82.1717 53.2865 81.9338 53.5719 81.6459 53.7872C81.3555 54.0026 81.0275 54.278 80.672 54.2254C78.6341 53.9199 75.1616 51.7293 75.1616 51.7293C75.1616 51.7293 60.3154 46.0637 59.339 45.0097C59.1362 44.7919 58.9334 44.529 58.7356 44.2411C57.972 43.1345 57.2885 41.6424 57.1133 40.7436C57.1133 40.7436 59.026 38.7883 61.1491 38.5379C61.4695 38.5004 62.0378 38.6681 62.7714 38.9835C66.4116 40.5358 74.1251 45.6531 75.9327 46.8648C76.1956 47.0426 76.4885 47.1653 76.799 47.2379C80.4692 48.0816 82.5797 48.0465 85.3212 49.1932C85.5465 49.2883 85.7868 49.396 85.9145 49.6038C86.1123 49.9217 85.9671 50.3573 85.6992 50.6177Z" fill="#FFAB96"/>
<path d="M62.7714 38.9835C62.4885 39.1463 62.2181 39.329 61.9602 39.5268C60.423 40.701 59.3239 42.4009 58.7356 44.2411C57.972 43.1345 57.2885 41.6424 57.1133 40.7436C57.1133 40.7436 59.026 38.7883 61.1491 38.5379C61.4695 38.5004 62.0378 38.6681 62.7714 38.9835Z" fill="#ED8368"/>
<path d="M62.2735 37.916C62.251 38.6571 56.4126 42.6954 55.3385 42.9608C54.282 43.2211 49.7631 37.5655 49.5903 37.3502C49.5878 37.3477 49.5878 37.3452 49.5853 37.3427L49.3074 38.0663L47.2069 43.5216L47.1769 43.5967C47.1118 43.7669 47.0842 43.9472 47.0993 44.1274C47.1018 44.1825 47.1118 44.2376 47.1243 44.2927C47.292 45.0362 47.6248 46.3822 47.6981 47.166C47.0364 47.5148 40.8786 49.5592 35.586 50.2442C30.5929 50.8906 26.0749 50.4252 25.8989 50.1786C25.5359 49.6704 30.185 35.9382 34.2534 29.3989C38.3217 22.8595 45.3342 19.1241 49.2073 18.6084C51.4405 21.1145 62.2985 37.1725 62.2735 37.916Z" fill="#319C91"/>
<path d="M47.1774 43.5968C47.1123 43.7671 47.0848 43.9473 47.0998 44.1276C45.4349 44.3229 43.77 44.5357 42.1152 44.8311C39.6592 45.2717 37.2207 45.805 34.7822 46.3282C34.5468 46.3783 34.4317 46.0253 34.672 45.9652C36.059 45.6247 37.4485 45.2868 38.8405 44.9713C41.2539 44.4255 43.6849 43.9574 46.1409 43.6469C46.4964 43.6018 46.852 43.5593 47.2075 43.5217L47.1774 43.5968Z" fill="#24736B"/>
<path d="M49.5859 37.3427L49.308 38.0662C49.263 37.9987 49.2204 37.9311 49.1778 37.8635C48.8824 37.4003 47.538 35.7004 47.2551 35.2397C47.1399 35.0494 47.4278 34.8191 47.568 34.9994C47.911 35.44 49.303 36.9046 49.5859 37.3427Z" fill="#24736B"/>
<path d="M7.58605 39.4407C6.64721 39.8764 5.7334 40.3445 4.84212 40.8603C4.79205 40.8077 4.73697 40.7601 4.67939 40.7201C4.59176 40.66 4.49663 40.6174 4.39648 40.5774C5.36287 39.9865 6.38433 39.4858 7.44084 39.0952C7.64113 39.0201 7.77883 39.3506 7.58605 39.4407Z" fill="#ED8368"/>
<path d="M9.08314 40.6424C8.17934 41.0605 7.30059 41.5111 6.44436 42.0018C6.37927 41.8792 6.28914 41.784 6.1264 41.7415C6.08635 41.7315 6.03878 41.7239 5.99121 41.7214C6.93006 41.1556 7.91647 40.6724 8.93793 40.2969C9.13822 40.2218 9.27591 40.5523 9.08314 40.6424Z" fill="#ED8368"/>
<path d="M10.8927 41.4437C9.91882 41.8943 8.97496 42.38 8.05615 42.9158C8.03362 42.8932 8.01108 42.8707 7.99105 42.8457C7.98855 42.8432 7.98855 42.8432 7.98605 42.8407C7.89091 42.7305 7.78326 42.6529 7.66309 42.6053C8.64199 42.0045 9.67597 41.4937 10.7475 41.0982C10.9478 41.0231 11.0855 41.3535 10.8927 41.4437Z" fill="#ED8368"/>
<path d="M13.674 39.2556C13.6264 39.5235 13.4036 40.1243 13.1482 40.635C13.1708 40.3221 13.1883 40.0943 13.2008 39.9691C13.2609 39.4133 13.306 38.7223 13.1532 38.1765C13.003 37.6383 12.4222 37.4054 12.307 36.8446C12.1994 36.3314 12.3997 35.8332 12.665 35.4026C12.7977 35.1898 13.1082 35.375 12.998 35.5953C12.7276 36.1386 12.5549 36.727 13.0356 37.2001C13.3911 37.5506 13.5388 37.5707 13.6214 38.0764C13.709 38.5896 13.664 38.7373 13.674 39.2556Z" fill="#ED8368"/>
<path d="M83.4973 96.1721C83.3095 97.0859 80.7338 97.2326 78.1872 97.2261C75.6117 97.2196 73.6482 96.4074 71.9407 95.5887C70.2333 94.7701 69.2043 95.6814 67.0988 96.2196C64.9933 96.7579 63.7765 95.3784 63.8466 94.5347C63.9167 93.6935 64.6302 89.9106 64.6302 89.9106C65.5766 89.4524 68.676 90.1835 68.676 90.1835C68.676 90.1835 69.2744 88.7339 70.2182 88.0029C70.4836 87.7976 71.43 88.5486 72.7544 89.6327C73.2952 90.0758 73.8985 90.5715 74.5444 91.0798C74.7322 91.2275 74.925 91.3777 75.1203 91.5254C75.7712 92.0261 76.4547 92.5243 77.1557 92.9825C77.2183 93.0251 77.2834 93.0676 77.346 93.1077C77.5062 93.2103 77.6689 93.313 77.8317 93.4106C78.5427 93.8437 79.2637 94.2318 79.9422 94.5673C81.8649 95.5211 83.4472 96.0819 83.4973 96.1721Z" fill="#FDDE44"/>
<path d="M6.65761 82.8046C6.45382 82.591 5.89151 82.6303 5.61637 82.6231C4.82924 82.6028 4.18507 83.2046 3.97126 83.9297C3.66632 84.9632 3.94047 86.049 4.49476 86.9462C4.77992 87.4079 5.13543 87.8255 5.53575 88.1913C5.91454 88.5373 6.39023 88.7786 6.73171 89.1614C7.28576 89.7826 7.40793 90.6616 7.63601 91.462C8.0456 92.898 8.86727 94.1844 10.0009 95.1568C11.1172 96.1144 12.4149 96.5548 13.7633 97.0487C15.1613 97.5607 16.6765 98.1936 18.1949 97.9372C18.7695 97.8403 19.6152 97.5269 19.5761 96.8154C19.5543 96.4203 19.2639 96.0267 18.9777 95.7701C18.9777 95.7701 15.6898 95.0408 13.4531 92.6867C9.86846 88.9148 6.67438 82.8221 6.65761 82.8046Z" fill="#D4883B"/>
<path d="M18.9766 95.7688C16.6157 96.7226 14.8182 95.5584 13.3035 94.8074C11.919 94.1214 10.5721 92.8746 9.96622 91.4526C9.44798 90.2308 9.34283 88.7963 8.48159 87.7848C8.0685 87.3016 7.51521 86.9561 7.07708 86.4905C6.30598 85.6693 5.4798 83.6314 6.65648 82.8052C7.32994 82.332 11.4584 81.3105 11.4584 81.3105C12.3897 81.7311 12.8554 84.3774 12.8554 84.3774C12.8554 84.3774 14.2373 85.4465 15.374 85.6968C15.3414 86.0373 15.2913 86.3653 15.2313 86.6757C15.0861 87.4644 14.8758 88.1604 14.7155 88.7412C14.703 88.7862 14.6905 88.8288 14.6805 88.8714C14.4877 89.5849 14.3825 90.1157 14.5878 90.4311C14.6279 90.4937 14.668 90.5563 14.708 90.6164C14.7255 90.6439 14.7931 90.7566 14.9083 90.9368C14.9659 91.0295 15.036 91.1371 15.1186 91.2623C15.384 91.6654 15.7695 92.2262 16.2627 92.8596C16.9662 93.7609 17.8851 94.8124 18.9766 95.7688Z" fill="#FDDE44"/>
<path d="M14.6735 86.5031C14.1528 86.3554 13.617 86.2452 13.0838 86.1651C12.6056 86.095 12.1074 86.0474 11.6367 86.1776C11.2461 86.2878 10.8956 86.6057 11.2011 87.0088C11.3413 87.1941 11.5666 87.2942 11.7644 87.4019C12.0047 87.5321 12.2501 87.6548 12.4929 87.7749C13.2215 88.1279 13.965 88.4409 14.7161 88.7413C14.8763 88.1605 15.0866 87.4645 15.2318 86.6758C15.0466 86.6133 14.8613 86.5557 14.6735 86.5031Z" fill="#FDC026"/>
<path d="M14.7087 90.6166C14.6687 90.5565 14.6286 90.4939 14.5886 90.4313C14.3833 90.1159 14.4884 89.5851 14.6812 88.8716C14.6462 88.8741 14.6111 88.8766 14.5761 88.8816C14.0378 88.9492 13.502 89.0543 12.9788 89.187C12.5106 89.3072 12.0324 89.4549 11.6494 89.7604C11.3314 90.0107 11.1311 90.4388 11.5692 90.6917C11.7695 90.8094 12.0149 90.8144 12.2402 90.8369C12.5106 90.8644 12.786 90.8845 13.0564 90.8995C13.6723 90.9345 14.2906 90.942 14.909 90.937C14.7939 90.7568 14.7263 90.6441 14.7087 90.6166Z" fill="#FDC026"/>
<path d="M15.1194 91.2625C14.9491 91.3651 14.7839 91.4677 14.6187 91.5754C14.2156 91.8408 13.81 92.1362 13.5446 92.5493C13.3268 92.8898 13.2767 93.3605 13.7725 93.4581C14.0028 93.5032 14.2356 93.4281 14.4559 93.3755C14.7188 93.3129 14.9867 93.2428 15.2471 93.1702C15.5875 93.075 15.928 92.9699 16.2635 92.8597C15.7703 92.2263 15.3848 91.6655 15.1194 91.2625Z" fill="#FDC026"/>
<path d="M77.8315 93.4105C77.5185 93.7059 77.2256 94.0214 76.9677 94.3643C76.7775 94.6197 76.462 94.9877 76.4971 95.3307C76.5321 95.6662 76.8451 95.8114 77.1505 95.7864C77.516 95.7563 77.8815 95.5485 78.2145 95.4058C78.6526 95.2181 79.0833 95.0178 79.5064 94.8C79.6516 94.7249 79.7993 94.6472 79.942 94.5671C79.2635 94.2317 78.5425 93.8436 77.8315 93.4105ZM75.1201 91.5253C75.0975 91.5428 75.075 91.5628 75.0525 91.5829C74.329 92.2163 73.5178 92.9248 73.0722 93.7935C72.9194 94.0965 72.7392 94.5872 73.1673 94.7599C73.5829 94.9302 74.1537 94.5721 74.5092 94.3844C75.3905 93.9187 76.2742 93.4505 77.1555 92.9824C76.4545 92.5242 75.771 92.026 75.1201 91.5253ZM74.5443 91.0796C73.8983 90.5714 73.295 90.0757 72.7542 89.6326C72.2535 89.8854 71.7678 90.1658 71.3021 90.4838C70.854 90.7892 70.4259 91.1272 70.0203 91.4852C69.6598 91.8057 69.3018 92.1562 69.099 92.6018C68.9312 92.9699 68.9487 93.443 69.4545 93.4681C69.6873 93.4806 69.9076 93.3729 70.1179 93.2903C70.3708 93.1902 70.6236 93.0825 70.8715 92.9723C71.943 92.4967 72.972 91.9359 73.9985 91.3751C74.1812 91.2749 74.3615 91.1773 74.5443 91.0796Z" fill="#FDC026"/>
<path d="M45.7178 67.5935C45.7178 67.5935 45.1745 67.9741 44.123 68.4748C43.2618 67.4133 42.3379 66.4043 41.309 65.4905C40.1148 64.434 38.8029 63.5227 37.4785 62.6414C36.2042 61.7952 34.9098 60.9715 33.6806 60.0577C32.3086 59.0413 30.7864 58.0824 29.9152 56.5627C29.8576 56.4576 29.7574 56.3474 29.785 56.2323C29.9477 55.5913 31.0793 56.8632 31.2095 56.9858C31.8755 57.6268 35.5733 59.9701 36.6423 60.6461C37.9116 61.4447 39.1709 62.2959 40.3651 63.1847C42.2203 64.5642 44.0178 66.0288 45.7178 67.5935Z" fill="#FDC026"/>
</svg>
