<svg width="106" height="95" viewBox="0 0 106 95" fill="none" xmlns="http://www.w3.org/2000/svg">
<path d="M105.681 52.345V77.7761H44.3926V57.9654H49.7093V64.4227H51.078V53.1378H57.8388V63.8485H58.7337V50.2644H64.6097V53.9921H67.6228V58.6319H68.5352V55.714H73.8773V64.4202H75.439V57.3434H80.3245V51.9664H83.646V48.9058H87.4889V62.4849H88.7823V56.817H95.1119V64.929H95.9869V58.3085H102.407V52.345H105.681Z" fill="#EBEBEB"/>
<path d="M45.9426 58.7776H45.043V60.0122H45.9426V58.7776Z" fill="white"/>
<path d="M47.5012 58.7773H46.6016V60.0119H47.5012V58.7773Z" fill="white"/>
<path d="M49.0607 58.7773H48.1611V60.0119H49.0607V58.7773Z" fill="white"/>
<path d="M45.9426 60.6353H45.043V61.8699H45.9426V60.6353Z" fill="white"/>
<path d="M47.5012 60.6353H46.6016V61.8699H47.5012V60.6353Z" fill="white"/>
<path d="M49.0607 60.6353H48.1611V61.8699H49.0607V60.6353Z" fill="white"/>
<path d="M45.9426 62.4924H45.043V63.727H45.9426V62.4924Z" fill="white"/>
<path d="M47.5012 62.4924H46.6016V63.727H47.5012V62.4924Z" fill="white"/>
<path d="M49.0607 62.4924H48.1611V63.727H49.0607V62.4924Z" fill="white"/>
<path d="M45.9426 64.3501H45.043V65.5847H45.9426V64.3501Z" fill="white"/>
<path d="M47.5012 64.3501H46.6016V65.5847H47.5012V64.3501Z" fill="white"/>
<path d="M49.0607 64.3501H48.1611V65.5847H49.0607V64.3501Z" fill="white"/>
<path d="M77.0891 58.2249H76.1895V59.2547H77.0891V58.2249Z" fill="white"/>
<path d="M78.6477 58.2249H77.748V59.2547H78.6477V58.2249Z" fill="white"/>
<path d="M80.2063 58.2249H79.3066V59.2547H80.2063V58.2249Z" fill="white"/>
<path d="M77.0891 59.7744H76.1895V60.8042H77.0891V59.7744Z" fill="white"/>
<path d="M78.6477 59.7744H77.748V60.8042H78.6477V59.7744Z" fill="white"/>
<path d="M80.2063 59.7744H79.3066V60.8042H80.2063V59.7744Z" fill="white"/>
<path d="M77.0891 61.3242H76.1895V62.354H77.0891V61.3242Z" fill="white"/>
<path d="M78.6477 61.324H77.748V62.3538H78.6477V61.324Z" fill="white"/>
<path d="M80.2063 61.324H79.3066V62.3538H80.2063V61.324Z" fill="white"/>
<path d="M77.0891 62.8738H76.1895V63.9038H77.0891V62.8738Z" fill="white"/>
<path d="M78.6477 62.8738H77.748V63.9038H78.6477V62.8738Z" fill="white"/>
<path d="M80.2063 62.8738H79.3066V63.9038H80.2063V62.8738Z" fill="white"/>
<path d="M77.0891 64.4619H76.1895V65.4917H77.0891V64.4619Z" fill="white"/>
<path d="M78.6477 64.4619H77.748V65.4917H78.6477V64.4619Z" fill="white"/>
<path d="M80.2063 64.4619H79.3066V65.4917H80.2063V64.4619Z" fill="white"/>
<path d="M77.0891 66.0498H76.1895V67.0799H77.0891V66.0498Z" fill="white"/>
<path d="M78.6477 66.0498H77.748V67.0799H78.6477V66.0498Z" fill="white"/>
<path d="M80.2063 66.0498H79.3066V67.0799H80.2063V66.0498Z" fill="white"/>
<path d="M77.0891 67.6377H76.1895V68.6675H77.0891V67.6377Z" fill="white"/>
<path d="M78.6477 67.6379H77.748V68.6678H78.6477V67.6379Z" fill="white"/>
<path d="M80.2063 67.6379H79.3066V68.6678H80.2063V67.6379Z" fill="white"/>
<path d="M77.0891 69.2258H76.1895V70.2556H77.0891V69.2258Z" fill="white"/>
<path d="M78.6477 69.2258H77.748V70.2556H78.6477V69.2258Z" fill="white"/>
<path d="M80.2063 69.2258H79.3066V70.2556H80.2063V69.2258Z" fill="white"/>
<path d="M57.0236 53.9287H51.8447V54.7008H57.0236V53.9287Z" fill="white"/>
<path d="M57.0236 55.427H51.8447V56.1991H57.0236V55.427Z" fill="white"/>
<path d="M57.0236 56.925H51.8447V57.6972H57.0236V56.925Z" fill="white"/>
<path d="M57.0236 58.4231H51.8447V59.1952H57.0236V58.4231Z" fill="white"/>
<path d="M57.0236 59.9211H51.8447V60.6933H57.0236V59.9211Z" fill="white"/>
<path d="M57.0236 61.4192H51.8447V62.1913H57.0236V61.4192Z" fill="white"/>
<path d="M57.0236 62.9172H51.8447V63.6894H57.0236V62.9172Z" fill="white"/>
<path d="M57.0236 64.4155H51.8447V65.1877H57.0236V64.4155Z" fill="white"/>
<path d="M94.3073 57.5378H89.5459V58.31H94.3073V57.5378Z" fill="white"/>
<path d="M94.3073 59.0359H89.5459V59.808H94.3073V59.0359Z" fill="white"/>
<path d="M94.3073 60.5339H89.5459V61.3061H94.3073V60.5339Z" fill="white"/>
<path d="M94.3073 62.0322H89.5459V62.8043H94.3073V62.0322Z" fill="white"/>
<path d="M94.3073 63.5303H89.5459V64.3024H94.3073V63.5303Z" fill="white"/>
<path d="M94.3073 65.0283H89.5459V65.8004H94.3073V65.0283Z" fill="white"/>
<path d="M94.3073 66.5264H89.5459V67.2985H94.3073V66.5264Z" fill="white"/>
<path d="M94.3073 68.0247H89.5459V68.7968H94.3073V68.0247Z" fill="white"/>
<path d="M94.3073 69.4478H89.5459V70.2199H94.3073V69.4478Z" fill="white"/>
<path d="M94.3073 70.8713H89.5459V71.6435H94.3073V70.8713Z" fill="white"/>
<path d="M94.3073 72.2949H89.5459V73.067H94.3073V72.2949Z" fill="white"/>
<path d="M94.3073 73.7183H89.5459V74.4904H94.3073V73.7183Z" fill="white"/>
<path d="M94.3073 75.1416H89.5459V75.9137H94.3073V75.1416Z" fill="white"/>
<path d="M102.006 59.3474H96.9766V60.1195H102.006V59.3474Z" fill="white"/>
<path d="M102.006 60.8457H96.9766V61.6178H102.006V60.8457Z" fill="white"/>
<path d="M102.006 62.3438H96.9766V63.1159H102.006V62.3438Z" fill="white"/>
<path d="M102.006 63.8418H96.9766V64.6139H102.006V63.8418Z" fill="white"/>
<path d="M102.006 65.3398H96.9766V66.112H102.006V65.3398Z" fill="white"/>
<path d="M102.006 66.8379H96.9766V67.61H102.006V66.8379Z" fill="white"/>
<path d="M102.006 68.3359H96.9766V69.1081H102.006V68.3359Z" fill="white"/>
<path d="M102.006 69.8337H96.9766V70.6059H102.006V69.8337Z" fill="white"/>
<path d="M102.006 71.1746H96.9766V71.9467H102.006V71.1746Z" fill="white"/>
<path d="M102.006 72.5159H96.9766V73.288H102.006V72.5159Z" fill="white"/>
<path d="M102.006 73.8564H96.9766V74.6286H102.006V73.8564Z" fill="white"/>
<path d="M71.6958 56.4131H70.0967V57.1586H71.6958V56.4131Z" fill="white"/>
<path d="M71.6958 57.8599H70.0967V58.6054H71.6958V57.8599Z" fill="white"/>
<path d="M71.6958 59.3066H70.0967V60.0522H71.6958V59.3066Z" fill="white"/>
<path d="M71.6958 60.7532H70.0967V61.4987H71.6958V60.7532Z" fill="white"/>
<path d="M71.6958 62.2H70.0967V62.9455H71.6958V62.2Z" fill="white"/>
<path d="M71.6958 63.6467H70.0967V64.3923H71.6958V63.6467Z" fill="white"/>
<path d="M71.6958 65.0935H70.0967V65.839H71.6958V65.0935Z" fill="white"/>
<path d="M71.6958 66.5398H70.0967V67.2853H71.6958V66.5398Z" fill="white"/>
<path d="M73.8706 56.4131H72.2715V57.1586H73.8706V56.4131Z" fill="white"/>
<path d="M73.8706 57.8596H72.2715V58.6052H73.8706V57.8596Z" fill="white"/>
<path d="M73.8706 59.3064H72.2715V60.0519H73.8706V59.3064Z" fill="white"/>
<path d="M73.8706 60.7532H72.2715V61.4987H73.8706V60.7532Z" fill="white"/>
<path d="M73.8706 62.2H72.2715V62.9455H73.8706V62.2Z" fill="white"/>
<path d="M73.8706 63.6465H72.2715V64.392H73.8706V63.6465Z" fill="white"/>
<path d="M73.8706 65.0933H72.2715V65.8388H73.8706V65.0933Z" fill="white"/>
<path d="M73.8706 66.5398H72.2715V67.2853H73.8706V66.5398Z" fill="white"/>
<path d="M61.2894 51.0459H59.623V52.2217H61.2894V51.0459Z" fill="white"/>
<path d="M63.7735 51.0459H62.1074V52.2217H63.7735V51.0459Z" fill="white"/>
<path d="M61.2894 52.7732H59.623V53.949H61.2894V52.7732Z" fill="white"/>
<path d="M63.7735 52.7732H62.1074V53.949H63.7735V52.7732Z" fill="white"/>
<path d="M61.2894 54.5002H59.623V55.676H61.2894V54.5002Z" fill="white"/>
<path d="M63.7735 54.5002H62.1074V55.676H63.7735V54.5002Z" fill="white"/>
<path d="M61.2894 56.2275H59.623V57.4033H61.2894V56.2275Z" fill="white"/>
<path d="M63.7735 56.2275H62.1074V57.4033H63.7735V56.2275Z" fill="white"/>
<path d="M61.2894 57.9551H59.623V59.1308H61.2894V57.9551Z" fill="white"/>
<path d="M63.7735 57.9551H62.1074V59.1308H63.7735V57.9551Z" fill="white"/>
<path d="M61.2894 59.6824H59.623V60.8581H61.2894V59.6824Z" fill="white"/>
<path d="M63.7735 59.6824H62.1074V60.8581H63.7735V59.6824Z" fill="white"/>
<path d="M61.2894 61.4094H59.623V62.5852H61.2894V61.4094Z" fill="white"/>
<path d="M63.7735 61.4094H62.1074V62.5852H63.7735V61.4094Z" fill="white"/>
<path d="M61.2894 63.137H59.623V64.3127H61.2894V63.137Z" fill="white"/>
<path d="M63.7735 63.137H62.1074V64.3127H63.7735V63.137Z" fill="white"/>
<path d="M66.8519 54.5005H65.1855V55.6763H66.8519V54.5005Z" fill="white"/>
<path d="M66.8519 56.2278H65.1855V57.4036H66.8519V56.2278Z" fill="white"/>
<path d="M66.8519 57.9551H65.1855V59.1308H66.8519V57.9551Z" fill="white"/>
<path d="M66.8519 59.6826H65.1855V60.8584H66.8519V59.6826Z" fill="white"/>
<path d="M66.8519 61.4097H65.1855V62.5854H66.8519V61.4097Z" fill="white"/>
<path d="M66.8519 63.137H65.1855V64.3127H66.8519V63.137Z" fill="white"/>
<path d="M61.2894 64.8438H59.623V66.0195H61.2894V64.8438Z" fill="white"/>
<path d="M63.7735 64.8438H62.1074V66.0195H63.7735V64.8438Z" fill="white"/>
<path d="M66.8519 64.8438H65.1855V66.0195H66.8519V64.8438Z" fill="white"/>
<path d="M61.2894 66.5503H59.623V67.7261H61.2894V66.5503Z" fill="white"/>
<path d="M63.7735 66.5503H62.1074V67.7261H63.7735V66.5503Z" fill="white"/>
<path d="M66.8519 66.5503H65.1855V67.7261H66.8519V66.5503Z" fill="white"/>
<path d="M61.2894 68.2573H59.623V69.4331H61.2894V68.2573Z" fill="white"/>
<path d="M63.7735 68.2573H62.1074V69.4331H63.7735V68.2573Z" fill="white"/>
<path d="M66.8519 68.2573H65.1855V69.4331H66.8519V68.2573Z" fill="white"/>
<path d="M61.2894 69.9639H59.623V71.1396H61.2894V69.9639Z" fill="white"/>
<path d="M63.7735 69.9639H62.1074V71.1396H63.7735V69.9639Z" fill="white"/>
<path d="M66.8519 69.9639H65.1855V71.1396H66.8519V69.9639Z" fill="white"/>
<path d="M61.2894 71.6707H59.623V72.8464H61.2894V71.6707Z" fill="white"/>
<path d="M63.7735 71.6707H62.1074V72.8464H63.7735V71.6707Z" fill="white"/>
<path d="M66.8519 71.6707H65.1855V72.8464H66.8519V71.6707Z" fill="white"/>
<path d="M81.9025 52.7241H81.0029V53.7539H81.9025V52.7241Z" fill="white"/>
<path d="M83.4611 52.7241H82.5615V53.7539H83.4611V52.7241Z" fill="white"/>
<path d="M81.9025 54.2739H81.0029V55.304H81.9025V54.2739Z" fill="white"/>
<path d="M83.4611 54.2739H82.5615V55.304H83.4611V54.2739Z" fill="white"/>
<path d="M81.9025 55.8235H81.0029V56.8536H81.9025V55.8235Z" fill="white"/>
<path d="M83.4611 55.8235H82.5615V56.8536H83.4611V55.8235Z" fill="white"/>
<path d="M81.9025 57.3733H81.0029V58.4031H81.9025V57.3733Z" fill="white"/>
<path d="M83.4611 57.373H82.5615V58.4029H83.4611V57.373Z" fill="white"/>
<path d="M81.9025 58.9612H81.0029V59.991H81.9025V58.9612Z" fill="white"/>
<path d="M83.4611 58.9612H82.5615V59.991H83.4611V58.9612Z" fill="white"/>
<path d="M81.9025 60.5493H81.0029V61.5791H81.9025V60.5493Z" fill="white"/>
<path d="M83.4611 60.5493H82.5615V61.5791H83.4611V60.5493Z" fill="white"/>
<path d="M81.9025 62.1372H81.0029V63.1673H81.9025V62.1372Z" fill="white"/>
<path d="M83.4611 62.1372H82.5615V63.1673H83.4611V62.1372Z" fill="white"/>
<path d="M81.9025 63.7253H81.0029V64.7552H81.9025V63.7253Z" fill="white"/>
<path d="M83.4611 63.7256H82.5615V64.7554H83.4611V63.7256Z" fill="white"/>
<path d="M81.9025 65.3303H81.0029V66.3604H81.9025V65.3303Z" fill="white"/>
<path d="M83.4611 65.3301H82.5615V66.3601H83.4611V65.3301Z" fill="white"/>
<path d="M81.9025 66.9351H81.0029V67.9649H81.9025V66.9351Z" fill="white"/>
<path d="M83.4611 66.9351H82.5615V67.9649H83.4611V66.9351Z" fill="white"/>
<path d="M81.9025 68.54H81.0029V69.5699H81.9025V68.54Z" fill="white"/>
<path d="M83.4611 68.54H82.5615V69.5699H83.4611V68.54Z" fill="white"/>
<path d="M81.9025 70.1448H81.0029V71.1748H81.9025V70.1448Z" fill="white"/>
<path d="M83.4611 70.1448H82.5615V71.1748H83.4611V70.1448Z" fill="white"/>
<path d="M103.869 52.8916H102.97V54.105H103.869V52.8916Z" fill="white"/>
<path d="M105.428 52.8918H104.528V54.1053H105.428V52.8918Z" fill="white"/>
<path d="M103.869 54.7173H102.97V55.9307H103.869V54.7173Z" fill="white"/>
<path d="M105.428 54.7173H104.528V55.9307H105.428V54.7173Z" fill="white"/>
<path d="M103.869 56.543H102.97V57.7564H103.869V56.543Z" fill="white"/>
<path d="M105.428 56.543H104.528V57.7564H105.428V56.543Z" fill="white"/>
<path d="M103.869 58.3687H102.97V59.5821H103.869V58.3687Z" fill="white"/>
<path d="M105.428 58.3689H104.528V59.5823H105.428V58.3689Z" fill="white"/>
<path d="M103.869 60.2397H102.97V61.4532H103.869V60.2397Z" fill="white"/>
<path d="M105.428 60.2397H104.528V61.4532H105.428V60.2397Z" fill="white"/>
<path d="M103.869 62.1104H102.97V63.3238H103.869V62.1104Z" fill="white"/>
<path d="M105.428 62.1106H104.528V63.324H105.428V62.1106Z" fill="white"/>
<path d="M103.869 63.9814H102.97V65.1949H103.869V63.9814Z" fill="white"/>
<path d="M105.428 63.9814H104.528V65.1949H105.428V63.9814Z" fill="white"/>
<path d="M103.869 65.8521H102.97V67.0655H103.869V65.8521Z" fill="white"/>
<path d="M105.428 65.8521H104.528V67.0655H105.428V65.8521Z" fill="white"/>
<path d="M103.869 67.7429H102.97V68.9564H103.869V67.7429Z" fill="white"/>
<path d="M105.428 67.7429H104.528V68.9564H105.428V67.7429Z" fill="white"/>
<path d="M103.869 69.6338H102.97V70.8472H103.869V69.6338Z" fill="white"/>
<path d="M105.428 69.6338H104.528V70.8472H105.428V69.6338Z" fill="white"/>
<path d="M103.869 71.5244H102.97V72.7378H103.869V71.5244Z" fill="white"/>
<path d="M105.428 71.5244H104.528V72.7378H105.428V71.5244Z" fill="white"/>
<path d="M103.869 73.415H102.97V74.6285H103.869V73.415Z" fill="white"/>
<path d="M105.428 73.415H104.528V74.6285H105.428V73.415Z" fill="white"/>
<path d="M85.2356 52.7241H84.3359V53.7539H85.2356V52.7241Z" fill="white"/>
<path d="M86.7941 52.7241H85.8945V53.7539H86.7941V52.7241Z" fill="white"/>
<path d="M85.2356 51.1355H84.3359V52.1653H85.2356V51.1355Z" fill="white"/>
<path d="M86.7941 51.1353H85.8945V52.1651H86.7941V51.1353Z" fill="white"/>
<path d="M85.2356 49.5464H84.3359V50.5765H85.2356V49.5464Z" fill="white"/>
<path d="M86.7941 49.5464H85.8945V50.5765H86.7941V49.5464Z" fill="white"/>
<path d="M85.2356 54.2739H84.3359V55.304H85.2356V54.2739Z" fill="white"/>
<path d="M86.7941 54.2739H85.8945V55.304H86.7941V54.2739Z" fill="white"/>
<path d="M85.2356 55.8235H84.3359V56.8536H85.2356V55.8235Z" fill="white"/>
<path d="M86.7941 55.8235H85.8945V56.8536H86.7941V55.8235Z" fill="white"/>
<path d="M85.2356 57.3733H84.3359V58.4031H85.2356V57.3733Z" fill="white"/>
<path d="M86.7941 57.373H85.8945V58.4029H86.7941V57.373Z" fill="white"/>
<path d="M85.2356 58.9612H84.3359V59.991H85.2356V58.9612Z" fill="white"/>
<path d="M86.7941 58.9612H85.8945V59.991H86.7941V58.9612Z" fill="white"/>
<path d="M85.2356 60.5493H84.3359V61.5791H85.2356V60.5493Z" fill="white"/>
<path d="M86.7941 60.5493H85.8945V61.5791H86.7941V60.5493Z" fill="white"/>
<path d="M85.2356 62.1372H84.3359V63.1673H85.2356V62.1372Z" fill="white"/>
<path d="M86.7941 62.1372H85.8945V63.1673H86.7941V62.1372Z" fill="white"/>
<path d="M85.2356 63.7253H84.3359V64.7552H85.2356V63.7253Z" fill="white"/>
<path d="M86.7941 63.7256H85.8945V64.7554H86.7941V63.7256Z" fill="white"/>
<path d="M85.2356 65.3303H84.3359V66.3604H85.2356V65.3303Z" fill="white"/>
<path d="M86.7941 65.3301H85.8945V66.3601H86.7941V65.3301Z" fill="white"/>
<path d="M85.2356 66.9351H84.3359V67.9649H85.2356V66.9351Z" fill="white"/>
<path d="M86.7941 66.9351H85.8945V67.9649H86.7941V66.9351Z" fill="white"/>
<path d="M85.2356 68.54H84.3359V69.5699H85.2356V68.54Z" fill="white"/>
<path d="M86.7941 68.54H85.8945V69.5699H86.7941V68.54Z" fill="white"/>
<path d="M85.2356 70.1448H84.3359V71.1748H85.2356V70.1448Z" fill="white"/>
<path d="M86.7941 70.1448H85.8945V71.1748H86.7941V70.1448Z" fill="white"/>
<path d="M44.3915 77.7761H0V55.2579H5.31695V61.7152H6.68545V58.0604H13.4462V63.8485H14.3412V50.2644H20.2171V53.9921H23.2302V58.6319H24.1426V55.714H29.4847V64.4202H31.0464V57.3434H35.9319V51.9664H39.2534L43.0963 51.9846V62.4849H44.3897L44.3915 77.7761Z" fill="#EBEBEB"/>
<path d="M1.55001 56.0703H0.650391V57.3049H1.55001V56.0703Z" fill="white"/>
<path d="M3.1086 56.0703H2.20898V57.3049H3.1086V56.0703Z" fill="white"/>
<path d="M4.66817 56.0703H3.76855V57.3049H4.66817V56.0703Z" fill="white"/>
<path d="M1.55001 57.9277H0.650391V59.1623H1.55001V57.9277Z" fill="white"/>
<path d="M3.1086 57.9277H2.20898V59.1623H3.1086V57.9277Z" fill="white"/>
<path d="M4.66817 57.9277H3.76855V59.1623H4.66817V57.9277Z" fill="white"/>
<path d="M1.55001 59.7852H0.650391V61.0198H1.55001V59.7852Z" fill="white"/>
<path d="M3.1086 59.7852H2.20898V61.0198H3.1086V59.7852Z" fill="white"/>
<path d="M4.66817 59.7852H3.76855V61.0198H4.66817V59.7852Z" fill="white"/>
<path d="M1.55001 61.6426H0.650391V62.8772H1.55001V61.6426Z" fill="white"/>
<path d="M3.1086 61.6426H2.20898V62.8772H3.1086V61.6426Z" fill="white"/>
<path d="M4.66817 61.6426H3.76855V62.8772H4.66817V61.6426Z" fill="white"/>
<path d="M32.6965 58.2251H31.7969V59.2549H32.6965V58.2251Z" fill="white"/>
<path d="M34.2551 58.2249H33.3555V59.2547H34.2551V58.2249Z" fill="white"/>
<path d="M35.8137 58.2249H34.9141V59.2547H35.8137V58.2249Z" fill="white"/>
<path d="M32.6965 59.7747H31.7969V60.8045H32.6965V59.7747Z" fill="white"/>
<path d="M34.2551 59.7747H33.3555V60.8045H34.2551V59.7747Z" fill="white"/>
<path d="M35.8137 59.7747H34.9141V60.8045H35.8137V59.7747Z" fill="white"/>
<path d="M32.6965 61.3242H31.7969V62.354H32.6965V61.3242Z" fill="white"/>
<path d="M34.2551 61.3242H33.3555V62.354H34.2551V61.3242Z" fill="white"/>
<path d="M35.8137 61.3242H34.9141V62.354H35.8137V61.3242Z" fill="white"/>
<path d="M32.6965 62.874H31.7969V63.9041H32.6965V62.874Z" fill="white"/>
<path d="M34.2551 62.8738H33.3555V63.9038H34.2551V62.8738Z" fill="white"/>
<path d="M35.8137 62.8738H34.9141V63.9038H35.8137V62.8738Z" fill="white"/>
<path d="M32.6965 64.4619H31.7969V65.4917H32.6965V64.4619Z" fill="white"/>
<path d="M34.2551 64.4619H33.3555V65.4917H34.2551V64.4619Z" fill="white"/>
<path d="M35.8137 64.4619H34.9141V65.4917H35.8137V64.4619Z" fill="white"/>
<path d="M32.6965 66.0498H31.7969V67.0799H32.6965V66.0498Z" fill="white"/>
<path d="M34.2551 66.0498H33.3555V67.0799H34.2551V66.0498Z" fill="white"/>
<path d="M35.8137 66.0498H34.9141V67.0799H35.8137V66.0498Z" fill="white"/>
<path d="M32.6965 67.6379H31.7969V68.6678H32.6965V67.6379Z" fill="white"/>
<path d="M34.2551 67.6379H33.3555V68.6678H34.2551V67.6379Z" fill="white"/>
<path d="M35.8137 67.6379H34.9141V68.6678H35.8137V67.6379Z" fill="white"/>
<path d="M32.6965 69.2261H31.7969V70.2559H32.6965V69.2261Z" fill="white"/>
<path d="M34.2551 69.2258H33.3555V70.2556H34.2551V69.2258Z" fill="white"/>
<path d="M35.8137 69.2258H34.9141V70.2556H35.8137V69.2258Z" fill="white"/>
<path d="M12.631 58.8516H7.45215V59.6237H12.631V58.8516Z" fill="white"/>
<path d="M12.631 60.3499H7.45215V61.122H12.631V60.3499Z" fill="white"/>
<path d="M12.631 61.8477H7.45215V62.6198H12.631V61.8477Z" fill="white"/>
<path d="M12.631 63.3459H7.45215V64.1181H12.631V63.3459Z" fill="white"/>
<path d="M12.631 64.8438H7.45215V65.6159H12.631V64.8438Z" fill="white"/>
<path d="M12.631 66.3423H7.45215V67.1144H12.631V66.3423Z" fill="white"/>
<path d="M12.631 67.8403H7.45215V68.6124H12.631V67.8403Z" fill="white"/>
<path d="M12.631 69.3384H7.45215V70.1105H12.631V69.3384Z" fill="white"/>
<path d="M27.3022 56.4133H25.7031V57.1589H27.3022V56.4133Z" fill="white"/>
<path d="M27.3022 57.8599H25.7031V58.6054H27.3022V57.8599Z" fill="white"/>
<path d="M27.3022 59.3066H25.7031V60.0522H27.3022V59.3066Z" fill="white"/>
<path d="M27.3022 60.7534H25.7031V61.499H27.3022V60.7534Z" fill="white"/>
<path d="M27.3022 62.2002H25.7031V62.9457H27.3022V62.2002Z" fill="white"/>
<path d="M27.3022 63.6467H25.7031V64.3923H27.3022V63.6467Z" fill="white"/>
<path d="M27.3022 65.0935H25.7031V65.839H27.3022V65.0935Z" fill="white"/>
<path d="M27.3022 66.5403H25.7031V67.2858H27.3022V66.5403Z" fill="white"/>
<path d="M29.478 56.4133H27.8789V57.1589H29.478V56.4133Z" fill="white"/>
<path d="M29.478 57.8599H27.8789V58.6054H29.478V57.8599Z" fill="white"/>
<path d="M29.478 59.3069H27.8789V60.0524H29.478V59.3069Z" fill="white"/>
<path d="M29.478 60.7534H27.8789V61.499H29.478V60.7534Z" fill="white"/>
<path d="M29.478 62.2002H27.8789V62.9457H29.478V62.2002Z" fill="white"/>
<path d="M29.478 63.6467H27.8789V64.3923H29.478V63.6467Z" fill="white"/>
<path d="M29.478 65.0935H27.8789V65.839H29.478V65.0935Z" fill="white"/>
<path d="M29.478 66.5403H27.8789V67.2858H29.478V66.5403Z" fill="white"/>
<path d="M16.8968 51.0461H15.2305V52.2219H16.8968V51.0461Z" fill="white"/>
<path d="M19.3809 51.0461H17.7148V52.2219H19.3809V51.0461Z" fill="white"/>
<path d="M16.8968 52.7737H15.2305V53.9495H16.8968V52.7737Z" fill="white"/>
<path d="M19.3809 52.7737H17.7148V53.9495H19.3809V52.7737Z" fill="white"/>
<path d="M16.8968 54.5007H15.2305V55.6765H16.8968V54.5007Z" fill="white"/>
<path d="M19.3809 54.5007H17.7148V55.6765H19.3809V54.5007Z" fill="white"/>
<path d="M16.8968 56.228H15.2305V57.4038H16.8968V56.228Z" fill="white"/>
<path d="M19.3809 56.228H17.7148V57.4038H19.3809V56.228Z" fill="white"/>
<path d="M16.8968 57.9553H15.2305V59.1311H16.8968V57.9553Z" fill="white"/>
<path d="M19.3809 57.9553H17.7148V59.1311H19.3809V57.9553Z" fill="white"/>
<path d="M16.8968 59.6826H15.2305V60.8584H16.8968V59.6826Z" fill="white"/>
<path d="M19.3809 59.6826H17.7148V60.8584H19.3809V59.6826Z" fill="white"/>
<path d="M16.8968 61.4097H15.2305V62.5854H16.8968V61.4097Z" fill="white"/>
<path d="M19.3809 61.4097H17.7148V62.5854H19.3809V61.4097Z" fill="white"/>
<path d="M16.8968 63.1372H15.2305V64.313H16.8968V63.1372Z" fill="white"/>
<path d="M19.3809 63.1372H17.7148V64.313H19.3809V63.1372Z" fill="white"/>
<path d="M22.459 54.5005H20.793V55.6763H22.459V54.5005Z" fill="white"/>
<path d="M22.459 56.228H20.793V57.4038H22.459V56.228Z" fill="white"/>
<path d="M22.459 57.9551H20.793V59.1308H22.459V57.9551Z" fill="white"/>
<path d="M22.459 59.6826H20.793V60.8584H22.459V59.6826Z" fill="white"/>
<path d="M22.459 61.4097H20.793V62.5854H22.459V61.4097Z" fill="white"/>
<path d="M22.459 63.137H20.793V64.3127H22.459V63.137Z" fill="white"/>
<path d="M16.8968 64.8438H15.2305V66.0195H16.8968V64.8438Z" fill="white"/>
<path d="M19.3809 64.8438H17.7148V66.0195H19.3809V64.8438Z" fill="white"/>
<path d="M22.459 64.8438H20.793V66.0195H22.459V64.8438Z" fill="white"/>
<path d="M16.8968 66.5505H15.2305V67.7263H16.8968V66.5505Z" fill="white"/>
<path d="M19.3809 66.5505H17.7148V67.7263H19.3809V66.5505Z" fill="white"/>
<path d="M22.459 66.5505H20.793V67.7263H22.459V66.5505Z" fill="white"/>
<path d="M16.8968 68.2573H15.2305V69.4331H16.8968V68.2573Z" fill="white"/>
<path d="M19.3809 68.2573H17.7148V69.4331H19.3809V68.2573Z" fill="white"/>
<path d="M22.459 68.2573H20.793V69.4331H22.459V68.2573Z" fill="white"/>
<path d="M16.8968 69.9641H15.2305V71.1399H16.8968V69.9641Z" fill="white"/>
<path d="M19.3809 69.9641H17.7148V71.1399H19.3809V69.9641Z" fill="white"/>
<path d="M22.459 69.9641H20.793V71.1399H22.459V69.9641Z" fill="white"/>
<path d="M16.8968 71.6707H15.2305V72.8464H16.8968V71.6707Z" fill="white"/>
<path d="M19.3809 71.6707H17.7148V72.8464H19.3809V71.6707Z" fill="white"/>
<path d="M22.459 71.6707H20.793V72.8464H22.459V71.6707Z" fill="white"/>
<path d="M37.508 52.7244H36.6084V53.7542H37.508V52.7244Z" fill="white"/>
<path d="M39.0686 52.7244H38.1689V53.7542H39.0686V52.7244Z" fill="white"/>
<path d="M37.508 54.2739H36.6084V55.304H37.508V54.2739Z" fill="white"/>
<path d="M39.0686 54.2739H38.1689V55.304H39.0686V54.2739Z" fill="white"/>
<path d="M37.508 55.8237H36.6084V56.8538H37.508V55.8237Z" fill="white"/>
<path d="M39.0686 55.8237H38.1689V56.8538H39.0686V55.8237Z" fill="white"/>
<path d="M37.508 57.3733H36.6084V58.4031H37.508V57.3733Z" fill="white"/>
<path d="M39.0686 57.3733H38.1689V58.4031H39.0686V57.3733Z" fill="white"/>
<path d="M37.508 58.9614H36.6084V59.9912H37.508V58.9614Z" fill="white"/>
<path d="M39.0686 58.9614H38.1689V59.9912H39.0686V58.9614Z" fill="white"/>
<path d="M37.508 60.5493H36.6084V61.5791H37.508V60.5493Z" fill="white"/>
<path d="M39.0686 60.5493H38.1689V61.5791H39.0686V60.5493Z" fill="white"/>
<path d="M37.508 62.1377H36.6084V63.1678H37.508V62.1377Z" fill="white"/>
<path d="M39.0686 62.1377H38.1689V63.1678H39.0686V62.1377Z" fill="white"/>
<path d="M37.508 63.7256H36.6084V64.7554H37.508V63.7256Z" fill="white"/>
<path d="M39.0686 63.7256H38.1689V64.7554H39.0686V63.7256Z" fill="white"/>
<path d="M37.508 65.3303H36.6084V66.3604H37.508V65.3303Z" fill="white"/>
<path d="M39.0686 65.3303H38.1689V66.3604H39.0686V65.3303Z" fill="white"/>
<path d="M37.508 66.9353H36.6084V67.9651H37.508V66.9353Z" fill="white"/>
<path d="M39.0686 66.9353H38.1689V67.9651H39.0686V66.9353Z" fill="white"/>
<path d="M37.508 68.54H36.6084V69.5699H37.508V68.54Z" fill="white"/>
<path d="M39.0686 68.54H38.1689V69.5699H39.0686V68.54Z" fill="white"/>
<path d="M37.508 70.1448H36.6084V71.1748H37.508V70.1448Z" fill="white"/>
<path d="M39.0686 70.1448H38.1689V71.1748H39.0686V70.1448Z" fill="white"/>
<path d="M40.843 52.7244H39.9434V53.7542H40.843V52.7244Z" fill="white"/>
<path d="M42.4016 52.7244H41.502V53.7542H42.4016V52.7244Z" fill="white"/>
<path d="M40.843 54.2739H39.9434V55.304H40.843V54.2739Z" fill="white"/>
<path d="M42.4016 54.2739H41.502V55.304H42.4016V54.2739Z" fill="white"/>
<path d="M40.843 55.8237H39.9434V56.8538H40.843V55.8237Z" fill="white"/>
<path d="M42.4016 55.8237H41.502V56.8538H42.4016V55.8237Z" fill="white"/>
<path d="M40.843 57.3733H39.9434V58.4031H40.843V57.3733Z" fill="white"/>
<path d="M42.4016 57.3733H41.502V58.4031H42.4016V57.3733Z" fill="white"/>
<path d="M40.843 58.9612H39.9434V59.991H40.843V58.9612Z" fill="white"/>
<path d="M42.4016 58.9614H41.502V59.9912H42.4016V58.9614Z" fill="white"/>
<path d="M40.843 60.5493H39.9434V61.5791H40.843V60.5493Z" fill="white"/>
<path d="M42.4016 60.5493H41.502V61.5791H42.4016V60.5493Z" fill="white"/>
<path d="M40.843 62.1375H39.9434V63.1675H40.843V62.1375Z" fill="white"/>
<path d="M42.4016 62.1377H41.502V63.1678H42.4016V62.1377Z" fill="white"/>
<path d="M40.843 63.7256H39.9434V64.7554H40.843V63.7256Z" fill="white"/>
<path d="M42.4016 63.7256H41.502V64.7554H42.4016V63.7256Z" fill="white"/>
<path d="M40.843 65.3303H39.9434V66.3604H40.843V65.3303Z" fill="white"/>
<path d="M42.4016 65.3303H41.502V66.3604H42.4016V65.3303Z" fill="white"/>
<path d="M40.843 66.9353H39.9434V67.9651H40.843V66.9353Z" fill="white"/>
<path d="M42.4016 66.9353H41.502V67.9651H42.4016V66.9353Z" fill="white"/>
<path d="M40.843 68.54H39.9434V69.5699H40.843V68.54Z" fill="white"/>
<path d="M42.4016 68.54H41.502V69.5699H42.4016V68.54Z" fill="white"/>
<path d="M40.843 70.1448H39.9434V71.1748H40.843V70.1448Z" fill="white"/>
<path d="M42.4016 70.1448H41.502V71.1748H42.4016V70.1448Z" fill="white"/>
<path d="M2.50778 6.96448C3.79973 6.96448 25.5401 7.10748 26.9064 7.06416C27.0046 7.06146 27.0573 6.91698 26.9598 6.86849C26.0986 6.44194 25.1214 6.52759 24.2265 6.22608C23.6998 6.04862 23.3764 5.70428 23.0109 5.30948C22.6953 4.96785 22.3291 4.70621 21.8796 4.57084C21.4819 4.45171 21.0521 4.43621 20.648 4.5322C20.2069 4.6373 19.8239 4.88983 19.4031 5.04908C18.3587 5.44338 17.3437 5.06877 16.5981 4.29567C15.983 3.65868 15.3783 3.05762 14.5424 2.71476C13.8424 2.42727 13.0654 2.36746 12.3646 2.68448C11.5672 3.0458 11.02 3.77239 10.271 4.20927C9.383 4.72837 8.32118 4.60555 7.34059 4.76209C6.35729 4.91912 5.60684 5.74465 4.74685 6.22018C4.45297 6.38287 4.15195 6.51898 3.80908 6.51061C3.61685 6.50569 3.42832 6.45375 3.23806 6.42988C2.94221 6.39345 2.66088 6.40182 2.46176 6.64869C2.41327 6.70899 2.42311 6.96448 2.50778 6.96448Z" fill="#EBEBEB"/>
<path d="M78.7422 24.4279C80.0341 24.4279 101.774 24.5709 103.141 24.5275C103.239 24.5248 103.292 24.3804 103.194 24.3319C102.333 23.9053 101.356 23.991 100.461 23.6895C99.9342 23.512 99.6107 23.1677 99.2452 22.7729C98.9297 22.4312 98.5635 22.1696 98.114 22.0342C97.7163 21.9151 97.2865 21.8996 96.8824 21.9956C96.4413 22.1007 96.0583 22.3532 95.6374 22.5125C94.5931 22.9068 93.578 22.5321 92.8325 21.759C92.2174 21.1223 91.6127 20.521 90.7768 20.1781C90.0768 19.8907 89.2998 19.8308 88.599 20.1479C87.8016 20.5092 87.2544 21.2358 86.5054 21.6726C85.6174 22.1917 84.5556 22.0689 83.575 22.2252C82.5917 22.3823 81.8412 23.2078 80.9812 23.6833C80.6873 23.846 80.3866 23.9821 80.0435 23.9737C79.8512 23.9688 79.6627 23.9169 79.4724 23.893C79.1766 23.8566 78.8953 23.865 78.6961 24.1118C78.6476 24.1726 78.6575 24.4279 78.7422 24.4279Z" fill="#EBEBEB"/>
<path d="M17.4367 22.3175C18.7286 22.3175 40.469 22.4605 41.8353 22.4172C41.9335 22.4145 41.9862 22.27 41.8887 22.2215C41.0275 21.795 40.0503 21.8806 39.1554 21.5791C38.6287 21.4016 38.3053 21.0573 37.94 20.6623C37.6245 20.3206 37.2582 20.059 36.8088 19.9236C36.411 19.8045 35.981 19.789 35.5771 19.885C35.1361 19.9903 34.7531 20.2426 34.3322 20.4019C33.2878 20.7962 32.2728 20.4215 31.5273 19.6484C30.9122 19.0115 30.3074 18.4104 29.4716 18.0675C28.7716 17.7801 27.9945 17.7202 27.2938 18.0373C26.4963 18.3986 25.9492 19.1252 25.2002 19.5621C24.3121 20.0811 23.2503 19.9583 22.2697 20.1149C21.2864 20.2719 20.536 21.0974 19.676 21.573C19.3821 21.7356 19.0813 21.8718 18.7382 21.8634C18.546 21.8585 18.3575 21.8065 18.1672 21.7827C17.8713 21.7462 17.59 21.7546 17.3906 22.0015C17.3419 22.062 17.3518 22.3175 17.4367 22.3175Z" fill="#EBEBEB"/>
<path d="M37.8289 15.868C37.854 15.9406 72.0945 15.868 71.6623 15.868C71.4654 15.868 71.9611 15.5734 71.7683 15.4784C70.6536 14.9253 69.4343 14.9098 68.2206 14.7981C67.5125 14.7338 66.7847 14.6305 66.1477 14.2952C65.5023 13.9573 65.1001 13.3705 64.6418 12.8285C63.2268 11.1482 60.9754 10.2724 58.7949 10.6133C56.3604 10.9946 54.4411 12.8497 52.0024 13.1903C50.5372 13.3956 49.1517 12.8285 47.72 12.6289C46.541 12.4655 45.5592 12.6946 44.5045 13.2169C43.7321 13.5997 43.0183 13.9223 42.1453 13.9824C41.4749 14.0299 40.8017 13.9531 40.1297 13.946C39.0541 13.9361 37.9926 14.4021 37.1643 15.1313C37.0558 15.2278 36.711 15.868 37.8289 15.868Z" fill="#EBEBEB"/>
<path d="M61.6053 41.2584C61.6304 41.331 95.8708 41.2584 95.4386 41.2584C95.2417 41.2584 95.7374 40.9638 95.5447 40.8688C94.43 40.3157 93.2106 40.3002 91.997 40.1885C91.2888 40.1242 90.561 40.0208 89.924 39.6856C89.2787 39.3477 88.8765 38.7609 88.4182 38.2189C87.0032 36.5386 84.7518 35.6628 82.5713 36.0037C80.1368 36.385 78.2175 38.2398 75.7788 38.5807C74.3136 38.786 72.9278 38.2189 71.4963 38.0193C70.3174 37.8559 69.3355 38.085 68.2809 38.6073C67.5085 38.99 66.7947 39.3127 65.9217 39.3728C65.2512 39.4203 64.578 39.3435 63.9061 39.3366C62.8305 39.3268 61.7689 39.7927 60.9407 40.5217C60.8322 40.618 60.4873 41.2584 61.6053 41.2584Z" fill="#EBEBEB"/>
<path d="M29.9795 30.1209C35.7267 29.9555 41.5115 29.9555 47.26 30.1209C41.5108 30.2865 35.7269 30.2865 29.9795 30.1209Z" fill="#263238"/>
<path d="M30.1641 34.3128C34.4505 34.1474 38.7681 34.1474 43.0555 34.3128C38.7676 34.4782 34.4507 34.4782 30.1641 34.3128Z" fill="#263238"/>
<path d="M46.8086 12.3196C50.3591 12.1517 53.9378 12.1515 57.489 12.3196C53.9376 12.4875 50.3593 12.4875 46.8086 12.3196Z" fill="#263238"/>
<path d="M42.3848 13.5483C45.4863 13.3804 48.6146 13.3804 51.7166 13.5483C48.6144 13.7161 45.4863 13.7161 42.3848 13.5483Z" fill="#263238"/>
<path d="M16.5 31.9348C24.9118 31.7714 34.2644 31.7753 42.6821 31.9348C34.2626 32.0943 24.9135 32.0983 16.5 31.9348Z" fill="#263238"/>
<path d="M61.4133 13.199C54.878 14.8594 49.1448 17.4008 48.4926 19.3585C47.6154 21.9921 48.5866 28.4784 49.4023 31.7993C49.642 32.7747 57.1971 30.7564 56.9421 29.7133C56.6339 28.4523 54.9351 21.9552 54.9435 21.825C54.9614 21.5464 61.4236 17.3013 62.9046 16.1861C65.3778 14.3234 64.314 12.4621 61.4133 13.199Z" fill="#AD6359"/>
<path d="M62.9048 16.1862C61.4231 17.3004 54.9623 21.5462 54.9436 21.8238C54.938 21.9617 56.6353 28.4531 56.9434 29.7121C57.1987 30.7572 49.6422 32.7755 49.4037 31.8001C49.0849 30.4988 48.7394 28.7133 48.4925 26.8631C48.1102 23.99 47.9584 20.9611 48.4922 19.3571C49.1465 17.4008 54.8794 14.8595 61.4139 13.1986C61.5011 13.1777 61.5882 13.1565 61.6702 13.14C64.3757 12.5761 65.3043 14.3803 62.9048 16.1862Z" fill="#AD6359"/>
<path d="M50.8826 36.7195C49.9677 35.3214 49.2146 31.7304 49.3662 30.7943C49.5178 29.8583 55.5803 28.3751 56.3416 28.9811C57.1029 29.5871 59.8189 34.5328 59.656 36.2299C59.4933 37.927 51.8305 38.168 50.8826 36.7195Z" fill="#AD6359"/>
<path d="M59.3818 33.5692C58.5836 33.1862 58.5892 34.346 58.5892 34.346C58.5892 34.346 58.1789 32.6784 57.2033 32.6019C56.2628 32.5305 56.3189 33.9315 56.3216 34.0319C56.2992 33.9438 55.882 32.4215 54.8938 32.4456C53.8667 32.4712 54.1645 33.868 54.1842 33.9581C54.1369 33.8815 53.4943 32.8812 52.7475 33.0703C51.4647 33.3957 53.0377 35.9988 52.7374 37.0273C52.7374 37.0273 50.9362 36.7177 50.8818 36.7197C50.8818 36.7197 52.3276 39.2268 53.7377 39.5541C54.481 39.7267 54.7887 39.0678 54.7887 39.0678C54.7887 39.0678 55.1655 39.9278 55.944 39.9334C56.3438 39.9352 56.7024 39.2977 56.7024 39.2977C56.7024 39.2977 57.0329 39.9736 57.7258 39.9354C58.2789 39.9069 58.5526 39.2716 58.5526 39.2716C58.5526 39.2716 59.1711 39.7732 59.7266 39.5605C60.848 39.1333 61.0902 34.3908 59.3818 33.5692Z" fill="#AD6359"/>
<path d="M58.6124 39.1774C58.6104 39.1932 58.6318 39.1991 58.6365 39.1836C59.0968 37.6433 59.1305 35.8101 58.5964 34.2836C58.5789 34.2334 58.4898 34.2402 58.4987 34.2991C58.7482 35.9775 58.8359 37.4872 58.6124 39.1774Z" fill="#263238"/>
<path d="M56.7122 39.3214C56.7098 39.3398 56.7401 39.344 56.7457 39.325C57.2114 37.7353 57.1925 35.6695 56.3699 33.9825C56.3416 33.9247 56.2584 33.901 56.2857 33.9699C56.7477 35.1332 56.9212 37.8005 56.7122 39.3214Z" fill="#263238"/>
<path d="M54.0877 33.8598C54.8138 35.5079 54.9389 37.223 54.8138 39.003C54.8121 39.0261 54.8451 39.0261 54.8517 39.0072C55.15 38.1531 55.1116 37.0101 55.0063 36.1233C54.9054 35.2739 54.644 34.5278 54.1453 33.8345C54.1261 33.8076 54.0722 33.8246 54.0877 33.8598Z" fill="#263238"/>
<path d="M58.5891 34.346C58.4789 34.0332 58.345 33.7287 58.1811 33.4444C58.0164 33.1651 57.8121 32.8911 57.5428 32.7456C57.4097 32.675 57.261 32.6487 57.12 32.6836C56.9767 32.7205 56.8362 32.7892 56.7326 32.8906C56.5197 33.0902 56.4426 33.4196 56.4581 33.7075L56.4968 34.4324L56.2086 33.7649C56.0828 33.4737 55.9088 33.1838 55.6964 32.9507C55.4847 32.7176 55.212 32.5416 54.9264 32.5487C54.6281 32.5505 54.3842 32.7146 54.3099 32.9992C54.2247 33.2773 54.2518 33.6194 54.3229 33.919L54.5221 34.7556L54.0623 34.0334C53.9377 33.8377 53.7797 33.6443 53.6072 33.4855C53.4337 33.3282 53.2323 33.1978 53.0238 33.1695C52.8196 33.1409 52.5973 33.2241 52.4922 33.3913C52.379 33.5653 52.3598 33.8163 52.365 34.0556C52.3814 34.5439 52.503 35.0352 52.599 35.5279C52.6492 35.7746 52.6999 36.0222 52.7386 36.2725C52.7725 36.5206 52.8109 36.7825 52.7378 37.0271C52.7849 36.7778 52.7194 36.5287 52.6699 36.2855C52.6128 36.0416 52.5439 35.8004 52.475 35.558C52.3374 35.0736 52.204 34.5845 52.1572 34.0664C52.1432 33.8094 52.1368 33.5298 52.2845 33.265C52.439 32.9928 52.7664 32.869 53.0563 32.9076C53.3522 32.9455 53.5912 33.1067 53.7908 33.28C53.9909 33.4597 54.1575 33.6563 54.3067 33.8825L54.046 33.9967C53.9592 33.6435 53.9173 33.2866 54.0199 32.9106C54.0714 32.726 54.188 32.5394 54.3611 32.4227C54.5341 32.3046 54.7303 32.2588 54.9255 32.2576C55.3311 32.2573 55.6683 32.5022 55.9004 32.7663C56.1384 33.0383 56.3127 33.3401 56.45 33.6709L56.2002 33.7282C56.1933 33.3612 56.307 32.9878 56.593 32.7361C56.735 32.6132 56.9063 32.5414 57.0853 32.5052C57.2699 32.468 57.4673 32.5145 57.6211 32.6073C57.9317 32.7998 58.1087 33.107 58.2588 33.4033C58.4055 33.7051 58.5141 34.0223 58.5891 34.346Z" fill="#263238"/>
<path d="M56.952 29.7422C56.952 29.7422 62.8553 33.6668 60.1906 35.2223C59.3988 35.6846 55.5956 36.6381 55.3893 35.878C55.123 34.8964 56.6362 34.2021 57.6552 33.9171C57.6552 33.9171 55.4595 32.8649 55.7361 31.1176C55.9099 30.0215 56.952 29.7422 56.952 29.7422Z" fill="#AD6359"/>
<path d="M60.4046 35.079C60.1253 35.3086 59.7893 35.4585 59.4565 35.5968C59.1215 35.7347 58.7745 35.84 58.4245 35.9313C57.7208 36.1056 57.0201 36.2567 56.2834 36.3079C56.0983 36.318 55.9098 36.3204 55.7079 36.2752C55.6083 36.2523 55.5 36.2117 55.4079 36.1395C55.3614 36.1043 55.3247 36.0689 55.2821 36.0084C55.2482 35.9537 55.2228 35.8991 55.2093 35.8439C55.1458 35.6224 55.192 35.4014 55.2765 35.2151C55.3678 35.0307 55.4958 34.8779 55.6351 34.7445C55.9176 34.4806 56.2484 34.2995 56.5854 34.1528C56.9221 34.0019 57.2714 33.8948 57.6214 33.7964L57.6039 34.0312C57.3501 33.9 57.1252 33.7476 56.9071 33.5768C56.6907 33.4065 56.4902 33.2155 56.3127 33.0043C56.1367 32.7919 55.9907 32.5544 55.8849 32.3011C55.7771 32.0486 55.7198 31.7766 55.7153 31.5066C55.7567 31.7734 55.8401 32.0299 55.9642 32.2637C56.0872 32.4985 56.2516 32.7075 56.4316 32.899C56.6122 33.0905 56.8138 33.2618 57.0297 33.4126C57.2441 33.5625 57.4764 33.6994 57.7078 33.8028L58.0019 33.9342L57.69 34.0376C57.3543 34.1491 57.0174 34.2586 56.7033 34.4119C56.3895 34.5608 56.0803 34.7299 55.8408 34.962C55.6063 35.1845 55.4217 35.4954 55.4972 35.762C55.543 36.002 55.9359 36.0357 56.2716 36.0234C56.6194 36.0133 56.9733 35.966 57.326 35.919C57.6797 35.8708 58.0327 35.8183 58.3817 35.7475C59.0743 35.5944 59.7832 35.4422 60.4046 35.079Z" fill="#263238"/>
<path opacity="0.2" d="M62.9052 16.1861C61.4235 17.3003 54.9628 21.5461 54.9441 21.8237C54.9384 21.9616 56.6357 28.4531 56.9439 29.712C56.9461 29.7194 56.9481 29.7271 56.9478 29.7369C56.9503 29.7394 56.9503 29.7394 56.9525 29.7421C56.9525 29.7421 62.5087 33.4382 60.4043 35.0787C60.8739 36.7854 60.5212 39.2566 59.7254 39.5588C59.1697 39.7725 58.5523 39.2718 58.5523 39.2718C58.5523 39.2718 58.2774 39.9059 57.7246 39.9349C57.1346 39.9674 56.8073 39.4786 56.7243 39.3373C56.7145 39.3343 56.7098 39.3292 56.7101 39.322L56.7103 39.3146C56.7034 39.3021 56.7012 39.2969 56.7012 39.2969C56.7012 39.2969 56.3426 39.9349 55.9436 39.9334C55.1656 39.9263 54.7892 39.0683 54.7892 39.0683C54.7892 39.0683 54.4816 39.7257 53.7373 39.5524C52.3707 39.2354 50.9722 36.8723 50.8873 36.7258C50.8851 36.7209 50.8826 36.7182 50.8826 36.7182C50.1639 35.6222 49.5449 33.1727 49.3829 31.7178C49.0713 30.4241 48.7341 28.6761 48.4932 26.8628L61.6706 13.1397C64.3761 12.576 65.3048 14.3802 62.9052 16.1861Z" fill="black"/>
<path d="M7.79807 61.9811C7.76164 61.3397 12.3845 44.5362 12.9671 44.009C13.1849 43.8047 26.911 47.9612 26.911 47.9612L24.1915 58.2889L15.5818 56.0606C15.5818 56.0606 11.0628 61.5469 10.3608 62.0599C9.66276 62.5676 7.83179 62.622 7.79807 61.9811Z" fill="#AD6359"/>
<path d="M7.80003 61.9803C7.76262 61.3391 12.385 44.5349 12.9671 44.0084C13.0722 43.9107 17.3768 45.1411 19.9528 45.8881L17.1435 56.4644L15.5832 56.0608C15.5832 56.0608 11.065 61.5458 10.3628 62.0585C9.66448 62.5685 7.83154 62.6207 7.80003 61.9803Z" fill="#EBEBEB"/>
<path d="M7.78829 62.0557C7.75334 61.4175 12.2836 44.4477 12.8623 43.9202C13.0806 43.7191 15.6251 44.4275 18.4148 45.4403L15.6087 56.2113C15.6087 56.2113 11.0387 61.6216 10.3422 62.1318C9.64659 62.6383 7.82348 62.694 7.78829 62.0557Z" fill="#FFC727"/>
<path d="M8.52155 61.9997C9.36086 59.214 12.483 47.8988 13.1011 45.0813C13.1063 45.0584 13.0908 45.0542 13.0834 45.0764C12.1911 47.8193 9.16075 59.1596 8.47552 61.9871C8.46125 62.0467 8.50407 62.0585 8.52155 61.9997Z" fill="#263238"/>
<path d="M11.2381 61.2211C11.4478 60.5635 11.3107 59.8265 11.0141 59.3552C10.7293 58.9021 10.2759 58.457 9.68889 58.317C9.67216 58.3131 9.66305 58.3436 9.67979 58.351C10.7335 58.8127 11.4231 60.0759 11.2031 61.2118C11.1984 61.2344 11.2309 61.2438 11.2381 61.2211Z" fill="#263238"/>
<path d="M15.0836 57.0141C15.4075 55.8957 15.3688 54.4856 14.6423 53.5358C14.6142 53.4989 14.5623 53.5395 14.5701 53.5774C14.8145 54.7359 14.9393 55.8076 14.9398 56.9954C14.9401 57.0791 15.0602 57.0941 15.0836 57.0141Z" fill="#263238"/>
<path d="M14.5072 57.7879C14.8311 56.6695 14.7925 55.2591 14.0659 54.3093C14.0378 54.2726 13.9859 54.3132 13.994 54.3512C14.2384 55.5097 14.3632 56.5814 14.3637 57.7692C14.3637 57.8529 14.4841 57.8679 14.5072 57.7879Z" fill="#263238"/>
<path d="M13.931 58.5615C14.2549 57.4431 14.2163 56.0327 13.4897 55.0829C13.4617 55.046 13.4097 55.0866 13.4178 55.1247C13.6623 56.2833 13.787 57.3549 13.7875 58.5428C13.7875 58.6267 13.9079 58.6417 13.931 58.5615Z" fill="#263238"/>
<path d="M13.3558 59.3352C13.6797 58.2167 13.6411 56.8066 12.9145 55.8568C12.8865 55.8199 12.8345 55.8605 12.8426 55.8987C13.0871 57.0572 13.2118 58.1289 13.2123 59.3167C13.2126 59.4004 13.3327 59.4154 13.3558 59.3352Z" fill="#263238"/>
<path d="M15.5692 46.5273C15.9116 45.2669 13.9531 44.7328 13.6103 45.9954C13.2681 47.2559 15.2264 47.79 15.5692 46.5273Z" fill="#263238"/>
<path d="M17.7459 59.0515C18.3745 58.6114 18.109 57.7676 17.7186 57.285C17.2152 56.6674 16.4884 56.103 15.7377 55.7336C15.6321 55.6772 15.5243 55.6282 15.4195 55.5842C15.3717 55.5674 15.3247 55.5468 15.2816 55.5273C15.277 55.53 15.2779 55.5263 15.2779 55.5263L15.2403 55.5162C15.1999 55.5015 15.1635 55.4877 15.1268 55.4739C15.1044 55.468 15.0879 55.4838 15.0867 55.5034C15.0311 55.5007 14.9703 55.5327 14.9476 55.5871C14.9331 55.6115 14.9289 55.6425 14.9395 55.6775C15.0306 55.9393 15.1187 56.2123 15.2068 56.4855C15.2184 56.5328 15.2346 56.5776 15.2499 56.6258C15.4665 57.2916 15.7079 57.9557 16.1273 58.5104C16.4867 58.9889 17.1525 59.4647 17.7459 59.0515ZM15.7407 57.0186C15.6555 56.7947 15.5753 56.568 15.4938 56.345C15.4241 56.1532 15.3535 55.9654 15.2792 55.7764C15.2703 55.7498 15.2573 55.7223 15.2474 55.6994C15.2373 55.6765 15.2285 55.6499 15.2184 55.6273C15.2388 55.6408 15.2595 55.6543 15.2799 55.6679C15.2826 55.6725 15.2826 55.6725 15.2866 55.6735C15.419 55.7653 15.5477 55.8559 15.6813 55.944C16.035 56.1875 16.3838 56.4336 16.7104 56.7181C16.9329 56.9103 17.1606 57.1122 17.3553 57.3332C17.6573 57.6795 18.2921 59.0406 17.04 58.8149C16.3528 58.6914 15.9479 57.569 15.7407 57.0186Z" fill="#263238"/>
<path d="M15.1254 55.7352C15.1328 55.7532 15.1505 55.762 15.1731 55.752C15.2017 55.7355 15.2265 55.718 15.2475 55.6993C15.2644 55.6958 15.275 55.6865 15.2807 55.6801C15.2854 55.6774 15.2893 55.6784 15.2863 55.6737C15.3378 55.6471 15.3777 55.6176 15.419 55.5843C15.5812 55.4746 15.735 55.3508 15.8785 55.2201C16.4611 54.7116 16.9763 54.064 17.299 53.4134C17.5766 52.8557 17.6465 51.9765 16.9389 51.6871C16.9135 51.6762 16.8872 51.6694 16.8609 51.6622C16.2263 51.4606 15.7114 52.0477 15.4746 52.5722C15.231 53.123 15.1298 53.728 15.0643 54.3345C15.0208 54.7536 14.9925 55.1767 14.9472 55.5873C14.9462 55.591 14.9462 55.591 14.9452 55.5949C14.9336 55.7 15.0402 55.7527 15.1254 55.7352ZM15.4296 54.1137C15.5098 53.5274 15.657 52.3428 16.3019 52.0683C16.5013 51.9847 16.6536 51.9571 16.7742 51.9731C17.3684 52.0393 17.1156 53.1068 16.9327 53.4445C16.7946 53.7056 16.6162 53.9517 16.4434 54.1915C16.3103 54.3734 16.168 54.5447 16.0181 54.714C15.7789 54.9921 15.5273 55.2553 15.2814 55.5277L15.2767 55.5304C15.2605 55.5462 15.247 55.5666 15.2305 55.5826C15.2364 55.56 15.2379 55.5403 15.2401 55.5167C15.2514 55.4593 15.2617 55.4056 15.2691 55.3473C15.3306 54.9368 15.3722 54.5252 15.4296 54.1137Z" fill="#263238"/>
<path d="M65.0983 30.2576C65.0983 30.2576 65.1561 38.8469 63.4745 40.7027C63.4745 40.7027 52.9026 60.3706 46.926 61.5321C41.8651 62.5157 18.4141 57.2334 18.4141 57.2334L21.2584 46.1142C21.2584 46.1142 30.6803 46.9643 35.8823 47.4324C39.2428 47.7349 42.9889 48.558 43.0962 48.399C45.9105 44.2202 49.9687 39.5341 49.812 39.0804C49.62 38.5249 49.6886 36.5797 49.9584 35.5319C50.399 33.8203 51.3951 30.2576 51.3951 30.2576H65.0983Z" fill="#263238"/>
<path d="M53.7809 36.7966C53.7809 36.0533 54.9131 32.1471 55.4743 30.2568H55.2208C54.6448 32.1841 53.5348 36.0213 53.5348 36.7966C53.5348 37.722 53.7587 39.125 53.808 39.413C50.2735 44.3676 44.9447 51.7614 44.4869 52.1946C44.2728 52.1946 42.9757 52.0026 41.6146 51.7934C39.4117 51.4538 36.3941 50.991 34.9641 50.9246C33.1353 50.8384 24.4074 50.068 20.3389 49.7062L20.2773 49.945C24.3311 50.3092 33.1156 51.0821 34.9518 51.1682C36.3695 51.2347 39.3797 51.6974 41.5752 52.0371C43.4163 52.3201 44.2236 52.4383 44.4869 52.4383C44.5263 52.4383 44.5534 52.4358 44.5706 52.4309C44.8487 52.3472 50.6206 44.3036 54.0369 39.5163L54.0664 39.4745L54.059 39.4228C54.0566 39.408 53.7809 37.7885 53.7809 36.7966Z" fill="#FFC727"/>
<path d="M54.8585 36.8236C54.8585 36.068 55.9144 32.0979 56.4165 30.2568H56.1581C55.6486 32.1348 54.6124 36.0385 54.6124 36.8236C54.6124 37.7516 54.8511 39.1841 54.9004 39.477C51.1025 44.8107 45.3824 52.7656 44.9074 53.2235C44.6883 53.2284 43.3961 53.0315 42.035 52.8198C39.8321 52.4826 36.8146 52.0199 35.387 51.9534C33.4499 51.8623 23.7794 51.0033 20.0923 50.6711L20.0283 50.9147C23.6834 51.2421 33.4253 52.106 35.3747 52.1971C36.7899 52.2635 39.8001 52.7263 41.9956 53.0635C43.8367 53.3465 44.644 53.4671 44.9074 53.4671C44.9468 53.4671 44.9738 53.4647 44.9911 53.4597C45.2717 53.3761 51.4644 44.727 55.1317 39.5779L55.1613 39.536L55.1514 39.4868C55.149 39.4696 54.8585 37.8156 54.8585 36.8236Z" fill="#FFC727"/>
<path opacity="0.2" d="M63.474 40.7027C63.474 40.7027 60.3111 46.5877 56.4666 52.106C55.1251 48.3968 52.3561 40.6609 50.2812 34.3057C50.7612 32.5188 51.3938 30.2568 51.3938 30.2568H65.0984C65.0984 30.2568 65.155 38.8469 63.474 40.7027Z" fill="black"/>
<path d="M97.7027 88.6927C97.1989 89.0912 80.7912 94.9666 80.025 94.7929C79.7326 94.7321 75.2441 81.1108 75.2441 81.1108L85.2583 77.3999L88.3837 85.7258C88.3837 85.7258 95.4706 86.2703 96.2936 86.5499C97.111 86.8297 98.2078 88.2967 97.7027 88.6927Z" fill="#AD6359"/>
<path d="M97.7017 88.6922C97.1986 89.0914 80.7906 94.9679 80.0252 94.7938C79.8846 94.7641 78.4174 90.5343 77.5479 87.9969L87.8172 84.2168L88.3838 85.7253C88.3838 85.7253 95.4695 86.2698 96.2926 86.5496C97.1114 86.8283 98.2077 88.2984 97.7017 88.6922Z" fill="#EBEBEB"/>
<path d="M97.7679 88.6586C97.2657 89.0542 80.7751 95.1009 80.0111 94.9308C79.7212 94.8678 78.8381 92.3784 78.0635 89.5135L88.4904 85.6189C88.4904 85.6189 95.5443 86.2488 96.3622 86.5257C97.1766 86.8033 98.27 88.2631 97.7679 88.6586Z" fill="#FFC727"/>
<path d="M97.2989 88.0892C94.5368 89.0036 83.483 92.9526 80.8223 94.0663C80.8007 94.0754 80.8061 94.0904 80.8285 94.0836C83.5859 93.2369 94.6075 89.1988 97.3152 88.134C97.372 88.1116 97.3572 88.0698 97.2989 88.0892Z" fill="#263238"/>
<path d="M95.1013 86.3142C94.4424 86.5207 93.9184 87.0565 93.703 87.57C93.496 88.0635 93.3924 88.6901 93.6152 89.2511C93.6216 89.2671 93.6518 89.2567 93.6482 89.239C93.4202 88.1115 94.0575 86.821 95.1134 86.3482C95.135 86.3391 95.124 86.3073 95.1013 86.3142Z" fill="#263238"/>
<path d="M89.4473 85.5851C88.3459 85.9627 87.2142 86.8052 86.8546 87.9455C86.8405 87.9898 86.9035 88.0088 86.9301 87.9805C87.7377 87.1146 88.543 86.3964 89.5145 85.7134C89.5832 85.6651 89.5263 85.5581 89.4473 85.5851Z" fill="#263238"/>
<path d="M90.4111 85.6114C89.3097 85.9892 88.178 86.8315 87.8184 87.9719C87.8046 88.0162 87.8676 88.0351 87.8939 88.0068C88.7015 87.1409 89.5068 86.4227 90.4783 85.7397C90.5467 85.6914 90.4899 85.5846 90.4111 85.6114Z" fill="#263238"/>
<path d="M91.377 85.6381C90.2758 86.0159 89.1438 86.8582 88.7842 87.9985C88.7702 88.0428 88.8335 88.0618 88.8598 88.0335C89.6674 87.1676 90.4725 86.4494 91.4442 85.7664C91.5129 85.7181 91.456 85.611 91.377 85.6381Z" fill="#263238"/>
<path d="M92.3409 85.6645C91.2397 86.0423 90.1077 86.8846 89.7481 88.0249C89.7341 88.069 89.7971 88.0882 89.8237 88.0598C90.6312 87.194 91.4363 86.4757 92.4081 85.7927C92.4765 85.7442 92.4196 85.6374 92.3409 85.6645Z" fill="#263238"/>
<path d="M80.5881 91.2157C79.3599 91.6602 80.0486 93.5697 81.2787 93.1244C82.5069 92.6802 81.8185 90.7707 80.5881 91.2157Z" fill="#263238"/>
<path d="M89.5851 82.236C88.8637 81.9743 88.3259 82.6768 88.1554 83.2737C87.9395 84.0404 87.8952 84.9597 88.0244 85.7864C88.0389 85.9053 88.0608 86.0215 88.0852 86.1327C88.099 86.1815 88.1091 86.2317 88.118 86.2782C88.1229 86.2804 88.1192 86.2819 88.1192 86.2819L88.1325 86.3183C88.1435 86.3599 88.1534 86.3976 88.163 86.4355C88.1711 86.4574 88.1933 86.4616 88.2103 86.4512C88.24 86.4982 88.3011 86.5298 88.3587 86.517C88.387 86.515 88.4148 86.5005 88.4372 86.4717C88.5991 86.2467 88.7719 86.0176 88.9447 85.7884C88.9767 85.7517 89.004 85.7128 89.0348 85.6725C89.4549 85.1125 89.8598 84.5334 90.0727 83.871C90.2578 83.3025 90.2642 82.4843 89.5851 82.236ZM89.0742 85.0456C88.9398 85.244 88.8005 85.4401 88.6646 85.6348C88.5477 85.8019 88.4345 85.9676 88.3227 86.1372C88.3062 86.1598 88.291 86.1862 88.2779 86.2073C88.2651 86.2287 88.2484 86.2511 88.2356 86.2725C88.2349 86.2479 88.2341 86.2233 88.2334 86.1987C88.2356 86.1938 88.2356 86.1938 88.2344 86.1901C88.2334 86.0289 88.2336 85.8713 88.2287 85.7116C88.2245 85.2824 88.2255 84.8553 88.2706 84.4246C88.3001 84.1322 88.3341 83.8297 88.4032 83.5434C88.513 83.0972 89.262 81.7954 89.7968 82.9498C90.0912 83.5831 89.4055 84.5595 89.0742 85.0456Z" fill="#263238"/>
<path d="M88.3778 86.2867C88.3884 86.2705 88.3854 86.2508 88.364 86.238C88.334 86.2242 88.3054 86.2139 88.2781 86.2072C88.2655 86.1954 88.2518 86.192 88.2431 86.191C88.2382 86.1888 88.2367 86.1851 88.2345 86.19C88.1833 86.1632 88.1361 86.1474 88.0851 86.1329C87.9022 86.0632 87.7122 86.0086 87.5227 85.9663C86.7718 85.7819 85.9457 85.7324 85.228 85.8422C84.6119 85.9355 83.8524 86.3837 84.0222 87.1292C84.0279 87.1561 84.0372 87.1817 84.0466 87.2073C84.2462 87.8423 85.0227 87.9265 85.5879 87.8187C86.1786 87.7015 86.7319 87.4367 87.2657 87.1415C87.6337 86.9363 87.9963 86.7162 88.3583 86.5174C88.362 86.5161 88.362 86.5161 88.3657 86.5146C88.4592 86.4639 88.441 86.3465 88.3778 86.2867ZM86.8759 86.97C86.3499 87.2415 85.2962 87.8019 84.7008 87.432C84.5177 87.3168 84.4074 87.2083 84.3513 87.1002C84.0638 86.5759 85.0828 86.1693 85.4643 86.1248C85.7572 86.0879 86.0612 86.0923 86.3568 86.0957C86.582 86.1002 86.804 86.1181 87.0287 86.1435C87.394 86.1794 87.7536 86.2341 88.1179 86.2786L88.1228 86.2808C88.1449 86.285 88.1695 86.2843 88.1919 86.2887C88.17 86.2968 88.153 86.3072 88.1326 86.3187C88.0792 86.3424 88.0295 86.365 87.9773 86.3923C87.6061 86.5779 87.2456 86.7805 86.8759 86.97Z" fill="#263238"/>
<path d="M88.1562 83.2738L76.7313 87.1211C76.7313 87.1211 69.3972 71.0831 67.7767 62.345C67.298 59.764 58.0695 45.8826 54.4053 41.8931C52.7439 40.084 51.8935 38.2461 51.5526 36.488C51.2428 34.8899 51.3946 30.2483 51.3946 30.2483L66.7919 30.2574L66.8581 35.0619C67.3836 35.9076 74.8004 46.8359 79.0336 56.8414C80.3792 60.021 88.1562 83.2738 88.1562 83.2738Z" fill="#263238"/>
<path d="M64.0908 32.7825C65.1199 33.4113 66.0451 34.1714 66.8591 35.0617C65.8293 34.4338 64.9055 33.6717 64.0908 32.7825Z" fill="#37474F"/>
<path d="M81.0794 85.6559L80.8432 85.7371C79.3664 82.3282 74.9089 71.9537 73.8801 68.3454C73.5822 67.3067 73.213 65.8225 72.8537 64.39C72.295 62.1404 71.7141 59.8169 71.4557 59.3689C71.148 58.8348 68.7851 55.1355 66.2869 51.2195C62.5678 45.3935 60.1262 41.5588 60.0548 41.3643C60.0228 41.2807 59.6831 40.8327 59.3262 40.3601C58.2556 38.9522 56.4662 36.5968 56.2988 35.4818C56.0108 33.5595 56.0035 31.3468 56.0232 30.2515H56.2693C56.2521 31.3369 56.257 33.5373 56.5425 35.4449C56.7 36.4983 58.5362 38.9129 59.5207 40.2124C60.008 40.8524 60.2443 41.165 60.2862 41.2807C60.392 41.5243 63.6336 46.6045 66.4936 51.0866C68.9943 55.005 71.3572 58.7068 71.6698 59.2459C71.9455 59.7234 72.5042 61.9607 73.0949 64.3285C73.4518 65.761 73.821 67.2427 74.1163 68.2765C75.1452 71.8799 79.6076 82.2691 81.0794 85.6559Z" fill="#FFC727"/>
<path d="M80.0037 86.0177L79.7698 86.0965C78.3127 82.7368 73.8208 72.2835 72.7846 68.6555C72.4868 67.6168 72.1176 66.1327 71.7582 64.6977C71.1995 62.4505 70.6186 60.1295 70.3602 59.6815C70.0525 59.1474 67.6897 55.448 65.1914 51.5296C61.4724 45.7037 59.0307 41.8689 58.9594 41.6745C58.9274 41.5908 58.5902 41.1453 58.2308 40.6727C57.1601 39.2648 55.3707 36.9069 55.2034 35.7919C54.8859 33.6678 54.9105 31.1818 54.9326 30.2515H55.1812C55.1566 31.1671 55.132 33.6432 55.447 35.755C55.6046 36.8084 57.4407 39.2255 58.4252 40.5226C58.9126 41.165 59.1489 41.4776 59.1907 41.5908C59.2941 41.8345 62.5381 46.9146 65.3982 51.3967C67.8989 55.3176 70.2618 59.0194 70.5743 59.556C70.85 60.036 71.4063 62.2708 71.997 64.6362C72.3539 66.0711 72.7231 67.5528 73.0209 68.5891C74.0547 72.2097 78.5564 82.6851 80.0037 86.0177Z" fill="#FFC727"/>
<path d="M66.0275 12.638C66.5144 12.8376 67.0962 12.766 67.4969 12.4111C67.8902 12.062 68.0362 11.5026 67.9063 11.0015C68.4404 11.1801 69.0404 11.0989 69.3966 10.5983C69.7648 10.0802 69.6343 9.42842 69.195 9.00458C69.1918 9.00138 69.1859 9.00631 69.1888 9.00975C69.5465 9.43876 69.6624 10.0622 69.3161 10.5355C69.02 10.9404 68.5863 11.0288 68.1519 10.952C68.5624 10.8777 68.9533 10.6766 69.1842 10.3182C69.4372 9.92512 69.4433 9.39446 69.1724 9.01541C69.6124 8.71685 69.9784 8.24502 69.9962 7.6959C70.0114 7.23391 69.7623 6.77807 69.3427 6.58559C69.7134 6.20975 69.8497 5.61928 69.6375 5.12554C69.4389 4.66158 68.9762 4.35933 68.482 4.32585C68.9983 3.7184 68.7059 2.76168 67.9259 2.55124C68.0734 2.30486 68.0406 1.98808 67.8745 1.74958C67.684 1.47416 67.3559 1.35208 67.0344 1.29473C67.016 0.999124 66.8624 0.712379 66.5953 0.565438C66.2387 0.369271 65.8151 0.480277 65.5734 0.783758C65.2032 0.402499 64.7481 0.040438 64.2007 0.00277968C63.7503 -0.0279869 63.2694 0.176549 63.0693 0.592513C62.3158 -0.000666244 61.2218 0.193286 60.7165 1.01143C60.348 0.860797 59.9232 0.938575 59.6081 1.18397C59.2909 1.43109 59.1521 1.6782 59.0974 1.80102C58.7558 1.69149 58.378 1.82761 58.1683 2.11927C57.9618 2.40626 57.9561 2.7378 58.0326 3.06073C58.0029 3.14589 57.96 3.22145 57.8835 3.30169C57.5401 3.66302 57.3939 4.13879 57.4948 4.62638C56.9745 4.89836 56.8175 5.62469 57.1771 6.08742C56.7555 6.51175 56.7734 7.25434 57.2111 7.65972C56.9174 8.02768 56.7852 8.50863 56.8739 8.9753C56.9415 9.33292 57.1707 9.70261 57.5384 9.7735C57.3799 10.0122 57.5185 10.3411 57.7412 10.5077C57.8256 10.571 57.9209 10.619 58.0169 10.662C58.1311 10.7125 58.2906 10.7465 58.3814 10.8358C58.4764 10.9274 58.487 11.0797 58.5313 11.1969C58.5633 11.2808 58.6051 11.3618 58.6541 11.4376C59.0273 12.0081 59.8021 12.2491 60.4265 11.9867C60.6008 12.4386 61.0965 12.6242 61.5563 12.6446C61.7079 12.6513 61.8534 12.6333 62.003 12.6139C62.1411 12.5957 62.2624 12.588 62.3939 12.6508C62.4731 12.6889 62.543 12.7446 62.6223 12.7835C62.8915 12.9146 63.1712 12.8484 63.4382 12.7529C63.9521 13.9425 65.5175 13.7089 66.0275 12.638ZM58.1747 2.3179C58.3524 1.97085 58.7004 1.80102 59.0817 1.83893C59.0716 1.86502 59.0659 1.88249 59.0659 1.88249C59.0659 1.88249 58.9451 1.90243 58.8875 1.91843C58.7829 1.94895 58.6832 1.99571 58.5916 2.05528C58.4011 2.17884 58.2463 2.35999 58.1577 2.56896C58.1178 2.66298 58.0954 2.76119 58.0799 2.86136C58.0779 2.8749 58.075 2.88573 58.073 2.89853C58.0602 2.70138 58.0777 2.50742 58.1747 2.3179ZM66.6086 0.865966C66.3229 0.655523 65.9209 0.640509 65.6298 0.841353C65.6234 0.834462 65.6162 0.827816 65.6098 0.820924C65.8793 0.573069 66.1937 0.421697 66.5616 0.632386C66.8188 0.779573 66.9153 1.0198 66.9301 1.27824C66.9284 1.27799 66.9266 1.27775 66.9247 1.2775C66.8592 1.11702 66.7561 0.974018 66.6086 0.865966ZM63.4926 12.7335C63.4965 12.732 63.5007 12.7305 63.5047 12.7291C64.0459 13.4044 64.9923 13.4837 65.6347 13.002C64.963 13.5836 64.0452 13.6966 63.4926 12.7335Z" fill="#263238"/>
<path d="M49.332 33.2337C49.3648 33.2903 66.7754 34.4791 66.9817 34.3246C67.2702 34.1063 67.5229 18.8576 65.3434 14.2736C64.7985 13.1274 62.4167 12.041 60.3401 13.8185C54.3125 18.9782 49.2156 33.0299 49.332 33.2337Z" fill="#FFC727"/>
<path d="M64.3167 16.5915C63.4326 16.6998 61.7493 15.4853 61.2713 14.186C61.2391 14.0967 61.495 13.2475 61.7574 12.2009C61.9142 11.5652 62.0737 10.8536 62.1722 10.194C62.1916 10.0584 66.16 11.818 66.16 11.818C66.16 11.818 65.5464 13.1402 65.3815 14.2916C65.3687 14.3878 65.365 14.4789 65.3694 14.5665C65.3689 14.5791 65.3704 14.5948 65.3687 14.6123C65.3758 15.139 65.2628 16.4753 64.3167 16.5915Z" fill="#AD6359"/>
<path d="M66.159 11.8186C66.159 11.8186 65.5456 13.1411 65.3802 14.292C65.3731 14.3459 65.3708 14.4001 65.3689 14.4518C63.4498 14.3361 62.4564 12.667 61.9629 11.302C62.0446 10.9308 62.1167 10.5545 62.1709 10.1946C62.1911 10.0573 66.159 11.8186 66.159 11.8186Z" fill="#263238"/>
<path d="M61.8336 4.56404C61.1538 5.98152 61.2859 10.3952 62.1976 11.5136C63.5193 13.1349 66.0087 13.649 67.468 11.9859C68.8828 10.3738 68.6091 4.62459 67.5603 3.57508C66.0159 2.02888 62.8376 2.46995 61.8336 4.56404Z" fill="#AD6359"/>
<path d="M65.5102 7.87811C65.507 7.86704 65.488 7.89386 65.4892 7.90592C65.519 8.20202 65.5033 8.54611 65.2414 8.66303C65.2333 8.66672 65.2352 8.68149 65.2451 8.67952C65.5695 8.61085 65.586 8.15378 65.5102 7.87811Z" fill="#263238"/>
<path d="M65.2241 7.58644C64.7444 7.58299 64.7727 8.54266 65.2172 8.54586C65.6546 8.54906 65.6263 7.58939 65.2241 7.58644Z" fill="#263238"/>
<path d="M67.2666 7.7652C67.2683 7.75363 67.2902 7.77849 67.2902 7.7908C67.2894 8.08837 67.3389 8.42926 67.6106 8.52009C67.619 8.52279 67.6188 8.53781 67.6087 8.53682C67.2791 8.50015 67.2183 8.04702 67.2666 7.7652Z" fill="#263238"/>
<path d="M67.5225 7.44699C67.9995 7.39654 68.0652 8.35448 67.6234 8.401C67.1885 8.44703 67.1228 7.48908 67.5225 7.44699Z" fill="#263238"/>
<path d="M64.9325 7.12352C65.0657 7.10284 65.1851 7.06125 65.3148 7.02703C65.461 6.98839 65.5816 6.97288 65.686 6.85449C65.7418 6.79099 65.7325 6.66694 65.6759 6.60689C65.5442 6.46684 65.3532 6.46954 65.1752 6.50893C64.982 6.55151 64.8442 6.63371 64.7216 6.78853C64.6027 6.93818 64.7568 7.15109 64.9325 7.12352Z" fill="#263238"/>
<path d="M67.8451 6.90353C67.7115 6.88581 67.5911 6.84716 67.4609 6.81591C67.3137 6.78071 67.1929 6.76766 67.0861 6.65173C67.0285 6.58946 67.0354 6.46541 67.0905 6.40388C67.219 6.26088 67.41 6.25915 67.5887 6.2946C67.7826 6.33275 67.9227 6.412 68.0487 6.56386C68.1705 6.71081 68.0214 6.92691 67.8451 6.90353Z" fill="#263238"/>
<path d="M65.3173 10.6451C65.3906 10.7125 65.4644 10.8063 65.5725 10.8122C65.6761 10.8179 65.796 10.7677 65.8898 10.728C65.8991 10.7241 65.909 10.734 65.9031 10.7428C65.8292 10.8592 65.669 10.9355 65.5304 10.9154C65.395 10.8959 65.3251 10.7815 65.2887 10.6594C65.284 10.6424 65.3067 10.6353 65.3173 10.6451Z" fill="#263238"/>
<path d="M65.5995 9.74639C65.7735 9.99941 66.0224 10.1333 66.2884 10.1769C66.4073 10.1971 66.5316 10.1976 66.653 10.1828C66.6768 10.1816 66.7007 10.1781 66.7224 10.1727C66.744 10.1695 66.7635 10.1663 66.7874 10.1609C66.8218 10.1547 66.84 10.1254 66.8449 10.0925V10.0902C66.8445 10.0794 66.844 10.0705 66.8413 10.06C66.8413 10.06 66.8413 10.06 66.8413 10.0577L66.84 10.0317C66.8395 9.80251 66.807 9.45497 66.807 9.45497C66.892 9.49435 67.3239 9.67353 67.3138 9.55416C67.2255 8.56594 67.1273 7.46696 66.8307 6.50212C66.8225 6.46987 66.7728 6.47873 66.7765 6.51122C66.8238 7.46425 67.0384 8.40275 67.1012 9.35947C66.9636 9.31172 66.7386 9.22262 66.619 9.22853C66.5868 9.23886 66.6938 9.89899 66.6857 10.0019C66.6857 10.0019 66.6859 10.0063 66.684 10.013C66.3008 10.0735 66.0076 9.96594 65.6266 9.71858C65.6039 9.70233 65.5811 9.72325 65.5995 9.74639Z" fill="#263238"/>
<path d="M66.5196 10.0703C66.5196 10.0703 66.3246 10.3502 66.0497 10.4572C65.9483 10.4969 65.8385 10.5148 65.7221 10.4873C65.4829 10.4319 65.4706 10.2143 65.5085 10.0265C65.5392 9.87218 65.6064 9.73804 65.6064 9.73804C65.6064 9.73804 65.9628 10.0523 66.5196 10.0703Z" fill="#263238"/>
<path d="M66.0497 10.4571C65.9483 10.4967 65.8385 10.5147 65.7221 10.4871C65.4829 10.4317 65.4706 10.2142 65.5085 10.0264C65.7639 10.0451 66.0209 10.2105 66.0497 10.4571Z" fill="#FF99BA"/>
<path d="M68.3933 5.20567C68.2805 4.83328 68.1112 4.74861 68.1112 4.74861C68.1112 4.74861 68.1319 4.31443 67.7637 3.74242C67.3782 3.14407 66.9369 3.04906 66.9369 3.04906C66.9369 3.04906 66.5805 2.61292 65.7377 2.4197C65.5443 2.3754 64.9533 2.34168 64.7675 2.40764C64.5536 2.48394 64.3343 2.36358 64.1157 2.35029C63.9137 2.33725 63.7091 2.36875 63.5174 2.43988C63.3591 2.49797 63.2075 2.58313 63.0714 2.69315C62.9924 2.75789 62.9225 2.83197 62.8509 2.90778C62.7322 3.03257 62.6222 3.07343 62.4664 3.11183C62.1329 3.19576 61.8501 3.42171 61.6702 3.75965C61.5656 3.95557 61.5146 4.16724 61.4959 4.3959C61.474 4.67231 61.1774 4.79045 61.0593 5.02477C60.8673 5.40332 60.9416 5.87073 61.2077 6.16879C60.8343 6.41369 60.6753 6.98817 60.8505 7.45286C60.9859 7.81296 61.2938 7.98303 61.6076 8.08321C61.6665 8.10192 61.7263 8.11348 61.7858 8.11939C62.4307 8.25378 63.1009 7.56584 62.8971 6.78437C62.8974 6.78215 62.8979 6.78043 62.8981 6.77822C62.8981 6.77822 63.3901 6.68321 63.8142 6.18307C64.0736 5.87712 64.1721 5.44639 64.1928 5.02329C64.9865 5.57044 66.1377 5.11042 66.326 4.06904C66.5473 4.33387 67.1966 4.79143 67.5082 4.70799C67.6024 5.65364 68.2045 6.02923 68.3689 6.03071C68.392 6.03096 68.5227 5.63345 68.3933 5.20567ZM62.4484 7.87104C62.6443 7.683 62.7987 7.41102 62.89 6.82498C62.9621 7.27639 62.7561 7.65543 62.4484 7.87104ZM65.1409 5.10673C65.6139 4.99548 66.0311 4.63268 66.249 4.09168C66.0745 4.72645 65.6442 5.03929 65.1409 5.10673Z" fill="#263238"/>
<path d="M62.22 8.20357C62.22 8.20357 61.4294 6.68272 60.7518 6.94682C60.0742 7.21092 60.5409 9.32594 61.2463 9.69981C61.9517 10.0737 62.3106 9.42734 62.3106 9.42734L62.22 8.20357Z" fill="#AD6359"/>
<path d="M60.9015 7.54981C60.8897 7.54735 60.8852 7.56359 60.8951 7.56901C61.3876 7.84812 61.5978 8.36648 61.7238 8.89197C61.5943 8.67907 61.3977 8.54591 61.1156 8.69605C61.1008 8.70393 61.1109 8.72682 61.1262 8.72559C61.3452 8.70787 61.4942 8.76521 61.6157 8.95474C61.7016 9.08913 61.7514 9.25083 61.806 9.40024C61.8242 9.44995 61.9113 9.43617 61.9008 9.3803C61.9 9.37611 61.899 9.37193 61.8981 9.36775C61.9982 8.70639 61.6049 7.71029 60.9015 7.54981Z" fill="#263238"/>
<path d="M60.9288 14.5132C61.8916 14.9189 62.1702 16.4321 61.7865 18.1863C61.3304 20.2718 58.7889 22.5214 57.5905 21.9711C55.9515 21.2184 57.3461 18.0563 58.1967 16.5057C59.0111 15.021 60.2507 14.2275 60.9288 14.5132Z" fill="#AD6359"/>
<path d="M59.3972 17.1949C60.2015 23.627 62.302 29.6553 64.1224 30.3095C66.7346 31.2483 72.0309 31.2126 75.4022 30.6416C76.3926 30.4737 74.9313 22.7914 73.8722 22.9696C72.5923 23.185 67.1823 24.0738 67.0531 24.0558C66.7765 24.0176 63.1554 17.7688 62.3015 16.1621C60.7359 13.2154 59.0646 14.5349 59.3972 17.1949Z" fill="#AD6359"/>
<path d="M83.7729 21.9483C84.176 22.6764 83.5824 23.3008 83.5824 23.3008C83.5824 23.3008 84.1726 23.6063 84.3739 24.2123C84.6048 24.9059 83.618 25.5719 83.618 25.5719C83.618 25.5719 84.1514 26.0048 84.2998 26.666C84.4539 27.3522 83.5543 28.1661 83.5543 28.1661C83.5543 28.1661 83.8295 28.8423 83.5479 29.5058C83.0662 30.6403 81.2072 30.9351 80.0272 31.1345C78.8473 31.3341 75.3138 30.7941 74.63 30.7596L73.2852 23.1977C73.2852 23.1977 78.322 20.7984 79.7427 20.761C80.9391 20.7295 83.3202 21.1309 83.7729 21.9483Z" fill="#AD6359"/>
<path d="M83.5087 23.1886C82.2283 22.9169 80.9371 23.0385 79.6417 23.0867C79.6129 23.0877 79.6149 23.133 79.6439 23.1315C80.9319 23.0688 82.2155 23.2622 83.5035 23.2507C83.5387 23.2502 83.5432 23.196 83.5087 23.1886Z" fill="#263238"/>
<path d="M83.5759 25.477C83.2845 25.4243 82.9763 25.4679 82.6837 25.4932C82.3686 25.5208 82.0543 25.5538 81.7403 25.5917C81.1116 25.6675 80.4847 25.7576 79.861 25.8661C79.8335 25.8708 79.834 25.9144 79.8633 25.9109C80.4899 25.8366 81.1176 25.7714 81.7467 25.7234C82.0615 25.6993 82.3768 25.6781 82.6918 25.6589C82.985 25.6409 83.2958 25.6466 83.5799 25.5634C83.6217 25.5513 83.62 25.4849 83.5759 25.477Z" fill="#263238"/>
<path d="M83.528 28.1686C83.2764 28.1125 82.9774 28.1905 82.7256 28.2262C82.4398 28.2668 82.1541 28.3057 81.8678 28.3429C81.2958 28.4175 80.7236 28.4918 80.1493 28.5464C80.1208 28.5491 80.1228 28.5939 80.1515 28.5912C80.7354 28.5388 81.3199 28.494 81.9033 28.4364C82.1898 28.4081 82.476 28.3781 82.7623 28.3466C83.0055 28.3197 83.3126 28.3141 83.5329 28.1972C83.5455 28.1905 83.5408 28.1713 83.528 28.1686Z" fill="#263238"/>
<path d="M59.5377 19.1123C59.5768 19.2012 59.6137 19.2908 59.6511 19.3801C59.5694 18.9243 59.5069 18.4682 59.4624 18.0077C59.4614 17.9976 59.4776 17.9956 59.4801 18.0055C59.6066 18.5169 59.7237 19.0277 59.8219 19.544C59.8685 19.7882 60.0053 20.6942 60.0393 20.9925C60.043 21.0248 59.9802 21.0622 59.9736 21.0302C59.9194 20.7681 59.7432 19.8862 59.6999 19.6578C59.6664 19.5945 59.6332 19.531 59.6056 19.4645C59.5608 19.3563 59.5175 19.2477 59.4806 19.1367C59.4067 18.9152 59.341 18.6912 59.2736 18.468C59.2726 18.4648 59.2775 18.4635 59.2785 18.4667C59.3548 18.6858 59.4439 18.8999 59.5377 19.1123Z" fill="#263238"/>
</svg>
