<svg width="108" height="72" viewBox="0 0 108 72" fill="none" xmlns="http://www.w3.org/2000/svg">
<g clip-path="url(#clip0_1827_5040)">
<path d="M108 0H0V72H108V0Z" fill="white"/>
<path d="M56.1683 37.4178C56.1683 37.4178 56.1683 38.3824 54.5155 38.5798C51.9694 39.9522 44.6857 43.5684 42.7039 44.1346C40.3479 44.8077 36.6458 41.1341 38.9175 37.4178C38.9175 37.4178 36.8157 35.2461 37.7413 33.3109C37.7413 33.3109 41.9398 30.7562 47.9682 29.5636C52.7842 28.6106 56.1683 37.4178 56.1683 37.4178Z" fill="#2C1C1D"/>
<path d="M60.2995 23.0826C60.2995 23.0826 49.7857 17.5678 48.0362 17.2661C46.2867 16.9644 34.7041 18.531 34.7041 18.531L36.2122 20.6425C36.2122 20.6425 41.0987 22.8765 45.9247 21.4287C45.9247 21.4287 52.259 25.1269 52.5003 25.6004C52.7417 26.0739 51.7765 29.2422 50.8716 29.2868C49.9667 29.3314 47.4933 28.9092 46.2867 30.9604C45.0802 33.0115 46.7689 37.3479 51.1727 37.8192C55.5765 38.2906 63.6347 35.7864 63.6347 35.7864C65.1268 35.038 66.4194 33.68 67.6412 32.1065L67.6211 30.2624L60.2995 23.0826Z" fill="#EF8C78"/>
<mask id="mask0_1827_5040" style="mask-type:luminance" maskUnits="userSpaceOnUse" x="34" y="17" width="34" height="21">
<path d="M60.2985 23.0826C60.2985 23.0826 49.7847 17.5678 48.0352 17.2661C46.2858 16.9644 34.7031 18.531 34.7031 18.531L36.2112 20.6425C36.2112 20.6425 41.0977 22.8765 45.9237 21.4287C45.9237 21.4287 52.258 25.1269 52.4994 25.6004C52.7407 26.0739 51.7755 29.2422 50.8706 29.2868C49.9657 29.3314 47.4923 28.9092 46.2858 30.9604C45.0792 33.0115 46.7679 37.3479 51.1717 37.8192C55.5755 38.2906 63.6337 35.7864 63.6337 35.7864C65.1259 35.038 66.4184 33.68 67.6402 32.1065L67.6201 30.2624L60.2985 23.0826Z" fill="white"/>
</mask>
<g mask="url(#mask0_1827_5040)">
<path d="M61.3369 25.0122L62.2276 30.4895L64.6779 28.14L61.3369 25.0122Z" fill="#DB6C5A"/>
</g>
<mask id="mask1_1827_5040" style="mask-type:luminance" maskUnits="userSpaceOnUse" x="34" y="17" width="34" height="21">
<path d="M60.2985 23.0826C60.2985 23.0826 49.7847 17.5678 48.0352 17.2661C46.2858 16.9644 34.7031 18.531 34.7031 18.531L36.2112 20.6425C36.2112 20.6425 41.0977 22.8765 45.9237 21.4287C45.9237 21.4287 52.258 25.1269 52.4994 25.6004C52.7407 26.0739 51.7755 29.2422 50.8706 29.2868C49.9657 29.3314 47.4923 28.9092 46.2858 30.9604C45.0792 33.0115 46.7679 37.3479 51.1717 37.8192C55.5755 38.2906 63.6337 35.7864 63.6337 35.7864C65.1259 35.038 66.4184 33.68 67.6402 32.1065L67.6201 30.2624L60.2985 23.0826Z" fill="white"/>
</mask>
<g mask="url(#mask1_1827_5040)">
<path d="M50.5966 24.2507L42.1729 27.8939L43.216 38.6179L57.037 39.5568C57.037 39.5568 65.3632 36.2183 63.4841 35.7363C61.6051 35.2543 61.7327 34.2109 59.8533 34.0285C58.8455 33.9306 56.6198 32.6724 55.531 31.4729C54.4422 30.2734 55.2745 26.2886 54.1793 25.7207L50.5966 24.2507Z" fill="#DB6C5A"/>
</g>
<mask id="mask2_1827_5040" style="mask-type:luminance" maskUnits="userSpaceOnUse" x="34" y="17" width="34" height="21">
<path d="M60.2985 23.0826C60.2985 23.0826 49.7847 17.5678 48.0352 17.2661C46.2858 16.9644 34.7031 18.531 34.7031 18.531L36.2112 20.6425C36.2112 20.6425 41.0977 22.8765 45.9237 21.4287C45.9237 21.4287 52.258 25.1269 52.4994 25.6004C52.7407 26.0739 51.7755 29.2422 50.8706 29.2868C49.9657 29.3314 47.4923 28.9092 46.2858 30.9604C45.0792 33.0115 46.7679 37.3479 51.1717 37.8192C55.5755 38.2906 63.6337 35.7864 63.6337 35.7864C65.1259 35.038 66.4184 33.68 67.6402 32.1065L67.6201 30.2624L60.2985 23.0826Z" fill="white"/>
</mask>
<g mask="url(#mask2_1827_5040)">
<path d="M45.9245 21.4288C44.1121 20.0255 40.6235 21.6842 37.3745 21.0784C34.1256 20.4726 41.4788 24.7117 41.4788 24.7117L45.6275 22.7538L45.9245 21.4288Z" fill="#DB6C5A"/>
</g>
<mask id="mask3_1827_5040" style="mask-type:luminance" maskUnits="userSpaceOnUse" x="34" y="17" width="34" height="21">
<path d="M60.2985 23.0826C60.2985 23.0826 49.7847 17.5678 48.0352 17.2661C46.2858 16.9644 34.7031 18.531 34.7031 18.531L36.2112 20.6425C36.2112 20.6425 41.0977 22.8765 45.9237 21.4287C45.9237 21.4287 52.258 25.1269 52.4994 25.6004C52.7407 26.0739 51.7755 29.2422 50.8706 29.2868C49.9657 29.3314 47.4923 28.9092 46.2858 30.9604C45.0792 33.0115 46.7679 37.3479 51.1717 37.8192C55.5755 38.2906 63.6337 35.7864 63.6337 35.7864C65.1259 35.038 66.4184 33.68 67.6402 32.1065L67.6201 30.2624L60.2985 23.0826Z" fill="white"/>
</mask>
<g mask="url(#mask3_1827_5040)">
<path d="M52.5088 26.1636C52.5088 26.1636 52.4882 29.1541 51.6505 29.957C50.8128 30.7598 48.1557 29.0844 45.6269 31.1439C43.0982 33.2034 44.5295 24.3582 44.5295 24.3582L52.5088 26.1636Z" fill="#EF8C78"/>
</g>
<path d="M62.4893 35.3544C62.4893 35.3544 64.564 36.5506 67.6996 36.4142C70.1773 36.3065 73.3522 35.1949 74.2358 35.8929C75.1194 36.5909 77.2392 37.8274 79.4471 37.6507C81.6552 37.474 89.2509 35.8843 89.2509 35.8843V33.3229C89.2509 33.3229 82.1851 31.0884 80.5952 31.2783C79.0055 31.4682 77.239 32.6163 75.8699 32.0864C74.5009 31.5565 69.965 29.4367 67.066 30.4082C67.0663 30.4084 66.215 36.0227 62.4893 35.3544Z" fill="#EF8C78"/>
<mask id="mask4_1827_5040" style="mask-type:luminance" maskUnits="userSpaceOnUse" x="62" y="30" width="28" height="8">
<path d="M62.4893 35.3544C62.4893 35.3544 64.564 36.5506 67.6996 36.4142C70.1773 36.3065 73.3522 35.1949 74.2358 35.8929C75.1194 36.5909 77.2392 37.8274 79.4471 37.6507C81.6552 37.474 89.2509 35.8843 89.2509 35.8843V33.3229C89.2509 33.3229 82.1851 31.0884 80.5952 31.2783C79.0055 31.4682 77.239 32.6163 75.8699 32.0864C74.5009 31.5565 69.965 29.4367 67.066 30.4082C67.0663 30.4084 66.215 36.0227 62.4893 35.3544Z" fill="white"/>
</mask>
<g mask="url(#mask4_1827_5040)">
<path d="M70.1322 29.2976C70.1322 29.2976 70.5146 31.8611 68.088 34.1575C67.3261 34.8785 73.6482 33.2792 74.6464 33.9124C75.6446 34.5456 79.8039 37.7525 84.5178 37.4246C89.2316 37.0967 87.1243 39.9804 87.1243 39.9804L63.666 40.2578L57.1221 39.6478L57.2438 31.8089L60.6158 26.8118L70.1322 29.2976Z" fill="#DB6C5A"/>
</g>
<path d="M88.4619 33.0797C88.4619 33.0797 90.1968 31.9471 91.0068 30.8879C91.3554 30.4321 92.2938 29.9763 93.4198 30.298C94.5459 30.6197 95.6988 29.6546 96.2081 29.7082C96.7174 29.7618 97.8167 30.4053 95.5646 31.7994C95.5646 31.7994 100.633 31.6555 100.913 31.6555C101.56 31.6555 102.026 32.2821 101.49 32.577C101.49 32.577 102.415 32.8987 101.872 33.5153C101.872 33.5153 102.267 34.1319 101.329 34.4805C101.329 34.4805 101.945 35.2312 100.122 35.8747C98.2993 36.5183 95.8059 37.5906 93.6343 37.4029C91.4626 37.2152 89.25 35.8844 89.25 35.8844L88.4619 33.0797Z" fill="#EF8C78"/>
<mask id="mask5_1827_5040" style="mask-type:luminance" maskUnits="userSpaceOnUse" x="88" y="29" width="15" height="9">
<path d="M88.4629 33.0797C88.4629 33.0797 90.1978 31.9471 91.0078 30.8879C91.3564 30.4321 92.2947 29.9763 93.4208 30.298C94.5469 30.6197 95.6997 29.6546 96.2091 29.7082C96.7184 29.7618 97.8177 30.4053 95.5655 31.7994C95.5655 31.7994 100.634 31.6555 100.914 31.6555C101.561 31.6555 102.027 32.2821 101.491 32.577C101.491 32.577 102.416 32.8987 101.873 33.5153C101.873 33.5153 102.268 34.1319 101.33 34.4805C101.33 34.4805 101.946 35.2312 100.123 35.8747C98.3002 36.5183 95.8069 37.5906 93.6352 37.4029C91.4636 37.2152 89.251 35.8844 89.251 35.8844L88.4629 33.0797Z" fill="white"/>
</mask>
<g mask="url(#mask5_1827_5040)">
<path opacity="0.5" d="M95.5655 31.7992C94.1395 32.3699 93.703 32.5444 93.703 32.5444C93.703 32.5444 95.6423 34.6291 93.8485 35.8606C92.0545 37.0921 89.251 35.8841 89.251 35.8841C90.9492 39.8389 95.0712 40.4398 100.394 39.3803L103.477 31.6426L102.459 30.1565L95.5655 31.7992Z" fill="#DB6C5A"/>
</g>
<path d="M36.0447 20.3069C36.0447 20.3069 35.6142 21.8439 35.6142 22.2766C35.6142 22.7095 36.4283 24.397 37.1145 24.6715C37.6915 24.9023 37.2588 25.6814 36.3643 25.566C35.4699 25.4507 34.7512 25.0466 34.317 23.8348C34.317 23.8348 33.2192 25.6815 33.1904 25.8546C33.1616 26.0277 33.6232 26.7779 33.6232 26.7779C33.6232 26.7779 35.0082 27.3549 35.0082 27.8166C35.0082 28.2783 32.4403 27.7878 32.1806 27.6723C31.921 27.557 30.6226 27.5858 30.5648 27.2106C30.5648 27.2106 29.6127 27.2972 29.2953 26.3739C28.9779 25.4505 28.6316 21.1226 28.7759 20.8051C28.9202 20.4877 32.8494 18.4595 35.2439 18.4595L36.0447 20.3069Z" fill="#EF8C78"/>
<mask id="mask6_1827_5040" style="mask-type:luminance" maskUnits="userSpaceOnUse" x="28" y="18" width="10" height="11">
<path d="M36.0467 20.3069C36.0467 20.3069 35.6161 21.8439 35.6161 22.2766C35.6161 22.7095 36.4303 24.397 37.1165 24.6715C37.6935 24.9023 37.2607 25.6814 36.3662 25.566C35.4718 25.4507 34.7531 25.0466 34.319 23.8348C34.319 23.8348 33.2211 25.6815 33.1923 25.8546C33.1635 26.0277 33.6252 26.7779 33.6252 26.7779C33.6252 26.7779 35.0102 27.3549 35.0102 27.8166C35.0102 28.2783 32.4422 27.7878 32.1826 27.6723C31.923 27.557 30.6245 27.5858 30.5668 27.2106C30.5668 27.2106 29.6146 27.2972 29.2973 26.3739C28.9799 25.4505 28.6336 21.1226 28.7778 20.8051C28.9221 20.4877 32.8513 18.4595 35.2459 18.4595L36.0467 20.3069Z" fill="white"/>
</mask>
<g mask="url(#mask6_1827_5040)">
<path d="M34.265 28.0078C33.1554 27.7208 32.4094 27.0959 32.2078 26.8136C32.0062 26.5314 31.9054 25.5638 31.9054 25.5638L32.2885 23.6689C32.2885 23.6689 31.4014 25.5235 31.3613 25.8461C31.3209 26.1686 31.4419 26.8943 31.4419 26.8943C31.4419 26.8943 30.6695 26.7639 30.5677 24.4012C30.5677 24.4012 29.721 28.3911 28.4988 24.4954C28.0095 22.9356 26.6846 24.1526 26.6846 24.1526L27.37 27.4789L35.7357 30.7242L34.265 28.0078Z" fill="#DB6C5A"/>
</g>
<path d="M38.9173 37.4177C38.9173 37.4177 33.4876 41.5505 30.3022 44.5028C30.3022 44.5028 27.8161 44.8913 26.806 46.0567C25.796 47.2221 19.2803 52.1102 17.8818 52.2656C16.4833 52.4209 15.8602 52.0828 14.6948 52.549C13.5294 53.0151 12.9079 54.8797 10.8076 54.802C9.70978 54.7618 8.42343 55.0703 8.20801 56.3477C9.881 56.946 12.0292 56.5546 13.7624 56.4336C17.1032 56.2005 17.6067 54.8479 18.9678 54.4914C22.4459 53.5801 32.3024 50.9553 33.2346 50.0231C34.167 49.0907 41.7002 45.3681 44.9404 43.2093C48.1805 41.0504 38.9173 37.4177 38.9173 37.4177Z" fill="#DB6C5A"/>
<path d="M37.7418 33.3108C37.7418 33.3108 31.0923 35.8481 30.2338 36.3103C30.3278 33.9558 28.5395 32.1674 27.6811 30.0216C27.4016 29.3226 28.4578 27.7657 27.7313 26.3127C27.0048 24.8597 25.8881 26.3844 24.3692 25.1955C22.8502 24.0068 21.2006 22.2574 20.0049 22.6567C19.482 22.919 20.6393 23.4488 21.6724 25.5151C23.0051 28.1805 23.5729 27.9192 24.9163 30.3258C26.0324 32.3254 24.6597 44.0555 30.9998 43.9896C37.3399 43.9235 42.4002 39.0565 42.4002 39.0565C42.4128 36.6067 40.9877 33.969 37.7418 33.3108Z" fill="#EF8C78"/>
<mask id="mask7_1827_5040" style="mask-type:luminance" maskUnits="userSpaceOnUse" x="19" y="22" width="24" height="22">
<path d="M37.7418 33.3108C37.7418 33.3108 31.0923 35.8481 30.2338 36.3103C30.3278 33.9558 28.5395 32.1674 27.6811 30.0216C27.4016 29.3226 28.4578 27.7657 27.7313 26.3127C27.0048 24.8597 25.8881 26.3844 24.3692 25.1955C22.8502 24.0068 21.2006 22.2574 20.0049 22.6567C19.482 22.919 20.6393 23.4488 21.6724 25.5151C23.0051 28.1805 23.5729 27.9192 24.9163 30.3258C26.0324 32.3254 24.6597 44.0555 30.9998 43.9896C37.3399 43.9235 42.4002 39.0565 42.4002 39.0565C42.4128 36.6067 40.9877 33.969 37.7418 33.3108Z" fill="white"/>
</mask>
<g mask="url(#mask7_1827_5040)">
<path d="M30.2342 36.3102C27.7305 37.7859 26.4436 42.0276 27.0632 43.2668C27.6829 44.5059 17.1022 41.0268 17.1022 41.0268L17.0068 21.0571L36.8811 22.6154L30.2342 36.3102Z" fill="#DB6C5A"/>
</g>
<path d="M56.2031 31.0987C56.1422 31.1879 56.3258 31.4192 56.6132 31.6152C56.9006 31.8112 57.1828 31.8977 57.2438 31.8084C57.3047 31.7191 57.1211 31.4879 56.8337 31.2919C56.5462 31.0959 56.264 31.0094 56.2031 31.0987Z" fill="#DB6C5A"/>
<path d="M62.3769 34.1939C62.316 34.2831 62.4996 34.5144 62.787 34.7104C63.0744 34.9064 63.3567 34.9929 63.4176 34.9036C63.4785 34.8144 63.2949 34.5831 63.0075 34.3871C62.7201 34.1911 62.4378 34.1046 62.3769 34.1939Z" fill="#DB6C5A"/>
<path d="M101.491 32.5768C101.491 32.5768 98.7339 32.3045 97.0176 32.7059C97.0176 32.7059 100.08 32.8045 101.491 32.5768Z" fill="#DB6C5A"/>
<path d="M101.887 33.5351C101.887 33.5351 98.8855 33.2628 97.0176 33.6641C97.0176 33.6641 100.351 33.7627 101.887 33.5351Z" fill="#DB6C5A"/>
<path d="M101.332 34.4936C101.332 34.4936 98.331 34.2213 96.4629 34.6226C96.4629 34.6226 99.7965 34.7212 101.332 34.4936Z" fill="#DB6C5A"/>
<path d="M97.0171 32.2451C97.0171 32.2451 98.1791 33.8709 96.2529 36.009L97.0171 32.2451Z" fill="#DB6C5A"/>
<path d="M52.5721 20.3041C51.4083 20.6866 52.9138 21.5748 55.4719 22.812C60.3356 25.1645 60.0756 23.2538 58.4546 22.4294C57.283 21.8335 53.9762 19.8426 52.5721 20.3041Z" fill="#FFAC9C"/>
<path d="M47.7702 17.6239C48.121 17.0627 37.9428 18.1461 37.7576 18.66C37.5723 19.1741 46.9667 18.9093 47.7702 17.6239Z" fill="#FFAC9C"/>
<path d="M48.932 18.7501C49.2768 18.7501 49.5564 18.624 49.5564 18.4684C49.5564 18.3129 49.2768 18.1868 48.932 18.1868C48.5872 18.1868 48.3076 18.3129 48.3076 18.4684C48.3076 18.624 48.5872 18.7501 48.932 18.7501Z" fill="#FFAC9C"/>
<path d="M73.3551 17.7814C75.639 18.3079 74.2034 22.4691 73.9354 22.8708C73.6676 23.2726 72.73 23.4065 72.6407 23.7191C72.5515 24.0316 72.9918 24.9804 72.961 25.9046C72.9246 27 71.2568 26.9781 71.2568 26.9781L70.069 28.4455L69.5151 29.4057C69.5151 29.4057 68.6227 31.2194 68.3102 31.264C67.9977 31.3086 66.6138 31.264 65.5423 30.9069C64.4708 30.5498 61.3255 25.2007 60.7452 24.1739C60.1649 23.147 64.6663 15.7784 73.3551 17.7814Z" fill="#EF8C78"/>
<mask id="mask8_1827_5040" style="mask-type:luminance" maskUnits="userSpaceOnUse" x="60" y="17" width="15" height="15">
<path d="M73.3532 17.7814C75.637 18.3079 74.2015 22.4691 73.9335 22.8708C73.6656 23.2726 72.7281 23.4065 72.6388 23.7191C72.5495 24.0316 72.9899 24.9804 72.959 25.9046C72.9226 27 71.2548 26.9781 71.2548 26.9781L70.0671 28.4455L69.5131 29.4057C69.5131 29.4057 68.6208 31.2194 68.3083 31.264C67.9958 31.3086 66.6118 31.264 65.5403 30.9069C64.4688 30.5498 61.3236 25.2007 60.7432 24.1739C60.1629 23.147 64.6643 15.7784 73.3532 17.7814Z" fill="white"/>
</mask>
<g mask="url(#mask8_1827_5040)">
<path d="M69.1527 30.0965C68.7066 30.9884 66.5775 31.0757 65.5692 30.4964C65.0468 30.1963 62.5713 27.1943 62.5713 27.1943L64.5536 31.9977L70.6766 32.3644L70.2907 30.2064L69.1527 30.0965Z" fill="#DB6C5A"/>
</g>
<mask id="mask9_1827_5040" style="mask-type:luminance" maskUnits="userSpaceOnUse" x="60" y="17" width="15" height="15">
<path d="M73.3532 17.7814C75.637 18.3079 74.2015 22.4691 73.9335 22.8708C73.6656 23.2726 72.7281 23.4065 72.6388 23.7191C72.5495 24.0316 72.9899 24.9804 72.959 25.9046C72.9226 27 71.2548 26.9781 71.2548 26.9781L70.0671 28.4455L69.5131 29.4057C69.5131 29.4057 68.6208 31.2194 68.3083 31.264C67.9958 31.3086 66.6118 31.264 65.5403 30.9069C64.4688 30.5498 61.3236 25.2007 60.7432 24.1739C60.1629 23.147 64.6643 15.7784 73.3532 17.7814Z" fill="white"/>
</mask>
<g mask="url(#mask9_1827_5040)">
<path d="M72.8474 19.2124C72.8474 19.2124 73.098 22.6805 72.4968 22.6713C71.8957 22.6621 72.5833 24.954 72.5833 24.954L73.8427 25.7045L72.5561 28.2272L71.6046 26.9549C71.6046 26.9549 71.1391 27.1861 70.1548 26.5711C69.8099 26.3557 69.8861 31.2785 69.8861 31.2785L75.4275 30.0965L76.3481 20.0698L72.8474 19.2124Z" fill="#DB6C5A"/>
</g>
<path d="M69.1699 23.7651C69.1699 23.7651 70.6249 22.9129 71.2579 24.3015" stroke="#2C1C1D" stroke-width="0.505066" stroke-miterlimit="10" stroke-linecap="round"/>
<path d="M66.3682 16.9297C66.3682 16.9297 65.5178 21.0335 64.3338 21.38C63.1498 21.7265 62.9033 18.3284 62.9033 18.3284L66.3682 16.9297Z" fill="#2C1C1D"/>
<path d="M74.5654 20.6859C75.298 15.7648 70.0929 11.7599 65.0069 12.9043C59.9208 14.0486 57.5356 19.1121 60.7455 24.174C65.3977 15.1746 74.5654 20.6859 74.5654 20.6859Z" fill="#3C5EBF"/>
<mask id="mask10_1827_5040" style="mask-type:luminance" maskUnits="userSpaceOnUse" x="59" y="12" width="16" height="13">
<path d="M74.5654 20.6859C75.298 15.7648 70.0929 11.7599 65.0069 12.9043C59.9208 14.0486 57.5356 19.1121 60.7455 24.174C65.3977 15.1746 74.5654 20.6859 74.5654 20.6859Z" fill="white"/>
</mask>
<g mask="url(#mask10_1827_5040)">
<path d="M73.3645 22.6412C73.3645 22.6412 70.8258 19.6129 69.2035 17.9054C67.9075 16.5411 68.5374 15.5992 71.6332 17.6525C71.8524 15.2069 67.6572 11.6049 67.6572 11.6049L76.4627 8.36377L83.2084 15.2753L75.8887 20.1594L73.3645 22.6412Z" fill="#1D4293"/>
</g>
<path d="M71.2582 26.9782C70.8167 27.0738 70.3477 26.8808 69.9873 26.6426C69.6256 26.4145 69.3403 26.1424 68.8828 26.276C69.2317 25.8874 69.81 26.1464 70.1504 26.3875C70.5132 26.6294 70.8405 26.8291 71.2582 26.9782Z" fill="#DB6C5A"/>
<path d="M69.9518 25.3476C69.2998 25.0868 68.5752 24.9885 68.2746 25.7587C68.2183 25.9498 68.2883 26.1848 68.434 26.3912C68.3177 26.3367 68.2189 26.2455 68.1435 26.1314C67.9323 25.8247 68.0707 25.4013 68.3223 25.1606C68.773 24.6754 69.5719 24.8882 69.9518 25.3476Z" fill="#DB6C5A"/>
<path d="M66.7031 27.286C66.7031 27.286 69.5441 27.0033 69.6823 27.0697C69.8206 27.1361 69.8736 27.5077 70.1391 27.4943C70.4046 27.4811 70.8701 27.3342 70.8701 27.3342C70.8701 27.3342 71.0814 27.8395 70.9222 28.0916C70.7629 28.3438 69.8878 28.2271 69.8878 28.2271L66.7031 27.286Z" fill="#DB6C5A"/>
<path d="M67.6787 28.4618C67.6787 28.4618 68.1464 29.2895 68.4948 29.3456C68.8431 29.4018 69.7726 29.6696 70.3043 29.1908C71.302 28.292 69.888 28.2271 69.888 28.2271C69.888 28.2271 70.0356 29.0931 69.1939 29.0369C68.3521 28.9809 67.6787 28.4618 67.6787 28.4618Z" fill="#EF8C78"/>
<path d="M69.8878 28.227C69.8878 28.227 69.4843 27.7267 69.2907 27.6524C69.097 27.5781 68.1523 27.7019 68.1523 27.7019C68.5011 28.263 69.0796 28.4379 69.8878 28.227Z" fill="#2C1C1D"/>
<path d="M66.6385 27.2713C66.6241 27.3219 66.8065 27.4179 67.0459 27.4858C67.2852 27.5536 67.4908 27.5675 67.5052 27.517C67.5195 27.4665 67.3372 27.3704 67.0979 27.3026C66.8585 27.2348 66.6529 27.2208 66.6385 27.2713Z" fill="#2C1C1D"/>
<path d="M67.6785 28.6589C67.6785 28.6589 68.213 29.5478 69.02 29.4394C69.02 29.4394 68.2585 29.8112 67.9064 29.6672C67.5543 29.5231 67.6785 28.6589 67.6785 28.6589Z" fill="#DB6C5A"/>
<path d="M59.9841 20.6004C59.9841 20.6004 59.3546 13.3505 67.0717 13.259C67.0717 13.259 61.8117 14.0206 59.9841 20.6004Z" fill="#4DA1F4"/>
<path d="M59.5996 17.0706C59.5996 17.0706 61.445 21.3213 68.8425 22.9725" stroke="#2C1C1D" stroke-width="0.505066" stroke-miterlimit="10" stroke-linecap="round"/>
<path d="M65.4767 21.5196C65.1142 22.4078 65.8336 23.5411 67.0833 24.051C68.3329 24.5609 69.6397 24.2542 70.0021 23.366C70.3645 22.4778 69.6452 21.3445 68.3955 20.8346C67.1459 20.3247 65.8391 20.6314 65.4767 21.5196Z" fill="#2C1C1D"/>
<mask id="mask11_1827_5040" style="mask-type:luminance" maskUnits="userSpaceOnUse" x="65" y="20" width="5" height="6">
<path d="M66.0781 20.8152C65.2117 21.2269 64.9791 22.5489 65.5584 23.7679C66.1376 24.9869 67.3096 25.6413 68.176 25.2296C69.0423 24.8178 69.275 23.4959 68.6958 22.2769C68.1165 21.0579 66.9446 20.4035 66.0781 20.8152Z" fill="white"/>
</mask>
<g mask="url(#mask11_1827_5040)">
<path d="M68.8651 20.5402L67.8789 19.6401L64.4999 23.3425L65.486 24.2425L68.8651 20.5402Z" fill="#5B4145"/>
</g>
<mask id="mask12_1827_5040" style="mask-type:luminance" maskUnits="userSpaceOnUse" x="66" y="20" width="5" height="5">
<path d="M67.2754 20.2205C66.409 20.6322 66.1764 21.9542 66.7556 23.1732C67.3349 24.3922 68.5068 25.0465 69.3733 24.6349C70.2396 24.2231 70.4723 22.9012 69.893 21.6822C69.3138 20.4632 68.1418 19.8088 67.2754 20.2205Z" fill="white"/>
</mask>
<g mask="url(#mask12_1827_5040)">
<path d="M69.957 21.5377L69.5195 21.1384L66.1405 24.8408L66.578 25.24L69.957 21.5377Z" fill="#5B4145"/>
</g>
<path d="M72.4974 22.6714C71.6331 22.5163 70.8263 22.9826 70.6954 23.7126C70.6949 23.7152 70.6945 23.7178 70.6939 23.7204C70.6213 24.1418 70.906 24.5452 71.3223 24.6427C71.9626 24.7926 72.8355 24.8612 72.9225 25.295C73.4315 25.1505 73.7374 24.7637 73.8252 24.2741C73.9562 23.5439 73.3617 22.8263 72.4974 22.6714Z" fill="#2C1C1D"/>
<mask id="mask13_1827_5040" style="mask-type:luminance" maskUnits="userSpaceOnUse" x="70" y="22" width="4" height="4">
<path d="M72.6934 23.4724C72.1595 22.7752 71.2493 22.5757 70.6605 23.0267C70.6584 23.0283 70.6563 23.03 70.6542 23.0315C70.3165 23.2938 70.2548 23.7837 70.4966 24.1363C70.8684 24.6786 71.4669 25.3177 71.2387 25.6968C71.7121 25.9331 72.1988 25.8536 72.5937 25.5512C73.1827 25.1002 73.2273 24.1694 72.6934 23.4724Z" fill="white"/>
</mask>
<g mask="url(#mask13_1827_5040)">
<path d="M73.741 21.9183L72.7549 21.0183L69.3759 24.7206L70.362 25.6207L73.741 21.9183Z" fill="#5B4145"/>
</g>
<mask id="mask14_1827_5040" style="mask-type:luminance" maskUnits="userSpaceOnUse" x="71" y="22" width="4" height="4">
<path d="M73.8281 22.8808C73.2943 22.1837 72.3841 21.9842 71.7952 22.4352C71.7932 22.4368 71.7911 22.4384 71.7889 22.4399C71.4513 22.7022 71.3896 23.1921 71.6314 23.5448C72.0032 24.0871 72.6017 24.7261 72.3735 25.1052C72.8469 25.3416 73.3336 25.2621 73.7285 24.9597C74.3175 24.5087 74.362 23.5779 73.8281 22.8808Z" fill="white"/>
</mask>
<g mask="url(#mask14_1827_5040)">
<path d="M74.7959 22.8392L74.3584 22.4399L70.9794 26.1423L71.4168 26.5415L74.7959 22.8392Z" fill="#5B4145"/>
</g>
<path d="M70.7275 25.2325C70.7275 25.4418 71.1283 25.351 71.6226 25.351C72.117 25.351 72.5177 25.4418 72.5177 25.2325C72.5177 25.0233 72.117 24.8535 71.6226 24.8535C71.1283 24.8535 70.7275 25.0231 70.7275 25.2325Z" fill="#FFAC9C"/>
<path opacity="0.59" d="M64.4788 23.8666C64.1775 24.2947 64.8106 24.4627 65.4303 24.8988C66.0501 25.335 66.4218 25.8743 66.7232 25.4462C67.0244 25.0181 66.7664 24.3174 66.1466 23.8812C65.5268 23.4451 64.7802 23.4385 64.4788 23.8666Z" fill="#FFAC9C"/>
<path d="M78.074 32.5404C77.7253 32.2452 80.2413 31.5715 81.0177 31.7086C81.7942 31.8457 86.7727 32.8047 86.7271 33.0788C86.6814 33.3528 82.1015 32.7107 81.2496 32.5713C80.8313 32.5029 78.4226 32.8357 78.074 32.5404Z" fill="#FFAC9C"/>
<path opacity="0.28" d="M105.035 47.3422C106.956 41.0155 103.076 34.3745 96.6257 32.9214C87.5836 30.8844 74.2014 30.1032 65.2597 33.0746C54.9479 36.5016 36.3221 36.2465 18.4481 32.4222C9.45627 30.4983 1.27203 38.0861 2.61612 47.1826C3.56321 53.5923 6.40433 59.8228 13.3152 62.526C27.4761 68.0651 40.2279 50.0687 55.4594 59.1833C68.0523 66.7189 90.1648 63.1125 97.6326 57.6937C101.802 54.6687 103.961 50.8805 105.035 47.3422Z" fill="#4DA1F4"/>
<mask id="mask15_1827_5040" style="mask-type:luminance" maskUnits="userSpaceOnUse" x="2" y="31" width="104" height="33">
<path d="M105.034 47.3422C106.955 41.0155 103.075 34.3745 96.6247 32.9214C87.5826 30.8844 74.2004 30.1032 65.2587 33.0746C54.9469 36.5016 36.3211 36.2465 18.4471 32.4222C9.45529 30.4983 1.27105 38.0861 2.61515 47.1826C3.56223 53.5923 6.40335 59.8228 13.3142 62.526C27.4752 68.0651 40.2269 50.0687 55.4584 59.1833C68.0513 66.7189 90.1638 63.1125 97.6317 57.6937C101.801 54.6687 103.96 50.8805 105.034 47.3422Z" fill="white"/>
</mask>
<g mask="url(#mask15_1827_5040)">
<path opacity="0.28" d="M108.632 37.457C108.632 37.457 89.7135 66.3478 67.9037 54.3487C48.2906 43.5582 16.5996 36.8928 -4.86615 61.4461C-26.3319 85.9994 50.9066 91.94 50.9066 91.94L122.202 83.4125L108.632 37.457Z" fill="#4DA1F4"/>
</g>
<path opacity="0.28" d="M102.995 39.9326C102.995 39.9326 92.0964 54.8654 80.7769 52.295C69.4573 49.7246 67.134 42.7478 55.1377 44.5838C55.1377 44.5838 62.1354 37.101 71.2334 44.951C86.8381 58.415 102.995 39.9326 102.995 39.9326Z" fill="#4DA1F4"/>
<path opacity="0.28" d="M21.157 29.4676C21.157 29.4676 18.9051 27.1416 17.7867 25.3068C16.6684 23.4719 15.474 25.2637 16.4463 26.3496C18.1811 28.2873 21.157 29.4676 21.157 29.4676Z" fill="#4DA1F4"/>
<path opacity="0.28" d="M87.991 26.5746C87.991 26.5746 85.0455 25.2309 82.9422 24.791C80.8389 24.3511 82.1277 22.6261 83.4763 23.1789C85.8828 24.1652 87.991 26.5746 87.991 26.5746Z" fill="#4DA1F4"/>
<path opacity="0.28" d="M82.6714 27.3444C82.6714 27.3444 80.7419 27.111 79.4586 27.2416C78.1752 27.3722 78.599 26.1511 79.4711 26.2222C81.0273 26.3492 82.6714 27.3444 82.6714 27.3444Z" fill="#4DA1F4"/>
<path opacity="0.28" d="M76.8821 20.1723C77.0122 20.1723 77.1176 20.0669 77.1176 19.9368C77.1176 19.8066 77.0122 19.7012 76.8821 19.7012C76.752 19.7012 76.6465 19.8066 76.6465 19.9368C76.6465 20.0669 76.752 20.1723 76.8821 20.1723Z" fill="#4DA1F4"/>
<path opacity="0.28" d="M80.2812 19.2233C80.2812 19.4871 80.4951 19.7009 80.7589 19.7009C81.0227 19.7009 81.2366 19.4871 81.2366 19.2233C81.2366 18.9594 81.0227 18.7456 80.7589 18.7456C80.4951 18.7456 80.2812 18.9594 80.2812 19.2233Z" fill="#4DA1F4"/>
<path opacity="0.28" d="M50.7891 11.5098C50.7891 10.9532 50.338 10.502 49.7813 10.502C49.2247 10.502 48.7734 10.9531 48.7734 11.5098C48.7734 12.0664 49.2246 12.5177 49.7813 12.5177C50.338 12.5175 50.7891 12.0664 50.7891 11.5098Z" fill="#4DA1F4"/>
<path opacity="0.28" d="M41.2528 25.435C41.2528 25.1567 41.0272 24.9312 40.749 24.9312C40.4706 24.9312 40.2451 25.1568 40.2451 25.435C40.2451 25.7134 40.4708 25.9389 40.749 25.9389C41.0272 25.9389 41.2528 25.7132 41.2528 25.435Z" fill="#4DA1F4"/>
<path opacity="0.28" d="M78.4586 16.6098C79.8674 15.3335 83.8828 17.4705 87.4274 21.3828C89.3067 23.4571 90.6761 25.6138 91.3384 27.3729C91.2661 25.4661 89.631 22.3813 86.9841 19.4598C83.4394 15.5475 79.424 13.4105 78.0154 14.6868C77.3536 15.2864 77.3851 16.5329 77.9719 18.0915C77.9473 17.4447 78.1019 16.9331 78.4586 16.6098Z" fill="#4DA1F4"/>
<path opacity="0.28" d="M12.8976 21.8322C11.4299 23.0404 12.9602 27.3239 16.3153 31.3999C18.0941 33.5609 20.0287 35.2294 21.6728 36.1405C19.7968 35.7917 16.9826 33.7252 14.4771 30.6816C11.1219 26.6057 9.59177 22.3221 11.0594 21.1139C11.7489 20.5464 12.9775 20.7588 14.4343 21.5661C13.798 21.4477 13.2692 21.5262 12.8976 21.8322Z" fill="#4DA1F4"/>
</g>
<defs>
<clipPath id="clip0_1827_5040">
<rect width="108" height="72" fill="white"/>
</clipPath>
</defs>
</svg>
