<svg width="108" height="108" viewBox="0 0 108 108" fill="none" xmlns="http://www.w3.org/2000/svg">
<path d="M18.9858 25.5516C18.9858 22.6064 16.8379 19.7258 14.1882 19.7258C11.5385 19.7258 9.39062 22.6064 9.39062 25.5516C9.39062 27.6781 10.5106 29.2566 12.1304 29.9701L12.128 29.9703C12.128 29.9703 13.4856 30.539 13.3572 32.3186C13.2622 33.6345 13.1071 34.9603 13.0328 35.5619C13.0108 35.7396 13.1495 35.896 13.3285 35.896H14.0726H14.2193H14.9634C15.1425 35.896 15.2812 35.7396 15.2591 35.5619C15.1848 34.9601 15.0295 33.6343 14.9347 32.3186C14.8386 30.9861 15.5756 30.3325 15.9518 30.0882C17.7289 29.4424 18.9858 27.8044 18.9858 25.5516Z" stroke="#263238" stroke-width="0.216" stroke-miterlimit="10"/>
<path d="M11.6016 29.6948C11.7709 29.797 11.9472 29.8892 12.1301 29.9698L12.1277 29.97C12.1277 29.97 13.4853 30.5387 13.357 32.3184C13.262 33.6342 13.1069 34.96 13.0326 35.5616C13.0105 35.7394 13.1492 35.8958 13.3283 35.8958H14.0724H14.2191H14.9632C15.1422 35.8958 15.2809 35.7394 15.2589 35.5616C15.1846 34.9598 15.0293 33.634 14.9344 32.3184C14.8383 30.9859 15.5753 30.3322 15.9516 30.0879C16.2408 29.9828 16.516 29.851 16.7745 29.6948H11.6016Z" stroke="#263238" stroke-width="0.216" stroke-miterlimit="10"/>
<path d="M10.3669 34.2446C10.9444 34.2446 11.4126 33.7765 11.4126 33.199C11.4126 32.6215 10.9444 32.1533 10.3669 32.1533C9.78945 32.1533 9.32129 32.6215 9.32129 33.199C9.32129 33.7765 9.78945 34.2446 10.3669 34.2446Z" stroke="#263238" stroke-width="0.216" stroke-miterlimit="10"/>
<path d="M48.6154 10.667C47.4012 13.3502 48.1706 16.8602 50.5846 17.9525C52.9986 19.0448 56.1432 17.306 57.3573 14.6226C58.2341 12.6853 57.8645 10.7854 56.6827 9.46781L56.6849 9.46867C56.6849 9.46867 55.6824 8.39083 56.5331 6.82246C57.162 5.66275 57.85 4.51882 58.1658 4.00128C58.2591 3.84835 58.1973 3.64877 58.034 3.5749L57.356 3.26818L57.2223 3.2077L56.5443 2.90098C56.3812 2.82711 56.1903 2.91243 56.1371 3.0835C55.9568 3.66238 55.5516 4.93419 55.0956 6.17208C54.6338 7.42575 53.6929 7.71735 53.2494 7.78474C51.3644 7.64045 49.5442 8.61461 48.6154 10.667Z" stroke="#263238" stroke-width="0.216" stroke-miterlimit="10"/>
<path d="M57.0502 9.93631C56.9381 9.77345 56.8155 9.61663 56.6822 9.46781L56.6843 9.46867C56.6843 9.46867 55.6819 8.39083 56.5325 6.82246C57.1615 5.66275 57.8495 4.51882 58.1652 4.00128C58.2586 3.84835 58.1968 3.64877 58.0335 3.5749L57.3555 3.26818L57.2218 3.2077L56.5437 2.90098C56.3806 2.82711 56.1897 2.91243 56.1366 3.0835C55.9562 3.66238 55.551 4.93419 55.095 6.17208C54.6332 7.42575 53.6923 7.71735 53.2489 7.78474C52.9419 7.76119 52.6369 7.76789 52.3369 7.80353L57.0502 9.93631Z" stroke="#263238" stroke-width="0.216" stroke-miterlimit="10"/>
<path d="M65.9065 92.3653C63.3972 90.8233 59.8183 91.1453 58.4311 93.4027C57.044 95.6602 58.3735 98.9984 60.8827 100.54C62.6946 101.654 64.6256 101.526 66.0817 100.52L66.0806 100.522C66.0806 100.522 67.2759 99.6626 68.7248 100.704C69.7962 101.474 70.8447 102.3 71.3184 102.678C71.4583 102.79 71.6642 102.754 71.7579 102.601L72.1476 101.967L72.2245 101.842L72.6141 101.208C72.7079 101.055 72.6472 100.855 72.4843 100.781C71.9327 100.529 70.722 99.9674 69.5513 99.3596C68.3656 98.7438 68.1946 97.7737 68.1835 97.3253C68.5635 95.4731 67.8259 93.5449 65.9065 92.3653Z" stroke="#263238" stroke-width="0.216" stroke-miterlimit="10"/>
<path d="M65.5703 100.826C65.7461 100.735 65.9168 100.633 66.0814 100.519L66.0803 100.522C66.0803 100.522 67.2756 99.6625 68.7246 100.704C69.7959 101.473 70.8444 102.3 71.3181 102.678C71.458 102.79 71.6639 102.754 71.7576 102.601L72.1473 101.967L72.2242 101.842L72.6139 101.208C72.7076 101.055 72.6469 100.855 72.484 100.781C71.9324 100.529 70.7217 99.9673 69.551 99.3595C68.3653 98.7437 68.1943 97.7736 68.1833 97.3252C68.2453 97.0237 68.2768 96.7202 68.2792 96.4182L65.5703 100.826Z" stroke="#263238" stroke-width="0.216" stroke-miterlimit="10"/>
<path d="M98.2691 81.8447C100.863 80.4506 102.384 77.1949 101.13 74.861C99.8755 72.5269 96.3214 71.9983 93.7271 73.3926C91.8539 74.3992 90.9936 76.1328 91.132 77.8975L91.1308 77.8956C91.1308 77.8956 91.2724 79.3607 89.644 80.0899C88.44 80.629 87.1987 81.12 86.6334 81.3393C86.4664 81.4041 86.3943 81.6002 86.479 81.7581L86.8313 82.4136L86.9008 82.543L87.2531 83.1986C87.3378 83.3563 87.5413 83.4044 87.6875 83.301C88.1824 82.9506 89.2768 82.1864 90.391 81.4799C91.5193 80.7645 92.4438 81.1042 92.8372 81.32C94.247 82.5793 96.2847 82.9111 98.2691 81.8447Z" stroke="#263238" stroke-width="0.216" stroke-miterlimit="10"/>
<path d="M91.1241 77.3015C91.1141 77.4992 91.1163 77.6979 91.132 77.8972L91.1307 77.8953C91.1307 77.8953 91.2724 79.3604 89.644 80.0896C88.44 80.6288 87.1987 81.1197 86.6334 81.339C86.4664 81.4038 86.3943 81.5999 86.479 81.7578L86.8313 82.4134L86.9008 82.5428L87.2531 83.1983C87.3378 83.356 87.5413 83.4042 87.6875 83.3007C88.1824 82.9503 89.2768 82.1861 90.391 81.4796C91.5193 80.7642 92.4438 81.104 92.8371 81.3198C93.0668 81.5247 93.3132 81.7049 93.5731 81.8587L91.1241 77.3015Z" stroke="#263238" stroke-width="0.216" stroke-miterlimit="10"/>
<path d="M85.7895 91.0061C85.7895 90.4285 85.3213 89.9604 84.7439 89.9604C84.1665 89.9604 83.6982 90.4285 83.6982 91.0061C83.6982 91.5837 84.1663 92.0518 84.7439 92.0518C85.3215 92.0518 85.7895 91.5837 85.7895 91.0061Z" stroke="#263238" stroke-width="0.216" stroke-miterlimit="10"/>
<path d="M101.667 40.1287C102.244 40.1287 102.712 39.6605 102.712 39.083C102.712 38.5055 102.244 38.0374 101.667 38.0374C101.089 38.0374 100.621 38.5055 100.621 39.083C100.621 39.6605 101.089 40.1287 101.667 40.1287Z" stroke="#263238" stroke-width="0.216" stroke-miterlimit="10"/>
<path d="M71.0056 12.3281C71.5831 12.3281 72.0513 11.86 72.0513 11.2825C72.0513 10.705 71.5831 10.2368 71.0056 10.2368C70.4281 10.2368 69.96 10.705 69.96 11.2825C69.96 11.86 70.4281 12.3281 71.0056 12.3281Z" stroke="#263238" stroke-width="0.216" stroke-miterlimit="10"/>
<path d="M24.6355 13.4822C25.213 13.4822 25.6812 13.014 25.6812 12.4365C25.6812 11.859 25.213 11.3909 24.6355 11.3909C24.058 11.3909 23.5898 11.859 23.5898 12.4365C23.5898 13.014 24.058 13.4822 24.6355 13.4822Z" stroke="#263238" stroke-width="0.216" stroke-miterlimit="10"/>
<path d="M9.16651 88.2056C9.16651 87.628 8.69822 87.1599 8.12085 87.1599C7.54327 87.1599 7.0752 87.6282 7.0752 88.2056C7.0752 88.7829 7.54348 89.2512 8.12085 89.2512C8.69844 89.2512 9.16651 88.7832 9.16651 88.2056Z" stroke="#263238" stroke-width="0.216" stroke-miterlimit="10"/>
<path d="M86.388 5.31284C86.388 5.31284 87.457 3.48051 89.2384 3.68399C91.0199 3.88767 91.5798 5.16013 92.0887 6.48335C92.5976 7.80678 91.7833 8.9775 91.5288 9.69008C91.2744 10.4027 91.3252 10.6571 91.7325 10.7591C92.1397 10.8608 92.4451 10.6064 92.4451 10.6064C92.4451 10.6064 91.5798 11.6244 90.8672 11.8278C90.1546 12.0315 89.0349 12.5404 88.475 11.6751C87.9152 10.8098 87.7115 9.43563 87.2536 7.95949C86.7954 6.48335 86.1846 5.66903 86.1846 5.66903L86.388 5.31284Z" fill="#263238" stroke="#263238" stroke-width="0.216" stroke-miterlimit="10" stroke-linecap="round" stroke-linejoin="round"/>
<path d="M89.696 11.319C89.696 11.319 90.6631 11.5227 90.8667 12.6932C91.0704 13.8639 91.1722 17.9867 91.1722 17.9867C91.1722 17.9867 92.3936 19.819 93.6153 21.4986C94.8368 23.1783 95.0405 23.0255 95.0405 23.0255H97.28C97.28 23.0255 98.7052 23.9418 98.8069 24.0945C98.9086 24.2472 98.8579 24.349 98.5525 24.349C98.247 24.349 97.6362 24.2472 97.28 24.2472C96.9238 24.2472 96.2112 24.4 96.2112 24.4C96.2112 24.4 97.5347 24.6036 97.5347 24.8581C97.5347 25.1125 97.382 25.0618 97.0258 25.1125C96.6694 25.1635 96.1095 25.2652 95.8043 25.1635C95.4989 25.0618 94.5318 23.7383 94.5318 23.7383C94.5318 23.7383 90.9689 21.0407 90.3073 20.3281C89.6457 19.6156 89.1876 19.0047 89.0856 18.5466C88.9839 18.0884 88.9329 17.2741 88.9329 17.2741C88.9329 17.2741 89.0856 15.3908 88.5767 14.1184C88.0678 12.8459 87.457 11.6752 88.0168 11.1153C88.5763 10.5554 89.696 11.319 89.696 11.319Z" fill="white" stroke="#263238" stroke-width="0.216" stroke-miterlimit="10" stroke-linecap="round" stroke-linejoin="round"/>
<path d="M90.8672 12.6932C90.6635 11.5225 89.6965 11.319 89.6965 11.319C89.6965 11.319 88.5767 10.5554 88.0168 11.1153C87.457 11.6752 88.0678 12.8459 88.5767 14.1184C89.0856 15.3908 88.9329 17.2741 88.9329 17.2741C88.9329 17.2741 88.9333 17.2802 88.934 17.2892C89.5228 17.2596 90.4237 17.0946 91.1229 16.4395C91.0739 15.142 90.9888 13.3919 90.8672 12.6932Z" fill="#92E3A9" stroke="#263238" stroke-width="0.216" stroke-miterlimit="10" stroke-linecap="round" stroke-linejoin="round"/>
<path d="M65.0621 38.499C65.0621 38.499 63.2297 39.4153 62.3644 40.4331C61.4991 41.4511 61.3464 42.2654 61.5501 42.6726C61.7538 43.0797 62.7718 43.2324 63.3315 42.8253C63.8913 42.4181 64.3495 41.2474 64.7057 40.942C65.0621 40.6366 65.6727 39.3641 65.8254 38.9569C65.9781 38.5498 65.0621 38.499 65.0621 38.499Z" fill="#92E3A9" stroke="#263238" stroke-width="0.216" stroke-miterlimit="10" stroke-linecap="round" stroke-linejoin="round"/>
<path d="M89.9519 46.6429C89.9519 46.6429 90.7154 47.7119 91.428 48.2717C92.1406 48.8316 92.5477 50.0023 92.3443 50.4095C92.1406 50.8166 90.9701 51.0711 90.2065 50.5112C89.443 49.9514 89.4939 48.7806 89.0868 48.3225C88.6796 47.8644 88.2215 47.8644 88.2725 47.2027C88.3234 46.5411 88.5779 46.083 88.5779 46.083C88.5779 46.083 89.0866 46.7956 89.9519 46.6429Z" fill="#92E3A9" stroke="#263238" stroke-width="0.216" stroke-miterlimit="10" stroke-linecap="round" stroke-linejoin="round"/>
<path d="M89.3578 11.0462C89.1342 10.9449 88.8752 10.8725 88.5776 10.8099C87.6106 10.6062 85.6255 10.7589 84.7602 10.9116C83.8949 11.0643 82.5715 11.4715 82.5715 11.4715C82.5715 11.4715 78.5504 13.5582 78.1943 14.4745C77.8381 15.3908 78.5507 19.2589 78.8051 20.4806C79.0596 21.7021 79.0596 21.9568 79.0596 21.9568C79.0596 21.9568 77.3799 23.9418 76.9728 24.7054C76.5656 25.4689 74.9368 28.2683 74.2752 29.9479C73.6135 31.6275 73.2064 33.1546 73.0537 33.4091C72.901 33.6635 71.7812 33.5108 70.8142 33.6635C69.8472 33.8162 68.6764 34.2234 67.7602 35.1397C66.8439 36.0559 64.7061 38.7536 64.5536 39.008C64.4009 39.2625 64.8591 39.6189 65.2152 39.5679C65.5716 39.5169 69.338 37.8883 70.7122 37.2264C72.0864 36.5648 74.2242 36.3102 75.3441 35.4959C76.4641 34.6815 80.0778 30.3551 80.6886 29.8462C81.2995 29.3373 81.7576 29.2863 82.3682 29.388C82.9789 29.4898 84.7097 30.9149 85.6257 32.1874C86.5418 33.4598 88.2724 36.7683 88.2724 36.7683C88.2724 36.7683 87.7635 38.2445 87.8652 39.2622C87.967 40.2803 88.2216 43.2833 88.2724 44.1994C88.3234 45.1156 88.5778 46.6933 88.7815 46.9987C88.9852 47.3041 89.7485 47.4569 89.9522 46.9987C90.1559 46.5406 90.2067 42.8759 90.5121 42.0106C90.8175 41.1453 91.5301 37.4807 91.5301 36.4627C91.5301 35.4447 90.9192 31.2201 90.9192 31.0674C90.9192 30.9147 90.1049 27.9117 89.3923 25.9776C88.6798 24.0435 87.611 21.9565 87.611 21.9565L87.1529 20.9385C87.1529 20.9385 88.8325 18.699 89.0362 18.2919C89.2398 17.8847 89.2906 17.5793 89.2906 17.5793C89.2906 17.5793 89.2496 15.696 89.4247 14.9769" fill="white"/>
<path d="M89.3578 11.0462C89.1342 10.9449 88.8752 10.8725 88.5776 10.8099C87.6106 10.6062 85.6255 10.7589 84.7602 10.9116C83.8949 11.0643 82.5715 11.4715 82.5715 11.4715C82.5715 11.4715 78.5504 13.5582 78.1943 14.4745C77.8381 15.3908 78.5507 19.2589 78.8051 20.4806C79.0596 21.7021 79.0596 21.9568 79.0596 21.9568C79.0596 21.9568 77.3799 23.9418 76.9728 24.7054C76.5656 25.4689 74.9368 28.2683 74.2752 29.9479C73.6135 31.6275 73.2064 33.1546 73.0537 33.4091C72.901 33.6635 71.7812 33.5108 70.8142 33.6635C69.8472 33.8162 68.6764 34.2234 67.7602 35.1397C66.8439 36.0559 64.7061 38.7536 64.5536 39.008C64.4009 39.2625 64.8591 39.6189 65.2152 39.5679C65.5716 39.5169 69.338 37.8883 70.7122 37.2264C72.0864 36.5648 74.2242 36.3102 75.3441 35.4959C76.4641 34.6815 80.0778 30.3551 80.6886 29.8462C81.2995 29.3373 81.7576 29.2863 82.3682 29.388C82.9789 29.4898 84.7097 30.9149 85.6257 32.1874C86.5418 33.4598 88.2724 36.7683 88.2724 36.7683C88.2724 36.7683 87.7635 38.2445 87.8652 39.2622C87.967 40.2803 88.2216 43.2833 88.2724 44.1994C88.3234 45.1156 88.5778 46.6933 88.7815 46.9987C88.9852 47.3041 89.7485 47.4569 89.9522 46.9987C90.1559 46.5406 90.2067 42.8759 90.5121 42.0106C90.8175 41.1453 91.5301 37.4807 91.5301 36.4627C91.5301 35.4447 90.9192 31.2201 90.9192 31.0674C90.9192 30.9147 90.1049 27.9117 89.3923 25.9776C88.6798 24.0435 87.611 21.9565 87.611 21.9565L87.1529 20.9385C87.1529 20.9385 88.8325 18.699 89.0362 18.2919C89.2398 17.8847 89.2906 17.5793 89.2906 17.5793C89.2906 17.5793 89.2496 15.696 89.4247 14.9769" stroke="#263238" stroke-width="0.216" stroke-miterlimit="10" stroke-linecap="round" stroke-linejoin="round"/>
<path d="M89.392 25.9779C88.7792 24.3147 87.9048 22.5422 87.6713 22.0774C87.2153 22.5098 85.8368 23.4006 82.3679 23.1276C80.6358 22.9913 79.4259 22.7584 78.5905 22.5226C78.0619 23.1688 77.2413 24.2018 76.9726 24.7055C76.684 25.2465 75.7825 26.8102 75.0459 28.2734C75.5513 29.1916 76.7365 30.8198 79.0596 31.6032C79.8273 30.7433 80.4627 30.0342 80.6882 29.8463C81.2991 29.3374 81.7572 29.2864 82.3679 29.3881C82.7737 29.4557 83.674 30.1091 84.5015 30.9127C84.902 30.1662 85.9224 28.5976 87.7121 27.9122C88.6917 27.537 89.3859 27.4027 89.8687 27.3726C89.7114 26.8836 89.5494 26.4047 89.392 25.9779Z" fill="#263238" stroke="#263238" stroke-width="0.216" stroke-miterlimit="10" stroke-linecap="round" stroke-linejoin="round"/>
<path d="M90.0102 11.5644C89.6972 11.1311 89.23 10.9475 88.5777 10.8101C87.6106 10.6064 85.6256 10.7591 84.7603 10.9118C83.895 11.0646 82.5716 11.4717 82.5716 11.4717C82.5716 11.4717 78.5505 13.5585 78.1943 14.4748C77.8381 15.391 78.5507 19.2592 78.8052 20.4809C79.0596 21.7026 79.0596 21.957 79.0596 21.957C79.0596 21.957 78.2645 22.8968 77.6357 23.7319C78.1682 24.3876 79.5512 25.4653 82.928 25.5709C85.513 25.6517 87.1432 24.2794 88.1057 22.969C87.8156 22.357 87.6108 21.957 87.6108 21.957L87.1527 20.939C87.1527 20.939 88.4679 19.7385 88.7593 19.3888C89.2984 18.7418 89.2905 17.5795 89.2905 17.5795C89.2905 17.5795 89.2395 15.2381 89.4941 14.7802" fill="#92E3A9"/>
<path d="M90.0102 11.5644C89.6972 11.1311 89.23 10.9475 88.5776 10.8101C87.6106 10.6064 85.6256 10.7591 84.7603 10.9118C83.895 11.0646 82.5716 11.4717 82.5716 11.4717C82.5716 11.4717 78.5505 13.5585 78.1943 14.4748C77.8381 15.391 78.5507 19.2592 78.8052 20.4809C79.0596 21.7026 79.0596 21.957 79.0596 21.957C79.0596 21.957 78.2645 22.8968 77.6357 23.7319C78.1682 24.3876 79.5512 25.4653 82.928 25.5709C85.513 25.6517 87.1432 24.2794 88.1057 22.969C87.8156 22.357 87.6108 21.957 87.6108 21.957L87.1527 20.939C87.1527 20.939 88.4679 19.7385 88.7593 19.3888C89.2984 18.7418 89.2905 17.5795 89.2905 17.5795C89.2905 17.5795 89.2395 15.2381 89.4941 14.7802" stroke="#263238" stroke-width="0.216" stroke-miterlimit="10" stroke-linecap="round" stroke-linejoin="round"/>
<path d="M82.2653 12.3369C82.2653 12.3369 81.8072 13.1005 81.9599 14.1185C82.1126 15.1365 82.8252 16.9688 82.8252 16.9688C82.8252 16.9688 84.1994 15.7981 84.6067 15.4419C85.0139 15.0855 85.523 14.7803 85.523 14.7803L87.8645 15.2384C87.8645 15.2384 87.5081 13.6606 87.1009 12.8462C86.6937 12.0319 85.0141 11.3193 84.1996 11.3193C83.3853 11.3189 82.2653 12.3369 82.2653 12.3369Z" fill="#263238" stroke="#263238" stroke-width="0.216" stroke-miterlimit="10" stroke-linecap="round" stroke-linejoin="round"/>
<path d="M84.4541 15.0855C84.4541 15.0855 84.8613 15.8491 85.1667 16.4597C85.4721 17.0706 85.6756 17.325 85.6756 17.325C85.6756 17.325 86.1337 14.7291 86.1337 14.322C86.1337 13.9148 86.1337 13.9148 86.1337 13.9148L84.4541 15.0855Z" fill="white" stroke="#263238" stroke-width="0.216" stroke-miterlimit="10" stroke-linecap="round" stroke-linejoin="round"/>
<path d="M81.9095 10.759C81.9095 10.759 82.0623 12.8458 82.2659 13.3039C82.4696 13.7621 83.6401 15.0853 83.9965 15.238C84.3529 15.3907 84.7601 15.289 85.0145 15.0853C85.269 14.8816 86.338 13.8638 86.6942 13.4564C87.0506 13.0493 87.2031 12.0313 87.2031 12.0313C87.2031 12.0313 87.8647 11.7768 88.0684 11.3187C88.272 10.8605 88.8045 9.94858 88.1565 9.61572C87.5085 9.28287 87.1013 9.48634 87.1013 9.48634C87.1013 9.48634 87.6104 8.57007 86.7959 8.3666C85.9816 8.16291 82.9785 8.41757 82.3677 9.28287C81.7568 10.1482 81.9095 10.759 81.9095 10.759Z" fill="white" stroke="#263238" stroke-width="0.216" stroke-miterlimit="10" stroke-linecap="round" stroke-linejoin="round"/>
<path d="M83.9458 12.0315C83.9458 12.0315 83.6914 13.0495 83.6914 13.2022C83.6914 13.3549 84.0986 13.8131 84.404 13.4057" stroke="#263238" stroke-width="0.216" stroke-miterlimit="10" stroke-linecap="round" stroke-linejoin="round"/>
<path d="M84.1494 13.9148C84.1494 13.9148 84.7603 14.1692 85.3201 13.6094" stroke="#263238" stroke-width="0.216" stroke-miterlimit="10" stroke-linecap="round" stroke-linejoin="round"/>
<path d="M85.5234 12.0825C85.5234 12.2512 85.4437 12.3879 85.3452 12.3879C85.2467 12.3879 85.167 12.2512 85.167 12.0825C85.167 11.9138 85.2467 11.7771 85.3452 11.7771C85.4437 11.7771 85.5234 11.9138 85.5234 12.0825Z" fill="#263238"/>
<path d="M83.2587 11.8279C83.2587 11.9966 83.179 12.1333 83.0805 12.1333C82.9823 12.1333 82.9023 11.9966 82.9023 11.8279C82.9023 11.6592 82.9821 11.5225 83.0805 11.5225C83.179 11.5225 83.2587 11.6592 83.2587 11.8279Z" fill="#263238"/>
<path d="M81.6391 7.98651C81.6391 7.98651 81.4062 8.83992 81.4062 9.53847C81.4062 10.2368 81.7942 10.9351 81.7942 10.9351C81.7942 10.9351 83.5012 11.5559 84.5875 11.5559C85.6738 11.5559 86.4496 11.2455 86.4496 11.2455L86.6825 9.69377L86.9929 10.4696C86.9929 10.4696 87.2257 10.0042 87.5359 9.84886C87.8463 9.69377 88.1567 9.61601 88.1567 9.61601C88.1567 9.61601 88.4671 7.44348 87.7687 6.12437C87.0704 4.80526 84.7426 4.33978 83.0355 5.27095C81.3287 6.20191 81.6391 7.98651 81.6391 7.98651Z" fill="#263238" stroke="#263238" stroke-width="0.216" stroke-miterlimit="10" stroke-linecap="round" stroke-linejoin="round"/>
<path d="M79.416 13.4568C79.416 13.4568 77.8891 13.9657 77.1765 15.1364C76.464 16.3071 75.2425 19.3102 75.0898 19.6664C74.9371 20.0225 73.4102 24.2983 73.4102 24.2983C73.4102 24.2983 75.4969 26.1306 76.7694 27.1996C78.0418 28.2686 80.2813 29.7955 80.2813 29.7955C80.2813 29.7955 80.1796 31.4751 80.3323 31.7295C80.485 31.984 80.8412 32.1877 80.9939 32.2894C81.1466 32.3911 81.7575 32.2894 81.7575 32.2894C81.7575 32.2894 82.1139 32.7475 82.2156 32.4931C82.3173 32.2386 82.521 30.9152 82.2666 30.3553C82.0121 29.7955 80.9432 28.8792 80.9432 28.8792L76.464 23.5857L79.416 18.4449" fill="#92E3A9"/>
<path d="M79.416 13.4568C79.416 13.4568 77.8891 13.9657 77.1765 15.1364C76.464 16.3071 75.2425 19.3102 75.0898 19.6664C74.9371 20.0225 73.4102 24.2983 73.4102 24.2983C73.4102 24.2983 75.4969 26.1306 76.7694 27.1996C78.0418 28.2686 80.2813 29.7955 80.2813 29.7955C80.2813 29.7955 80.1796 31.4751 80.3323 31.7295C80.485 31.984 80.8412 32.1877 80.9939 32.2894C81.1466 32.3911 81.7575 32.2894 81.7575 32.2894C81.7575 32.2894 82.1139 32.7475 82.2156 32.4931C82.3173 32.2386 82.521 30.9152 82.2666 30.3553C82.0121 29.7955 80.9432 28.8792 80.9432 28.8792L76.464 23.5857L79.416 18.4449" stroke="#263238" stroke-width="0.216" stroke-miterlimit="10" stroke-linecap="round" stroke-linejoin="round"/>
<path d="M80.3323 31.7296C80.485 31.9841 80.8414 32.1878 80.9939 32.2895C81.1466 32.3912 81.7575 32.2895 81.7575 32.2895C81.7575 32.2895 82.1137 32.7476 82.2156 32.4932C82.3173 32.2387 82.521 30.9153 82.2666 30.3554C82.0121 29.7956 80.9432 28.8793 80.9432 28.8793L76.4642 23.5858L77.9341 21.026C76.4609 20.6354 75.5883 19.9339 75.1615 19.4956C75.1289 19.574 75.1042 19.6325 75.0898 19.6665C74.9371 20.0226 73.4102 24.2984 73.4102 24.2984C73.4102 24.2984 75.4969 26.1307 76.7694 27.1997C78.0418 28.2687 80.2813 29.7956 80.2813 29.7956C80.2813 29.7956 80.1796 31.4752 80.3323 31.7296Z" fill="white" stroke="#263238" stroke-width="0.216" stroke-miterlimit="10" stroke-linecap="round" stroke-linejoin="round"/>
<path d="M87.1519 20.939C87.1519 20.939 85.8717 22.2697 85.0928 22.5693" stroke="#263238" stroke-width="0.216" stroke-miterlimit="10" stroke-linecap="round" stroke-linejoin="round"/>
<path d="M85.7602 35.5187C86.5783 35.0248 86.6158 33.5878 85.8439 32.3091C85.0719 31.0303 83.7829 30.3941 82.9648 30.888C82.1466 31.3819 82.1092 32.8188 82.8811 34.0976C83.653 35.3763 84.942 36.0126 85.7602 35.5187Z" fill="#92E3A9" stroke="#263238" stroke-width="0.216" stroke-miterlimit="10" stroke-linecap="round" stroke-linejoin="round"/>
<path d="M83.2688 30.7629C82.4221 30.9805 82.0817 32.0572 82.5137 33.3128C82.632 33.6565 82.7968 33.9807 82.9936 34.2727L83.2688 30.7629Z" fill="white" stroke="#263238" stroke-width="0.216" stroke-miterlimit="10" stroke-linecap="round" stroke-linejoin="round"/>
<path d="M98.1506 45.4041L97.2148 46.0972V64.0794L98.1506 63.3863V45.4041Z" fill="#263238" stroke="#263238" stroke-width="0.216" stroke-miterlimit="10" stroke-linecap="round" stroke-linejoin="round"/>
<path d="M96.2803 45.4265V63.4087L97.1844 64.0906V46.1084L96.2803 45.4265Z" fill="white" stroke="#263238" stroke-width="0.216" stroke-miterlimit="10" stroke-linecap="round" stroke-linejoin="round"/>
<path d="M80.1035 66.346V67.4856L97.1232 54.1735V53.032L80.1035 66.346Z" fill="#263238" stroke="#263238" stroke-width="0.216" stroke-miterlimit="10" stroke-linecap="round" stroke-linejoin="round"/>
<path d="M96.275 52.6196L80.1035 65.2649V66.3082L97.1232 52.9948V52.9058L96.275 52.6196Z" fill="white" stroke="#263238" stroke-width="0.216" stroke-miterlimit="10" stroke-linecap="round" stroke-linejoin="round"/>
<path d="M71.1506 66.4639L70.2148 67.157V85.1392L71.1506 84.4461V66.4639Z" fill="#263238" stroke="#263238" stroke-width="0.216" stroke-miterlimit="10" stroke-linecap="round" stroke-linejoin="round"/>
<path d="M69.2803 66.4863V84.4685L70.1844 85.1505V67.1682L69.2803 66.4863Z" fill="white" stroke="#263238" stroke-width="0.216" stroke-miterlimit="10" stroke-linecap="round" stroke-linejoin="round"/>
<path d="M48.9248 90.0121V91.1515L70.1233 74.8994V73.7581L48.9248 90.0121Z" fill="#263238" stroke="#263238" stroke-width="0.216" stroke-miterlimit="10" stroke-linecap="round" stroke-linejoin="round"/>
<path d="M69.275 73.3457L48.9248 88.9264V89.9742L70.1233 73.7207V73.6319L69.275 73.3457Z" fill="white" stroke="#263238" stroke-width="0.216" stroke-miterlimit="10" stroke-linecap="round" stroke-linejoin="round"/>
<path d="M80.5461 58.5798L79.6104 59.273V77.2552L80.5461 76.562V58.5798Z" fill="#263238" stroke="#263238" stroke-width="0.216" stroke-miterlimit="10" stroke-linecap="round" stroke-linejoin="round"/>
<path d="M78.6758 58.6023V76.5845L79.58 77.2664V59.2842L78.6758 58.6023Z" fill="white" stroke="#263238" stroke-width="0.216" stroke-miterlimit="10" stroke-linecap="round" stroke-linejoin="round"/>
<path d="M49.0099 81.908L48.0742 82.6011V100.583L49.0099 99.8902V81.908Z" fill="#263238" stroke="#263238" stroke-width="0.216" stroke-miterlimit="10" stroke-linecap="round" stroke-linejoin="round"/>
<path d="M47.1396 81.9304V99.9126L48.0438 100.595V82.6123L47.1396 81.9304Z" fill="white" stroke="#263238" stroke-width="0.216" stroke-miterlimit="10" stroke-linecap="round" stroke-linejoin="round"/>
<path d="M16.6213 58.1843L15.6855 58.8775V76.8597L16.6213 76.1665V58.1843Z" fill="#263238" stroke="#263238" stroke-width="0.216" stroke-miterlimit="10" stroke-linecap="round" stroke-linejoin="round"/>
<path d="M14.751 58.2068V76.189L15.6554 76.8709V58.8885L14.751 58.2068Z" fill="white" stroke="#263238" stroke-width="0.216" stroke-miterlimit="10" stroke-linecap="round" stroke-linejoin="round"/>
<path d="M62.9783 25.1025L99.0503 44.1105L48.0743 81.9105L13.9463 56.2065L62.9783 25.1025Z" fill="white" stroke="#263238" stroke-width="0.216" stroke-miterlimit="10" stroke-linecap="round" stroke-linejoin="round"/>
<path d="M76.7509 33.8118L62.6824 26.3984L15.8877 56.0833L31.3246 67.7097L76.7509 33.8118Z" fill="#92E3A9" stroke="#263238" stroke-width="0.216" stroke-miterlimit="10" stroke-linecap="round"/>
<path d="M77.8093 34.3694L32.2236 68.3866L48.0569 80.6143L96.707 44.5391L77.8093 34.3694Z" fill="#92E3A9" stroke="#263238" stroke-width="0.216" stroke-miterlimit="10" stroke-linecap="round"/>
<path d="M74.2726 56.8887L38.8311 35.2334V40.3723L74.2726 62.7358V56.8887Z" stroke="#263238" stroke-width="0.216" stroke-miterlimit="10" stroke-linecap="round"/>
<path d="M74.2725 62.5656V56.8887" stroke="#263238" stroke-width="0.648" stroke-miterlimit="10" stroke-linecap="round"/>
<path d="M38.8311 35.2334V40.3723" stroke="#263238" stroke-width="0.648" stroke-miterlimit="10" stroke-linecap="round"/>
<path d="M39.0205 36.2109L74.0075 57.8738" stroke="#263238" stroke-width="0.216" stroke-miterlimit="10" stroke-linecap="round"/>
<path d="M39.0205 37.3286L74.0075 58.9915" stroke="#263238" stroke-width="0.216" stroke-miterlimit="10" stroke-linecap="round"/>
<path d="M39.0205 38.4463L74.0075 60.1089" stroke="#263238" stroke-width="0.216" stroke-miterlimit="10" stroke-linecap="round"/>
<path d="M39.0205 39.5637L74.0075 61.2264" stroke="#263238" stroke-width="0.216" stroke-miterlimit="10" stroke-linecap="round"/>
<path d="M39.708 35.8672V40.9391" stroke="#263238" stroke-width="0.216" stroke-miterlimit="10" stroke-linecap="round"/>
<path d="M40.3672 36.2686V41.3556" stroke="#263238" stroke-width="0.216" stroke-miterlimit="10" stroke-linecap="round"/>
<path d="M41.0264 36.6697V41.7718" stroke="#263238" stroke-width="0.216" stroke-miterlimit="10" stroke-linecap="round"/>
<path d="M41.6855 37.0708V42.1881" stroke="#263238" stroke-width="0.216" stroke-miterlimit="10" stroke-linecap="round"/>
<path d="M42.3447 37.4717V42.6043" stroke="#263238" stroke-width="0.216" stroke-miterlimit="10" stroke-linecap="round"/>
<path d="M43.0029 37.873V43.0205" stroke="#263238" stroke-width="0.216" stroke-miterlimit="10" stroke-linecap="round"/>
<path d="M43.6621 38.2744V43.4372" stroke="#263238" stroke-width="0.216" stroke-miterlimit="10" stroke-linecap="round"/>
<path d="M44.3213 38.6753V43.8532" stroke="#263238" stroke-width="0.216" stroke-miterlimit="10" stroke-linecap="round"/>
<path d="M44.9805 39.0764V44.2697" stroke="#263238" stroke-width="0.216" stroke-miterlimit="10" stroke-linecap="round"/>
<path d="M45.6396 39.4775V44.6859" stroke="#263238" stroke-width="0.216" stroke-miterlimit="10" stroke-linecap="round"/>
<path d="M46.2988 39.8789V45.1024" stroke="#263238" stroke-width="0.216" stroke-miterlimit="10" stroke-linecap="round"/>
<path d="M46.958 40.28V45.5187" stroke="#263238" stroke-width="0.216" stroke-miterlimit="10" stroke-linecap="round"/>
<path d="M47.6162 40.6812V45.9351" stroke="#263238" stroke-width="0.216" stroke-miterlimit="10" stroke-linecap="round"/>
<path d="M48.2754 41.0823V46.3514" stroke="#263238" stroke-width="0.216" stroke-miterlimit="10" stroke-linecap="round"/>
<path d="M48.9346 41.4836V46.7679" stroke="#263238" stroke-width="0.216" stroke-miterlimit="10" stroke-linecap="round"/>
<path d="M49.5938 41.8848V47.1841" stroke="#263238" stroke-width="0.216" stroke-miterlimit="10" stroke-linecap="round"/>
<path d="M50.2529 42.2859V47.6006" stroke="#263238" stroke-width="0.216" stroke-miterlimit="10" stroke-linecap="round"/>
<path d="M50.9121 42.687V48.0168" stroke="#263238" stroke-width="0.216" stroke-miterlimit="10" stroke-linecap="round"/>
<path d="M51.5713 43.0884V48.4333" stroke="#263238" stroke-width="0.216" stroke-miterlimit="10" stroke-linecap="round"/>
<path d="M52.2295 43.4893V48.8493" stroke="#263238" stroke-width="0.216" stroke-miterlimit="10" stroke-linecap="round"/>
<path d="M52.8887 43.8906V49.2658" stroke="#263238" stroke-width="0.216" stroke-miterlimit="10" stroke-linecap="round"/>
<path d="M53.5479 44.2915V49.682" stroke="#263238" stroke-width="0.216" stroke-miterlimit="10" stroke-linecap="round"/>
<path d="M54.207 44.6929V50.0983" stroke="#263238" stroke-width="0.216" stroke-miterlimit="10" stroke-linecap="round"/>
<path d="M54.8662 45.094V50.5147" stroke="#263238" stroke-width="0.216" stroke-miterlimit="10" stroke-linecap="round"/>
<path d="M55.5254 45.4951V50.931" stroke="#263238" stroke-width="0.216" stroke-miterlimit="10" stroke-linecap="round"/>
<path d="M56.1846 45.8962V51.3474" stroke="#263238" stroke-width="0.216" stroke-miterlimit="10" stroke-linecap="round"/>
<path d="M56.8438 46.2976V51.7637" stroke="#263238" stroke-width="0.216" stroke-miterlimit="10" stroke-linecap="round"/>
<path d="M57.5029 46.6987V52.1802" stroke="#263238" stroke-width="0.216" stroke-miterlimit="10" stroke-linecap="round"/>
<path d="M58.1611 47.0999V52.5964" stroke="#263238" stroke-width="0.216" stroke-miterlimit="10" stroke-linecap="round"/>
<path d="M58.8203 47.501V53.0129" stroke="#263238" stroke-width="0.216" stroke-miterlimit="10" stroke-linecap="round"/>
<path d="M59.4795 47.9021V53.4291" stroke="#263238" stroke-width="0.216" stroke-miterlimit="10" stroke-linecap="round"/>
<path d="M60.1387 48.3035V53.8456" stroke="#263238" stroke-width="0.216" stroke-miterlimit="10" stroke-linecap="round"/>
<path d="M60.7979 48.7046V54.2618" stroke="#263238" stroke-width="0.216" stroke-miterlimit="10" stroke-linecap="round"/>
<path d="M61.457 49.1057V54.6781" stroke="#263238" stroke-width="0.216" stroke-miterlimit="10" stroke-linecap="round"/>
<path d="M62.1162 49.5068V55.0945" stroke="#263238" stroke-width="0.216" stroke-miterlimit="10" stroke-linecap="round"/>
<path d="M62.7744 49.9082V55.5108" stroke="#263238" stroke-width="0.216" stroke-miterlimit="10" stroke-linecap="round"/>
<path d="M63.4336 50.3091V55.927" stroke="#263238" stroke-width="0.216" stroke-miterlimit="10" stroke-linecap="round"/>
<path d="M64.0928 50.7102V56.3433" stroke="#263238" stroke-width="0.216" stroke-miterlimit="10" stroke-linecap="round"/>
<path d="M64.752 51.1113V56.7597" stroke="#263238" stroke-width="0.216" stroke-miterlimit="10" stroke-linecap="round"/>
<path d="M65.4111 51.5127V57.176" stroke="#263238" stroke-width="0.216" stroke-miterlimit="10" stroke-linecap="round"/>
<path d="M66.0703 51.9138V57.5925" stroke="#263238" stroke-width="0.216" stroke-miterlimit="10" stroke-linecap="round"/>
<path d="M66.7295 52.3149V58.0087" stroke="#263238" stroke-width="0.216" stroke-miterlimit="10" stroke-linecap="round"/>
<path d="M67.3887 52.7161V58.4252" stroke="#263238" stroke-width="0.216" stroke-miterlimit="10" stroke-linecap="round"/>
<path d="M68.0469 53.1172V58.8414" stroke="#263238" stroke-width="0.216" stroke-miterlimit="10" stroke-linecap="round"/>
<path d="M68.7061 53.5186V59.2577" stroke="#263238" stroke-width="0.216" stroke-miterlimit="10" stroke-linecap="round"/>
<path d="M69.3652 53.9197V59.6741" stroke="#263238" stroke-width="0.216" stroke-miterlimit="10" stroke-linecap="round"/>
<path d="M70.0244 54.3208V60.0906" stroke="#263238" stroke-width="0.216" stroke-miterlimit="10" stroke-linecap="round"/>
<path d="M70.6836 54.7219V60.5068" stroke="#263238" stroke-width="0.216" stroke-miterlimit="10" stroke-linecap="round"/>
<path d="M71.3428 55.123V60.9229" stroke="#263238" stroke-width="0.216" stroke-miterlimit="10" stroke-linecap="round"/>
<path d="M72.002 55.5244V61.3396" stroke="#263238" stroke-width="0.216" stroke-miterlimit="10" stroke-linecap="round"/>
<path d="M72.6602 55.9253V61.7556" stroke="#263238" stroke-width="0.216" stroke-miterlimit="10" stroke-linecap="round"/>
<path d="M73.3203 56.3267V62.1723" stroke="#263238" stroke-width="0.216" stroke-miterlimit="10" stroke-linecap="round"/>
<path d="M99.0802 47.1154L48.0742 84.8983V81.9104L99.0802 44.1274V47.1154Z" fill="#263238" stroke="#263238" stroke-width="0.216" stroke-miterlimit="10" stroke-linecap="round" stroke-linejoin="round"/>
<path d="M13.9443 59.2172L48.0259 84.9166V81.9285L13.9443 56.2292V59.2172Z" fill="white" stroke="#263238" stroke-width="0.216" stroke-miterlimit="10" stroke-linecap="round" stroke-linejoin="round"/>
<path d="M53.4082 28.4634C53.4082 28.9323 53.028 29.3124 52.5591 29.3124C52.0901 29.3124 51.71 28.9323 51.71 28.4634C51.71 27.9944 52.0901 27.6143 52.5591 27.6143C53.028 27.6143 53.4082 27.9944 53.4082 28.4634Z" fill="white" stroke="#263238" stroke-width="0.216" stroke-miterlimit="10" stroke-linecap="round" stroke-linejoin="round"/>
<path d="M33.5821 50.0654L31.5066 47.4866C31.5066 47.4866 30.06 46.606 29.7455 46.4803C29.431 46.3546 29.3682 45.6627 29.3682 45.4111C29.3682 45.1594 29.5567 43.9645 29.8084 43.8386C30.06 43.7129 30.4374 43.9015 30.9404 44.1531C31.4437 44.4047 32.0727 46.1029 32.0727 46.2915C32.0727 46.4801 34.7144 48.4299 36.9159 49.6879C39.1173 50.9459 40.1237 52.3924 40.1237 53.1471C40.1237 53.9018 39.872 54.1535 39.3059 54.3422C38.7398 54.531 31.6953 54.2165 31.6953 54.2165L32.4501 50.3169L33.5821 50.0654Z" fill="white" stroke="#263238" stroke-width="0.216" stroke-miterlimit="10" stroke-linecap="round" stroke-linejoin="round"/>
<path d="M38.1426 51.4482C38.4428 51.5381 38.6932 51.6236 38.8657 51.7003" stroke="#263238" stroke-width="0.216" stroke-miterlimit="10" stroke-linecap="round" stroke-linejoin="round"/>
<path d="M33.2676 50.3167C33.2676 50.3167 35.6792 50.7923 37.4072 51.2439" stroke="#263238" stroke-width="0.216" stroke-miterlimit="10" stroke-linecap="round" stroke-linejoin="round"/>
<path d="M16.9138 58.1789L16.5364 60.7578L11.9449 58.4306C11.9449 58.4306 12.3851 57.613 12.448 57.2985C12.5109 56.984 12.1335 56.4807 11.9449 56.2922C11.7561 56.1036 11.2531 55.9777 11.2531 56.2293C11.2531 56.481 11.2531 56.481 11.2531 56.481C11.2531 56.481 10.6241 56.2293 10.3096 56.1036C9.9951 55.9779 9.42897 56.2922 9.61775 56.7326C9.80653 57.1728 9.61775 57.4245 9.61775 57.9277C9.61775 58.431 9.61775 58.6824 10.058 59.0598C10.4982 59.4371 11.3788 59.7516 11.3788 59.7516C11.3788 59.7516 14.6495 63.0852 15.593 63.8401C16.5364 64.5948 17.354 65.2238 17.9201 64.7836C18.4863 64.3434 19.8071 59.1857 19.8071 59.1857L16.9138 58.1789Z" fill="white" stroke="#263238" stroke-width="0.216" stroke-miterlimit="10" stroke-linecap="round" stroke-linejoin="round"/>
<path d="M16.5368 60.7578L16.4111 62.6448" stroke="#263238" stroke-width="0.216" stroke-miterlimit="10" stroke-linecap="round" stroke-linejoin="round"/>
<path d="M15.7188 93.0239C15.7188 93.0239 15.6808 93.1 15.6188 93.2268C15.4285 93.6158 15.0125 94.483 14.7754 95.0997C14.4609 95.9173 15.1527 96.5463 15.8446 96.4834C16.5364 96.4205 16.7252 95.1626 17.2911 94.6595C17.8572 94.1562 18.2346 94.2193 18.4232 93.3386C18.6119 92.458 18.2344 91.6405 17.1652 91.9549C16.0962 92.2692 15.7188 93.0239 15.7188 93.0239Z" fill="#263238" stroke="#263238" stroke-width="0.216" stroke-miterlimit="10" stroke-linecap="round" stroke-linejoin="round"/>
<path d="M27.7955 98.4961C27.7955 98.4961 26.5376 101.892 26.7263 102.018C26.9151 102.144 29.0535 102.647 29.8082 102.773C30.5629 102.899 32.3242 103.15 32.7015 102.773C33.0789 102.396 31.5693 101.578 30.8146 100.949C30.0599 100.32 29.1792 98.8734 29.1792 98.8734L27.7955 98.4961Z" fill="#263238" stroke="#263238" stroke-width="0.216" stroke-miterlimit="10" stroke-linecap="round" stroke-linejoin="round"/>
<path d="M22.0715 51.3232C22.0715 51.3232 17.6059 53.3358 17.5429 53.6503C17.48 53.9648 16.4737 58.5563 16.4737 58.5563L19.9329 59.8772C19.9329 59.8772 21.0652 62.2672 21.1909 62.7705C21.3166 63.2736 20.4362 64.343 20.2474 65.1605C20.0586 65.9781 18.7378 68.0539 18.6749 71.0729C18.6121 74.0919 20.0586 81.7025 20.0586 81.7025C20.0586 81.7025 19.6813 81.7653 18.9894 82.8345C18.2976 83.9037 17.8571 84.8472 17.3541 86.6713C16.851 88.4955 15.3414 93.8417 15.4042 94.0302C15.4671 94.219 15.7187 94.5964 16.2849 94.2819C16.851 93.9674 20.3103 88.181 21.5054 86.3568C22.7005 84.5329 23.7069 82.3315 23.8326 81.6396C23.9583 80.9478 24.9646 75.7901 24.9646 75.7901L26.2226 76.5448C26.2226 76.5448 29.5561 86.1681 29.6818 86.4197C29.8076 86.6713 28.6126 88.9985 28.4867 90.1934C28.361 91.3886 27.6689 98.8732 27.6061 99.3136C27.5432 99.7538 27.7949 100.194 28.1094 100.194C28.4239 100.194 29.1786 100.069 29.4302 99.2507C29.6818 98.433 32.9525 90.6339 33.3299 88.8726C33.7072 87.1115 33.7072 85.0358 33.7701 84.6584C33.8329 84.2811 33.8329 75.3497 33.0154 72.3307C32.1978 69.3116 31.5688 66.2295 31.5688 66.2295C31.5688 66.2295 31.8205 62.5815 31.3803 59.877C30.94 57.1724 30.7513 54.6565 30.7513 54.6565L32.4495 54.4677L33.5817 50.065C33.5817 50.065 31.3803 49.3102 29.7449 49.3731C28.1096 49.436 25.0906 50.3795 24.6501 50.5052C24.2099 50.6313 22.0715 51.3232 22.0715 51.3232Z" fill="white" stroke="#263238" stroke-width="0.216" stroke-miterlimit="10" stroke-linecap="round" stroke-linejoin="round"/>
<path d="M33.0163 72.3309C32.5169 70.4867 32.0881 68.6205 31.8298 67.4463C30.4761 67.9917 27.8005 68.8103 24.1477 68.6829C21.1907 68.5796 19.9083 67.988 19.3519 67.4726C19.0141 68.4429 18.7054 69.6519 18.6758 71.0729C18.6469 72.4648 18.9387 74.8322 19.2618 76.9803C21.4419 78.3636 23.6952 77.8184 24.6355 77.4849C24.8214 76.5293 24.9657 75.7902 24.9657 75.7902L26.2237 76.5449C26.2237 76.5449 26.7337 78.0171 27.3623 79.8248C29.7087 81.5725 32.3789 80.7191 33.7433 80.0685C33.6587 77.2777 33.4554 73.9522 33.0163 72.3309Z" fill="#263238" stroke="#263238" stroke-width="0.216" stroke-miterlimit="10" stroke-linecap="round" stroke-linejoin="round"/>
<path d="M31.8213 45.6625L31.4439 44.0271L29.9343 43.5869L29.8086 45.411C29.8086 45.411 29.9974 45.411 30.1859 45.2853C30.3747 45.1596 30.4376 44.7823 30.4376 44.7823C30.4376 44.7823 30.5004 45.8515 31.0037 46.2288" fill="white"/>
<path d="M31.8213 45.6625L31.4439 44.0271L29.9343 43.5869L29.8086 45.411C29.8086 45.411 29.9974 45.411 30.1859 45.2853C30.3747 45.1596 30.4376 44.7823 30.4376 44.7823C30.4376 44.7823 30.5004 45.8515 31.0037 46.2288" stroke="#263238" stroke-width="0.216" stroke-miterlimit="10" stroke-linecap="round" stroke-linejoin="round"/>
<path d="M31.2869 43.9011C32.9022 43.9011 34.2116 42.3524 34.2116 40.4419C34.2116 38.5314 32.9022 36.9827 31.2869 36.9827C29.6717 36.9827 28.3623 38.5314 28.3623 40.4419C28.3623 42.3524 29.6717 43.9011 31.2869 43.9011Z" fill="#92E3A9" stroke="#263238" stroke-width="0.216" stroke-miterlimit="10" stroke-linecap="round" stroke-linejoin="round"/>
<path d="M28.5801 41.7505C29.0164 43.0119 30.0631 43.9012 31.2868 43.9012C31.6862 43.9012 32.0665 43.8059 32.4132 43.6344L28.5801 41.7505Z" fill="white" stroke="#263238" stroke-width="0.216" stroke-miterlimit="10" stroke-linecap="round" stroke-linejoin="round"/>
<path d="M29.7459 49.3733C28.1105 49.4362 25.0915 50.3797 24.6513 50.5056C24.2111 50.6313 22.0725 51.3234 22.0725 51.3234C22.0725 51.3234 17.6069 53.3361 17.5438 53.6506C17.481 53.9651 16.4746 58.5566 16.4746 58.5566L19.9338 59.8774C19.9338 59.8774 21.0659 62.2675 21.1918 62.7707C21.3175 63.2738 20.4371 64.3432 20.2483 65.1608C20.1356 65.6489 19.6204 66.5885 19.2092 67.9066C19.9408 68.7641 21.6215 70.1655 24.9027 70.3813C27.8131 70.5727 30.4883 69.5989 32.1374 68.8073C31.7894 67.3052 31.57 66.23 31.57 66.23C31.57 66.23 31.8216 62.582 31.3814 59.8774C30.9412 57.1729 30.7524 54.6569 30.7524 54.6569L32.4506 54.4681L33.5827 50.0654C33.5827 50.0654 31.3812 49.3105 29.7459 49.3733Z" fill="#92E3A9" stroke="#263238" stroke-width="0.216" stroke-miterlimit="10" stroke-linecap="round" stroke-linejoin="round"/>
<path d="M30.7518 54.6567C30.7518 54.6567 30.2485 56.3549 29.6826 57.2356" stroke="#263238" stroke-width="0.216" stroke-miterlimit="10" stroke-linecap="round" stroke-linejoin="round"/>
<path d="M18.2421 55.754L17.9209 54.9712" stroke="#263238" stroke-width="0.216" stroke-miterlimit="10" stroke-linecap="round" stroke-linejoin="round"/>
<path d="M19.934 59.8773L18.5635 56.5364" stroke="#263238" stroke-width="0.216" stroke-miterlimit="10" stroke-linecap="round" stroke-linejoin="round"/>
<path d="M31.3111 59.4338C31.1265 58.2365 30.9915 57.1025 30.9003 56.2402C30.0635 58.0931 27.3076 63.3762 20.9209 69.2843C21.4326 69.572 22.0484 69.8374 22.7884 70.0381C27.1992 65.8419 29.8372 62.0083 31.3111 59.4338Z" fill="#263238"/>
<path d="M31.5094 60.8618C30.1564 63.1845 27.8121 66.5705 24.0293 70.2883C24.3086 70.3278 24.5967 70.3613 24.9032 70.3814C25.4491 70.4172 25.9867 70.4123 26.5107 70.3749C28.7238 68.0665 30.3989 65.9167 31.6409 64.0893C31.6476 63.1285 31.6215 61.9654 31.5094 60.8618Z" fill="#263238"/>
<path d="M26.5376 39.9389C26.5376 39.9389 23.7702 38.8069 21.9461 38.8069C20.1222 38.8069 18.2352 40.8196 18.2352 40.8196L19.2416 40.5679C19.2416 40.5679 17.6691 41.7631 17.2917 42.7063C16.9144 43.6498 16.7256 45.1592 16.7256 45.1592L17.4803 44.8447C17.4803 44.8447 17.1658 46.6058 17.4803 47.9266C17.7948 49.2475 18.9268 50.6312 18.9268 50.6312L19.3042 49.8765C19.3042 49.8765 20.5622 51.3861 21.0024 51.8263C21.4426 52.2665 22.7006 52.8326 22.7006 52.8326L24.7133 51.4489C24.7133 51.4489 24.7133 52.4553 24.7133 52.2665C24.7133 52.0777 25.5939 51.3859 27.1033 49.8136C28.6129 48.2411 29.1788 44.9704 28.9903 43.0837C28.8019 41.1969 26.5376 39.9389 26.5376 39.9389Z" fill="#263238" stroke="#263238" stroke-width="0.216" stroke-miterlimit="10" stroke-linecap="round" stroke-linejoin="round"/>
</svg>
