<svg width="98" height="97" viewBox="0 0 98 97" fill="none" xmlns="http://www.w3.org/2000/svg">
<path d="M41.6515 82.9517C54.4885 82.9517 64.8949 82.37 64.8949 81.6525C64.8949 80.9349 54.4885 80.3533 41.6515 80.3533C28.8146 80.3533 18.4082 80.9349 18.4082 81.6525C18.4082 82.37 28.8146 82.9517 41.6515 82.9517Z" fill="#263238"/>
<path d="M31.9821 28.3599C31.9821 28.3599 30.005 28.3599 28.9457 28.6422C27.8864 28.9245 18.8481 32.0315 18.6364 32.0315C18.4246 32.0315 16.2355 31.1842 15.9531 31.1842C15.6705 31.1842 14.3289 31.8903 14.4704 32.5258C14.6118 33.1614 16.0237 34.1501 16.4475 34.4324C16.8713 34.7147 19.2013 33.5851 19.2013 33.5851C19.2013 33.5851 26.1919 33.0908 27.8161 32.7379C29.4403 32.3847 31.4175 32.1729 31.4175 32.1729L31.9821 28.3599Z" fill="white" stroke="#263238" stroke-width="0.278978" stroke-miterlimit="10" stroke-linecap="round" stroke-linejoin="round"/>
<path d="M18.116 34.3042L13.2367 28.358L12.058 24.326C12.041 24.2685 12.0045 24.2244 11.9612 24.1895C11.945 23.9008 11.9071 23.5931 11.8385 23.2617C11.5489 21.8629 10.8227 20.2361 9.79356 18.6811C7.58657 15.3462 4.75019 13.4665 3.33717 14.4019C1.92386 15.3373 2.54571 18.6822 4.7527 22.0174C5.78186 23.5724 6.99541 24.8767 8.16963 25.6899C8.34008 25.8079 8.50664 25.9111 8.6704 26.0049L12.6723 29.0061L17.4621 34.8429C17.5458 34.9447 17.6672 34.9972 17.7894 34.9972C17.8842 34.9972 17.9796 34.9654 18.0586 34.9003C18.2391 34.7519 18.2647 34.485 18.116 34.3042ZM10.9337 25.2583L11.3104 25.1807C11.2696 25.3216 11.2186 25.4494 11.1508 25.5543L10.9337 25.2583ZM3.18094 16.8541C3.16309 16.7115 3.14997 16.5734 3.14411 16.4426L3.38404 16.3952L3.68896 16.8103L3.21721 16.9035L3.18094 16.8541ZM3.23981 17.2271C3.22028 17.123 3.20326 17.0215 3.18959 16.9227C3.2027 17.0215 3.21972 17.123 3.23981 17.2271ZM9.47357 23.2586L9.16837 22.8435L9.64012 22.7475L9.94505 23.1626L9.47357 23.2586ZM10.0809 23.3518L10.3858 23.7669L9.91408 23.8629L9.60888 23.4477L10.0809 23.3518ZM9.03 22.654L8.72787 22.2417L9.19962 22.1457L9.50175 22.5609L9.03 22.654ZM6.10965 17.9203L6.41458 18.3355L5.94283 18.4314L5.6379 18.0163L6.10965 17.9203ZM5.49953 17.8272L5.19739 17.412L5.66915 17.3189L5.97128 17.734L5.49953 17.8272ZM8.14898 21.448L7.84406 21.0329L8.31581 20.9369L8.62074 21.3521L8.14898 21.448ZM8.75883 21.5412L9.06096 21.9563L8.58921 22.0523L8.28708 21.6372L8.75883 21.5412ZM7.7082 20.8465L7.40328 20.4314L7.87503 20.3355L8.17995 20.7506L7.7082 20.8465ZM7.2649 20.242L6.96277 19.8269L7.43452 19.7309L7.73666 20.146L7.2649 20.242ZM6.82412 19.6375L6.52198 19.2223L6.99374 19.1292L7.29587 19.5443L6.82412 19.6375ZM6.38361 19.036L6.07869 18.6209L6.55323 18.5249L6.85536 18.94L6.38361 19.036ZM6.15485 19.0812L5.6831 19.1771L5.37817 18.762L5.84993 18.666L6.15485 19.0812ZM6.29322 19.2703L6.59535 19.6854L6.1236 19.7786L5.82147 19.3635L6.29322 19.2703ZM6.73373 19.8721L7.03586 20.2872L6.56411 20.3832L6.26198 19.968L6.73373 19.8721ZM7.17451 20.4763L7.47944 20.8915L7.00769 20.9874L6.70276 20.5723L7.17451 20.4763ZM7.61502 21.0809L7.91994 21.496L7.44819 21.5892L7.14327 21.1741L7.61502 21.0809ZM8.0586 21.6824L8.36073 22.0975L7.88898 22.1934L7.58684 21.7783L8.0586 21.6824ZM8.4991 22.2869L8.80123 22.702L8.32948 22.798L8.02735 22.3829L8.4991 22.2869ZM8.98787 21.496L9.45962 21.4L9.76176 21.8152L9.29001 21.9111L8.98787 21.496ZM8.84922 21.3069L8.5443 20.8917L9.01884 20.7958L9.32097 21.2109L8.84922 21.3069ZM8.40871 20.7023L8.10379 20.2872L8.57554 20.194L8.88047 20.6091L8.40871 20.7023ZM7.96514 20.1008L7.66301 19.6857L8.13476 19.5897L8.43968 20.0049L7.96514 20.1008ZM7.52463 19.4963L7.2225 19.0812L7.69425 18.9852L7.99638 19.4003L7.52463 19.4963ZM7.08412 18.8948L6.7792 18.4797L7.25374 18.3837L7.55588 18.7988L7.08412 18.8948ZM6.64334 18.2903L6.33842 17.8751L6.81017 17.7792L7.11509 18.1943L6.64334 18.2903ZM6.20004 17.6857L5.89791 17.2706L6.36966 17.1774L6.67459 17.5898L6.20004 17.6857ZM5.75926 17.0842L5.45712 16.6691L5.92888 16.5732L6.23101 16.9883L5.75926 17.0842ZM5.53049 17.1294L5.05874 17.2254L4.75661 16.8103L5.22836 16.7143L5.53049 17.1294ZM4.61824 16.6209L4.31303 16.2057L4.78758 16.1098L5.08971 16.5249L4.61824 16.6209ZM4.82998 17.2706L4.35823 17.3666L4.0561 16.9515L4.52785 16.8555L4.82998 17.2706ZM4.96835 17.4598L5.27049 17.8749L4.79873 17.968L4.4966 17.5529L4.96835 17.4598ZM5.40914 18.0615L5.71434 18.4766L5.24259 18.5726L4.93767 18.1575L5.40914 18.0615ZM5.45433 19.2223L4.98258 19.3183L4.67766 18.9032L5.14941 18.8072L5.45433 19.2223ZM5.59271 19.4115L5.89484 19.8266L5.42309 19.9198L5.12096 19.5074L5.59271 19.4115ZM6.03321 20.0132L6.33535 20.4284L5.86359 20.5243L5.56146 20.1092L6.03321 20.0132ZM6.474 20.6175L6.77892 21.0326L6.30438 21.1286L6.00225 20.7135L6.474 20.6175ZM6.91451 21.222L7.21971 21.6372L6.74796 21.7303L6.44303 21.3152L6.91451 21.222ZM7.35808 21.8238L7.66022 22.2389L7.18846 22.3349L6.88354 21.9198L7.35808 21.8238ZM7.79859 22.4281L8.10072 22.8432L7.62897 22.9392L7.32684 22.524L7.79859 22.4281ZM8.23937 23.0326L8.5443 23.4477L8.06976 23.5409L7.76762 23.1258L8.23937 23.0326ZM8.46813 22.9846L8.93989 22.8887L9.24481 23.3038L8.77306 23.3998L8.46813 22.9846ZM9.38039 23.4929L9.68532 23.9081L9.21357 24.004L8.90864 23.5889L9.38039 23.4929ZM9.82369 24.0975L10.1258 24.5126L9.65407 24.6058L9.35194 24.1934L9.82369 24.0975ZM10.2645 24.699L10.5666 25.1141L10.0949 25.21L9.79272 24.7949L10.2645 24.699ZM10.4932 24.6538L10.965 24.5578L11.2671 24.9729L10.7954 25.0689L10.4932 24.6538ZM10.3549 24.4646L10.0527 24.0495L10.5245 23.9563L10.8266 24.3714L10.3549 24.4646ZM10.3097 23.3066L10.7842 23.2106L11.0863 23.6257L10.6146 23.7217L10.3097 23.3066ZM10.1741 23.1174L9.86916 22.7023L10.3409 22.6063L10.6458 23.0215L10.1741 23.1174ZM9.73051 22.5129L9.42838 22.0978L9.90013 22.0046L10.2053 22.4197L9.73051 22.5129ZM9.68811 21.3548L10.1599 21.2589L10.462 21.674L9.99024 21.77L9.68811 21.3548ZM9.54974 21.1657L9.24453 20.7506L9.71907 20.6546L10.0212 21.0697L9.54974 21.1657ZM9.10923 20.5611L8.80403 20.146L9.27578 20.0529L9.5807 20.468L9.10923 20.5611ZM8.66565 19.9597L8.36352 19.5446L8.83527 19.4486L9.14019 19.8637L8.66565 19.9597ZM8.22515 19.3551L7.92301 18.94L8.39477 18.844L8.6969 19.2592L8.22515 19.3551ZM8.18274 18.1943L8.65449 18.1011L8.95663 18.5162L8.48488 18.6094L8.18274 18.1943ZM8.25611 18.6574L7.78436 18.7506L7.48223 18.3355L7.95398 18.2423L8.25611 18.6574ZM7.34385 18.1491L7.03893 17.734L7.51068 17.638L7.81561 18.0531L7.34385 18.1491ZM6.90056 17.5446L6.59842 17.1294L7.07018 17.0335L7.3751 17.4486L6.90056 17.5446ZM6.45977 16.9428L6.15764 16.5277L6.62939 16.4317L6.93152 16.8468L6.45977 16.9428ZM6.01926 16.3385L5.71713 15.9234L6.18888 15.8274L6.49102 16.2426L6.01926 16.3385ZM5.7905 16.3837L5.31875 16.4797L5.01383 16.0646L5.48837 15.9686L5.7905 16.3837ZM4.87797 15.8754L4.57304 15.4603L5.04479 15.3671L5.35 15.7823L4.87797 15.8754ZM4.6492 15.9234L4.17745 16.0166L3.87253 15.6015L4.34428 15.5083L4.6492 15.9234ZM4.38947 16.6661L3.91772 16.762L3.6128 16.3469L4.08455 16.2509L4.38947 16.6661ZM3.82733 16.9966L4.12947 17.4118L3.65771 17.5077L3.35558 17.0926L3.82733 16.9966ZM4.26812 17.6012L4.57025 18.0163L4.0985 18.1123L3.79637 17.6972L4.26812 17.6012ZM4.70863 18.2027L5.01355 18.6178L4.53901 18.7138L4.23687 18.2986L4.70863 18.2027ZM4.75382 19.3635L4.28207 19.4595L3.97714 19.0443L4.4489 18.9484L4.75382 19.3635ZM4.05331 19.5047L4.00504 19.5153C3.97547 19.4505 3.94813 19.3869 3.92023 19.3228L4.05331 19.5047ZM4.07116 19.6614C4.06279 19.6439 4.05442 19.626 4.04605 19.6084C4.05442 19.626 4.06251 19.6439 4.07116 19.6614ZM4.19168 19.6941L4.49381 20.1092L4.31024 20.146C4.23492 20.0001 4.16434 19.8565 4.09655 19.7136L4.19168 19.6941ZM4.41765 19.6489L4.89219 19.5529L5.19433 19.968L4.72257 20.064L4.41765 19.6489ZM5.3327 20.1544L5.63483 20.5695L5.16308 20.6655L4.86095 20.2504L5.3327 20.1544ZM5.77349 20.7589L6.07841 21.1741L5.60387 21.27L5.30173 20.8549L5.77349 20.7589ZM6.21399 21.3632L6.51891 21.7783L6.04716 21.8715L5.74196 21.4592L6.21399 21.3632ZM6.65757 21.965L6.9597 22.3801L6.48795 22.4761L6.18303 22.0609L6.65757 21.965ZM6.69997 23.1258L6.33981 23.1989C6.22906 23.0664 6.12025 22.9272 6.01145 22.7882L6.39784 22.7104L6.69997 23.1258ZM6.62632 22.6655L7.09807 22.5695L7.40021 22.9846L6.92845 23.0806L6.62632 22.6655ZM7.53886 23.1738L7.84378 23.5889L7.36924 23.6821L7.06711 23.267L7.53886 23.1738ZM7.97937 23.7755L8.28429 24.1907L7.81254 24.2866L7.50762 23.8715L7.97937 23.7755ZM8.20813 23.7303L8.67988 23.6344L8.9848 24.0495L8.51305 24.1455L8.20813 23.7303ZM9.12346 24.2386L9.42559 24.6538L8.95384 24.7497L8.64891 24.3346L9.12346 24.2386ZM9.56396 24.8432L9.8661 25.2555L9.39434 25.3515L9.09221 24.9364L9.56396 24.8432ZM9.42168 25.7454C9.33353 25.7072 9.24314 25.6642 9.1508 25.6165L9.30395 25.5858L9.42168 25.7454ZM9.533 25.5406L10.0047 25.4447L10.3889 25.97C10.4737 25.9672 10.5527 25.9557 10.626 25.9362L10.2335 25.3995L10.7053 25.3035L11.013 25.7242C10.9759 25.7602 10.9399 25.7976 10.8975 25.8257C10.6255 26.0057 10.2388 26.0155 9.77933 25.8771L9.533 25.5406ZM11.3882 24.7807L11.1935 24.5126L11.4041 24.4705C11.4041 24.5793 11.3982 24.6822 11.3882 24.7807ZM11.3419 25.0736C11.3399 25.082 11.3383 25.0906 11.3363 25.099C11.338 25.0904 11.3399 25.082 11.3419 25.0736ZM11.4021 24.2557L11.0554 24.3235L10.7532 23.9083L11.225 23.8152L11.3826 24.0288C11.3896 24.1053 11.3985 24.1831 11.4021 24.2557ZM11.2853 23.3763C11.2998 23.4461 11.3084 23.5108 11.3201 23.5783L11.3151 23.5808L11.0099 23.1657L11.2233 23.1208C11.244 23.2059 11.268 23.2926 11.2853 23.3763ZM11.1737 22.9141L10.8746 22.9763L10.5697 22.5611L11.0398 22.4655C11.0883 22.6167 11.1341 22.7668 11.1737 22.9141ZM10.431 22.3717L10.1289 21.9566L10.6006 21.8634L10.9058 22.2785L10.431 22.3717ZM10.7276 21.6204L10.6908 21.6288L10.3886 21.2137L10.5409 21.1827C10.6682 21.4634 10.7809 21.7398 10.8821 22.013C10.8333 21.8827 10.7823 21.7518 10.7276 21.6204ZM10.2502 21.0243L9.94811 20.6091L10.2318 20.55C10.3066 20.6953 10.3791 20.8404 10.4475 20.9849L10.2502 21.0243ZM10.1308 20.355L9.80946 20.4197L9.50454 20.0046L9.89399 19.9256C9.97601 20.069 10.0547 20.2121 10.1308 20.355ZM9.54834 19.3495C9.62757 19.4776 9.70708 19.6056 9.78129 19.7337L9.78212 19.7334C9.80974 19.78 9.83625 19.8266 9.86331 19.8732C9.83652 19.8272 9.81002 19.7808 9.78129 19.7337L9.36896 19.8185L9.06403 19.4034L9.52351 19.3105C9.5316 19.3233 9.54025 19.3362 9.54834 19.3495ZM9.32237 18.993C9.36393 19.0558 9.40188 19.1194 9.44233 19.1822C9.40243 19.1191 9.3631 19.0558 9.32097 18.9936C9.26741 18.9127 9.21329 18.8348 9.15944 18.7559C9.21384 18.8351 9.26852 18.9115 9.32237 18.993ZM9.39741 19.1177L8.92566 19.2137L8.62353 18.7986L9.09528 18.7026L9.39741 19.1177ZM8.20924 17.4966H8.20813C8.2165 17.5049 8.22236 17.5136 8.23072 17.522L8.22905 17.5197C8.28903 17.5917 8.34901 17.6673 8.40871 17.7418C8.34929 17.6679 8.29015 17.5931 8.23072 17.522L8.51612 17.9117L8.04437 18.0077L7.73917 17.5925L8.20813 17.4966C8.18246 17.4653 8.15624 17.4349 8.12973 17.404C8.15624 17.4352 8.18274 17.465 8.20924 17.4966ZM7.68895 16.909H7.68839C7.80333 17.0321 7.91855 17.1587 8.03377 17.2918C8.0399 17.2988 8.04604 17.306 8.0519 17.313L7.60358 17.4031L7.29838 16.988L7.68811 16.9088C7.63455 16.8499 7.58071 16.7933 7.52714 16.7372C7.58126 16.7927 7.63511 16.8513 7.68895 16.909ZM7.1176 16.3352C7.24063 16.4504 7.36589 16.574 7.49143 16.7012C7.50036 16.7104 7.50929 16.7188 7.51849 16.7283L7.16029 16.7989L6.85815 16.3837L7.11509 16.333C7.11593 16.3338 7.11677 16.3344 7.1176 16.3352ZM6.46423 15.7711C6.46954 15.7753 6.47456 15.7786 6.47958 15.7828L6.90502 16.1399C6.9106 16.1449 6.91618 16.1502 6.92176 16.1552L6.71978 16.1974L6.41765 15.7823L6.46423 15.7711ZM5.6923 15.2369L5.69147 15.2371C5.72829 15.2597 5.76484 15.2795 5.80445 15.3049L5.80362 15.3038C5.89763 15.3627 5.99332 15.4266 6.09013 15.4941C5.99388 15.4274 5.89847 15.3629 5.80445 15.3049L6.05023 15.6383L5.57848 15.7343L5.27356 15.3191L5.69147 15.2371C5.59661 15.1802 5.50678 15.1289 5.41472 15.0823C5.50567 15.1292 5.59801 15.1808 5.6923 15.2369ZM5.13797 15.1325L4.95022 14.8786C5.09529 14.9316 5.24566 14.9955 5.40272 15.0762L5.13797 15.1325ZM4.61349 14.7749L4.90921 15.1774L4.43467 15.2734L4.04577 14.7389C4.09878 14.7313 4.15067 14.7221 4.20842 14.7221C4.3334 14.7224 4.47038 14.7425 4.61349 14.7749ZM3.64879 14.8731C3.70124 14.8385 3.75926 14.812 3.82008 14.7894L4.2087 15.3189L3.73416 15.4148L3.46327 15.0452C3.51878 14.9782 3.5796 14.9188 3.64879 14.8731ZM3.33884 15.2313L3.50539 15.46L3.22892 15.5164C3.25878 15.4126 3.29449 15.3158 3.33884 15.2313ZM3.17452 15.7477L3.1748 15.7482C3.1748 15.7471 3.1748 15.7465 3.1748 15.746C3.17508 15.7446 3.17536 15.7438 3.17564 15.7424L3.64349 15.6495L3.94841 16.0646L3.47666 16.1605L3.1748 15.7482C3.17257 15.7613 3.1709 15.7761 3.16867 15.7895C3.17118 15.7758 3.17229 15.7613 3.17452 15.7477ZM3.14161 16.0623L3.24845 16.2057L3.13965 16.2281C3.13993 16.1725 3.13854 16.1154 3.14161 16.0623ZM3.25654 17.3164L3.42923 17.5529L3.31625 17.5755C3.33243 17.6433 3.34638 17.7061 3.36228 17.7736C3.32015 17.616 3.28639 17.4645 3.25654 17.3164ZM3.56761 17.7424L3.86974 18.1575L3.50037 18.2308C3.45043 18.078 3.40329 17.927 3.36423 17.782L3.56761 17.7424ZM3.56788 18.4342L4.00811 18.3466L4.31303 18.7617L3.83849 18.8549L3.60248 18.5319C3.59104 18.4995 3.57904 18.4666 3.56788 18.4342ZM4.31303 20.1513C4.32782 20.1801 4.34344 20.2088 4.35795 20.2373C4.34289 20.2085 4.32782 20.1801 4.31303 20.1513ZM4.41458 20.3405L4.63247 20.2986L4.9346 20.7137L4.64976 20.7701C4.56663 20.625 4.49046 20.4828 4.41458 20.3405ZM4.76303 20.9648L5.07297 20.9001L5.3751 21.3152L5.02275 21.3886C4.9332 21.2463 4.84616 21.1052 4.76303 20.9648ZM5.22362 21.7055C5.17759 21.6361 5.13686 21.5677 5.0925 21.4985C5.10952 21.5253 5.1257 21.5518 5.14355 21.578L5.51348 21.5047L5.8184 21.9198L5.42588 21.9987C5.35837 21.9011 5.28974 21.8054 5.22362 21.7055ZM5.55644 22.1879L5.95398 22.1089L6.25891 22.5212L5.86359 22.6033C5.76037 22.4671 5.65743 22.3296 5.55644 22.1879ZM6.49995 23.3822L6.83835 23.3149L7.14048 23.7301L6.85871 23.7864C6.73791 23.6578 6.61879 23.5197 6.49995 23.3822ZM7.43815 24.3628C7.30312 24.2367 7.16838 24.105 7.03447 23.9675L7.27913 23.917L7.58433 24.3321L7.43815 24.3628ZM7.63148 24.5405L7.71964 24.5212L7.90571 24.7748C7.81421 24.6992 7.72271 24.6211 7.63148 24.5405ZM7.9484 24.4761L8.42294 24.3801L8.72508 24.7952L8.25332 24.8912L7.9484 24.4761ZM8.88019 25.4558L8.77864 25.3797C8.77613 25.3777 8.77306 25.3772 8.77055 25.3755C8.74237 25.3559 8.71168 25.3445 8.67988 25.337L8.5044 25.2329C8.52756 25.2483 8.54988 25.263 8.57219 25.2778C8.54513 25.2608 8.51835 25.2446 8.49073 25.2254C8.47511 25.2145 8.45893 25.2014 8.44331 25.1902C8.45893 25.2011 8.47455 25.2139 8.49017 25.2245C8.49575 25.2273 8.49854 25.2301 8.5044 25.2329L8.39142 25.0775L8.86317 24.9844L9.1653 25.3995L8.88019 25.4558ZM10.3437 26.5413C10.6707 26.5413 10.9622 26.4601 11.2094 26.2967C11.4836 26.1153 11.6836 25.8425 11.8109 25.4932L12.4458 27.6656C12.3579 27.6698 12.2706 27.7002 12.1975 27.7605C12.1582 27.7928 12.1275 27.8316 12.1032 27.8729L10.3264 26.5402C10.3317 26.5405 10.3378 26.5413 10.3437 26.5413Z" fill="#263238"/>
<path d="M14.893 32.1728C14.893 32.1728 15.8817 32.0316 16.3051 32.2434C16.7289 32.4551 17.9294 33.5144 17.5762 33.7262C17.2233 33.9379 16.8701 34.5028 16.4463 34.4322C16.0225 34.3617 14.9635 33.4435 14.6104 33.0201" fill="white"/>
<path d="M14.893 32.1728C14.893 32.1728 15.8817 32.0316 16.3051 32.2434C16.7289 32.4551 17.9294 33.5144 17.5762 33.7262C17.2233 33.9379 16.8701 34.5028 16.4463 34.4322C16.0225 34.3617 14.9635 33.4435 14.6104 33.0201" stroke="#263238" stroke-width="0.278978" stroke-miterlimit="10" stroke-linecap="round" stroke-linejoin="round"/>
<path d="M17.2238 31.9607C17.2238 31.9607 16.2351 32.3139 15.5996 32.3139C14.9641 32.3139 14.3286 32.8788 14.6109 33.02C14.8932 33.1611 15.9525 33.02 15.9525 33.02C15.9525 33.02 17.153 34.0087 18.212 33.0906" fill="white"/>
<path d="M17.2238 31.9607C17.2238 31.9607 16.2351 32.3139 15.5996 32.3139C14.9641 32.3139 14.3286 32.8788 14.6109 33.02C14.8932 33.1611 15.9525 33.02 15.9525 33.02C15.9525 33.02 17.153 34.0087 18.212 33.0906" stroke="#263238" stroke-width="0.278978" stroke-miterlimit="10" stroke-linecap="round" stroke-linejoin="round"/>
<path d="M58.7748 30.8679C58.7748 30.8679 61.595 33.1045 61.8678 33.5327C62.671 34.7934 61.5197 38.8632 61.0987 40.7139C60.7218 42.3721 60.0609 44.5708 60.1563 44.7136C60.2514 44.8564 61.7741 45.9983 61.8692 46.6171C61.9644 47.2356 62.0595 47.9495 61.8692 48.0923C61.679 48.2351 61.5838 47.7115 61.5361 47.4261C61.4884 47.1407 61.2507 46.7599 61.2507 46.7599C61.2507 46.7599 61.0605 48.1397 61.0605 48.3303C61.0605 48.5205 60.6322 49.0916 60.4894 49.0916C60.3466 49.0916 60.3943 48.4254 60.3943 48.2826C60.3943 48.1397 60.3466 46.9979 60.3466 46.9979C60.3466 46.9979 60.0612 48.5205 59.9658 48.7108C59.8706 48.9011 59.4424 49.6624 59.2044 49.3293C58.9665 48.9962 59.2521 48.6157 59.2996 48.2826C59.3473 47.9495 59.422 46.9544 59.422 46.9544C59.422 46.9544 58.928 48.0022 58.8326 48.2402C58.7374 48.4781 58.221 49.0431 58.0623 48.9014C57.922 48.7761 58.0827 48.3205 58.2969 47.8384C58.4074 47.5896 58.3505 46.8204 58.3505 46.8204C58.3505 46.8204 57.8243 45.5229 57.5389 45.5229C57.2535 45.5229 56.1114 46.094 55.6832 46.2843C55.2549 46.4745 54.7316 46.332 55.017 46.1414C55.3024 45.9512 56.0163 45.3324 56.2065 45.1421C56.3968 44.9519 56.8727 44.5236 57.1107 44.4282C57.3487 44.3331 58.5326 43.9216 58.5326 43.9216C58.5326 43.9216 58.5368 39.0052 58.4891 37.8633C58.4596 37.1536 58.4643 36.3688 58.4721 35.8761C58.4771 35.5651 58.3337 35.2713 58.086 35.083L57.2996 34.4849C57.2998 34.484 56.11 31.5815 58.7748 30.8679Z" fill="white" stroke="#263238" stroke-width="0.278978" stroke-miterlimit="10" stroke-linecap="round" stroke-linejoin="round"/>
<path d="M59.4221 46.9538C59.4221 46.9538 59.4665 46.494 59.3672 46.1958" stroke="#263238" stroke-width="0.278978" stroke-miterlimit="10" stroke-linecap="round" stroke-linejoin="round"/>
<path d="M60.3465 46.9973C60.3465 46.9973 60.3613 46.3615 60.3281 46.1958" stroke="#263238" stroke-width="0.278978" stroke-miterlimit="10" stroke-linecap="round" stroke-linejoin="round"/>
<path d="M61.2505 46.7593C61.2505 46.7593 61.2888 46.3944 61.123 46.1626" stroke="#263238" stroke-width="0.278978" stroke-miterlimit="10" stroke-linecap="round" stroke-linejoin="round"/>
<path d="M31.2017 71.8552C31.2017 71.8552 29.108 71.3318 28.3944 72.0455C27.6805 72.7594 28.6323 73.9489 28.3944 74.8054C28.1564 75.6619 27.9661 77.2797 28.2041 77.8984C28.4421 78.5169 29.3462 80.4681 30.0122 80.0873C30.6784 79.7065 30.8212 77.8984 30.8212 76.8991C30.8212 75.8998 31.0592 74.1869 31.3446 73.9489C31.63 73.711 31.9156 72.7117 31.2017 71.8552Z" fill="#C6FF00" stroke="#263238" stroke-width="0.278978" stroke-miterlimit="10" stroke-linecap="round" stroke-linejoin="round"/>
<path d="M41.0994 58.9123C41.0994 58.9123 39.6241 63.5754 39.529 64.1465C39.4339 64.7175 39.291 65.0029 39.291 65.0029C39.291 65.0029 36.1029 66.5256 35.1987 67.62C34.2945 68.7145 32.9621 70.38 32.2959 70.8082C31.6297 71.2364 30.8207 71.8552 30.4402 72.3786C30.0594 72.9019 30.2879 75.3045 30.8684 74.9005C31.9628 74.1392 36.7688 70.7131 39.6716 69.1904C41.4682 68.2477 44.2873 66.5256 44.9535 65.574C45.6197 64.6224 46.6664 60.2447 47.0472 59.0074C47.428 57.7704 41.9558 58.1987 41.0994 58.9123Z" fill="white" stroke="#263238" stroke-width="0.278978" stroke-miterlimit="10" stroke-linecap="round" stroke-linejoin="round"/>
<path d="M33.836 69.2585C33.2423 69.9501 32.6662 70.5706 32.296 70.8085C31.6298 71.2368 30.8208 71.8556 30.4402 72.3789C30.0594 72.9023 30.2876 75.3048 30.8685 74.9009C31.4987 74.4626 33.3592 73.1408 35.3784 71.8078C33.752 71.8706 33.7386 70.1376 33.836 69.2585Z" fill="#263238" stroke="#263238" stroke-width="0.278978" stroke-miterlimit="10" stroke-linecap="round" stroke-linejoin="round"/>
<path d="M37.9585 45.4934C37.9585 45.4934 37.5303 47.5872 37.5303 49.4906C37.5303 51.3941 40.6233 56.3903 40.8136 56.6283C41.0038 56.8663 40.5282 58.96 40.5282 58.96C40.5282 58.96 40.8136 59.7213 42.7647 60.007C44.7159 60.2927 47.3327 59.8167 47.3327 59.8167C47.3327 59.8167 49.4265 55.677 50.3781 53.0599C51.3296 50.4428 51.6628 45.0181 51.6628 45.0181C51.6628 45.0181 49.5213 45.8745 46.3332 45.8745C43.145 45.8745 38.4342 45.256 38.4342 45.256C38.4342 45.256 38.0062 45.1603 37.9585 45.4934Z" fill="#263238" stroke="#263238" stroke-width="0.278978" stroke-miterlimit="10" stroke-linecap="round" stroke-linejoin="round"/>
<path d="M40.8086 24.8288C40.8086 24.8288 37.2778 24.1227 35.5833 24.8994C33.8885 25.6761 33.6062 26.0293 33.1824 26.5942C32.7587 27.1591 31.4876 28.289 31.4876 28.289C31.4876 28.289 31.0639 29.9838 30.9933 30.831C30.9227 31.6783 31.3465 32.8082 31.3465 32.8082L35.2301 34.5029C35.2301 34.5029 37.9133 40.7169 38.0545 41.9879C38.1957 43.259 38.4077 43.5416 37.9839 43.8239C37.5601 44.1065 37.0661 45.0243 37.3484 45.5187C37.631 46.013 40.5965 46.2248 42.1502 46.4365C43.7035 46.6483 48.7879 46.7897 50.0589 46.5071C51.33 46.2245 52.0361 45.589 52.0361 44.8829C52.0361 44.1768 51.8243 43.4707 51.7537 42.9763C51.6831 42.482 51.2594 34.0792 51.2594 34.0792C51.2594 34.0792 54.7315 35.3851 55.4376 35.8088C56.1437 36.2326 57.4853 36.7267 57.4853 36.7267C57.4853 36.7267 57.1321 34.467 57.8385 32.9136C58.5446 31.3603 59.039 31.0777 59.039 31.0777C59.039 31.0777 53.9041 26.758 53.5509 26.6871C53.1977 26.6165 50.0589 25.1111 48.4347 24.8288C46.8108 24.5465 40.8086 24.8288 40.8086 24.8288Z" fill="#C6FF00" stroke="#263238" stroke-width="0.278978" stroke-miterlimit="10" stroke-linecap="round" stroke-linejoin="round"/>
<path d="M35.2311 34.503C35.2311 34.503 34.3911 31.5514 34.1055 29.3625" stroke="#263238" stroke-width="0.278978" stroke-miterlimit="10" stroke-linecap="round" stroke-linejoin="round"/>
<path d="M33.0586 29.0293C33.0586 29.0293 34.2007 32.836 35.1523 34.0732" stroke="#263238" stroke-width="0.278978" stroke-miterlimit="10" stroke-linecap="round" stroke-linejoin="round"/>
<path d="M51.2596 34.0794C51.2596 34.0794 49.1416 32.5983 48.2852 29.553" stroke="#263238" stroke-width="0.278978" stroke-miterlimit="10" stroke-linecap="round" stroke-linejoin="round"/>
<path d="M51.0936 33.9781C51.0936 33.9781 49.5709 33.883 47.9531 31.9795" stroke="#263238" stroke-width="0.278978" stroke-miterlimit="10" stroke-linecap="round" stroke-linejoin="round"/>
<path d="M36.1035 36.6904C36.1035 36.6904 40.1007 43.257 42.575 44.8274" stroke="#263238" stroke-width="0.278978" stroke-miterlimit="10" stroke-linecap="round" stroke-linejoin="round"/>
<path d="M37.7695 40.7354C37.7695 40.7354 39.5779 43.8284 40.4818 44.542" stroke="#263238" stroke-width="0.278978" stroke-miterlimit="10" stroke-linecap="round" stroke-linejoin="round"/>
<path d="M40.3389 24.4036C40.3389 24.4036 39.0824 24.4441 38.4338 25.4981C37.7851 26.5521 37.5014 31.6189 37.5419 31.8214C37.5823 32.0242 39.8928 30.1595 41.7171 30.2C43.541 30.2404 45.4057 32.8754 45.4057 32.8754C45.4057 32.8754 46.6218 30.8081 46.2164 27.8086C45.8111 24.809 42.7303 23.7146 40.3389 24.4036Z" fill="#263238" stroke="#263238" stroke-width="0.278978" stroke-miterlimit="10" stroke-linecap="round" stroke-linejoin="round"/>
<path d="M45.0615 17.9561C45.0615 17.9561 45.9788 18.1679 46.4725 17.2506C46.9663 16.3333 46.6137 15.8395 45.9788 15.8395C45.3438 15.8395 44.85 15.8395 44.85 15.8395C44.85 15.8395 45.0941 14.4229 43.9654 14.4229C42.8366 14.4229 40.6935 15.5667 40.6935 15.5667C40.6935 15.5667 37.2041 16.0521 37.1226 18.4959C37.0085 21.9165 39.1354 22.6123 39.1354 22.6123C39.1354 22.6123 39.6998 23.2472 40.1936 22.7534C40.6874 22.2596 40.8285 21.6953 40.8285 21.6953C40.8285 21.6953 41.8164 21.4129 41.8164 20.7077C41.8164 20.0024 40.6877 19.3672 41.1814 18.944C41.675 18.5205 45.0615 17.9561 45.0615 17.9561Z" fill="#263238" stroke="#263238" stroke-width="0.278978" stroke-miterlimit="10" stroke-linecap="round" stroke-linejoin="round"/>
<path d="M42.173 16.0524C42.173 16.0524 42.0101 15.2378 42.5803 15.2378C43.1506 15.2378 43.4354 16.2664 43.1095 17.081C42.7837 17.8956 40.5438 18.089 39.2404 18.6592C37.937 19.2294 37.4482 20.6143 37.4482 20.6143" stroke="white" stroke-width="0.139489" stroke-miterlimit="10" stroke-linecap="round" stroke-linejoin="round"/>
<path d="M38.1807 21.347C38.1807 21.347 38.5065 20.4509 39.8099 19.9622" stroke="white" stroke-width="0.139489" stroke-miterlimit="10" stroke-linecap="round" stroke-linejoin="round"/>
<path d="M47.0003 55.1056C47.0003 55.1056 48.0947 57.8655 48.3327 59.3882C48.5707 60.9109 48.4756 66.7161 48.6658 68.9527C48.8561 71.1892 50.5693 76.7565 50.5693 76.7565C50.5693 76.7565 53.2341 75.3764 54.1857 74.9008C55.1373 74.4248 55.8035 74.0917 55.8035 74.8056C55.8035 75.5195 55.2324 77.3753 54.4236 77.8987C53.6146 78.422 52.0445 78.9931 51.854 79.4213C51.6637 79.8496 50.7118 81.1343 50.0456 81.2771C49.3794 81.4199 48.8084 80.6109 48.5704 80.0875C48.3324 79.5642 47.9519 77.6133 47.9519 77.6133C47.9519 77.6133 45.6679 72.5694 44.5735 70.3805C43.479 68.1916 42.8606 65.7171 42.8606 64.385C42.8606 63.0526 43.6219 60.7209 43.5268 60.3878C43.4316 60.0547 41.3379 56.9616 41.3379 56.9616C41.3379 56.9616 41.6233 55.7244 43.4793 55.201C45.3348 54.6774 47.0003 55.1056 47.0003 55.1056Z" fill="white" stroke="#263238" stroke-width="0.278978" stroke-miterlimit="10" stroke-linecap="round" stroke-linejoin="round"/>
<path d="M54.185 74.9006C53.2334 75.3765 50.5686 76.7564 50.5686 76.7564C50.5686 76.7564 49.5523 73.4527 48.9986 70.9126C48.3089 70.9436 47.2689 71.1578 46.3812 72.0455C46.1234 72.3033 45.9055 72.5424 45.7178 72.7636C46.7835 75.0337 47.9515 77.6128 47.9515 77.6128C47.9515 77.6128 48.3324 79.5637 48.57 80.0874C48.808 80.6107 49.3791 81.4198 50.0453 81.2769C50.7115 81.1341 51.6631 79.8494 51.8536 79.4212C52.0439 78.9929 53.6142 78.4219 54.4233 77.8985C55.2323 77.3751 55.8031 75.5194 55.8031 74.8055C55.8031 74.0916 55.1366 74.4249 54.185 74.9006Z" fill="#263238" stroke="#263238" stroke-width="0.278978" stroke-miterlimit="10" stroke-linecap="round" stroke-linejoin="round"/>
<path d="M48.2744 79.0907C48.3751 79.5041 48.4825 79.8936 48.5707 80.0872C48.8087 80.6105 49.3797 81.4196 50.0459 81.2768C50.7121 81.1339 51.6637 79.8492 51.8543 79.421C52.0445 78.9928 53.6149 78.4217 54.4239 77.8983C55.233 77.375 55.8038 75.5192 55.8038 74.8053C55.8038 74.0914 55.1376 74.4245 54.186 74.9004C53.2344 75.3764 50.5696 76.7562 50.5696 76.7562C50.5696 76.7562 49.0405 77.4548 48.2744 79.0907Z" fill="#C6FF00" stroke="#263238" stroke-width="0.278978" stroke-miterlimit="10" stroke-linecap="round" stroke-linejoin="round"/>
<path d="M51.8537 79.4211C52.044 78.9928 53.6144 78.4218 54.4234 77.8984C55.2324 77.375 55.8032 75.5193 55.8032 74.8054C55.8032 74.4458 55.6339 74.3523 55.3446 74.4084C54.2493 75.2283 50.983 77.7416 49.998 79.2782C49.4729 80.097 49.2916 80.6932 49.3421 81.0958C49.5544 81.2478 49.7929 81.3307 50.0457 81.2765C50.7116 81.1343 51.6635 79.8493 51.8537 79.4211Z" fill="white" stroke="#263238" stroke-width="0.278978" stroke-miterlimit="10" stroke-linecap="round" stroke-linejoin="round"/>
<path d="M43.1926 47.9678C43.1926 47.9678 45.0009 49.6807 45.7622 51.156C46.5236 52.6312 47.38 55.4863 47.38 55.4863C47.38 55.4863 44.8103 55.6291 43.7636 55.9622C42.7169 56.2953 41.194 58.627 41.194 58.627C41.194 58.627 39.5285 55.8196 38.5769 53.9639C37.6253 52.1081 37.3396 50.2524 37.5776 48.8248C37.8155 47.3973 38.1486 47.207 38.1486 47.207" fill="#263238"/>
<path d="M43.1926 47.9678C43.1926 47.9678 45.0009 49.6807 45.7622 51.156C46.5236 52.6312 47.38 55.4863 47.38 55.4863C47.38 55.4863 44.8103 55.6291 43.7636 55.9622C42.7169 56.2953 41.194 58.627 41.194 58.627C41.194 58.627 39.5285 55.8196 38.5769 53.9639C37.6253 52.1081 37.3396 50.2524 37.5776 48.8248C37.8155 47.3973 38.1486 47.207 38.1486 47.207" stroke="#263238" stroke-width="0.278978" stroke-miterlimit="10" stroke-linecap="round" stroke-linejoin="round"/>
<path d="M43.6689 47.4919C43.6689 47.4919 46.3337 49.7285 47.0951 52.2028" stroke="white" stroke-width="0.278978" stroke-miterlimit="10" stroke-linecap="round" stroke-linejoin="round"/>
<path d="M47.1436 50.0139C47.1436 50.0139 48.1429 51.7268 48.2857 52.7738" stroke="white" stroke-width="0.278978" stroke-miterlimit="10" stroke-linecap="round" stroke-linejoin="round"/>
<path d="M39.3965 23.699L40.1732 26.241C40.1732 26.241 39.82 27.7238 40.1026 29.0657C40.3852 30.4073 40.8793 31.396 41.5148 31.396C42.1503 31.396 44.6923 28.854 44.9041 27.5124C45.1158 26.1707 45.1158 25.6764 45.1158 25.6764C45.1158 25.6764 43.633 25.747 42.2206 24.8997C40.8087 24.0522 39.3965 22.7812 39.3965 23.699Z" fill="white" stroke="#263238" stroke-width="0.278978" stroke-miterlimit="10" stroke-linecap="round" stroke-linejoin="round"/>
<path d="M39.2039 22.3301C39.2039 22.3301 37.9834 21.7228 37.9834 22.5692C37.9834 23.4159 38.5804 24.0023 38.851 24.1644C39.3557 24.4663 39.6977 24.0233 39.6977 24.0233C39.6977 24.0233 41.1794 25.3638 41.8849 25.9987C42.5904 26.6337 43.8604 27.3392 44.7774 26.6337C45.6946 25.9281 45.6241 24.3762 45.6241 24.3762C45.6241 24.3762 46.1884 21.7658 45.9064 20.2841C45.6241 18.8025 45.0597 17.9561 45.0597 17.9561C45.0597 17.9561 42.167 17.6034 40.9676 18.5204C39.7683 19.4377 40.0503 19.7903 40.5444 20.2135C41.0382 20.6368 41.25 20.9897 41.0382 21.2011C40.8265 21.4129 40.2621 21.6949 40.2621 21.6949C40.2621 21.6949 40.2621 22.8945 39.2039 22.3301Z" fill="white" stroke="#263238" stroke-width="0.278978" stroke-miterlimit="10" stroke-linecap="round" stroke-linejoin="round"/>
<path d="M44.3466 21.1128C44.3466 21.1128 44.9068 22.879 44.7773 23.0085C44.6482 23.1376 43.7002 23.2238 43.7002 23.2238" stroke="#263238" stroke-width="0.278978" stroke-miterlimit="10" stroke-linecap="round" stroke-linejoin="round"/>
<path d="M44.1758 20.6823C44.1758 20.6823 44.5203 19.8638 45.3391 19.8638" stroke="#263238" stroke-width="0.278978" stroke-miterlimit="10" stroke-linecap="round" stroke-linejoin="round"/>
<path d="M43.4418 21.0699C43.4418 21.0699 42.1063 20.6392 41.417 21.2423" stroke="#263238" stroke-width="0.278978" stroke-miterlimit="10" stroke-linecap="round" stroke-linejoin="round"/>
<path d="M43.4424 24.6025H44.1747" stroke="#263238" stroke-width="0.278978" stroke-miterlimit="10" stroke-linecap="round" stroke-linejoin="round"/>
<path d="M42.8824 21.7808C42.8824 21.9398 42.8148 22.0687 42.7317 22.0687C42.6486 22.0687 42.5811 21.9398 42.5811 21.7808C42.5811 21.6218 42.6486 21.4929 42.7317 21.4929C42.8148 21.4929 42.8824 21.6218 42.8824 21.7808Z" fill="#263238"/>
<path d="M44.929 21.2931C45.0122 21.2931 45.0796 21.1642 45.0796 21.0052C45.0796 20.8462 45.0122 20.7173 44.929 20.7173C44.8458 20.7173 44.7783 20.8462 44.7783 21.0052C44.7783 21.1642 44.8458 21.2931 44.929 21.2931Z" fill="#263238"/>
<path d="M40.1729 26.2412L41.0201 28.5715" stroke="#263238" stroke-width="0.278978" stroke-miterlimit="10" stroke-linecap="round" stroke-linejoin="round"/>
<mask id="mask0_1827_6185" style="mask-type:luminance" maskUnits="userSpaceOnUse" x="70" y="49" width="26" height="34">
<path d="M70.9316 49.9504V82.9887C75.7555 83.0869 80.1117 82.5602 83.5049 80.6844C90.5926 76.7661 94.0843 69.9657 95.0588 62.0082C95.5261 58.1917 95.4125 54.1089 94.8409 49.9504H70.9316Z" fill="white"/>
</mask>
<g mask="url(#mask0_1827_6185)">
<path d="M81.6396 58.2122V83.7638" stroke="#263238" stroke-width="0.278978" stroke-miterlimit="10" stroke-linecap="round" stroke-linejoin="round"/>
<path d="M83.3496 58.2122V83.7638" stroke="#263238" stroke-width="0.278978" stroke-miterlimit="10" stroke-linecap="round" stroke-linejoin="round"/>
<path d="M85.0596 58.2122V83.7638" stroke="#263238" stroke-width="0.278978" stroke-miterlimit="10" stroke-linecap="round" stroke-linejoin="round"/>
<path d="M86.7686 58.2122V83.7638" stroke="#263238" stroke-width="0.278978" stroke-miterlimit="10" stroke-linecap="round" stroke-linejoin="round"/>
<path d="M88.4766 58.2122V83.7638" stroke="#263238" stroke-width="0.278978" stroke-miterlimit="10" stroke-linecap="round" stroke-linejoin="round"/>
<path d="M90.1865 58.2122V83.7638" stroke="#263238" stroke-width="0.278978" stroke-miterlimit="10" stroke-linecap="round" stroke-linejoin="round"/>
<path d="M91.8965 58.2122V83.7638" stroke="#263238" stroke-width="0.278978" stroke-miterlimit="10" stroke-linecap="round" stroke-linejoin="round"/>
<path d="M93.6064 58.2122V83.7638" stroke="#263238" stroke-width="0.278978" stroke-miterlimit="10" stroke-linecap="round" stroke-linejoin="round"/>
<path d="M95.3154 58.2122V83.7638" stroke="#263238" stroke-width="0.278978" stroke-miterlimit="10" stroke-linecap="round" stroke-linejoin="round"/>
<path d="M79.2109 60.4617H98.7344" stroke="#263238" stroke-width="0.278978" stroke-miterlimit="10" stroke-linecap="round" stroke-linejoin="round"/>
<path d="M79.2109 62.0811H98.7344" stroke="#263238" stroke-width="0.278978" stroke-miterlimit="10" stroke-linecap="round" stroke-linejoin="round"/>
<path d="M79.2109 63.7002H98.7344" stroke="#263238" stroke-width="0.278978" stroke-miterlimit="10" stroke-linecap="round" stroke-linejoin="round"/>
<path d="M79.2109 65.3198H98.7344" stroke="#263238" stroke-width="0.278978" stroke-miterlimit="10" stroke-linecap="round" stroke-linejoin="round"/>
<path d="M79.2109 66.9392H98.7344" stroke="#263238" stroke-width="0.278978" stroke-miterlimit="10" stroke-linecap="round" stroke-linejoin="round"/>
<path d="M79.2109 68.5586H98.7344" stroke="#263238" stroke-width="0.278978" stroke-miterlimit="10" stroke-linecap="round" stroke-linejoin="round"/>
<path d="M79.2109 70.178H98.7344" stroke="#263238" stroke-width="0.278978" stroke-miterlimit="10" stroke-linecap="round" stroke-linejoin="round"/>
<path d="M79.2109 71.7976H98.7344" stroke="#263238" stroke-width="0.278978" stroke-miterlimit="10" stroke-linecap="round" stroke-linejoin="round"/>
<path d="M79.2109 73.417H98.7344" stroke="#263238" stroke-width="0.278978" stroke-miterlimit="10" stroke-linecap="round" stroke-linejoin="round"/>
<path d="M79.2109 75.0366H98.7344" stroke="#263238" stroke-width="0.278978" stroke-miterlimit="10" stroke-linecap="round" stroke-linejoin="round"/>
<path d="M79.2109 76.656H98.7344" stroke="#263238" stroke-width="0.278978" stroke-miterlimit="10" stroke-linecap="round" stroke-linejoin="round"/>
<path d="M79.2109 78.2754H98.7344" stroke="#263238" stroke-width="0.278978" stroke-miterlimit="10" stroke-linecap="round" stroke-linejoin="round"/>
<path d="M79.2109 79.8948H98.7344" stroke="#263238" stroke-width="0.278978" stroke-miterlimit="10" stroke-linecap="round" stroke-linejoin="round"/>
<path d="M79.2109 81.5144H98.7344" stroke="#263238" stroke-width="0.278978" stroke-miterlimit="10" stroke-linecap="round" stroke-linejoin="round"/>
<path d="M98.8227 56.689H78.0742V59.1161H98.8227V56.689Z" fill="white" stroke="#263238" stroke-width="0.278978" stroke-miterlimit="10"/>
<path d="M76.8154 84.1427V57.8404C76.8154 56.8564 77.613 56.0588 78.597 56.0588C79.5809 56.0588 80.3783 56.8564 80.3783 57.8404V83.0949" fill="#263238"/>
<path d="M76.8154 84.1427V57.8404C76.8154 56.8564 77.613 56.0588 78.597 56.0588C79.5809 56.0588 80.3783 56.8564 80.3783 57.8404V83.0949" stroke="white" stroke-width="0.278978" stroke-miterlimit="10"/>
</g>
</svg>
