<svg width="23" height="23" viewBox="0 0 23 23" fill="none" xmlns="http://www.w3.org/2000/svg">
<path d="M5.80664 0.242126H16.8936C19.8515 0.242126 22.249 2.64061 22.249 5.59857V11.1855C22.249 14.1434 19.8515 16.5419 16.8936 16.5419H15.833V21.2245C15.833 22.0475 14.7819 22.3274 14.3506 21.7011L14.2734 21.5634C13.8489 20.6313 13.201 19.7439 12.3838 18.915L12.0234 18.5634C11.5474 18.1162 11.0438 17.7079 10.5342 17.3408L10.0234 16.9872C9.74126 16.8003 9.50454 16.6552 9.33008 16.5546L9.30664 16.5419H5.80664C2.84868 16.5419 0.450195 14.1434 0.450195 11.1855V5.59857C0.450195 2.73319 2.70061 0.393583 5.53027 0.249939L5.80664 0.242126ZM5.80664 1.87592C3.75073 1.87592 2.08398 3.54262 2.08398 5.59857V11.1855C2.08398 13.2414 3.75068 14.9081 5.80664 14.9081H9.5166C9.61554 14.9081 9.71361 14.9261 9.80566 14.9609L9.89551 15.0019C10.0562 15.0861 10.2987 15.225 10.6025 15.4169L10.9258 15.6259C11.5862 16.0635 12.2461 16.5648 12.874 17.1279L13.1416 17.373C13.4544 17.6668 13.7498 17.9685 14.0254 18.2783L14.2002 18.4755V15.7245C14.2004 15.2737 14.5657 14.9081 15.0166 14.9081H16.8936C18.9495 14.9081 20.6162 13.2414 20.6162 11.1855V5.59857C20.6162 3.54266 18.9495 1.87592 16.8936 1.87592H5.80664Z" fill="#8B9B75" stroke="white" stroke-width="0.2"/>
</svg>
