<svg width="50" height="50" viewBox="0 0 50 50" fill="none" xmlns="http://www.w3.org/2000/svg">
<rect x="1.5" y="1.5" width="47.0005" height="47" rx="23.5" fill="white"/>
<rect x="1.5" y="1.5" width="47.0005" height="47" rx="23.5" stroke="#8B9B75" stroke-width="3"/>
<path d="M37.1227 13.5895C36.4909 12.9563 35.6828 12.5595 34.7787 12.367V13.1928H36.1266V15.4318H36.0869C37.4806 17.4623 36.5194 21.0799 34.3921 23.2122C32.2473 25.3519 29.6824 25.2301 27.803 23.6564H25.1422C25.2212 23.7692 25.3025 23.8812 25.3889 23.9908L20.2403 29.1394L17.285 30.872L12.5257 35.6368C12.2022 35.9603 12.1309 36.4538 12.3393 36.8541C12.6902 37.5175 13.1946 38.0274 13.8581 38.3729C14.2638 38.5867 14.7573 38.5154 15.0753 38.1919L19.8401 33.4272L21.5782 30.4773L26.7268 25.3287C29.2161 27.2861 32.5443 27.3739 35.3407 24.5775C38.4057 21.5125 39.6668 16.1281 37.1227 13.5895Z" fill="black"/>
<path d="M14.3514 38.7794C14.14 38.7797 13.9255 38.7283 13.726 38.6233C13.0203 38.2557 12.4692 37.7048 12.0892 36.9865C11.8197 36.4691 11.9151 35.8473 12.3255 35.4368L17.0849 30.6719C17.1017 30.6551 17.1211 30.6401 17.1418 30.628L20.066 28.9136L25.0147 23.9649C24.9796 23.9165 24.9447 23.8679 24.9105 23.8192C24.8499 23.733 24.8422 23.6197 24.8908 23.526C24.9395 23.4323 25.0365 23.3734 25.1421 23.3734H27.8031C27.8694 23.3734 27.9338 23.3969 27.9847 23.4395C29.9227 25.0616 32.3013 24.8982 34.1923 23.0119C36.3235 20.8754 37.1002 17.4079 35.8537 15.5921C35.7942 15.5053 35.7876 15.3928 35.8365 15.2999C35.8387 15.2958 35.841 15.2916 35.8434 15.2875V13.4758H34.7788C34.6224 13.4758 34.4958 13.3492 34.4958 13.1927V12.3669C34.4958 12.2815 34.5345 12.2005 34.6008 12.1469C34.6674 12.0933 34.7553 12.0723 34.8377 12.09C35.8393 12.3036 36.6756 12.7406 37.3232 13.3895C38.5857 14.6499 39.044 16.6205 38.6134 18.938C38.2121 21.0979 37.0919 23.2264 35.5408 24.7777C32.8966 27.4225 29.5493 27.7666 26.752 25.7036L21.8039 30.652L20.0839 33.5709C20.0718 33.5914 20.0571 33.6105 20.0403 33.6273L15.2754 38.3919C15.0255 38.6465 14.6922 38.7794 14.3514 38.7794ZM17.4594 31.0978L12.7257 35.837C12.4911 36.072 12.4366 36.4279 12.5903 36.7234C12.9148 37.3367 13.3857 37.8077 13.9888 38.1219C14.2879 38.2789 14.6427 38.2275 14.8732 37.9937L19.6146 33.2525L21.3346 30.3336C21.3467 30.3132 21.3614 30.2941 21.3782 30.2773L26.5268 25.1285C26.6282 25.0268 26.7888 25.0171 26.9018 25.1061C29.4951 27.1458 32.6523 26.8667 35.1406 24.3775C36.5911 22.9268 37.6814 20.8547 38.0567 18.8343C38.4525 16.7059 38.0501 14.9144 36.923 13.7897C36.9227 13.7895 36.9227 13.7895 36.9225 13.7892C36.7646 13.6311 36.5936 13.4871 36.4095 13.3578V15.408C37.8318 17.6912 36.6441 21.3558 34.5925 23.4121C32.5332 25.4668 29.8387 25.6685 27.7017 23.9395H25.6672C25.6835 24.0284 25.657 24.123 25.589 24.191L20.4405 29.3395C20.4233 29.3566 20.4043 29.3713 20.3835 29.3834L17.4594 31.0978ZM35.0618 12.9097H35.5883C35.42 12.8404 35.2445 12.7798 35.0618 12.7281V12.9097Z" fill="black"/>
<path d="M27.882 37.7697L27.0828 38.155C26.0179 38.6683 24.7352 38.22 24.2219 37.155C23.7067 36.0863 24.155 34.8036 25.2199 34.2903L26.0191 33.9051L27.882 37.7697Z" fill="#283E42"/>
<path d="M26.1564 38.6503C25.2532 38.6503 24.3845 38.1446 23.9669 37.2781C23.3851 36.0708 23.8923 34.6162 25.097 34.0355L25.8961 33.6503C25.9635 33.6176 26.0412 33.6132 26.1125 33.6378C26.1832 33.6627 26.2415 33.7147 26.2739 33.7821L28.1367 37.6468C28.2047 37.7877 28.1456 37.9569 28.0049 38.0246L27.2058 38.4099C26.8673 38.5732 26.5091 38.6503 26.1564 38.6503ZM25.8869 34.2829L25.343 34.5452C24.4191 34.9904 24.0305 36.1062 24.4768 37.0324C24.9215 37.9561 26.0354 38.3444 26.9599 37.9002L27.5041 37.6377L25.8869 34.2829Z" fill="black"/>
<path d="M33.085 30.4159C32.9941 30.7841 32.7713 31.1197 32.4356 31.3458L26.6408 35.1912L26.0193 33.9066L30.4025 29.0013C31.1443 28.17 32.4971 28.3583 32.9777 29.3632C33.1393 29.7005 33.1692 30.0752 33.085 30.4159Z" fill="#DDDDDD"/>
<path d="M26.6406 35.4741C26.6155 35.4741 26.5906 35.4708 26.566 35.4642C26.487 35.4426 26.4215 35.3879 26.3858 35.3144L25.7645 34.03C25.7147 33.9269 25.7319 33.8037 25.8082 33.7183L30.1914 28.8127C30.6043 28.3503 31.2181 28.1272 31.8312 28.214C32.4428 28.3011 32.9668 28.685 33.233 29.2411C33.4173 29.6258 33.4627 30.0672 33.3598 30.4837C33.249 30.9326 32.9768 31.3223 32.5937 31.5804L26.7971 35.4269C26.7504 35.4581 26.6956 35.4741 26.6406 35.4741ZM26.3565 33.954L26.7542 34.776L32.2792 31.11C32.544 30.9315 32.7333 30.6606 32.8104 30.3483C32.8817 30.0589 32.8505 29.7527 32.7225 29.4857C32.5354 29.0946 32.1816 28.8356 31.7516 28.7743C31.3229 28.7151 30.8997 28.8693 30.6137 29.1897L26.3565 33.954Z" fill="black"/>
<path d="M34.4896 33.3457C34.3606 33.8677 33.9761 34.315 33.4192 34.4923L27.2608 36.4813L26.6407 35.1912L32.0313 31.6133C32.8466 31.0742 33.9499 31.3758 34.3739 32.256C34.5479 32.6138 34.5764 32.994 34.4896 33.3457Z" fill="#C9C9C9"/>
<path d="M27.2608 36.7643C27.1547 36.7643 27.0541 36.704 27.0057 36.604L26.3855 35.3138C26.3244 35.1864 26.3664 35.0333 26.4842 34.9554L31.8748 31.3775C32.3328 31.0743 32.8985 30.9837 33.4264 31.1302C33.9535 31.2753 34.3916 31.6407 34.629 32.1332C34.8247 32.5364 34.8716 32.9795 34.7641 33.4137C34.6052 34.0574 34.1345 34.5615 33.5052 34.7622L27.3479 36.7505C27.3191 36.7599 27.2898 36.7643 27.2608 36.7643ZM27.0024 35.2906L27.409 36.1361L33.3322 34.2232C33.7738 34.0823 34.1033 33.7293 34.2147 33.278C34.2899 32.9739 34.257 32.663 34.1193 32.3794C33.9527 32.0337 33.6456 31.7775 33.2761 31.6758C32.9054 31.5738 32.5083 31.6371 32.1874 31.8493L27.0024 35.2906Z" fill="black"/>
<path d="M35.8815 36.2082C35.7254 36.8402 35.1791 37.3525 34.4516 37.3943L27.8809 37.7714L27.2608 36.4813L33.8815 34.3441C34.629 34.1031 35.4358 34.4482 35.7687 35.1542C35.9385 35.5052 35.9643 35.873 35.8815 36.2082Z" fill="#DDDDDD"/>
<path d="M27.881 38.0545C27.7727 38.0545 27.6732 37.9926 27.6259 37.8942L27.0057 36.604C26.9704 36.5302 26.9684 36.4448 27.0008 36.3696C27.0331 36.2947 27.0961 36.237 27.1738 36.2121L33.7943 34.0748C34.6749 33.7907 35.6334 34.203 36.0247 35.0333C36.2141 35.4249 36.2599 35.8555 36.1563 36.2759C35.9609 37.0667 35.2824 37.6299 34.4679 37.6769L27.8973 38.0539C27.8918 38.0542 27.8863 38.0545 27.881 38.0545ZM27.6563 36.651L28.0541 37.4779L34.4353 37.112C35.0005 37.0794 35.4711 36.6888 35.6069 36.1405C35.6784 35.8495 35.6464 35.5512 35.514 35.2773C35.2423 34.7011 34.5779 34.4158 33.9682 34.6135L27.6563 36.651Z" fill="black"/>
<path d="M13.1531 37.6689C12.4887 37.32 11.982 36.8134 11.6331 36.149C11.4218 35.7466 11.4955 35.2519 11.8169 34.9305L16.5798 30.1676C17.9159 30.6056 18.738 31.4822 19.1345 32.7223L14.3716 37.4852C14.0502 37.8065 13.5554 37.8803 13.1531 37.6689Z" fill="#283E42"/>
<path d="M13.6397 38.073C13.4299 38.073 13.2179 38.0227 13.0214 37.9196C12.3084 37.5451 11.757 36.9937 11.3825 36.2806C11.1113 35.7646 11.2056 35.1416 11.6168 34.7304L16.3798 29.9674C16.455 29.8917 16.5664 29.8654 16.6681 29.8986C18.0472 30.3508 18.9676 31.2717 19.404 32.6359C19.4363 32.7368 19.4095 32.8474 19.3346 32.9223L14.5717 37.6852C14.3171 37.9398 13.981 38.073 13.6397 38.073ZM16.6545 30.4931L12.017 35.1306C11.7821 35.3655 11.7285 35.7221 11.8836 36.0175C12.2036 36.6269 12.6751 37.0985 13.2846 37.4182C13.5811 37.5736 13.9368 37.5205 14.1715 37.285L18.8098 32.6464C18.4289 31.5929 17.7214 30.8861 16.6545 30.4931Z" fill="black"/>
<path d="M18.811 29.1507L25.9063 22.0553L27.2433 23.3924L20.148 30.4877L18.811 29.1507Z" fill="white"/>
<path d="M20.1505 30.772C20.0753 30.772 20.0035 30.7421 19.9504 30.6891L18.6133 29.3516C18.5027 29.2411 18.5027 29.062 18.6133 28.9514L25.7094 21.8552C25.82 21.7447 25.9991 21.7447 26.1097 21.8552L27.4468 23.1924C27.5574 23.3029 27.5574 23.482 27.4468 23.5926L20.3506 30.6891C20.2975 30.7421 20.2257 30.772 20.1505 30.772ZM19.2136 29.1515L20.1505 30.0888L26.8465 23.3925L25.9096 22.4555L19.2136 29.1515Z" fill="black"/>
<path d="M35.2328 14.0704L26.3386 22.9645L35.2328 14.0704Z" fill="#5AE4A7"/>
<path d="M26.3387 23.2474C26.2663 23.2474 26.1939 23.2197 26.1386 23.1645C26.0281 23.0539 26.0281 22.8748 26.1386 22.7643L35.0325 13.8705C35.143 13.7599 35.3221 13.7599 35.4327 13.8705C35.5432 13.981 35.5432 14.1601 35.4327 14.2707L26.5388 23.1645C26.4836 23.2197 26.4112 23.2474 26.3387 23.2474Z" fill="black"/>
<path d="M33.884 13.1432L25.4115 21.6157L33.884 13.1432Z" fill="#5AE4A7"/>
<path d="M25.4115 21.8983C25.3391 21.8983 25.2667 21.8707 25.2114 21.8154C25.1008 21.7049 25.1008 21.5258 25.2114 21.4152L33.6837 12.9429C33.7943 12.8323 33.9734 12.8323 34.0839 12.9429C34.1945 13.0535 34.1945 13.2326 34.0839 13.3431L25.6116 21.8154C25.5563 21.8707 25.4839 21.8983 25.4115 21.8983Z" fill="black"/>
<path d="M32.7456 12.0049L24.2732 20.4774L32.7456 12.0049Z" fill="#5AE4A7"/>
<path d="M24.2733 20.7602C24.2009 20.7602 24.1285 20.7326 24.0732 20.6773C23.9627 20.5667 23.9627 20.3876 24.0732 20.2771L32.5455 11.8047C32.6561 11.6942 32.8352 11.6942 32.9457 11.8047C33.0563 11.9153 33.0563 12.0944 32.9457 12.205L24.4734 20.6773C24.4181 20.7326 24.3457 20.7602 24.2733 20.7602Z" fill="black"/>
<path d="M37.2983 16.5576L28.8258 25.03L37.2983 16.5576Z" fill="#5AE4A7"/>
<path d="M28.8259 25.3131C28.7535 25.3131 28.6811 25.2855 28.6258 25.2302C28.5153 25.1196 28.5153 24.9405 28.6258 24.83L37.0981 16.3577C37.2087 16.2471 37.3878 16.2471 37.4984 16.3577C37.6089 16.4682 37.6089 16.6473 37.4984 16.7579L29.026 25.2302C28.9708 25.2855 28.8983 25.3131 28.8259 25.3131Z" fill="black"/>
<path d="M36.16 15.4193L27.6876 23.8917L36.16 15.4193Z" fill="#5AE4A7"/>
<path d="M27.6878 24.1749C27.6154 24.1749 27.543 24.1473 27.4877 24.092C27.3771 23.9815 27.3771 23.8024 27.4877 23.6918L35.96 15.2195C36.0706 15.1089 36.2497 15.1089 36.3602 15.2195C36.4708 15.3301 36.4708 15.5091 36.3602 15.6197L27.8879 24.092C27.8326 24.1473 27.7602 24.1749 27.6878 24.1749Z" fill="black"/>
<path d="M27.0807 14.8125L34.4907 22.2225L27.0807 14.8125Z" fill="#5AE4A7"/>
<path d="M34.491 22.5058C34.4186 22.5058 34.3462 22.4782 34.2909 22.4229L26.8805 15.0125C26.7699 14.9019 26.7699 14.7228 26.8805 14.6123C26.991 14.5017 27.1701 14.5017 27.2807 14.6123L34.6911 22.0227C34.8017 22.1333 34.8017 22.3124 34.6911 22.4229C34.6358 22.4782 34.5634 22.5058 34.491 22.5058Z" fill="black"/>
<path d="M25.6843 16.2089L33.0943 23.6189L25.6843 16.2089Z" fill="#5AE4A7"/>
<path d="M33.0947 23.9021C33.0223 23.9021 32.9499 23.8745 32.8946 23.8192L25.4842 16.4088C25.3736 16.2982 25.3736 16.1191 25.4842 16.0086C25.5947 15.898 25.7738 15.898 25.8844 16.0086L33.2948 23.419C33.4054 23.5296 33.4054 23.7087 33.2948 23.8192C33.2395 23.8745 33.1671 23.9021 33.0947 23.9021Z" fill="black"/>
<path d="M24.5516 17.8685L31.4347 24.7515L24.5516 17.8685Z" fill="#5AE4A7"/>
<path d="M31.4347 25.0348C31.3623 25.0348 31.2899 25.0071 31.2346 24.9519L24.3515 18.0688C24.241 17.9582 24.241 17.7791 24.3515 17.6685C24.4621 17.558 24.6412 17.558 24.7517 17.6685L31.6348 24.5517C31.7454 24.6622 31.7454 24.8413 31.6348 24.9519C31.5796 25.0071 31.5072 25.0348 31.4347 25.0348Z" fill="black"/>
<path d="M30.6077 12.7543L36.5489 18.6955L30.6077 12.7543Z" fill="#5AE4A7"/>
<path d="M36.549 18.9786C36.4766 18.9786 36.4042 18.951 36.3489 18.8957L30.4074 12.9545C30.2969 12.844 30.2969 12.6649 30.4074 12.5543C30.518 12.4438 30.6971 12.4438 30.8076 12.5543L36.7491 18.4955C36.8597 18.606 36.8597 18.7851 36.7491 18.8957C36.6938 18.951 36.6214 18.9786 36.549 18.9786Z" fill="black"/>
<path d="M28.6356 13.5751L35.7281 20.6676L28.6356 13.5751Z" fill="#5AE4A7"/>
<path d="M35.7284 20.9506C35.656 20.9506 35.5836 20.923 35.5283 20.8677L28.4354 13.7751C28.3248 13.6645 28.3248 13.4854 28.4354 13.3749C28.5459 13.2643 28.725 13.2643 28.8356 13.3749L35.9285 20.4675C36.039 20.5781 36.039 20.7572 35.9285 20.8677C35.8732 20.923 35.8008 20.9506 35.7284 20.9506Z" fill="black"/>
<path d="M20.8692 29.77C20.0643 29.7418 19.6167 29.2984 19.5321 28.4328L16.5798 30.1676C16.9188 31.5317 17.7704 32.3832 19.1344 32.7222L20.8692 29.77Z" fill="#5AE4A7"/>
<path d="M19.1345 33.0052C19.1118 33.0052 19.0889 33.0024 19.0662 32.9969C17.5986 32.6323 16.6697 31.7034 16.3051 30.2358C16.275 30.1142 16.3284 29.987 16.4364 29.9235L19.3885 28.1889C19.4717 28.14 19.5742 28.1369 19.6605 28.1806C19.7464 28.2245 19.8042 28.3091 19.8136 28.4053C19.8846 29.1303 20.2132 29.4639 20.8793 29.4873C20.9788 29.4907 21.0695 29.5465 21.1176 29.6338C21.1654 29.7212 21.164 29.8276 21.1134 29.9135L19.3786 32.8656C19.3269 32.9535 19.2332 33.0052 19.1345 33.0052ZM16.9099 30.3019C17.2344 31.3814 17.9206 32.0677 19.0002 32.3922L20.4106 29.992C19.8534 29.8513 19.4852 29.4755 19.3252 28.8826L16.9099 30.3019Z" fill="black"/>
<path d="M36.4179 12.8821C33.8769 10.3411 28.4993 11.602 25.431 14.6704C22.3626 17.7387 22.7661 21.4519 25.3071 23.9929C27.8482 26.534 31.5645 26.9406 34.6328 23.8722C37.7012 20.8039 38.959 15.4232 36.4179 12.8821ZM26.7079 22.5922C24.8084 20.6927 24.5035 17.9166 26.8 15.6201C29.0933 13.3268 33.1209 12.3802 35.0204 14.2797C36.923 16.1823 35.9764 20.2099 33.6831 22.5032C31.3866 24.7997 28.6105 24.4948 26.7079 22.5922Z" fill="#5AE4A7"/>
<path d="M29.8685 26.3147C28.1892 26.3147 26.5223 25.6085 25.1069 24.1932C22.2361 21.3224 22.2861 17.4151 25.231 14.4702C28.3407 11.3606 33.8714 9.93528 36.6181 12.682C39.3668 15.4309 37.9428 20.9628 34.833 24.0724C33.3391 25.566 31.5973 26.3147 29.8685 26.3147ZM32.7117 11.8025C30.2759 11.8025 27.4642 13.0377 25.6312 14.8704C22.8834 17.6182 22.8348 21.1206 25.5071 23.793C28.1817 26.467 31.6857 26.4197 34.4327 23.6722C37.2939 20.8108 38.6968 15.5617 36.2179 13.0822C35.3274 12.1917 34.0787 11.8025 32.7117 11.8025ZM30.1424 24.4065C30.109 24.4065 30.0752 24.406 30.0415 24.4054C28.7749 24.3773 27.5198 23.8043 26.5079 22.7922C25.4972 21.7814 24.9254 20.5275 24.8974 19.2614C24.8676 17.8919 25.4563 16.5638 26.6 15.4201C27.7705 14.2497 29.3763 13.4036 31.0058 13.0993C32.7639 12.7715 34.2606 13.1195 35.2204 14.0797C37.3055 16.1647 36.2342 20.3522 33.8833 22.7035C32.7678 23.8192 31.4762 24.4065 30.1424 24.4065ZM32.2485 13.5451C31.8875 13.5451 31.5066 13.5816 31.1098 13.6557C29.612 13.9354 28.0759 14.7447 27.0002 15.8204C25.9684 16.8521 25.4369 18.0378 25.4635 19.2489C25.4878 20.3686 26.001 21.4849 26.9081 22.392C27.8166 23.3005 28.9338 23.8145 30.054 23.8394C31.2764 23.8565 32.4513 23.3347 33.4831 22.3033C35.601 20.185 36.6466 16.3062 34.8202 14.4799C34.2047 13.8641 33.3137 13.5451 32.2485 13.5451Z" fill="black"/>
</svg>
