<svg width="50" height="50" viewBox="0 0 50 50" fill="none" xmlns="http://www.w3.org/2000/svg">
<rect x="1.5" y="1.5" width="47.0005" height="47" rx="23.5" fill="white"/>
<rect x="1.5" y="1.5" width="47.0005" height="47" rx="23.5" stroke="#8B9B75" stroke-width="3"/>
<g clip-path="url(#clip0_2211_1551)">
<path d="M28.5975 11.1113C28.5975 11.1113 25.56 10.455 24.635 10.6938C23.71 10.9325 22.12 10.8763 22.12 10.8763L20.1537 11.5275L17.3462 12.6875L15.1862 14.4775L13.0537 16.7875L11.795 19.0138L11.1337 21.2438L10.5912 23.8263L10.6762 26.1713L11.0537 28.575L12.5925 32.4988L14.3125 34.555L15.9412 36.1637L18.9212 38.0312L22.3387 39.1038L25.2712 39.3675L27.1112 39.3425L31.2462 38.0837L34.9575 35.5338L37.28 32.4475L38.6112 29.5463L39.1875 26.6063V23.865L38.9862 21.5013L38.195 19.14L37.0225 17.19L34.9587 14.6463L32.9087 13.0375L30.2262 11.7863L28.5975 11.1113Z" fill="#A9381A"/>
<path d="M25 39.495C33.0054 39.495 39.495 33.0054 39.495 25C39.495 16.9946 33.0054 10.505 25 10.505C16.9946 10.505 10.505 16.9946 10.505 25C10.505 33.0054 16.9946 39.495 25 39.495Z" stroke="black" stroke-miterlimit="10"/>
<path d="M28.6075 10.9588C31.305 12.9663 26.6312 15.0638 25.1812 15.575C22.425 16.5475 19.5137 17.0188 16.7912 18.0975C14.28 19.0925 11.4262 20.6463 10.5912 23.4225" stroke="black" stroke-miterlimit="10"/>
<path d="M25 39.495C25 39.495 26.1312 39.1762 27.7175 36.71C28.8137 35.005 29.5362 33.0875 29.9575 31.105C30.1637 30.1325 30.3875 29.01 30.5375 28.0537C30.74 26.7662 30.9987 25.49 31.4125 24.2537C32.5125 20.9725 34.91 16.46 38.9838 21.18" stroke="black" stroke-miterlimit="10"/>
<path d="M18.3225 12.1325C18.3225 12.1325 35.755 10.5188 37.845 31.7225" stroke="black" stroke-miterlimit="10"/>
<path d="M14.3125 34.7638C22.18 21.5288 34.9562 14.4775 34.9562 14.4775" stroke="black" stroke-miterlimit="10"/>
</g>
<defs>
<clipPath id="clip0_2211_1551">
<rect width="30" height="30" fill="white" transform="translate(10 10)"/>
</clipPath>
</defs>
</svg>
