<svg width="50" height="50" viewBox="0 0 50 50" fill="none" xmlns="http://www.w3.org/2000/svg">
<rect x="1.5" y="1.5" width="47.0005" height="47" rx="23.5" fill="white"/>
<rect x="1.5" y="1.5" width="47.0005" height="47" rx="23.5" stroke="#8B9B75" stroke-width="3"/>
<g clip-path="url(#clip0_2211_1532)">
<mask id="mask0_2211_1532" style="mask-type:luminance" maskUnits="userSpaceOnUse" x="8" y="8" width="34" height="34">
<path d="M8.68787 8.55811H41.5716V41.4419H8.68787V8.55811Z" fill="white"/>
</mask>
<g mask="url(#mask0_2211_1532)">
<path d="M23.4823 11.7263C24.043 11.3018 24.8406 11.1652 25.5995 11.2995C26.3118 11.4256 26.9471 11.7817 27.2977 12.3034L27.3641 12.4099V12.4108C27.5665 12.7612 27.6734 13.1585 27.6747 13.5632L27.6708 13.7155C27.6519 14.0174 27.5736 14.3126 27.4413 14.5847L27.371 14.7184L27.37 14.7194C27.1049 15.1919 26.8934 15.6926 26.7382 16.2116C26.6261 16.5741 26.5324 16.942 26.4589 17.3141L26.3925 17.6872C26.2558 18.5367 26.1993 19.397 26.2245 20.2565L26.2401 20.6247C26.2517 20.9965 26.2877 21.367 26.3466 21.7341L26.413 22.1022L26.4159 22.114C26.5178 22.5116 26.6622 22.8969 26.8456 23.2634L27.0419 23.6237C27.1837 23.8675 27.3362 24.1106 27.4872 24.3503C27.6394 24.5919 27.7896 24.8299 27.9305 25.0671C28.1781 25.4837 28.3889 25.8853 28.5175 26.277L28.5673 26.444V26.446C28.6129 26.6114 28.6475 26.7799 28.6698 26.9499L28.6884 27.1198C28.6969 27.2205 28.7004 27.3212 28.703 27.4235L28.7089 27.738L28.7206 28.364V28.3649C28.7168 29.4626 28.6514 30.5591 28.5243 31.6491L28.4657 32.1149C28.3359 33.0768 28.1457 34.0295 27.8964 34.9675C27.656 35.8307 27.3535 36.6752 26.9901 37.4938L26.83 37.8434L26.829 37.8444C26.6059 38.3295 26.2605 38.5605 25.8925 38.6677C25.6079 38.7505 25.307 38.7601 25.035 38.7429L24.7743 38.7184L24.7684 38.7175L24.5575 38.6843C24.4188 38.6531 24.2848 38.6041 24.1581 38.5397L23.9735 38.4323C23.7959 38.3122 23.6432 38.1596 23.5223 37.9841L23.412 37.8005C23.0224 37.009 22.7057 36.184 22.4657 35.3356L22.3671 34.9704V34.9675L22.1913 34.2614C22.0815 33.7889 21.9861 33.3131 21.9061 32.8347L21.7977 32.1149C21.6327 30.8667 21.5474 29.6093 21.5428 28.3503L21.5546 27.7302C21.5573 27.6182 21.5576 27.5161 21.5594 27.4177L21.5751 27.1266V27.1218C21.5899 26.9502 21.6164 26.7798 21.6542 26.612L21.6962 26.445V26.444C21.8155 25.997 22.0492 25.5391 22.3319 25.0632C22.4728 24.826 22.6232 24.5885 22.7753 24.3474C22.9265 24.1074 23.0797 23.8637 23.2216 23.6198L23.2206 23.6188C23.4295 23.2673 23.6016 22.8955 23.7313 22.5085L23.8475 22.1159L23.8505 22.1032C23.9487 21.6161 24.0065 21.1213 24.0233 20.6247C24.0711 19.7658 24.0378 18.9046 23.9247 18.0524L23.871 17.6872V17.6862L23.8036 17.3132C23.7542 17.0652 23.696 16.8189 23.6298 16.5749L23.5243 16.2106C23.4097 15.8325 23.2644 15.4645 23.0907 15.11L22.9071 14.7595V14.7585L22.8085 14.5641C22.3923 13.6441 22.5881 12.5351 23.3173 11.863L23.4823 11.7263Z" fill="#99734D" stroke="black" stroke-width="0.5"/>
<path d="M33.7714 11.7263C34.3322 11.3018 35.1297 11.1652 35.8886 11.2995C36.6009 11.4256 37.2362 11.7817 37.5869 12.3034L37.6523 12.4099L37.6533 12.4108C37.8299 12.7178 37.9335 13.0607 37.957 13.4128L37.9619 13.5641C37.9623 13.9181 37.882 14.2668 37.7275 14.5837L37.6562 14.7175L37.6552 14.7194C37.3903 15.1916 37.1786 15.6919 37.0234 16.2106C36.9112 16.5734 36.8176 16.9418 36.7441 17.3141L36.6777 17.6872C36.541 18.5367 36.4845 19.397 36.5097 20.2565L36.5253 20.6247C36.5379 20.9969 36.5748 21.3677 36.6347 21.735L36.7021 22.1032L36.705 22.114C36.8069 22.5117 36.9513 22.8969 37.1347 23.2634L37.331 23.6237C37.4728 23.8675 37.6253 24.1106 37.7763 24.3503C37.9285 24.5919 38.0787 24.8299 38.2197 25.0671C38.4673 25.4837 38.678 25.8853 38.8066 26.277L38.8564 26.444V26.446C38.9021 26.6114 38.9366 26.7799 38.9589 26.9499L38.9765 27.1198C38.985 27.2205 38.9895 27.3212 38.9921 27.4235L38.998 27.738L39.0097 28.364V28.3649C39.0059 29.4626 38.9406 30.5591 38.8134 31.6491L38.7548 32.1149C38.6252 33.0758 38.4354 34.0275 38.1865 34.9645C37.9456 35.8287 37.6415 36.6743 37.2773 37.4938L37.1181 37.8434L37.1171 37.8444C36.8941 38.3295 36.5484 38.5605 36.1796 38.6677C35.8944 38.7506 35.5923 38.7602 35.3183 38.7429L35.0556 38.7184L35.0497 38.7175L34.8388 38.6843C34.7001 38.6531 34.5662 38.6041 34.4394 38.5397L34.2548 38.4323C34.0772 38.3122 33.9245 38.1596 33.8036 37.9841L33.6933 37.8005C33.3037 37.009 32.987 36.184 32.747 35.3356L32.6484 34.9704V34.9675L32.4726 34.2614C32.3628 33.7889 32.2674 33.3131 32.1874 32.8347L32.079 32.1149C31.914 30.8667 31.8287 29.6093 31.8242 28.3503L31.8359 27.7302C31.8386 27.6182 31.8389 27.5161 31.8408 27.4177L31.8564 27.1266V27.1218C31.8712 26.9502 31.8977 26.7798 31.9355 26.612L31.9775 26.445V26.444C32.0968 25.997 32.3305 25.5391 32.6132 25.0632C32.7541 24.826 32.9046 24.5885 33.0566 24.3474C33.2078 24.1074 33.361 23.8637 33.5029 23.6198L33.5019 23.6188C33.7108 23.2673 33.883 22.8955 34.0126 22.5085L34.1288 22.1159L34.1318 22.1032C34.2301 21.6161 34.2878 21.1213 34.3046 20.6247C34.3525 19.7658 34.3192 18.9046 34.206 18.0524L34.1523 17.6872V17.6862L34.0849 17.3132C34.0108 16.9412 33.9176 16.5732 33.8056 16.2106H33.8046C33.692 15.8332 33.5503 15.4652 33.3788 15.111L33.1972 14.7614L33.1953 14.7585L33.0966 14.5641C32.6806 13.6442 32.8773 12.535 33.6064 11.863L33.7704 11.7263H33.7714Z" fill="#99734D" stroke="black" stroke-width="0.5"/>
<path d="M13.2061 11.7261C13.7654 11.3019 14.5626 11.1654 15.3213 11.2994C16.0332 11.4252 16.668 11.7809 17.0186 12.3013L17.085 12.4078C17.2617 12.7151 17.3654 13.0583 17.3887 13.4107L17.3936 13.563C17.3937 13.9175 17.3125 14.2664 17.1572 14.5836L17.0859 14.7173L17.085 14.7193C16.82 15.1915 16.6084 15.6918 16.4531 16.2105C16.3409 16.5733 16.2474 16.9417 16.1738 17.314L16.1074 17.6871C15.9708 18.5365 15.9143 19.397 15.9395 20.2564L15.9551 20.6246C15.9667 20.9964 16.0027 21.3669 16.0615 21.7339L16.1279 22.1021L16.1309 22.1138C16.2327 22.5115 16.3771 22.8968 16.5605 23.2632L16.7568 23.6236C16.8986 23.8673 17.0512 24.1105 17.2021 24.3502C17.3543 24.5917 17.5046 24.8298 17.6455 25.067C17.8931 25.4835 18.1039 25.8852 18.2324 26.2769L18.2822 26.4449V26.4459C18.3275 26.6114 18.3613 26.7798 18.3838 26.9498L18.4023 27.1207C18.4109 27.2212 18.4154 27.3213 18.418 27.4234L18.4238 27.7379L18.4355 28.3638V28.3648C18.4313 29.619 18.346 30.8716 18.1807 32.1148C18.051 33.0759 17.8613 34.0281 17.6123 34.9654C17.3715 35.8294 17.0672 36.6743 16.7031 37.4937L16.5439 37.8433L16.543 37.8453C16.32 38.33 15.9742 38.5603 15.6064 38.6675C15.322 38.7504 15.0209 38.76 14.749 38.7427L14.4883 38.7183L14.4824 38.7173L14.2705 38.6841C14.132 38.653 13.9977 38.6048 13.8711 38.5406L13.6875 38.4322C13.5098 38.312 13.3563 38.1597 13.2354 37.9839L13.126 37.8013C12.735 37.0097 12.417 36.1843 12.1758 35.3355L12.0771 34.9703L12.0762 34.9673L11.9004 34.2613C11.7901 33.7888 11.6946 33.313 11.6143 32.8345L11.5049 32.1148C11.3398 30.8666 11.2545 29.6092 11.25 28.3502L11.2617 27.731C11.2645 27.6188 11.2647 27.5161 11.2666 27.4175L11.2822 27.1265V27.1216C11.297 26.9501 11.3235 26.7797 11.3613 26.6119L11.4033 26.4459V26.4439C11.5227 25.997 11.7564 25.539 12.0391 25.063C12.1799 24.8259 12.3304 24.5884 12.4824 24.3472C12.6336 24.1074 12.7869 23.8644 12.9287 23.6207L12.9277 23.6197C13.1368 23.2679 13.3087 22.8957 13.4385 22.5084L13.5547 22.1158L13.5576 22.1031C13.6559 21.616 13.7137 21.1212 13.7305 20.6246C13.7783 19.7657 13.745 18.9045 13.6318 18.0523L13.5781 17.6871L13.5107 17.313C13.4613 17.065 13.4032 16.8188 13.3369 16.5748L13.2314 16.2105C13.1211 15.8338 12.9804 15.4668 12.8115 15.1129L12.6328 14.7623L12.6309 14.7584L12.5322 14.565C12.1157 13.6451 12.3121 12.5362 13.041 11.8638L13.2061 11.7261Z" fill="#99734D" stroke="black" stroke-width="0.5"/>
<path d="M23.6979 19.1C26.1276 18.7446 28.5964 19.3069 30.6266 20.6674L31.027 20.9506C32.9967 22.4171 34.3452 24.5607 34.819 26.9584L34.902 27.4409C35.1675 29.253 34.9233 31.1009 34.2009 32.7787L34.0505 33.1118C33.2644 34.766 32.0345 36.1669 30.5016 37.1606L30.1911 37.3539C28.6186 38.2925 26.8182 38.7738 24.9919 38.7485L24.6266 38.7368C22.6756 38.6373 20.7971 37.9619 19.2302 36.7953C17.7611 35.7016 16.6273 34.2221 15.9518 32.5248L15.8229 32.183C15.2091 30.4574 15.0881 28.5975 15.4694 26.811L15.5524 26.4545C16.0008 24.6788 16.9332 23.065 18.2429 21.7914L18.5095 21.5414C19.8686 20.3142 21.5405 19.491 23.3366 19.1596L23.6979 19.1Z" fill="#FFCC33" stroke="black" stroke-width="0.5"/>
<path d="M20.7264 23.7797C20.7643 24.0313 20.7266 24.2885 20.6181 24.5186C20.5096 24.7488 20.3352 24.9415 20.1171 25.0724C19.8989 25.2033 19.6468 25.2665 19.3927 25.2539C19.1386 25.2413 18.8939 25.1535 18.6897 25.0017C18.4856 24.8499 18.3311 24.6409 18.2459 24.4011C18.1607 24.1614 18.1486 23.9018 18.2111 23.6551C18.2737 23.4085 18.408 23.186 18.5972 23.0159C18.7864 22.8458 19.0218 22.7356 19.2736 22.6994C19.44 22.6747 19.6096 22.683 19.7727 22.724C19.9359 22.7649 20.0893 22.8377 20.2243 22.938C20.3592 23.0384 20.4731 23.1644 20.5592 23.3088C20.6454 23.4533 20.7022 23.6133 20.7264 23.7797Z" fill="white"/>
<path d="M24.2408 20.815C24.2785 21.0666 24.2405 21.3237 24.1319 21.5537C24.0232 21.7837 23.8487 21.9763 23.6304 22.107C23.4122 22.2377 23.1601 22.3006 22.906 22.2879C22.652 22.2751 22.4074 22.1872 22.2034 22.0353C21.9993 21.8834 21.845 21.6744 21.7599 21.4346C21.6748 21.1949 21.6628 20.9353 21.7254 20.6888C21.7881 20.4422 21.9225 20.2198 22.1117 20.0497C22.3008 19.8797 22.5362 19.7696 22.788 19.7335C23.124 19.6853 23.4653 19.772 23.7375 19.9746C24.0097 20.1773 24.1907 20.4794 24.2408 20.815Z" fill="white"/>
<path d="M25.113 25.3853C25.1512 25.637 25.1138 25.8943 25.0054 26.1247C24.8971 26.355 24.7228 26.5479 24.5046 26.679C24.2864 26.8101 24.0342 26.8734 23.78 26.861C23.5258 26.8485 23.281 26.7607 23.0767 26.6089C22.8725 26.457 22.7179 26.2479 22.6327 26.0081C22.5474 25.7682 22.5354 25.5085 22.5981 25.2618C22.6607 25.0151 22.7953 24.7925 22.9846 24.6224C23.1739 24.4523 23.4096 24.3423 23.6615 24.3064C23.9969 24.2585 24.3375 24.345 24.6094 24.5471C24.8812 24.7492 25.0623 25.0505 25.113 25.3853Z" fill="white"/>
</g>
</g>
<defs>
<clipPath id="clip0_2211_1532">
<rect width="28.2595" height="28" fill="white" transform="translate(11 11)"/>
</clipPath>
</defs>
</svg>
