<svg width="50" height="50" viewBox="0 0 50 50" fill="none" xmlns="http://www.w3.org/2000/svg">
<rect x="1.5" y="1.5" width="47.0005" height="47" rx="23.5" fill="white"/>
<rect x="1.5" y="1.5" width="47.0005" height="47" rx="23.5" stroke="#8B9B75" stroke-width="3"/>
<g clip-path="url(#clip0_2211_1563)">
<path d="M27.588 18.9943C27.5967 18.9899 27.6011 18.9899 27.6097 18.9856V36.7035C27.6083 37.1804 27.2222 37.5665 26.7453 37.5679H23.2883C22.8115 37.5665 22.4253 37.1804 22.4239 36.7035V20.3253C22.4179 20.3245 22.4116 20.3261 22.4066 20.3295H22.4024L22.3937 20.2993L22.4283 15.5284H27.6184L27.588 18.9943Z" fill="#4E342E"/>
<path d="M19.8224 36.6215C19.8455 36.8638 19.7653 37.1046 19.6016 37.2848C19.4379 37.465 19.2058 37.5677 18.9624 37.5679H15.4923C15.0469 37.5677 14.6746 37.229 14.6324 36.7856L12.6487 15.8136H12.6532L15.9416 15.5067L17.8128 15.3295H17.8173L18.5994 23.6224V23.6268C17.1192 26.2816 17.4285 29.5741 19.3773 31.9067L19.8224 36.6215Z" fill="#4E342E"/>
<path d="M37.3849 15.8136L35.4012 36.7856C35.359 37.229 34.9867 37.5677 34.5412 37.5679H31.0712C30.827 37.5689 30.5937 37.4668 30.429 37.2864C30.2645 37.1062 30.1836 36.8646 30.207 36.6215L30.6562 31.9067C32.6051 29.5741 32.9144 26.2816 31.4342 23.6268V23.6224L32.199 15.5067L32.2163 15.3295L37.3804 15.8136H37.3849Z" fill="#4E342E"/>
<path d="M25.6953 18.9943C25.7039 18.9899 25.7082 18.9899 25.7168 18.9856V36.7035C25.7154 37.1804 25.3293 37.5665 24.8526 37.5679H23.2883C22.8115 37.5665 22.4253 37.1804 22.4239 36.7035V20.3253C22.4179 20.3245 22.4116 20.3261 22.4066 20.3295H22.4024L22.3937 20.2993L22.4283 15.5284H25.7255L25.6953 18.9943Z" fill="#795548"/>
<path d="M17.9295 36.6215C17.9526 36.8638 17.8726 37.1046 17.7089 37.2848C17.5452 37.465 17.3131 37.5677 17.0695 37.5679H15.4923C15.0469 37.5677 14.6746 37.229 14.6324 36.7856L12.6487 15.8136H12.6532L15.9416 15.5067L16.7067 23.6224V23.6268" fill="#795548"/>
<path d="M35.4919 15.8136L33.5085 36.7856C33.4661 37.229 33.0938 37.5677 32.6485 37.5679H31.0712C30.827 37.5689 30.5937 37.4668 30.429 37.2864C30.2645 37.1062 30.1836 36.8646 30.207 36.6215L30.6562 31.9067C32.6051 29.5741 32.9144 26.2816 31.4342 23.6268V23.6224L32.199 15.5067L35.4877 15.8136H35.4919Z" fill="#795548"/>
<path d="M30.9199 31.5696C30.8378 31.6864 30.7469 31.7987 30.6562 31.9067H30.652C30.5396 32.0364 30.4272 32.1703 30.2976 32.2956C30.2711 32.3294 30.2421 32.3612 30.2112 32.3907C29.9191 32.6842 29.6008 32.9503 29.2605 33.186C29.1438 33.2722 29.0272 33.3545 28.9061 33.4279C28.7319 33.5401 28.5515 33.6425 28.3659 33.7346H28.3617C28.1183 33.8629 27.8671 33.9756 27.6097 34.0717C27.2829 34.1946 26.9478 34.2943 26.6071 34.3699C26.4645 34.4001 26.3262 34.4261 26.1836 34.4478C25.9157 34.491 25.6478 34.517 25.3797 34.5343C24.9644 34.5544 24.5481 34.5399 24.1352 34.491C23.5495 34.4224 22.9747 34.2817 22.4239 34.0717C21.4466 33.7034 20.5597 33.1303 19.8224 32.3907C19.6667 32.2351 19.5199 32.071 19.3773 31.9067C17.4285 29.5741 17.1192 26.2816 18.5994 23.6268V23.6224C18.8908 23.0943 19.2496 22.6064 19.6667 22.1705C19.7144 22.1128 19.7661 22.0567 19.8224 22.002C19.9606 21.8636 20.1076 21.7297 20.2546 21.6044C20.3668 21.5093 20.4793 21.4186 20.5917 21.3365C20.9684 21.0489 21.3722 20.7985 21.7972 20.5887C21.983 20.498 22.1733 20.416 22.3633 20.3426L22.4023 20.3295H22.4066C22.5268 20.2812 22.6493 20.2394 22.774 20.2042C23.0831 20.1016 23.3995 20.0222 23.7203 19.9665C23.8629 19.9405 24.0099 19.919 24.1525 19.9017C24.1826 19.8973 24.2086 19.8973 24.239 19.8931C24.3815 19.8758 24.5241 19.8671 24.6667 19.8585C26.7342 19.7605 28.7472 20.5389 30.2112 22.002C30.6936 22.4813 31.1055 23.0271 31.4342 23.6224V23.6268C32.8386 26.1454 32.6372 29.2531 30.9199 31.5696Z" fill="#C52828"/>
<path d="M29.1913 31.5696C29.1092 31.6864 29.0185 31.7986 28.9276 31.9066H28.9234C28.811 32.0364 28.6987 32.1703 28.569 32.2956C28.5425 32.3294 28.5135 32.3612 28.4825 32.3907C28.1905 32.6842 27.8722 32.9503 27.5319 33.186C27.4152 33.2722 27.2986 33.3545 27.1775 33.4279C27.0033 33.5401 26.8229 33.6425 26.6373 33.7346H26.6331C26.3897 33.8629 26.1387 33.9755 25.8811 34.0717C25.5543 34.1946 25.2192 34.2943 24.8785 34.3699C24.7359 34.4001 24.5975 34.4261 24.455 34.4478C24.347 34.4651 24.2432 34.4779 24.1352 34.491C23.5495 34.4224 22.9747 34.2817 22.4239 34.0717C21.4466 33.7034 20.5597 33.1303 19.8224 32.3907C19.6667 32.2351 19.5199 32.071 19.3773 31.9066C17.4285 29.5741 17.1192 26.2816 18.5994 23.6268V23.6224C18.8908 23.0943 19.2496 22.6064 19.6667 22.1705C19.7144 22.1128 19.7661 22.0567 19.8224 22.002C19.9606 21.8636 20.1076 21.7297 20.2546 21.6044C20.3668 21.5093 20.4793 21.4185 20.5917 21.3365C20.9684 21.0489 21.3722 20.7985 21.7972 20.5887C21.983 20.498 22.1733 20.416 22.3633 20.3426L22.4023 20.3295H22.4066C22.5268 20.2812 22.6493 20.2394 22.774 20.2042C23.0831 20.1016 23.3995 20.0222 23.7203 19.9665C23.8629 19.9405 24.0099 19.919 24.1525 19.9017C25.7906 20.096 27.3159 20.8357 28.4825 22.002C28.965 22.4813 29.3769 23.0271 29.7055 23.6224V23.6268C31.11 26.1454 30.9088 29.2531 29.1913 31.5696Z" fill="#F44335"/>
<path d="M27.6312 13.8213L27.6183 15.5284H22.4283L22.4325 15.0747L22.4456 13.7781C22.4474 13.1238 22.9403 12.5752 23.5907 12.5034H23.6036C23.6523 12.496 23.7014 12.4931 23.7506 12.4947L26.3434 12.512C27.06 12.5193 27.6358 13.1047 27.6312 13.8213Z" fill="#424242"/>
<path d="M17.8173 15.3295H17.8128L12.6532 15.8136H12.6487L12.6359 15.6537L12.6099 15.3814L12.4888 14.0894C12.4239 13.377 12.9478 12.7467 13.66 12.6806L15.1466 12.5422L16.2399 12.4384C16.5822 12.405 16.9237 12.5092 17.189 12.7282C17.4542 12.9473 17.6212 13.2628 17.6529 13.6053L17.8173 15.3295Z" fill="#424242"/>
<path d="M37.5447 14.0894L37.4237 15.3814L37.3848 15.8136H37.3804L35.6691 15.6537L32.2163 15.3295L32.3806 13.6053C32.4214 13.1337 32.7213 12.724 33.1583 12.5422C33.3577 12.4533 33.5765 12.4175 33.7937 12.4384L36.3736 12.6806C37.0858 12.7468 37.6097 13.3771 37.5447 14.0894Z" fill="#424242"/>
<path d="M25.9026 13.8213L25.8897 15.5284H22.4283L22.4325 15.0747L22.4456 13.7781C22.4474 13.1239 22.9403 12.5752 23.5907 12.5034H23.6036L24.6148 12.5121C25.3314 12.5193 25.9072 13.1047 25.9026 13.8213Z" fill="#9E9E9E"/>
<path d="M16.0887 15.3295H16.0842L12.6359 15.6537L12.6099 15.3814L12.4888 14.0894C12.4239 13.3771 12.9478 12.7468 13.66 12.6806L15.1466 12.5422C15.5836 12.724 15.8835 13.1337 15.9243 13.6053L16.0887 15.3295Z" fill="#9E9E9E"/>
<path d="M35.8161 14.0894L35.695 15.3814L35.6691 15.6537L32.2163 15.3295L32.3806 13.6053C32.4214 13.1337 32.7213 12.724 33.1583 12.5422L34.645 12.6806C35.3572 12.7468 35.8811 13.3771 35.8161 14.0894Z" fill="#9E9E9E"/>
<path d="M23.2994 31.9378C23.1015 31.7403 22.908 31.53 22.7238 31.313C22.5693 31.1309 22.2964 31.1088 22.1146 31.2633C21.9326 31.4177 21.9102 31.6907 22.0649 31.8727C22.264 32.1072 22.4746 32.3354 22.6888 32.5492C22.9516 32.8121 23.2286 33.0631 23.5121 33.296C23.6964 33.4476 23.9685 33.4211 24.1201 33.2368C24.1929 33.1484 24.2277 33.0345 24.2167 32.9203C24.2054 32.8063 24.1495 32.7013 24.0608 32.6285C23.7989 32.4133 23.5427 32.1812 23.2994 31.9378Z" fill="black"/>
<path d="M20.8608 28.0792C20.7792 27.8571 20.534 27.7419 20.311 27.8209C20.0877 27.9 19.9699 28.1439 20.0463 28.3678C20.2731 29.0071 20.5577 29.6246 20.8962 30.2122C20.9736 30.3462 21.1166 30.4286 21.2713 30.4284C21.3473 30.4286 21.4217 30.4089 21.4875 30.3709C21.5868 30.3136 21.6595 30.2193 21.6892 30.1085C21.719 29.9976 21.7035 29.8794 21.646 29.78C21.3332 29.2382 21.0704 28.6689 20.8608 28.0792Z" fill="black"/>
<path d="M20.3962 26.2637C20.3079 25.7146 20.2635 25.1596 20.2633 24.6035V24.3931C20.2657 24.2783 20.2222 24.1674 20.1428 24.0846C20.0634 24.0019 19.9544 23.9541 19.8397 23.9518C19.6042 23.9551 19.4115 24.1401 19.3989 24.3752V24.6035C19.3991 25.2054 19.4471 25.8064 19.5429 26.4007C19.5765 26.61 19.7569 26.7639 19.9688 26.7643C19.9922 26.7643 20.0155 26.7625 20.0384 26.7586C20.2737 26.7206 20.4338 26.4992 20.3962 26.2637Z" fill="black"/>
<path d="M23.2943 24.1972C23.5367 24.1845 23.7251 23.9818 23.7203 23.7393C23.7201 23.2503 23.7653 22.7624 23.8552 22.2819C23.8993 22.0472 23.7446 21.8214 23.5101 21.7773C23.2754 21.7333 23.0496 21.888 23.0055 22.1225C22.9058 22.6556 22.8557 23.1968 22.8561 23.7393V23.7905C22.8585 23.9022 22.9056 24.0081 22.9868 24.0846C23.0681 24.161 23.1767 24.2016 23.2883 24.1972H23.2943Z" fill="black"/>
<path d="M25.0167 28.0456C24.9314 27.9163 24.7834 27.8425 24.6288 27.8523C24.4741 27.8622 24.3365 27.9541 24.2684 28.0933C24.2 28.2322 24.2114 28.3971 24.2981 28.5257C24.6084 28.9896 24.9624 29.4228 25.3552 29.8195C25.5237 29.9844 25.7934 29.9838 25.9614 29.8178C26.1291 29.6521 26.1327 29.3822 25.9696 29.2119C25.6156 28.8543 25.2965 28.4637 25.0167 28.0456Z" fill="black"/>
<path d="M24.3089 26.721C24.1167 26.2566 23.9705 25.7748 23.8719 25.2818C23.8246 25.0485 23.5972 24.8975 23.3637 24.9443C23.13 24.991 22.9783 25.2181 23.0246 25.4518C23.1338 25.9994 23.2967 26.535 23.5107 27.0507C23.5676 27.1967 23.6989 27.3002 23.854 27.3218C24.0093 27.3433 24.1637 27.2791 24.2583 27.1542C24.3526 27.0293 24.3719 26.863 24.3089 26.7196V26.721Z" fill="black"/>
<path d="M27.127 30.178C26.9297 30.0435 26.6606 30.0944 26.5261 30.2917C26.3915 30.4888 26.4422 30.7579 26.6395 30.8924C27.1013 31.2074 27.5926 31.4767 28.1067 31.6963C28.3263 31.79 28.5803 31.688 28.674 31.4686C28.7677 31.249 28.6658 30.995 28.4463 30.9011C27.984 30.704 27.5419 30.4618 27.127 30.178Z" fill="black"/>
<path d="M37.5823 12.8654C37.2903 12.5124 36.8692 12.2908 36.4128 12.2502L33.8325 12.008C33.3761 11.9638 32.9208 12.1028 32.567 12.3948C32.2135 12.6866 31.9904 13.1073 31.9476 13.5639L31.117 22.3771C30.3035 21.3349 29.2341 20.521 28.0129 20.0145L28.0626 13.8243C28.069 12.8702 27.3024 12.0909 26.3483 12.0816L23.7553 12.0613C23.2967 12.0569 22.8555 12.2353 22.5284 12.5569C22.2016 12.8785 22.0162 13.3171 22.013 13.7757L21.9991 15.492C21.9959 15.5041 21.9935 15.5161 21.9917 15.5284C21.9935 15.5397 21.9957 15.5509 21.9987 15.562L21.9623 20.0417C20.7642 20.5481 19.7156 21.3526 18.9158 22.3783L18.0833 13.5659C18.0425 13.1104 17.8207 12.69 17.4675 12.3992C17.1142 12.1058 16.6584 11.965 16.2011 12.008L13.6211 12.2502C13.1644 12.2916 12.7429 12.5132 12.4498 12.8658C12.1566 13.2186 12.0158 13.6733 12.0584 14.13L14.2014 36.8258C14.2621 37.4927 14.8226 38.0025 15.4923 37.9999H18.9632C19.3283 37.9999 19.6764 37.8461 19.9222 37.5762C20.1679 37.3063 20.2884 36.9451 20.254 36.5816L19.921 33.0635C20.5378 33.6043 21.2369 34.0435 21.9917 34.3647V36.7035C21.9917 37.4195 22.5721 37.9999 23.2883 37.9999H26.7453C27.4613 37.9999 28.0417 37.4195 28.0417 36.7035V34.3647C28.4288 34.1994 28.8017 34.0025 29.1567 33.7762C29.1627 33.7722 29.1698 33.7696 29.1754 33.7654C29.5044 33.5554 29.8172 33.3211 30.1114 33.0645L29.7785 36.5812C29.7442 36.9449 29.8646 37.3059 30.1104 37.576C30.356 37.8461 30.7043 38.0001 31.0693 37.9999H34.5404C35.2101 38.0027 35.7707 37.4925 35.8308 36.8254L37.8114 15.8516L37.9739 14.1286C38.0169 13.6723 37.876 13.2176 37.5823 12.8654ZM33.1165 13.0651C33.2931 12.9165 33.5226 12.8463 33.7522 12.8706L36.3334 13.1126C36.8066 13.1582 37.1541 13.5774 37.1113 14.0508L36.989 15.3426L32.6857 14.9393L32.808 13.6463C32.8283 13.4189 32.9395 13.2093 33.1165 13.0651ZM30.4674 31.4435C30.2717 31.4175 30.075 31.393 29.8861 31.3536C29.7333 31.3174 29.5728 31.3668 29.467 31.4831C29.3612 31.5993 29.3268 31.7639 29.3771 31.9127C29.4276 32.0615 29.5549 32.1713 29.7094 32.1993C29.7297 32.2037 29.7526 32.2049 29.7717 32.2091C29.4821 32.4873 29.1688 32.7397 28.8357 32.9637C26.2783 32.3205 24.1285 30.5948 22.948 28.2368C21.7672 25.8789 21.6731 23.1236 22.6901 20.6907C22.955 20.5956 23.2257 20.5167 23.5005 20.4548C23.4918 20.4755 23.4817 20.4954 23.4735 20.5161C23.3846 20.7378 23.492 20.9894 23.7134 21.0785C23.9349 21.1674 24.1867 21.0602 24.2756 20.8385C24.3478 20.6587 24.4361 20.4829 24.5227 20.307C24.6866 20.2945 24.8508 20.282 25.0167 20.282C25.8051 20.2834 26.5874 20.4198 27.3295 20.6853C27.3999 20.7398 27.4856 20.7709 27.5747 20.7738H27.5773C29.5969 21.5784 31.12 23.2869 31.6886 25.3854C32.2569 27.4839 31.8046 29.7275 30.4674 31.4417V31.4435ZM25.0167 19.4176C24.2764 19.418 23.5399 19.5238 22.8293 19.7314L22.8595 15.9606H27.1809L27.1507 19.7201C26.4567 19.5214 25.7387 19.4194 25.0167 19.4176ZM23.1348 13.1731C23.2959 13.014 23.5133 12.9249 23.7398 12.9255H23.7472L26.34 12.9459C26.5693 12.9477 26.7885 13.0406 26.9492 13.2041C27.1101 13.3676 27.1994 13.5882 27.1974 13.8175L27.1884 15.0962H22.8669L22.8776 13.7825C22.8786 13.5532 22.9711 13.3338 23.1348 13.1731ZM13.1151 13.4177C13.2609 13.2411 13.4719 13.1305 13.7002 13.111L16.2813 12.8684C16.5104 12.8465 16.7387 12.9167 16.9158 13.0635C17.0922 13.2083 17.2028 13.4183 17.2226 13.6459L17.3448 14.9377L13.0411 15.3408L12.9192 14.05C12.8975 13.8215 12.9679 13.5939 13.1151 13.4177ZM19.2826 36.9943C19.2012 37.085 19.0851 37.1363 18.9632 37.1357H15.4923C15.2687 37.1367 15.0813 36.9672 15.0601 36.7445L13.1224 16.2017L17.4261 15.7985L18.1563 23.5339C16.693 26.2852 17.0086 29.6435 18.959 32.074L19.391 36.6629C19.4037 36.7838 19.3643 36.9042 19.2826 36.9943ZM19.7408 22.7335C19.7993 22.799 19.8769 22.8445 19.9628 22.8632C19.9913 22.8688 20.0203 22.8718 20.0493 22.8718C20.2544 22.8716 20.4312 22.7272 20.4722 22.5261C20.5185 22.2974 20.5782 22.0676 20.6414 21.8391C20.9382 21.5979 21.2546 21.3821 21.5872 21.1939C19.9714 26.3023 22.7068 31.7703 27.764 33.5407C27.2776 33.7511 26.7686 33.9044 26.2471 33.9971C26.0345 33.8985 25.8224 33.7966 25.6192 33.6841C25.5189 33.6288 25.4004 33.6155 25.2904 33.6473C25.1802 33.6793 25.0873 33.7535 25.032 33.8539C24.9907 33.9323 24.9757 34.0218 24.9887 34.1093C22.3024 34.0998 19.8652 32.5341 18.7398 30.0948C17.6143 27.6556 18.0047 24.7853 19.7408 22.7353V22.7335ZM27.1775 36.7035C27.1775 36.9422 26.984 37.1357 26.7453 37.1357H23.2883C23.0495 37.1357 22.8561 36.9422 22.8561 36.7035V34.6678C23.9347 34.9858 25.0708 35.058 26.181 34.8794H26.1836C26.2262 34.8794 26.2686 34.8727 26.3093 34.8601C26.6021 34.8126 26.8921 34.7484 27.1775 34.6678V36.7035ZM34.9704 36.7441C34.9493 36.9668 34.7619 37.1367 34.5382 37.1357H31.0693C30.9472 37.1363 30.8306 37.085 30.7483 36.9949C30.6661 36.9048 30.6257 36.784 30.6373 36.6625L31.0733 32.0752C33.0252 29.6441 33.341 26.284 31.8762 23.5317L32.6065 15.7985L36.9098 16.2017L34.9704 36.7441Z" fill="black"/>
</g>
<defs>
<clipPath id="clip0_2211_1563">
<rect width="26" height="26" fill="white" transform="translate(12 12)"/>
</clipPath>
</defs>
</svg>
