<svg width="50" height="50" viewBox="0 0 50 50" fill="none" xmlns="http://www.w3.org/2000/svg">
<rect x="1.5" y="1.5" width="47.0005" height="47" rx="23.5" fill="white"/>
<rect x="1.5" y="1.5" width="47.0005" height="47" rx="23.5" stroke="#8B9B75" stroke-width="3"/>
<path d="M34.6506 21.0242C38.0688 21.0244 40.8499 23.8054 40.8499 27.2234C40.8497 30.6414 38.0686 33.4225 34.6506 33.4227C31.2326 33.4227 28.4516 30.6414 28.4514 27.2234C28.4514 23.8053 31.2324 21.0242 34.6506 21.0242ZM34.6506 23.8377C32.7836 23.8377 31.2649 25.3564 31.2649 27.2234C31.265 29.0904 32.7836 30.6092 34.6506 30.6092C36.5176 30.6091 38.0363 29.0903 38.0364 27.2234C38.0364 25.3565 36.5175 23.8378 34.6506 23.8377Z" fill="#002C3C" stroke="black" stroke-width="0.3"/>
<path d="M30.4213 15.7349H34.2114C34.9882 15.7349 35.6185 16.3643 35.6186 17.1412C35.6186 17.9181 34.9883 18.5484 34.2114 18.5484H32.5366L32.6245 18.7564L35.9477 26.6793C36.2294 27.3508 35.9507 28.1177 35.3246 28.4586L35.1948 28.5211C35.0167 28.5957 34.8319 28.6304 34.6508 28.6304C34.1351 28.6304 33.6443 28.3451 33.3989 27.8658L33.353 27.7672L29.1245 17.6851C28.9651 17.3051 28.9814 16.8778 29.1625 16.5142L29.2504 16.3619C29.5112 15.97 29.9506 15.735 30.4213 15.7349Z" fill="#424EDE" stroke="black" stroke-width="0.3"/>
<path d="M17.9858 17.8021H20.022C20.7988 17.8021 21.4291 18.4315 21.4292 19.2084C21.4292 19.9853 20.7989 20.6156 20.022 20.6156H17.9858C17.209 20.6155 16.5796 19.9852 16.5796 19.2084C16.5797 18.48 17.1329 17.8809 17.8423 17.809L17.9858 17.8021Z" fill="#FF5B5B" stroke="black" stroke-width="0.3"/>
<path d="M15.0361 21.6319C18.2815 21.632 20.9219 24.2722 20.9219 27.5177C20.9218 30.7631 18.2815 33.4034 15.0361 33.4034C11.7907 33.4034 9.15043 30.7631 9.15039 27.5177C9.15039 24.2722 11.7907 21.6319 15.0361 21.6319ZM15.0361 24.4454C13.3418 24.4454 11.9639 25.8234 11.9639 27.5177C11.9639 29.212 13.3418 30.5899 15.0361 30.5899C16.7304 30.5899 18.1084 29.2119 18.1084 27.5177C18.1084 25.8234 16.7304 24.4454 15.0361 24.4454Z" fill="#00607F" stroke="black" stroke-width="0.3"/>
<path d="M20.7898 19.4311L29.9128 19.433C30.4495 19.4332 30.9355 19.7382 31.1716 20.2133L31.2156 20.31C31.4175 20.8069 31.3184 21.3721 30.9675 21.7699L30.8933 21.8481L24.0525 28.5092C23.7899 28.7649 23.4376 28.9086 23.071 28.9086H15.1746C14.3977 28.9085 13.7683 28.2782 13.7683 27.5014C13.7683 26.7245 14.3977 26.0942 15.1746 26.0941H22.4988L22.5427 26.0522L24.4666 24.1791L26.1873 22.5033L26.4519 22.2455H26.0828L21.5232 22.2445H21.4529L21.408 22.2992L20.0652 23.9262C19.5134 23.1556 18.7898 22.5186 17.95 22.0678L19.7048 19.9418C19.9386 19.6586 20.2725 19.4802 20.6335 19.4398L20.7898 19.4311Z" fill="#7C84E8" stroke="black" stroke-width="0.3"/>
<path d="M29.9128 19.433C30.4497 19.4332 30.9365 19.738 31.1726 20.2133L31.2156 20.31C31.4175 20.8071 31.3185 21.3722 30.9675 21.77L30.8943 21.8471L25.2371 27.3549V23.4282L26.1882 22.5034L26.4529 22.2455H25.2371V19.4321L29.9128 19.433Z" fill="#424EDE" stroke="black" stroke-width="0.3"/>
</svg>
