<svg width="50" height="50" viewBox="0 0 50 50" fill="none" xmlns="http://www.w3.org/2000/svg">
<rect x="1.5" y="1.5" width="47.0005" height="47" rx="23.5" fill="white"/>
<rect x="1.5" y="1.5" width="47.0005" height="47" rx="23.5" stroke="#8B9B75" stroke-width="3"/>
<g clip-path="url(#clip0_2211_1690)">
<path fill-rule="evenodd" clip-rule="evenodd" d="M29.9807 17.6239C29.5062 17.6239 29.1898 17.1019 29.4271 16.6749L29.7118 16.2004H27.5923C26.754 16.2004 26.754 14.935 27.5923 14.935H29.7118L29.4271 14.4605C29.0158 13.7487 30.1072 13.116 30.5343 13.8278C30.6925 14.1125 31.3568 15.188 31.42 15.4095C31.4675 15.5677 31.4359 15.7417 31.3568 15.884L30.5343 17.3076C30.4077 17.5132 30.2021 17.6239 29.9807 17.6239ZM30.8981 25.7698C30.3603 25.7698 30.0598 25.1371 30.4077 24.7258L30.6925 24.3937L28.7153 24.7258L25.7417 27.2882C25.1248 27.8102 24.2707 26.877 24.9192 26.3234L25.8207 25.5483L24.065 24.4253L21.4236 25.3269L19.4306 26.9561C18.8137 27.4622 17.9754 26.5132 18.6397 25.9754L20.3638 24.5518L19.0352 20.9139C17.4218 20.4394 16.1248 19.2689 15.4763 17.7504L15.1441 18.5571L12.5501 23.6186L12.3287 27.7311C12.3445 27.9367 12.8823 29.9139 12.8823 30.1353V31.3691L15.6661 32.1916L22.2302 33.8524L25.7417 33.8207L29.4271 32.9033L30.5185 31.717C31.0721 31.1002 32.0053 31.9543 31.4517 32.5712L30.9297 33.1406L32.4165 33.536L33.587 33.362V22.891L31.3726 25.5325C31.2461 25.6907 31.0721 25.7698 30.8981 25.7698ZM31.942 22.891L33.587 20.9139V18.6995C33.587 18.3515 33.8717 18.0668 34.2197 18.0668H37.3041C37.652 18.0668 37.9367 18.3515 37.9367 18.6995V36.3673C37.9367 36.7153 37.652 37 37.3041 37H34.2197C33.8717 37 33.587 36.7153 33.587 36.3673V34.6432C33.2707 34.6907 32.4482 34.8489 32.2109 34.7856L29.7592 34.1213C29.6643 34.1213 26.058 35.0861 25.8207 35.0861C25.362 35.0861 22.1986 35.1494 22.0088 35.1019L15.3497 33.4253C14.6063 33.2355 12.9139 32.6977 12.0756 32.4446C11.8067 32.3656 11.6327 32.1125 11.6327 31.8436L11.6169 30.2302C11.5694 29.8664 11.0316 28.0316 11.0475 27.7469L11.3005 23.413C11.3005 23.3339 11.3322 23.239 11.3638 23.1599L14.0053 18.0193L15.0176 15.4886C15.065 12.4517 17.5483 10 20.5852 10C23.6538 10 26.1529 12.4991 26.1529 15.5677C26.1529 18.6837 23.5747 21.2144 20.4587 21.1353L21.4868 23.9666L23.9543 23.1283C24.1283 23.065 24.3339 23.0808 24.4921 23.1916L26.8172 24.6784L28.0193 23.6503C28.1142 23.5712 28.2091 23.5237 28.3357 23.5079L31.942 22.891ZM20.5852 19.8699C22.9578 19.8699 24.8875 17.9402 24.8875 15.5677C24.8875 13.1951 22.9578 11.2654 20.5852 11.2654C18.2759 11.2654 16.3779 13.1318 16.283 15.3304C16.1881 17.7979 18.1019 19.8699 20.5852 19.8699ZM19.9051 32.1757C19.7153 32.1757 15.5554 31.0844 15.0018 30.9578C14.1951 30.7364 14.5114 29.5185 15.3181 29.7241L20.0633 30.9262C20.7751 31.116 20.6485 32.1757 19.9051 32.1757ZM34.8524 35.7346H36.6714V19.3322H34.8524V35.7346ZM20.5852 19.1424C18.6081 19.1424 17.0106 17.5448 17.0106 15.5677C17.0106 13.5905 18.6081 11.993 20.5852 11.993C22.5624 11.993 24.1599 13.5905 24.1599 15.5677C24.1599 17.5448 22.5624 19.1424 20.5852 19.1424ZM20.5852 13.2583C19.3199 13.2583 18.2759 14.3023 18.2759 15.5677C18.2759 16.8489 19.3199 17.877 20.5852 17.877C21.8664 17.877 22.8946 16.8489 22.8946 15.5677C22.8946 14.3023 21.8664 13.2583 20.5852 13.2583ZM21.3919 16.2004C21.0439 16.2004 20.7592 15.9156 20.7592 15.5677C20.7592 15.4728 20.6802 15.4095 20.5852 15.4095C19.7469 15.4095 19.7469 14.1441 20.5852 14.1441C22.0879 14.1441 22.4991 16.2004 21.3919 16.2004Z" fill="#000002"/>
<path fill-rule="evenodd" clip-rule="evenodd" d="M25.8208 25.5483L24.0651 24.4253L21.4236 25.3269L19.4306 26.9561C18.8137 27.4622 17.9754 26.5132 18.6397 25.9754L20.3638 24.5518L19.0352 20.9139C17.4218 20.4394 16.1248 19.2689 15.4763 17.7504L15.1441 18.5571L12.5501 23.6186L12.3287 27.7311C12.3445 27.9367 12.8823 29.9139 12.8823 30.1353V31.3691L15.6661 32.1916L22.2303 33.8524L25.7417 33.8207L29.4271 32.9033L30.5185 31.717C31.0721 31.1002 32.0053 31.9543 31.4517 32.5712L30.9297 33.1406L32.4165 33.536L33.587 33.362V22.891L31.3726 25.5325C31.2461 25.6907 31.0721 25.7698 30.8981 25.7698C30.3603 25.7698 30.0598 25.1371 30.4078 24.7258L30.6925 24.3937L28.7153 24.7258L25.7417 27.2882C25.1248 27.8102 24.2707 26.877 24.9192 26.3234L25.8208 25.5483ZM15.3181 29.7241L20.0633 30.9262C20.7751 31.116 20.6485 32.1757 19.9051 32.1757C19.7153 32.1757 15.5554 31.0843 15.0018 30.9578C14.1951 30.7364 14.5115 29.5184 15.3181 29.7241Z" fill="#E3B486"/>
<path fill-rule="evenodd" clip-rule="evenodd" d="M20.5853 19.87C22.9579 19.87 24.8876 17.9402 24.8876 15.5677C24.8876 13.1951 22.9579 11.2654 20.5853 11.2654C18.276 11.2654 16.3779 13.1318 16.283 15.3304C16.1881 17.7979 18.102 19.87 20.5853 19.87ZM20.5853 19.1424C18.6081 19.1424 17.0106 17.5448 17.0106 15.5677C17.0106 13.5905 18.6081 11.993 20.5853 11.993C22.5624 11.993 24.16 13.5905 24.16 15.5677C24.16 17.5448 22.5624 19.1424 20.5853 19.1424Z" fill="#99A4AC"/>
<path fill-rule="evenodd" clip-rule="evenodd" d="M20.5853 17.877C21.8664 17.877 22.8946 16.8489 22.8946 15.5677C22.8946 14.3023 21.8664 13.2584 20.5853 13.2584C19.3199 13.2584 18.2759 14.3023 18.2759 15.5677C18.2759 16.8489 19.3199 17.877 20.5853 17.877ZM21.3919 16.2004C21.044 16.2004 20.7592 15.9157 20.7592 15.5677C20.7592 15.4728 20.6802 15.4095 20.5853 15.4095C19.7469 15.4095 19.7469 14.1441 20.5853 14.1441C22.0879 14.1441 22.4991 16.2004 21.3919 16.2004Z" fill="#99A4AC"/>
<path fill-rule="evenodd" clip-rule="evenodd" d="M34.8524 19.3322V35.7346H36.6713V19.3322H34.8524Z" fill="#2E9CF5"/>
</g>
<defs>
<clipPath id="clip0_2211_1690">
<rect width="27" height="27" fill="white" transform="translate(11 10)"/>
</clipPath>
</defs>
</svg>
