<svg width="50" height="50" viewBox="0 0 50 50" fill="none" xmlns="http://www.w3.org/2000/svg">
<rect x="1.5" y="1.5" width="47.0005" height="47" rx="23.5" fill="white"/>
<rect x="1.5" y="1.5" width="47.0005" height="47" rx="23.5" stroke="#8B9B75" stroke-width="3"/>
<path d="M25.0037 10C16.7321 10 10 16.7246 10 24.9963C10 33.2679 16.7321 40 25.0037 40C33.2754 40 40 33.2679 40 24.9963C40 16.7246 33.2754 10 25.0037 10Z" fill="black"/>
<path d="M25.0036 12.018C32.1849 12.018 37.982 17.815 37.982 24.9964C37.982 32.1778 32.1849 37.9822 25.0036 37.9822C17.8222 37.9822 12.0177 32.1778 12.0177 24.9964C12.0177 17.815 17.8222 12.018 25.0036 12.018Z" fill="#B9DAFB"/>
<path d="M29.4341 39.315C29.6806 39.2387 29.8884 39.0706 30.0149 38.8459L32.4647 34.4751C32.6743 34.1053 32.6297 33.6437 32.353 33.3209L29.1437 29.5905C28.9531 29.3694 28.6761 29.2417 28.3842 29.2405L21.5116 29.2023C21.1499 29.2004 20.8739 29.4029 20.7074 29.6641L18.1311 33.6403C17.92 33.9685 17.917 34.3889 18.1235 34.72L20.7966 39.0908C20.9347 39.3176 21.1568 39.4809 21.4146 39.545C22.586 39.8401 23.7881 39.998 24.9999 39.9992C26.5063 40.0006 28.0003 39.764 29.4341 39.315Z" fill="black"/>
<path d="M10.2981 25.6068C10.1291 25.8134 10.0488 26.0784 10.0747 26.3439C10.3112 28.9404 11.2184 31.4287 12.7106 33.5666C12.8554 33.7751 13.0734 33.9211 13.3212 33.9761L18.7568 35.1898C19.1687 35.2802 19.5934 35.1052 19.8216 34.7505L22.4053 30.752C22.5668 30.4996 22.6077 30.1886 22.517 29.9031L20.447 23.4102C20.3569 23.1319 20.1505 22.9064 19.8811 22.7922L15.2125 20.7818C15.0878 20.7284 14.9535 20.7001 14.8178 20.6997C14.5131 20.6959 14.2219 20.829 14.0286 21.0646L10.2981 25.6068Z" fill="black"/>
<path d="M15.1077 22.9338L18.6669 24.4602L20.454 30.0596L18.5106 33.0678L14.2514 32.1147C13.1297 30.4191 12.4332 28.4896 12.1964 26.4706L15.1077 22.9338Z" fill="#B9DAFB"/>
<path d="M25.4654 13.0306C25.062 13.1335 24.7633 13.4736 24.7133 13.8869L24.0208 19.6278C23.9795 19.9892 24.136 20.3448 24.4303 20.5585L29.9255 24.6017C30.1812 24.7874 30.5092 24.8426 30.8116 24.7508L35.9344 23.1945C36.3069 23.0828 36.5822 22.7672 36.6418 22.3829L37.4534 17.1484C37.4922 16.8922 37.4309 16.631 37.2822 16.4188C35.8794 14.4113 34.0039 12.7774 31.8242 11.6607C31.6748 11.5836 31.5084 11.5452 31.3403 11.549C31.2649 11.5506 31.19 11.5604 31.1169 11.5795L25.4654 13.0306Z" fill="black"/>
<path d="M31.1391 13.656C32.8097 14.5629 34.2471 15.8275 35.3759 17.3566L34.743 21.452L30.7072 22.6731L26.0981 19.2852L26.6343 14.8176L31.1391 13.656Z" fill="#B9DAFB"/>
<path d="M24.4378 18.9204L18.8979 22.8966C18.5405 23.1524 18.3899 23.6103 18.5256 24.0284L20.5956 30.5213C20.7289 30.9358 21.1132 31.218 21.5487 31.2212L28.3693 31.2659C28.8055 31.267 29.193 30.9876 29.3298 30.5734L31.4743 24.0954C31.6095 23.6827 31.4655 23.2297 31.1168 22.9709L25.6217 18.9277C25.4304 18.7874 25.1958 18.7189 24.959 18.7341C24.7713 18.7456 24.5908 18.811 24.4378 18.9204Z" fill="black"/>
<path d="M25.0182 20.9904L29.3295 24.1624L27.6467 29.2406L22.293 29.2101L20.6697 24.1096L25.0182 20.9904Z" fill="#B9DAFB"/>
<path d="M22.1077 31.2212L27.9081 31.2592L30.3578 34.1037L28.4815 37.4394C27.3478 37.7608 26.1835 37.978 25.0042 37.983C24.0793 37.9792 23.1662 37.8335 22.264 37.633L20.1717 34.2079L22.1077 31.2212Z" fill="#B9DAFB"/>
<path d="M30.2237 22.8146C29.9108 22.9103 29.6638 23.1516 29.561 23.4624L27.4165 29.933C27.3052 30.2696 27.3788 30.6399 27.6101 30.9084L30.7896 34.6314C31.0244 34.9055 31.3879 35.0333 31.7427 34.9665L36.6049 34.0581C36.8636 34.0104 37.0934 33.8632 37.2453 33.6485C38.7244 31.5583 39.6389 29.1284 39.9109 26.5823C39.9392 26.3245 39.8672 26.066 39.7099 25.86L36.4411 21.6158C36.2325 21.3417 35.8824 21.115 35.4545 21.2433L30.2237 22.8146Z" fill="black"/>
<path d="M35.2637 23.3954L37.7879 26.6791C37.5253 28.648 36.8151 30.5233 35.7105 32.1742L31.9428 32.8741L29.5079 30.0298L31.3099 24.5942L35.2637 23.3954Z" fill="#B9DAFB"/>
<path d="M14.1546 14.6612C13.9795 14.8465 13.8811 15.0913 13.8791 15.3463L13.7897 21.6977C13.7852 22.1051 14.026 22.4752 14.4003 22.6359L19.0913 24.6463C19.416 24.7832 19.7885 24.7409 20.0742 24.5347L25.614 20.551C25.8434 20.3886 25.9946 20.1374 26.031 19.8586L26.7458 14.1326C26.7982 13.6919 26.5564 13.2688 26.1501 13.0901L21.0124 10.8117C20.858 10.7438 20.689 10.7148 20.521 10.7296C20.4397 10.7373 20.3602 10.7563 20.2827 10.7819C17.9529 11.5563 15.8492 12.8847 14.1546 14.6612Z" fill="black"/>
<path d="M24.6459 14.6314L24.08 19.1735L19.3592 22.5689L15.8149 21.0499L15.8894 15.8823C17.2386 14.5378 18.8624 13.5113 20.6549 12.8667L24.6459 14.6314Z" fill="#B9DAFB"/>
</svg>
