<svg width="50" height="50" viewBox="0 0 50 50" fill="none" xmlns="http://www.w3.org/2000/svg">
<rect x="1.5" y="1.5" width="47.0005" height="47" rx="23.5" fill="white"/>
<rect x="1.5" y="1.5" width="47.0005" height="47" rx="23.5" stroke="#8B9B75" stroke-width="3"/>
<path d="M25 31.5C31.2132 31.5 36.25 26.4632 36.25 20.25C36.25 14.0368 31.2132 9 25 9C18.7868 9 13.75 14.0368 13.75 20.25C13.75 26.4632 18.7868 31.5 25 31.5Z" fill="#BEBECE"/>
<path d="M36.25 20.25C36.25 26.4633 31.2133 31.5 25 31.5V9C31.2133 9 36.25 14.0367 36.25 20.25Z" fill="#BEBECE"/>
<path d="M18.8257 24.6662H20.5835V26.424H18.8257V24.6662Z" fill="#E2E0F4"/>
<path d="M22.356 24.6668H24.1138V26.4246H22.356V24.6668Z" fill="#E2E0F4"/>
<path d="M25.8862 24.6668H27.644V26.4246H25.8862V24.6668Z" fill="#BEBDDC"/>
<path d="M17.0605 21.1359H18.8184V22.8937H17.0605V21.1359Z" fill="#E2E0F4"/>
<path d="M20.5908 21.1359H22.3486V22.8937H20.5908V21.1359Z" fill="#E2E0F4"/>
<path d="M20.5908 14.0754H22.3486V15.8332H20.5908V14.0754Z" fill="#E2E0F4"/>
<path d="M17.0605 17.3978H18.8184V19.1556H17.0605V17.3978Z" fill="#E2E0F4"/>
<path d="M31.2209 29.625V31.5C31.2209 31.5 27.7059 35.2699 26.9014 38.8811L26.875 39H23.125C22.3041 35.3133 18.7791 31.5 18.7791 31.5V29.625H31.2209Z" fill="#16799A"/>
<path d="M31.2209 29.625V31.5C31.2209 31.5 27.7059 35.2699 26.9014 38.8811L26.875 39H25V29.625H31.2209Z" fill="#12627C"/>
</svg>
