<svg width="50" height="50" viewBox="0 0 50 50" fill="none" xmlns="http://www.w3.org/2000/svg">
<rect x="1.5" y="1.5" width="47.0005" height="47" rx="23.5" fill="white"/>
<rect x="1.5" y="1.5" width="47.0005" height="47" rx="23.5" stroke="#8B9B75" stroke-width="3"/>
<g clip-path="url(#clip0_2211_1489)">
<path d="M39.5453 21.325C39.5406 21.3109 39.5359 21.2969 39.5312 21.2828C38.575 17.5469 36.2125 14.3688 33.0438 12.3484C33.0156 12.3297 32.9922 12.3109 32.9641 12.2969C30.9203 11.0125 28.5484 10.2063 26.0031 10.0375C25.9844 10.0375 25.9656 10.0328 25.9469 10.0328C25.6328 10.0141 25.3188 10 25 10C21.3719 10 18.0391 11.2938 15.4422 13.45C15.4234 13.4641 15.4047 13.4781 15.3859 13.4969C13.5109 15.0672 12.025 17.0875 11.0922 19.3938C11.0734 19.4266 11.0594 19.4547 11.05 19.4922C10.375 21.1984 10 23.0547 10 25C10 26.9547 10.3797 28.825 11.0641 30.5406C11.0734 30.5641 11.0781 30.5875 11.0922 30.6062C12.025 32.9125 13.5109 34.9328 15.3906 36.5031C15.4047 36.5219 15.4187 36.5359 15.4422 36.55C18.0391 38.7016 21.3719 40 25 40C25.3188 40 25.6328 39.9859 25.9469 39.9672H25.9563C25.9609 39.9672 25.9656 39.9672 25.975 39.9625C28.5344 39.7984 30.9203 38.9922 32.9734 37.6984C33.0016 37.6797 33.0297 37.6656 33.0531 37.6422C36.2172 35.6219 38.5797 32.4484 39.5359 28.7125C39.5406 28.6984 39.5406 28.6891 39.5453 28.675C39.8406 27.4984 40 26.2656 40 25C40 23.7344 39.8406 22.5016 39.5453 21.325ZM38.3547 20.5188L34.1969 18.3156L33.3906 13.6891C35.6781 15.3859 37.4313 17.7625 38.3547 20.5188ZM26.125 10.9562C28.3891 11.1391 30.5031 11.8516 32.3453 12.9813L33.2969 18.4328L30.3531 20.8516L23.8609 18.7422L22.1828 14.7766L26.125 10.9562ZM30.0437 21.7094V28.2906L23.7812 30.325L19.9141 25L23.7812 19.675L30.0437 21.7094ZM24.8641 10.9141L21.4891 14.1859L16.8391 13.525C19.1078 11.9031 21.8734 10.9422 24.8641 10.9141ZM15.8453 14.3031L21.325 15.0813L23.0453 19.1453L19.1172 24.5453H14.4156L11.9922 19.5906C12.8453 17.5375 14.1766 15.7281 15.8453 14.3031ZM10.9094 25C10.9094 23.5281 11.1391 22.1078 11.5562 20.7719L13.6281 25L11.5609 29.2281C11.1391 27.8922 10.9094 26.4719 10.9094 25ZM11.9922 30.4141L14.4203 25.4547H19.1172L23.0453 30.8547L21.3297 34.9141L15.8406 35.6969C14.1766 34.2672 12.85 32.4625 11.9922 30.4141ZM16.8344 36.475L21.4891 35.8141L24.8641 39.0859C21.8734 39.0578 19.1078 38.0922 16.8344 36.475ZM32.3453 37.0187C30.5031 38.1484 28.3891 38.8609 26.1203 39.0437L22.1875 35.2234L23.8609 31.2578L30.3531 29.1484L33.2969 31.5672L32.3453 37.0187ZM33.3906 36.3109L34.1969 31.6844L38.3547 29.4813C37.4313 32.2328 35.6781 34.6141 33.3906 36.3109ZM38.7063 28.2672L33.8453 30.8406L30.9531 28.4688V21.5312L33.8453 19.1547L38.7063 21.7328C38.9547 22.7828 39.0906 23.875 39.0906 25C39.0906 26.125 38.9547 27.2172 38.7063 28.2672Z" fill="black"/>
<path d="M24.864 39.086C21.8734 39.0578 19.1078 38.0922 16.8344 36.475L21.489 35.8141L24.864 39.086Z" fill="#DDDDDD"/>
<path d="M13.6281 25L11.5609 29.2281C11.1391 27.8922 10.9094 26.4719 10.9094 25C10.9094 23.5281 11.1391 22.1078 11.5562 20.7719L13.6281 25Z" fill="#DDDDDD"/>
<path d="M24.864 10.9141L21.4891 14.1859L16.8391 13.525C19.1078 11.9031 21.8734 10.9422 24.864 10.9141Z" fill="#DDDDDD"/>
<path d="M38.3547 20.5188L34.1969 18.3156L33.3906 13.6891C35.6781 15.386 37.4313 17.7625 38.3547 20.5188Z" fill="#DDDDDD"/>
<path d="M30.0437 21.7094V28.2906L23.7813 30.325L19.9141 25L23.7813 19.675L30.0437 21.7094Z" fill="#DDDDDD"/>
<path d="M38.3547 29.4813C37.4313 32.2328 35.6781 34.6141 33.3906 36.3109L34.1969 31.6844L38.3547 29.4813Z" fill="#DDDDDD"/>
<path d="M33.2969 18.4328L30.3531 20.8516L23.8609 18.7422L22.1828 14.7766L26.125 10.9562C28.3891 11.1391 30.5031 11.8516 32.3453 12.9812L33.2969 18.4328Z" fill="#4BC8F1"/>
<path d="M23.0453 30.8547L21.3297 34.9141L15.8406 35.6969C14.1766 34.2672 12.85 32.4625 11.9922 30.4141L14.4203 25.4547H19.1172L23.0453 30.8547Z" fill="#4BC8F1"/>
<path d="M23.0453 19.1453L19.1172 24.5453H14.4156L11.9922 19.5906C12.8453 17.5375 14.1766 15.7281 15.8453 14.3031L21.325 15.0812L23.0453 19.1453Z" fill="#4BC8F1"/>
<path d="M33.2969 31.5672L32.3453 37.0188C30.5031 38.1484 28.3891 38.8609 26.1203 39.0438L22.1875 35.2234L23.8609 31.2578L30.3531 29.1484L33.2969 31.5672Z" fill="#4BC8F1"/>
<path d="M39.0906 25C39.0906 26.125 38.9547 27.2172 38.7063 28.2672L33.8453 30.8406L30.9531 28.4687V21.5312L33.8453 19.1547L38.7063 21.7328C38.9547 22.7828 39.0906 23.875 39.0906 25Z" fill="#4BC8F1"/>
</g>
<defs>
<clipPath id="clip0_2211_1489">
<rect width="30" height="30" fill="white" transform="translate(10 10)"/>
</clipPath>
</defs>
</svg>
