<svg width="50" height="50" viewBox="0 0 50 50" fill="none" xmlns="http://www.w3.org/2000/svg">
<rect x="1.5" y="1.5" width="47.0005" height="47" rx="23.5" fill="white"/>
<rect x="1.5" y="1.5" width="47.0005" height="47" rx="23.5" stroke="#8B9B75" stroke-width="3"/>
<g clip-path="url(#clip0_2211_1508)">
<path d="M28.2274 12.247C28.2285 12.2473 28.23 12.2476 28.2313 12.248C28.2409 12.2504 28.2556 12.2542 28.2733 12.2567L28.3074 12.2616L28.3416 12.2567C28.3924 12.2499 28.4438 12.2476 28.4949 12.2489L28.6483 12.2665C28.9561 12.3307 29.1955 12.5379 29.2996 12.8241L29.3358 12.9521L29.6024 14.2206L29.6297 14.3515L29.7537 14.4013C30.3364 14.6355 30.8887 14.937 31.3992 15.3065L31.6151 15.4687L31.616 15.4696L31.618 15.4706C31.6192 15.4717 31.6219 15.4731 31.6248 15.4755V15.4765C31.6284 15.4797 31.6316 15.4827 31.6336 15.4843C31.6345 15.485 31.6351 15.4858 31.6356 15.4862H31.6365L31.6385 15.4882C32.6293 16.2627 33.4219 17.2753 33.9393 18.4296L34.0389 18.662L37.7166 27.6552V27.6562C38.0038 28.3645 37.8901 29.1669 37.4393 29.7421L37.3445 29.8544C36.459 30.8322 34.5094 32.4198 31.1736 32.4198C31.1583 32.4198 31.1413 32.4188 31.119 32.4179C31.0984 32.417 31.0718 32.4162 31.0457 32.4159L30.7567 32.412L30.7947 32.6982C30.8836 33.3751 30.9553 34.1271 31.0018 34.9618L31.0399 35.8251C31.0544 36.2709 30.9134 36.6954 30.6395 37.0409L30.5135 37.1835C30.1576 37.5511 29.6819 37.7528 29.1717 37.7528H20.7938C20.3474 37.7528 19.9272 37.5982 19.5906 37.3134L19.451 37.1835C19.1397 36.862 18.9582 36.4532 18.9285 36.0146L18.9256 35.8251C18.9633 34.6368 19.052 33.6002 19.1707 32.6972L19.2078 32.412L18.9207 32.414C18.9005 32.4141 18.8799 32.4153 18.8651 32.4159L18.827 32.4169C15.6956 32.4171 13.7883 31.0229 12.8338 30.0439L12.6551 29.8534H12.6541C12.1267 29.275 11.9775 28.4126 12.283 27.6581L15.9608 18.662C16.4434 17.4804 17.2147 16.4327 18.2 15.6181L18.4002 15.4589C18.9891 15.0034 19.6464 14.6364 20.3533 14.3622L20.4803 14.3134L20.5076 14.1806L20.7645 12.953C20.8289 12.645 21.0374 12.4066 21.324 12.3026L21.451 12.2665C21.5421 12.2476 21.6326 12.2429 21.7205 12.2509L21.7391 12.2528L21.7576 12.2519C21.7694 12.2512 21.7798 12.2485 21.7889 12.247H28.2274ZM20.9197 27.8681C20.5756 28.4619 19.5939 30.5111 19.3406 34.9228L19.2996 35.8368C19.2884 36.1924 19.4024 36.5328 19.6209 36.8085L19.7205 36.9228C20.0043 37.2158 20.3866 37.3778 20.7938 37.3778H29.1717C29.5276 37.3778 29.8649 37.2537 30.1336 37.0263L30.2449 36.9228C30.493 36.6665 30.639 36.3384 30.6629 35.9882L30.6649 35.8368L30.6248 34.9237C30.3716 30.5153 29.3916 28.4654 29.0457 27.8681L28.9734 27.7431H20.992L20.9197 27.8681ZM31.4666 16.2851L30.3094 19.6259L30.3045 19.6405L30.3016 19.6552L29.2986 24.2753V24.2763C29.2948 24.2847 29.2891 24.2982 29.284 24.3144L29.2733 24.3505V27.5185L29.3113 27.579C29.4581 27.8134 29.7621 28.368 30.0779 29.3485L30.1434 29.5526L30.3553 29.5185C31.8338 29.2833 34.5463 28.2557 36.6463 26.4872L36.7859 26.37L36.7166 26.2011L33.6922 18.8046V18.8036L33.5281 18.4345C33.1233 17.584 32.5593 16.8201 31.8729 16.1835L31.5916 15.9228L31.4666 16.2851ZM18.1443 16.1689C17.3488 16.9014 16.7174 17.8002 16.3074 18.8036L13.285 26.1982L13.2156 26.3671L13.3553 26.4843C15.4309 28.2308 18.1303 29.2631 19.6102 29.5107L19.8231 29.5458L19.8895 29.3407C20.2139 28.3357 20.5278 27.7779 20.6688 27.5565L20.7078 27.495V24.2763C20.7089 24.2689 20.7113 24.2608 20.7117 24.2519L20.7127 24.2187L20.7059 24.1855L19.7225 19.6552L19.7195 19.6405L19.7147 19.6259L18.5496 16.2714L18.4246 15.911L18.1443 16.1689ZM28.5711 12.6337C28.4948 12.6181 28.288 12.5967 28.1199 12.7577L28.0506 12.8378L25.2215 16.8232L25.2156 16.831L25.2117 16.8358C25.2112 16.8366 25.2113 16.8379 25.2108 16.8388L20.8973 22.9149L20.8328 23.0048L20.8563 23.1132L21.0223 23.8749L21.0652 24.0722H22.5965L22.6707 23.9648L29.2049 14.5341L29.2664 14.4452L29.244 14.3407L28.9686 13.0292C28.922 12.8069 28.7721 12.7055 28.6629 12.661L28.5721 12.6337H28.5711ZM29.4207 14.8817L23.324 23.6796L23.0526 24.0722H28.9588L29.0018 23.8749L29.9402 19.5497L29.9393 19.5487C29.9411 19.5409 29.9447 19.5333 29.9471 19.5263L29.9461 19.5253L31.2156 15.8622L31.2772 15.6855L31.1248 15.5771C30.6857 15.2638 30.217 15.0016 29.7234 14.7939L29.5359 14.7148L29.4207 14.8817ZM20.3602 14.7646C19.8368 14.9791 19.3465 15.2471 18.8934 15.5663L18.7391 15.6747L18.8016 15.8524L20.0779 19.5282L20.0828 19.5487L20.0838 19.5497L20.6053 21.955L20.7254 22.5087L21.0535 22.0468L23.2742 18.9189L23.3748 18.7763L23.2752 18.6327L20.6609 14.8544L20.5467 14.6884L20.3602 14.7646ZM21.5281 12.6327C21.4512 12.6487 21.2529 12.713 21.1629 12.9276L21.1317 13.0292L20.8572 14.3417L20.8348 14.4472L20.8963 14.5351L23.4031 18.1581L23.6063 18.4511L23.8123 18.1601L24.7166 16.8866L24.8201 16.7411L24.7166 16.5966L22.0496 12.8378L21.9803 12.7577C21.8603 12.6431 21.7205 12.6205 21.6219 12.623L21.5281 12.6327ZM21.824 12.2401C21.8226 12.2405 21.8199 12.2405 21.8172 12.2411L21.825 12.2392H21.827C21.827 12.2392 21.8257 12.2397 21.824 12.2401Z" fill="#2A6E85" stroke="black" stroke-width="0.5"/>
</g>
<defs>
<clipPath id="clip0_2211_1508">
<rect width="28" height="28" fill="white" transform="translate(11 11)"/>
</clipPath>
</defs>
</svg>
