<svg width="50" height="50" viewBox="0 0 50 50" fill="none" xmlns="http://www.w3.org/2000/svg">
<rect x="1.5" y="1.5" width="47.0005" height="47" rx="23.5" fill="white"/>
<rect x="1.5" y="1.5" width="47.0005" height="47" rx="23.5" stroke="#8B9B75" stroke-width="3"/>
<g clip-path="url(#clip0_2211_1699)">
<path fill-rule="evenodd" clip-rule="evenodd" d="M20.5773 30.5437L18.4563 28.4228L11.5469 34.8752L14.1248 37.4531L20.5773 30.5437Z" fill="#B278D3"/>
<path fill-rule="evenodd" clip-rule="evenodd" d="M18.4563 28.4227L20.5772 30.5437C23.8117 27.3092 31.4839 29.2872 36.113 24.6581C39.3636 21.4076 39.345 17.7096 35.3177 13.6823C31.2903 9.65497 27.5923 9.63643 24.3418 12.8869C19.7127 17.5161 21.6907 25.1883 18.4563 28.4227ZM26.1768 26.175C24.6329 26.4285 23.1086 26.7106 21.7384 27.2616C22.2893 25.8913 22.5714 24.3671 22.8249 22.8231C23.2499 23.4767 23.7499 24.0983 24.3258 24.6741C24.9017 25.25 25.5232 25.75 26.1768 26.175Z" fill="#CBE558"/>
<path d="M16.8 29.9695L18.4563 28.4227C21.6907 25.1883 19.7128 17.5161 24.3419 12.8869C27.5924 9.63643 31.2903 9.65497 35.3177 13.6823C39.345 17.7096 39.3636 21.4076 36.113 24.6581C31.4839 29.2872 23.8117 27.3092 20.5773 30.5437L14.1248 37.4531L11.5469 34.8751L13.203 33.3286" stroke="black" stroke-width="1.17188" stroke-miterlimit="22.9256" stroke-linecap="round" stroke-linejoin="round"/>
<path fill-rule="evenodd" clip-rule="evenodd" d="M21.7384 27.2616C23.1087 26.7106 24.633 26.4285 26.1768 26.175C25.5232 25.7501 24.9017 25.25 24.3259 24.6741C23.75 24.0983 23.25 23.4767 22.825 22.8231C22.5715 24.367 22.2894 25.8913 21.7384 27.2616Z" stroke="black" stroke-width="1.17188" stroke-miterlimit="22.9256" stroke-linecap="round" stroke-linejoin="round"/>
<path d="M18.6172 28.5836L20.4164 30.3828" stroke="black" stroke-width="1.17188" stroke-miterlimit="22.9256" stroke-linecap="round" stroke-linejoin="round"/>
<path d="M28.0961 13.9431L28.0965 13.9435" stroke="black" stroke-width="1.17188" stroke-miterlimit="22.9256" stroke-linecap="round" stroke-linejoin="round"/>
<path d="M26.356 15.6832L26.3561 15.6833" stroke="black" stroke-width="1.17188" stroke-miterlimit="22.9256" stroke-linecap="round" stroke-linejoin="round"/>
<path d="M24.6158 17.4234L24.6159 17.4235" stroke="black" stroke-width="1.17188" stroke-miterlimit="22.9256" stroke-linecap="round" stroke-linejoin="round"/>
<path d="M31.5764 13.9431L31.5768 13.9435" stroke="black" stroke-width="1.17188" stroke-miterlimit="22.9256" stroke-linecap="round" stroke-linejoin="round"/>
<path d="M29.8362 15.6832L29.8363 15.6833" stroke="black" stroke-width="1.17188" stroke-miterlimit="22.9256" stroke-linecap="round" stroke-linejoin="round"/>
<path d="M28.0961 17.4234L28.0965 17.4237" stroke="black" stroke-width="1.17188" stroke-miterlimit="22.9256" stroke-linecap="round" stroke-linejoin="round"/>
<path d="M26.356 19.1635L26.3563 19.1639" stroke="black" stroke-width="1.17188" stroke-miterlimit="22.9256" stroke-linecap="round" stroke-linejoin="round"/>
<path d="M24.6158 20.9037L24.6159 20.9038" stroke="black" stroke-width="1.17188" stroke-miterlimit="22.9256" stroke-linecap="round" stroke-linejoin="round"/>
<path d="M33.3165 15.6832L33.3166 15.6833" stroke="black" stroke-width="1.17188" stroke-miterlimit="22.9256" stroke-linecap="round" stroke-linejoin="round"/>
<path d="M31.5764 17.4234L31.5765 17.4235" stroke="black" stroke-width="1.17188" stroke-miterlimit="22.9256" stroke-linecap="round" stroke-linejoin="round"/>
<path d="M29.8362 19.1635L29.8365 19.1639" stroke="black" stroke-width="1.17188" stroke-miterlimit="22.9256" stroke-linecap="round" stroke-linejoin="round"/>
<path d="M28.0961 20.9037L28.0965 20.904" stroke="black" stroke-width="1.17188" stroke-miterlimit="22.9256" stroke-linecap="round" stroke-linejoin="round"/>
<path d="M26.356 22.6438L26.3561 22.6439" stroke="black" stroke-width="1.17188" stroke-miterlimit="22.9256" stroke-linecap="round" stroke-linejoin="round"/>
<path d="M35.0566 17.4234L35.0567 17.4235" stroke="black" stroke-width="1.17188" stroke-miterlimit="22.9256" stroke-linecap="round" stroke-linejoin="round"/>
<path d="M33.3165 19.1635L33.3169 19.1639" stroke="black" stroke-width="1.17188" stroke-miterlimit="22.9256" stroke-linecap="round" stroke-linejoin="round"/>
<path d="M31.5764 20.9037L31.5765 20.9038" stroke="black" stroke-width="1.17188" stroke-miterlimit="22.9256" stroke-linecap="round" stroke-linejoin="round"/>
<path d="M29.8362 22.6438L29.8363 22.6439" stroke="black" stroke-width="1.17188" stroke-miterlimit="22.9256" stroke-linecap="round" stroke-linejoin="round"/>
<path d="M28.0961 24.3839L28.0965 24.3843" stroke="black" stroke-width="1.17188" stroke-miterlimit="22.9256" stroke-linecap="round" stroke-linejoin="round"/>
<path d="M35.0566 20.9037L35.0567 20.9038" stroke="black" stroke-width="1.17188" stroke-miterlimit="22.9256" stroke-linecap="round" stroke-linejoin="round"/>
<path d="M33.3165 22.6438L33.3166 22.6439" stroke="black" stroke-width="1.17188" stroke-miterlimit="22.9256" stroke-linecap="round" stroke-linejoin="round"/>
<path d="M31.5764 24.3839L31.5765 24.384" stroke="black" stroke-width="1.17188" stroke-miterlimit="22.9256" stroke-linecap="round" stroke-linejoin="round"/>
<path d="M15.0012 31.649H15.0013" stroke="black" stroke-width="1.17188" stroke-miterlimit="2.6131" stroke-linecap="round" stroke-linejoin="round"/>
</g>
<defs>
<clipPath id="clip0_2211_1699">
<rect width="28" height="28" fill="white" transform="translate(11 10)"/>
</clipPath>
</defs>
</svg>
