<svg width="50" height="50" viewBox="0 0 50 50" fill="none" xmlns="http://www.w3.org/2000/svg">
<rect x="1.5" y="1.5" width="47.0005" height="47" rx="23.5" fill="white"/>
<rect x="1.5" y="1.5" width="47.0005" height="47" rx="23.5" stroke="#8B9B75" stroke-width="3"/>
<g clip-path="url(#clip0_2211_1676)">
<path d="M34.2031 30.8281H32.9375L28.2969 20.2812H25.898C25.4548 20.2812 25.0159 20.194 24.6064 20.0243C24.197 19.8547 23.8249 19.6061 23.5115 19.2927L22.1135 17.8947C21.8001 17.5814 21.5515 17.2093 21.3819 16.7998C21.2123 16.3903 21.125 15.9515 21.125 15.5083V13.8807C21.125 13.7138 21.0755 13.5507 20.9828 13.412C20.8901 13.2732 20.7583 13.1651 20.6041 13.1012C20.45 13.0373 20.2803 13.0206 20.1166 13.0532C19.953 13.0858 19.8026 13.1661 19.6846 13.2841L13.9531 19.0156L13.3976 19.5712C13.0842 19.8846 12.8356 20.2566 12.666 20.6661C12.4964 21.0756 12.4091 21.5145 12.4091 21.9577C12.4091 22.4009 12.4964 22.8398 12.666 23.2492C12.8356 23.6587 13.0842 24.0308 13.3976 24.3442L17.514 28.4603C17.6722 28.6186 17.8868 28.7075 18.1106 28.7075H19.4375C19.6613 28.7075 19.8759 28.7964 20.0341 28.9546C20.1924 29.1128 20.2813 29.3274 20.2813 29.5512V30.9003C20.2813 31.1241 20.3702 31.3387 20.5284 31.4969L24.0359 35.0047C24.5844 35.5531 25.2356 35.9881 25.9522 36.2849C26.6688 36.5817 27.4369 36.7344 28.2125 36.7344H35.0469C35.4944 36.7344 35.9237 36.5566 36.2401 36.2401C36.5566 35.9236 36.7344 35.4944 36.7344 35.0469V33.3594C36.7344 32.688 36.4677 32.0442 35.993 31.5695C35.5183 31.0948 34.8745 30.8281 34.2031 30.8281Z" fill="#606669"/>
<path d="M23.2344 23.2344L34.2031 12.2656H22.3906L17.3281 17.3281L23.2344 23.2344Z" fill="#F5CBAA"/>
<path d="M28.2969 21.125V18.5938C28.2969 18.37 28.208 18.1554 28.0497 17.9971C27.8915 17.8389 27.6769 17.75 27.4531 17.75H26.1875C25.9637 17.75 25.7491 17.8389 25.5909 17.9971C25.4326 18.1554 25.3438 18.37 25.3438 18.5938V21.125H28.2969Z" fill="#FDE575"/>
<path d="M20.8779 13.2841C20.7995 13.2058 20.7065 13.1436 20.6041 13.1012C20.5018 13.0588 20.3921 13.037 20.2812 13.037C20.1704 13.037 20.0607 13.0588 19.9584 13.1012C19.856 13.1436 19.763 13.2058 19.6846 13.2841L13.9531 19.0156L27.6578 32.7203C28.1279 33.1904 28.686 33.5633 29.3002 33.8178C29.9145 34.0722 30.5728 34.2031 31.2376 34.2031H36.7344V33.3594C36.7344 32.688 36.4677 32.0442 35.993 31.5695C35.5183 31.0948 34.8745 30.8281 34.2031 30.8281H32.9375L28.2969 20.2812H25.898C25.4548 20.2812 25.0159 20.194 24.6064 20.0243C24.197 19.8547 23.8249 19.6061 23.5115 19.2927L22.1135 17.8947C21.8001 17.5813 21.5515 17.2093 21.3819 16.7998C21.2123 16.3903 21.125 15.9515 21.125 15.5083V13.8807C21.125 13.657 21.0361 13.4424 20.8779 13.2841Z" fill="#FDE575"/>
<path d="M17.3281 19.0156C17.3288 19.459 17.2418 19.898 17.0722 20.3076C16.9026 20.7172 16.6537 21.0893 16.3399 21.4024L13.9531 19.0156L16.3399 16.6289C16.6537 16.942 16.9026 17.314 17.0722 17.7236C17.2418 18.1332 17.3288 18.5723 17.3281 19.0156Z" fill="#99A2A7"/>
<path d="M29.4106 22.8125H25.753C25.0882 22.8125 24.4299 22.6816 23.8157 22.4271C23.2015 22.1727 22.6434 21.7998 22.1734 21.3296L20.0766 19.2329C19.6065 18.7628 19.2336 18.2048 18.9791 17.5906C18.7247 16.9764 18.5937 16.3181 18.5938 15.6533V14.375L19.6848 13.2839C19.8029 13.166 19.9532 13.0857 20.1169 13.0532C20.2805 13.0206 20.4502 13.0374 20.6043 13.1013C20.7585 13.1652 20.8902 13.2734 20.9829 13.4121C21.0756 13.5509 21.125 13.714 21.125 13.8809V15.5083C21.125 15.9515 21.2123 16.3905 21.382 16.8C21.5516 17.2095 21.8003 17.5816 22.1138 17.895L23.5112 19.2925C23.8246 19.606 24.1967 19.8546 24.6063 20.0243C25.0158 20.1939 25.4547 20.2812 25.898 20.2812H28.2969L29.4106 22.8125Z" fill="#99A2A7"/>
<path d="M32.9375 30.8281H31.9293C31.6018 30.8281 31.2814 30.7328 31.0071 30.5539C30.7328 30.3749 30.5166 30.12 30.3847 29.8203L26.1875 20.2812H28.2969L32.9375 30.8281Z" fill="#EBD46C"/>
<path d="M34.2032 30.4063H33.2128L32.2847 28.2969H32.5157C32.6275 28.2969 32.7348 28.2524 32.814 28.1733C32.8931 28.0942 32.9375 27.9869 32.9375 27.875C32.9375 27.7631 32.8931 27.6558 32.814 27.5767C32.7348 27.4976 32.6275 27.4531 32.5157 27.4531H31.9134L31.5422 26.6094H31.6719C31.7838 26.6094 31.8911 26.5649 31.9702 26.4858C32.0493 26.4067 32.0938 26.2994 32.0938 26.1875C32.0938 26.0756 32.0493 25.9683 31.9702 25.8892C31.8911 25.8101 31.7838 25.7656 31.6719 25.7656H31.1709L30.7997 24.9219H30.8282C30.94 24.9219 31.0473 24.8774 31.1265 24.7983C31.2056 24.7192 31.25 24.6119 31.25 24.5C31.25 24.3881 31.2056 24.2808 31.1265 24.2017C31.0473 24.1226 30.94 24.0781 30.8282 24.0781H30.4284L30.0544 23.2281C30.1583 23.21 30.2515 23.1537 30.3159 23.0703C30.3803 22.9869 30.4112 22.8824 30.4024 22.7773C30.3936 22.6723 30.3458 22.5744 30.2685 22.5028C30.1911 22.4313 30.0898 22.3912 29.9844 22.3906H29.6859L28.7188 20.1926V18.5938C28.7187 18.5178 28.7118 18.442 28.6981 18.3673L34.5015 12.5639C34.5605 12.5049 34.6007 12.4298 34.6169 12.3479C34.6332 12.2661 34.6249 12.1813 34.5929 12.1042C34.561 12.0271 34.5069 11.9612 34.4375 11.9148C34.3682 11.8685 34.2866 11.8437 34.2032 11.8438H22.3907C22.3353 11.8437 22.2804 11.8547 22.2292 11.8759C22.178 11.8971 22.1315 11.9281 22.0923 11.9673L21.1224 12.9373C20.8814 12.7225 20.5675 12.6079 20.2448 12.6169C19.9221 12.626 19.615 12.7579 19.3864 12.9858L13.6548 18.7173L13.0993 19.2729C12.7467 19.6254 12.467 20.044 12.2762 20.5047C12.0854 20.9653 11.9872 21.4591 11.9872 21.9577C11.9872 22.4563 12.0854 22.95 12.2762 23.4107C12.467 23.8714 12.7467 24.2899 13.0993 24.6425L17.2157 28.7588C17.3329 28.8767 17.4724 28.9702 17.626 29.0338C17.7796 29.0975 17.9443 29.13 18.1106 29.1296H19.4375C19.5494 29.1297 19.6566 29.1742 19.7357 29.2533C19.8148 29.3323 19.8593 29.4396 19.8594 29.5514V30.9005C19.859 31.0668 19.8915 31.2315 19.9551 31.3851C20.0188 31.5387 20.1122 31.6782 20.2301 31.7954L23.7374 35.3028C24.3237 35.8923 25.021 36.3596 25.7891 36.6777C26.5572 36.9959 27.3807 37.1585 28.2121 37.1563H35.0469C35.6062 37.1556 36.1423 36.9332 36.5378 36.5377C36.9332 36.1423 37.1557 35.6061 37.1563 35.0469V33.3594C37.1554 32.5764 36.844 31.8258 36.2903 31.2722C35.7367 30.7186 34.9861 30.4071 34.2032 30.4063ZM34.2032 31.25C34.7624 31.2506 35.2986 31.4731 35.694 31.8685C36.0895 32.264 36.3119 32.8001 36.3125 33.3594V33.7813H31.2376C30.628 33.7829 30.024 33.6636 29.4608 33.4303C28.8975 33.197 28.3861 32.8543 27.9562 32.4221L16.9196 21.3855C17.4572 20.7126 17.75 19.8769 17.75 19.0156C17.75 18.1543 17.4572 17.3187 16.9196 16.6457L18.1719 15.3935V15.6533C18.17 16.3737 18.311 17.0874 18.5867 17.7529C18.8624 18.4185 19.2674 19.0228 19.7782 19.5308L21.8754 21.6281C22.3835 22.1389 22.9878 22.5439 23.6533 22.8196C24.3189 23.0953 25.0326 23.2363 25.753 23.2344H27.026L27.3973 24.0781H26.1875C26.0756 24.0781 25.9683 24.1226 25.8892 24.2017C25.8101 24.2808 25.7657 24.3881 25.7657 24.5C25.7657 24.6119 25.8101 24.7192 25.8892 24.7983C25.9683 24.8774 26.0756 24.9219 26.1875 24.9219H27.7685L28.1398 25.7656H27.0313C26.9194 25.7656 26.8121 25.8101 26.733 25.8892C26.6539 25.9683 26.6094 26.0756 26.6094 26.1875C26.6094 26.2994 26.6539 26.4067 26.733 26.4858C26.8121 26.5649 26.9194 26.6094 27.0313 26.6094H28.511L28.8823 27.4531H27.875C27.7631 27.4531 27.6558 27.4976 27.5767 27.5767C27.4976 27.6558 27.4532 27.7631 27.4532 27.875C27.4532 27.9869 27.4976 28.0942 27.5767 28.1733C27.6558 28.2524 27.7631 28.2969 27.875 28.2969H29.2535L29.9985 29.9902C30.1635 30.3648 30.4338 30.6834 30.7766 30.9071C31.1195 31.1308 31.52 31.2499 31.9293 31.25H34.2032ZM32.291 30.4063H31.9293C31.6837 30.4062 31.4434 30.3347 31.2377 30.2005C31.032 30.0663 30.8698 29.8751 30.7708 29.6504L30.1753 28.2969H31.3629L32.291 30.4063ZM30.9916 27.4531H29.8041L29.4328 26.6094H30.6204L30.9916 27.4531ZM30.2491 25.7656H29.0616L28.6903 24.9219H29.8779L30.2491 25.7656ZM28.3191 24.0781L27.9478 23.2344H29.1354L29.5066 24.0781H28.3191ZM27.5766 22.3906L26.8341 20.7031H28.0216L28.7641 22.3906H27.5766ZM27.875 19.8594H25.898C25.8537 19.8594 25.8096 19.8581 25.7657 19.8562V18.5938C25.7658 18.4819 25.8103 18.3747 25.8894 18.2956C25.9684 18.2165 26.0757 18.172 26.1875 18.1719H27.4532C27.565 18.172 27.6722 18.2165 27.7513 18.2956C27.8304 18.3747 27.8749 18.4819 27.875 18.5938V19.8594ZM22.5654 12.6875H33.1847L28.256 17.6162C28.03 17.4297 27.7461 17.3279 27.4532 17.3281H26.1875C25.852 17.3285 25.5303 17.462 25.293 17.6992C25.0557 17.9365 24.9223 18.2582 24.9219 18.5938V19.6945C24.5032 19.548 24.123 19.3087 23.8098 18.9945L22.4119 17.5965C22.1368 17.3229 21.9187 16.9975 21.7702 16.639C21.6217 16.2806 21.5458 15.8962 21.5469 15.5083V13.8807C21.5468 13.8259 21.5432 13.7712 21.5361 13.7168L22.5654 12.6875ZM19.983 13.5824C20.042 13.5234 20.1171 13.4832 20.199 13.4669C20.2808 13.4507 20.3656 13.459 20.4427 13.4909C20.5198 13.5229 20.5857 13.577 20.6321 13.6463C20.6784 13.7157 20.7032 13.7973 20.7032 13.8807V15.5083C20.7018 16.0071 20.7994 16.5012 20.9903 16.962C21.1812 17.4228 21.4616 17.8412 21.8152 18.193L23.2132 19.591C23.565 19.9447 23.9834 20.2251 24.4442 20.416C24.9051 20.6069 25.3992 20.7045 25.898 20.7031H25.9123L26.6548 22.3906H25.753C25.1434 22.3923 24.5395 22.2731 23.9763 22.0398C23.4131 21.8065 22.9018 21.4639 22.4719 21.0317L20.3746 18.9344C19.9424 18.5045 19.5998 17.9932 19.3665 17.43C19.1332 16.8668 19.014 16.2629 19.0157 15.6533V14.5497L19.983 13.5824ZM16.3186 17.2468C16.7001 17.7576 16.9063 18.3781 16.9063 19.0156C16.9063 19.6532 16.7001 20.2737 16.3186 20.7845L14.5497 19.0156L16.3186 17.2468ZM35.0469 36.3125H33.7813V35.8906C33.7813 35.7787 33.7368 35.6714 33.6577 35.5923C33.5786 35.5132 33.4713 35.4688 33.3594 35.4688C33.2475 35.4688 33.1402 35.5132 33.0611 35.5923C32.982 35.6714 32.9375 35.7787 32.9375 35.8906V36.3125H30.4063V35.8906C30.4063 35.7787 30.3618 35.6714 30.2827 35.5923C30.2036 35.5132 30.0963 35.4688 29.9844 35.4688C29.8725 35.4688 29.7652 35.5132 29.6861 35.5923C29.607 35.6714 29.5625 35.7787 29.5625 35.8906V36.3125H28.2121C26.9235 36.3161 25.6753 35.8624 24.6899 35.0321L25.6423 34.0797C25.7214 34.0006 25.7659 33.8932 25.7659 33.7813C25.7659 33.6693 25.7214 33.5619 25.6423 33.4828C25.5631 33.4036 25.4557 33.3591 25.3438 33.3591C25.2318 33.3591 25.1245 33.4036 25.0453 33.4828L24.0782 34.4501L22.1437 32.5156L23.111 31.5485C23.1902 31.4693 23.2346 31.362 23.2346 31.25C23.2346 31.1381 23.1902 31.0307 23.111 30.9515C23.0318 30.8724 22.9245 30.8279 22.8125 30.8279C22.7006 30.8279 22.5932 30.8724 22.5141 30.9515L21.5469 31.9188L20.8267 31.1988C20.7874 31.1598 20.7563 31.1133 20.7351 31.0621C20.7138 31.0109 20.703 30.956 20.7032 30.9005V29.5514C20.7028 29.2159 20.5693 28.8942 20.332 28.6569C20.0948 28.4196 19.7731 28.2862 19.4375 28.2858H18.1106C18.0551 28.286 18.0002 28.2751 17.949 28.2539C17.8978 28.2327 17.8513 28.2015 17.8123 28.1622L16.2485 26.5985L17.2048 25.6422C17.2839 25.5631 17.3284 25.4557 17.3284 25.3438C17.3284 25.2318 17.2839 25.1244 17.2048 25.0453C17.1256 24.9661 17.0182 24.9216 16.9063 24.9216C16.7943 24.9216 16.687 24.9661 16.6078 25.0453L15.6516 26.0015L13.7173 24.0672L14.6735 23.111C14.7527 23.0318 14.7971 22.9245 14.7971 22.8125C14.7971 22.7006 14.7527 22.5932 14.6735 22.514C14.5943 22.4349 14.487 22.3904 14.375 22.3904C14.2631 22.3904 14.1557 22.4349 14.0766 22.514L13.2008 23.3898C12.8901 22.8288 12.7705 22.1819 12.8598 21.5469C12.9491 20.9118 13.2426 20.3231 13.6959 19.8695L13.9532 19.6122L27.3596 33.0187C27.8677 33.5295 28.472 33.9346 29.1377 34.2103C29.8034 34.486 30.5171 34.627 31.2376 34.625H36.3125V35.0469C36.3122 35.3824 36.1787 35.7041 35.9414 35.9414C35.7042 36.1787 35.3825 36.3121 35.0469 36.3125Z" fill="black"/>
<path d="M12.2656 29.5625H16.0625C16.1744 29.5625 16.2817 29.5181 16.3608 29.4389C16.4399 29.3598 16.4844 29.2525 16.4844 29.1406C16.4844 29.0287 16.4399 28.9214 16.3608 28.8423C16.2817 28.7632 16.1744 28.7188 16.0625 28.7188H12.2656C12.1537 28.7188 12.0464 28.7632 11.9673 28.8423C11.8882 28.9214 11.8438 29.0287 11.8438 29.1406C11.8438 29.2525 11.8882 29.3598 11.9673 29.4389C12.0464 29.5181 12.1537 29.5625 12.2656 29.5625Z" fill="black"/>
<path d="M21.125 33.7812H12.2656C12.1537 33.7812 12.0464 33.8257 11.9673 33.9048C11.8882 33.9839 11.8438 34.0912 11.8438 34.2031C11.8438 34.315 11.8882 34.4223 11.9673 34.5014C12.0464 34.5806 12.1537 34.625 12.2656 34.625H21.125C21.2369 34.625 21.3442 34.5806 21.4233 34.5014C21.5024 34.4223 21.5469 34.315 21.5469 34.2031C21.5469 34.0912 21.5024 33.9839 21.4233 33.9048C21.3442 33.8257 21.2369 33.7812 21.125 33.7812Z" fill="black"/>
<path d="M12.2656 32.0938H18.5938C18.7056 32.0938 18.8129 32.0493 18.8921 31.9702C18.9712 31.8911 19.0156 31.7838 19.0156 31.6719C19.0156 31.56 18.9712 31.4527 18.8921 31.3736C18.8129 31.2944 18.7056 31.25 18.5938 31.25H12.2656C12.1537 31.25 12.0464 31.2944 11.9673 31.3736C11.8882 31.4527 11.8438 31.56 11.8438 31.6719C11.8438 31.7838 11.8882 31.8911 11.9673 31.9702C12.0464 32.0493 12.1537 32.0938 12.2656 32.0938Z" fill="black"/>
</g>
<defs>
<clipPath id="clip0_2211_1676">
<rect width="27" height="27" fill="white" transform="translate(11 11)"/>
</clipPath>
</defs>
</svg>
