<svg width="50" height="50" viewBox="0 0 50 50" fill="none" xmlns="http://www.w3.org/2000/svg">
<rect x="1.5" y="1.5" width="47.0005" height="47" rx="23.5" fill="white"/>
<rect x="1.5" y="1.5" width="47.0005" height="47" rx="23.5" stroke="#8B9B75" stroke-width="3"/>
<path d="M27.417 30.9652C26.6213 31.2891 25.7685 31.4494 24.9096 31.4366C24.1431 31.4445 23.381 31.3195 22.6571 31.0672C22.3495 30.9546 22.0541 30.811 21.7756 30.6385L22.3431 34.0223C22.6764 33.7803 23.0446 33.5906 23.4352 33.4598C23.9108 33.303 24.4087 33.2242 24.9096 33.2264C25.4751 33.223 26.0364 33.3244 26.565 33.5255C26.9233 33.6648 27.259 33.8567 27.5609 34.0949L28.2213 30.5057C27.9707 30.6876 27.701 30.8417 27.417 30.9652Z" fill="#98ACF8"/>
<path d="M37.0985 29.0969C37.0868 29.1359 37.066 29.1715 37.0378 29.2009C37.0096 29.2302 36.9749 29.2525 36.9364 29.2658C36.8979 29.279 36.8569 29.283 36.8166 29.2773C36.7763 29.2715 36.7379 29.2563 36.7047 29.2328C36.5313 29.1156 36.3578 28.9984 36.175 28.8906C32.9641 26.8891 28.8391 26.0078 25 26.0078C24.9156 26.0078 24.8313 26.0078 24.7469 26.0125C20.8 26.05 16.5203 27.025 13.2953 29.2328C13.2463 29.2639 13.1893 29.2802 13.1313 29.2797C13.1055 29.2819 13.0795 29.277 13.0563 29.2656C13.0191 29.2516 12.9857 29.229 12.9588 29.1997C12.932 29.1703 12.9124 29.1351 12.9016 29.0969C12.6819 28.3229 12.5328 27.5306 12.4563 26.7297C12.4469 26.6219 12.4375 26.5094 12.4281 26.3969C12.3946 25.8709 12.3915 25.3435 12.4188 24.8172C12.4281 24.6109 12.4469 24.4094 12.4656 24.2031C12.7628 21.1236 14.1752 18.2589 16.437 16.1482C18.6989 14.0374 21.6542 12.8261 24.7469 12.7422C24.831 12.7344 24.9155 12.7312 25 12.7328C33.236 12.7328 39.4375 20.7063 37.0985 29.0969Z" fill="#98ACF8"/>
<path d="M21.4516 36.9672C18.1281 37.961 12.8875 36.3953 12.9016 33.5313C12.9008 33.5077 12.9024 33.4842 12.9062 33.461C13 31.1031 17.2094 29.8047 19.7687 29.7485C20.1199 29.7352 20.4715 29.7556 20.8187 29.8094C21.8172 29.9781 22.9609 30.7422 23.3641 32.8281C23.6875 34.5203 22.9141 36.5266 21.4516 36.9672Z" fill="#F05454"/>
<path d="M37.0984 33.5313C37.1125 36.3953 31.8719 37.9609 28.5484 36.9672C27.2594 36.5781 26.5047 34.9703 26.5656 33.4328C26.565 33.4124 26.5666 33.392 26.5703 33.3719C26.5803 33.1894 26.6023 33.0078 26.6359 32.8281C27.0391 30.7422 28.1828 29.9781 29.1812 29.8094C29.4434 29.7685 29.7081 29.7465 29.9734 29.7438C32.5234 29.7156 37.0844 31.0469 37.0984 33.5313Z" fill="#F05454"/>
<path d="M17.0665 35.4C15.8267 34.9749 15.1019 34.2016 15.1047 33.4992C15.1057 33.2502 15.1828 32.6138 16.8237 31.8818C18.2624 31.2401 22.0262 30.8576 22.0262 33.3748C22.0262 36.6485 17.8273 35.6609 17.0665 35.4Z" fill="#F6F4E6"/>
<path d="M32.9336 35.4C34.1734 34.9749 34.8982 34.2016 34.8954 33.4992C34.8944 33.2502 34.8173 32.6138 33.1764 31.8818C31.7377 31.2401 27.9739 30.8576 27.9739 33.3748C27.974 36.6485 32.1728 35.6609 32.9336 35.4Z" fill="#F6F4E6"/>
<path d="M28.7312 13.3047V26.2844C26.2904 25.9204 23.8094 25.9157 21.3672 26.2703V13.2766C22.5439 12.9139 23.7686 12.7306 25 12.7328C26.2656 12.7323 27.5239 12.9251 28.7312 13.3047Z" fill="#F6F4E6"/>
<path d="M25 23.9266C26.2482 23.9254 27.495 24.0115 28.7312 24.1844V26.2844C26.2904 25.9204 23.8094 25.9157 21.3672 26.2704V24.1657C22.5716 24.0066 23.7851 23.9267 25 23.9266Z" fill="#F6F4E6"/>
<path d="M37.4641 27.3625C37.3819 27.9483 37.2597 28.5278 37.0984 29.0969C37.0868 29.1359 37.066 29.1715 37.0378 29.2009C37.0096 29.2303 36.9749 29.2525 36.9364 29.2658C36.8979 29.2791 36.8569 29.283 36.8166 29.2773C36.7763 29.2715 36.7379 29.2563 36.7047 29.2328C33.8031 27.25 29.636 26.0078 25 26.0078C20.3641 26.0078 16.1969 27.25 13.2953 29.2328C13.2621 29.2563 13.2237 29.2715 13.1834 29.2773C13.1432 29.283 13.1021 29.2791 13.0636 29.2658C13.0251 29.2525 12.9904 29.2303 12.9622 29.2009C12.934 29.1715 12.9133 29.1359 12.9016 29.0969C12.7411 28.5292 12.619 27.9513 12.5359 27.3672C15.5594 25.2578 20.0219 23.9266 25 23.9266C29.9781 23.9266 34.4406 25.2578 37.4641 27.3625Z" fill="#F05454"/>
<path d="M24.5032 26.0078C24.5782 26.0078 24.6532 26.0078 24.7329 26.0125C20.2047 26.0547 16.1407 27.2875 13.2954 29.2328C13.248 29.2638 13.1926 29.2801 13.136 29.2797C13.1801 29.2753 13.2222 29.2591 13.2579 29.2328C16.4266 26.9781 20.6407 26.0078 24.5032 26.0078Z" fill="#F05454"/>
<path d="M16.9146 35.8433C15.5264 35.3675 14.6319 34.4467 14.6361 33.4973C14.639 32.7204 15.292 32.0519 16.6328 31.4538C17.6326 31.0073 20.0871 30.5543 21.4998 31.4712C22.9561 32.4165 22.7347 34.7164 21.4625 35.6252C20.2455 36.4943 18.0604 36.2451 16.9146 35.8433ZM17.0146 32.3098C16.1002 32.7179 15.5749 33.1521 15.5736 33.5012C15.5717 33.9301 16.0858 34.5682 17.2185 34.9566C17.7278 35.1315 19.8472 35.6266 20.9175 34.8623C21.6552 34.3355 21.874 32.8318 20.9894 32.2576C20.0161 31.6263 18.0198 31.8619 17.0146 32.3098Z" fill="#214252"/>
<path d="M28.5378 35.6252C28.1916 35.3661 27.9156 35.0244 27.7353 34.6313C27.5549 34.2383 27.4758 33.8063 27.5051 33.3748C27.4905 32.9983 27.5747 32.6245 27.7493 32.2905C27.9239 31.9566 28.1828 31.6741 28.5003 31.4712C29.9127 30.555 32.3672 31.0077 33.3672 31.4538C34.708 32.0519 35.361 32.7204 35.364 33.4975C35.3681 34.4467 34.4736 35.3675 33.0855 35.8433C31.9951 36.2207 29.7904 36.52 28.5378 35.6252ZM29.0107 32.2576C28.8247 32.3759 28.6738 32.542 28.5739 32.7385C28.474 32.9351 28.4286 33.1548 28.4426 33.3748C28.4161 33.6565 28.4607 33.9404 28.5726 34.2003C28.6844 34.4602 28.8598 34.6879 29.0826 34.8623C30.1533 35.6265 32.2725 35.1315 32.7813 34.9566C33.914 34.5682 34.4283 33.9301 34.4265 33.5014C34.4251 33.1521 33.8999 32.7179 32.9855 32.3098C31.9798 31.8616 29.983 31.6264 29.0107 32.2576Z" fill="#214252"/>
<path d="M36.3647 31.2748C34.446 29.6656 30.782 29.0574 29.1032 29.346C28.2901 29.4856 27.5617 29.9323 27.0686 30.5937C25.7513 31.0419 24.3276 31.0719 22.9926 30.6795C22.7487 30.3299 22.4379 30.032 22.0782 29.8032C21.7186 29.5743 21.3171 29.4189 20.8971 29.346C19.2171 29.0581 15.5541 29.6658 13.6354 31.2751C11.8199 32.7976 12.1644 34.8526 13.9382 36.1786C15.8273 37.5911 19.1845 38.1337 21.5846 37.4144C23.0214 36.9832 23.8291 35.3807 23.8971 33.8157C24.626 33.6449 25.3865 33.6623 26.1069 33.8663C26.1899 35.4151 26.9942 36.9878 28.4156 37.4144C30.8172 38.1341 34.1744 37.5899 36.0619 36.1789C37.8586 34.8351 38.1584 32.7797 36.3647 31.2748ZM21.3153 36.5162C19.2059 37.1502 16.1485 36.6606 14.4996 35.4279C13.2209 34.4719 12.8952 33.1194 14.2378 31.9933C15.8645 30.6285 19.244 30.0143 20.7383 30.2698C23.4497 30.7356 23.7004 35.8007 21.3153 36.5162ZM23.842 32.8712C23.7838 32.502 23.6908 32.1391 23.5641 31.7875C24.5205 31.9572 25.5004 31.9435 26.4517 31.7471C26.3121 32.1239 26.2117 32.514 26.152 32.9114C25.394 32.7313 24.6059 32.7175 23.842 32.8712ZM35.5004 35.4279C33.8509 36.6606 30.7932 37.1482 28.6852 36.5162C27.5383 36.1722 26.7967 34.4902 27.0982 32.9168C27.4907 30.8695 28.6223 30.3797 29.2618 30.2698C30.7572 30.0141 34.1362 30.6293 35.7623 31.993C37.1016 33.1164 36.7831 34.469 35.5004 35.4279Z" fill="#214252"/>
<path d="M25 12.2657C21.5105 12.2955 18.1752 13.7082 15.7259 16.1939C13.2766 18.6796 11.9132 22.0352 11.9348 25.5248C11.9338 26.7762 12.1073 28.0215 12.4502 29.2249C12.4822 29.3352 12.54 29.4363 12.6187 29.5198C12.6974 29.6034 12.7948 29.6671 12.903 29.7057C13.0111 29.7443 13.1268 29.7566 13.2407 29.7417C13.3545 29.7268 13.4632 29.6851 13.5578 29.62C16.4829 27.6232 20.6536 26.4779 25 26.4779C29.3467 26.4779 33.5172 27.623 36.4421 29.6198C36.5367 29.6847 36.6454 29.7263 36.7593 29.7411C36.8732 29.7559 36.9889 29.7434 37.097 29.7048C37.2051 29.6661 37.3025 29.6024 37.3812 29.5187C37.4599 29.4351 37.5176 29.3341 37.5496 29.2238C37.8926 28.0208 38.0661 26.7757 38.0653 25.5248C38.0869 22.0352 36.7235 18.6796 34.2741 16.1939C31.8248 13.7082 28.4896 12.2955 25 12.2657ZM28.2618 13.6596V23.6519C26.1274 23.3957 23.9703 23.3922 21.835 23.6415V13.6316C23.9393 13.0511 26.1627 13.0608 28.2618 13.6596ZM12.8723 25.5248C12.8643 23.0036 13.6293 20.5405 15.0642 18.4674C16.4992 16.3943 18.535 14.8109 20.8975 13.9304V23.7661C18.0787 24.1527 15.3659 25.0999 12.919 26.5517C12.8913 26.2109 12.8723 25.8688 12.8723 25.5248ZM36.7256 28.682C33.6648 26.6825 29.4122 25.5404 25 25.5404C20.5883 25.5404 16.3352 26.683 13.274 28.6823C13.1802 28.3219 13.1088 27.9559 13.0477 27.5879C16.0953 25.5574 20.4279 24.3946 25 24.3946C29.5722 24.3946 33.9046 25.5572 36.952 27.5878C36.8909 27.9557 36.8194 28.3216 36.7256 28.682ZM37.081 26.5518C34.663 25.1154 31.9841 24.1733 29.1993 23.78V13.9656C31.5379 14.86 33.5489 16.4448 34.9651 18.5096C36.3813 20.5743 37.1356 23.0211 37.1278 25.5248C37.1278 25.8687 37.1087 26.2108 37.081 26.5518Z" fill="#214252"/>
</svg>
