<svg width="50" height="50" viewBox="0 0 50 50" fill="none" xmlns="http://www.w3.org/2000/svg">
<rect x="1.5" y="1.5" width="47.0005" height="47" rx="23.5" fill="white"/>
<rect x="1.5" y="1.5" width="47.0005" height="47" rx="23.5" stroke="#8B9B75" stroke-width="3"/>
<g clip-path="url(#clip0_2211_1444)">
<path d="M28.06 34.81C27.1123 34.8126 26.1681 34.695 25.25 34.46C23.8374 34.0795 22.3479 34.0906 20.9412 34.4923C19.5345 34.8939 18.2637 35.671 17.265 36.74L13.26 32.735C14.329 31.7363 15.1061 30.4655 15.5077 29.0588C15.9094 27.6521 15.9206 26.1626 15.54 24.75C15.305 23.8319 15.1874 22.8877 15.19 21.94L15.5 21.5L28.5 34.5L28.06 34.81Z" fill="#CEB67F"/>
<path d="M20.675 33.0205L15.185 39.0105C15.0464 39.161 14.8788 39.2819 14.6923 39.366C14.5057 39.4501 14.3041 39.4956 14.0996 39.4998C13.895 39.504 13.6917 39.4668 13.5019 39.3905C13.3121 39.3141 13.1397 39.2002 12.995 39.0555L10.945 37.0055C10.8003 36.8608 10.6864 36.6884 10.61 36.4986C10.5337 36.3088 10.4965 36.1055 10.5007 35.9009C10.5049 35.6963 10.5504 35.4948 10.6345 35.3082C10.7186 35.1217 10.8395 34.9541 10.99 34.8155L16.98 29.3255C17.3641 28.9734 17.8696 28.7835 18.3906 28.7956C18.9116 28.8077 19.4076 29.0209 19.775 29.3905L20.61 30.2255C20.9796 30.5928 21.1928 31.0889 21.2049 31.6099C21.217 32.1309 21.0271 32.6364 20.675 33.0205Z" fill="#BAA16F"/>
<path d="M38.11 27.97L32.59 33.745C31.1804 34.4393 29.6313 34.8035 28.06 34.81L15.19 21.94C15.2006 20.5382 15.4903 19.1526 16.0423 17.864C16.5943 16.5754 17.3975 15.4097 18.405 14.435C23.14 9.695 31.545 8.975 36.285 13.715C39.97 17.4 40.355 23.3 38.11 27.97Z" fill="#CD596B"/>
<path d="M35.5 35C37.7091 35 39.5 33.2091 39.5 31C39.5 28.7909 37.7091 27 35.5 27C33.2909 27 31.5 28.7909 31.5 31C31.5 33.2091 33.2909 35 35.5 35Z" fill="#C4DDF0"/>
<path d="M27.3165 10.021C23.8367 10.2028 20.5424 11.6463 18.05 14.0815C16.6373 15.4524 15.6151 17.1747 15.0886 19.0715C14.562 20.9683 14.5501 22.9711 15.054 24.874C15.4107 26.1974 15.4013 27.5929 15.0268 28.9114C14.6524 30.2299 13.927 31.422 12.928 32.3605L10.65 34.45C10.4499 34.6342 10.2891 34.857 10.1773 35.1049C10.0655 35.3529 10.005 35.6209 9.99944 35.8928C9.99389 36.1648 10.0434 36.435 10.145 36.6873C10.2465 36.9396 10.3981 37.1688 10.5905 37.361L12.6405 39.411C12.8274 39.5988 13.0498 39.7475 13.2947 39.8486C13.5396 39.9498 13.8021 40.0012 14.067 40H14.1095C14.3818 39.9957 14.6503 39.9358 14.8986 39.824C15.1469 39.7122 15.3698 39.5509 15.5535 39.35L17.6395 37.0745C18.5779 36.0748 19.7701 35.3487 21.0889 34.9737C22.4077 34.5986 23.8035 34.5887 25.1275 34.945C27.5787 35.5933 30.1784 35.3779 32.4895 34.335C33.3397 35.0949 34.448 35.5012 35.5878 35.4708C36.7277 35.4404 37.8128 34.9757 38.6212 34.1716C39.4297 33.3675 39.9004 32.2849 39.9369 31.1453C39.9735 30.0057 39.5732 28.8951 38.818 28.0409C38.0628 27.1866 37.0097 26.6532 35.8742 26.5498C34.7386 26.4464 33.6065 26.7808 32.7094 27.4846C31.8123 28.1884 31.218 29.2083 31.0481 30.3358C30.8782 31.4633 31.1456 32.6131 31.7955 33.55C30.6732 34.018 29.4733 34.2724 28.2575 34.3L15.7 21.747C15.7774 19.1184 16.8745 16.6231 18.759 14.789C21.0759 12.5273 24.1375 11.1872 27.371 11.0195C30.7395 10.841 33.781 11.9195 35.932 14.0695C38.804 16.9415 39.751 21.457 38.403 25.854C38.3664 25.9801 38.3808 26.1156 38.4433 26.2312C38.5057 26.3467 38.6111 26.4331 38.7367 26.4715C38.8622 26.51 38.9979 26.4976 39.1144 26.4368C39.2308 26.3761 39.3187 26.272 39.359 26.147C40.816 21.397 39.774 16.497 36.639 13.3625C34.2845 11.0075 30.973 9.8275 27.3165 10.021ZM35.5 27.5C36.1923 27.5 36.8689 27.7053 37.4445 28.0899C38.0201 28.4744 38.4687 29.0211 38.7336 29.6606C38.9985 30.3002 39.0678 31.0039 38.9328 31.6828C38.7977 32.3618 38.4644 32.9854 37.9749 33.4749C37.4854 33.9644 36.8618 34.2977 36.1828 34.4328C35.5039 34.5678 34.8002 34.4985 34.1606 34.2336C33.5211 33.9687 32.9745 33.5201 32.5899 32.9445C32.2053 32.3689 32 31.6922 32 31C32.0012 30.0721 32.3703 29.1826 33.0265 28.5264C33.6826 27.8703 34.5721 27.5012 35.5 27.5ZM26.7675 34.2265C26.2983 34.1731 25.833 34.0896 25.3745 33.9765C23.6984 33.5421 21.9313 33.6117 20.2945 34.1765L21.0445 33.36C21.4862 32.882 21.7248 32.2511 21.71 31.6005C21.6953 30.9499 21.4283 30.3305 20.9655 29.873L20.13 29.0375C19.6726 28.5745 19.0531 28.3072 18.4024 28.2921C17.7517 28.277 17.1205 28.5152 16.642 28.9565L15.824 29.7065C16.3888 28.07 16.4584 26.3033 16.024 24.6275C15.9073 24.167 15.8209 23.6993 15.7655 23.2275L26.7675 34.2265ZM17.3175 29.6935C17.6061 29.4273 17.9869 29.2837 18.3794 29.293C18.7719 29.3023 19.1454 29.4639 19.421 29.7435L20.2575 30.5805C20.5365 30.8558 20.6976 31.2286 20.7069 31.6204C20.7163 32.0122 20.5731 32.3923 20.3075 32.6805L16.9 36.4L16.896 36.4045L14.817 38.6715C14.7243 38.7728 14.612 38.8542 14.4868 38.9107C14.3617 38.9671 14.2263 38.9975 14.089 39C13.813 39.0001 13.5479 38.8924 13.35 38.7L11.3 36.65C11.203 36.5531 11.1265 36.4376 11.0752 36.3104C11.0239 36.1832 10.9989 36.0469 11.0016 35.9098C11.0043 35.7727 11.0347 35.6375 11.091 35.5125C11.1472 35.3874 11.2282 35.275 11.329 35.182L13.6 33.1035L17.3175 29.6935Z" fill="black"/>
</g>
<defs>
<clipPath id="clip0_2211_1444">
<rect width="30" height="30" fill="white" transform="translate(10 10)"/>
</clipPath>
</defs>
</svg>
