<svg width="50" height="50" viewBox="0 0 50 50" fill="none" xmlns="http://www.w3.org/2000/svg">
<rect x="1.5" y="1.5" width="47.0005" height="47" rx="23.5" fill="white"/>
<rect x="1.5" y="1.5" width="47.0005" height="47" rx="23.5" stroke="#8B9B75" stroke-width="3"/>
<g clip-path="url(#clip0_2211_1656)">
<path d="M34.5301 25.7301C33.98 25.3542 33.3766 25.0633 32.7399 24.8671C33.0334 24.6235 33.3123 24.3629 33.5753 24.0868C34.3588 23.2966 34.9644 22.3483 35.3517 21.3051C35.7247 20.3156 35.7997 19.2385 35.5675 18.2068C35.3015 17.1061 34.7266 16.1044 33.9104 15.3196C33.1256 14.5034 32.1238 13.9285 31.0232 13.6625C29.9915 13.4303 28.9144 13.5053 27.9248 13.8782C26.8844 14.2661 25.938 14.87 25.1478 15.6501C25.0835 15.7051 25.0239 15.7648 24.9596 15.8291C24.2577 16.5345 23.6457 17.3238 23.1373 18.1792C22.533 19.1721 22.0782 20.2486 21.7878 21.374C21.6285 21.9684 21.53 22.5774 21.494 23.1917C21.4206 24.6284 21.7511 25.8769 22.5543 26.6756C23.1915 27.2884 24.0484 27.6193 24.9321 27.5937C24.5554 28.1542 24.266 28.7686 24.0737 29.416C23.4491 29.2948 22.8479 29.0747 22.2927 28.7641C21.9104 28.5526 21.5596 28.2883 21.2507 27.9792C20.9416 27.6693 20.676 27.3187 20.4612 26.9373C19.7658 25.6146 19.5025 24.1072 19.7084 22.6271C20.0959 19.5658 21.4855 16.7188 23.6606 14.5301C27.5163 10.6789 32.1616 10.9773 35.2048 14.0251C38.294 17.1143 38.5602 21.8468 34.5301 25.7301Z" fill="#02A9F4"/>
<path d="M35.205 14.025C33.642 12.3863 31.4216 11.5426 29.1648 11.7299C30.9387 11.9297 32.5876 12.7412 33.8279 14.025C36.7835 16.9806 37.1443 21.4386 33.6416 25.2195C33.9503 25.3668 34.2474 25.5375 34.5302 25.7299C38.5604 21.8466 38.2942 17.1142 35.205 14.025Z" fill="#0377BC"/>
<path d="M18.6524 33.1706L13.617 38.1785C13.4366 38.3575 13.1456 38.3575 12.9652 38.1785L11.019 36.2277C10.841 36.0487 10.841 35.7595 11.019 35.5805L15.0813 31.5503L16.059 30.5772C16.1972 30.4401 16.407 30.4051 16.5823 30.49C16.628 30.5121 16.6699 30.5416 16.7062 30.5772L18.6524 32.5234C18.6881 32.5597 18.7175 32.6016 18.7396 32.6474C18.8245 32.8226 18.7895 33.0324 18.6524 33.1706Z" fill="#607D8B"/>
<path d="M24.0737 29.4159C23.996 29.6663 23.9317 29.9206 23.8809 30.1779C22.0424 30.7108 20.3051 31.5453 18.74 32.6474C18.7178 32.6016 18.6884 32.5597 18.6527 32.5234L16.7065 30.5772C16.6702 30.5416 16.6284 30.5121 16.5826 30.49C18.5059 27.8598 19.3504 24.6054 19.7085 22.627C19.5025 24.1071 19.7658 25.6145 20.4613 26.9372L20.4567 26.9418C20.0412 28.1402 19.5028 29.2923 18.8501 30.3798C19.9376 29.7271 21.0898 29.1887 22.2882 28.7733L22.2927 28.7687V28.7641C22.848 29.0747 23.4492 29.2947 24.0737 29.4159Z" fill="#9E9E9E"/>
<path d="M35.5265 36.2966C33.3935 38.4285 30.1219 38.9252 27.4523 37.5226C24.7826 36.1199 23.3357 33.1438 23.8812 30.1779C23.932 29.9207 23.9963 29.6663 24.074 29.4159C24.3978 28.3351 24.9863 27.3521 25.7862 26.5563C25.9836 26.3577 26.1936 26.1722 26.415 26.0009C27.1878 25.3928 28.0838 24.9605 29.0406 24.734C29.2191 24.688 29.3999 24.6512 29.5822 24.6238C30.3964 24.499 31.2262 24.5192 32.0334 24.6835C31.4591 25.9563 30.3946 26.943 29.0819 27.4192C27.4999 28.0419 26.4326 29.5375 26.3582 31.2361C26.2838 32.9346 27.2163 34.5178 28.7379 35.2764C30.2594 36.0349 32.0849 35.8268 33.3967 34.7451C33.9647 34.2783 34.4026 33.6727 34.6681 32.9871C35.1435 31.6771 36.131 30.6167 37.4039 30.0494C37.8643 32.3148 37.1595 34.6603 35.5265 36.2966Z" fill="#A4C400"/>
<path d="M30.6561 24.6834C30.0818 25.9563 29.0174 26.9429 27.7046 27.4192C25.6572 28.2201 24.5439 30.4367 25.124 32.5573C25.7042 34.6778 27.7907 36.0191 29.9607 35.6663C29.2438 35.5542 28.5679 35.259 27.9984 34.8093C26.786 33.8558 26.1763 32.3266 26.4 30.8005C26.6237 29.2744 27.6467 27.9846 29.0817 27.4192C30.3944 26.9429 31.4589 25.9563 32.0332 24.6834C31.3545 24.547 30.6592 24.5128 29.9703 24.582C30.2005 24.6042 30.4294 24.638 30.6561 24.6834Z" fill="#90AC00"/>
<path d="M37.4034 30.0493C36.9409 30.2449 36.5133 30.5145 36.1374 30.8475C36.4597 34.5946 33.71 37.9046 29.9673 38.2749C32.1453 38.4961 34.2986 37.6677 35.7667 36.0437C37.2348 34.4197 37.8425 32.194 37.4034 30.0493Z" fill="#90AC00"/>
<path d="M37.4036 30.0494C36.1308 30.6167 35.1433 31.6771 34.6679 32.9871C34.4024 33.6727 33.9644 34.2783 33.3964 34.7451C32.0847 35.8268 30.2592 36.0349 28.7376 35.2764C27.216 34.5178 26.2836 32.9346 26.358 31.236C26.4323 29.5375 27.4996 28.0419 29.0816 27.4192C30.3944 26.943 31.4588 25.9563 32.0331 24.6835C32.2718 24.734 32.5059 24.7936 32.74 24.8671C33.3766 25.0633 33.9801 25.3542 34.5302 25.73C34.887 25.9741 35.2205 26.2507 35.5262 26.5563C36.4836 27.5094 37.1369 28.725 37.4036 30.0494Z" fill="#60A917"/>
<path d="M37.4038 30.0494C37.1371 28.725 36.4837 27.5094 35.5264 26.5563C35.2206 26.2507 34.8872 25.9741 34.5303 25.73C33.9803 25.3542 33.3768 25.0633 32.7402 24.8671C32.5061 24.7936 32.272 24.734 32.0333 24.6835C31.9814 24.8069 31.9195 24.9245 31.8575 25.042C32.3133 25.2233 32.7479 25.4542 33.1533 25.7305C33.5101 25.9745 33.8436 26.2511 34.1494 26.5567C35.3455 27.7467 36.0582 29.3377 36.1497 31.0225L37.4038 30.0494Z" fill="#549414"/>
<path d="M32.0329 24.6848V24.6788" stroke="black" stroke-width="0.983606" stroke-linecap="round" stroke-linejoin="round"/>
<path d="M33.7894 23.1499C33.6832 23.278 33.6546 23.4535 33.7148 23.6087C33.7749 23.7639 33.9143 23.8743 34.0791 23.8974C34.2438 23.9205 34.4082 23.8526 34.5087 23.72C35.0563 23.0432 35.4871 22.2797 35.7834 21.4611C36.1876 20.3894 36.2682 19.2225 36.0152 18.1053C35.732 16.9192 35.1145 15.8393 34.236 14.9936C33.4088 14.1354 32.358 13.5258 31.2024 13.2337C31.1986 13.2325 31.1948 13.2314 31.1909 13.2305C31.1698 13.2255 31.1492 13.2186 31.128 13.214C30.0114 12.9602 28.8448 13.04 27.7731 13.4435C26.6782 13.8486 25.6818 14.4815 24.8496 15.3002C24.8414 15.3071 24.8331 15.3163 24.8248 15.3232C24.7633 15.3783 24.7046 15.4347 24.6375 15.5013C23.0583 17.0995 21.9238 19.0823 21.3464 21.2537C21.1794 21.8787 21.076 22.5191 21.0379 23.165V23.1884C20.9595 24.8202 21.3684 26.1353 22.2217 26.9937C22.2217 26.996 22.225 26.9992 22.2273 27.0015C22.4065 27.1807 22.6971 27.1807 22.8763 27.0015L27.0993 22.7808L27.7387 23.4202C27.8539 23.5396 28.0246 23.5874 28.1851 23.5454C28.3455 23.5034 28.4709 23.3781 28.5129 23.2176C28.5549 23.0571 28.507 22.8864 28.3877 22.7712L27.7428 22.1359L29.3636 20.5151L30.9867 22.1382L30.7351 22.3897C30.6158 22.505 30.5679 22.6756 30.61 22.8361C30.652 22.9966 30.7773 23.122 30.9378 23.164C31.0983 23.206 31.2689 23.1581 31.3842 23.0388L31.6357 22.7872L32.0488 23.2004C32.1346 23.2879 32.2518 23.3374 32.3743 23.3381H32.3789C32.5684 23.3367 32.7376 23.219 32.8048 23.0417C32.872 22.8645 32.8233 22.6642 32.6823 22.5375L32.2866 22.1423L33.9106 20.5188L34.8116 21.4198C34.5549 22.0422 34.2107 22.6247 33.7894 23.1499ZM27.8162 14.4217L28.7155 15.3209L27.0915 16.9449L25.8195 15.673C26.4127 15.1501 27.0871 14.7275 27.8162 14.4217ZM29.3645 15.9704L30.9876 17.593L29.3636 19.2166L27.741 17.5939L29.3645 15.9704ZM30.0131 15.3209L31.1606 14.1733C31.9349 14.3978 32.6488 14.7935 33.2496 15.331L31.6366 16.9435L30.0131 15.3209ZM33.8982 15.9805C34.4354 16.5813 34.8309 17.295 35.0554 18.069L33.9078 19.2166L32.2848 17.5939L33.8982 15.9805ZM30.0425 13.9943L29.3645 14.6723L28.7958 14.1031C29.2049 14.014 29.6237 13.9775 30.042 13.9943H30.0425ZM25.1475 16.299L26.4424 17.5939L24.8216 19.2166L23.7246 18.1149C24.137 17.4636 24.6137 16.8552 25.1475 16.299ZM22.3044 21.2417C22.5314 20.4404 22.8462 19.6665 23.2431 18.9343L24.1726 19.8638L22.5495 21.4873L22.3044 21.2417ZM21.9491 23.3858L22.5495 22.7854L24.1726 24.408L22.5821 25.9985C22.0987 25.2171 21.877 24.3019 21.9491 23.3858ZM24.8216 23.759L23.1985 22.1364L24.8216 20.5133L26.4447 22.1359L24.8216 23.759ZM27.0937 21.4869L25.4688 19.8638L27.0896 18.243L28.7127 19.8661L27.0937 21.4869ZM31.6357 21.4869L30.0131 19.8661L31.6371 18.2425L33.2602 19.8651L31.6357 21.4869ZM35.2358 19.1853C35.2527 19.6039 35.216 20.0228 35.1265 20.432L34.5574 19.8656L35.2358 19.1853Z" fill="black"/>
<path d="M13.2925 38.7706C13.5353 38.7712 13.7683 38.6751 13.9401 38.5035L18.9783 33.5002C19.1492 33.3299 19.2456 33.0988 19.2464 32.8576C20.1497 32.233 21.1177 31.7076 22.1336 31.2905C22.3677 31.1931 22.4786 30.9244 22.3812 30.6903C22.2839 30.4562 22.0152 30.3453 21.7811 30.4427C20.7408 30.8712 19.7477 31.4062 18.8177 32.0392L17.1886 30.4101C18.172 28.9389 18.9323 27.3302 19.4447 25.6363C19.5648 26.0969 19.7373 26.5421 19.9588 26.9633C19.5631 28.0686 19.061 29.1329 18.4596 30.1411C18.451 30.16 18.444 30.1794 18.4385 30.1994C18.4239 30.2287 18.4126 30.2595 18.4045 30.2912C18.3996 30.3491 18.3996 30.4073 18.4045 30.4652C18.4124 30.4969 18.4236 30.5277 18.4381 30.557C18.4437 30.5771 18.4509 30.5968 18.4596 30.6157C18.4633 30.6226 18.4693 30.6268 18.4734 30.6332C18.4807 30.6435 18.4887 30.6533 18.4973 30.6626C18.5265 30.6999 18.5615 30.7322 18.601 30.7585C18.6061 30.7617 18.6083 30.7668 18.6139 30.77L18.6217 30.7736C18.6462 30.7871 18.6721 30.7982 18.6988 30.8067C18.7103 30.812 18.7221 30.8168 18.7341 30.8209C18.7681 30.8294 18.8029 30.834 18.8379 30.8347H18.8512C18.8556 30.8349 18.86 30.8349 18.8645 30.8347C18.8995 30.8341 18.9343 30.8295 18.9682 30.8209C18.9803 30.8169 18.9921 30.8121 19.0036 30.8067C19.0303 30.7983 19.0561 30.7872 19.0807 30.7736L19.0889 30.77C20.1497 30.1351 21.2724 29.6102 22.4398 29.2033C22.4597 29.1954 22.4791 29.1858 22.4976 29.1749C22.5068 29.1703 22.516 29.1671 22.5247 29.162C22.5468 29.1484 22.5678 29.1331 22.5876 29.1161C22.6283 29.0826 22.6628 29.0422 22.6895 28.9968C22.695 28.9867 22.695 28.9761 22.6996 28.966C22.7109 28.9403 22.7196 28.9136 22.7257 28.8862C22.7349 28.8555 22.7411 28.824 22.7441 28.7921C22.7421 28.7331 22.7331 28.6745 22.7175 28.6176C22.6934 28.5632 22.6626 28.512 22.6257 28.4653C22.6206 28.4597 22.6188 28.4524 22.6133 28.4469C22.5946 28.43 22.5747 28.4147 22.5536 28.401C22.5418 28.3897 22.5294 28.3791 22.5164 28.3693C21.8208 27.9789 21.2464 27.4041 20.8566 26.7081C20.2091 25.4689 19.9667 24.0577 20.1635 22.6734C20.5458 19.7191 21.8885 16.9723 23.9848 14.8559C25.7309 13.1116 27.7217 12.1752 29.7432 12.1477C31.6821 12.1593 33.5341 12.9538 34.8786 14.351C37.5969 17.0693 37.7971 20.8873 35.3881 24.0775C35.2831 24.2079 35.2573 24.3851 35.3209 24.54C35.3845 24.6948 35.5274 24.8028 35.6938 24.8217C35.8602 24.8405 36.0236 24.7673 36.1203 24.6306C38.8221 21.0531 38.5893 16.7631 35.5281 13.7019C34.0117 12.1249 31.9191 11.2324 29.7312 11.2296C27.4664 11.2586 25.2544 12.2854 23.3353 14.2036C21.0863 16.4575 19.6508 19.3952 19.2546 22.5545C18.9508 24.2473 18.1704 27.4049 16.3771 29.9828C16.1359 29.9836 15.9049 30.0798 15.7344 30.2504L10.6954 35.2559C10.337 35.6144 10.337 36.1955 10.6954 36.554L12.643 38.5016C12.8149 38.6744 13.0488 38.7712 13.2925 38.7706ZM21.3221 28.6493C20.8598 28.8329 20.4155 29.034 19.9859 29.246C20.1961 28.8164 20.3958 28.3739 20.5826 27.9098C20.6909 28.0478 20.8061 28.1802 20.9278 28.3064C21.0494 28.4272 21.1862 28.5382 21.3221 28.6493ZM15.0794 32.1952L16.059 33.1706C16.1742 33.29 16.3449 33.3378 16.5054 33.2958C16.6659 33.2538 16.7912 33.1285 16.8332 32.968C16.8752 32.8075 16.8273 32.6368 16.708 32.5216L15.7326 31.5457L16.3835 30.8985L18.3297 32.8493L14.5947 36.5591L13.6165 35.5805C13.4364 35.4065 13.1501 35.409 12.9731 35.5861C12.796 35.7631 12.7935 36.0494 12.9675 36.2295L13.9434 37.2058L13.2925 37.8526L11.3435 35.9064L15.0794 32.1952Z" fill="black"/>
<path d="M30.6559 24.0821C27.1521 24.0818 24.136 26.5566 23.4522 29.993C22.7684 33.4294 24.6072 36.8703 27.8442 38.2113C31.0812 39.5524 34.8147 38.4202 36.7615 35.507C38.7083 32.5939 38.3261 28.7112 35.8487 26.2335C34.4746 24.8516 32.6047 24.0769 30.6559 24.0821ZM36.8678 29.7987C35.6557 30.4554 34.7229 31.5293 34.2422 32.8213C33.7998 33.9559 32.8463 34.8142 31.6716 35.1352C30.4968 35.4563 29.2394 35.2023 28.2814 34.4503C27.1981 33.598 26.6534 32.2314 26.8535 30.8676C27.0536 29.5038 27.9679 28.3512 29.2504 27.846C30.5486 27.3679 31.6276 26.4321 32.2845 25.2145C34.5309 25.7973 36.2851 27.5522 36.8678 29.7987ZM35.2001 35.9706C33.1435 38.0271 29.962 38.4458 27.4432 36.9916C24.9244 35.5373 23.6964 32.5727 24.449 29.7633C25.2017 26.9539 27.7474 25.0003 30.6559 25.0001C30.8819 25.0006 31.1077 25.0128 31.3325 25.0368C30.7627 25.9361 29.913 26.623 28.9144 26.9918C26.8858 27.7895 25.6573 29.8622 25.9315 32.0246C26.2056 34.1871 27.9124 35.8877 30.0759 36.1539C32.2393 36.4202 34.3075 35.1842 35.0978 33.1527C35.4676 32.1613 36.1518 31.3181 37.0459 30.7521C37.0695 30.976 37.0816 31.2011 37.0821 31.4263C37.0873 33.1317 36.4096 34.7682 35.2001 35.9706Z" fill="black"/>
</g>
<defs>
<clipPath id="clip0_2211_1656">
<rect width="28" height="28" fill="white" transform="translate(10 11)"/>
</clipPath>
</defs>
</svg>
