<svg width="50" height="50" viewBox="0 0 50 50" fill="none" xmlns="http://www.w3.org/2000/svg">
<rect x="1.5" y="1.5" width="47.0005" height="47" rx="23.5" fill="white"/>
<rect x="1.5" y="1.5" width="47.0005" height="47" rx="23.5" stroke="#8B9B75" stroke-width="3"/>
<g clip-path="url(#clip0_2211_1432)">
<path d="M25 25.0012H24.9994C24.9994 25.0006 25 24.9994 25 24.9988C22.9873 23.1455 22.1037 19.7301 22.3486 16.5971L22.4072 16.6018C28.6476 16.1699 35.1925 19.1768 39.3156 23.9184C39.5294 26.8114 38.8836 29.6655 37.4436 32.1613L37.4307 32.166C36.8047 27.6513 29.6278 23.5537 25 25.0012Z" fill="#739AE8"/>
<path d="M37.4307 32.166L37.4435 32.1613C33.6483 38.742 25.5203 41.1139 18.8957 37.9955C25.0194 36.7473 30.8716 32.5541 33.581 26.8908C35.616 28.2818 37.1564 30.1885 37.4307 32.166Z" fill="#F0C65A"/>
<path d="M39.3156 23.9184C35.1953 19.1801 28.6519 16.1695 22.4072 16.6018L22.3486 16.5971C22.5187 14.416 23.287 11.9724 25 10.6434C32.565 10.6434 38.7631 16.4945 39.3156 23.9184Z" fill="#E4E8F6"/>
<path d="M33.581 26.8908C30.8725 32.5522 25.0216 36.7469 18.8957 37.9955C16.239 36.7457 14.0283 34.7055 12.5658 32.1777L12.5676 32.1766C16.7804 33.9026 23.9345 29.7438 24.9994 25.0012H25C27.6039 24.1867 30.9924 25.1219 33.581 26.8908Z" fill="#E4E8F6"/>
<path d="M25 24.9988C25 24.9994 24.9994 25.0006 24.9994 25.0012C24.3663 27.8209 21.6916 30.2254 19.0674 31.4881V31.4875C15.5375 26.3232 14.8183 19.1539 16.8233 13.1986C19.1436 11.5873 21.9614 10.6434 25 10.6434C21.3935 13.4413 21.4291 21.7107 25 24.9988Z" fill="#F0C65A"/>
<path d="M19.0674 31.4875V31.4881C16.842 32.5557 14.4168 32.9342 12.5676 32.1766L12.5658 32.1777C8.8998 25.8439 10.5657 17.5415 16.8233 13.1986C14.8197 19.1496 15.5352 26.3198 19.0674 31.4875Z" fill="#739AE8"/>
<path d="M39.9414 24.9988C39.9414 16.7132 33.2195 10.0574 25 10.0574C16.7037 10.0574 10.0586 16.7985 10.0586 24.9988C10.0586 33.3747 16.9407 40.0867 25.2462 39.9402C33.3151 39.798 39.9414 33.2311 39.9414 24.9988ZM37.5868 30.5878C35.8441 26.4945 29.6284 23.2163 25.1711 24.3454C23.658 22.7775 22.7952 20.0396 22.9035 17.1619C28.6469 16.9249 34.7576 19.6628 38.7439 24.1569C38.8789 26.4188 38.4636 28.612 37.5868 30.5878ZM19.2695 30.729C16.0919 25.7534 15.5204 19.0892 17.3185 13.5703C19.1885 12.3102 21.3144 11.5396 23.5443 11.3058C20.8688 14.8564 21.1429 21.8874 24.348 25.18C23.7491 27.2686 21.8364 29.3668 19.2695 30.729ZM38.4811 22.1906C34.4134 18.2645 28.6305 15.8007 23.0027 15.9856C23.2328 14.2706 23.8844 12.3595 25.2053 11.2318C31.6803 11.3284 37.187 15.9842 38.4811 22.1906ZM15.7537 14.7975C14.4095 20.3616 15.2672 26.5516 18.2014 31.2334C16.2565 32.0396 14.3887 32.21 12.97 31.7029C9.88475 26.1784 10.9599 19.1468 15.7537 14.7975ZM13.868 33.1059C18.2966 33.646 24.2288 29.8939 25.482 25.4755C27.5908 24.9514 30.3887 25.5701 32.8235 27.0959C30.1818 32.2014 24.7965 36.133 18.9691 37.3804C16.9312 36.3868 15.1916 34.9258 13.868 33.1059ZM20.81 38.1198C26.2157 36.5159 31.1811 32.7152 33.7946 27.7687C35.4652 29.0492 36.5481 30.5816 36.8206 32.0649C33.5285 37.5602 26.8593 40.055 20.81 38.1198Z" fill="black"/>
</g>
<defs>
<clipPath id="clip0_2211_1432">
<rect width="30" height="30" fill="white" transform="translate(10 10)"/>
</clipPath>
</defs>
</svg>
