<svg width="18" height="18" viewBox="0 0 18 18" fill="none" xmlns="http://www.w3.org/2000/svg">
<path d="M13.6863 0H4.31367C1.93008 0 0 1.93008 0 4.31367V13.6863C0 16.0699 1.93008 18 4.31367 18H13.6863C16.0699 18 18 16.0699 18 13.6863V4.31367C18 1.93008 16.0699 0 13.6863 0ZM13.6934 9C13.6934 9.74531 13.0887 10.3535 12.3398 10.3535H10.3535V12.3398C10.3535 13.0852 9.74883 13.6934 9.00352 13.6934C8.2582 13.6934 7.65 13.0887 7.65 12.3398V10.3535H5.66016C4.91484 10.3535 4.30664 9.74883 4.30664 9.00352C4.30664 8.2582 4.91133 7.65 5.66016 7.65H7.65V5.66016C7.65 4.91484 8.25469 4.30664 9 4.30664C9.74531 4.30664 10.3535 4.91133 10.3535 5.66016V7.65H12.3398C13.0852 7.64648 13.6934 8.25469 13.6934 9Z" fill="white"/>
</svg>
