<svg width="19" height="22" viewBox="0 0 19 22" fill="none" xmlns="http://www.w3.org/2000/svg">
<g clip-path="url(#clip0_2009_1446)">
<path d="M15.5233 20.2139C14.3957 21.3082 13.1516 21.1376 11.9657 20.6216C10.705 20.0953 9.55239 20.062 8.22089 20.6216C6.56276 21.3373 5.68272 21.1293 4.6841 20.2139C-0.953955 14.4094 -0.121769 5.56743 6.28606 5.23456C7.84016 5.31778 8.92825 6.09379 9.84365 6.15828C11.2043 5.88158 12.5066 5.08893 13.963 5.19295C15.7126 5.33442 17.0212 6.02513 17.895 7.26717C14.2958 9.43084 15.1488 14.1743 18.4547 15.5058C17.7931 17.243 16.9443 18.9593 15.5212 20.2284L15.5233 20.2139ZM9.71882 5.17215C9.55031 2.59238 11.6412 0.470314 14.0462 0.262268C14.377 3.23732 11.3416 5.46341 9.71882 5.17215Z" fill="#192126"/>
</g>
<defs>
<clipPath id="clip0_2009_1446">
<rect width="17.5175" height="20.8046" fill="white" transform="translate(0.918945 0.241394)"/>
</clipPath>
</defs>
</svg>
