<svg width="20" height="23" viewBox="0 0 20 23" fill="none" xmlns="http://www.w3.org/2000/svg">
<path d="M6.10692 16.9174L13.4868 9.85117C13.9348 9.42215 14.1589 9.20764 14.2759 8.97485C14.4856 8.5579 14.4856 8.0722 14.2759 7.65525C14.1589 7.42246 13.9348 7.20794 13.4868 6.77892C13.0387 6.3499 12.8147 6.13538 12.5715 6.02328C12.1361 5.82249 11.6288 5.82248 11.1934 6.02328C10.9502 6.13538 10.7262 6.3499 10.2781 6.77892L2.95178 13.7939C1.85303 14.8459 1.30366 15.372 1.11183 15.9836C0.962722 16.4591 0.962723 16.966 1.11183 17.4414C1.30366 18.0531 1.85303 18.5791 2.95178 19.6312C4.05053 20.6832 4.5999 21.2092 5.2387 21.3929C5.73526 21.5357 6.26468 21.5357 6.76124 21.3929C7.40004 21.2092 7.94941 20.6832 9.04816 19.6312L16.4815 12.5138C17.5258 11.5138 18.048 11.0138 18.3617 10.4937C19.2128 9.08216 19.2128 7.34311 18.3617 5.93161C18.048 5.41147 17.5258 4.91147 16.4815 3.91148C15.4371 2.9115 14.9149 2.4115 14.3717 2.1112C12.8975 1.29627 11.0813 1.29627 9.60712 2.1112C9.06389 2.4115 8.5417 2.9115 7.49733 3.91148L1.5079 9.64636" stroke="#8688A1" stroke-width="1.5" stroke-linecap="round"/>
</svg>
