<svg width="26" height="35" viewBox="0 0 26 35" fill="none" xmlns="http://www.w3.org/2000/svg">
<path d="M22.4283 19.9506L25.9995 15.2035L14.5455 11.8065C14.4148 11.763 14.2842 11.6759 14.2406 11.5017C14.1971 11.371 14.1971 11.1968 14.3277 11.1097L21.8621 0.96228H15.0246L9.88552 7.79982C8.70964 9.36766 8.40478 11.4146 9.0145 13.2873C9.62422 15.16 11.105 16.5972 13.0212 17.1633L22.4283 19.9506Z" fill="white"/>
<path d="M3.5712 15.9874L0 20.7345L11.454 24.1315C11.5846 24.1751 11.7153 24.2622 11.7588 24.4364C11.8024 24.567 11.8024 24.7412 11.6717 24.8283L4.13736 34.9758H11.062L16.1575 28.1382C17.3334 26.5704 17.6382 24.5235 17.0285 22.6508C16.4188 20.7781 14.9381 19.3409 13.0218 18.7747L3.5712 15.9874Z" fill="white"/>
</svg>
