<svg width="18" height="18" viewBox="0 0 18 18" fill="none" xmlns="http://www.w3.org/2000/svg">
<mask id="mask0_4144_5594" style="mask-type:luminance" maskUnits="userSpaceOnUse" x="1" y="1" width="16" height="16">
<path d="M1 1.00003H17V17H1V1.00003Z" fill="white"/>
</mask>
<g mask="url(#mask0_4144_5594)">
<path d="M8.38541 13.3125H9.61456M12.08 13.3125H13.3092M4.69791 13.3125H5.92706M8.38541 9.625H9.61456M12.08 9.625H13.3092M4.69791 9.625H5.92706M1.625 6.54166H16.3821M12.6946 4.69791V1.625M5.3125 4.69791V1.625M4.09044 16.375H13.9167C15.2783 16.375 16.3821 15.2712 16.3821 13.9095V5.31962C16.3821 3.958 15.2783 2.85416 13.9167 2.85416H4.09044C2.72881 2.85416 1.625 3.958 1.625 5.31962V13.9095C1.625 15.2712 2.72881 16.375 4.09044 16.375Z" stroke="#7A869A" stroke-width="1.52778" stroke-miterlimit="10" stroke-linecap="round" stroke-linejoin="round"/>
</g>
</svg>
