<svg width="20" height="19" viewBox="0 0 20 19" fill="none" xmlns="http://www.w3.org/2000/svg">
<path fill-rule="evenodd" clip-rule="evenodd" d="M7.77778 18.5H12.2222C15.3433 18.5 16.9038 18.5 18.0248 17.7646C18.51 17.4462 18.9267 17.0371 19.251 16.5607C20 15.4601 20 13.9279 20 10.8636C20 7.79936 20 6.26721 19.251 5.1666C18.9267 4.69014 18.51 4.28104 18.0248 3.96268C17.3044 3.49013 16.4027 3.32123 15.022 3.26086C14.3631 3.26086 13.7959 2.77068 13.6667 2.13636C13.4728 1.18489 12.6219 0.5 11.6337 0.5H8.36634C7.37805 0.5 6.52715 1.18489 6.33333 2.13636C6.20412 2.77068 5.63685 3.26086 4.978 3.26086C3.59733 3.32123 2.69555 3.49013 1.97524 3.96268C1.48995 4.28104 1.07328 4.69014 0.749024 5.1666C0 6.26721 0 7.79936 0 10.8636C0 13.9279 0 15.4601 0.749024 16.5607C1.07328 17.0371 1.48995 17.4462 1.97524 17.7646C3.09624 18.5 4.65675 18.5 7.77778 18.5ZM10 6.77273C7.69881 6.77273 5.83333 8.60429 5.83333 10.8636C5.83333 13.123 7.69881 14.9545 10 14.9545C12.3012 14.9545 14.1667 13.123 14.1667 10.8636C14.1667 8.60429 12.3012 6.77273 10 6.77273ZM10 8.40909C8.61929 8.40909 7.5 9.50803 7.5 10.8636C7.5 12.2192 8.61929 13.3182 10 13.3182C11.3807 13.3182 12.5 12.2192 12.5 10.8636C12.5 9.50803 11.3807 8.40909 10 8.40909ZM14.7222 7.59091C14.7222 7.13904 15.0953 6.77273 15.5556 6.77273H16.6667C17.1269 6.77273 17.5 7.13904 17.5 7.59091C17.5 8.04278 17.1269 8.40909 16.6667 8.40909H15.5556C15.0953 8.40909 14.7222 8.04278 14.7222 7.59091Z" fill="#8688A1"/>
</svg>
