<svg width="28" height="28" viewBox="0 0 28 28" fill="none" xmlns="http://www.w3.org/2000/svg">
<path fill-rule="evenodd" clip-rule="evenodd" d="M17.1237 21.2525C18.7201 21.7631 19.9128 23.1997 20.0457 24.9551V24.9603C20.113 26.0048 20.0933 26.6926 20.0933 26.6926C20.0867 26.947 19.8783 27.1482 19.6257 27.1482H8.37432C8.23979 27.1482 8.11014 27.0897 8.02154 26.9874C7.93295 26.8851 7.89194 26.7493 7.90999 26.6152C7.90999 26.6152 8.01994 25.8346 8.1758 24.6989C8.39236 23.1094 9.47846 21.8284 10.9124 21.3058C11.5899 22.2858 12.7203 22.928 14 22.928C15.3027 22.928 16.4511 22.2626 17.1237 21.2525ZM14 15.8949C15.8112 15.8949 17.2812 17.365 17.2812 19.1772C17.2812 20.9885 15.8112 22.4595 14 22.4595C12.1888 22.4595 10.7188 20.9885 10.7188 19.1772C10.7188 17.365 12.1888 15.8949 14 15.8949ZM25.3105 19.356C26.0832 19.6784 26.6525 20.4031 26.7427 21.2834L27.0446 24.2399C27.0708 24.5038 26.9856 24.7669 26.8084 24.9637C26.6295 25.1606 26.3769 25.2732 26.1127 25.2732H20.533C20.528 25.1632 20.5215 25.0488 20.5133 24.9293C20.5133 24.9259 20.5133 24.9233 20.5133 24.9199C20.3902 23.2891 19.4419 21.905 18.0983 21.1639C18.2262 20.3223 18.7972 19.638 19.5551 19.3396C20.1113 20.3601 21.1941 21.053 22.4377 21.053C23.6731 21.053 24.751 20.367 25.3105 19.356ZM22.4377 14.957C23.9898 14.957 25.2498 16.2173 25.2498 17.7699C25.2498 19.3233 23.9898 20.5836 22.4377 20.5836C20.8857 20.5836 19.6257 19.3233 19.6257 17.7699C19.6257 16.2173 20.8857 14.957 22.4377 14.957ZM8.44487 19.3396C9.23401 19.6509 9.81966 20.379 9.91646 21.2679C8.74834 21.9806 7.90835 23.1945 7.71147 24.6353C7.6803 24.8631 7.65079 25.0772 7.6229 25.2732H1.88727C1.62313 25.2732 1.37046 25.1606 1.19163 24.9637C1.01444 24.7669 0.929159 24.5038 0.955409 24.2399L1.25727 21.2834C1.3475 20.4031 1.91678 19.6784 2.68951 19.356C3.24896 20.367 4.32687 21.053 5.56226 21.053C6.80585 21.053 7.88869 20.3601 8.44487 19.3396ZM5.56226 14.957C7.11429 14.957 8.37432 16.2173 8.37432 17.7699C8.37432 19.3233 7.11429 20.5836 5.56226 20.5836C4.01023 20.5836 2.75024 19.3233 2.75024 17.7699C2.75024 16.2173 4.01023 14.957 5.56226 14.957ZM0.875 6.42199C0.875 3.40019 3.8954 0.889038 7.67212 0.889038C11.4488 0.889038 14.4692 3.40019 14.4692 6.42199C14.4692 8.16715 13.4602 9.81775 11.7277 10.8657C11.5604 12.0022 11.8294 12.9427 12.4644 13.7225C12.594 13.8815 12.6055 14.1059 12.4939 14.2761C12.3807 14.4472 12.1707 14.5254 11.9739 14.4704C10.686 14.105 9.67529 13.2737 9.0256 11.8449C8.58099 11.9188 8.12657 11.9558 7.67212 11.9558C3.8954 11.9558 0.875 9.44465 0.875 6.42199ZM11.1519 4.84532C10.3693 4.84532 9.73437 5.48149 9.73437 6.2638C9.73437 7.04698 10.3693 7.68229 11.1519 7.68229C11.9345 7.68229 12.571 7.04698 12.571 6.2638C12.571 5.48149 11.9345 4.84532 11.1519 4.84532ZM11.1519 5.78324C11.4177 5.78324 11.6326 5.99902 11.6326 6.2638C11.6326 6.52945 11.4177 6.74437 11.1519 6.74437C10.8877 6.74437 10.6712 6.52945 10.6712 6.2638C10.6712 5.99902 10.8877 5.78324 11.1519 5.78324ZM4.1907 4.84532C3.40812 4.84532 2.77322 5.48149 2.77322 6.2638C2.77322 7.04698 3.40812 7.68229 4.1907 7.68229C4.97327 7.68229 5.60982 7.04698 5.60982 6.2638C5.60982 5.48149 4.97327 4.84532 4.1907 4.84532ZM4.1907 5.78324C4.45648 5.78324 4.6714 5.99902 4.6714 6.2638C4.6714 6.52945 4.45648 6.74437 4.1907 6.74437C3.92656 6.74437 3.71165 6.52945 3.71165 6.2638C3.71165 5.99902 3.92656 5.78324 4.1907 5.78324ZM7.67212 4.84532C6.88954 4.84532 6.2546 5.48149 6.2546 6.2638C6.2546 7.04698 6.88954 7.68229 7.67212 7.68229C8.4547 7.68229 9.08959 7.04698 9.08959 6.2638C9.08959 5.48149 8.4547 4.84532 7.67212 4.84532ZM7.67212 5.78324C7.93626 5.78324 8.15282 5.99902 8.15282 6.2638C8.15282 6.52945 7.93626 6.74437 7.67212 6.74437C7.40634 6.74437 7.19142 6.52945 7.19142 6.2638C7.19142 5.99902 7.40634 5.78324 7.67212 5.78324ZM27.125 5.95346C27.125 8.74572 24.8166 11.0179 21.9685 11.0179C21.6634 11.0179 21.3599 10.9912 21.0596 10.9379C20.5658 12.218 19.798 12.9573 18.8415 13.2892C18.6512 13.3554 18.4396 13.2926 18.3165 13.1336C18.1935 12.9745 18.1852 12.7544 18.2968 12.5868C18.7693 11.8758 18.9678 11.017 18.8431 9.98109C17.5651 9.02512 16.812 7.53614 16.812 5.95346C16.812 3.16119 19.1204 0.889038 21.9685 0.889038C24.8166 0.889038 27.125 3.16119 27.125 5.95346ZM20.3279 4.61149C19.5453 4.61149 18.9104 5.24679 18.9104 6.02997C18.9104 6.81228 19.5453 7.44845 20.3279 7.44845C21.1105 7.44845 21.7454 6.81228 21.7454 6.02997C21.7454 5.24679 21.1105 4.61149 20.3279 4.61149ZM20.3279 5.54854C20.5937 5.54854 20.8086 5.76433 20.8086 6.02997C20.8086 6.29475 20.5937 6.51054 20.3279 6.51054C20.0637 6.51054 19.8472 6.29475 19.8472 6.02997C19.8472 5.76433 20.0637 5.54854 20.3279 5.54854ZM23.8093 4.61149C23.0267 4.61149 22.3902 5.24679 22.3902 6.02997C22.3902 6.81228 23.0267 7.44845 23.8093 7.44845C24.5919 7.44845 25.2268 6.81228 25.2268 6.02997C25.2268 5.24679 24.5919 4.61149 23.8093 4.61149ZM23.8093 5.54854C24.0734 5.54854 24.2884 5.76433 24.2884 6.02997C24.2884 6.29475 24.0734 6.51054 23.8093 6.51054C23.5435 6.51054 23.3286 6.29475 23.3286 6.02997C23.3286 5.76433 23.5435 5.54854 23.8093 5.54854Z" fill="#8B9B75"/>
</svg>
