<svg width="304" height="292" viewBox="0 0 304 292" fill="none" xmlns="http://www.w3.org/2000/svg">
<path d="M151.687 292C235.461 292 303.374 284.981 303.374 276.324C303.374 267.666 235.461 260.647 151.687 260.647C67.9125 260.647 0 267.666 0 276.324C0 284.981 67.9125 292 151.687 292Z" fill="#263238" fill-opacity="0.1"/>
<path d="M73.4796 202.222C70.6979 201.092 65.2213 199.353 64.6124 200.396C64.0041 201.439 61.8307 203.526 61.8307 203.526C61.8307 203.526 60.6135 200.048 59.5708 199.874C58.5274 199.701 54.0941 199.614 53.1381 199.874C52.182 200.135 55.6592 202.569 58.6147 204.395C59.3289 204.836 59.9859 205.164 60.5942 205.423C60.4441 206.16 60.0732 208.272 60.2946 210.189C60.5731 212.604 60.6122 219.11 59.4412 223.209C58.1572 227.704 56.2226 242.701 57.0817 247.855L58.0609 247.692C57.2203 242.649 59.1312 227.909 60.396 223.482C61.6049 219.25 61.567 212.556 61.2808 210.075C61.0928 208.444 61.3828 206.593 61.5349 205.789C62.9832 206.299 64.1189 206.489 65.0474 207.089C66.5252 208.045 67.0468 208.828 67.0468 208.828C67.0468 208.828 67.2207 207.785 67.6551 207.872C68.0895 207.959 74.0879 209.35 75.1312 209.176C76.1746 209.002 76.2618 203.352 73.4796 202.222Z" fill="#263238"/>
<path d="M54.3024 246.132C54.28 246.019 52.0335 234.783 51.3456 230.998C50.994 229.065 50.5127 223.837 50.0475 218.782C49.5945 213.861 49.1261 208.774 48.8277 207.367C48.256 204.673 46.6313 203.024 46.6152 203.008L47.3172 202.306C47.3923 202.381 49.1671 204.183 49.7992 207.161C50.1091 208.625 50.5596 213.515 51.0363 218.691C51.5002 223.725 51.9789 228.93 52.3229 230.82C53.0095 234.597 55.254 245.824 55.2771 245.937L54.3024 246.132Z" fill="#263238" stroke="#263238" stroke-width="0.641667" stroke-miterlimit="10" stroke-linecap="round" stroke-linejoin="round"/>
<path d="M57.2856 245.702L56.293 245.672C56.2936 245.643 56.3822 242.765 56.5548 240.263C56.7216 237.836 56.6491 213.355 56.5535 200.834C56.4675 189.575 56.4662 174.726 56.4662 174.578H57.4589C57.4589 174.726 57.4602 189.571 57.5461 200.827C57.627 211.459 57.7245 237.724 57.5449 240.332C57.3735 242.814 57.2856 245.674 57.2856 245.702Z" fill="#263238" stroke="#263238" stroke-width="0.641667" stroke-miterlimit="10" stroke-linecap="round" stroke-linejoin="round"/>
<path d="M57.8864 245.513L56.9092 245.34C57.6971 240.906 61.7711 225.276 67.2387 216.818C72.7481 208.295 77.3848 202.157 77.431 202.096L78.2222 202.696C78.1766 202.756 73.5604 208.867 68.0729 217.357C62.6868 225.689 58.6661 241.13 57.8864 245.513Z" fill="#263238" stroke="#263238" stroke-width="0.641667" stroke-miterlimit="10" stroke-linecap="round" stroke-linejoin="round"/>
<path d="M78.2696 199.081C78.2696 199.081 78.0322 195.638 74.589 193.975C71.1458 192.313 69.2459 191.838 68.771 196.35C68.2962 200.862 68.8897 205.018 68.8897 205.018C68.8897 205.018 71.502 200.387 73.5207 199.793C75.5393 199.2 76.9638 200.743 75.8955 201.337C74.8271 201.931 71.3833 204.068 70.1962 204.899C69.0084 205.73 69.2465 206.086 70.0775 207.63C70.9084 209.174 72.571 213.092 72.571 213.092C72.571 213.092 74.1148 206.324 74.8271 205.136C75.5393 203.949 78.0329 205.136 77.2019 207.155C76.3709 209.174 74.1148 214.517 74.1148 214.517C74.1148 214.517 77.2019 217.842 78.7457 218.792C80.2896 219.741 81.4767 223.185 81.4767 223.185C81.4767 223.185 82.5451 222.116 85.3947 221.047C88.2444 219.979 92.2811 218.198 92.0437 217.01C91.8062 215.823 90.7379 214.398 88.4818 211.429C86.2257 208.461 82.7825 205.611 84.207 205.493C85.6321 205.374 93.2307 208.936 93.9436 210.598C94.6559 212.261 93.7062 215.467 93.7062 215.467C93.7062 215.467 95.9623 212.38 95.9623 210.717C95.9623 209.055 95.0127 207.749 95.0127 207.749C95.0127 207.749 90.1443 204.068 88.1263 202.999C86.1076 201.931 85.9889 200.743 86.5824 200.743C87.176 200.743 93.4688 202.406 94.6565 203.949C95.8436 205.493 95.8436 206.442 95.9623 206.798C96.081 207.155 94.5372 198.487 92.5191 196.706C90.5005 194.924 86.2263 193.5 83.7328 194.45C81.2393 195.399 80.1709 196.112 79.8148 196.824C79.4567 197.537 78.2696 199.081 78.2696 199.081Z" fill="#92E3A9" stroke="#263238" stroke-width="0.641667" stroke-miterlimit="10" stroke-linecap="round" stroke-linejoin="round"/>
<path d="M87.0814 211.672C87.0814 211.672 84.6803 208.651 84.2157 209.658C83.7511 210.665 87.3907 215.389 87.7782 215.002C88.1651 214.614 88.1651 213.143 87.0814 211.672Z" stroke="#263238" stroke-width="0.641667" stroke-miterlimit="10" stroke-linecap="round" stroke-linejoin="round"/>
<path d="M79.4912 199.668C79.4912 199.668 87.4678 198.196 89.9459 198.971" stroke="#263238" stroke-width="0.641667" stroke-miterlimit="10" stroke-linecap="round" stroke-linejoin="round"/>
<path d="M79.7236 201.604C79.7236 201.604 86.2288 203.231 88.7846 205.244" stroke="#263238" stroke-width="0.641667" stroke-miterlimit="10" stroke-linecap="round" stroke-linejoin="round"/>
<path d="M79.5686 202.223C79.5686 202.223 75.9285 202.688 74.1478 204.081C72.3666 205.476 72.2119 205.94 72.2119 205.94" stroke="#263238" stroke-width="0.641667" stroke-miterlimit="10" stroke-linecap="round" stroke-linejoin="round"/>
<path d="M72.6768 197.577C72.6768 197.577 73.5289 197.732 75.2325 198.662C76.9362 199.591 78.7174 200.055 78.7174 200.055C78.7174 200.055 81.5825 204.702 82.2023 208.806C82.8215 212.911 82.28 219.959 82.2023 220.268" stroke="#263238" stroke-width="0.641667" stroke-miterlimit="10" stroke-linecap="round" stroke-linejoin="round"/>
<path d="M81.2729 205.863C81.2729 205.863 79.414 208.961 78.4072 211.594" stroke="#263238" stroke-width="0.641667" stroke-miterlimit="10" stroke-linecap="round" stroke-linejoin="round"/>
<path d="M57.343 172.175C57.343 172.175 56.8007 170.239 56.8007 168.768C56.8007 167.296 58.3497 165.283 55.794 164.354C53.2382 163.424 48.359 161.101 47.4298 159.862C46.5007 158.623 46.4231 157.616 44.2549 157.306C42.0867 156.996 40.2278 157.074 37.4397 158.777C34.6517 160.481 33.9548 162.495 33.9548 162.495C33.9548 162.495 35.0392 161.72 41.2345 162.882C47.4298 164.043 50.6831 167.838 49.0565 167.993C47.4298 168.148 38.6788 164.198 36.5106 163.734C34.3424 163.269 33.1033 163.037 31.7866 164.431C30.4699 165.824 30.083 168.922 30.083 168.922C30.083 168.922 33.7232 166.444 37.9826 166.831C42.242 167.218 48.9025 170.626 47.9727 171.013C47.0436 171.4 41.3898 168.767 37.3627 169.387C33.3356 170.006 30.8575 170.394 30.5476 171.943C30.2376 173.491 31.632 174.498 31.632 174.498C31.632 174.498 30.7799 173.027 33.8778 171.4C36.9758 169.774 42.0097 170.161 42.0097 170.548C42.0097 170.936 39.144 170.626 37.1304 171.633C35.1169 172.639 32.4835 174.111 33.3356 174.653C34.1878 175.195 36.1237 176.434 36.5106 177.519C36.8982 178.603 36.8205 181.003 37.1304 180.229C37.4404 179.455 37.8273 177.131 38.5241 176.666C39.221 176.202 46.8883 176.511 46.8883 176.511C46.8883 176.511 50.0632 174.885 50.4508 174.111C50.8384 173.336 50.993 172.02 52.7743 172.407C54.5556 172.794 54.4779 173.568 53.4711 175.273C52.4644 176.976 49.831 178.913 49.831 178.913C49.831 178.913 54.0903 176.589 56.0263 176.357C57.9622 176.125 59.0466 175.35 58.6597 174.498C58.2727 173.646 57.5752 172.872 58.7373 172.717C59.8987 172.562 61.603 172.562 61.7576 173.491C61.9123 174.421 60.3633 175.427 60.3633 175.427C60.3633 175.427 66.6362 173.724 68.1076 172.485C69.5789 171.246 70.818 170.394 70.3534 169.774C69.8888 169.154 67.4877 169.697 67.4877 169.697C67.4877 169.697 65.2419 167.838 62.6085 168.922C59.9751 170.007 59.0459 171.478 58.5814 171.865C58.1175 172.252 57.343 172.175 57.343 172.175Z" fill="#92E3A9" stroke="#263238" stroke-width="0.641667" stroke-miterlimit="10" stroke-linecap="round" stroke-linejoin="round"/>
<path d="M46.4237 161.952C46.656 161.874 49.8316 165.127 51.4576 167.76C53.0842 170.393 57.3436 172.174 57.3436 172.174C57.3436 172.174 51.4576 171.709 49.367 171.787C47.2758 171.865 41.9326 172.948 39.9961 174.343" stroke="#263238" stroke-width="0.641667" stroke-miterlimit="10" stroke-linecap="round" stroke-linejoin="round"/>
<path d="M58.582 171.865C58.582 171.865 64.8261 170.507 65.48 171.458" stroke="#263238" stroke-width="0.641667" stroke-miterlimit="10" stroke-linecap="round" stroke-linejoin="round"/>
<path d="M54.3071 171.992C54.3071 171.992 50.1472 170.507 48.2453 169.496C46.3434 168.486 40.2225 165.395 35.4678 165.455" stroke="#263238" stroke-width="0.641667" stroke-miterlimit="10" stroke-linecap="round" stroke-linejoin="round"/>
<path d="M47.5739 200.31C47.5739 200.31 50.3555 196.572 49.5734 196.05C48.7912 195.529 40.9673 197.528 38.9679 198.136C36.9684 198.745 33.3174 198.832 29.2319 199.527C25.1464 200.223 24.6247 201.44 23.4947 201.527C22.3647 201.614 21.5819 201.527 20.887 201.875C20.1914 202.222 20.1914 202.222 20.1914 202.222C20.1914 202.222 21.8431 202.657 22.6253 203.092C23.4074 203.526 25.9286 203.614 26.1897 203.961C26.4502 204.309 30.1886 205.961 34.6219 207.091C39.0551 208.221 45.2273 203.7 46.9663 202.658C48.7045 201.614 50.1829 200.745 50.3568 199.876C50.5301 199.005 47.5739 200.31 47.5739 200.31Z" fill="#92E3A9" stroke="#263238" stroke-width="0.641667" stroke-miterlimit="10" stroke-linecap="round" stroke-linejoin="round"/>
<path d="M47.5742 200.31C47.5742 200.31 45.8359 202.135 44.9665 202.309C44.097 202.483 38.7943 203.874 34.7088 203.874C30.6233 203.874 23.8428 202.744 23.8428 202.744" stroke="#263238" stroke-width="0.641667" stroke-miterlimit="10" stroke-linecap="round" stroke-linejoin="round"/>
<path d="M43.3145 198.571C43.3145 198.571 44.3578 200.483 45.0534 201.092C45.7489 201.7 45.7489 201.7 45.7489 201.7" stroke="#263238" stroke-width="0.641667" stroke-miterlimit="10" stroke-linecap="round" stroke-linejoin="round"/>
<path d="M43.4016 202.743C43.4016 202.743 39.8378 200.657 38.0122 200.222C36.1867 199.787 34.8828 199.788 34.8828 199.788" stroke="#263238" stroke-width="0.641667" stroke-miterlimit="10" stroke-linecap="round" stroke-linejoin="round"/>
<path d="M38.0116 203.874C38.0116 203.874 35.9256 202.744 32.6216 202.135C29.3183 201.526 28.5361 201.353 28.5361 201.353" stroke="#263238" stroke-width="0.641667" stroke-miterlimit="10" stroke-linecap="round" stroke-linejoin="round"/>
<path d="M42.7069 202.917C42.7069 202.917 40.7941 204.83 38.5342 205.439" stroke="#263238" stroke-width="0.641667" stroke-miterlimit="10" stroke-linecap="round" stroke-linejoin="round"/>
<path d="M69.8566 189.392C69.8566 189.392 73.4416 186.803 72.1467 186.106C70.8524 185.409 62.6866 187.301 54.6208 188.596C46.5551 189.89 44.2643 191.683 42.8706 193.077C41.4763 194.471 41.2773 196.562 41.2773 196.562C41.2773 196.562 43.9659 196.861 44.4639 197.16C44.9618 197.458 45.5592 195.168 50.0406 192.878C54.522 190.588 57.509 189.094 55.5172 191.483C53.5255 193.874 51.0358 196.462 49.2436 196.96C47.4508 197.458 47.4508 197.458 47.4508 197.458C47.4508 197.458 52.1311 199.151 53.127 198.653C54.1229 198.155 60.4959 189.691 61.2929 189.79C62.0898 189.889 62.1893 190.487 60.7949 192.18C59.4006 193.873 56.5131 196.164 56.5131 196.164C56.5131 196.164 62.7867 196.363 63.0857 195.865C63.3847 195.367 67.1686 188.994 67.467 190.288C67.766 191.583 67.467 191.981 66.8696 192.778C66.2722 193.574 64.9773 195.068 64.9773 195.068C64.9773 195.068 76.6281 196.86 76.827 195.765C77.0259 194.669 76.1301 192.378 74.0389 191.383C71.9478 190.388 69.8566 189.392 69.8566 189.392Z" fill="#92E3A9" stroke="#263238" stroke-width="0.641667" stroke-miterlimit="10" stroke-linecap="round" stroke-linejoin="round"/>
<path d="M69.8563 189.392C69.8563 189.392 63.3838 188.197 59.7988 188.695" stroke="#263238" stroke-width="0.641667" stroke-miterlimit="10" stroke-linecap="round" stroke-linejoin="round"/>
<path d="M52.7539 245.235C52.7443 245.207 51.7722 242.28 49.8786 235.652C47.9761 228.991 47.3472 222.327 47.3408 222.261L48.3296 222.169C48.3354 222.235 48.9565 228.81 50.8334 235.379C52.7199 241.981 53.6863 244.892 53.6953 244.92L52.7539 245.235Z" fill="#263238"/>
<path d="M57.3086 220.162C57.3086 220.162 55.8148 216.079 52.8272 216.179C49.8396 216.278 49.0433 221.058 50.8355 225.24C52.6277 229.423 56.9102 231.912 59.1008 233.207C61.2915 234.501 66.1713 237.588 66.9677 238.285C67.7646 238.982 68.1624 235.796 69.2578 233.207C70.3531 230.618 71.0506 222.552 68.6604 218.668C66.2702 214.784 61.3909 211.797 59.3992 213.39C57.4081 214.985 57.3086 220.162 57.3086 220.162Z" fill="#92E3A9" stroke="#263238" stroke-width="0.641667" stroke-miterlimit="10" stroke-linecap="round" stroke-linejoin="round"/>
<path d="M57.9064 221.358C57.9064 221.358 57.508 222.453 59.7987 225.241C62.0888 228.029 65.7733 230.917 66.1717 234.005" stroke="#263238" stroke-width="0.641667" stroke-miterlimit="10" stroke-linecap="round" stroke-linejoin="round"/>
<path d="M58.8027 221.059C58.8027 221.059 65.9727 219.963 67.9638 220.959" stroke="#263238" stroke-width="0.641667" stroke-miterlimit="10" stroke-linecap="round" stroke-linejoin="round"/>
<path d="M57.7062 222.552C57.7062 222.552 55.0176 224.942 54.6191 227.332" stroke="#263238" stroke-width="0.641667" stroke-miterlimit="10" stroke-linecap="round" stroke-linejoin="round"/>
<path d="M60.3958 226.237C60.3958 226.237 59.4993 228.626 59.6989 230.32" stroke="#263238" stroke-width="0.641667" stroke-miterlimit="10" stroke-linecap="round" stroke-linejoin="round"/>
<path d="M62.8857 228.229C62.8857 228.229 66.6697 228.527 67.3665 230.22" stroke="#263238" stroke-width="0.641667" stroke-miterlimit="10" stroke-linecap="round" stroke-linejoin="round"/>
<path d="M47.0534 220.561C47.0534 220.561 49.6425 219.267 48.2482 217.573C46.8538 215.881 44.3648 216.578 41.9746 217.374C39.585 218.171 39.7839 218.968 33.2113 219.067C26.6387 219.167 24.3486 220.361 24.3486 220.361C24.3486 220.361 27.7341 220.361 29.8253 221.955C31.9165 223.548 42.6714 225.34 45.36 225.739C48.0486 226.137 51.7331 224.643 52.1315 222.453C52.53 220.262 47.0534 220.561 47.0534 220.561Z" fill="#92E3A9" stroke="#263238" stroke-width="0.641667" stroke-miterlimit="10" stroke-linecap="round" stroke-linejoin="round"/>
<path d="M29.0293 220.462C29.0293 220.462 29.9257 220.86 35.5018 221.358C41.0785 221.856 45.8583 220.96 45.8583 220.96C45.8583 220.96 43.1421 219.782 41.1427 219.348" stroke="#263238" stroke-width="0.641667" stroke-miterlimit="10" stroke-linecap="round" stroke-linejoin="round"/>
<path d="M36.9698 220.217C36.9698 220.217 40.0992 220.913 41.4903 221.608C41.4903 221.608 38.7087 222.652 36.0137 222.391" stroke="#263238" stroke-width="0.641667" stroke-miterlimit="10" stroke-linecap="round" stroke-linejoin="round"/>
<path d="M45.8577 220.959C45.8577 220.959 44.6192 223.259 43.4893 223.694" stroke="#263238" stroke-width="0.641667" stroke-miterlimit="10" stroke-linecap="round" stroke-linejoin="round"/>
<path d="M38.3741 243.488H67.4647C67.4647 243.488 71.0266 253.462 69.6021 260.111C68.1769 266.76 63.428 273.529 63.428 273.529H43.1237C43.1237 273.529 36.2373 266.048 36.1186 257.618C35.9993 249.188 38.3741 243.488 38.3741 243.488Z" fill="#263238" stroke="#263238" stroke-width="0.641667" stroke-miterlimit="10" stroke-linecap="round" stroke-linejoin="round"/>
<path d="M245.882 272.037C259.336 270.432 268.941 258.223 267.335 244.77C265.73 231.316 253.521 221.711 240.068 223.316C226.614 224.922 217.009 237.13 218.614 250.584C220.22 264.038 232.428 273.643 245.882 272.037Z" fill="white" stroke="#263238" stroke-width="0.641667" stroke-miterlimit="10"/>
<path d="M244.338 251.761L248.701 255.205" stroke="#263238" stroke-width="0.641667" stroke-miterlimit="10"/>
<path d="M232.854 232.241C232.854 232.241 233.544 229.027 234.002 228.337" stroke="#263238" stroke-width="0.641667" stroke-miterlimit="10"/>
<path d="M231.018 254.746L230.559 256.812" stroke="#263238" stroke-width="0.641667" stroke-miterlimit="10"/>
<path d="M223.67 243.494L219.995 244.871" stroke="#263238" stroke-width="0.641667" stroke-miterlimit="10"/>
<path d="M245.256 237.982C245.256 237.982 250.537 236.604 253.064 236.604" stroke="#263238" stroke-width="0.641667" stroke-miterlimit="10"/>
<path d="M261.645 231.761L257.391 236.775L263.528 246.717L267.421 245.769C267.014 240.443 264.91 235.595 261.645 231.761Z" fill="#263238" stroke="#263238" stroke-width="0.641667" stroke-miterlimit="10"/>
<path d="M232.93 234.341L225.414 243.198L231.516 253.084L242.803 250.336L243.677 238.751L232.93 234.341Z" fill="#263238" stroke="#263238" stroke-width="0.641667" stroke-miterlimit="10"/>
<path d="M230.25 258.292L221.11 258.793C223.687 263.842 227.958 267.879 233.178 270.154L234.438 269.128L230.25 258.292Z" fill="#263238" stroke="#263238" stroke-width="0.641667" stroke-miterlimit="10"/>
<path d="M264.188 259.96L261.357 254.948L249.972 257.256L248.648 268.797L252.163 270.402C257.238 268.348 261.466 264.647 264.188 259.96Z" fill="#263238" stroke="#263238" stroke-width="0.641667" stroke-miterlimit="10"/>
<path d="M245.249 223.236C244.497 223.166 243.737 223.126 242.967 223.126C239.496 223.126 236.195 223.852 233.202 225.152L233.935 226.339L245.223 223.59L245.249 223.236Z" fill="#263238" stroke="#263238" stroke-width="0.641667" stroke-miterlimit="10"/>
<path d="M115.333 243.974L113.229 260.099L129.121 261.734L131.692 242.337L115.333 243.974Z" fill="white" stroke="#263238" stroke-width="0.641667" stroke-miterlimit="10"/>
<path d="M109.022 261.033C109.022 261.033 106.685 265.474 102.478 268.511C98.2721 271.549 94.0653 277.625 95.4674 280.897C96.8694 284.168 99.6741 287.206 105.984 286.973C112.293 286.739 120.472 284.169 122.109 281.13C123.744 278.092 126.316 275.288 128.185 275.054C130.055 274.821 132.157 272.016 132.157 268.043C132.157 264.071 131.456 256.359 131.456 255.424C131.456 254.489 132.157 250.983 130.755 250.983C129.353 250.983 128.184 251.685 126.548 254.489C124.912 257.293 124.912 257.293 124.912 257.293C124.912 257.293 123.042 253.087 119.303 252.152C115.564 251.217 112.526 251.451 110.89 254.956C109.256 258.463 109.022 261.033 109.022 261.033Z" fill="#89987A" stroke="#263238" stroke-width="0.641667" stroke-miterlimit="10"/>
<path d="M127.717 270.148C124.913 270.381 124.445 272.952 121.407 279.028C119.277 283.29 112.638 284.529 108.254 283.432C104.72 282.548 103.178 279.395 100.375 277.393C97.3069 275.201 96.4997 281.846 96.4111 282.682C98.0365 285.188 100.85 287.164 105.984 286.974C112.294 286.741 120.473 284.17 122.109 281.132C123.745 278.093 126.316 275.289 128.185 275.056C130.055 274.822 132.158 272.017 132.158 268.045C132.158 268.045 130.521 269.914 127.717 270.148Z" fill="white" stroke="#263238" stroke-width="0.641667" stroke-miterlimit="10"/>
<path d="M109.256 263.137C109.256 263.137 117.435 259.398 122.81 265.707L120.94 268.278C120.94 268.278 116.033 263.137 107.152 265.24L109.256 263.137Z" fill="white" stroke="#263238" stroke-width="0.641667" stroke-miterlimit="10"/>
<path d="M105.283 267.344C105.283 267.344 113.462 263.605 118.837 269.914L116.967 272.485C116.967 272.485 112.059 267.344 103.179 269.446L105.283 267.344Z" fill="white" stroke="#263238" stroke-width="0.641667" stroke-miterlimit="10"/>
<path d="M124.913 257.294L122.343 262.669" stroke="#263238" stroke-width="0.641667" stroke-miterlimit="10"/>
<path d="M119.304 252.153C117.601 251.727 116.045 251.549 114.699 251.807L113.228 257.061L119.771 257.762L121.037 252.878C120.512 252.568 119.937 252.311 119.304 252.153Z" fill="white" stroke="#263238" stroke-width="0.641667" stroke-miterlimit="10"/>
<path d="M194.605 243.974L196.708 260.099L180.817 261.734L178.246 242.337L194.605 243.974Z" fill="white" stroke="#263238" stroke-width="0.641667" stroke-miterlimit="10"/>
<path d="M200.915 261.033C200.915 261.033 203.252 265.473 207.458 268.511C211.665 271.549 215.871 277.625 214.469 280.896C213.067 284.168 210.262 287.206 203.953 286.972C197.643 286.739 189.464 284.168 187.828 281.13C186.192 278.091 183.621 275.287 181.752 275.054C179.883 274.82 177.779 272.015 177.779 268.043C177.779 264.07 178.481 256.358 178.481 255.423C178.481 254.488 177.779 250.983 179.182 250.983C180.584 250.983 181.753 251.684 183.389 254.488C185.024 257.292 185.024 257.292 185.024 257.292C185.024 257.292 186.894 253.086 190.633 252.151C194.372 251.216 197.41 251.45 199.046 254.955C200.681 258.462 200.915 261.033 200.915 261.033Z" fill="#89987A" stroke="#263238" stroke-width="0.641667" stroke-miterlimit="10"/>
<path d="M182.219 270.147C185.023 270.381 185.491 272.951 188.529 279.028C190.659 283.289 197.298 284.528 201.682 283.432C205.216 282.547 206.758 279.394 209.561 277.392C212.629 275.2 213.436 281.845 213.525 282.682C211.9 285.187 209.087 287.164 203.952 286.974C197.642 286.74 189.463 284.17 187.827 281.131C186.191 278.093 183.62 275.289 181.751 275.055C179.881 274.822 177.778 272.017 177.778 268.044C177.778 268.044 179.415 269.914 182.219 270.147Z" fill="white" stroke="#263238" stroke-width="0.641667" stroke-miterlimit="10"/>
<path d="M200.681 263.137C200.681 263.137 192.501 259.398 187.126 265.707L188.996 268.278C188.996 268.278 193.903 263.137 202.784 265.24L200.681 263.137Z" fill="white" stroke="#263238" stroke-width="0.641667" stroke-miterlimit="10"/>
<path d="M204.654 267.343C204.654 267.343 196.474 263.604 191.1 269.914L192.969 272.484C192.969 272.484 197.877 267.343 206.758 269.446L204.654 267.343Z" fill="white" stroke="#263238" stroke-width="0.641667" stroke-miterlimit="10"/>
<path d="M185.023 257.294L187.594 262.669" stroke="#263238" stroke-width="0.641667" stroke-miterlimit="10"/>
<path d="M190.632 252.153C192.335 251.727 193.891 251.549 195.237 251.807L196.708 257.061L190.164 257.762L188.898 252.878C189.424 252.568 189.998 252.311 190.632 252.153Z" fill="white" stroke="#263238" stroke-width="0.641667" stroke-miterlimit="10"/>
<path d="M125.634 125.513L120.197 151.854L112.649 247.33L132.773 248.155L155.497 167.445L177.374 246.962L196.764 245.793L193.053 157.03L191.107 137.389L125.634 125.513Z" fill="#263238" stroke="#263238" stroke-width="0.641667" stroke-miterlimit="10"/>
<path d="M145.516 162.981L149.48 164.667" stroke="#757575" stroke-width="0.641667" stroke-miterlimit="10"/>
<path d="M131.225 156.908L142.223 161.582" stroke="#757575" stroke-width="0.641667" stroke-miterlimit="10"/>
<path d="M128.943 162.384L148.112 167.862" stroke="#757575" stroke-width="0.641667" stroke-miterlimit="10"/>
<path d="M185.991 154.626L158.151 164.667" stroke="#757575" stroke-width="0.641667" stroke-miterlimit="10"/>
<path d="M184.391 160.821L188.73 159.646" stroke="#757575" stroke-width="0.641667" stroke-miterlimit="10"/>
<path d="M166.824 165.579L181.121 161.707" stroke="#757575" stroke-width="0.641667" stroke-miterlimit="10"/>
<path d="M209.368 84.4419C209.368 84.4419 219.706 92.7245 220.59 95.3759C221.474 98.0273 206.57 119.1 203.388 122.547C200.206 125.994 195.434 129.706 195.434 129.706L197.024 132.622C197.024 132.622 199.676 131.561 199.411 134.743C199.146 137.925 194.904 140.311 191.457 140.046C188.01 139.781 184.298 134.213 185.358 130.501C186.419 126.789 201.159 101.541 201.159 101.541L209.368 84.4419Z" fill="#FFA480" stroke="#263238" stroke-width="0.641667" stroke-miterlimit="10"/>
<path d="M197.024 132.622C197.024 132.622 197.82 134.477 196.494 136.334L197.024 132.622Z" fill="white"/>
<path d="M197.024 132.622C197.024 132.622 197.82 134.477 196.494 136.334" stroke="#263238" stroke-width="0.641667" stroke-miterlimit="10"/>
<path d="M95.5651 55.8382C95.5651 55.8382 91.6265 80.6797 91.0208 86.4361C90.415 92.1925 94.3529 95.2218 98.8972 96.4333C103.442 97.6454 117.983 91.2832 117.983 91.2832L109.5 72.5004L104.653 73.409L105.324 49.4414L95.5651 55.8382Z" fill="#FFA480" stroke="#263238" stroke-width="0.641667" stroke-miterlimit="10"/>
<path d="M104.654 73.4087L104.919 83.5778" stroke="#263238" stroke-width="0.641667" stroke-miterlimit="10"/>
<path d="M102.577 54.8354C102.344 55.0671 98.4008 58.0836 96.1582 56.8458C93.9155 55.6086 93.1423 50.8911 92.4461 49.1124C91.7499 47.3337 92.91 45.9419 92.91 45.9419L99.174 36.3528C99.174 36.3528 95.0096 27.3111 94.9204 26.0676C94.8434 24.9851 96.0805 23.8249 97.6269 26.2222C99.1734 28.6195 105.437 40.6065 105.824 42.7714C106.211 44.9371 106.675 46.0966 106.211 47.6436" fill="#FFA480"/>
<path d="M102.577 54.8354C102.344 55.0671 98.4008 58.0836 96.1582 56.8458C93.9155 55.6086 93.1423 50.8911 92.4461 49.1124C91.7499 47.3337 92.91 45.9419 92.91 45.9419L99.174 36.3528C99.174 36.3528 95.0096 27.3111 94.9204 26.0676C94.8434 24.9851 96.0805 23.8249 97.6269 26.2222C99.1734 28.6195 105.437 40.6065 105.824 42.7714C106.211 44.9371 106.675 46.0966 106.211 47.6436" stroke="#263238" stroke-width="0.641667" stroke-miterlimit="10"/>
<path d="M100.643 37.8992C100.643 37.8992 98.787 34.1095 97.4728 33.8779C96.1581 33.6456 93.9931 35.038 94.6116 36.8937C95.2302 38.7501 98.8653 41.379 99.6385 41.9205C100.412 42.4621 100.876 41.8435 101.108 40.6834C101.34 39.5233 100.643 37.8992 100.643 37.8992Z" fill="#FFA480" stroke="#263238" stroke-width="0.641667" stroke-miterlimit="10"/>
<path d="M95.9268 38.9046C95.9268 38.9046 93.0656 38.0537 92.6787 39.9101C92.2917 41.7664 94.5344 43.2352 94.5344 43.2352C94.5344 43.2352 99.4065 47.6435 100.489 46.715C101.572 45.7871 101.262 44.627 100.412 43.6215C99.5618 42.6166 95.9268 38.9046 95.9268 38.9046Z" fill="#FFA480" stroke="#263238" stroke-width="0.641667" stroke-miterlimit="10"/>
<path d="M93.6836 42.7715C93.6836 42.7715 92.0596 43.1584 92.0596 45.2464C92.0596 47.3344 93.2967 47.8759 95.153 48.2622C97.0094 48.6492 99.329 49.0354 99.4837 48.0299C99.6383 47.0245 97.0087 45.4004 95.7716 44.3179C94.5345 43.2354 93.6836 42.7715 93.6836 42.7715Z" fill="#FFA480" stroke="#263238" stroke-width="0.641667" stroke-miterlimit="10"/>
<path d="M104.898 53.3865C104.898 53.3865 107.405 47.4575 106.574 45.3194C105.742 43.1814 104.317 43.0627 102.773 40.8059C101.229 38.5492 100.635 35.9357 99.2095 38.4305C97.7843 40.9246 99.4469 43.6569 100.635 44.4885C101.822 45.3201 102.179 46.033 102.179 46.033C102.179 46.033 99.5656 46.8646 99.3282 49.3587C99.0908 51.8529 99.803 53.6348 101.704 53.9909" fill="#FFA480"/>
<path d="M104.898 53.3865C104.898 53.3865 107.405 47.4575 106.574 45.3194C105.742 43.1814 104.317 43.0627 102.773 40.8059C101.229 38.5492 100.635 35.9357 99.2095 38.4305C97.7843 40.9246 99.4469 43.6569 100.635 44.4885C101.822 45.3201 102.179 46.033 102.179 46.033C102.179 46.033 99.5656 46.8646 99.3282 49.3587C99.0908 51.8529 99.803 53.6348 101.704 53.9909" stroke="#263238" stroke-width="0.641667" stroke-miterlimit="10"/>
<path d="M200.476 73.8858C195.069 69.6836 186.928 61.9252 184.233 61.4356C180.422 60.7426 159.462 52.0454 159.462 52.0454C159.462 52.0454 133.242 60.9562 131.163 61.6492C129.084 62.3422 104.652 73.4091 104.652 73.4091L115.414 100.201L128.755 95.7333L122.353 127.243L120.457 148.96L192.325 149.569L191.265 126.37L186.032 97.4446L197.052 109.246C197.052 109.246 204.351 101.031 208.46 96.5765C214.028 90.541 215.38 85.3056 213.678 85.8882L200.476 73.8858Z" fill="#89987A" stroke="#263238" stroke-width="0.641667" stroke-miterlimit="10"/>
<path d="M127.321 102.798L126.166 108.481H188.029L187.001 102.798H127.321Z" fill="#263238" stroke="#263238" stroke-width="0.641667" stroke-miterlimit="10"/>
<path d="M184.988 89.6313H129.228V94.3739H184.988V89.6313Z" fill="#263238" stroke="#263238" stroke-width="0.641667" stroke-miterlimit="10"/>
<path d="M183.608 75.9946H129.228V80.7372H183.608V75.9946Z" fill="#263238" stroke="#263238" stroke-width="0.641667" stroke-miterlimit="10"/>
<path d="M126.29 96.231L117.486 68.0933L112.825 70.5098L123.7 96.9214L126.29 96.231Z" fill="#263238" stroke="#263238" stroke-width="0.641667" stroke-miterlimit="10"/>
<path d="M189.999 119.369H123.953L122.798 125.052H191.028L189.999 119.369Z" fill="#263238" stroke="#263238" stroke-width="0.641667" stroke-miterlimit="10"/>
<path d="M121.099 141.625H191.309V135.942H121.595L121.099 141.625Z" fill="#263238" stroke="#263238" stroke-width="0.641667" stroke-miterlimit="10"/>
<path d="M191.308 103.094V102.798H191.031L191.308 103.094Z" fill="#263238" stroke="#263238" stroke-width="0.641667" stroke-miterlimit="10"/>
<path d="M182.571 62.3572L186.032 97.4436L186.364 62.7409L184.233 61.4345C184.016 61.3953 183.738 61.3267 183.418 61.2388C183.041 61.2676 182.657 61.5128 182.571 62.3572Z" fill="#263238" stroke="#263238" stroke-width="0.641667" stroke-miterlimit="10"/>
<path d="M107.647 72.2358L104.653 73.4088L115.415 100.201L119.041 97.9571L107.647 72.2358Z" fill="#263238" stroke="#263238" stroke-width="0.641667" stroke-miterlimit="10"/>
<path d="M207.943 80.6943L193.96 105.898L197.052 109.245L212.258 84.8376L207.943 80.6943Z" fill="#263238" stroke="#263238" stroke-width="0.641667" stroke-miterlimit="10"/>
<path d="M197.192 71.2118L193.787 68.4385L187.745 99.166L189.989 101.41L200.475 73.8856C199.46 73.0957 198.347 72.1807 197.192 71.2118Z" fill="#263238" stroke="#263238" stroke-width="0.641667" stroke-miterlimit="10"/>
<path d="M122.666 65.8487L128.757 95.733L128.19 63.0869L122.666 65.8487Z" fill="#263238" stroke="#263238" stroke-width="0.641667" stroke-miterlimit="10"/>
<path d="M129.228 62.4389V67.0993H182.572V62.3574H129.418C129.358 62.3831 129.289 62.4126 129.228 62.4389Z" fill="#263238" stroke="#263238" stroke-width="0.641667" stroke-miterlimit="10"/>
<path d="M159.462 70.7539C167.433 70.7539 173.896 66.5658 173.896 61.3996C173.896 56.2334 167.433 52.0454 159.462 52.0454C151.49 52.0454 145.027 56.2334 145.027 61.3996C145.027 66.5658 151.49 70.7539 159.462 70.7539Z" fill="#263238" stroke="#263238" stroke-width="0.641667" stroke-miterlimit="10"/>
<path d="M149.881 48.4969L148.55 57.2415C148.55 57.2415 148.484 66.3198 158.417 67.6648C165.872 68.6741 170.77 63.4952 171.069 61.3989C171.369 59.3025 170.547 46.3999 170.547 46.3999L149.881 48.4969Z" fill="#FFA480" stroke="#263238" stroke-width="0.641667" stroke-miterlimit="10"/>
<path d="M153.025 65.0928L163.705 55.8104L148.806 53.1372L148.454 58.4117C148.454 58.4117 150.212 63.5104 153.025 65.0928Z" fill="#263238" stroke="#263238" stroke-width="0.641667" stroke-miterlimit="10"/>
<path d="M151.383 2.87862C151.383 2.87862 141.577 8.5362 139.816 15.703C138.056 22.8698 139.942 35.9457 139.942 35.9457C139.942 35.9457 138.056 34.0598 137.05 36.5745C136.044 39.0892 136.295 43.364 137.804 44.7468C139.313 46.1296 141.702 44.8725 141.702 44.8725C141.702 44.8725 143.085 50.5301 146.983 52.7933C150.88 55.0564 156.664 58.0742 163.705 55.811C170.746 53.5479 173.763 51.4105 175.272 48.5185C176.78 45.6265 177.409 42.7351 177.409 42.7351C177.409 42.7351 179.295 45.1241 182.439 42.7351C185.582 40.3462 185.331 33.5567 183.821 32.5512C182.313 31.5457 181.055 31.5457 181.055 31.5457C181.055 31.5457 182.187 22.4931 180.301 17.0871C178.415 11.681 175.9 7.65711 169.236 4.38846C162.573 1.11788 156.413 -0.516444 151.383 2.87862Z" fill="#FFA480"/>
<path d="M208.033 82.2926C213.071 81.7725 217.926 79.3025 221.801 75.429C228.959 75.429 234.175 73.2546 237.689 70.1161C241.339 66.8577 243.732 61.2078 241.247 56.716C240.822 55.9472 240.339 55.3943 239.771 55.0246C237.835 53.788 235.316 54.8937 233.744 56.2252C228.235 60.9008 227.506 68.3783 221.456 74.5849C214.036 74.4281 204.76 71.538 200.276 65.2414C199.404 64.0179 198.708 62.585 197.971 61.0703C196.702 58.4629 195.389 55.7639 193.086 54.0987C192.223 53.4771 191.235 53.0911 190.282 52.7148C186.542 51.2583 181.646 47.3552 177.304 47.6309C177.126 47.3672 176.695 47.3863 176.568 47.7159C176.468 47.7323 176.367 47.7519 176.267 47.7748C175.718 47.902 175.923 48.728 176.453 48.5926C176.54 48.573 176.627 48.5534 176.713 48.5403C177.323 51.174 176.237 54.0666 175.714 56.7975C175.073 60.1116 175.742 64.021 178.679 65.2773C179.921 65.8039 181.274 65.7255 182.579 65.6535C186.381 65.4461 187.55 65.9247 189.245 70.6622C189.41 71.1235 189.573 71.5847 189.75 72.0263C192.47 78.7946 200.459 83.1049 208.033 82.2926ZM220.632 75.3963C216.995 78.8118 212.548 80.984 207.948 81.4616C200.556 82.201 193.066 78.0363 190.529 71.7125C189.583 69.3745 189.007 66.4753 186.605 65.2873C184.156 64.0757 181.245 65.4741 179.01 64.5054C176.499 63.4357 175.958 59.9417 176.535 56.9548C176.664 56.2939 176.823 55.6233 176.983 54.9559C177.494 52.8098 178.02 50.6016 177.554 48.4587C180.924 48.4587 184.922 50.8893 187.858 52.5514C189.384 53.4007 191.241 53.8027 192.595 54.7793C195.98 57.2251 197.154 62.2954 199.593 65.7257C204.074 72.018 213.131 75.051 220.632 75.3963ZM239.317 55.7313C239.767 56.0192 240.158 56.4739 240.514 57.1217C244.183 63.7572 237.091 74.3494 222.604 74.5882C228.238 68.4536 229.115 61.2533 234.287 56.8665C235.671 55.6905 237.793 54.7449 239.317 55.7313Z" fill="#3D4047"/>
<path d="M166.665 35.6157L180.48 41.5455C180.48 41.5455 184.493 44.4424 182.84 47.4146C179.35 53.6874 175.614 50.6868 173.141 46.8602L172.611 44.2699L166.194 42.6288L166.665 35.6157Z" fill="#272C30"/>
<path d="M164.06 37.2759L178.483 42.8686C178.483 42.8686 181.486 45.7533 180.132 48.8735C178.778 51.9937 173.008 52.3469 170.536 48.5203L170.006 45.93L163.344 42.8991L164.06 37.2759Z" fill="#3D4047"/>
<path d="M190.319 33.9726C197.122 29.5169 203.822 24.7372 210.232 19.7645C210.664 19.4332 210.169 18.7607 209.719 19.1036C203.326 24.06 196.644 28.8298 189.861 33.2725C189.395 33.5779 189.859 34.2722 190.319 33.9726Z" fill="#3D4047"/>
<path d="M197.315 36.4365C205.721 32.0494 213.998 27.2043 221.917 22.0452C222.372 21.752 221.937 21.0425 221.459 21.3451C213.563 26.4879 205.309 31.3166 196.926 35.6972C196.437 35.9478 196.822 36.696 197.315 36.4365Z" fill="#3D4047"/>
<path d="M198.587 43.9283C201.526 43.3919 207.949 41.7268 218.848 41.0362C219.378 40.9986 219.373 40.1987 218.795 40.1987C211.987 40.6306 205.158 41.6088 198.496 43.1006C198.27 43.1529 198.128 43.3753 198.178 43.6011C198.222 43.7974 198.396 43.9283 198.587 43.9283Z" fill="#3D4047"/>
<path d="M144.319 9.38225C144.431 8.70016 144.883 7.98277 145.498 7.28271C143.059 9.52406 140.612 12.4571 139.815 15.702C138.456 21.2358 139.27 30.2871 139.712 34.1275C140.823 32.1576 139.591 26.0412 140.168 24.0206C141.042 20.9618 143.838 12.3076 144.319 9.38225Z" fill="#737373"/>
<path d="M151.382 2.87869C151.382 2.87869 157.21 5.44985 159.395 5.01288C161.58 4.5759 166.623 4.85375 169.236 4.38725C162.572 1.11796 156.411 -0.516369 151.382 2.87869Z" fill="#737373"/>
<path d="M181.39 25.8594C181.409 23.0149 181.192 19.6429 180.3 17.0859C179.488 14.7573 178.557 12.6866 177.23 10.8213C177.058 12.4684 177.015 13.3783 177.966 15.2815C178.649 16.647 180.269 22.019 181.39 25.8594Z" fill="#737373"/>
<path d="M151.383 2.87862C151.383 2.87862 141.577 8.5362 139.816 15.703C138.056 22.8698 139.942 35.9457 139.942 35.9457C139.942 35.9457 138.056 34.0598 137.05 36.5745C136.044 39.0892 136.295 43.364 137.804 44.7468C139.313 46.1296 141.702 44.8725 141.702 44.8725C141.702 44.8725 143.085 50.5301 146.983 52.7933C150.88 55.0564 156.664 58.0742 163.705 55.811C170.746 53.5479 173.763 51.4105 175.272 48.5185C176.78 45.6265 177.409 42.7351 177.409 42.7351C177.409 42.7351 179.295 45.1241 182.439 42.7351C185.582 40.3462 185.331 33.5567 183.821 32.5512C182.313 31.5457 181.055 31.5457 181.055 31.5457C181.055 31.5457 182.187 22.4931 180.301 17.0871C178.415 11.681 175.9 7.65711 169.236 4.38846C162.573 1.11788 156.413 -0.516444 151.383 2.87862Z" stroke="#263238" stroke-width="0.641667" stroke-miterlimit="10"/>
<path d="M161.316 28.2758C161.316 28.2758 160.31 26.2642 157.544 26.3899C154.778 26.5157 154.652 29.4077 154.652 29.4077" stroke="#263238" stroke-width="0.641667" stroke-miterlimit="10"/>
<path d="M161.407 40.163C162.483 40.163 163.355 39.206 163.355 38.0256C163.355 36.8451 162.483 35.8882 161.407 35.8882C160.331 35.8882 159.458 36.8451 159.458 38.0256C159.458 39.206 160.331 40.163 161.407 40.163Z" fill="#263238" stroke="#263238" stroke-width="0.641667" stroke-miterlimit="10"/>
<path d="M150.503 24.8808C150.503 26.1308 149.659 27.144 148.617 27.144C147.576 27.144 146.731 26.1308 146.731 24.8808C146.731 23.6309 147.576 22.6177 148.617 22.6177C149.659 22.6177 150.503 23.6309 150.503 24.8808Z" fill="#263238"/>
<path d="M169.362 24.001C169.362 25.2509 168.517 26.2641 167.476 26.2641C166.434 26.2641 165.59 25.2509 165.59 24.001C165.59 22.751 166.434 21.7378 167.476 21.7378C168.517 21.7378 169.362 22.751 169.362 24.001Z" fill="#263238"/>
<path d="M146.361 30.036C151.217 30.036 155.154 26.3771 155.154 21.8637C155.154 17.3503 151.217 13.6914 146.361 13.6914C141.504 13.6914 137.567 17.3503 137.567 21.8637C137.567 26.3771 141.504 30.036 146.361 30.036Z" stroke="#263238" stroke-width="1.28333" stroke-miterlimit="10"/>
<path d="M170.176 30.036C175.033 30.036 178.97 26.3771 178.97 21.8637C178.97 17.3503 175.033 13.6914 170.176 13.6914C165.319 13.6914 161.382 17.3503 161.382 21.8637C161.382 26.3771 165.319 30.036 170.176 30.036Z" stroke="#263238" stroke-width="1.28333" stroke-miterlimit="10"/>
<path d="M154.526 18.4011C154.526 18.4011 158.421 15.3262 162.165 18.5108" stroke="#263238" stroke-width="1.28333" stroke-miterlimit="10"/>
<path d="M139.815 33.9333C137.049 29.5328 135.918 20.8574 135.918 20.8574H137.301" stroke="#263238" stroke-width="1.28333" stroke-miterlimit="10"/>
<path d="M180.694 20.3421L178.791 20.2285L181.951 20.3421C181.951 20.3421 181.432 27.5211 181.055 31.5443" stroke="#263238" stroke-width="1.28333" stroke-miterlimit="10"/>
<path d="M162.95 12.8109C162.95 12.8109 168.734 9.29075 173.637 13.0625" stroke="#263238" stroke-width="1.925" stroke-miterlimit="10" stroke-linecap="round"/>
<path d="M153.142 13.9422C153.142 13.9422 147.862 8.91281 143.838 12.3079" stroke="#263238" stroke-width="1.925" stroke-miterlimit="10" stroke-linecap="round"/>
<path d="M135.982 244.885L110.83 242.462L110.022 250.846L135.174 253.269L135.982 244.885Z" fill="#A1A1A1" stroke="#263238" stroke-width="0.641667" stroke-miterlimit="10"/>
<path d="M176.205 253.268L201.357 250.845L200.55 242.461L175.398 244.884L176.205 253.268Z" fill="#A1A1A1" stroke="#263238" stroke-width="0.641667" stroke-miterlimit="10"/>
</svg>
