<svg width="20" height="20" viewBox="0 0 20 20" fill="none" xmlns="http://www.w3.org/2000/svg">
<rect x="14.6299" y="1.54322" width="19.6686" height="2.14555" rx="1.07277" transform="rotate(114 14.6299 1.54322)" fill="#C9C7C5" stroke="white" stroke-width="0.5"/>
<path fill-rule="evenodd" clip-rule="evenodd" d="M0 10C0 6.13401 3.13401 3 7 3H13C16.866 3 20 6.13401 20 10C20 13.866 16.866 17 13 17H7C3.13401 17 0 13.866 0 10ZM10 6C7.79086 6 6 7.79086 6 10C6 12.2091 7.79086 14 10 14C12.2091 14 14 12.2091 14 10C14 7.79086 12.2091 6 10 6Z" fill="#C9C7C5"/>
</svg>
