<svg width="18" height="18" viewBox="0 0 18 18" fill="none" xmlns="http://www.w3.org/2000/svg">
<path d="M9 11.1876C10.1631 11.1876 11.1094 10.2413 11.1094 9.07819C11.1094 7.91508 10.1631 6.96881 9 6.96881C7.83689 6.96881 6.89062 7.91508 6.89062 9.07819C6.89062 10.2413 7.83689 11.1876 9 11.1876ZM9 8.37506C9.3877 8.37506 9.70312 8.69048 9.70312 9.07819C9.70312 9.46589 9.3877 9.78131 9 9.78131C8.6123 9.78131 8.29688 9.46589 8.29688 9.07819C8.29688 8.69048 8.6123 8.37506 9 8.37506Z" fill="#7A869A"/>
<path d="M14.4844 4.15631H3.51562C1.57707 4.15631 0 5.73342 0 7.67194V10.4844C0 12.423 1.57707 14.0001 3.51562 14.0001H14.4844C16.4229 14.0001 18 12.423 18 10.4844V7.67194C18 5.73342 16.4229 4.15631 14.4844 4.15631ZM16.5938 10.4844C16.5938 11.6475 15.6475 12.5938 14.4844 12.5938H3.51562C2.35252 12.5938 1.40625 11.6475 1.40625 10.4844V7.67194C1.40625 6.50883 2.35252 5.56256 3.51562 5.56256H14.4844C15.6475 5.56256 16.5938 6.50883 16.5938 7.67194V10.4844Z" fill="#7A869A"/>
<path d="M13.0781 6.96881C12.6898 6.96881 12.375 7.2836 12.375 7.67194C12.375 8.06027 12.6898 8.37506 13.0781 8.37506C13.4658 8.37506 13.7812 8.69048 13.7812 9.07819C13.7812 9.46589 13.4658 9.78131 13.0781 9.78131C12.6898 9.78131 12.375 10.0961 12.375 10.4844C12.375 10.8728 12.6898 11.1876 13.0781 11.1876C14.2412 11.1876 15.1875 10.2413 15.1875 9.07819C15.1875 7.91508 14.2412 6.96881 13.0781 6.96881Z" fill="#7A869A"/>
<path d="M4.92188 8.37506C5.31021 8.37506 5.625 8.06027 5.625 7.67194C5.625 7.2836 5.31021 6.96881 4.92188 6.96881C3.75877 6.96881 2.8125 7.91508 2.8125 9.07819C2.8125 10.2413 3.75877 11.1876 4.92188 11.1876C5.31021 11.1876 5.625 10.8728 5.625 10.4844C5.625 10.0961 5.31021 9.78131 4.92188 9.78131C4.53417 9.78131 4.21875 9.46589 4.21875 9.07819C4.21875 8.69048 4.53417 8.37506 4.92188 8.37506Z" fill="#7A869A"/>
</svg>
