<svg xmlns="http://www.w3.org/2000/svg" fill="none" viewBox="0 47.088 145.76300578034682 171.78400000000002" style="max-height: 500px" width="145.76300578034682" height="171.78400000000002">
<g clip-path="url(#clip0_3933_1542)">
<path fill="#EA9D7D" d="M74.6962 161.309L60.4884 207.582L56.3208 218.348C56.3208 218.348 62.3828 226.091 76.7799 229.113C86.6306 231.191 93.2609 231.38 97.618 231.002C101.217 230.624 105.574 229.869 103.301 223.258C100.081 213.437 101.217 207.204 101.217 207.204L106.332 179.44L74.6962 161.309Z" data-darkreader-inline-fill="" style="--darkreader-inline-fill: var(--darkreader-background-ea9d7d, #7a3214);"/>
<path fill="url(#paint0_linear_3933_1542)" d="M72.4234 186.24C77.1593 193.417 85.4946 199.461 90.2305 201.727C96.8607 204.938 101.597 205.693 101.597 205.693L105.764 182.651L74.6967 161.309L72.9917 164.52L71.6657 169.808C71.4762 169.997 68.0664 179.629 72.4234 186.24Z"/>
<path fill="#EA9D7D" d="M127.36 126.179C129.444 130.146 128.875 136.945 128.875 139.211C128.686 146.389 128.117 156.021 126.791 163.576C124.708 174.908 119.025 180.574 112.963 182.463C106.901 184.351 96.671 180.574 89.283 176.797C83.0316 173.586 79.4323 170.186 78.4851 166.22C77.5379 162.065 75.6436 156.776 75.6436 156.776L79.0534 147.711C79.0534 147.711 84.7365 126.935 94.0189 120.324C105.006 112.581 116.562 121.08 116.562 121.08C116.562 121.08 123.571 119.191 127.36 126.179Z" data-darkreader-inline-fill="" style="--darkreader-inline-fill: var(--darkreader-background-ea9d7d, #7a3214);"/>
<path fill="#CF7653" d="M57.4581 218.726H57.2687C57.0947 218.637 56.9491 218.502 56.8487 218.335C56.7482 218.168 56.6968 217.976 56.7004 217.781L65.6039 190.584C67.3088 184.918 72.4236 165.842 72.4236 165.842C72.5123 165.669 72.6482 165.523 72.8157 165.423C72.9832 165.323 73.1755 165.272 73.3708 165.275C73.5447 165.364 73.6903 165.499 73.7908 165.666C73.8913 165.833 73.9426 166.025 73.9391 166.22L67.1194 190.962C65.6039 196.061 58.2158 217.97 58.2158 217.97C58.2158 218.537 57.837 218.726 57.4581 218.726Z" data-darkreader-inline-fill="" style="--darkreader-inline-fill: var(--darkreader-background-cf7653, #8f4528);"/>
<path fill="#B76349" d="M107.469 183.596C105.385 183.596 103.68 183.218 99.8917 182.274C93.8298 180.763 85.3051 176.041 80.9481 171.886C76.7805 167.731 77.1594 163.765 77.1594 163.576C77.1594 163.198 77.1594 162.631 77.5383 162.631C77.9171 162.631 78.1066 163.009 78.296 163.387C78.4854 164.142 78.4854 167.353 81.8953 170.753C85.8734 174.719 94.3981 179.252 100.081 180.763C105.954 182.085 107.09 182.463 111.447 182.085C115.615 181.707 117.699 180.196 117.699 180.196C118.457 179.63 118.646 179.63 118.267 180.196C117.888 180.574 115.804 182.652 111.637 183.407C109.932 183.596 108.795 183.596 107.469 183.596Z" data-darkreader-inline-fill="" style="--darkreader-inline-fill: var(--darkreader-background-b76349, #924e3a);"/>
<path fill="#A84D3B" d="M80.0005 172.264L80.3794 173.208L81.1371 172.452L80.0005 172.264Z" data-darkreader-inline-fill="" style="--darkreader-inline-fill: var(--darkreader-text-a84d3b, #c87464);"/>
<path fill="#A84D3B" d="M79.9999 171.131L79.4316 172.83L81.5154 172.453L79.9999 171.131ZM90.0401 178.308V180.385L92.1239 179.441L90.0401 178.308ZM84.9253 175.097L84.7358 177.174L86.8197 176.419L84.9253 175.097ZM82.0837 173.019L81.7049 175.097L83.9781 174.53L82.0837 173.019Z" data-darkreader-inline-fill="" style="--darkreader-inline-fill: var(--darkreader-text-a84d3b, #c87464);"/>
<path fill="#A84D3B" d="M78.6741 169.242L77.9163 171.13H80.1896L78.6741 169.242ZM92.8818 182.84L91.9346 181.707L91.1769 183.029L92.8818 182.84ZM90.2297 180.763L89.0931 179.252L88.5248 180.952L90.2297 180.763ZM97.9966 184.729L96.6705 183.407L96.2917 184.918L97.9966 184.729ZM103.68 186.807L102.354 185.296L101.785 186.996L103.68 186.807ZM93.6396 180.007L92.5029 179.441V181.141L93.6396 180.007ZM96.2917 185.862L95.3445 184.918L94.7762 186.24L96.2917 185.862ZM88.9037 178.308L87.767 177.552L87.5776 179.252L88.9037 178.308ZM98.9438 182.274L97.0494 181.518L97.2388 183.785L98.9438 182.274ZM102.543 182.84L101.028 182.652L101.406 184.351L102.543 182.84ZM105.006 185.862H103.49L104.059 187.184L105.006 185.862ZM99.7015 185.485L99.1332 184.162L98.186 185.485H99.7015ZM104.248 189.829L104.437 188.506L102.922 188.884L104.248 189.829ZM103.869 192.284L104.059 190.962L102.543 191.34L103.869 192.284ZM100.649 192.284L99.8909 192.85L100.838 193.417L100.649 192.284ZM101.217 184.918L100.459 185.673L101.596 186.24L101.217 184.918ZM105.574 183.596L104.437 183.407L104.816 184.54L105.574 183.596ZM101.975 194.55L101.217 195.117L102.354 195.684L101.975 194.55ZM83.2206 174.908L82.4628 175.474L83.41 176.041L83.2206 174.908ZM76.7797 166.22L76.022 166.786L76.9692 167.353L76.7797 166.22ZM95.9128 183.974L95.3445 183.407L95.155 184.351L95.9128 183.974ZM90.6086 182.463L90.798 181.707H89.8508L90.6086 182.463ZM93.2607 184.162L93.6396 183.407H92.6924L93.2607 184.162ZM97.2388 187.94L97.6177 188.884L98.5649 188.129L97.2388 187.94ZM102.732 184.162L102.164 184.729L102.922 185.107L102.732 184.162Z" data-darkreader-inline-fill="" style="--darkreader-inline-fill: var(--darkreader-background-a84d3b, #863e2f);"/>
<path fill="#A84D3B" d="M103.112 183.218L102.164 183.973L103.301 184.54L103.112 183.218ZM100.838 183.973L100.081 184.54L100.838 184.918V183.973ZM101.596 197.383L100.838 197.761L101.596 198.327V197.383ZM99.5122 195.306L99.8911 196.061L100.459 195.306H99.5122ZM99.3228 190.773L99.7017 191.528L100.27 190.773H99.3228ZM102.922 192.473L102.354 192.095L102.164 192.85L102.922 192.473ZM76.5904 183.596L76.9693 183.973L77.3482 183.407L76.5904 183.596ZM80.1897 181.329L79.8109 181.707H80.3792L80.1897 181.329ZM83.9785 187.94L83.4101 187.751L83.5996 188.506L83.9785 187.94ZM82.0841 184.729L81.7052 185.295H82.463L82.0841 184.729ZM95.1552 190.773L94.9658 191.906L96.1024 191.339L95.1552 190.773ZM93.4503 182.274V183.218L94.3975 182.84L93.4503 182.274ZM93.4503 180.385V181.329L94.5869 180.763L93.4503 180.385ZM78.8637 174.53V175.663L79.8109 175.097L78.8637 174.53ZM101.596 188.317L100.649 188.506L101.407 189.262L101.596 188.317ZM98.7545 196.25L98.3756 195.494L97.6179 196.25H98.7545ZM99.3228 186.429L99.8911 187.184L100.459 186.24L99.3228 186.429ZM102.354 187.562L102.922 188.506L103.49 187.373L102.354 187.562ZM104.248 183.973L103.68 184.729L104.627 184.918L104.248 183.973ZM103.112 190.017L102.354 189.451V190.584L103.112 190.017ZM81.7052 173.208L80.5686 173.963L81.8946 174.719L81.7052 173.208ZM77.9165 174.719L77.3482 174.152L77.1587 175.097L77.9165 174.719ZM74.1278 172.83L73.7489 172.452L73.5594 173.208L74.1278 172.83ZM73.1806 178.685L73.37 177.93H72.6123L73.1806 178.685ZM80.3792 174.53L80.758 175.285L81.5158 174.53H80.3792ZM78.1059 172.641L78.6742 173.774L79.6214 172.83L78.1059 172.641ZM77.727 167.542L76.9693 168.675L78.4848 168.864L77.727 167.542ZM83.4101 176.607L82.8418 176.985L83.5996 177.552L83.4101 176.607ZM84.9256 175.852L84.3573 176.23L85.1151 176.607L84.9256 175.852ZM86.4411 176.607L85.8728 176.985L86.4411 177.552V176.607ZM83.5996 181.707L83.2207 181.329L83.0313 182.085L83.5996 181.707ZM72.2334 175.285L72.6123 175.852L73.1806 175.097L72.2334 175.285ZM76.5904 170.941L76.0221 171.319L76.7799 171.697L76.5904 170.941ZM76.401 177.93L75.8327 177.552L75.6433 178.307L76.401 177.93ZM76.9693 170.186L77.3482 170.752L77.9165 169.997L76.9693 170.186ZM78.8637 171.13L79.2425 171.886L79.8109 171.13H78.8637ZM74.5066 169.242L73.9383 169.808L74.6961 169.997L74.5066 169.242ZM75.0749 167.353L74.5066 166.975L74.3172 167.731L75.0749 167.353ZM85.1151 177.741V178.496L86.0623 178.118L85.1151 177.741ZM88.7144 179.252L87.9566 179.44L88.5249 180.007L88.7144 179.252ZM87.1989 177.741L86.4411 177.93L87.0094 178.496L87.1989 177.741ZM99.8911 183.407L99.1334 183.596L99.7017 184.162L99.8911 183.407ZM97.0496 182.274L96.4813 182.462L96.8601 183.029L97.0496 182.274ZM88.1461 183.596L87.9566 183.029L87.3883 183.596H88.1461ZM98.7545 193.039L98.5651 192.473L97.9967 193.039H98.7545ZM87.1989 181.707L86.82 181.14L86.2517 181.707H87.1989ZM92.1242 180.574V181.518L92.882 181.14L92.1242 180.574ZM95.1552 181.329V182.085L95.913 181.707L95.1552 181.329ZM98.5651 183.029L97.8073 183.218L98.3756 183.785L98.5651 183.029ZM95.913 186.806L95.5341 186.24L95.1552 186.806H95.913ZM87.7672 186.618V187.373L88.5249 186.995L87.7672 186.618ZM91.3665 184.729L90.7982 184.918L91.177 185.484L91.3665 184.729ZM97.8073 186.24L97.6179 185.673L97.0496 186.24H97.8073Z" data-darkreader-inline-fill="" style="--darkreader-inline-fill: var(--darkreader-background-a84d3b, #863e2f);"/>
<path fill="#AF361A" d="M97.2391 138.645C96.959 138.428 96.7667 138.118 96.6972 137.771C96.6276 137.424 96.6855 137.064 96.8602 136.756C97.0496 136.567 100.081 132.035 106.9 132.601C107.658 132.601 108.226 133.357 108.226 134.112C108.226 134.868 107.469 135.434 106.711 135.434C101.596 135.057 99.5123 138.267 99.3229 138.456C98.5651 139.212 97.4285 138.834 97.2391 138.645ZM125.655 135.434C125.465 135.434 125.086 135.434 124.897 135.245C123.571 134.301 122.055 134.49 121.866 134.49C121.108 134.679 120.35 134.112 120.161 133.357C119.971 132.601 120.54 131.846 121.297 131.657C121.487 131.657 124.139 130.901 126.602 132.979C127.17 133.357 127.17 134.301 126.791 134.868C126.602 135.245 126.033 135.434 125.655 135.434Z" data-darkreader-inline-fill="" style="--darkreader-inline-fill: var(--darkreader-background-af361a, #8c2b15);"/>
<path fill="#CF7653" d="M108.227 171.886C101.028 171.508 97.9974 166.409 97.2397 163.576C97.0502 162.82 97.4291 162.065 98.1869 161.876C98.9446 161.687 99.7023 162.065 99.8918 162.82C99.8918 163.009 101.407 168.675 108.227 169.053C108.985 169.053 109.553 169.808 109.553 170.375C109.553 171.319 108.985 171.886 108.227 171.886Z" data-darkreader-inline-fill="" style="--darkreader-inline-fill: var(--darkreader-text-cf7653, #d27f5f);"/>
<path fill="#B4603F" d="M114.857 161.498H114.478C113.72 161.498 113.341 160.742 113.341 160.176C113.341 159.42 114.099 159.042 114.667 159.042C115.046 159.042 115.993 159.042 116.372 157.909C116.751 156.776 115.804 155.076 115.425 154.509C115.046 153.943 115.046 153.187 115.615 152.81C116.183 152.432 116.941 152.432 117.319 152.999C117.509 153.376 119.593 156.02 118.835 158.665C118.077 160.931 115.993 161.498 114.857 161.498Z" data-darkreader-inline-fill="" style="--darkreader-inline-fill: var(--darkreader-text-b4603f, #c6795b);"/>
<path fill="#4F2B23" d="M104.437 151.299C105.902 151.299 107.089 150.115 107.089 148.655C107.089 147.195 105.902 146.011 104.437 146.011C102.973 146.011 101.785 147.195 101.785 148.655C101.785 150.115 102.973 151.299 104.437 151.299Z" data-darkreader-inline-fill="" style="--darkreader-inline-fill: var(--darkreader-text-4f2b23, #d7aea4);"/>
<path fill="#4F2B23" d="M103.869 147.899C103.49 147.899 102.164 148.277 101.974 147.899C101.785 147.333 102.732 146.389 103.49 146.011C105.384 145.066 106.9 145.255 107.468 145.255C107.719 145.255 107.96 145.355 108.138 145.532C108.315 145.709 108.415 145.949 108.415 146.2C108.415 146.45 108.315 146.69 108.138 146.867C107.96 147.044 107.719 147.144 107.468 147.144C106.9 147.144 105.763 147.144 104.247 147.711C104.247 147.899 104.058 147.899 103.869 147.899Z" data-darkreader-inline-fill="" style="--darkreader-inline-fill: var(--darkreader-text-4f2b23, #d7aea4);"/>
<path fill="#4F2B23" d="M124.138 149.788C125.603 149.788 126.791 148.604 126.791 147.144C126.791 145.684 125.603 144.5 124.138 144.5C122.674 144.5 121.486 145.684 121.486 147.144C121.486 148.604 122.674 149.788 124.138 149.788Z" data-darkreader-inline-fill="" style="--darkreader-inline-fill: var(--darkreader-text-4f2b23, #d7aea4);"/>
<path fill="#4F2B23" d="M123.57 146.388C123.191 146.388 121.865 146.766 121.675 146.388C121.486 145.822 122.433 144.878 123.191 144.5C125.085 143.555 126.601 143.744 127.169 143.744C127.42 143.744 127.661 143.844 127.839 144.021C128.016 144.198 128.116 144.438 128.116 144.689C128.116 144.939 128.016 145.179 127.839 145.356C127.661 145.534 127.42 145.633 127.169 145.633C126.601 145.633 125.464 145.633 123.949 146.2C123.949 146.388 123.759 146.388 123.57 146.388Z" data-darkreader-inline-fill="" style="--darkreader-inline-fill: var(--darkreader-text-4f2b23, #d7aea4);"/>
<path fill="#F4B9A6" d="M109.931 156.776L111.068 156.209L109.742 155.265L109.931 156.776ZM95.5341 155.076L95.1552 153.943L94.208 154.887L95.5341 155.076ZM113.909 155.643H115.614L114.667 153.943L113.909 155.643ZM110.878 149.977L112.015 150.921L112.394 149.41L110.878 149.977ZM111.636 148.277L113.341 147.333L111.826 146.199L111.636 148.277ZM114.667 163.386L116.183 162.631L114.857 161.498L114.667 163.386ZM119.024 161.687L119.782 159.987L118.077 160.365L119.024 161.687ZM109.552 155.265L108.226 155.454L108.984 156.965L109.552 155.265Z" data-darkreader-inline-fill="" style="--darkreader-inline-fill: var(--darkreader-background-f4b9a6, #63210c);"/>
<path fill="#F4B9A6" d="M110.689 153.565L109.173 153.754L110.12 155.076L110.689 153.565ZM109.742 160.742L110.12 162.065L111.446 161.12L109.742 160.742ZM110.12 163.387L111.257 164.142L111.636 162.631L110.12 163.387ZM116.561 167.92L115.235 168.108L116.182 169.43L116.561 167.92ZM113.72 139.211L113.151 140.156H114.667L113.72 139.211ZM114.288 147.522L113.151 147.144L113.53 148.277L114.288 147.522ZM115.804 143.366L114.667 143.178L115.046 144.5L115.804 143.366ZM107.847 148.655L107.468 149.977L108.984 149.599L107.847 148.655ZM109.363 142.989L108.226 143.555L109.363 144.5V142.989ZM103.869 144.311L103.111 144.5L103.49 145.255L103.869 144.311ZM114.288 167.731L113.151 167.92L113.909 169.053L114.288 167.731ZM112.962 166.975L111.825 167.164L112.583 168.297L112.962 166.975ZM103.68 158.854H102.543L103.111 159.987L103.68 158.854ZM106.332 161.12L105.195 161.309L105.763 162.253L106.332 161.12ZM103.111 154.887L102.732 156.021L104.248 155.643L103.111 154.887ZM109.173 154.132L108.984 153.188L107.847 153.943L109.173 154.132ZM120.539 164.898L121.108 164.142H119.971L120.539 164.898ZM116.372 161.498L116.94 162.253L117.319 160.931L116.372 161.498ZM124.139 154.132V155.076L124.896 154.699L124.139 154.132ZM120.35 157.721L121.108 157.909V156.965L120.35 157.721Z" data-darkreader-inline-fill="" style="--darkreader-inline-fill: var(--darkreader-background-f4b9a6, #63210c);"/>
<path fill="#F4B9A6" d="M124.329 155.454L124.708 154.888L123.76 154.699L124.329 155.454ZM100.839 146.955L100.27 147.711H101.218L100.839 146.955ZM112.015 142.611L113.531 142.422L112.584 141.1L112.015 142.611ZM111.826 159.232L113.531 158.854L112.394 157.532L111.826 159.232ZM110.689 148.277L109.553 148.088L109.742 149.221L110.689 148.277ZM101.407 155.643V154.51L100.081 154.888L101.407 155.643ZM108.984 144.877V146.2L110.5 145.633L108.984 144.877ZM107.279 147.522V148.844L108.984 148.088L107.279 147.522ZM108.795 146.388L108.606 147.711L110.121 147.144L108.795 146.388ZM119.972 146.955L121.108 147.522V146.2L119.972 146.955ZM110.5 152.243L109.932 151.299L109.174 152.243H110.5ZM114.857 166.409L113.91 166.786L114.667 167.542L114.857 166.409ZM110.31 158.854L109.932 159.609H111.258L110.31 158.854ZM111.068 164.709L110.689 163.764L110.121 164.709H111.068ZM112.773 165.653L113.531 165.087L112.394 164.52L112.773 165.653ZM113.341 163.576L114.289 163.009L113.152 162.254L113.341 163.576ZM112.963 162.254L113.91 161.687L112.773 160.931L112.963 162.254ZM112.963 157.343L113.91 156.776L112.773 156.021L112.963 157.343ZM110.689 157.343L111.447 158.098L111.826 157.154L110.689 157.343ZM119.972 166.031L118.835 166.409L119.593 167.164L119.972 166.031ZM115.425 156.399L115.046 157.154L116.183 157.343L115.425 156.399ZM117.13 166.598L116.562 166.031L115.994 166.786L117.13 166.598ZM111.068 169.619L111.258 170.564L112.394 169.997L111.068 169.619ZM108.795 163.953L107.658 164.331L108.416 165.087L108.795 163.953ZM99.3232 151.866L98.7548 151.11L98.1865 152.055L99.3232 151.866ZM109.174 166.409L109.932 166.786L110.121 165.842L109.174 166.409ZM106.332 164.331L107.279 164.709V163.764L106.332 164.331ZM104.248 171.697L103.68 172.452L104.817 172.264L104.248 171.697ZM102.733 170.375L101.786 170.186L101.975 171.13L102.733 170.375ZM100.839 169.997H99.8914L100.081 170.942L100.839 169.997ZM111.637 155.265L113.531 155.076L112.015 153.188L111.637 155.265ZM110.5 150.732L110.879 151.677L111.637 150.732H110.5Z" data-darkreader-inline-fill="" style="--darkreader-inline-fill: var(--darkreader-background-f4b9a6, #63210c);"/>
<path fill="#F4B9A6" d="M110.5 152.432L111.447 153.943L112.773 152.432H110.5ZM115.615 150.354L114.099 151.488L116.183 152.243L115.615 150.354ZM102.922 152.243L103.112 151.488L101.975 151.865L102.922 152.243ZM114.288 152.054L113.72 152.621L114.667 153.187L114.288 152.054ZM111.068 146.01L112.205 145.822L111.447 144.877L111.068 146.01ZM118.267 149.032L119.593 148.843L118.646 147.899L118.267 149.032ZM110.31 148.655L111.447 148.277L110.689 147.332L110.31 148.655ZM119.024 143.744L120.161 143.555L119.403 142.611L119.024 143.744ZM115.236 140.911L114.288 141.289L115.425 141.855L115.236 140.911ZM105.764 143.366L105.953 142.422L104.817 142.988L105.764 143.366ZM105.764 158.098L105.574 159.42L107.09 159.042L105.764 158.098ZM104.059 157.343H102.922L103.491 158.665L104.059 157.343ZM106.143 162.631L105.764 163.764L107.09 163.386L106.143 162.631ZM108.227 157.909V159.231L109.553 158.665L108.227 157.909ZM106.711 160.176V161.687L108.416 161.12L106.711 160.176ZM105.574 156.398L105.764 155.454L104.627 156.02L105.574 156.398ZM121.108 149.788L122.245 149.599L121.487 148.843L121.108 149.788ZM117.13 145.633L117.509 146.577L118.267 145.822L117.13 145.633ZM124.518 159.609L125.465 159.42L124.707 158.665L124.518 159.609ZM108.037 143.366V142.611L107.09 142.988L108.037 143.366ZM114.857 146.199L114.667 147.332L115.993 146.955L114.857 146.199ZM113.531 143.933L113.341 145.066L114.667 144.688L113.531 143.933ZM116.372 152.243L118.077 153.565L118.835 151.488L116.372 152.243ZM118.646 155.454L120.54 154.887L119.403 153.187L118.646 155.454ZM112.205 156.02L112.962 156.209L112.773 155.454L112.205 156.02ZM112.205 151.299L111.826 152.054H112.962L112.205 151.299ZM114.478 149.032H113.341L114.099 149.977L114.478 149.032ZM118.077 149.788H116.941L117.509 151.11L118.077 149.788Z" data-darkreader-inline-fill="" style="--darkreader-inline-fill: var(--darkreader-background-f4b9a6, #63210c);"/>
<path fill="#F4B9A6" d="M114.667 150.355L116.561 149.41L114.667 148.088V150.355ZM117.887 141.856L118.645 140.911L117.129 140.722L117.887 141.856ZM112.204 160.743L112.962 159.609L111.446 159.421L112.204 160.743ZM112.772 152.432L114.477 151.488L112.962 150.355L112.772 152.432ZM115.235 144.689L115.803 145.255L116.182 144.311L115.235 144.689ZM117.508 146.766L116.182 148.277L118.645 148.655L117.508 146.766ZM119.403 144.311L118.834 145.255L119.971 145.444L119.403 144.311ZM119.971 151.677L120.539 152.432L121.108 151.488L119.971 151.677ZM117.508 143.178L116.94 143.933L118.077 144.122L117.508 143.178ZM101.974 151.677L100.648 152.055L101.596 152.999L101.974 151.677ZM107.279 149.977L106.521 150.921L107.847 151.11L107.279 149.977ZM106.332 151.677L106.142 150.733L105.195 151.488L106.332 151.677ZM105.005 152.621V151.677L104.058 152.243L105.005 152.621Z" data-darkreader-inline-fill="" style="--darkreader-inline-fill: var(--darkreader-background-f4b9a6, #63210c);"/>
<path fill="white" d="M114.857 149.033L113.531 147.711C113.531 147.711 114.667 146.2 116.562 146.2C118.456 146.2 119.782 147.144 119.782 147.333L118.646 148.844C118.646 148.844 117.888 148.089 116.751 148.089C115.804 148.089 114.857 149.033 114.857 149.033Z" data-darkreader-inline-fill="" style="--darkreader-inline-fill: var(--darkreader-text-ffffff, #e8e6e3);"/>
<path fill="white" d="M126.412 158.098C123.002 157.91 120.35 153.188 120.54 147.9C120.729 142.611 123.76 138.078 127.17 138.078C127.738 138.078 128.496 138.267 129.064 138.456V136.378C128.496 136.19 127.928 136.001 127.359 136.001C122.813 135.812 119.024 141.289 118.835 147.711C118.645 154.321 122.055 159.987 126.602 159.987H127.359L127.549 158.098H126.412Z" data-darkreader-inline-fill="" style="--darkreader-inline-fill: var(--darkreader-background-ffffff, #181a1b);"/>
<path fill="#CCCCCC" d="M135.126 148.466C135.316 142.8 132.853 137.7 129.064 136.378V138.456C131.527 139.967 133.232 143.744 133.042 148.466C132.853 153.376 130.39 157.532 127.359 158.287L127.17 160.176C131.527 159.987 134.937 154.887 135.126 148.466Z" data-darkreader-inline-fill="" style="--darkreader-inline-fill: var(--darkreader-background-cccccc, #35393b);"/>
<path fill="url(#paint1_linear_3933_1542)" d="M87.5776 145.444C87.5776 145.444 95.1551 132.979 101.596 129.201C109.173 124.857 121.676 122.213 121.676 122.213L88.5248 111.825L87.5776 145.444Z"/>
<path fill="#C94112" d="M69.3918 175.852C69.3918 175.852 50.2587 167.919 48.1749 148.277C46.0911 128.635 58.0256 116.925 58.0256 116.925L57.2679 110.125C57.2679 110.125 49.1221 107.859 46.6594 96.9045C44.3862 87.461 51.9637 79.1507 60.6777 75.9399C71.2862 71.9736 83.5995 77.4509 86.82 86.8944C89.6615 94.8269 85.4939 100.304 85.4939 100.304L88.9038 104.459C88.9038 104.459 101.217 97.2822 114.288 104.648C127.17 112.014 134.747 125.613 136.452 127.312C137.589 128.257 128.496 129.768 118.645 128.257C108.795 126.746 98.9439 123.157 96.4812 121.835C94.3974 120.324 94.208 121.269 94.3974 124.479C94.7763 129.39 94.9657 143.933 85.6833 147.522C81.7052 149.032 79.2425 147.899 79.2425 147.899L69.3918 175.852Z" data-darkreader-inline-fill="" style="--darkreader-inline-fill: var(--darkreader-background-c94112, #a1340e);"/>
<path fill="url(#paint2_linear_3933_1542)" d="M57.8366 117.302L89.662 104.082L87.1993 98.2266L54.8057 110.881L57.8366 117.302Z"/>
<path fill="#EA9D7D" d="M71.4761 165.464C77.0212 165.464 81.5163 160.644 81.5163 154.699C81.5163 148.753 77.0212 143.933 71.4761 143.933C65.9311 143.933 61.436 148.753 61.436 154.699C61.436 160.644 65.9311 165.464 71.4761 165.464Z" data-darkreader-inline-fill="" style="--darkreader-inline-fill: var(--darkreader-background-ea9d7d, #7a3214);"/>
<path fill="url(#paint3_linear_3933_1542)" d="M72.044 159.42C74.555 159.42 76.5905 157.306 76.5905 154.699C76.5905 152.091 74.555 149.977 72.044 149.977C69.5331 149.977 67.4976 152.091 67.4976 154.699C67.4976 157.306 69.5331 159.42 72.044 159.42Z"/>
<path fill="#B76349" d="M78.1064 161.498C76.4014 163.387 73.9388 164.52 71.4761 164.52C66.3613 164.52 62.1937 159.987 62.1937 154.51C62.1937 149.033 66.3613 144.5 71.4761 144.5C75.0754 144.5 78.2958 146.766 79.8113 149.977C79.8113 149.977 80.1902 150.166 80.7585 149.788C81.3268 149.41 81.1374 148.655 81.1374 148.655C79.243 145.255 75.6437 142.8 71.6655 142.8C65.6036 142.8 60.6782 147.9 60.6782 154.321C60.6782 160.554 65.6036 165.842 71.6655 165.842C74.3177 165.842 76.4015 165.087 78.2958 163.576L78.1064 161.498Z" data-darkreader-inline-fill="" style="--darkreader-inline-fill: var(--darkreader-background-b76349, #924e3a);"/>
<path fill="#964C38" d="M76.2115 155.832V155.076L75.4538 155.265L76.2115 155.832ZM72.9911 150.166L72.2334 150.355L72.8017 151.11L72.9911 150.166Z" data-darkreader-inline-fill="" style="--darkreader-inline-fill: var(--darkreader-text-964c38, #ca8471);"/>
<path fill="#964C38" d="M72.8015 150.355L71.8543 151.488L73.5592 151.865L72.8015 150.355ZM71.0966 150.166L69.96 150.543L70.9071 151.488L71.0966 150.166ZM76.0219 152.999L75.4536 153.376L76.2113 153.754L76.0219 152.999ZM74.317 152.054L73.7487 152.621L74.5064 152.81L74.317 152.054Z" data-darkreader-inline-fill="" style="--darkreader-inline-fill: var(--darkreader-text-964c38, #ca8471);"/>
<path fill="#964C38" d="M75.4542 153.376L75.0753 153.943L75.833 154.321L75.4542 153.376ZM71.2866 151.865L70.7183 152.243L71.6654 152.621L71.2866 151.865Z" data-darkreader-inline-fill="" style="--darkreader-inline-fill: var(--darkreader-text-964c38, #ca8471);"/>
<path fill="#964C38" d="M70.3392 151.299L69.5814 152.243L70.9075 152.621L70.3392 151.299ZM73.5596 154.699L73.9385 155.076L74.1279 154.51L73.5596 154.699ZM75.6434 152.432L75.454 152.81H76.0223L75.6434 152.432ZM76.0223 154.132L75.8328 154.699H76.4012L76.0223 154.132ZM69.2026 151.11L68.4448 151.865L69.5814 152.054L69.2026 151.11ZM70.7181 153.943H70.3392L70.5286 154.51L70.7181 153.943ZM71.8547 155.643L71.6652 155.076L71.2864 155.454L71.8547 155.643ZM73.3702 150.921L73.7491 150.543L73.1807 150.166L73.3702 150.921ZM71.0969 150.921L70.5286 151.488L71.4758 151.677L71.0969 150.921ZM70.1497 151.488L69.5814 151.11V151.865L70.1497 151.488Z" data-darkreader-inline-fill="" style="--darkreader-inline-fill: var(--darkreader-text-964c38, #ca8471);"/>
<path fill="#964C38" d="M70.1499 151.488V150.921H69.5815L70.1499 151.488ZM74.6964 152.243L75.0752 152.81L75.4541 152.243H74.6964ZM73.9386 150.543L73.7492 151.865L75.0752 151.488L73.9386 150.543Z" data-darkreader-inline-fill="" style="--darkreader-inline-fill: var(--darkreader-text-964c38, #ca8471);"/>
<path fill="#964C38" d="M73.3702 151.488L73.9385 151.865L74.1279 151.11L73.3702 151.488ZM68.8237 153.187L68.4448 153.754H69.0131L68.8237 153.187ZM72.2336 150.166L71.6652 149.977L71.8547 150.732L72.2336 150.166ZM71.0969 153.565L71.4758 154.132L71.8547 153.376L71.0969 153.565ZM72.6124 156.021L72.423 156.398L72.9913 156.587L72.6124 156.021ZM68.6342 151.865L68.2554 152.432L69.0131 152.621L68.6342 151.865Z" data-darkreader-inline-fill="" style="--darkreader-inline-fill: var(--darkreader-text-964c38, #ca8471);"/>
<path fill="#964C38" d="M70.3392 156.02L69.7709 155.832L69.9603 156.398L70.3392 156.02ZM68.2554 152.999L68.8237 152.81L68.4448 152.243L68.2554 152.999Z" data-darkreader-inline-fill="" style="--darkreader-inline-fill: var(--darkreader-text-964c38, #ca8471);"/>
<path fill="#964C38" d="M67.687 155.076H68.0659L67.8764 154.509L67.687 155.076ZM68.0659 153.187L68.4447 152.998L68.2553 152.621L68.0659 153.187ZM69.3919 152.621V153.187L69.9602 152.81L69.3919 152.621ZM67.4976 154.321H68.2553L67.8764 153.565L67.4976 154.321ZM68.6342 154.509V154.887L69.2025 154.509H68.6342ZM72.4229 152.054L71.8546 152.432L72.4229 152.81V152.054ZM75.075 154.887L75.2644 155.643L75.8328 155.265L75.075 154.887ZM71.2863 150.732L71.4757 151.488L72.044 150.921L71.2863 150.732ZM73.1807 152.81L72.8018 152.432L72.6123 152.998L73.1807 152.81Z" data-darkreader-inline-fill="" style="--darkreader-inline-fill: var(--darkreader-text-964c38, #ca8471);"/>
<path fill="white" d="M105.574 163.954C100.27 163.954 96.1025 158.288 96.1025 151.488C96.1025 144.689 100.46 139.023 105.574 139.023C110.689 139.023 115.046 144.689 115.046 151.488C115.046 158.288 110.689 163.954 105.574 163.954ZM105.574 140.912C101.407 140.912 97.9969 145.633 97.9969 151.488C97.9969 157.343 101.407 162.065 105.574 162.065C109.742 162.065 113.152 157.343 113.152 151.488C113.152 145.633 109.742 140.912 105.574 140.912Z" data-darkreader-inline-fill="" style="--darkreader-inline-fill: var(--darkreader-background-ffffff, #181a1b);"/>
<path fill="white" d="M80.5686 148.088L78.2954 145.633L97.6179 148.844L97.4285 150.733L80.5686 148.088Z" data-darkreader-inline-fill="" style="--darkreader-inline-fill: var(--darkreader-background-ffffff, #181a1b);"/>
<path fill="#A84D3B" d="M108.227 125.99L108.037 126.935L108.795 126.746L108.227 125.99ZM111.068 126.746L110.121 126.557L110.311 127.501L111.068 126.746ZM109.932 126.746L109.174 126.179L108.985 127.124L109.932 126.746ZM94.3979 121.835V123.724L96.2923 122.591L94.3979 121.835ZM104.059 124.857L103.68 125.801L104.817 125.424L104.059 124.857ZM100.649 124.857L101.028 125.801L101.786 125.046L100.649 124.857ZM98.1867 126.935V127.501L98.755 127.124L98.1867 126.935ZM94.5874 128.068V129.201L95.724 128.823L94.5874 128.068Z" data-darkreader-inline-fill="" style="--darkreader-inline-fill: var(--darkreader-background-a84d3b, #863e2f);"/>
<path fill="#A84D3B" d="M99.3233 123.157L98.5656 122.78L98.3761 123.535L99.3233 123.157ZM106.143 125.424L106.332 126.368L107.09 125.613L106.143 125.424ZM102.923 125.046L103.112 125.99L103.87 125.235L102.923 125.046ZM111.447 126.935V127.69L112.394 127.124L111.447 126.935ZM105.764 126.935L106.143 127.69L106.711 127.124L105.764 126.935ZM101.218 126.179L101.407 126.935L102.165 126.368L101.218 126.179ZM99.7022 124.857L99.8916 125.424L100.649 124.857H99.7022ZM104.817 125.613L105.385 126.179L105.575 125.613H104.817ZM107.09 126.179L107.28 126.557L107.659 125.99L107.09 126.179ZM112.584 127.501L112.773 127.879L113.152 127.501H112.584ZM94.9663 131.845L94.5874 132.034L94.9663 132.412V131.845ZM96.8606 125.613L97.2395 126.368L97.9972 125.424L96.8606 125.613ZM94.9663 120.891L94.7768 121.835L95.9135 121.458L94.9663 120.891Z" data-darkreader-inline-fill="" style="--darkreader-inline-fill: var(--darkreader-background-a84d3b, #863e2f);"/>
<path fill="#A84D3B" d="M95.724 121.269L95.5346 122.591L97.05 122.024L95.724 121.269ZM95.1557 130.146H94.3979L94.7768 130.901L95.1557 130.146ZM95.3451 129.768L95.1557 129.201L94.5874 129.768H95.3451ZM97.6184 130.523L97.4289 130.146L97.05 130.523H97.6184ZM100.839 129.012L100.649 128.446L100.27 128.823L100.839 129.012ZM101.975 126.179L102.923 126.368L102.544 125.424L101.975 126.179ZM102.354 125.235L103.87 124.668L102.544 124.291L102.354 125.235ZM98.755 124.857L98.9444 125.613L99.5127 125.046L98.755 124.857ZM99.7022 126.557H100.46L99.8916 125.802L99.7022 126.557ZM94.9663 132.79V133.545L95.724 133.167L94.9663 132.79ZM95.724 131.09V131.468L96.1029 131.279L95.724 131.09ZM98.5655 125.424L97.9972 125.802L98.755 126.179L98.5655 125.424Z" data-darkreader-inline-fill="" style="--darkreader-inline-fill: var(--darkreader-text-a84d3b, #c87464);"/>
<path fill="#A84D3B" d="M94.5873 131.09L94.3979 131.657L95.3451 131.279L94.5873 131.09ZM94.3979 133.168L94.9662 132.979L94.3979 132.412V133.168ZM94.2084 135.056L94.7767 134.679L94.2084 134.49V135.056ZM94.2084 134.112L94.7767 133.923L94.3979 133.357L94.2084 134.112ZM93.6401 137.323L94.3979 136.945L93.8296 136.379L93.6401 137.323ZM94.019 136.001L94.7767 135.812L94.019 135.056V136.001ZM98.3761 122.78L97.05 122.024L96.6711 123.535L98.3761 122.78ZM96.1028 127.313L96.6711 127.879L97.05 126.935L96.1028 127.313Z" data-darkreader-inline-fill="" style="--darkreader-inline-fill: var(--darkreader-background-a84d3b, #863e2f);"/>
<path fill="#A84D3B" d="M100.649 123.724L101.218 125.424L102.354 124.102L100.649 123.724ZM95.1557 127.69L95.724 128.257L96.1029 127.124L95.1557 127.69ZM103.87 126.368L104.628 126.746V125.802L103.87 126.368ZM94.3979 123.724V124.857L95.5346 124.102L94.3979 123.724ZM96.6712 128.446H95.9134L96.4818 129.201L96.6712 128.446ZM96.2923 126.179L95.5346 126.557L96.2923 127.124V126.179ZM98.1867 123.913L98.3761 124.668L98.9444 124.102L98.1867 123.913ZM95.9134 122.78L96.1029 123.535L96.6712 122.969L95.9134 122.78ZM95.9134 125.802L94.5874 125.424V126.935L95.9134 125.802ZM95.3451 124.668L94.7768 125.046L95.3451 125.613V124.668ZM97.9972 124.291L97.2395 124.479L97.9972 125.046V124.291ZM97.9972 123.157L97.2395 123.346L97.8078 123.913L97.9972 123.157Z" data-darkreader-inline-fill="" style="--darkreader-inline-fill: var(--darkreader-text-a84d3b, #c87464);"/>
<path fill="#A84D3B" d="M94.9658 121.08L94.208 121.458L94.7763 122.024L94.9658 121.08ZM96.4813 124.668L95.7235 124.857L96.4813 125.424V124.668ZM95.5341 123.346L94.7763 123.535L95.5341 124.102V123.346ZM94.5869 126.935L94.3975 127.502L95.1552 127.313L94.5869 126.935ZM100.649 123.535L99.3228 123.158L99.7017 124.668L100.649 123.535Z" data-darkreader-inline-fill="" style="--darkreader-inline-fill: var(--darkreader-text-a84d3b, #c87464);"/>
<path fill="#FF593E" d="M106.901 102.004L107.28 104.081L109.174 102.759L106.901 102.004ZM119.783 119.38L118.835 119.002V119.947L119.783 119.38ZM131.906 122.024H131.149L131.528 122.968L131.906 122.024ZM127.171 120.513L127.36 119.569L126.223 119.758L127.171 120.513ZM112.016 104.837L111.068 105.97L112.584 106.537L112.016 104.837ZM123.003 116.736L122.435 117.68L123.761 117.869L123.003 116.736ZM126.034 114.847L125.655 116.736L127.739 116.358L126.034 114.847Z" data-darkreader-inline-fill="" style="--darkreader-inline-fill: var(--darkreader-background-ff593e, #a71700);"/>
<path fill="#FF593E" d="M125.087 113.525L124.519 115.414L126.603 115.225L125.087 113.525ZM104.06 101.626L102.544 101.437L103.113 103.326L104.06 101.626ZM102.355 101.437L100.65 101.626L101.408 103.326L102.355 101.437ZM99.3239 104.648L97.2401 105.215L98.7556 107.292L99.3239 104.648ZM98.1873 101.626L96.4824 101.815L97.2401 103.515L98.1873 101.626ZM119.972 108.803L118.646 107.859L118.268 109.748L119.972 108.803ZM112.963 108.803L113.532 106.915L111.637 107.292L112.963 108.803ZM115.994 110.503L116.752 108.992H114.668L115.994 110.503ZM119.404 112.77L119.972 114.658L121.488 112.77H119.404ZM120.73 109.37L120.351 112.014L123.003 111.447L120.73 109.37ZM118.457 114.092L117.699 114.658L118.457 115.036V114.092ZM103.681 108.614L102.923 109.181L103.681 109.748V108.614ZM100.271 106.537L99.5133 107.103L100.461 107.481L100.271 106.537ZM101.408 105.215L100.65 105.781L101.408 106.159V105.215ZM97.4296 106.537L96.6718 107.103L97.619 107.67L97.4296 106.537ZM96.6718 105.404L95.9141 105.97L97.0507 106.348L96.6718 105.404Z" data-darkreader-inline-fill="" style="--darkreader-inline-fill: var(--darkreader-background-ff593e, #a71700);"/>
<path fill="#FF593E" d="M95.5351 105.215L94.7773 105.781L95.7245 106.159L95.5351 105.215ZM125.655 121.08L125.087 122.024H126.034L125.655 121.08ZM128.497 120.513L127.929 121.269L128.876 121.457L128.497 120.513ZM123.193 120.135L123.572 120.891L124.14 119.947L123.193 120.135ZM122.246 116.547L122.814 117.302L123.193 116.358L122.246 116.547ZM125.466 115.98L124.519 115.603L124.708 116.547L125.466 115.98ZM98.7555 109.748L99.1344 110.314L99.7027 109.37L98.7555 109.748ZM102.355 106.915L101.976 107.481H102.923L102.355 106.915ZM104.817 114.092L104.439 113.714V114.658L104.817 114.092ZM104.628 110.692L104.439 111.259H105.196L104.628 110.692ZM109.175 118.436H108.606L108.796 119.002L109.175 118.436ZM111.827 118.624V118.058L111.258 118.247L111.827 118.624ZM117.699 117.113L117.889 118.247L118.836 117.68L117.699 117.113ZM117.131 106.726L116.941 108.803L118.836 107.859L117.131 106.726ZM103.302 103.704L103.113 105.026L104.439 104.459L103.302 103.704ZM123.951 112.392L123.003 111.447L122.435 112.958L123.951 112.392Z" data-darkreader-inline-fill="" style="--darkreader-inline-fill: var(--darkreader-background-ff593e, #a71700);"/>
<path fill="#FF593E" d="M125.087 113.525L124.14 112.58L123.571 114.091L125.087 113.525ZM129.444 118.435L128.497 117.302L127.929 119.191L129.444 118.435ZM122.814 121.646L122.056 120.891L121.867 122.024L122.814 121.646ZM121.677 112.203L122.245 113.147L123.003 112.014L121.677 112.203ZM121.488 114.658L122.245 115.602L122.814 114.469L121.488 114.658ZM122.245 113.336L122.814 114.28L123.382 112.958L122.245 113.336ZM112.963 113.525L112.205 114.469L113.152 114.658L112.963 113.525ZM124.708 114.091H123.761L124.14 115.225L124.708 114.091ZM96.6715 104.081L95.9138 104.648L97.0504 105.214L96.6715 104.081ZM96.6715 102.759L95.9138 103.326L96.861 103.892L96.6715 102.759ZM94.3983 103.892L95.3455 104.837L95.9138 103.137L94.3983 103.892ZM93.6405 103.515L92.6934 104.27L94.0194 105.026L93.6405 103.515Z" data-darkreader-inline-fill="" style="--darkreader-inline-fill: var(--darkreader-background-ff593e, #a71700);"/>
<path fill="#FF593E" d="M104.438 102.948L103.87 102.382L103.68 103.137L104.438 102.948ZM94.2083 103.893L94.3978 102.382L92.5034 102.948L94.2083 103.893Z" data-darkreader-inline-fill="" style="--darkreader-inline-fill: var(--darkreader-text-ff593e, #ff5f45);"/>
<path fill="#FF593E" d="M95.9134 103.704L96.1029 102.004L94.3979 102.382L95.9134 103.704ZM101.028 102.382L101.975 104.081L103.301 102.571L101.028 102.382ZM101.597 104.27L101.975 105.592L103.301 104.459L101.597 104.27ZM105.196 105.215L105.385 105.97L106.143 105.215H105.196Z" data-darkreader-inline-fill="" style="--darkreader-inline-fill: var(--darkreader-text-ff593e, #ff5f45);"/>
<path fill="#FF593E" d="M106.332 102.571L103.87 103.704L105.954 105.593L106.332 102.571ZM100.46 101.437H98.9443L99.7021 103.326L100.46 101.437Z" data-darkreader-inline-fill="" style="--darkreader-inline-fill: var(--darkreader-text-ff593e, #ff5f45);"/>
<path fill="#FF593E" d="M106.522 102.004L104.438 101.815L105.196 103.137L106.522 102.004ZM105.196 107.103L104.628 106.726V107.481L105.196 107.103ZM99.5131 105.215L99.8919 106.159L100.65 105.215H99.5131ZM99.5131 103.326L100.65 104.648L101.029 102.382L99.5131 103.326ZM93.2616 106.914L92.6934 107.292L93.4511 107.481L93.2616 106.914ZM98.7553 103.704L97.9976 103.137L97.8081 104.648L98.7553 103.704Z" data-darkreader-inline-fill="" style="--darkreader-inline-fill: var(--darkreader-text-ff593e, #ff5f45);"/>
<path fill="#FF593E" d="M99.3239 102.948L98.7556 101.815L97.619 103.326L99.3239 102.948ZM95.1563 107.859L95.7246 108.614L96.1035 107.859H95.1563ZM97.619 111.07L96.8612 111.825L97.619 112.014V111.07ZM91.3676 104.081L90.231 105.403L91.9359 105.97L91.3676 104.081Z" data-darkreader-inline-fill="" style="--darkreader-inline-fill: var(--darkreader-text-ff593e, #ff5f45);"/>
<path fill="#FF593E" d="M92.3146 102.948L90.6096 103.515L92.1251 104.837L92.3146 102.948ZM94.7772 110.692L94.0195 110.314V111.258L94.7772 110.692ZM92.6935 106.348H93.4512L93.0723 105.403L92.6935 106.348ZM97.6188 108.425H98.1871L97.9977 107.67L97.6188 108.425ZM88.7153 104.648L89.8519 105.781L90.2308 103.892L88.7153 104.648ZM86.8209 105.403L88.147 106.537L88.5258 104.648L86.8209 105.403ZM84.7371 106.348L86.2526 107.481V105.592L84.7371 106.348ZM82.4639 107.292L84.1688 108.614L84.5477 106.348L82.4639 107.292ZM96.6716 109.37V110.125L97.2399 109.747L96.6716 109.37ZM98.7554 108.614L99.5132 108.803V107.859L98.7554 108.614ZM92.6935 108.236V108.803L93.4512 108.425L92.6935 108.236ZM102.544 109.936L101.786 110.125L102.165 110.881L102.544 109.936ZM99.892 112.58L98.9448 112.769L99.5132 113.525L99.892 112.58ZM107.659 104.27L107.28 105.214L108.417 104.837L107.659 104.27ZM112.963 104.27L111.258 103.515L111.069 105.592L112.963 104.27ZM111.069 103.515L109.174 102.759V105.403L111.069 103.515Z" data-darkreader-inline-fill="" style="--darkreader-inline-fill: var(--darkreader-background-ff593e, #a71700);"/>
<path fill="#FF593E" d="M109.931 109.181L109.174 107.67L108.037 108.992L109.931 109.181ZM122.245 119.191L121.866 118.813L121.487 119.569L122.245 119.191ZM108.984 107.292L108.605 106.726L108.037 107.292H108.984ZM114.857 105.403L115.046 107.292L116.751 106.537L114.857 105.403ZM110.689 111.07V112.014L111.636 111.447L110.689 111.07ZM112.773 104.27L112.962 106.159L114.667 105.215L112.773 104.27ZM114.857 112.203L115.046 113.147L115.804 112.581L114.857 112.203ZM115.804 115.036V115.98L116.751 115.414L115.804 115.036ZM120.161 109.559L119.403 109.747L119.972 110.314L120.161 109.559ZM117.509 109.747L117.13 109.181L116.751 109.936L117.509 109.747ZM119.024 112.581L118.456 111.825L118.077 112.769L119.024 112.581ZM125.655 118.813L127.17 118.058L125.655 116.925V118.813ZM124.897 120.513L124.329 121.269H125.465L124.897 120.513ZM130.58 119.946L129.822 121.08H131.338L130.58 119.946ZM125.276 123.535L125.844 124.479L126.412 123.535H125.276ZM126.791 117.491L127.739 118.058L127.928 116.925L126.791 117.491ZM127.928 119.946L129.065 120.324V119.002L127.928 119.946ZM130.012 123.913L129.254 123.346L129.065 124.29L130.012 123.913ZM125.276 119.191L124.708 118.624L124.518 119.569L125.276 119.191ZM109.742 113.147V114.091L110.5 113.525L109.742 113.147ZM113.531 110.503L112.773 110.881L113.341 111.447L113.531 110.503ZM112.394 117.491L112.015 116.736L111.636 117.302L112.394 117.491ZM88.1463 113.525L87.5779 113.147L87.7674 113.903L88.1463 113.525ZM92.8822 117.302L92.3139 117.113L92.6928 117.869L92.8822 117.302ZM86.0625 119.758H85.4942L85.873 120.324L86.0625 119.758ZM95.5343 116.925V116.358L94.7765 116.736L95.5343 116.925ZM80.5688 121.646V121.08L80.0005 121.269L80.5688 121.646ZM89.8512 116.169L89.6618 115.414L89.0934 115.791L89.8512 116.169ZM92.6928 111.825L93.0716 112.958L93.6399 112.203L92.6928 111.825ZM96.1026 115.791L95.5343 115.225L95.1554 115.791H96.1026ZM120.35 111.636L119.972 110.881L119.593 111.825L120.35 111.636ZM114.289 108.992L112.962 108.425V110.314L114.289 108.992Z" data-darkreader-inline-fill="" style="--darkreader-inline-fill: var(--darkreader-background-ff593e, #a71700);"/>
<path fill="#FF593E" d="M115.426 108.048L114.479 107.859L114.668 108.803L115.426 108.048ZM106.522 109.37L106.712 108.426L105.954 108.614L106.522 109.37ZM106.901 105.781L105.196 107.104L107.091 108.237L106.901 105.781ZM106.143 105.215L105.765 105.593L106.333 105.97L106.143 105.215ZM107.848 109.37L107.47 109.937H108.227L107.848 109.37ZM109.932 106.159L109.364 105.404L108.985 106.348L109.932 106.159ZM110.879 104.648L110.122 103.704L109.553 105.026L110.879 104.648ZM109.174 103.893L108.417 102.948L107.848 104.27L109.174 103.893ZM114.858 106.348L114.1 105.404L113.532 106.537L114.858 106.348ZM116.941 107.481L116.184 106.537L115.615 107.859L116.941 107.481ZM111.258 108.048L111.448 107.292L110.501 107.67L111.258 108.048ZM109.743 110.503L109.932 109.748L108.985 109.937L109.743 110.503Z" data-darkreader-inline-fill="" style="--darkreader-inline-fill: var(--darkreader-text-ff593e, #ff5f45);"/>
<path fill="#FF593E" d="M110.5 107.859L110.879 108.992L111.826 108.048L110.5 107.859ZM116.373 111.825L117.131 112.58L117.51 111.258L116.373 111.825ZM102.923 105.781L103.681 106.348L104.06 105.214L102.923 105.781ZM107.848 107.103L108.038 107.859L108.796 107.292L107.848 107.103ZM114.668 109.181L113.91 109.558L114.668 109.936V109.181ZM112.205 110.125L111.637 109.558L111.448 110.503L112.205 110.125ZM114.1 112.58L113.721 111.825L113.531 112.769L114.1 112.58ZM107.848 111.636L107.091 111.825L107.848 112.392V111.636ZM115.236 111.069L114.857 110.692L114.668 111.447L115.236 111.069ZM122.056 118.435L121.677 119.38H122.814L122.056 118.435ZM119.404 115.602L119.593 116.736L120.541 116.169L119.404 115.602ZM122.814 115.602L123.003 116.358L123.761 115.602H122.814ZM122.435 115.413H121.677L122.245 115.98L122.435 115.413ZM121.109 114.847L120.73 114.28L120.162 115.036L121.109 114.847ZM122.624 116.358L122.056 115.98V116.924L122.624 116.358ZM122.814 114.28L122.245 113.902V114.847L122.814 114.28ZM106.712 110.881L106.522 110.125L105.765 110.881H106.712ZM62.9519 115.413L64.4674 116.736L65.2251 114.469L62.9519 115.413ZM63.3307 126.557L62.573 126.179L62.7624 127.312L63.3307 126.557ZM62.0047 127.879L61.6258 126.934L60.8681 127.69L62.0047 127.879ZM68.2561 115.98V117.68L70.3399 116.736L68.2561 115.98ZM85.4948 107.67L86.2525 108.425L86.8209 107.103L85.4948 107.67ZM91.9356 106.348V107.481L92.8828 106.914L91.9356 106.348ZM57.2688 117.869L55.5638 120.513L58.2159 121.08L57.2688 117.869ZM54.8061 121.268L54.2378 122.59L55.5638 122.213L54.8061 121.268ZM59.1631 123.157L58.9737 124.101H60.1103L59.1631 123.157ZM56.7005 122.402L56.3216 123.346L57.6477 123.157L56.7005 122.402ZM75.6441 110.314L74.318 110.881L76.023 112.392L75.6441 110.314ZM71.6659 117.113L71.2871 116.358L70.5293 117.113H71.6659ZM75.8335 115.225L75.0758 114.091L74.1286 115.602L75.8335 115.225ZM80.7589 111.825L81.7061 111.636L81.1378 110.692L80.7589 111.825ZM80.38 114.847V115.791L81.3272 115.225L80.38 114.847Z" data-darkreader-inline-fill="" style="--darkreader-inline-fill: var(--darkreader-background-ff593e, #a71700);"/>
<path fill="#FF593E" d="M61.626 122.213L61.0577 122.78L61.8155 123.157L61.626 122.213ZM57.269 120.135V121.08H58.2162L57.269 120.135ZM57.0796 125.235L56.8901 125.802H57.8373L57.0796 125.235ZM102.165 111.259V112.203L103.113 111.825L102.165 111.259ZM88.526 111.259L88.3366 112.014L89.0943 111.825L88.526 111.259ZM85.8739 112.203L85.1162 112.014L85.4951 112.958L85.8739 112.203ZM87.0106 110.125L87.2 110.692L87.7683 110.125H87.0106ZM91.3676 111.447L90.6098 111.825L91.557 112.392L91.3676 111.447ZM92.6937 108.992L93.0725 109.937L93.6408 108.992H92.6937ZM88.7155 108.237L89.6627 107.859L88.7155 107.292V108.237ZM83.9796 109.181L84.9267 108.803L83.9796 108.237V109.181ZM86.8211 105.781L86.4422 106.726H87.3894L86.8211 105.781ZM58.5951 123.535L59.1634 123.724V122.969L58.5951 123.535ZM60.1106 120.702L59.9211 121.269H60.6789L60.1106 120.702ZM65.6042 126.935H65.0359L65.2254 127.69L65.6042 126.935ZM62.9521 124.102L62.7627 124.668H63.5204L62.9521 124.102ZM74.1289 130.146L73.75 130.523L74.1289 130.901V130.146ZM58.2162 129.012L57.8373 128.635L57.4585 129.39L58.2162 129.012ZM83.4112 116.925L84.3584 117.302L84.169 115.98L83.4112 116.925ZM72.0451 111.825L73.75 113.525L74.1289 110.881L72.0451 111.825ZM60.8683 117.869L61.0577 118.813L62.0049 118.058L60.8683 117.869ZM82.4641 107.67L82.8429 108.426L83.6007 107.859L82.4641 107.67ZM89.8521 108.992L89.0943 109.559L90.231 110.125L89.8521 108.992ZM90.9887 105.97L89.8521 106.726L91.3676 107.67L90.9887 105.97ZM87.9577 106.537L86.6317 107.481L88.526 108.426L87.9577 106.537ZM81.138 110.692L80.7591 108.237L78.4859 109.181L81.138 110.692Z" data-darkreader-inline-fill="" style="--darkreader-inline-fill: var(--darkreader-background-ff593e, #a71700);"/>
<path fill="#FF593E" d="M83.9793 108.425L84.9265 107.67H83.6004L83.9793 108.425ZM82.2744 107.859L80.7589 108.237L82.4638 109.748L82.2744 107.859ZM75.4547 123.157V124.479L76.7807 123.913L75.4547 123.157ZM85.1159 106.348L84.9265 107.103H85.8737L85.1159 106.348ZM57.4582 123.724L57.2688 124.479L58.2159 124.291L57.4582 123.724ZM61.2469 117.68L60.6786 117.302V118.247L61.2469 117.68ZM54.8061 125.424H54.0483L54.4272 126.368L54.8061 125.424ZM56.1322 124.857V124.102L55.3744 124.668L56.1322 124.857ZM57.8371 118.058L58.5948 118.624V117.68L57.8371 118.058ZM62.9518 118.247L63.7096 119.002L64.0885 118.058L62.9518 118.247ZM62.3836 115.603L60.6786 116.358L62.3836 117.869V115.603ZM58.9737 119.569L58.5948 120.891L59.9209 120.702L58.9737 119.569Z" data-darkreader-inline-fill="" style="--darkreader-inline-fill: var(--darkreader-background-ff593e, #a71700);"/>
<path fill="#FF593E" d="M63.709 119.758L62.1935 119.002V120.891L63.709 119.758ZM58.5942 117.68L59.9203 118.436L60.1097 116.925L58.5942 117.68ZM53.29 123.535L52.5322 125.235H54.616L53.29 123.535ZM59.1625 121.835H57.8365L58.5942 123.157L59.1625 121.835ZM54.616 123.913L55.3738 124.291V123.346L54.616 123.913ZM58.2153 125.235L58.0259 126.179L58.9731 125.802L58.2153 125.235ZM55.7527 126.368L54.8055 126.557L55.1844 127.313L55.7527 126.368ZM74.8857 115.792L74.128 116.736L75.4541 116.925L74.8857 115.792Z" data-darkreader-inline-fill="" style="--darkreader-inline-fill: var(--darkreader-background-ff593e, #a71700);"/>
<path fill="#FF593E" d="M72.2343 113.714L71.2871 114.281L72.4237 115.036L72.2343 113.714ZM74.8864 112.392L74.1286 113.147L75.0758 113.336L74.8864 112.392ZM71.2871 116.547L70.7188 117.114L71.4765 117.68L71.2871 116.547ZM74.1286 115.98L74.6969 116.547L74.8864 115.603L74.1286 115.98ZM59.9209 118.813V120.324L61.4364 119.758L59.9209 118.813ZM65.0357 118.247V119.002L65.7934 118.813L65.0357 118.247ZM78.6751 110.314L79.4329 110.503L79.6223 109.559L78.6751 110.314ZM76.7807 112.203L77.349 112.392L77.7279 111.825L76.7807 112.203Z" data-darkreader-inline-fill="" style="--darkreader-inline-fill: var(--darkreader-background-ff593e, #a71700);"/>
<path fill="#FF593E" d="M66.3619 116.925L66.5513 117.491L67.1196 117.114L66.3619 116.925ZM72.4238 115.603L71.6661 116.358L72.8027 116.736L72.4238 115.603ZM70.9084 115.603L71.2872 114.28L69.7717 114.469L70.9084 115.603ZM74.3182 114.469H73.5605V115.225L74.3182 114.469ZM72.045 117.491L71.6661 117.869L72.4238 118.058L72.045 117.491ZM69.014 115.791L67.8774 114.658L67.1196 116.547L69.014 115.791ZM55.1851 127.501L55.9429 127.124L55.3745 126.557L55.1851 127.501ZM51.3964 131.09L51.9647 130.523L51.3964 130.146V131.09ZM52.7225 128.446L53.2908 128.257L52.533 127.69L52.7225 128.446ZM51.207 132.223L51.7753 132.79L51.9647 132.223H51.207ZM52.7225 130.523L53.4802 130.146L52.9119 129.579L52.7225 130.523ZM51.9647 126.179L52.9119 127.312L53.6696 125.99L51.9647 126.179ZM51.207 127.501L50.4492 129.201L52.7225 129.012L51.207 127.501ZM51.3964 131.279L51.0175 131.656L51.7753 131.845L51.3964 131.279ZM64.657 116.925L64.8464 117.68L65.6041 117.114L64.657 116.925ZM66.9302 113.714L65.2253 114.658L66.9302 115.98V113.714Z" data-darkreader-inline-fill="" style="--darkreader-inline-fill: var(--darkreader-background-ff593e, #a71700);"/>
<path fill="#FF593E" d="M66.3616 115.98L65.7933 116.169L66.3616 116.925V115.98ZM70.1503 120.702L69.0137 119.947L68.6348 121.458L70.1503 120.702ZM86.6313 109.559L86.063 109.937L86.8208 110.314L86.6313 109.559ZM84.9264 110.314L85.6841 109.937L84.9264 109.181V110.314ZM78.2961 116.547L79.8116 117.68L80.1905 115.414L78.2961 116.547ZM82.4637 112.392L83.6003 112.958V111.448L82.4637 112.392ZM76.4017 113.714L78.4856 113.903L77.5384 111.636L76.4017 113.714ZM69.582 119.002L70.7186 119.191L70.3398 117.869L69.582 119.002ZM81.706 110.881H82.8426L82.2743 109.559L81.706 110.881ZM90.42 109.37L92.5038 109.181L91.1778 107.104L90.42 109.37ZM85.6841 109.559L87.9574 109.181L86.6313 107.104L85.6841 109.559ZM78.4856 112.014L80.3799 112.958V110.503L78.4856 112.014ZM85.6841 114.847L84.7369 115.036L85.4947 115.792L85.6841 114.847ZM84.1687 109.181L82.4637 109.37L83.7898 110.881L84.1687 109.181ZM89.8517 105.404L88.1468 105.781L89.4729 107.104L89.8517 105.404ZM82.0848 113.903L81.3271 113.714L81.706 114.469L82.0848 113.903ZM67.3088 119.002L66.9299 118.436L66.5511 119.38L67.3088 119.002ZM70.1503 112.581L72.2341 114.281L71.8553 111.825L70.1503 112.581ZM74.1285 118.813L75.644 119.758L75.8334 117.869L74.1285 118.813ZM67.3088 113.714L69.582 115.414L69.3926 112.77L67.3088 113.714ZM77.1595 117.114L77.7278 117.491L77.9172 116.547L77.1595 117.114ZM58.5947 123.157L58.7841 124.102L59.5419 123.535L58.5947 123.157ZM75.8334 110.125L77.3489 111.448L77.1595 109.559L75.8334 110.125ZM76.2123 113.525L75.644 113.336L75.8334 114.092L76.2123 113.525Z" data-darkreader-inline-fill="" style="--darkreader-inline-fill: var(--darkreader-background-ff593e, #a71700);"/>
<path fill="#FF593E" d="M79.6225 113.714H78.8647L79.2436 114.469L79.6225 113.714ZM70.3401 124.102L70.9084 125.046L71.4767 124.102H70.3401ZM71.2873 121.646L70.9084 122.213L71.6661 122.402L71.2873 121.646ZM68.2563 119.38L68.0668 118.436L67.3091 119.002L68.2563 119.38Z" data-darkreader-inline-fill="" style="--darkreader-inline-fill: var(--darkreader-text-ff593e, #ff5f45);"/>
<path fill="#FF593E" d="M66.5507 123.724L65.9824 124.479H66.9296L66.5507 123.724ZM67.6873 118.625H66.5507L67.1191 119.758L67.6873 118.625Z" data-darkreader-inline-fill="" style="--darkreader-inline-fill: var(--darkreader-text-ff593e, #ff5f45);"/>
<path fill="#FF593E" d="M67.1193 118.247L67.3087 118.813L67.877 118.436L67.1193 118.247ZM65.6038 118.813L64.2777 119.002L65.2249 120.324L65.6038 118.813ZM63.8988 121.269L64.0883 122.213L64.846 121.646L63.8988 121.269ZM68.8242 121.835L69.3925 122.591L69.9608 121.835H68.8242ZM63.1411 123.346L63.52 124.29L64.2777 123.724L63.1411 123.346ZM66.7404 119.758L65.9827 120.135L66.7404 120.891V119.758ZM76.97 126.557L76.4017 126.179L76.2122 126.935L76.97 126.557ZM79.2432 110.881L78.296 111.07L78.8643 111.825L79.2432 110.881ZM66.3615 123.535L65.9827 122.968L65.6038 123.724L66.3615 123.535ZM72.2341 74.9955L72.4235 77.0731L74.3179 75.751L72.2341 74.9955ZM80.1904 91.8049L79.6221 91.0494L79.0538 91.9938L80.1904 91.8049ZM78.8643 90.4828L78.296 89.9162L77.9172 90.8605L78.8643 90.4828ZM84.7369 95.0157L85.4946 94.2602L84.5474 93.8825L84.7369 95.0157ZM77.3488 77.8285L76.2122 78.9618L77.9172 79.5284L77.3488 77.8285ZM81.7059 88.5941L80.7587 89.3496L81.7059 89.9162V88.5941ZM87.389 89.9162L85.8735 91.2383L87.7679 92.1826L87.389 89.9162Z" data-darkreader-inline-fill="" style="--darkreader-inline-fill: var(--darkreader-background-ff593e, #a71700);"/>
<path fill="#FF593E" d="M87.01 88.2164L85.4945 89.3496L87.3888 90.294L87.01 88.2164ZM69.3924 74.8067L67.8769 74.6178L68.4452 76.5065L69.3924 74.8067ZM67.6874 74.6178H65.7931L66.5508 76.5065L67.6874 74.6178ZM65.0353 78.0175L62.9515 79.1507L64.6565 80.8505L65.0353 78.0175ZM63.141 75.1844L61.436 75.751L62.5726 77.262L63.141 75.1844ZM84.1684 82.1726L83.0318 81.2282L82.2741 82.9281L84.1684 82.1726ZM78.2959 81.7949L78.6747 79.9062L76.9698 80.095L78.2959 81.7949ZM80.7586 83.4947L81.3269 81.9837H79.4325L80.7586 83.4947ZM82.2741 84.6279L81.8952 86.7055L84.1684 85.7611L82.2741 84.6279ZM84.5473 82.7392L83.2212 85.0056L86.0628 85.3834L84.5473 82.7392ZM80.7586 86.1389L79.8114 86.5166L80.5691 87.2721L80.7586 86.1389ZM68.824 81.606L68.0663 82.1726L69.0135 82.7392L68.824 81.606ZM66.1719 79.7173L65.6036 80.4728L66.5508 80.8505L66.1719 79.7173ZM66.7402 78.2063L65.9825 78.7729L66.7402 79.1507V78.2063ZM63.5198 80.2839L62.7621 81.0394L63.7093 81.4171L63.5198 80.2839ZM62.5726 79.3395L61.8149 79.9062L62.9515 80.2839L62.5726 79.3395Z" data-darkreader-inline-fill="" style="--darkreader-inline-fill: var(--darkreader-background-ff593e, #a71700);"/>
<path fill="#FF593E" d="M61.247 79.3397L60.6787 79.9063L61.6259 80.2841L61.247 79.3397ZM83.9794 95.0159L83.2217 95.5825L83.9794 96.1491V95.0159ZM85.8738 95.7714L84.9266 96.1491L85.6843 96.9046L85.8738 95.7714ZM82.2745 93.1272V93.8827L83.2217 93.3161L82.2745 93.1272ZM83.0322 89.5387L83.2217 90.483L83.9794 89.7276L83.0322 89.5387ZM85.8738 90.483L85.3055 89.5387L84.9266 90.483H85.8738ZM65.2252 83.306L65.6041 83.6837L65.9829 82.7394L65.2252 83.306ZM67.6879 79.9063L67.309 80.2841L68.0668 80.473L67.6879 79.9063ZM70.1505 87.0834L69.5822 86.7057L69.7717 87.65L70.1505 87.0834ZM69.7717 83.6837V84.2503H70.5294L69.7717 83.6837ZM74.5076 91.4274L73.9393 91.2385L74.1287 91.994L74.5076 91.4274ZM77.1597 91.6163V90.8608L76.4019 91.2385L77.1597 91.6163ZM79.054 88.9721L78.8646 89.9164L79.8118 89.7276L79.054 88.9721ZM81.7062 79.7175L81.1379 81.6062L83.2217 81.2284L81.7062 79.7175ZM68.4456 76.6956V77.8288L69.5822 77.451L68.4456 76.6956ZM86.6315 86.5168L85.8738 85.3836L84.9266 86.7057L86.6315 86.5168Z" data-darkreader-inline-fill="" style="--darkreader-inline-fill: var(--darkreader-background-ff593e, #a71700);"/>
<path fill="#FF593E" d="M87.0102 88.0276L86.6313 86.8943L85.3052 87.8387L87.0102 88.0276ZM87.389 94.638L87.5784 93.3159L85.6841 93.8825L87.389 94.638ZM81.1376 94.2603L80.9482 93.3159L80.1904 94.0714L81.1376 94.2603ZM84.358 85.5723L84.7369 86.7055L85.8735 85.7611L84.358 85.5723Z" data-darkreader-inline-fill="" style="--darkreader-inline-fill: var(--darkreader-text-ff593e, #ff5f45);"/>
<path fill="#FF593E" d="M83.4108 87.4608L83.6003 88.594L84.5475 87.8386L83.4108 87.4608ZM84.7369 86.5165V87.6497L85.6841 86.8942L84.7369 86.5165ZM78.1066 86.5165L77.5383 87.4608L78.4855 87.6497L78.1066 86.5165ZM86.4418 88.594L85.6841 87.8386L85.3052 88.9718L86.4418 88.594ZM62.194 78.0173L61.6256 78.7728L62.7623 79.1506L62.194 78.0173ZM62.0045 76.6953L61.4362 77.4507L62.3834 77.6396L62.0045 76.6953ZM59.9207 78.2062L61.0573 78.9617L61.2468 77.2619L59.9207 78.2062ZM59.163 78.0173L58.2158 78.7728L59.7313 79.3394L59.163 78.0173ZM69.7714 75.7509L69.2031 75.3732L69.0137 76.1287L69.7714 75.7509ZM59.7313 78.0173L59.5419 76.3175L57.8369 77.2619L59.7313 78.0173Z" data-darkreader-inline-fill="" style="--darkreader-inline-fill: var(--darkreader-background-ff593e, #a71700);"/>
<path fill="#FF593E" d="M61.2469 77.262V75.5622L59.542 76.5065L61.2469 77.262ZM66.3617 75.1844L67.1195 77.0731L68.4455 75.5622L66.3617 75.1844ZM66.7406 77.262L67.3089 78.5841L68.4455 77.4509L66.7406 77.262ZM70.3399 78.2064L70.7187 78.9618L71.4765 78.2064H70.3399Z" data-darkreader-inline-fill="" style="--darkreader-inline-fill: var(--darkreader-text-ff593e, #ff5f45);"/>
<path fill="#FF593E" d="M71.4764 75.5621L69.2032 76.6954L71.287 78.5841L71.4764 75.5621ZM65.6039 74.8067L64.0884 75.1844L65.0356 76.6954L65.6039 74.8067ZM71.8553 74.9955L69.5821 74.6178L70.3398 75.9399L71.8553 74.9955ZM70.5292 80.095L69.9609 79.5284L69.7715 80.4728L70.5292 80.095ZM65.225 78.7729L65.7933 79.5284L66.1722 78.3952L65.225 78.7729ZM64.8461 76.8842L66.1722 77.8286V75.751L64.8461 76.8842ZM59.3525 81.2282L58.7842 81.7949L59.5419 81.9837L59.3525 81.2282ZM64.2779 77.262L63.3307 76.8842L63.5201 78.3952L64.2779 77.262Z" data-darkreader-inline-fill="" style="--darkreader-inline-fill: var(--darkreader-text-ff593e, #ff5f45);"/>
<path fill="#FF593E" d="M64.657 76.5064L63.8992 75.3732L62.952 77.2619L64.657 76.5064ZM61.2471 81.9836L62.0048 82.5502L62.3837 81.7947L61.2471 81.9836ZM64.0887 84.8167L63.7098 85.5721H64.4675L64.0887 84.8167ZM57.0795 78.7728L56.1323 80.4727L57.8372 80.6615L57.0795 78.7728Z" data-darkreader-inline-fill="" style="--darkreader-inline-fill: var(--darkreader-text-ff593e, #ff5f45);"/>
<path fill="#FF593E" d="M57.6473 77.2622L56.1318 78.2065L57.6473 79.3397V77.2622ZM61.2466 84.817L60.6782 84.6281V85.5724L61.2466 84.817ZM58.5945 80.8507L59.3522 80.6618L58.9733 79.9064L58.5945 80.8507ZM63.7092 82.1728L64.2776 81.9839L64.0881 81.2284L63.7092 82.1728ZM54.2374 79.5286L55.7529 80.2841V78.3954L54.2374 79.5286ZM52.7219 80.6618L54.4268 81.4173L54.048 79.5286L52.7219 80.6618ZM51.2064 82.3617L53.2902 82.7394L52.343 81.0396L51.2064 82.3617ZM49.6909 84.0615L51.5853 84.6281L51.017 82.5505L49.6909 84.0615ZM62.9515 83.306L63.1409 84.0615L63.7092 83.4949L62.9515 83.306ZM64.8458 82.1728L65.793 82.3617L65.6036 81.2284L64.8458 82.1728ZM58.9733 82.7394V83.306L59.7311 82.9283L58.9733 82.7394ZM67.6874 82.9283L67.1191 83.1171L67.498 83.8726L67.6874 82.9283ZM66.7402 85.9502L65.9825 86.3279L66.5508 86.8945L66.7402 85.9502ZM72.8022 77.2622L72.6127 78.2065L73.5599 77.8288L72.8022 77.2622ZM78.2958 77.2622L76.4015 76.5067V78.5843L78.2958 77.2622ZM76.4015 76.3178L74.5071 75.7512V78.2065L76.4015 76.3178ZM75.2648 82.1728L74.5071 80.6618L73.1811 81.9839L75.2648 82.1728ZM81.8951 91.8051L81.7057 91.2385L80.9479 91.8051H81.8951ZM74.1282 80.2841L73.7494 79.7175L73.3705 80.2841H74.1282ZM79.8113 78.2065V80.2841L81.5163 79.5286L79.8113 78.2065Z" data-darkreader-inline-fill="" style="--darkreader-inline-fill: var(--darkreader-background-ff593e, #a71700);"/>
<path fill="#FF593E" d="M75.8333 84.0611L76.0228 85.0055L76.97 84.4389L75.8333 84.0611ZM78.1066 77.2618V79.1505L79.8115 78.2062L78.1066 77.2618ZM79.4326 85.1944V86.1387L80.3798 85.5721L79.4326 85.1944ZM79.2432 86.8942L79.0537 87.8385L80.0009 87.4608L79.2432 86.8942ZM84.1686 83.1168H83.2214L83.7897 83.8723L84.1686 83.1168ZM82.2742 82.7391L81.8953 82.1725L81.327 82.9279L82.2742 82.7391ZM81.7059 85.0055L81.5164 84.25L80.9481 85.0055H81.7059ZM84.358 92.7492L86.2523 93.1269L85.4946 91.2382L84.358 92.7492ZM83.6002 94.0712L82.6531 94.6379L83.6002 95.2045V94.0712ZM87.1995 95.9599L85.684 96.3377L86.8207 97.282L87.1995 95.9599ZM82.6531 96.9043L82.4636 98.2264L83.6002 97.4709L82.6531 96.9043ZM86.2523 92.3714L86.6312 93.3158L87.389 92.5603L86.2523 92.3714ZM85.684 95.0156L86.2523 95.9599L87.1995 95.0156H85.684ZM84.9263 97.4709L84.7368 96.7154L83.7897 97.282L84.9263 97.4709ZM84.5474 93.3158L84.1686 92.5603L83.6002 93.3158H84.5474ZM74.8861 86.1387L75.0756 87.0831L75.8333 86.5165L74.8861 86.1387ZM78.8643 83.4945L78.1066 83.8723L78.4855 84.25L78.8643 83.4945ZM77.7277 90.2939L77.3488 89.7272L76.97 90.2939H77.7277ZM55.1848 88.594L54.6164 88.4052L54.9953 89.1606L55.1848 88.594ZM60.6784 91.6159H60.1101L60.489 92.1825L60.6784 91.6159ZM52.3432 102.004H51.7749L52.1538 102.57L52.3432 102.004ZM54.2376 95.2045H53.6693L54.0481 95.7711L54.2376 95.2045ZM63.1411 91.0493L62.9516 90.4827L62.3834 90.8605L63.1411 91.0493ZM53.6693 98.0375L53.4798 97.4709L52.9115 97.8486L53.6693 98.0375ZM57.458 90.8605L57.2685 90.2939L56.7003 90.8605H57.458ZM59.5418 86.3276L59.9207 87.2719L60.489 86.5165L59.5418 86.3276ZM63.3305 89.7272L62.7622 89.1606L62.5728 89.9161L63.3305 89.7272ZM83.4108 84.6278L83.2214 83.8723L82.6531 84.4389L83.4108 84.6278ZM79.6221 81.7947L78.1066 81.2281L78.296 83.3057L79.6221 81.7947Z" data-darkreader-inline-fill="" style="--darkreader-inline-fill: var(--darkreader-background-ff593e, #a71700);"/>
<path fill="#FF593E" d="M80.1905 81.0392L79.2433 80.6614V81.7947L80.1905 81.0392ZM71.8553 82.3613L72.0448 81.4169L71.0976 81.6058L71.8553 82.3613ZM72.2342 78.7727L70.3398 80.0948L72.2342 81.228V78.7727ZM71.4764 78.2061L70.9082 78.5839L71.6659 78.9616L71.4764 78.2061ZM73.1814 82.1724L72.8025 82.9279H73.3708L73.1814 82.1724ZM75.0758 78.9616L74.6969 78.395L74.318 79.3394L75.0758 78.9616ZM76.2124 77.6395L75.4546 76.6952L74.8863 78.0173L76.2124 77.6395ZM74.5074 76.884L73.7497 75.9397L73.1814 77.2618L74.5074 76.884ZM80.1905 79.1505L79.2433 78.2061L78.675 79.5282L80.1905 79.1505ZM81.706 80.4726L80.9483 79.5282L80.38 80.8503L81.706 80.4726ZM76.5913 81.0392V80.2837L75.6441 80.4726L76.5913 81.0392ZM75.0758 83.4945V82.739L74.318 82.9279L75.0758 83.4945Z" data-darkreader-inline-fill="" style="--darkreader-inline-fill: var(--darkreader-text-ff593e, #ff5f45);"/>
<path fill="#FF593E" d="M75.8334 80.8502L76.0228 81.9834L77.1594 81.0391L75.8334 80.8502ZM80.5693 83.8721L81.1376 84.8165L81.7059 83.4944L80.5693 83.8721ZM68.2559 78.5838L69.0137 79.3393L69.3925 78.2061L68.2559 78.5838ZM72.9918 79.9059L73.3707 80.8502L73.939 80.2836L72.9918 79.9059ZM80.0009 82.1723L79.2432 82.5501L79.8115 82.9278L80.0009 82.1723ZM77.5383 83.1167L76.97 82.5501L76.5911 83.4944L77.5383 83.1167ZM79.4327 85.572L79.0538 84.8165L78.6749 85.7608L79.4327 85.572ZM73.1813 84.6276L72.4235 84.8165L73.1813 85.3831V84.6276ZM80.5693 84.061L80.1904 83.4944L79.8115 84.4388L80.5693 84.061ZM82.0848 91.0492L81.327 91.6158L82.2742 92.1824L82.0848 91.0492ZM81.1376 87.4607L80.7587 88.405L81.7059 88.2161L81.1376 87.4607ZM83.9791 88.5939L83.7897 89.3494L84.7369 88.9716L83.9791 88.5939ZM83.9791 88.405L83.0319 88.2161L83.4108 88.9716L83.9791 88.405ZM82.8425 87.2718V86.7052L81.8953 87.2718H82.8425ZM83.6003 89.5382L83.2214 88.7828L82.8425 89.7271L83.6003 89.5382ZM84.7369 87.6495L84.358 87.0829L83.7897 87.8384L84.7369 87.6495ZM72.0446 83.8721L71.6658 83.1167L70.908 83.8721H72.0446ZM48.9334 102.948L50.2594 101.437L48.1756 100.493L48.9334 102.948ZM59.1629 81.228L60.6784 82.3612L61.4362 80.4725L59.1629 81.228ZM52.5327 83.1167L53.4798 83.4944V82.1723L52.5327 83.1167ZM57.8369 81.0391L58.0263 82.1723L58.9735 81.4168L57.8369 81.0391ZM46.8496 89.7271L46.4707 91.0492L48.7439 90.8603L46.8496 89.7271ZM48.9334 97.2819L48.1756 97.093L48.3651 98.0374L48.9334 97.2819ZM50.6383 92.9379L49.1228 92.749L49.6911 94.4488L50.6383 92.9379ZM49.8806 88.9716L50.6383 88.405L49.6911 87.6495L49.8806 88.9716ZM50.6383 91.8047L51.2066 92.749L51.7749 91.8047H50.6383ZM67.4982 84.2499L67.3087 85.1942L68.2559 84.6276L67.4982 84.2499ZM55.3742 86.3275L55.1848 87.0829L55.9425 86.8941L55.3742 86.3275ZM54.6165 87.0829L53.8587 87.4607L54.6165 88.0273V87.0829ZM53.4798 85.3831L54.0482 86.1386L54.2376 85.3831H53.4798ZM58.0263 86.1386L57.458 86.7052L58.4052 86.8941L58.0263 86.1386ZM59.1629 83.4944L59.7313 84.4388L60.1101 83.3055L59.1629 83.4944Z" data-darkreader-inline-fill="" style="--darkreader-inline-fill: var(--darkreader-background-ff593e, #a71700);"/>
<path fill="#FF593E" d="M54.9953 83.3059L55.9425 82.9281L54.8059 82.3615L54.9953 83.3059ZM51.7749 85.1946L52.3432 84.628L51.3961 84.4391L51.7749 85.1946ZM52.7221 81.2283L52.5327 82.1727H53.4798L52.7221 81.2283ZM54.427 92.5605H55.3742L54.6165 91.4273L54.427 92.5605ZM46.4707 93.316L48.7439 92.5605L46.4707 91.0495V93.316ZM49.6911 84.4391L50.4489 85.0057L50.8277 84.2502L49.6911 84.4391ZM56.3214 83.8725L55.5637 84.628L56.8897 85.0057L56.3214 83.8725ZM56.8897 80.8506L55.9425 81.7949L57.458 82.3615L56.8897 80.8506Z" data-darkreader-inline-fill="" style="--darkreader-inline-fill: var(--darkreader-text-ff593e, #ff5f45);"/>
<path fill="#FF593E" d="M54.0482 81.795L52.9116 82.9283L54.806 83.6837L54.0482 81.795ZM50.2595 87.4611L48.5546 85.7613L47.418 87.8389L50.2595 87.4611ZM51.3961 84.4392L51.9645 83.4949L50.8278 84.0615L51.3961 84.4392ZM49.6912 84.4392L48.5546 85.5724L50.8278 85.9502L49.6912 84.4392ZM49.5018 100.493L49.8806 101.437L51.0173 100.493H49.5018ZM51.775 82.1728V82.9283L52.7222 82.5505L51.775 82.1728ZM50.2595 94.0716L50.449 95.2048L51.5856 94.4493L50.2595 94.0716ZM48.1757 94.0716L48.3652 95.0159L49.5018 94.2604L48.1757 94.0716Z" data-darkreader-inline-fill="" style="--darkreader-inline-fill: var(--darkreader-background-ff593e, #a71700);"/>
<path fill="#FF593E" d="M47.9858 91.6161V92.7493L48.7436 92.1827L47.9858 91.6161ZM50.0697 96.1489V97.0933L51.0168 96.7156L50.0697 96.1489ZM49.8802 94.8269L50.6379 94.638L50.0697 93.8825L49.8802 94.8269ZM48.3647 88.5942L49.1225 88.2164L48.5542 87.4609L48.3647 88.5942ZM49.1225 90.1051L49.6908 89.9162L49.3119 89.1608L49.1225 90.1051ZM48.5542 100.682H49.1225L48.933 99.9263L48.5542 100.682ZM48.5542 95.5823L48.3647 96.7156L49.5013 96.1489L48.5542 95.5823Z" data-darkreader-inline-fill="" style="--darkreader-inline-fill: var(--darkreader-text-ff593e, #ff5f45);"/>
<path fill="#FF593E" d="M49.3123 96.1489L48.3651 95.2046L47.7968 96.5267L49.3123 96.1489ZM49.1229 93.5048L48.3651 94.0714L48.9334 94.4491L49.1229 93.5048ZM51.0172 98.0376V98.6042L51.775 98.2265L51.0172 98.0376ZM50.8278 102.948L49.6912 103.893L51.3961 104.648L50.8278 102.948ZM56.5109 96.1489H57.2686L56.7003 95.2046L56.5109 96.1489ZM47.2285 98.4154L47.7968 100.304L49.3123 98.982L47.2285 98.4154ZM49.3123 97.471L49.5017 98.2265L50.2595 97.6599L49.3123 97.471ZM53.2905 98.2265L51.9644 98.6042L52.7222 99.7375L53.2905 98.2265ZM53.101 85.0056L52.5327 85.5722H53.4799L53.101 85.0056Z" data-darkreader-inline-fill="" style="--darkreader-inline-fill: var(--darkreader-background-ff593e, #a71700);"/>
<path fill="#FF593E" d="M53.1012 85.7609L53.6695 85.1943L52.5329 85.0054L53.1012 85.7609ZM50.828 93.6934L52.7223 94.0712L51.9646 91.8047L50.828 93.6934ZM51.5857 88.7828H52.9118L52.3435 87.4607L51.5857 88.7828ZM49.8808 91.6159L51.3963 90.1049L49.123 89.3494L49.8808 91.6159ZM49.8808 99.9261L50.828 99.3595L49.6913 98.6041L49.8808 99.9261ZM50.2596 87.6496L51.3963 87.2719L50.4491 86.3275L50.2596 87.6496ZM56.8899 84.25L58.9737 83.6834L57.2688 81.9835L56.8899 84.25ZM52.3435 85.0054L54.4272 84.4388L52.7223 82.739L52.3435 85.0054Z" data-darkreader-inline-fill="" style="--darkreader-inline-fill: var(--darkreader-background-ff593e, #a71700);"/>
<path fill="#FF593E" d="M50.07 88.7832L52.1538 88.0277L50.2594 86.3279L50.07 88.7832ZM53.1009 90.483L52.1538 90.6719L52.9115 91.4273L53.1009 90.483ZM51.9643 85.1946L50.4488 86.139L52.3432 86.8945L51.9643 85.1946ZM55.7531 80.4729L54.0481 81.0395L55.5636 82.1727L55.7531 80.4729ZM51.9643 90.2941L51.2066 90.483L51.9643 91.0496V90.2941ZM65.4143 87.2722H64.6566L65.0355 88.0277L65.4143 87.2722ZM46.4707 95.2047L48.7439 94.0715L46.2812 93.5049L46.4707 95.2047ZM51.5854 96.7157L53.2904 96.3379L52.1538 94.827L51.5854 96.7157ZM47.2284 98.0378L49.1228 96.1491H46.4707L47.2284 98.0378ZM52.9115 94.2604H53.6693L53.2904 93.316L52.9115 94.2604ZM47.039 89.3498H48.7439L47.4179 88.0277L47.039 89.3498ZM49.6911 91.4273L48.9333 91.8051L49.6911 92.1828V91.4273ZM54.0481 89.5386L53.2904 90.1053L54.0481 90.483V89.5386ZM61.4362 87.2722V88.0277L62.1939 87.8388L61.4362 87.2722ZM57.8369 93.316L57.0791 92.7494L56.8897 93.6938L57.8369 93.316ZM57.458 84.4392L56.7003 85.3835L58.0263 85.7612L57.458 84.4392Z" data-darkreader-inline-fill="" style="--darkreader-inline-fill: var(--darkreader-background-ff593e, #a71700);"/>
<path fill="#FF593E" d="M55.3745 85.1946L54.6167 85.9501L55.7534 86.3278L55.3745 85.1946ZM51.3963 100.682L51.9646 101.06V100.304L51.3963 100.682ZM53.6695 100.682L54.6167 100.871L54.4273 99.9264L53.6695 100.682ZM58.0266 88.4054V89.1608H58.9738L58.0266 88.4054ZM49.6914 87.461L49.3125 88.4054H50.2597L49.6914 87.461Z" data-darkreader-inline-fill="" style="--darkreader-inline-fill: var(--darkreader-background-ff593e, #a71700);"/>
<path fill="#AF2500" d="M122.055 128.635L121.108 126.746L119.782 128.257L122.055 128.635ZM100.081 120.325V121.458L101.217 120.891L100.081 120.325ZM106.711 121.458L107.658 121.836L107.469 120.703L106.711 121.458ZM101.407 119.38L101.217 120.514L102.543 120.136L101.407 119.38ZM115.235 125.802L115.804 124.669L114.478 124.48L115.235 125.802ZM127.17 128.824H130.39L129.254 126.369L127.17 128.824Z" data-darkreader-inline-fill="" style="--darkreader-inline-fill: var(--darkreader-background-af2500, #8c1e00);"/>
<path fill="#AF2500" d="M125.275 128.824H127.359L126.033 127.124L125.275 128.824ZM129.443 124.48L130.39 123.536L129.064 123.158L129.443 124.48Z" data-darkreader-inline-fill="" style="--darkreader-inline-fill: var(--darkreader-text-af2500, #ff7652);"/>
<path fill="#AF2500" d="M123.57 128.824H125.465L124.707 126.746L123.57 128.824ZM106.332 125.424L107.658 125.802L107.279 124.48L106.332 125.424ZM113.341 123.347V124.48L114.288 124.102L113.341 123.347ZM109.931 123.347L110.12 124.48L111.257 123.913L109.931 123.347ZM105.006 122.213L104.058 121.458L103.49 122.591L105.006 122.213ZM105.385 123.724L106.142 122.969L104.816 122.591L105.385 123.724ZM97.2387 120.136L97.807 119.38L96.6704 119.003L97.2387 120.136ZM134.558 126.18L135.126 125.613L133.989 125.047L134.558 126.18ZM125.465 126.557L126.223 125.613L124.896 125.424L125.465 126.557ZM103.111 122.402L102.354 121.836L101.975 122.969L103.111 122.402ZM136.452 127.502L135.884 126.935L135.694 127.691L136.452 127.502ZM124.139 124.48L124.328 123.724H123.57L124.139 124.48ZM114.856 119.003H115.425L115.046 118.436L114.856 119.003ZM99.7014 122.025L99.8908 121.269L98.9436 121.458L99.7014 122.025ZM108.605 116.17H109.173L108.794 115.414L108.605 116.17ZM110.12 118.436H110.689L110.31 117.681L110.12 118.436Z" data-darkreader-inline-fill="" style="--darkreader-inline-fill: var(--darkreader-background-af2500, #8c1e00);"/>
<path fill="#AF2500" d="M99.1338 117.87L99.5127 118.436L99.8915 117.87H99.1338ZM106.901 117.87L107.09 118.436L107.658 117.87H106.901ZM104.059 121.269L103.491 119.947L102.544 121.08L104.059 121.269ZM109.932 126.369L109.553 124.291L107.469 125.802L109.932 126.369ZM122.434 126.18L122.056 125.047L120.919 125.991L122.434 126.18ZM101.028 123.158L101.975 122.214L100.649 121.458L101.028 123.158ZM102.544 124.291L102.354 122.591L100.839 123.536L102.544 124.291ZM107.09 122.78L107.469 121.836H106.332L107.09 122.78ZM130.959 124.291L131.717 123.347L130.58 123.158L130.959 124.291ZM125.087 124.291L126.034 124.669L125.844 123.724L125.087 124.291ZM123.95 126.558L124.897 126.935L124.708 125.991L123.95 126.558ZM128.118 124.102L128.875 124.669V123.724L128.118 124.102Z" data-darkreader-inline-fill="" style="--darkreader-inline-fill: var(--darkreader-background-af2500, #8c1e00);"/>
<path fill="#AF2500" d="M126.034 124.291V125.235L126.981 124.857L126.034 124.291ZM128.875 123.158L128.496 122.024L127.739 123.158H128.875ZM121.108 126.368L120.54 125.424L119.972 126.557L121.108 126.368ZM123.003 125.424L123.571 124.857L122.624 124.48L123.003 125.424ZM122.056 128.635H123.571L123.003 126.935L122.056 128.635ZM127.739 125.046L128.307 124.291L127.36 124.102L127.739 125.046ZM120.161 121.08L120.919 121.458V120.513L120.161 121.08ZM123.95 125.235L124.708 125.613V124.669L123.95 125.235ZM131.149 124.857L130.391 124.102L129.633 125.235L131.149 124.857ZM128.118 125.991L128.686 125.424L127.549 125.046L128.118 125.991ZM131.527 124.857L132.475 125.424V124.48L131.527 124.857ZM127.36 126.18L126.602 125.235L126.223 126.368L127.36 126.18ZM128.496 127.69L127.17 126.557L126.602 128.257L128.496 127.69ZM126.413 127.313L125.465 126.368L125.087 127.69L126.413 127.313ZM132.475 123.724L132.853 122.969L131.906 122.78L132.475 123.724ZM104.817 122.024L105.764 122.402V121.269L104.817 122.024ZM110.879 122.969L112.205 122.78L111.447 121.647L110.879 122.969ZM111.068 126.18L112.205 125.802L111.637 124.669L111.068 126.18ZM109.932 126.368L110.879 126.746V125.613L109.932 126.368ZM113.342 124.102H114.478L113.72 122.969L113.342 124.102ZM111.637 123.913L111.447 122.969L110.689 123.724L111.637 123.913ZM132.475 128.635L131.527 127.124L130.391 128.824L132.475 128.635ZM119.593 128.446L119.025 125.991L116.751 127.879L119.593 128.446ZM120.351 123.346V122.591L119.593 122.969L120.351 123.346Z" data-darkreader-inline-fill="" style="--darkreader-inline-fill: var(--darkreader-background-af2500, #8c1e00);"/>
<path fill="#AF2500" d="M103.49 124.48L103.301 123.724L102.543 124.291L103.49 124.48ZM106.332 125.424L105.953 124.669L105.385 125.047L106.332 125.424ZM119.024 125.424L118.834 124.48L117.887 125.047L119.024 125.424ZM117.13 126.557L116.372 125.235L115.425 126.935L117.13 126.557ZM111.636 124.48L112.583 124.291L112.015 123.347L111.636 124.48ZM111.825 126.18L112.773 125.991L112.015 125.047L111.825 126.18ZM113.72 125.235L112.962 125.991L113.72 126.18V125.235Z" data-darkreader-inline-fill="" style="--darkreader-inline-fill: var(--darkreader-background-af2500, #8c1e00);"/>
<path fill="#AF2500" d="M112.962 125.802L112.015 126.935L113.152 127.124L112.962 125.802ZM110.31 124.48L110.689 125.424L111.447 124.48H110.31ZM112.962 122.969L113.909 122.591L113.341 121.647L112.962 122.969ZM115.425 124.858L115.993 125.613L116.561 124.858H115.425ZM129.443 125.802L128.117 125.991L128.685 127.313L129.443 125.802ZM133.99 125.802L132.664 125.991L133.611 127.313L133.99 125.802ZM135.126 125.991L134.558 126.746L135.505 126.935L135.126 125.991ZM134.558 128.446L135.695 128.068L134.558 126.935V128.446ZM134.369 124.669H133.232L133.8 125.613L134.369 124.669ZM131.338 126.746L130.959 125.613L130.39 126.18L131.338 126.746ZM131.148 128.068L130.201 126.557L129.443 127.691L131.148 128.068ZM131.716 128.068L133.421 127.313L131.906 125.991L131.716 128.068Z" data-darkreader-inline-fill="" style="--darkreader-inline-fill: var(--darkreader-background-af2500, #8c1e00);"/>
<path fill="#AF2500" d="M132.854 128.635L134.18 128.446L133.232 127.313L132.854 128.635ZM120.919 125.236L120.54 124.102L119.593 124.858L120.919 125.236ZM123.761 127.691L123.382 126.369L122.245 127.124L123.761 127.691ZM116.373 127.502L115.994 126.369L115.047 127.124L116.373 127.502ZM116.941 126.369L118.078 125.802L116.751 125.047L116.941 126.369ZM119.214 126.369L119.972 125.802L119.214 125.424V126.369ZM116.562 127.88L118.078 127.124L116.751 126.369L116.562 127.88ZM119.782 127.691L120.54 127.124L119.593 126.746L119.782 127.691ZM115.615 121.08L116.183 121.647L116.373 120.703L115.615 121.08ZM101.218 121.269L101.975 121.647L102.165 120.703L101.218 121.269ZM101.407 121.836L100.46 121.08L100.271 122.214L101.407 121.836ZM108.416 123.158L108.037 121.836L106.901 122.969L108.416 123.158Z" data-darkreader-inline-fill="" style="--darkreader-inline-fill: var(--darkreader-background-af2500, #8c1e00);"/>
<path fill="#AF2500" d="M107.279 124.102L106.711 122.969L105.763 124.102H107.279ZM107.847 122.402L108.794 122.969L108.984 121.836L107.847 122.402ZM105.006 121.08L105.763 121.458L105.953 120.703L105.006 121.08ZM120.918 126.558L121.865 127.502L122.244 125.802L120.918 126.558ZM92.8817 139.401L90.9873 140.156L92.1239 141.289L92.8817 139.401ZM93.2605 138.079L93.8289 136.19L91.7451 136.568L93.2605 138.079Z" data-darkreader-inline-fill="" style="--darkreader-inline-fill: var(--darkreader-background-af2500, #8c1e00);"/>
<path fill="#AF2500" d="M91.1772 137.134L91.5561 136.379H90.6089L91.1772 137.134ZM92.8821 139.401L93.261 138.079L91.3666 138.267L92.8821 139.401Z" data-darkreader-inline-fill="" style="--darkreader-inline-fill: var(--darkreader-text-af2500, #ff7652);"/>
<path fill="#AF2500" d="M91.9349 141.667L89.4722 141.289L90.9877 143.178L91.9349 141.667ZM92.3137 137.512L90.7982 137.701L91.556 139.023L92.3137 137.512Z" data-darkreader-inline-fill="" style="--darkreader-inline-fill: var(--darkreader-text-af2500, #ff7652);"/>
<path fill="#AF2500" d="M91.5555 141.478L91.1767 140.722L90.6084 141.478H91.5555ZM90.6084 140.156L91.745 139.4L90.04 138.834L90.6084 140.156ZM112.204 126.935L111.825 125.802L110.878 126.746L112.204 126.935ZM114.288 119.947L114.098 119.002L113.151 119.758L114.288 119.947ZM115.614 127.69L114.856 125.613L113.151 127.124L115.614 127.69ZM109.741 123.913L109.363 122.78L108.605 123.724L109.741 123.913Z" data-darkreader-inline-fill="" style="--darkreader-inline-fill: var(--darkreader-background-af2500, #8c1e00);"/>
<path fill="#AF2500" d="M110.499 123.158L110.121 122.214L109.173 122.969L110.499 123.158ZM103.68 124.669L105.195 125.047V123.536L103.68 124.669ZM107.658 124.102L108.226 124.858L108.605 123.914L107.658 124.102ZM94.0185 132.602L94.2079 131.279L92.8818 131.846L94.0185 132.602Z" data-darkreader-inline-fill="" style="--darkreader-inline-fill: var(--darkreader-background-af2500, #8c1e00);"/>
<path fill="#AF2500" d="M94.3972 128.824L92.5028 129.58L94.2077 131.279L94.3972 128.824ZM94.2077 133.546L93.6394 133.924L94.0183 134.49L94.2077 133.546ZM92.5028 132.413L91.5556 132.79L92.5028 133.924V132.413ZM91.9345 129.391L90.9873 129.957L91.9345 130.524V129.391ZM93.8289 136.19L94.2077 134.679L92.6923 134.868L93.8289 136.19ZM92.6923 131.279L93.2605 130.524H92.3134L92.6923 131.279ZM94.3972 125.991V124.858L93.45 125.424L94.3972 125.991Z" data-darkreader-inline-fill="" style="--darkreader-inline-fill: var(--darkreader-text-af2500, #ff7652);"/>
<path fill="#AF2500" d="M94.3973 125.991L93.8289 126.558L94.3973 126.935V125.991ZM92.8818 125.424L91.9346 126.369L93.2606 126.935L92.8818 125.424ZM94.3973 123.725L93.6395 124.291L94.3973 124.669V123.725ZM94.3973 128.824V127.313L93.0712 127.691L94.3973 128.824ZM92.5029 125.047L93.0712 124.291H91.9346L92.5029 125.047ZM103.49 123.347L104.437 123.914L104.627 122.969L103.49 123.347ZM95.7233 121.269V119.381L94.0184 120.325L95.7233 121.269ZM103.49 119.192L103.111 118.059L102.354 118.814L103.49 119.192ZM101.975 117.303L102.543 117.114L101.975 116.548V117.303ZM100.838 118.625L101.217 118.436L100.838 117.87V118.625ZM99.1332 119.381L98.5648 118.436L97.9965 119.381H99.1332ZM111.257 121.269L111.825 120.892L111.068 120.325L111.257 121.269ZM116.561 123.158L116.372 124.291L117.508 123.914L116.561 123.158ZM112.962 125.613L113.341 124.669L112.015 124.48L112.962 125.613Z" data-darkreader-inline-fill="" style="--darkreader-inline-fill: var(--darkreader-background-af2500, #8c1e00);"/>
<path fill="#AF2500" d="M116.562 123.158L117.888 122.78L116.941 121.647L116.562 123.158ZM118.077 123.725L117.888 122.969L117.13 123.725H118.077ZM120.161 123.347L120.919 122.969L120.351 122.214L120.161 123.347ZM123.192 123.913L123.003 122.78L122.056 123.536L123.192 123.913ZM116.183 120.325L115.804 119.381L114.857 120.325H116.183ZM106.332 120.703L105.953 119.947L105.006 120.703H106.332ZM109.363 120.703L108.984 119.758L108.037 120.514L109.363 120.703ZM122.624 125.047L122.245 124.102L121.298 124.858L122.624 125.047ZM118.456 121.836L119.214 121.458L118.267 120.892L118.456 121.836ZM114.857 123.347L115.425 123.913L115.994 122.969L114.857 123.347ZM102.544 122.969L103.112 123.347L103.491 122.402L102.544 122.969ZM98.7549 121.269L99.5126 120.703L98.1866 120.136L98.7549 121.269ZM96.6711 121.647L96.8605 120.703L95.7239 121.269L96.6711 121.647ZM99.3232 122.969L99.1337 122.214L98.376 122.591L99.3232 122.969ZM100.839 123.536L100.46 122.214L99.3232 123.158L100.839 123.536ZM96.8605 121.836L98.1866 122.591L98.5654 121.08L96.8605 121.836ZM96.8605 120.514L97.6182 121.269L97.9971 120.514H96.8605ZM96.1027 119.947L96.4816 120.514L97.0499 119.758L96.1027 119.947ZM116.941 119.758L117.509 120.514L117.888 119.381L116.941 119.758ZM85.4943 144.123L85.6837 142.8L86.8204 143.367L85.4943 144.123ZM83.9788 144.311L84.1683 142.989L85.4943 143.556L83.9788 144.311ZM86.4415 145.633L86.6309 144.311L87.7676 145.067L86.4415 145.633ZM84.3577 146.578L85.1155 145.445L86.4415 146.767L84.3577 146.578ZM82.0845 146.2L83.4105 144.878L83.9788 146.578L82.0845 146.2ZM94.019 120.325L93.2612 119.947L94.2084 119.192L94.019 120.325ZM89.283 135.435L88.3359 134.868L89.0936 133.924L89.283 135.435ZM90.2302 140.912L88.7147 140.156L90.0408 138.645L90.2302 140.912ZM91.7457 137.323L90.4197 138.456L89.6619 136.568L91.7457 137.323ZM93.2612 119.758L92.5035 119.381L93.2612 118.814V119.758ZM94.2084 123.725L93.4506 123.347L94.2084 122.78V123.725ZM73.9387 143.367L72.6126 143.178L73.5598 142.045L73.9387 143.367ZM72.2338 142.989H70.9077L71.6654 141.856L72.2338 142.989Z" data-darkreader-inline-fill="" style="--darkreader-inline-fill: var(--darkreader-background-af2500, #8c1e00);"/>
<path fill="#AF2500" d="M94.0187 132.79L93.0715 133.357L92.8821 132.223L94.0187 132.79ZM83.4103 138.834L84.168 139.589L83.2208 139.967L83.4103 138.834ZM90.0405 131.846L90.9877 132.601L89.8511 132.979L90.0405 131.846ZM90.7983 129.579L90.4194 128.446L91.9349 128.635L90.7983 129.579ZM87.5779 129.013H86.6307L87.0096 128.068L87.5779 129.013ZM76.0222 144.122L74.5067 143.556L76.0222 142.045V144.122ZM94.587 119.003L95.5342 118.247L95.9131 119.38L94.587 119.003ZM100.46 116.358L101.028 116.547V115.792L100.46 116.358ZM104.438 117.869L105.006 118.247V117.492L104.438 117.869ZM94.2081 122.402V122.78L93.6398 122.591L94.2081 122.402ZM72.8018 136.001L72.2335 136.567L72.0441 135.812L72.8018 136.001ZM72.2335 140.723L71.6652 140.156L72.4229 139.778L72.2335 140.723ZM71.0969 142.989L69.9603 142.422L70.9075 141.478L71.0969 142.989ZM69.0131 142.234L67.8765 141.667L68.8236 140.723L69.0131 142.234ZM77.9166 143.556L77.3483 142.989L78.106 142.611L77.9166 143.556ZM74.1279 130.524L73.5596 130.901V130.146L74.1279 130.524ZM93.4504 118.247L92.8821 118.436V117.869L93.4504 118.247ZM91.9349 116.736L92.3138 117.303H91.556L91.9349 116.736Z" data-darkreader-inline-fill="" style="--darkreader-inline-fill: var(--darkreader-background-af2500, #8c1e00);"/>
<path fill="#AF2500" d="M94.0191 117.87L93.4508 118.247V117.492L94.0191 117.87ZM90.4198 116.925L90.7987 117.492H90.0409L90.4198 116.925ZM92.3141 123.724V122.969L93.0719 123.347L92.3141 123.724ZM89.662 134.112L88.9043 133.357L90.2303 132.979L89.662 134.112ZM92.5036 132.412L91.5564 131.657L92.8824 131.09L92.5036 132.412ZM91.1775 134.49L90.4198 133.735L91.7458 133.357L91.1775 134.49ZM93.4508 128.068L92.3141 128.257L92.693 126.935L93.4508 128.068ZM96.6712 117.681L95.9134 118.436L95.724 117.303L96.6712 117.681Z" data-darkreader-inline-fill="" style="--darkreader-inline-fill: var(--darkreader-background-af2500, #8c1e00);"/>
<path fill="#AF2500" d="M92.3135 129.391L92.5029 127.88L93.6396 128.635L92.3135 129.391Z" data-darkreader-inline-fill="" style="--darkreader-inline-fill: var(--darkreader-text-af2500, #ff7652);"/>
<path fill="#AF2500" d="M91.9352 129.202L92.1246 128.068L93.2612 128.824L91.9352 129.202ZM87.957 139.023L87.0098 138.456L87.957 137.512V139.023ZM80.0007 143.745L79.8112 142.611L81.5162 143.178L80.0007 143.745ZM79.4324 143.367L78.1063 142.611L79.4324 141.667V143.367ZM77.9169 145.067L76.5908 144.311L77.9169 143.367V145.067Z" data-darkreader-inline-fill="" style="--darkreader-inline-fill: var(--darkreader-background-af2500, #8c1e00);"/>
<path fill="#AF2500" d="M78.2949 145.634L77.7266 145.067L79.6209 144.123L78.2949 145.634ZM81.3259 144.689L79.8104 144.5L81.3259 142.989V144.689Z" data-darkreader-inline-fill="" style="--darkreader-inline-fill: var(--darkreader-text-af2500, #ff7652);"/>
<path fill="#AF2500" d="M80.7583 144.5L80.9477 146.011L78.6745 145.634L80.7583 144.5ZM64.6562 144.311L63.8984 144.123L64.4668 143.367L64.6562 144.311ZM88.5252 135.623L87.578 136.19L87.3886 134.868L88.5252 135.623ZM90.609 136.568L89.0935 137.323V135.623L90.609 136.568ZM89.4724 138.268L88.5252 138.645V137.512L89.4724 138.268ZM77.5379 143.367L76.5907 144.123L76.4013 142.989L77.5379 143.367ZM79.0534 143.745L78.1062 144.5L77.9168 143.367L79.0534 143.745ZM83.5998 144.311L81.8949 145.822L82.0844 143.745L83.5998 144.311ZM86.6308 133.546L86.2519 132.979H87.1991L86.6308 133.546ZM82.4632 131.091L82.0844 130.335H83.0315L82.4632 131.091ZM82.6527 140.723L82.2738 139.967L83.0315 139.779L82.6527 140.723ZM90.609 127.691L90.2301 127.124L90.7984 126.935L90.609 127.691ZM92.1245 131.091L91.5562 130.335L92.5034 130.146L92.1245 131.091ZM86.2519 137.512L85.8731 136.757L86.8203 136.568L86.2519 137.512ZM86.6308 146.956L85.4942 145.256L88.1463 146.2L86.6308 146.956ZM86.2519 142.8L87.9569 142.612L87.1991 144.123L86.2519 142.8Z" data-darkreader-inline-fill="" style="--darkreader-inline-fill: var(--darkreader-background-af2500, #8c1e00);"/>
<path fill="#AF2500" d="M84.9257 144.311L86.4412 144.122L85.6835 145.633L84.9257 144.311ZM88.1461 133.357V134.112H87.199L88.1461 133.357ZM87.5778 134.679L87.7673 135.434L87.0095 135.057L87.5778 134.679ZM82.8419 143.556L82.4631 142.611L83.5997 142.423L82.8419 143.556ZM88.1461 146.2L87.3884 143.934L89.4722 144.878L88.1461 146.2ZM88.3356 137.134H87.5778L87.9567 136.19L88.3356 137.134ZM88.3356 141.1H87.5778L87.9567 140.156L88.3356 141.1ZM87.7673 142.234H87.0095L87.3884 141.289L87.7673 142.234ZM88.7145 140.156L87.9567 139.967L88.1461 139.023L88.7145 140.156ZM79.811 138.645V139.59L78.8638 139.023L79.811 138.645ZM94.2081 119.003L93.4504 119.569L93.2609 118.625L94.2081 119.003ZM91.556 118.814L92.3137 118.247V119.192L91.556 118.814ZM91.3666 127.502L90.7983 126.369H92.3137L91.3666 127.502ZM90.9877 132.035L90.23 130.902L91.7455 130.713L90.9877 132.035ZM91.9349 118.058L91.3666 118.814L90.6088 117.87L91.9349 118.058ZM88.525 126.935V127.88L87.7673 127.502L88.525 126.935Z" data-darkreader-inline-fill="" style="--darkreader-inline-fill: var(--darkreader-background-af2500, #8c1e00);"/>
<path fill="#AF2500" d="M83.789 138.268L83.4101 137.323H84.5467L83.789 138.268ZM85.4939 141.101L85.115 140.156H86.2516L85.4939 141.101ZM79.8108 136.945L79.2425 136.001H80.3791L79.8108 136.945ZM87.0094 140.912L86.6305 139.778L87.9566 139.967L87.0094 140.912ZM84.9256 142.234L84.3573 141.289L85.6833 141.478L84.9256 142.234ZM84.1679 146.011L83.789 145.067H85.115L84.1679 146.011ZM88.146 144.123L87.7671 142.989L89.0932 143.178L88.146 144.123ZM90.7981 125.802L90.2298 125.047L91.3664 124.858L90.7981 125.802ZM92.3136 128.257L91.5559 128.446L91.7453 127.502L92.3136 128.257ZM91.9347 131.09V132.035L90.9876 131.468L91.9347 131.09ZM88.9038 129.957L89.0932 130.902L88.146 130.335L88.9038 129.957ZM77.5376 135.623L77.1587 134.49H78.2953L77.5376 135.623ZM89.4721 145.067L89.0932 142.8L90.9876 143.178L89.4721 145.067Z" data-darkreader-inline-fill="" style="--darkreader-inline-fill: var(--darkreader-background-af2500, #8c1e00);"/>
<path fill="#AF2500" d="M89.6616 142.989L88.1461 141.478L89.851 140.534L89.6616 142.989ZM92.5031 136.19L90.9876 134.868L92.6926 133.734L92.5031 136.19ZM83.2208 136.001L82.463 136.19L82.6524 135.245L83.2208 136.001ZM76.0222 138.645L74.8855 138.078L75.8327 137.323L76.0222 138.645ZM81.7053 142.234H80.5686V141.1L81.7053 142.234ZM78.8637 138.645L78.2954 137.701H79.432L78.8637 138.645ZM72.9912 141.1L72.6123 140.156H73.7489L72.9912 141.1ZM72.9912 142.423L72.6123 141.478H73.7489L72.9912 142.423Z" data-darkreader-inline-fill="" style="--darkreader-inline-fill: var(--darkreader-background-af2500, #8c1e00);"/>
<path fill="#AF2500" d="M70.3396 141.856L69.9607 140.911H71.0973L70.3396 141.856ZM72.0445 142.989L72.2339 141.856L73.1811 142.422L72.0445 142.989ZM74.3177 143.178L73.9388 142.234H75.0755L74.3177 143.178ZM68.2557 143.556L66.9297 144.122L67.1191 142.611L68.2557 143.556Z" data-darkreader-inline-fill="" style="--darkreader-inline-fill: var(--darkreader-text-af2500, #ff7652);"/>
<path fill="#AF2500" d="M66.5503 144.311L65.4137 144.878V143.367L66.5503 144.311ZM70.5285 142.989L68.6341 143.367L69.2024 141.478L70.5285 142.989ZM66.3609 144.123L65.982 143.178H67.1186L66.3609 144.123ZM68.4447 143.178L67.4975 142.612L68.4447 142.045V143.178ZM65.2243 145.067L64.0876 145.822L63.8982 144.5L65.2243 145.067ZM63.8982 146.2L62.951 147.144L62.5721 145.634L63.8982 146.2ZM64.4665 142.045V142.989L63.8982 142.612L64.4665 142.045ZM62.0038 144.689H61.2461L61.4355 143.745L62.0038 144.689Z" data-darkreader-inline-fill="" style="--darkreader-inline-fill: var(--darkreader-text-af2500, #ff7652);"/>
<path fill="#AF2500" d="M62.9513 146.766L61.8146 147.333L61.6252 146.011L62.9513 146.766ZM61.0569 147.9L59.9203 148.466L59.7308 147.144L61.0569 147.9ZM59.5414 152.621L58.9731 152.999L58.7837 152.055L59.5414 152.621ZM62.9513 144.311L62.0041 143.933L62.7618 143.178L62.9513 144.311ZM63.8984 145.067L62.9513 144.689L63.709 143.933L63.8984 145.067ZM61.6252 146.766L60.678 146.389L61.4358 145.633L61.6252 146.766ZM63.5196 146.2L62.9513 145.444L64.0879 145.067L63.5196 146.2ZM65.2245 144.689L64.2773 144.311L65.0351 143.556L65.2245 144.689ZM61.4358 149.411L61.0569 150.733L60.1097 149.599L61.4358 149.411ZM59.7308 150.733L59.352 152.055L58.4048 150.922L59.7308 150.733Z" data-darkreader-inline-fill="" style="--darkreader-inline-fill: var(--darkreader-text-af2500, #ff7652);"/>
<path fill="#AF2500" d="M60.8674 151.111L60.4885 152.433L59.5413 151.299L60.8674 151.111ZM62.5723 147.522L61.6251 149.033L60.4885 147.144L62.5723 147.522ZM60.6779 151.111L59.7307 150.922L60.4885 149.977L60.6779 151.111ZM66.5505 143.367L65.6033 143.178L66.1716 142.234L66.5505 143.367ZM61.2462 149.033L60.2991 149.222L60.4885 148.089L61.2462 149.033ZM59.5413 154.888L58.7836 155.455L58.5941 154.51L59.5413 154.888ZM60.4885 154.888V156.21L59.1624 155.455L60.4885 154.888ZM60.4885 152.621L60.2991 154.51L58.5941 153.188L60.4885 152.621ZM60.4885 156.588L60.6779 157.91L59.3519 157.343L60.4885 156.588ZM58.2152 157.154L57.8364 157.721L57.2681 157.154H58.2152Z" data-darkreader-inline-fill="" style="--darkreader-inline-fill: var(--darkreader-background-af2500, #8c1e00);"/>
<path fill="#AF2500" d="M60.4885 157.721L60.2991 158.854L59.1624 158.288L60.4885 157.721ZM60.2991 159.798L60.1096 161.121L58.7836 160.365L60.2991 159.798ZM63.3301 163.765V164.52L62.3829 164.142L63.3301 163.765ZM58.4047 156.21L57.647 156.777L57.4575 155.832L58.4047 156.21ZM59.7308 155.832L58.7836 156.399L58.5942 155.454L59.7308 155.832ZM59.7308 158.665L58.973 159.232L58.7836 158.099L59.7308 158.665Z" data-darkreader-inline-fill="" style="--darkreader-inline-fill: var(--darkreader-text-af2500, #ff7652);"/>
<path fill="#AF2500" d="M60.2992 156.776H59.352L59.7309 155.832L60.2992 156.776ZM60.1098 154.51L59.352 155.077L59.1626 153.943L60.1098 154.51ZM61.8147 160.365L62.5725 161.498H61.057L61.8147 160.365ZM62.7619 161.876L63.7091 162.82L62.1936 163.198L62.7619 161.876Z" data-darkreader-inline-fill="" style="--darkreader-inline-fill: var(--darkreader-text-af2500, #ff7652);"/>
<path fill="#AF2500" d="M60.8676 158.287L61.6253 159.987L59.5415 159.798L60.8676 158.287ZM62.7619 162.065L62.0042 162.631L61.6253 161.498L62.7619 162.065ZM61.4359 160.365L61.057 161.309L60.2992 160.365H61.4359ZM63.8985 163.198L64.8457 163.953L63.5197 164.52L63.8985 163.198Z" data-darkreader-inline-fill="" style="--darkreader-inline-fill: var(--darkreader-text-af2500, #ff7652);"/>
<path fill="#AF2500" d="M64.6557 163.954L65.224 165.087L63.8979 165.276L64.6557 163.954ZM65.7923 165.842L66.3606 166.976L65.0345 167.164L65.7923 165.842ZM70.3388 166.409L71.4754 167.731L69.581 168.109L70.3388 166.409ZM64.6557 165.276L64.2768 166.22L63.519 165.465L64.6557 165.276Z" data-darkreader-inline-fill="" style="--darkreader-inline-fill: var(--darkreader-text-af2500, #ff7652);"/>
<path fill="#AF2500" d="M67.3076 165.465L68.6337 165.842L67.4971 166.787L67.3076 165.465ZM69.0126 166.031L70.3386 166.22L69.3914 167.353L69.0126 166.031ZM70.7175 166.22H72.233L71.6647 168.109L70.7175 166.22ZM70.1492 168.109L71.6647 168.298L71.0963 170.186L70.1492 168.109Z" data-darkreader-inline-fill="" style="--darkreader-inline-fill: var(--darkreader-text-af2500, #ff7652);"/>
<path fill="#AF2500" d="M69.5809 170.186H71.0964L70.5281 172.075L69.5809 170.186ZM69.5809 173.208L70.5281 172.453L69.9598 174.341L68.0655 173.586L69.5809 173.208ZM65.2239 164.331L66.7394 165.087L65.0345 166.409L65.2239 164.331ZM69.2021 166.22L68.8232 167.164L68.0655 166.409L69.2021 166.22ZM66.9288 165.465L67.1183 166.598L65.9816 166.409L66.9288 165.465ZM76.5901 142.989L75.6429 142.611L76.5901 141.856V142.989ZM82.4626 137.89L81.7049 138.078L81.8943 137.134L82.4626 137.89ZM66.7394 142.422L66.3605 141.289H67.6866L66.7394 142.422ZM63.7084 139.023L63.519 139.967L62.7612 139.401L63.7084 139.023ZM68.4443 139.023L68.2549 140.156L67.3077 139.401L68.4443 139.023ZM73.1802 136.19L72.8014 135.245H73.7486L73.1802 136.19ZM66.1711 141.856L65.0345 141.667L65.7922 140.534L66.1711 141.856Z" data-darkreader-inline-fill="" style="--darkreader-inline-fill: var(--darkreader-background-af2500, #8c1e00);"/>
<path fill="#AF2500" d="M66.1715 139.023L66.3609 138.456L67.1187 139.212L66.1715 139.023ZM70.1497 139.4L70.3391 138.456L71.0969 139.212L70.1497 139.4ZM67.3081 140.156L66.9293 140.723L66.3609 139.967L67.3081 140.156ZM65.9821 140.534L65.6032 141.289L65.2243 140.345L65.9821 140.534ZM62.3828 142.8L62.9511 141.667L63.8983 142.8H62.3828ZM76.7799 139.967L77.3483 139.212L77.9166 140.156L76.7799 139.967ZM73.1807 137.701L72.4229 138.267L72.2335 137.134L73.1807 137.701ZM69.3919 140.911L68.8236 140.345L69.5814 139.967L69.3919 140.911ZM64.0877 138.078L63.5194 137.512L64.4666 137.134L64.0877 138.078ZM57.8363 148.655L56.8891 148.466L57.4574 147.711L57.8363 148.655ZM60.299 145.255L59.3518 145.067L59.9201 144.311L60.299 145.255ZM57.4574 153.377L56.3208 153.188L57.0786 152.244L57.4574 153.377ZM57.4574 151.11L58.2152 151.488L57.4574 152.055V151.11ZM56.8891 154.888L57.6469 155.266L57.0786 156.021L56.8891 154.888ZM58.7835 149.033L59.3518 148.655L59.7307 149.411L58.7835 149.033ZM78.106 129.768V130.524L77.1588 130.146L78.106 129.768ZM89.2828 126.746V127.691L88.525 127.313L89.2828 126.746ZM76.0222 138.834L75.8328 139.589L75.075 139.212L76.0222 138.834ZM66.9293 166.787L66.3609 167.353L66.1715 166.598L66.9293 166.787ZM66.3609 171.508L65.7926 170.942L66.5504 170.564L66.3609 171.508ZM68.2553 170.942L67.3081 169.809L68.6342 169.242L68.2553 170.942ZM69.5814 168.864L68.8236 168.109L69.7708 167.542L69.5814 168.864Z" data-darkreader-inline-fill="" style="--darkreader-inline-fill: var(--darkreader-background-af2500, #8c1e00);"/>
<path fill="#AF2500" d="M70.3393 169.431L69.2027 168.864L70.1499 168.109L70.3393 169.431ZM69.9604 173.397L68.0661 172.453L69.5815 171.13L69.9604 173.397ZM67.8766 167.92L67.4978 166.975L68.6344 166.786L67.8766 167.92ZM64.2773 169.997L64.6562 169.242L65.4139 169.808L64.2773 169.997Z" data-darkreader-inline-fill="" style="--darkreader-inline-fill: var(--darkreader-text-af2500, #ff7652);"/>
<path fill="#AF2500" d="M67.308 168.487L66.5503 169.053V167.92L67.308 168.487ZM69.2024 168.109L69.013 169.431L67.8763 168.298L69.2024 168.109ZM68.6341 172.642L67.8763 173.208V172.075L68.6341 172.642ZM68.8235 171.886L67.308 170.942L69.2024 169.997L68.8235 171.886Z" data-darkreader-inline-fill="" style="--darkreader-inline-fill: var(--darkreader-text-af2500, #ff7652);"/>
<path fill="#AF2500" d="M70.3396 169.62L70.1501 170.375L69.3924 169.998L70.3396 169.62ZM70.3396 171.509L70.1501 172.264L69.3924 171.886L70.3396 171.509ZM67.8769 172.453L67.6874 173.208L66.9297 172.831L67.8769 172.453ZM78.2959 141.289L78.1064 142.045L77.3487 141.667L78.2959 141.289ZM75.2649 140.156L76.0226 140.534L75.6438 141.101L75.2649 140.156ZM75.0755 141.667L75.8332 141.856L75.2649 142.612L75.0755 141.667Z" data-darkreader-inline-fill="" style="--darkreader-inline-fill: var(--darkreader-background-af2500, #8c1e00);"/>
<path fill="#1EC981" d="M120.54 215.893C120.54 215.893 144.22 246.489 156.723 256.877C169.036 267.265 180.402 268.209 188.169 263.865C196.315 259.333 210.144 248.189 215.069 244.034C216.016 243.09 217.721 243.279 218.669 244.223L241.78 267.832C242.727 268.587 242.727 270.098 242.159 270.854C237.612 277.653 219.464 305.228 196.921 322.604C171.726 341.869 165.247 335.636 144.22 322.415C115.994 305.983 120.54 215.893 120.54 215.893Z" data-darkreader-inline-fill="" style="--darkreader-inline-fill: var(--darkreader-background-1ec981, #18a167);"/>
<path fill="#FFFDF3" d="M147.819 275.764C146.303 267.832 143.272 259.71 139.862 251.4C125.844 217.97 105.574 197.95 77.3483 199.083C70.5286 199.272 48.554 201.538 36.43 251.4C34.7251 257.633 7.06738 404.951 7.06738 404.951H157.291L147.819 275.764Z" data-darkreader-inline-fill="" style="--darkreader-inline-fill: var(--darkreader-background-fffdf3, #2c2400);"/>
<path fill="#1EC981" d="M136.831 249.511C148.766 293.329 147.44 367.366 149.145 405.706C149.334 411.561 154.26 416.283 160.322 416.283H169.604C169.604 416.283 158.806 305.605 144.977 251.022C136.263 216.459 107.09 206.26 103.112 204.749C121.108 217.214 131.148 228.358 136.831 249.511Z" data-darkreader-inline-fill="" style="--darkreader-inline-fill: var(--darkreader-background-1ec981, #18a167);"/>
<path fill="url(#paint4_linear_3933_1542)" d="M122.245 298.995C124.139 247.811 118.456 198.328 73.5596 198.328C66.7399 198.328 42.1132 205.316 29.9892 254.044C28.6632 259.71 8.58291 385.12 4.22587 411.373C3.84699 414.017 5.93082 416.283 8.39349 416.283H84.1681C94.5871 416.283 108.416 409.484 110.879 399.474C118.077 372.843 121.108 329.403 122.245 298.995Z"/>
<path fill="#1EC981" d="M93.2615 207.016C107.09 219.481 106.712 253.666 83.6003 282.941C73.7496 295.596 53.101 320.526 50.8278 326.381C46.8496 335.636 39.8405 410.995 38.7038 414.017C38.325 414.961 37.3778 414.961 36.4306 415.15L-6.00318 421.949C-7.1398 422.138 -9.41304 421.572 -9.98135 420.061C-9.98135 420.061 -30.8194 342.813 -23.2419 310.139C-14.149 270.098 18.2447 222.881 37.7567 208.527C53.2905 197.761 80.1904 194.928 93.2615 207.016Z" data-darkreader-inline-fill="" style="--darkreader-inline-fill: var(--darkreader-background-1ec981, #18a167);"/>
</g>
<defs>
<linearGradient gradientUnits="userSpaceOnUse" y2="176.47" x2="93.5462" y1="193.219" x1="80.5768" id="paint0_linear_3933_1542">
<stop stop-opacity="0" stop-color="#BC5A32" data-darkreader-inline-stopcolor="" style="--darkreader-inline-stopcolor: var(--darkreader-background-bc5a32, #964828);"/>
<stop stop-color="#BC5A32" offset="0.99" data-darkreader-inline-stopcolor="" style="--darkreader-inline-stopcolor: var(--darkreader-background-bc5a32, #964828);"/>
</linearGradient>
<linearGradient gradientUnits="userSpaceOnUse" y2="115.908" x2="91.7216" y1="130.903" x1="102.509" id="paint1_linear_3933_1542">
<stop stop-opacity="0" stop-color="#BC5A32" data-darkreader-inline-stopcolor="" style="--darkreader-inline-stopcolor: var(--darkreader-background-bc5a32, #964828);"/>
<stop stop-color="#BC5A32" offset="0.99" data-darkreader-inline-stopcolor="" style="--darkreader-inline-stopcolor: var(--darkreader-background-bc5a32, #964828);"/>
</linearGradient>
<linearGradient gradientUnits="userSpaceOnUse" y2="105.367" x2="74.4678" y1="131.972" x1="44.2578" id="paint2_linear_3933_1542">
<stop stop-color="#FF7A00" offset="0.007" data-darkreader-inline-stopcolor="" style="--darkreader-inline-stopcolor: var(--darkreader-background-ff7a00, #cc6200);"/>
<stop stop-color="#FFB600" offset="0.983" data-darkreader-inline-stopcolor="" style="--darkreader-inline-stopcolor: var(--darkreader-background-ffb600, #996d00);"/>
</linearGradient>
<linearGradient gradientUnits="userSpaceOnUse" y2="150.93" x2="72.2789" y1="160.994" x1="71.6443" id="paint3_linear_3933_1542">
<stop stop-opacity="0" stop-color="#CC7A5E" data-darkreader-inline-stopcolor="" style="--darkreader-inline-stopcolor: var(--darkreader-background-cc7a5e, #87422b);"/>
<stop stop-color="#AA5F4B" offset="0.924" data-darkreader-inline-stopcolor="" style="--darkreader-inline-stopcolor: var(--darkreader-background-aa5f4b, #884c3c);"/>
</linearGradient>
<linearGradient gradientUnits="userSpaceOnUse" y2="295.658" x2="-49.458" y1="314.292" x1="98.3872" id="paint4_linear_3933_1542">
<stop stop-color="#1EC981" data-darkreader-inline-stopcolor="" style="--darkreader-inline-stopcolor: var(--darkreader-background-1ec981, #18a167);"/>
<stop stop-color="#00394A" offset="0.998" data-darkreader-inline-stopcolor="" style="--darkreader-inline-stopcolor: var(--darkreader-background-00394a, #002e3b);"/>
</linearGradient>
<clipPath id="clip0_3933_1542">
<rect fill="white" rx="7.62343" height="217.268" width="150.563" data-darkreader-inline-fill="" style="--darkreader-inline-fill: var(--darkreader-background-ffffff, #181a1b);"/>
</clipPath>
</defs>
</svg>