<svg width="153" height="220" viewBox="0 0 153 220" fill="none" xmlns="http://www.w3.org/2000/svg">
<g clip-path="url(#clip0_1816_2684)">
<path d="M50.9148 37.7515V27.0787H57.2423V29.1828H53.0189V30.9819H56.5104V33.086H53.0189V37.7515H50.9148ZM61.163 37.9497C60.4616 37.9497 59.8212 37.7693 59.2419 37.4085C58.6676 37.0476 58.2076 36.5623 57.862 35.9524C57.5215 35.3425 57.3513 34.6691 57.3513 33.9322C57.3513 33.3782 57.4504 32.8598 57.6486 32.377C57.8468 31.8891 58.1187 31.4622 58.4643 31.0963C58.815 30.7253 59.2215 30.4356 59.684 30.2272C60.1465 30.0188 60.6395 29.9146 61.163 29.9146C61.7678 29.9146 62.3192 30.0442 62.8173 30.3034C63.3204 30.5626 63.7448 30.9158 64.0904 31.3631C64.441 31.8103 64.6901 32.316 64.8375 32.8802C64.9899 33.4443 65.0153 34.0313 64.9137 34.6412H59.623C59.6891 34.8648 59.7908 35.0681 59.928 35.251C60.0703 35.4289 60.2431 35.5712 60.4464 35.678C60.6547 35.7847 60.8936 35.8406 61.163 35.8457C61.4272 35.8508 61.6712 35.7898 61.8948 35.6627C62.1184 35.5356 62.309 35.3654 62.4666 35.1519L64.6164 35.6475C64.3064 36.3234 63.8439 36.8774 63.2289 37.3094C62.614 37.7363 61.9253 37.9497 61.163 37.9497ZM59.5468 33.086H62.7868C62.7207 32.8319 62.6089 32.6032 62.4513 32.3999C62.2938 32.1966 62.1032 32.0365 61.8796 31.9196C61.661 31.8027 61.4222 31.7443 61.163 31.7443C60.9089 31.7443 60.67 31.8027 60.4464 31.9196C60.2278 32.0365 60.0398 32.1966 59.8822 32.3999C59.7298 32.5981 59.618 32.8268 59.5468 33.086ZM66.1319 37.7515V30.1281H68.236V30.6922C68.4952 30.4483 68.795 30.2577 69.1355 30.1205C69.476 29.9832 69.8369 29.9146 70.2181 29.9146C70.7364 29.9146 71.2116 30.0341 71.6436 30.2729C72.0807 30.5118 72.4314 30.8294 72.6957 31.2259C72.965 30.8294 73.3157 30.5118 73.7477 30.2729C74.1797 30.0341 74.6524 29.9146 75.1657 29.9146C75.7196 29.9146 76.2202 30.0493 76.6675 30.3187C77.1198 30.588 77.4806 30.9489 77.75 31.4012C78.0194 31.8484 78.154 32.3491 78.154 32.903V37.7515H76.05V33.4824C76.05 33.2181 75.9839 32.9793 75.8518 32.7658C75.7247 32.5473 75.5545 32.3745 75.341 32.2474C75.1275 32.1153 74.8887 32.0492 74.6244 32.0492C74.3601 32.0492 74.1187 32.1127 73.9002 32.2398C73.6867 32.3668 73.5139 32.5396 73.3818 32.7582C73.2547 32.9716 73.1912 33.213 73.1912 33.4824V37.7515H71.0871V33.4824C71.0871 33.213 71.0236 32.9716 70.8965 32.7582C70.7695 32.5396 70.5967 32.3668 70.3781 32.2398C70.1647 32.1127 69.9258 32.0492 69.6615 32.0492C69.4023 32.0492 69.1635 32.1153 68.9449 32.2474C68.7315 32.3745 68.5587 32.5473 68.4266 32.7658C68.2995 32.9793 68.236 33.2181 68.236 33.4824V37.7515H66.1319ZM85.1281 30.1281H87.2321V37.7515H85.1204L85.0213 36.9587C84.8231 37.2535 84.569 37.4923 84.259 37.6753C83.949 37.8583 83.5856 37.9497 83.1688 37.9497C82.5996 37.9497 82.0685 37.843 81.5755 37.6296C81.0826 37.4161 80.648 37.1213 80.2719 36.7452C79.8958 36.3691 79.6011 35.9346 79.3876 35.4416C79.1792 34.9436 79.0751 34.4099 79.0751 33.8407C79.0751 33.2969 79.1742 32.7887 79.3724 32.316C79.5706 31.8434 79.8501 31.4266 80.2109 31.0658C80.5718 30.7049 80.986 30.4229 81.4536 30.2196C81.9262 30.0163 82.4344 29.9146 82.9783 29.9146C83.4458 29.9146 83.8651 30.0137 84.2361 30.212C84.6122 30.4102 84.94 30.6617 85.2195 30.9667L85.1281 30.1281ZM83.1155 35.9295C83.4611 35.9295 83.7736 35.8406 84.0532 35.6627C84.3327 35.4848 84.5538 35.246 84.7164 34.9461C84.879 34.6412 84.9603 34.3057 84.9603 33.9398C84.9603 33.5688 84.879 33.2334 84.7164 32.9335C84.5538 32.6337 84.3327 32.3948 84.0532 32.2169C83.7736 32.039 83.4611 31.9501 83.1155 31.9501C82.7648 31.9501 82.4472 32.039 82.1625 32.2169C81.8779 32.3948 81.6518 32.6362 81.4841 32.9411C81.3163 33.241 81.2325 33.5739 81.2325 33.9398C81.2325 34.3057 81.3163 34.6412 81.4841 34.9461C81.6569 35.246 81.8856 35.4848 82.1702 35.6627C82.4548 35.8406 82.7699 35.9295 83.1155 35.9295ZM88.7789 37.7515V26.3164H90.8829V37.7515H88.7789ZM95.9151 37.9497C95.2137 37.9497 94.5734 37.7693 93.994 37.4085C93.4197 37.0476 92.9597 36.5623 92.6142 35.9524C92.2736 35.3425 92.1034 34.6691 92.1034 33.9322C92.1034 33.3782 92.2025 32.8598 92.4007 32.377C92.5989 31.8891 92.8708 31.4622 93.2164 31.0963C93.5671 30.7253 93.9737 30.4356 94.4362 30.2272C94.8986 30.0188 95.3916 29.9146 95.9151 29.9146C96.5199 29.9146 97.0713 30.0442 97.5694 30.3034C98.0725 30.5626 98.4969 30.9158 98.8425 31.3631C99.1932 31.8103 99.4422 32.316 99.5896 32.8802C99.7421 33.4443 99.7675 34.0313 99.6658 34.6412H94.3752C94.4412 34.8648 94.5429 35.0681 94.6801 35.251C94.8224 35.4289 94.9952 35.5712 95.1985 35.678C95.4069 35.7847 95.6457 35.8406 95.9151 35.8457C96.1794 35.8508 96.4233 35.7898 96.6469 35.6627C96.8706 35.5356 97.0612 35.3654 97.2187 35.1519L99.3685 35.6475C99.0585 36.3234 98.596 36.8774 97.981 37.3094C97.3661 37.7363 96.6774 37.9497 95.9151 37.9497ZM94.2989 33.086H97.5389C97.4728 32.8319 97.361 32.6032 97.2035 32.3999C97.0459 32.1966 96.8553 32.0365 96.6317 31.9196C96.4132 31.8027 96.1743 31.7443 95.9151 31.7443C95.661 31.7443 95.4221 31.8027 95.1985 31.9196C94.98 32.0365 94.7919 32.1966 94.6344 32.3999C94.4819 32.5981 94.3701 32.8268 94.2989 33.086Z" fill="#7A869A"/>
<path d="M76.1342 162.309L61.9264 208.582L57.7588 219.348C57.7588 219.348 63.8208 227.091 78.2179 230.113C88.0686 232.191 94.6989 232.38 99.056 232.002C102.655 231.624 107.012 230.869 104.739 224.258C101.519 214.437 102.655 208.204 102.655 208.204L107.77 180.44L76.1342 162.309Z" fill="#EA9D7D"/>
<path d="M73.8609 187.24C78.5968 194.417 86.9321 200.461 91.668 202.727C98.2982 205.938 103.034 206.693 103.034 206.693L107.202 183.651L76.1342 162.309L74.4292 165.52L73.1032 170.808C72.9137 170.997 69.5039 180.629 73.8609 187.24Z" fill="url(#paint0_linear_1816_2684)"/>
<path d="M128.797 127.18C130.881 131.146 130.313 137.945 130.313 140.212C130.123 147.389 129.555 157.021 128.229 164.576C126.145 175.908 120.462 181.574 114.4 183.463C108.338 185.351 98.1085 181.574 90.7205 177.797C84.4691 174.586 80.8698 171.186 79.9226 167.22C78.9754 163.065 77.0811 157.776 77.0811 157.776L80.4909 148.711C80.4909 148.711 86.174 127.935 95.4564 121.325C106.444 113.581 117.999 122.08 117.999 122.08C117.999 122.08 125.008 120.191 128.797 127.18Z" fill="#EA9D7D"/>
<path d="M58.8956 219.726H58.7062C58.5322 219.637 58.3866 219.502 58.2862 219.335C58.1857 219.168 58.1343 218.976 58.1379 218.781L67.0414 191.584C68.7463 185.918 73.8611 166.842 73.8611 166.842C73.9498 166.669 74.0857 166.524 74.2532 166.423C74.4207 166.323 74.613 166.272 74.8083 166.276C74.9822 166.364 75.1278 166.499 75.2283 166.666C75.3288 166.833 75.3801 167.025 75.3766 167.22L68.5569 191.962C67.0414 197.061 59.6533 218.97 59.6533 218.97C59.6533 219.537 59.2745 219.726 58.8956 219.726Z" fill="#CF7653"/>
<path d="M108.907 184.596C106.823 184.596 105.118 184.218 101.329 183.274C95.2673 181.763 86.7426 177.041 82.3856 172.886C78.218 168.731 78.5969 164.765 78.5969 164.576C78.5969 164.198 78.5969 163.631 78.9758 163.631C79.3546 163.631 79.5441 164.009 79.7335 164.387C79.9229 165.142 79.9229 168.353 83.3328 171.753C87.3109 175.719 95.8356 180.252 101.519 181.763C107.391 183.085 108.528 183.463 112.885 183.085C117.052 182.707 119.136 181.196 119.136 181.196C119.894 180.63 120.083 180.63 119.705 181.196C119.326 181.574 117.242 183.652 113.074 184.407C111.369 184.596 110.233 184.596 108.907 184.596Z" fill="#B76349"/>
<path d="M81.4375 173.264L81.8164 174.208L82.5741 173.452L81.4375 173.264Z" fill="#A84D3B"/>
<path d="M81.4374 172.131L80.8691 173.83L82.9529 173.453L81.4374 172.131ZM91.4776 179.308V181.385L93.5614 180.441L91.4776 179.308ZM86.3628 176.097L86.1733 178.174L88.2572 177.419L86.3628 176.097ZM83.5212 174.019L83.1424 176.097L85.4156 175.53L83.5212 174.019Z" fill="#A84D3B"/>
<path d="M80.1121 170.242L79.3543 172.13H81.6276L80.1121 170.242ZM94.3198 183.84L93.3726 182.707L92.6149 184.029L94.3198 183.84ZM91.6677 181.763L90.5311 180.252L89.9627 181.952L91.6677 181.763ZM99.4346 185.729L98.1085 184.407L97.7297 185.918L99.4346 185.729ZM105.118 187.807L103.792 186.296L103.223 187.996L105.118 187.807ZM95.0776 181.007L93.9409 180.441V182.141L95.0776 181.007ZM97.7297 186.862L96.7825 185.918L96.2142 187.24L97.7297 186.862ZM90.3416 179.308L89.205 178.552L89.0156 180.252L90.3416 179.308ZM100.382 183.274L98.4874 182.518L98.6768 184.785L100.382 183.274ZM103.981 183.84L102.466 183.652L102.844 185.351L103.981 183.84ZM106.444 186.862H104.928L105.497 188.184L106.444 186.862ZM101.14 186.485L100.571 185.162L99.624 186.485H101.14ZM105.686 190.829L105.875 189.506L104.36 189.884L105.686 190.829ZM105.307 193.284L105.497 191.962L103.981 192.34L105.307 193.284ZM102.087 193.284L101.329 193.85L102.276 194.417L102.087 193.284ZM102.655 185.918L101.897 186.673L103.034 187.24L102.655 185.918ZM107.012 184.596L105.875 184.407L106.254 185.54L107.012 184.596ZM103.413 195.55L102.655 196.117L103.792 196.684L103.413 195.55ZM84.6586 175.908L83.9008 176.474L84.848 177.041L84.6586 175.908ZM78.2177 167.22L77.46 167.786L78.4071 168.353L78.2177 167.22ZM97.3508 184.974L96.7825 184.407L96.593 185.351L97.3508 184.974ZM92.0466 183.463L92.236 182.707H91.2888L92.0466 183.463ZM94.6987 185.162L95.0776 184.407H94.1304L94.6987 185.162ZM98.6768 188.94L99.0557 189.884L100.003 189.129L98.6768 188.94ZM104.17 185.162L103.602 185.729L104.36 186.107L104.17 185.162Z" fill="#A84D3B"/>
<path d="M104.549 184.218L103.602 184.973L104.738 185.54L104.549 184.218ZM102.276 184.973L101.518 185.54L102.276 185.918V184.973ZM103.034 198.383L102.276 198.761L103.034 199.327V198.383ZM100.95 196.306L101.329 197.061L101.897 196.306H100.95ZM100.76 191.773L101.139 192.528L101.708 191.773H100.76ZM104.36 193.473L103.791 193.095L103.602 193.85L104.36 193.473ZM78.0279 184.596L78.4068 184.973L78.7857 184.407L78.0279 184.596ZM81.6272 182.329L81.2484 182.707H81.8167L81.6272 182.329ZM85.416 188.94L84.8476 188.751L85.0371 189.506L85.416 188.94ZM83.5216 185.729L83.1427 186.295H83.9005L83.5216 185.729ZM96.5927 191.773L96.4033 192.906L97.5399 192.339L96.5927 191.773ZM94.8878 183.274V184.218L95.835 183.84L94.8878 183.274ZM94.8878 181.385V182.329L96.0244 181.763L94.8878 181.385ZM80.3012 175.53V176.663L81.2484 176.097L80.3012 175.53ZM103.034 189.317L102.086 189.506L102.844 190.262L103.034 189.317ZM100.192 197.25L99.8131 196.494L99.0554 197.25H100.192ZM100.76 187.429L101.329 188.184L101.897 187.24L100.76 187.429ZM103.791 188.562L104.36 189.506L104.928 188.373L103.791 188.562ZM105.686 184.973L105.117 185.729L106.065 185.918L105.686 184.973ZM104.549 191.017L103.791 190.451V191.584L104.549 191.017ZM83.1427 174.208L82.0061 174.963L83.3321 175.719L83.1427 174.208ZM79.354 175.719L78.7857 175.152L78.5962 176.097L79.354 175.719ZM75.5653 173.83L75.1864 173.452L74.9969 174.208L75.5653 173.83ZM74.6181 179.685L74.8075 178.93H74.0498L74.6181 179.685ZM81.8167 175.53L82.1955 176.285L82.9533 175.53H81.8167ZM79.5434 173.641L80.1117 174.774L81.0589 173.83L79.5434 173.641ZM79.1645 168.542L78.4068 169.675L79.9223 169.864L79.1645 168.542ZM84.8476 177.607L84.2793 177.985L85.0371 178.552L84.8476 177.607ZM86.3631 176.852L85.7948 177.23L86.5526 177.607L86.3631 176.852ZM87.8786 177.607L87.3103 177.985L87.8786 178.552V177.607ZM85.0371 182.707L84.6582 182.329L84.4688 183.085L85.0371 182.707ZM73.6709 176.285L74.0498 176.852L74.6181 176.097L73.6709 176.285ZM78.0279 171.941L77.4596 172.319L78.2174 172.697L78.0279 171.941ZM77.8385 178.93L77.2702 178.552L77.0808 179.307L77.8385 178.93ZM78.4068 171.186L78.7857 171.752L79.354 170.997L78.4068 171.186ZM80.3012 172.13L80.68 172.886L81.2484 172.13H80.3012ZM75.9441 170.242L75.3758 170.808L76.1336 170.997L75.9441 170.242ZM76.5124 168.353L75.9441 167.975L75.7547 168.731L76.5124 168.353ZM86.5526 178.741V179.496L87.4998 179.118L86.5526 178.741ZM90.1519 180.252L89.3941 180.44L89.9624 181.007L90.1519 180.252ZM88.6364 178.741L87.8786 178.93L88.4469 179.496L88.6364 178.741ZM101.329 184.407L100.571 184.596L101.139 185.162L101.329 184.407ZM98.4871 183.274L97.9188 183.462L98.2976 184.029L98.4871 183.274ZM89.5836 184.596L89.3941 184.029L88.8258 184.596H89.5836ZM100.192 194.039L100.003 193.473L99.4342 194.039H100.192ZM88.6364 182.707L88.2575 182.14L87.6892 182.707H88.6364ZM93.5617 181.574V182.518L94.3195 182.14L93.5617 181.574ZM96.5927 182.329V183.085L97.3505 182.707L96.5927 182.329ZM100.003 184.029L99.2448 184.218L99.8131 184.785L100.003 184.029ZM97.3505 187.806L96.9716 187.24L96.5927 187.806H97.3505ZM89.2047 187.618V188.373L89.9624 187.995L89.2047 187.618ZM92.804 185.729L92.2357 185.918L92.6145 186.484L92.804 185.729ZM99.2448 187.24L99.0554 186.673L98.4871 187.24H99.2448Z" fill="#A84D3B"/>
<path d="M98.677 139.645C98.397 139.428 98.2047 139.118 98.1351 138.771C98.0656 138.424 98.1234 138.064 98.2982 137.756C98.4876 137.567 101.519 133.035 108.338 133.601C109.096 133.601 109.664 134.357 109.664 135.112C109.664 135.868 108.907 136.434 108.149 136.434C103.034 136.057 100.95 139.267 100.761 139.456C100.003 140.212 98.8665 139.834 98.677 139.645ZM127.093 136.434C126.903 136.434 126.524 136.434 126.335 136.245C125.009 135.301 123.493 135.49 123.304 135.49C122.546 135.679 121.788 135.112 121.599 134.357C121.409 133.601 121.978 132.846 122.735 132.657C122.925 132.657 125.577 131.901 128.04 133.979C128.608 134.357 128.608 135.301 128.229 135.868C128.04 136.245 127.471 136.434 127.093 136.434Z" fill="#AF361A"/>
<path d="M109.665 172.886C102.466 172.508 99.4349 167.409 98.6772 164.576C98.4877 163.82 98.8666 163.065 99.6244 162.876C100.382 162.687 101.14 163.065 101.329 163.82C101.329 164.009 102.845 169.675 109.665 170.053C110.422 170.053 110.991 170.809 110.991 171.375C110.991 172.32 110.422 172.886 109.665 172.886Z" fill="#CF7653"/>
<path d="M116.295 162.498H115.916C115.158 162.498 114.779 161.742 114.779 161.176C114.779 160.42 115.537 160.042 116.105 160.042C116.484 160.042 117.431 160.042 117.81 158.909C118.189 157.776 117.242 156.076 116.863 155.51C116.484 154.943 116.484 154.188 117.053 153.81C117.621 153.432 118.379 153.432 118.757 153.999C118.947 154.376 121.031 157.021 120.273 159.665C119.515 161.931 117.431 162.498 116.295 162.498Z" fill="#B4603F"/>
<path d="M105.875 152.299C107.34 152.299 108.527 151.115 108.527 149.655C108.527 148.195 107.34 147.011 105.875 147.011C104.41 147.011 103.223 148.195 103.223 149.655C103.223 151.115 104.41 152.299 105.875 152.299Z" fill="#4F2B23"/>
<path d="M105.307 148.899C104.928 148.899 103.602 149.277 103.412 148.899C103.223 148.333 104.17 147.389 104.928 147.011C106.822 146.066 108.338 146.255 108.906 146.255C109.157 146.255 109.398 146.355 109.576 146.532C109.753 146.709 109.853 146.949 109.853 147.2C109.853 147.45 109.753 147.69 109.576 147.867C109.398 148.044 109.157 148.144 108.906 148.144C108.338 148.144 107.201 148.144 105.685 148.711C105.685 148.899 105.496 148.899 105.307 148.899Z" fill="#4F2B23"/>
<path d="M125.576 150.788C127.041 150.788 128.228 149.604 128.228 148.144C128.228 146.684 127.041 145.5 125.576 145.5C124.111 145.5 122.924 146.684 122.924 148.144C122.924 149.604 124.111 150.788 125.576 150.788Z" fill="#4F2B23"/>
<path d="M125.008 147.388C124.629 147.388 123.303 147.766 123.113 147.388C122.924 146.822 123.871 145.878 124.629 145.5C126.523 144.555 128.039 144.744 128.607 144.744C128.858 144.744 129.099 144.844 129.277 145.021C129.454 145.198 129.554 145.438 129.554 145.689C129.554 145.939 129.454 146.179 129.277 146.356C129.099 146.534 128.858 146.633 128.607 146.633C128.039 146.633 126.902 146.633 125.387 147.2C125.387 147.388 125.197 147.388 125.008 147.388Z" fill="#4F2B23"/>
<path d="M111.369 157.776L112.505 157.21L111.179 156.265L111.369 157.776ZM96.9716 156.076L96.5927 154.943L95.6455 155.887L96.9716 156.076ZM115.347 156.643H117.052L116.105 154.943L115.347 156.643ZM112.316 150.977L113.453 151.921L113.831 150.41L112.316 150.977ZM113.074 149.277L114.779 148.333L113.263 147.199L113.074 149.277ZM116.105 164.387L117.62 163.631L116.294 162.498L116.105 164.387ZM120.462 162.687L121.219 160.987L119.515 161.365L120.462 162.687ZM110.99 156.265L109.664 156.454L110.422 157.965L110.99 156.265Z" fill="#F4B9A6"/>
<path d="M112.126 154.566L110.611 154.754L111.558 156.076L112.126 154.566ZM111.179 161.743L111.558 163.065L112.884 162.12L111.179 161.743ZM111.558 164.387L112.695 165.142L113.073 163.631L111.558 164.387ZM117.999 168.92L116.673 169.108L117.62 170.431L117.999 168.92ZM115.157 140.211L114.589 141.156H116.104L115.157 140.211ZM115.726 148.522L114.589 148.144L114.968 149.277L115.726 148.522ZM117.241 144.367L116.104 144.178L116.483 145.5L117.241 144.367ZM109.285 149.655L108.906 150.977L110.421 150.599L109.285 149.655ZM110.8 143.989L109.664 144.555L110.8 145.5V143.989ZM105.307 145.311L104.549 145.5L104.928 146.255L105.307 145.311ZM115.726 168.731L114.589 168.92L115.347 170.053L115.726 168.731ZM114.399 167.975L113.263 168.164L114.021 169.297L114.399 167.975ZM105.117 159.854H103.98L104.549 160.987L105.117 159.854ZM107.769 162.12L106.633 162.309L107.201 163.254L107.769 162.12ZM104.549 155.888L104.17 157.021L105.685 156.643L104.549 155.888ZM110.611 155.132L110.421 154.188L109.285 154.943L110.611 155.132ZM121.977 165.898L122.545 165.142H121.409L121.977 165.898ZM117.809 162.498L118.378 163.254L118.757 161.931L117.809 162.498ZM125.576 155.132V156.076L126.334 155.699L125.576 155.132ZM121.787 158.721L122.545 158.91V157.965L121.787 158.721Z" fill="#F4B9A6"/>
<path d="M125.766 156.454L126.145 155.888L125.198 155.699L125.766 156.454ZM102.276 147.955L101.708 148.711H102.655L102.276 147.955ZM113.453 143.611L114.968 143.422L114.021 142.1L113.453 143.611ZM113.263 160.232L114.968 159.854L113.832 158.532L113.263 160.232ZM112.127 149.277L110.99 149.088L111.18 150.222L112.127 149.277ZM102.844 156.643V155.51L101.518 155.888L102.844 156.643ZM110.422 145.878V147.2L111.937 146.633L110.422 145.878ZM108.717 148.522V149.844L110.422 149.088L108.717 148.522ZM110.232 147.389L110.043 148.711L111.559 148.144L110.232 147.389ZM121.409 147.955L122.546 148.522V147.2L121.409 147.955ZM111.937 153.244L111.369 152.299L110.611 153.244H111.937ZM116.294 167.409L115.347 167.787L116.105 168.542L116.294 167.409ZM111.748 159.854L111.369 160.609H112.695L111.748 159.854ZM112.506 165.709L112.127 164.765L111.559 165.709H112.506ZM114.211 166.653L114.968 166.087L113.832 165.52L114.211 166.653ZM114.779 164.576L115.726 164.009L114.589 163.254L114.779 164.576ZM114.4 163.254L115.347 162.687L114.211 161.932L114.4 163.254ZM114.4 158.343L115.347 157.776L114.211 157.021L114.4 158.343ZM112.127 158.343L112.885 159.098L113.263 158.154L112.127 158.343ZM121.409 167.031L120.273 167.409L121.03 168.164L121.409 167.031ZM116.863 157.399L116.484 158.154L117.62 158.343L116.863 157.399ZM118.568 167.598L117.999 167.031L117.431 167.787L118.568 167.598ZM112.506 170.62L112.695 171.564L113.832 170.997L112.506 170.62ZM110.232 164.953L109.096 165.331L109.854 166.087L110.232 164.953ZM100.761 152.866L100.192 152.11L99.624 153.055L100.761 152.866ZM110.611 167.409L111.369 167.787L111.559 166.842L110.611 167.409ZM107.77 165.331L108.717 165.709V164.765L107.77 165.331ZM105.686 172.697L105.118 173.453L106.254 173.264L105.686 172.697ZM104.17 171.375L103.223 171.186L103.413 172.13L104.17 171.375ZM102.276 170.997H101.329L101.518 171.942L102.276 170.997ZM113.074 156.265L114.968 156.077L113.453 154.188L113.074 156.265ZM111.937 151.733L112.316 152.677L113.074 151.733H111.937Z" fill="#F4B9A6"/>
<path d="M111.937 153.432L112.884 154.943L114.21 153.432H111.937ZM117.052 151.354L115.536 152.488L117.62 153.243L117.052 151.354ZM104.359 153.243L104.549 152.488L103.412 152.865L104.359 153.243ZM115.725 153.054L115.157 153.621L116.104 154.188L115.725 153.054ZM112.505 147.011L113.642 146.822L112.884 145.877L112.505 147.011ZM119.704 150.032L121.03 149.844L120.083 148.899L119.704 150.032ZM111.747 149.655L112.884 149.277L112.126 148.333L111.747 149.655ZM120.461 144.744L121.598 144.555L120.84 143.611L120.461 144.744ZM116.673 141.911L115.725 142.289L116.862 142.855L116.673 141.911ZM107.201 144.366L107.39 143.422L106.254 143.989L107.201 144.366ZM107.201 159.098L107.011 160.42L108.527 160.043L107.201 159.098ZM105.496 158.343H104.359L104.928 159.665L105.496 158.343ZM107.58 163.631L107.201 164.764L108.527 164.387L107.58 163.631ZM109.664 158.909V160.231L110.99 159.665L109.664 158.909ZM108.148 161.176V162.687L109.853 162.12L108.148 161.176ZM107.011 157.398L107.201 156.454L106.064 157.021L107.011 157.398ZM122.545 150.788L123.682 150.599L122.924 149.844L122.545 150.788ZM118.567 146.633L118.946 147.577L119.704 146.822L118.567 146.633ZM125.955 160.609L126.902 160.42L126.144 159.665L125.955 160.609ZM109.474 144.366V143.611L108.527 143.989L109.474 144.366ZM116.294 147.199L116.104 148.333L117.43 147.955L116.294 147.199ZM114.968 144.933L114.778 146.066L116.104 145.688L114.968 144.933ZM117.809 153.243L119.514 154.565L120.272 152.488L117.809 153.243ZM120.083 156.454L121.977 155.887L120.84 154.188L120.083 156.454ZM113.642 157.021L114.399 157.209L114.21 156.454L113.642 157.021ZM113.642 152.299L113.263 153.054H114.399L113.642 152.299ZM115.915 150.032H114.778L115.536 150.977L115.915 150.032ZM119.514 150.788H118.378L118.946 152.11L119.514 150.788Z" fill="#F4B9A6"/>
<path d="M116.104 151.355L117.999 150.411L116.104 149.088V151.355ZM119.325 142.856L120.082 141.911L118.567 141.723L119.325 142.856ZM113.642 161.743L114.399 160.61L112.884 160.421L113.642 161.743ZM114.21 153.432L115.915 152.488L114.399 151.355L114.21 153.432ZM116.673 145.689L117.241 146.255L117.62 145.311L116.673 145.689ZM118.946 147.766L117.62 149.277L120.082 149.655L118.946 147.766ZM120.84 145.311L120.272 146.255L121.408 146.444L120.84 145.311ZM121.408 152.677L121.977 153.432L122.545 152.488L121.408 152.677ZM118.946 144.178L118.377 144.933L119.514 145.122L118.946 144.178ZM103.412 152.677L102.086 153.055L103.033 153.999L103.412 152.677ZM108.716 150.977L107.958 151.922L109.285 152.11L108.716 150.977ZM107.769 152.677L107.58 151.733L106.632 152.488L107.769 152.677ZM106.443 153.621V152.677L105.496 153.244L106.443 153.621Z" fill="#F4B9A6"/>
<path d="M116.295 150.033L114.969 148.711C114.969 148.711 116.105 147.2 118 147.2C119.894 147.2 121.22 148.144 121.22 148.333L120.084 149.844C120.084 149.844 119.326 149.089 118.189 149.089C117.242 149.089 116.295 150.033 116.295 150.033Z" fill="white"/>
<path d="M127.851 159.098C124.441 158.91 121.789 154.188 121.978 148.9C122.168 143.611 125.199 139.078 128.608 139.078C129.177 139.078 129.934 139.267 130.503 139.456V137.378C129.934 137.19 129.366 137.001 128.798 137.001C124.251 136.812 120.463 142.289 120.273 148.711C120.084 155.321 123.494 160.987 128.04 160.987H128.798L128.987 159.098H127.851Z" fill="white"/>
<path d="M136.564 149.466C136.753 143.8 134.291 138.7 130.502 137.378V139.456C132.964 140.967 134.669 144.744 134.48 149.466C134.291 154.376 131.828 158.532 128.797 159.287L128.607 161.176C132.964 160.987 136.374 155.887 136.564 149.466Z" fill="#CCCCCC"/>
<path d="M89.0156 146.444C89.0156 146.444 96.5931 133.979 103.034 130.201C110.611 125.857 123.114 123.213 123.114 123.213L89.9628 112.825L89.0156 146.444Z" fill="url(#paint1_linear_1816_2684)"/>
<path d="M70.8288 176.852C70.8288 176.852 51.6958 168.919 49.6119 149.277C47.5281 129.635 59.4626 117.925 59.4626 117.925L58.7049 111.125C58.7049 111.125 50.5591 108.859 48.0965 97.9045C45.8232 88.461 53.4007 80.1507 62.1147 76.9399C72.7232 72.9736 85.0366 78.4509 88.257 87.8944C91.0985 95.8269 86.9309 101.304 86.9309 101.304L90.3408 105.459C90.3408 105.459 102.654 98.2822 115.725 105.648C128.607 113.014 136.184 126.613 137.889 128.312C139.026 129.257 129.933 130.768 120.082 129.257C110.232 127.746 100.381 124.157 97.9183 122.835C95.8344 121.324 95.645 122.269 95.8344 125.479C96.2133 130.39 96.4027 144.933 87.1203 148.522C83.1422 150.032 80.6795 148.899 80.6795 148.899L70.8288 176.852Z" fill="#C94112"/>
<path d="M59.2741 118.302L91.0995 105.082L88.6368 99.2266L56.2432 111.881L59.2741 118.302Z" fill="url(#paint2_linear_1816_2684)"/>
<path d="M72.9132 166.464C78.4582 166.464 82.9533 161.644 82.9533 155.699C82.9533 149.753 78.4582 144.933 72.9132 144.933C67.3681 144.933 62.873 149.753 62.873 155.699C62.873 161.644 67.3681 166.464 72.9132 166.464Z" fill="#EA9D7D"/>
<path d="M73.481 160.42C75.992 160.42 78.0275 158.306 78.0275 155.699C78.0275 153.091 75.992 150.977 73.481 150.977C70.9701 150.977 68.9346 153.091 68.9346 155.699C68.9346 158.306 70.9701 160.42 73.481 160.42Z" fill="url(#paint3_linear_1816_2684)"/>
<path d="M79.5444 162.498C77.8394 164.387 75.3768 165.52 72.9141 165.52C67.7993 165.52 63.6317 160.987 63.6317 155.51C63.6317 150.033 67.7993 145.5 72.9141 145.5C76.5134 145.5 79.7338 147.766 81.2493 150.977C81.2493 150.977 81.6282 151.166 82.1965 150.788C82.7648 150.411 82.5754 149.655 82.5754 149.655C80.681 146.255 77.0817 143.8 73.1035 143.8C67.0416 143.8 62.1162 148.9 62.1162 155.321C62.1162 161.554 67.0416 166.842 73.1035 166.842C75.7556 166.842 77.8394 166.087 79.7338 164.576L79.5444 162.498Z" fill="#B76349"/>
<path d="M77.649 156.832V156.076L76.8913 156.265L77.649 156.832ZM74.4286 151.166L73.6709 151.355L74.2392 152.11L74.4286 151.166Z" fill="#964C38"/>
<path d="M74.238 151.355L73.2908 152.488L74.9958 152.866L74.238 151.355ZM72.5331 151.166L71.3965 151.544L72.3437 152.488L72.5331 151.166ZM77.4584 153.999L76.8901 154.377L77.6479 154.754L77.4584 153.999ZM75.7535 153.054L75.1852 153.621L75.9429 153.81L75.7535 153.054Z" fill="#964C38"/>
<path d="M76.8912 154.377L76.5123 154.943L77.2701 155.321L76.8912 154.377ZM72.7236 152.866L72.1553 153.243L73.1025 153.621L72.7236 152.866Z" fill="#964C38"/>
<path d="M71.7762 152.299L71.0184 153.243L72.3445 153.621L71.7762 152.299ZM74.9966 155.699L75.3755 156.076L75.5649 155.51L74.9966 155.699ZM77.0804 153.432L76.891 153.81H77.4593L77.0804 153.432ZM77.4593 155.132L77.2698 155.699H77.8382L77.4593 155.132ZM70.6396 152.11L69.8818 152.866L71.0184 153.054L70.6396 152.11ZM72.1551 154.943H71.7762L71.9656 155.51L72.1551 154.943ZM73.2917 156.643L73.1023 156.076L72.7234 156.454L73.2917 156.643ZM74.8072 151.921L75.1861 151.544L74.6177 151.166L74.8072 151.921ZM72.5339 151.921L71.9656 152.488L72.9128 152.677L72.5339 151.921ZM71.5868 152.488L71.0184 152.11V152.866L71.5868 152.488Z" fill="#964C38"/>
<path d="M71.5869 152.488V151.921H71.0186L71.5869 152.488ZM76.1334 153.243L76.5122 153.81L76.8911 153.243H76.1334ZM75.3756 151.543L75.1862 152.866L76.5122 152.488L75.3756 151.543Z" fill="#964C38"/>
<path d="M74.8072 152.488L75.3755 152.866L75.5649 152.11L74.8072 152.488ZM70.2607 154.188L69.8818 154.754H70.4501L70.2607 154.188ZM73.6706 151.166L73.1022 150.977L73.2917 151.732L73.6706 151.166ZM72.5339 154.565L72.9128 155.132L73.2917 154.376L72.5339 154.565ZM74.0494 157.021L73.86 157.398L74.4283 157.587L74.0494 157.021ZM70.0713 152.866L69.6924 153.432L70.4501 153.621L70.0713 152.866Z" fill="#964C38"/>
<path d="M71.7762 157.021L71.2079 156.832L71.3973 157.398L71.7762 157.021ZM69.6924 153.999L70.2607 153.81L69.8818 153.243L69.6924 153.999Z" fill="#964C38"/>
<path d="M69.124 156.076H69.5029L69.3134 155.51L69.124 156.076ZM69.5029 154.187L69.8818 153.999L69.6923 153.621L69.5029 154.187ZM70.8289 153.621V154.187L71.3973 153.81L70.8289 153.621ZM68.9346 155.321H69.6923L69.3134 154.565L68.9346 155.321ZM70.0712 155.51V155.887L70.6395 155.51H70.0712ZM73.8599 153.054L73.2916 153.432L73.8599 153.81V153.054ZM76.512 155.887L76.7014 156.643L77.2698 156.265L76.512 155.887ZM72.7233 151.732L72.9127 152.488L73.481 151.921L72.7233 151.732ZM74.6177 153.81L74.2388 153.432L74.0493 153.999L74.6177 153.81Z" fill="#964C38"/>
<path d="M107.012 164.954C101.708 164.954 97.54 159.288 97.54 152.488C97.54 145.689 101.897 140.023 107.012 140.023C112.127 140.023 116.484 145.689 116.484 152.488C116.484 159.288 112.127 164.954 107.012 164.954ZM107.012 141.912C102.844 141.912 99.4344 146.633 99.4344 152.488C99.4344 158.343 102.844 163.065 107.012 163.065C111.179 163.065 114.589 158.343 114.589 152.488C114.589 146.633 111.179 141.912 107.012 141.912Z" fill="white"/>
<path d="M82.0066 149.088L79.7334 146.633L99.0559 149.844L98.8665 151.733L82.0066 149.088Z" fill="white"/>
<path d="M109.665 126.99L109.475 127.935L110.233 127.746L109.665 126.99ZM112.506 127.746L111.559 127.557L111.749 128.501L112.506 127.746ZM111.37 127.746L110.612 127.179L110.423 128.124L111.37 127.746ZM95.8359 122.835V124.724L97.7303 123.591L95.8359 122.835ZM105.497 125.857L105.118 126.802L106.255 126.424L105.497 125.857ZM102.087 125.857L102.466 126.802L103.224 126.046L102.087 125.857ZM99.6247 127.935V128.501L100.193 128.124L99.6247 127.935ZM96.0254 129.068V130.201L97.162 129.823L96.0254 129.068Z" fill="#A84D3B"/>
<path d="M100.761 124.157L100.004 123.78L99.8141 124.535L100.761 124.157ZM107.581 126.424L107.77 127.368L108.528 126.613L107.581 126.424ZM104.361 126.046L104.55 126.991L105.308 126.235L104.361 126.046ZM112.885 127.935V128.69L113.832 128.124L112.885 127.935ZM107.202 127.935L107.581 128.69L108.149 128.124L107.202 127.935ZM102.656 127.179L102.845 127.935L103.603 127.368L102.656 127.179ZM101.14 125.857L101.33 126.424L102.087 125.857H101.14ZM106.255 126.613L106.823 127.179L107.013 126.613H106.255ZM108.528 127.179L108.718 127.557L109.096 126.991L108.528 127.179ZM114.022 128.501L114.211 128.879L114.59 128.501H114.022ZM96.4043 132.846L96.0254 133.034L96.4043 133.412V132.846ZM98.2986 126.613L98.6775 127.368L99.4352 126.424L98.2986 126.613ZM96.4043 121.891L96.2148 122.835L97.3514 122.458L96.4043 121.891Z" fill="#A84D3B"/>
<path d="M97.162 122.269L96.9726 123.591L98.488 123.024L97.162 122.269ZM96.5937 131.146H95.8359L96.2148 131.901L96.5937 131.146ZM96.7831 130.768L96.5937 130.201L96.0254 130.768H96.7831ZM99.0564 131.523L98.8669 131.146L98.488 131.523H99.0564ZM102.277 130.012L102.087 129.446L101.708 129.823L102.277 130.012ZM103.413 127.179L104.361 127.368L103.982 126.424L103.413 127.179ZM103.792 126.235L105.308 125.668L103.982 125.291L103.792 126.235ZM100.193 125.857L100.382 126.613L100.951 126.046L100.193 125.857ZM101.14 127.557H101.898L101.33 126.802L101.14 127.557ZM96.4043 133.79V134.545L97.162 134.167L96.4043 133.79ZM97.162 132.09V132.468L97.5409 132.279L97.162 132.09ZM100.004 126.424L99.4352 126.802L100.193 127.179L100.004 126.424Z" fill="#A84D3B"/>
<path d="M96.0253 132.09L95.8359 132.657L96.783 132.279L96.0253 132.09ZM95.8359 134.168L96.4042 133.979L95.8359 133.412V134.168ZM95.6464 136.056L96.2147 135.679L95.6464 135.49V136.056ZM95.6464 135.112L96.2147 134.923L95.8359 134.357L95.6464 135.112ZM95.0781 138.323L95.8359 137.945L95.2675 137.379L95.0781 138.323ZM95.457 137.001L96.2147 136.812L95.457 136.056V137.001ZM99.814 123.78L98.488 123.024L98.1091 124.535L99.814 123.78ZM97.5408 128.313L98.1091 128.879L98.488 127.935L97.5408 128.313Z" fill="#A84D3B"/>
<path d="M102.087 124.724L102.656 126.424L103.792 125.102L102.087 124.724ZM96.5937 128.69L97.162 129.257L97.5409 128.124L96.5937 128.69ZM105.308 127.368L106.066 127.746V126.802L105.308 127.368ZM95.8359 124.724V125.857L96.9726 125.102L95.8359 124.724ZM98.1092 129.446H97.3514L97.9198 130.201L98.1092 129.446ZM97.7303 127.179L96.9726 127.557L97.7303 128.124V127.179ZM99.6247 124.913L99.8141 125.668L100.382 125.102L99.6247 124.913ZM97.3514 123.78L97.5409 124.535L98.1092 123.969L97.3514 123.78ZM97.3514 126.802L96.0254 126.424V127.935L97.3514 126.802ZM96.7831 125.668L96.2148 126.046L96.7831 126.613V125.668ZM99.4352 125.291L98.6775 125.48L99.4352 126.046V125.291ZM99.4352 124.158L98.6775 124.346L99.2458 124.913L99.4352 124.158Z" fill="#A84D3B"/>
<path d="M96.4042 122.08L95.6465 122.458L96.2148 123.024L96.4042 122.08ZM97.9197 125.669L97.162 125.857L97.9197 126.424V125.669ZM96.9726 124.346L96.2148 124.535L96.9726 125.102V124.346ZM96.0254 127.935L95.8359 128.502L96.5937 128.313L96.0254 127.935ZM102.087 124.535L100.761 124.158L101.14 125.669L102.087 124.535Z" fill="#A84D3B"/>
<path d="M108.339 103.004L108.718 105.082L110.612 103.76L108.339 103.004ZM121.221 120.38L120.273 120.002V120.947L121.221 120.38ZM133.344 123.024H132.587L132.966 123.969L133.344 123.024ZM128.609 121.513L128.798 120.569L127.661 120.758L128.609 121.513ZM113.454 105.837L112.506 106.97L114.022 107.537L113.454 105.837ZM124.441 117.736L123.873 118.68L125.199 118.869L124.441 117.736ZM127.472 115.847L127.093 117.736L129.177 117.358L127.472 115.847Z" fill="#FF593E"/>
<path d="M126.525 114.525L125.956 116.414L128.04 116.225L126.525 114.525ZM105.497 102.626L103.982 102.437L104.55 104.326L105.497 102.626ZM103.792 102.437L102.087 102.626L102.845 104.326L103.792 102.437ZM100.761 105.648L98.6776 106.215L100.193 108.292L100.761 105.648ZM99.6248 102.626L97.9199 102.815L98.6776 104.515L99.6248 102.626ZM121.41 109.803L120.084 108.859L119.705 110.748L121.41 109.803ZM114.401 109.803L114.969 107.915L113.075 108.292L114.401 109.803ZM117.432 111.503L118.19 109.992H116.106L117.432 111.503ZM120.842 113.77L121.41 115.658L122.925 113.77H120.842ZM122.168 110.37L121.789 113.014L124.441 112.448L122.168 110.37ZM119.894 115.092L119.137 115.658L119.894 116.036V115.092ZM105.118 109.614L104.361 110.181L105.118 110.748V109.614ZM101.709 107.537L100.951 108.104L101.898 108.481L101.709 107.537ZM102.845 106.215L102.087 106.781L102.845 107.159V106.215ZM98.8671 107.537L98.1093 108.104L99.0565 108.67L98.8671 107.537ZM98.1093 106.404L97.3516 106.97L98.4882 107.348L98.1093 106.404Z" fill="#FF593E"/>
<path d="M96.9726 106.215L96.2148 106.781L97.162 107.159L96.9726 106.215ZM127.093 122.08L126.525 123.024H127.472L127.093 122.08ZM129.935 121.513L129.366 122.269L130.313 122.458L129.935 121.513ZM124.63 121.135L125.009 121.891L125.577 120.947L124.63 121.135ZM123.683 117.547L124.251 118.302L124.63 117.358L123.683 117.547ZM126.904 116.98L125.956 116.603L126.146 117.547L126.904 116.98ZM100.193 110.748L100.572 111.314L101.14 110.37L100.193 110.748ZM103.792 107.915L103.413 108.481H104.361L103.792 107.915ZM106.255 115.092L105.876 114.714V115.658L106.255 115.092ZM106.066 111.692L105.876 112.259H106.634L106.066 111.692ZM110.612 119.436H110.044L110.233 120.002L110.612 119.436ZM113.264 119.625V119.058L112.696 119.247L113.264 119.625ZM119.137 118.114L119.326 119.247L120.273 118.68L119.137 118.114ZM118.568 107.726L118.379 109.803L120.273 108.859L118.568 107.726ZM104.739 104.704L104.55 106.026L105.876 105.459L104.739 104.704ZM125.388 113.392L124.441 112.447L123.873 113.958L125.388 113.392Z" fill="#FF593E"/>
<path d="M126.524 114.525L125.577 113.581L125.009 115.092L126.524 114.525ZM130.882 119.436L129.934 118.302L129.366 120.191L130.882 119.436ZM124.251 122.646L123.494 121.891L123.304 123.024L124.251 122.646ZM123.115 113.203L123.683 114.147L124.441 113.014L123.115 113.203ZM122.925 115.658L123.683 116.602L124.251 115.469L122.925 115.658ZM123.683 114.336L124.251 115.28L124.82 113.958L123.683 114.336ZM114.401 114.525L113.643 115.469L114.59 115.658L114.401 114.525ZM126.146 115.092H125.198L125.577 116.225L126.146 115.092ZM98.109 105.081L97.3513 105.648L98.4879 106.215L98.109 105.081ZM98.109 103.759L97.3513 104.326L98.2985 104.893L98.109 103.759ZM95.8358 104.893L96.783 105.837L97.3513 104.137L95.8358 104.893ZM95.078 104.515L94.1309 105.27L95.4569 106.026L95.078 104.515Z" fill="#FF593E"/>
<path d="M105.876 103.948L105.308 103.382L105.118 104.137L105.876 103.948ZM95.6463 104.893L95.8358 103.382L93.9414 103.948L95.6463 104.893Z" fill="#FF593E"/>
<path d="M97.3514 104.704L97.5409 103.004L95.8359 103.382L97.3514 104.704ZM102.466 103.382L103.413 105.082L104.739 103.571L102.466 103.382ZM103.035 105.27L103.413 106.593L104.739 105.459L103.035 105.27ZM106.634 106.215L106.823 106.97L107.581 106.215H106.634Z" fill="#FF593E"/>
<path d="M107.77 103.571L105.307 104.704L107.391 106.593L107.77 103.571ZM101.897 102.437H100.382L101.14 104.326L101.897 102.437Z" fill="#FF593E"/>
<path d="M107.96 103.004L105.876 102.815L106.634 104.137L107.96 103.004ZM106.634 108.103L106.065 107.726V108.481L106.634 108.103ZM100.951 106.215L101.329 107.159L102.087 106.215H100.951ZM100.951 104.326L102.087 105.648L102.466 103.382L100.951 104.326ZM94.6991 107.915L94.1309 108.292L94.8886 108.481L94.6991 107.915ZM100.193 104.704L99.4351 104.137L99.2456 105.648L100.193 104.704Z" fill="#FF593E"/>
<path d="M100.761 103.948L100.193 102.815L99.056 104.326L100.761 103.948ZM96.5933 108.859L97.1616 109.614L97.5405 108.859H96.5933ZM99.056 112.07L98.2982 112.825L99.056 113.014V112.07ZM92.8046 105.082L91.668 106.404L93.3729 106.97L92.8046 105.082Z" fill="#FF593E"/>
<path d="M93.7521 103.948L92.0471 104.515L93.5626 105.837L93.7521 103.948ZM96.2147 111.692L95.457 111.314V112.258L96.2147 111.692ZM94.131 107.348H94.8887L94.5098 106.404L94.131 107.348ZM99.0563 109.425H99.6246L99.4352 108.67L99.0563 109.425ZM90.1528 105.648L91.2894 106.781L91.6683 104.893L90.1528 105.648ZM88.2584 106.404L89.5845 107.537L89.9633 105.648L88.2584 106.404ZM86.1746 107.348L87.6901 108.481V106.592L86.1746 107.348ZM83.9014 108.292L85.6063 109.614L85.9852 107.348L83.9014 108.292ZM98.1091 110.37V111.125L98.6774 110.748L98.1091 110.37ZM100.193 109.614L100.951 109.803V108.859L100.193 109.614ZM94.131 109.237V109.803L94.8887 109.425L94.131 109.237ZM103.982 110.936L103.224 111.125L103.603 111.881L103.982 110.936ZM101.33 113.581L100.382 113.769L100.951 114.525L101.33 113.581ZM109.096 105.27L108.718 106.215L109.854 105.837L109.096 105.27ZM114.401 105.27L112.696 104.515L112.506 106.592L114.401 105.27ZM112.506 104.515L110.612 103.759V106.404L112.506 104.515Z" fill="#FF593E"/>
<path d="M111.369 110.181L110.612 108.67L109.475 109.992L111.369 110.181ZM123.683 120.191L123.304 119.813L122.925 120.569L123.683 120.191ZM110.422 108.292L110.043 107.726L109.475 108.292H110.422ZM116.295 106.404L116.484 108.292L118.189 107.537L116.295 106.404ZM112.127 112.07V113.014L113.074 112.447L112.127 112.07ZM114.211 105.27L114.4 107.159L116.105 106.215L114.211 105.27ZM116.295 113.203L116.484 114.147L117.242 113.581L116.295 113.203ZM117.242 116.036V116.98L118.189 116.414L117.242 116.036ZM121.599 110.559L120.841 110.748L121.41 111.314L121.599 110.559ZM118.947 110.748L118.568 110.181L118.189 110.936L118.947 110.748ZM120.462 113.581L119.894 112.825L119.515 113.77L120.462 113.581ZM127.093 119.813L128.608 119.058L127.093 117.925V119.813ZM126.335 121.513L125.767 122.269H126.903L126.335 121.513ZM132.018 120.947L131.26 122.08H132.776L132.018 120.947ZM126.714 124.535L127.282 125.479L127.85 124.535H126.714ZM128.229 118.491L129.176 119.058L129.366 117.925L128.229 118.491ZM129.366 120.947L130.503 121.324V120.002L129.366 120.947ZM131.45 124.913L130.692 124.346L130.503 125.291L131.45 124.913ZM126.714 120.191L126.145 119.624L125.956 120.569L126.714 120.191ZM111.18 114.147V115.092L111.938 114.525L111.18 114.147ZM114.969 111.503L114.211 111.881L114.779 112.447L114.969 111.503ZM113.832 118.491L113.453 117.736L113.074 118.302L113.832 118.491ZM89.5843 114.525L89.0159 114.147L89.2054 114.903L89.5843 114.525ZM94.3202 118.302L93.7518 118.114L94.1307 118.869L94.3202 118.302ZM87.5005 120.758H86.9322L87.311 121.324L87.5005 120.758ZM96.9723 117.925V117.358L96.2145 117.736L96.9723 117.925ZM82.0068 122.646V122.08L81.4385 122.269L82.0068 122.646ZM91.2892 117.169L91.0997 116.414L90.5314 116.791L91.2892 117.169ZM94.1307 112.825L94.5096 113.958L95.0779 113.203L94.1307 112.825ZM97.5406 116.791L96.9723 116.225L96.5934 116.791H97.5406ZM121.788 112.636L121.41 111.881L121.031 112.825L121.788 112.636ZM115.726 109.992L114.4 109.426V111.314L115.726 109.992Z" fill="#FF593E"/>
<path d="M116.863 109.048L115.916 108.859L116.106 109.804L116.863 109.048ZM107.96 110.37L108.149 109.426L107.392 109.615L107.96 110.37ZM108.339 106.782L106.634 108.104L108.528 109.237L108.339 106.782ZM107.581 106.215L107.202 106.593L107.77 106.97L107.581 106.215ZM109.286 110.37L108.907 110.937H109.665L109.286 110.37ZM111.37 107.159L110.801 106.404L110.423 107.348L111.37 107.159ZM112.317 105.648L111.559 104.704L110.991 106.026L112.317 105.648ZM110.612 104.893L109.854 103.949L109.286 105.271L110.612 104.893ZM116.295 107.348L115.537 106.404L114.969 107.537L116.295 107.348ZM118.379 108.481L117.621 107.537L117.053 108.859L118.379 108.481ZM112.696 109.048L112.885 108.293L111.938 108.67L112.696 109.048ZM111.18 111.503L111.37 110.748L110.423 110.937L111.18 111.503Z" fill="#FF593E"/>
<path d="M111.938 108.859L112.317 109.992L113.264 109.048L111.938 108.859ZM117.811 112.825L118.569 113.581L118.948 112.258L117.811 112.825ZM104.361 106.781L105.119 107.348L105.498 106.215L104.361 106.781ZM109.286 108.103L109.476 108.859L110.233 108.292L109.286 108.103ZM116.106 110.181L115.348 110.559L116.106 110.936V110.181ZM113.643 111.125L113.075 110.559L112.886 111.503L113.643 111.125ZM115.538 113.581L115.159 112.825L114.969 113.769L115.538 113.581ZM109.286 112.636L108.529 112.825L109.286 113.392V112.636ZM116.674 112.07L116.295 111.692L116.106 112.447L116.674 112.07ZM123.494 119.435L123.115 120.38H124.252L123.494 119.435ZM120.842 116.602L121.031 117.736L121.979 117.169L120.842 116.602ZM124.252 116.602L124.441 117.358L125.199 116.602H124.252ZM123.873 116.414H123.115L123.683 116.98L123.873 116.414ZM122.547 115.847L122.168 115.28L121.6 116.036L122.547 115.847ZM124.062 117.358L123.494 116.98V117.925L124.062 117.358ZM124.252 115.28L123.683 114.903V115.847L124.252 115.28ZM108.15 111.881L107.96 111.125L107.202 111.881H108.15ZM64.3898 116.414L65.9053 117.736L66.6631 115.469L64.3898 116.414ZM64.7687 127.557L64.011 127.179L64.2004 128.312L64.7687 127.557ZM63.4427 128.879L63.0638 127.935L62.3061 128.69L63.4427 128.879ZM69.6941 116.98V118.68L71.7779 117.736L69.6941 116.98ZM86.9328 108.67L87.6905 109.425L88.2589 108.103L86.9328 108.67ZM93.3736 107.348V108.481L94.3208 107.914L93.3736 107.348ZM58.7067 118.869L57.0018 121.513L59.6539 122.08L58.7067 118.869ZM56.2441 122.269L55.6758 123.591L57.0018 123.213L56.2441 122.269ZM60.6011 124.157L60.4117 125.102H61.5483L60.6011 124.157ZM58.1385 123.402L57.7596 124.346L59.0856 124.157L58.1385 123.402ZM77.0821 111.314L75.756 111.881L77.461 113.392L77.0821 111.314ZM73.1039 118.113L72.7251 117.358L71.9673 118.113H73.1039ZM77.2715 116.225L76.5138 115.091L75.5666 116.602L77.2715 116.225ZM82.1969 112.825L83.1441 112.636L82.5758 111.692L82.1969 112.825ZM81.818 115.847V116.791L82.7652 116.225L81.818 115.847Z" fill="#FF593E"/>
<path d="M63.0631 123.213L62.4947 123.78L63.2525 124.158L63.0631 123.213ZM58.706 121.136V122.08H59.6532L58.706 121.136ZM58.5166 126.235L58.3271 126.802H59.2743L58.5166 126.235ZM103.602 112.259V113.203L104.55 112.825L103.602 112.259ZM89.963 112.259L89.7736 113.014L90.5314 112.825L89.963 112.259ZM87.3109 113.203L86.5532 113.014L86.9321 113.959L87.3109 113.203ZM88.4476 111.126L88.637 111.692L89.2053 111.126H88.4476ZM92.8046 112.448L92.0469 112.825L92.994 113.392L92.8046 112.448ZM94.1307 109.992L94.5095 110.937L95.0778 109.992H94.1307ZM90.1525 109.237L91.0997 108.859L90.1525 108.292V109.237ZM85.4166 110.181L86.3638 109.803L85.4166 109.237V110.181ZM88.2581 106.781L87.8793 107.726H88.8264L88.2581 106.781ZM60.0321 124.535L60.6004 124.724V123.969L60.0321 124.535ZM61.5476 121.702L61.3581 122.269H62.1159L61.5476 121.702ZM67.0412 127.935H66.4729L66.6624 128.69L67.0412 127.935ZM64.3891 125.102L64.1997 125.668H64.9574L64.3891 125.102ZM75.5659 131.146L75.187 131.523L75.5659 131.901V131.146ZM59.6532 130.012L59.2743 129.635L58.8955 130.39L59.6532 130.012ZM84.8483 117.925L85.7954 118.303L85.606 116.98L84.8483 117.925ZM73.4821 112.825L75.187 114.525L75.5659 111.881L73.4821 112.825ZM62.3053 118.869L62.4947 119.814L63.4419 119.058L62.3053 118.869ZM83.9011 108.67L84.2799 109.426L85.0377 108.859L83.9011 108.67ZM91.2891 109.992L90.5314 110.559L91.668 111.126L91.2891 109.992ZM92.4257 106.97L91.2891 107.726L92.8046 108.67L92.4257 106.97ZM89.3948 107.537L88.0687 108.481L89.963 109.426L89.3948 107.537ZM82.575 111.692L82.1962 109.237L79.9229 110.181L82.575 111.692Z" fill="#FF593E"/>
<path d="M85.4173 109.426L86.3645 108.67H85.0384L85.4173 109.426ZM83.7124 108.859L82.1969 109.237L83.9018 110.748L83.7124 108.859ZM76.8927 124.157V125.48L78.2187 124.913L76.8927 124.157ZM86.5539 107.348L86.3645 108.104H87.3117L86.5539 107.348ZM58.8962 124.724L58.7067 125.48L59.6539 125.291L58.8962 124.724ZM62.6849 118.68L62.1166 118.303V119.247L62.6849 118.68ZM56.2441 126.424H55.4863L55.8652 127.368L56.2441 126.424ZM57.5701 125.857V125.102L56.8124 125.668L57.5701 125.857ZM59.2751 119.058L60.0328 119.625V118.68L59.2751 119.058ZM64.3898 119.247L65.1476 120.002L65.5265 119.058L64.3898 119.247ZM63.8216 116.603L62.1166 117.358L63.8216 118.869V116.603ZM60.4117 120.569L60.0328 121.891L61.3589 121.702L60.4117 120.569Z" fill="#FF593E"/>
<path d="M65.1465 120.758L63.631 120.002V121.891L65.1465 120.758ZM60.0317 118.68L61.3578 119.436L61.5472 117.925L60.0317 118.68ZM54.7275 124.535L53.9697 126.235H56.0535L54.7275 124.535ZM60.6 122.836H59.274L60.0317 124.158L60.6 122.836ZM56.0535 124.913L56.8113 125.291V124.346L56.0535 124.913ZM59.6528 126.235L59.4634 127.18L60.4106 126.802L59.6528 126.235ZM57.1902 127.368L56.243 127.557L56.6219 128.313L57.1902 127.368ZM76.3232 116.792L75.5655 117.736L76.8916 117.925L76.3232 116.792Z" fill="#FF593E"/>
<path d="M73.6718 114.714L72.7246 115.281L73.8612 116.036L73.6718 114.714ZM76.3239 113.392L75.5661 114.147L76.5133 114.336L76.3239 113.392ZM72.7246 117.547L72.1563 118.114L72.914 118.68L72.7246 117.547ZM75.5661 116.98L76.1344 117.547L76.3239 116.603L75.5661 116.98ZM61.3584 119.814V121.324L62.8739 120.758L61.3584 119.814ZM66.4732 119.247V120.002L67.2309 119.814L66.4732 119.247ZM80.1126 111.314L80.8704 111.503L81.0598 110.559L80.1126 111.314ZM78.2182 113.203L78.7865 113.392L79.1654 112.825L78.2182 113.203Z" fill="#FF593E"/>
<path d="M67.7994 117.925L67.9888 118.491L68.5571 118.114L67.7994 117.925ZM73.8613 116.603L73.1036 117.358L74.2402 117.736L73.8613 116.603ZM72.3459 116.603L72.7247 115.281L71.2092 115.469L72.3459 116.603ZM75.7557 115.469H74.998V116.225L75.7557 115.469ZM73.4825 118.491L73.1036 118.869L73.8613 119.058L73.4825 118.491ZM70.4515 116.792L69.3149 115.658L68.5571 117.547L70.4515 116.792ZM56.6226 128.501L57.3804 128.124L56.812 127.557L56.6226 128.501ZM52.8339 132.09L53.4022 131.523L52.8339 131.146V132.09ZM54.16 129.446L54.7283 129.257L53.9705 128.69L54.16 129.446ZM52.6445 133.223L53.2128 133.79L53.4022 133.223H52.6445ZM54.16 131.523L54.9177 131.146L54.3494 130.579L54.16 131.523ZM53.4022 127.179L54.3494 128.313L55.1071 126.991L53.4022 127.179ZM52.6445 128.501L51.8867 130.201L54.16 130.012L52.6445 128.501ZM52.8339 132.279L52.455 132.657L53.2128 132.845L52.8339 132.279ZM66.0945 117.925L66.2839 118.68L67.0416 118.114L66.0945 117.925ZM68.3677 114.714L66.6628 115.658L68.3677 116.98V114.714Z" fill="#FF593E"/>
<path d="M67.7991 116.981L67.2308 117.169L67.7991 117.925V116.981ZM71.5878 121.702L70.4512 120.947L70.0723 122.458L71.5878 121.702ZM88.0688 110.559L87.5005 110.937L88.2583 111.314L88.0688 110.559ZM86.3639 111.314L87.1216 110.937L86.3639 110.181V111.314ZM79.7336 117.547L81.2491 118.68L81.628 116.414L79.7336 117.547ZM83.9012 113.392L85.0378 113.959V112.448L83.9012 113.392ZM77.8392 114.714L79.9231 114.903L78.9759 112.637L77.8392 114.714ZM71.0195 120.002L72.1561 120.191L71.7773 118.869L71.0195 120.002ZM83.1435 111.881H84.2801L83.7118 110.559L83.1435 111.881ZM91.8575 110.37L93.9413 110.181L92.6153 108.104L91.8575 110.37ZM87.1216 110.559L89.3949 110.181L88.0688 108.104L87.1216 110.559ZM79.9231 113.014L81.8174 113.959V111.503L79.9231 113.014ZM87.1216 115.847L86.1744 116.036L86.9322 116.792L87.1216 115.847ZM85.6062 110.181L83.9012 110.37L85.2273 111.881L85.6062 110.181ZM91.2892 106.404L89.5843 106.782L90.9104 108.104L91.2892 106.404ZM83.5223 114.903L82.7646 114.714L83.1435 115.47L83.5223 114.903ZM68.7463 120.002L68.3674 119.436L67.9886 120.38L68.7463 120.002ZM71.5878 113.581L73.6716 115.281L73.2928 112.825L71.5878 113.581ZM75.566 119.814L77.0815 120.758L77.2709 118.869L75.566 119.814ZM68.7463 114.714L71.0195 116.414L70.8301 113.77L68.7463 114.714ZM78.597 118.114L79.1653 118.491L79.3547 117.547L78.597 118.114ZM60.0322 124.158L60.2216 125.102L60.9794 124.535L60.0322 124.158ZM77.2709 111.126L78.7864 112.448L78.597 110.559L77.2709 111.126ZM77.6498 114.525L77.0815 114.336L77.2709 115.092L77.6498 114.525Z" fill="#FF593E"/>
<path d="M81.0595 114.714H80.3017L80.6806 115.469L81.0595 114.714ZM71.7771 125.102L72.3454 126.046L72.9137 125.102H71.7771ZM72.7243 122.647L72.3454 123.213L73.1031 123.402L72.7243 122.647ZM69.6933 120.38L69.5039 119.436L68.7461 120.002L69.6933 120.38Z" fill="#FF593E"/>
<path d="M67.9882 124.724L67.4199 125.48H68.3671L67.9882 124.724ZM69.1248 119.625H67.9882L68.5566 120.758L69.1248 119.625Z" fill="#FF593E"/>
<path d="M68.5563 119.247L68.7457 119.813L69.314 119.436L68.5563 119.247ZM67.0408 119.813L65.7148 120.002L66.6619 121.324L67.0408 119.813ZM65.3359 122.269L65.5253 123.213L66.283 122.646L65.3359 122.269ZM70.2612 122.835L70.8295 123.591L71.3979 122.835H70.2612ZM64.5781 124.346L64.957 125.291L65.7148 124.724L64.5781 124.346ZM68.1774 120.758L67.4197 121.135L68.1774 121.891V120.758ZM78.407 127.557L77.8387 127.179L77.6492 127.935L78.407 127.557ZM80.6802 111.881L79.733 112.07L80.3014 112.825L80.6802 111.881ZM67.7985 124.535L67.4197 123.969L67.0408 124.724L67.7985 124.535ZM73.6711 75.9956L73.8605 78.0732L75.7549 76.7511L73.6711 75.9956ZM81.6274 92.805L81.0591 92.0495L80.4908 92.9939L81.6274 92.805ZM80.3014 91.4829L79.733 90.9163L79.3542 91.8607L80.3014 91.4829ZM86.1739 96.0158L86.9316 95.2603L85.9845 94.8826L86.1739 96.0158ZM78.7859 78.8287L77.6492 79.9619L79.3542 80.5285L78.7859 78.8287ZM83.1429 89.5942L82.1957 90.3497L83.1429 90.9163V89.5942ZM88.826 90.9163L87.3105 92.2384L89.2049 93.1828L88.826 90.9163Z" fill="#FF593E"/>
<path d="M88.448 89.2166L86.9325 90.3498L88.8268 91.2942L88.448 89.2166ZM70.8304 75.8069L69.3149 75.618L69.8832 77.5067L70.8304 75.8069ZM69.1254 75.618H67.231L67.9888 77.5067L69.1254 75.618ZM66.4733 79.0176L64.3895 80.1509L66.0944 81.8507L66.4733 79.0176ZM64.5789 76.1846L62.874 76.7512L64.0106 78.2622L64.5789 76.1846ZM85.6064 83.1728L84.4698 82.2284L83.712 83.9283L85.6064 83.1728ZM79.7339 82.795L80.1127 80.9063L78.4078 81.0952L79.7339 82.795ZM82.1965 84.4949L82.7649 82.9839H80.8705L82.1965 84.4949ZM83.712 85.6281L83.3331 87.7056L85.6064 86.7613L83.712 85.6281ZM85.9853 83.7394L84.6592 86.0058L87.5008 86.3836L85.9853 83.7394ZM82.1965 87.139L81.2494 87.5168L82.0071 88.2723L82.1965 87.139ZM70.262 82.6062L69.5043 83.1728L70.4515 83.7394L70.262 82.6062ZM67.6099 80.7175L67.0416 81.4729L67.9888 81.8507L67.6099 80.7175ZM68.1782 79.2065L67.4205 79.7731L68.1782 80.1509V79.2065ZM64.9578 81.2841L64.2001 82.0396L65.1473 82.4173L64.9578 81.2841ZM64.0106 80.3397L63.2529 80.9063L64.3895 81.2841L64.0106 80.3397Z" fill="#FF593E"/>
<path d="M62.6845 80.3398L62.1162 80.9064L63.0634 81.2841L62.6845 80.3398ZM85.4169 96.016L84.6592 96.5826L85.4169 97.1492V96.016ZM87.3113 96.7715L86.3641 97.1492L87.1218 97.9047L87.3113 96.7715ZM83.712 94.1273V94.8828L84.6592 94.3162L83.712 94.1273ZM84.4697 90.5388L84.6592 91.4831L85.4169 90.7276L84.4697 90.5388ZM87.3113 91.4831L86.743 90.5388L86.3641 91.4831H87.3113ZM66.6627 84.3061L67.0416 84.6838L67.4204 83.7395L66.6627 84.3061ZM69.1254 80.9064L68.7465 81.2841L69.5043 81.473L69.1254 80.9064ZM71.588 88.0835L71.0197 87.7057L71.2092 88.6501L71.588 88.0835ZM71.2092 84.6838V85.2504H71.9669L71.2092 84.6838ZM75.9451 92.4275L75.3768 92.2386L75.5662 92.9941L75.9451 92.4275ZM78.5972 92.6163V91.8608L77.8394 92.2386L78.5972 92.6163ZM80.4915 89.9722L80.3021 90.9165L81.2493 90.7276L80.4915 89.9722ZM83.1437 80.7175L82.5754 82.6062L84.6592 82.2285L83.1437 80.7175ZM69.8831 77.6956V78.8288L71.0197 78.4511L69.8831 77.6956ZM88.069 87.5168L87.3113 86.3836L86.3641 87.7057L88.069 87.5168Z" fill="#FF593E"/>
<path d="M88.4477 89.0277L88.0688 87.8945L86.7427 88.8388L88.4477 89.0277ZM88.8265 95.6381L89.0159 94.316L87.1216 94.8826L88.8265 95.6381ZM82.5751 95.2604L82.3857 94.316L81.6279 95.0715L82.5751 95.2604ZM85.7955 86.5724L86.1744 87.7056L87.311 86.7613L85.7955 86.5724Z" fill="#FF593E"/>
<path d="M84.8483 88.4609L85.0378 89.5941L85.985 88.8386L84.8483 88.4609ZM86.1744 87.5165V88.6498L87.1216 87.8943L86.1744 87.5165ZM79.5441 87.5165L78.9758 88.4609L79.923 88.6498L79.5441 87.5165ZM87.8793 89.5941L87.1216 88.8386L86.7427 89.9719L87.8793 89.5941ZM63.6315 79.0174L63.0631 79.7729L64.1998 80.1506L63.6315 79.0174ZM63.442 77.6953L62.8737 78.4508L63.8209 78.6397L63.442 77.6953ZM61.3582 79.2063L62.4948 79.9618L62.6843 78.2619L61.3582 79.2063ZM60.6005 79.0174L59.6533 79.7729L61.1688 80.3395L60.6005 79.0174ZM71.2089 76.751L70.6406 76.3732L70.4512 77.1287L71.2089 76.751ZM61.1688 79.0174L60.9794 77.3176L59.2744 78.2619L61.1688 79.0174Z" fill="#FF593E"/>
<path d="M62.6844 78.2621V76.5623L60.9795 77.5067L62.6844 78.2621ZM67.7992 76.1846L68.557 78.0733L69.883 76.5623L67.7992 76.1846ZM68.1781 78.2621L68.7464 79.5842L69.883 78.451L68.1781 78.2621ZM71.7774 79.2065L72.1562 79.962L72.914 79.2065H71.7774Z" fill="#FF593E"/>
<path d="M72.9139 76.5623L70.6407 77.6956L72.7245 79.5842L72.9139 76.5623ZM67.0414 75.8069L65.5259 76.1846L66.4731 77.6956L67.0414 75.8069ZM73.2928 75.9957L71.0196 75.618L71.7773 76.9401L73.2928 75.9957ZM71.9667 81.0952L71.3984 80.5286L71.209 81.4729L71.9667 81.0952ZM66.6625 79.7731L67.2308 80.5286L67.6097 79.3954L66.6625 79.7731ZM66.2836 77.8844L67.6097 78.8288V76.7512L66.2836 77.8844ZM60.79 82.2284L60.2217 82.795L60.9794 82.9839L60.79 82.2284ZM65.7154 78.2622L64.7682 77.8844L64.9576 79.3954L65.7154 78.2622Z" fill="#FF593E"/>
<path d="M66.095 77.5064L65.3372 76.3732L64.39 78.2619L66.095 77.5064ZM62.6851 82.9837L63.4428 83.5503L63.8217 82.7948L62.6851 82.9837ZM65.5266 85.8167L65.1478 86.5722H65.9055L65.5266 85.8167ZM58.5175 79.7729L57.5703 81.4727L59.2752 81.6616L58.5175 79.7729Z" fill="#FF593E"/>
<path d="M59.0843 78.2624L57.5688 79.2067L59.0843 80.3399V78.2624ZM62.6836 85.8171L62.1153 85.6283V86.5726L62.6836 85.8171ZM60.0315 81.8509L60.7892 81.662L60.4103 80.9065L60.0315 81.8509ZM65.1462 83.173L65.7146 82.9841L65.5251 82.2286L65.1462 83.173ZM55.6744 80.5288L57.1899 81.2843V79.3956L55.6744 80.5288ZM54.1589 81.662L55.8638 82.4175L55.485 80.5288L54.1589 81.662ZM52.6434 83.3618L54.7272 83.7396L53.7801 82.0398L52.6434 83.3618ZM51.1279 85.0617L53.0223 85.6283L52.454 83.5507L51.1279 85.0617ZM64.3885 84.3062L64.5779 85.0617L65.1462 84.4951L64.3885 84.3062ZM66.2828 83.173L67.23 83.3618L67.0406 82.2286L66.2828 83.173ZM60.4103 83.7396V84.3062L61.1681 83.9285L60.4103 83.7396ZM69.1244 83.9285L68.5561 84.1173L68.935 84.8728L69.1244 83.9285ZM68.1772 86.9504L67.4195 87.3281L67.9878 87.8947L68.1772 86.9504ZM74.2392 78.2624L74.0498 79.2067L74.9969 78.829L74.2392 78.2624ZM79.7329 78.2624L77.8385 77.5069V79.5844L79.7329 78.2624ZM77.8385 77.318L75.9441 76.7514V79.2067L77.8385 77.318ZM76.7019 83.173L75.9441 81.662L74.6181 82.9841L76.7019 83.173ZM83.3321 92.8053L83.1427 92.2387L82.385 92.8053H83.3321ZM75.5653 81.2843L75.1864 80.7177L74.8075 81.2843H75.5653ZM81.2484 79.2067V81.2843L82.9533 80.5288L81.2484 79.2067Z" fill="#FF593E"/>
<path d="M77.2703 85.0613L77.4598 86.0056L78.407 85.439L77.2703 85.0613ZM79.5436 78.262V80.1507L81.2485 79.2063L79.5436 78.262ZM80.8697 86.1945V87.1388L81.8168 86.5722L80.8697 86.1945ZM80.6802 87.8943L80.4908 88.8387L81.4379 88.4609L80.6802 87.8943ZM85.6056 84.1169H84.6584L85.2267 84.8724L85.6056 84.1169ZM83.7112 83.7392L83.3323 83.1726L82.764 83.9281L83.7112 83.7392ZM83.1429 86.0056L82.9534 85.2501L82.3851 86.0056H83.1429ZM85.795 93.7493L87.6894 94.127L86.9316 92.2383L85.795 93.7493ZM85.0373 95.0714L84.0901 95.638L85.0373 96.2046V95.0714ZM88.6365 96.9601L87.121 97.3378L88.2577 98.2821L88.6365 96.9601ZM84.0901 97.9044L83.9006 99.2265L85.0373 98.471L84.0901 97.9044ZM87.6894 93.3715L88.0682 94.3159L88.826 93.5604L87.6894 93.3715ZM87.121 96.0157L87.6894 96.9601L88.6365 96.0157H87.121ZM86.3633 98.471L86.1739 97.7155L85.2267 98.2821L86.3633 98.471ZM85.9844 94.3159L85.6056 93.5604L85.0373 94.3159H85.9844ZM76.3232 87.1388L76.5126 88.0832L77.2703 87.5166L76.3232 87.1388ZM80.3013 84.4947L79.5436 84.8724L79.9225 85.2501L80.3013 84.4947ZM79.1647 91.294L78.7858 90.7274L78.407 91.294H79.1647ZM56.6218 89.5941L56.0535 89.4053L56.4323 90.1608L56.6218 89.5941ZM62.1154 92.6161H61.5471L61.926 93.1827L62.1154 92.6161ZM53.7802 103.004H53.2119L53.5908 103.571L53.7802 103.004ZM55.6746 96.2046H55.1063L55.4851 96.7712L55.6746 96.2046ZM64.5781 92.0494L64.3887 91.4828L63.8204 91.8606L64.5781 92.0494ZM55.1063 99.0376L54.9168 98.471L54.3485 98.8488L55.1063 99.0376ZM58.895 91.8606L58.7056 91.294L58.1373 91.8606H58.895ZM60.9788 87.3277L61.3577 88.2721L61.926 87.5166L60.9788 87.3277ZM64.7676 90.7274L64.1992 90.1608L64.0098 90.9162L64.7676 90.7274ZM84.8478 85.6279L84.6584 84.8724L84.0901 85.439L84.8478 85.6279ZM81.0591 82.7948L79.5436 82.2282L79.733 84.3058L81.0591 82.7948Z" fill="#FF593E"/>
<path d="M81.628 82.0393L80.6808 81.6616V82.7948L81.628 82.0393ZM73.2928 83.3614L73.4823 82.417L72.5351 82.6059L73.2928 83.3614ZM73.6717 79.7729L71.7773 81.095L73.6717 82.2282V79.7729ZM72.9139 79.2063L72.3457 79.584L73.1034 79.9617L72.9139 79.2063ZM74.6189 83.1725L74.24 83.928H74.8083L74.6189 83.1725ZM76.5133 79.9617L76.1344 79.3951L75.7555 80.3395L76.5133 79.9617ZM77.6499 78.6396L76.8921 77.6953L76.3238 79.0174L77.6499 78.6396ZM75.9449 77.8842L75.1872 76.9398L74.6189 78.2619L75.9449 77.8842ZM81.628 80.1506L80.6808 79.2063L80.1125 80.5283L81.628 80.1506ZM83.1435 81.4727L82.3858 80.5283L81.8175 81.8504L83.1435 81.4727ZM78.0288 82.0393V81.2838L77.0816 81.4727L78.0288 82.0393ZM76.5133 84.4946V83.7391L75.7555 83.928L76.5133 84.4946Z" fill="#FF593E"/>
<path d="M77.2709 81.8504L77.4603 82.9836L78.5969 82.0392L77.2709 81.8504ZM82.0068 84.8723L82.5751 85.8166L83.1434 84.4945L82.0068 84.8723ZM69.6934 79.5839L70.4512 80.3394L70.83 79.2062L69.6934 79.5839ZM74.4293 80.906L74.8082 81.8504L75.3765 81.2837L74.4293 80.906ZM81.4384 83.1724L80.6807 83.5502L81.249 83.9279L81.4384 83.1724ZM78.9758 84.1168L78.4075 83.5502L78.0286 84.4945L78.9758 84.1168ZM80.8702 86.5721L80.4913 85.8166L80.1124 86.761L80.8702 86.5721ZM74.6188 85.6277L73.861 85.8166L74.6188 86.3832V85.6277ZM82.0068 85.0611L81.6279 84.4945L81.249 85.4389L82.0068 85.0611ZM83.5223 92.0493L82.7645 92.6159L83.7117 93.1825L83.5223 92.0493ZM82.5751 88.4608L82.1962 89.4051L83.1434 89.2163L82.5751 88.4608ZM85.4166 89.594L85.2272 90.3495L86.1744 89.9718L85.4166 89.594ZM85.4166 89.4051L84.4694 89.2163L84.8483 89.9718L85.4166 89.4051ZM84.28 88.2719V87.7053L83.3328 88.2719H84.28ZM85.0378 90.5384L84.6589 89.7829L84.28 90.7272L85.0378 90.5384ZM86.1744 88.6497L85.7955 88.0831L85.2272 88.8385L86.1744 88.6497ZM73.4821 84.8723L73.1033 84.1168L72.3455 84.8723H73.4821ZM50.3709 103.948L51.6969 102.437L49.6131 101.493L50.3709 103.948ZM60.6004 82.2281L62.1159 83.3613L62.8737 81.4726L60.6004 82.2281ZM53.9702 84.1168L54.9173 84.4945V83.1724L53.9702 84.1168ZM59.2744 82.0392L59.4638 83.1724L60.411 82.417L59.2744 82.0392ZM48.2871 90.7272L47.9082 92.0493L50.1814 91.8604L48.2871 90.7272ZM50.3709 98.282L49.6131 98.0931L49.8026 99.0375L50.3709 98.282ZM52.0758 93.938L50.5603 93.7491L51.1286 95.449L52.0758 93.938ZM51.3181 89.9718L52.0758 89.4051L51.1286 88.6497L51.3181 89.9718ZM52.0758 92.8048L52.6441 93.7491L53.2124 92.8048H52.0758ZM68.9357 85.25L68.7462 86.1944L69.6934 85.6277L68.9357 85.25ZM56.8117 87.3276L56.6223 88.0831L57.38 87.8942L56.8117 87.3276ZM56.054 88.0831L55.2962 88.4608L56.054 89.0274V88.0831ZM54.9173 86.3832L55.4857 87.1387L55.6751 86.3832H54.9173ZM59.4638 87.1387L58.8955 87.7053L59.8427 87.8942L59.4638 87.1387ZM60.6004 84.4945L61.1688 85.4389L61.5476 84.3057L60.6004 84.4945Z" fill="#FF593E"/>
<path d="M56.4328 84.306L57.38 83.9283L56.2434 83.3617L56.4328 84.306ZM53.2124 86.1947L53.7807 85.6281L52.8336 85.4392L53.2124 86.1947ZM54.1596 82.2284L53.9702 83.1728H54.9173L54.1596 82.2284ZM55.8645 93.5606H56.8117L56.054 92.4274L55.8645 93.5606ZM47.9082 94.3161L50.1814 93.5606L47.9082 92.0497V94.3161ZM51.1286 85.4392L51.8864 86.0058L52.2652 85.2504L51.1286 85.4392ZM57.7589 84.8726L57.0012 85.6281L58.3272 86.0058L57.7589 84.8726ZM58.3272 81.8507L57.38 82.7951L58.8955 83.3617L58.3272 81.8507Z" fill="#FF593E"/>
<path d="M55.4857 82.7952L54.3491 83.9284L56.2435 84.6839L55.4857 82.7952ZM51.697 88.4613L49.9921 86.7615L48.8555 88.8391L51.697 88.4613ZM52.8336 85.4394L53.402 84.495L52.2653 85.0617L52.8336 85.4394ZM51.1287 85.4394L49.9921 86.5726L52.2653 86.9504L51.1287 85.4394ZM50.9393 101.493L51.3181 102.438L52.4548 101.493H50.9393ZM53.2125 83.173V83.9284L54.1597 83.5507L53.2125 83.173ZM51.697 95.0718L51.8865 96.205L53.0231 95.4495L51.697 95.0718ZM49.6132 95.0718L49.8027 96.0161L50.9393 95.2606L49.6132 95.0718Z" fill="#FF593E"/>
<path d="M49.4238 92.6162V93.7495L50.1816 93.1829L49.4238 92.6162ZM51.5076 97.1491V98.0935L52.4548 97.7157L51.5076 97.1491ZM51.3182 95.827L52.0759 95.6382L51.5076 94.8827L51.3182 95.827ZM49.8027 89.5943L50.5605 89.2166L49.9921 88.4611L49.8027 89.5943ZM50.5605 91.1053L51.1287 90.9164L50.7499 90.1609L50.5605 91.1053ZM49.9921 101.682H50.5605L50.371 100.927L49.9921 101.682ZM49.9921 96.5825L49.8027 97.7157L50.9393 97.1491L49.9921 96.5825Z" fill="#FF593E"/>
<path d="M50.7498 97.1491L49.8026 96.2048L49.2343 97.5269L50.7498 97.1491ZM50.5604 94.5049L49.8026 95.0715L50.3709 95.4493L50.5604 94.5049ZM52.4547 99.0378V99.6044L53.2125 99.2267L52.4547 99.0378ZM52.2653 103.948L51.1287 104.893L52.8336 105.648L52.2653 103.948ZM57.9484 97.1491H58.7061L58.1378 96.2048L57.9484 97.1491ZM48.666 99.4156L49.2343 101.304L50.7498 99.9822L48.666 99.4156ZM50.7498 98.4712L50.9392 99.2267L51.697 98.6601L50.7498 98.4712ZM54.728 99.2267L53.4019 99.6044L54.1597 100.738L54.728 99.2267ZM54.5385 86.0058L53.9702 86.5724H54.9174L54.5385 86.0058Z" fill="#FF593E"/>
<path d="M54.5387 86.761L55.107 86.1944L53.9704 86.0056L54.5387 86.761ZM52.2655 94.6936L54.1598 95.0713L53.4021 92.8049L52.2655 94.6936ZM53.0232 89.7829H54.3493L53.781 88.4609L53.0232 89.7829ZM51.3183 92.616L52.8338 91.105L50.5605 90.3496L51.3183 92.616ZM51.3183 100.926L52.2655 100.36L51.1288 99.6042L51.3183 100.926ZM51.6971 88.6497L52.8338 88.272L51.8866 87.3276L51.6971 88.6497ZM58.3274 85.2501L60.4112 84.6835L58.7063 82.9836L58.3274 85.2501ZM53.781 86.0056L55.8647 85.4389L54.1598 83.7391L53.781 86.0056Z" fill="#FF593E"/>
<path d="M51.5075 89.7833L53.5913 89.0279L51.6969 87.328L51.5075 89.7833ZM54.5384 91.4832L53.5913 91.672L54.349 92.4275L54.5384 91.4832ZM53.4018 86.1948L51.8863 87.1392L53.7807 87.8946L53.4018 86.1948ZM57.1906 81.4731L55.4856 82.0397L57.0011 83.1729L57.1906 81.4731ZM53.4018 91.2943L52.6441 91.4832L53.4018 92.0498V91.2943ZM66.8518 88.2724H66.0941L66.473 89.0279L66.8518 88.2724ZM47.9082 96.2049L50.1814 95.0717L47.7188 94.5051L47.9082 96.2049ZM53.0229 97.7159L54.7279 97.3381L53.5913 95.8272L53.0229 97.7159ZM48.6659 99.038L50.5603 97.1493H47.9082L48.6659 99.038ZM54.349 95.2606H55.1068L54.7279 94.3162L54.349 95.2606ZM48.4765 90.35H50.1814L48.8554 89.0279L48.4765 90.35ZM51.1286 92.4275L50.3708 92.8053L51.1286 93.183V92.4275ZM55.4856 90.5388L54.7279 91.1054L55.4856 91.4832V90.5388ZM62.8737 88.2724V89.0279L63.6314 88.839L62.8737 88.2724ZM59.2744 94.3162L58.5166 93.7496L58.3272 94.694L59.2744 94.3162ZM58.8955 85.4393L58.1378 86.3837L59.4638 86.7614L58.8955 85.4393Z" fill="#FF593E"/>
<path d="M56.812 86.1948L56.0542 86.9502L57.1909 87.328L56.812 86.1948ZM52.8338 101.682L53.4021 102.06V101.304L52.8338 101.682ZM55.107 101.682L56.0542 101.871L55.8648 100.927L55.107 101.682ZM59.4641 89.4056V90.161H60.4113L59.4641 89.4056ZM51.1289 88.4612L50.75 89.4056H51.6972L51.1289 88.4612Z" fill="#FF593E"/>
<path d="M123.492 129.635L122.545 127.746L121.219 129.257L123.492 129.635ZM101.518 121.325V122.458L102.654 121.892L101.518 121.325ZM108.148 122.458L109.095 122.836L108.906 121.703L108.148 122.458ZM102.844 120.381L102.654 121.514L103.98 121.136L102.844 120.381ZM116.672 126.802L117.241 125.669L115.915 125.48L116.672 126.802ZM128.607 129.824H131.827L130.691 127.369L128.607 129.824Z" fill="#AF2500"/>
<path d="M126.713 129.824H128.797L127.471 128.124L126.713 129.824ZM130.88 125.48L131.828 124.536L130.502 124.158L130.88 125.48Z" fill="#AF2500"/>
<path d="M125.007 129.824H126.902L126.144 127.746L125.007 129.824ZM107.769 126.424L109.095 126.802L108.716 125.48L107.769 126.424ZM114.778 124.347V125.48L115.725 125.102L114.778 124.347ZM111.368 124.347L111.557 125.48L112.694 124.913L111.368 124.347ZM106.443 123.213L105.495 122.458L104.927 123.591L106.443 123.213ZM106.822 124.724L107.579 123.969L106.253 123.591L106.822 124.724ZM98.6757 121.136L99.2441 120.38L98.1074 120.003L98.6757 121.136ZM135.995 127.18L136.563 126.613L135.426 126.046L135.995 127.18ZM126.902 127.557L127.66 126.613L126.333 126.424L126.902 127.557ZM104.548 123.402L103.791 122.836L103.412 123.969L104.548 123.402ZM137.889 128.502L137.321 127.935L137.131 128.691L137.889 128.502ZM125.576 125.48L125.765 124.724H125.007L125.576 125.48ZM116.293 120.003H116.862L116.483 119.436L116.293 120.003ZM101.138 123.025L101.328 122.269L100.381 122.458L101.138 123.025ZM110.042 117.17H110.61L110.231 116.414L110.042 117.17ZM111.557 119.436H112.126L111.747 118.681L111.557 119.436Z" fill="#AF2500"/>
<path d="M100.57 118.869L100.949 119.436L101.328 118.869H100.57ZM108.337 118.869L108.527 119.436L109.095 118.869H108.337ZM105.496 122.269L104.927 120.947L103.98 122.08L105.496 122.269ZM111.368 127.369L110.989 125.291L108.906 126.802L111.368 127.369ZM123.871 127.18L123.492 126.046L122.356 126.991L123.871 127.18ZM102.465 124.158L103.412 123.213L102.086 122.458L102.465 124.158ZM103.98 125.291L103.791 123.591L102.275 124.536L103.98 125.291ZM108.527 123.78L108.906 122.836H107.769L108.527 123.78ZM132.396 125.291L133.153 124.347L132.017 124.158L132.396 125.291ZM126.523 125.291L127.47 125.669L127.281 124.724L126.523 125.291ZM125.387 127.557L126.334 127.935L126.144 126.991L125.387 127.557ZM129.554 125.102L130.312 125.669V124.724L129.554 125.102Z" fill="#AF2500"/>
<path d="M127.471 125.291V126.235L128.418 125.857L127.471 125.291ZM130.312 124.158L129.933 123.024L129.176 124.158H130.312ZM122.545 127.368L121.977 126.424L121.409 127.557L122.545 127.368ZM124.44 126.424L125.008 125.857L124.061 125.48L124.44 126.424ZM123.493 129.635H125.008L124.44 127.935L123.493 129.635ZM129.176 126.046L129.744 125.291L128.797 125.102L129.176 126.046ZM121.598 122.08L122.356 122.458V121.513L121.598 122.08ZM125.387 126.235L126.145 126.613V125.669L125.387 126.235ZM132.586 125.857L131.828 125.102L131.07 126.235L132.586 125.857ZM129.555 126.991L130.123 126.424L128.986 126.046L129.555 126.991ZM132.964 125.857L133.912 126.424V125.48L132.964 125.857ZM128.797 127.18L128.039 126.235L127.66 127.368L128.797 127.18ZM129.933 128.691L128.607 127.557L128.039 129.257L129.933 128.691ZM127.85 128.313L126.902 127.368L126.524 128.691L127.85 128.313ZM133.912 124.724L134.29 123.969L133.343 123.78L133.912 124.724ZM106.254 123.024L107.201 123.402V122.269L106.254 123.024ZM112.316 123.969L113.642 123.78L112.884 122.647L112.316 123.969ZM112.505 127.18L113.642 126.802L113.074 125.669L112.505 127.18ZM111.369 127.368L112.316 127.746V126.613L111.369 127.368ZM114.779 125.102H115.915L115.157 123.969L114.779 125.102ZM113.074 124.913L112.884 123.969L112.126 124.724L113.074 124.913ZM133.912 129.635L132.964 128.124L131.828 129.824L133.912 129.635ZM121.03 129.446L120.462 126.991L118.188 128.879L121.03 129.446ZM121.788 124.347V123.591L121.03 123.969L121.788 124.347Z" fill="#AF2500"/>
<path d="M104.928 125.48L104.738 124.724L103.98 125.291L104.928 125.48ZM107.769 126.424L107.39 125.669L106.822 126.047L107.769 126.424ZM120.461 126.424L120.272 125.48L119.325 126.047L120.461 126.424ZM118.567 127.557L117.809 126.235L116.862 127.935L118.567 127.557ZM113.073 125.48L114.021 125.291L113.452 124.347L113.073 125.48ZM113.263 127.18L114.21 126.991L113.452 126.047L113.263 127.18ZM115.157 126.235L114.399 126.991L115.157 127.18V126.235Z" fill="#AF2500"/>
<path d="M114.399 126.802L113.452 127.935L114.589 128.124L114.399 126.802ZM111.747 125.48L112.126 126.424L112.884 125.48H111.747ZM114.399 123.969L115.346 123.591L114.778 122.647L114.399 123.969ZM116.862 125.858L117.43 126.613L117.998 125.858H116.862ZM130.88 126.802L129.554 126.991L130.122 128.313L130.88 126.802ZM135.427 126.802L134.101 126.991L135.048 128.313L135.427 126.802ZM136.563 126.991L135.995 127.746L136.942 127.935L136.563 126.991ZM135.995 129.446L137.132 129.068L135.995 127.935V129.446ZM135.806 125.669H134.669L135.237 126.613L135.806 125.669ZM132.775 127.746L132.396 126.613L131.827 127.18L132.775 127.746ZM132.585 129.068L131.638 127.558L130.88 128.691L132.585 129.068ZM133.153 129.068L134.858 128.313L133.343 126.991L133.153 129.068Z" fill="#AF2500"/>
<path d="M134.29 129.635L135.616 129.446L134.669 128.313L134.29 129.635ZM122.356 126.236L121.977 125.102L121.03 125.858L122.356 126.236ZM125.197 128.691L124.818 127.369L123.682 128.124L125.197 128.691ZM117.809 128.502L117.43 127.369L116.483 128.124L117.809 128.502ZM118.377 127.369L119.514 126.802L118.188 126.047L118.377 127.369ZM120.651 127.369L121.408 126.802L120.651 126.424V127.369ZM117.999 128.88L119.514 128.124L118.188 127.369L117.999 128.88ZM121.219 128.691L121.977 128.124L121.03 127.747L121.219 128.691ZM117.051 122.08L117.62 122.647L117.809 121.703L117.051 122.08ZM102.654 122.269L103.412 122.647L103.601 121.703L102.654 122.269ZM102.844 122.836L101.896 122.08L101.707 123.214L102.844 122.836ZM109.853 124.158L109.474 122.836L108.337 123.969L109.853 124.158Z" fill="#AF2500"/>
<path d="M108.716 125.102L108.148 123.969L107.201 125.102H108.716ZM109.285 123.403L110.232 123.969L110.421 122.836L109.285 123.403ZM106.443 122.08L107.201 122.458L107.39 121.703L106.443 122.08ZM122.356 127.558L123.303 128.502L123.682 126.802L122.356 127.558ZM94.3192 140.401L92.4248 141.156L93.5614 142.289L94.3192 140.401ZM94.698 139.079L95.2664 137.19L93.1826 137.568L94.698 139.079Z" fill="#AF2500"/>
<path d="M92.6142 138.134L92.9931 137.379H92.0459L92.6142 138.134ZM94.3191 140.401L94.698 139.079L92.8036 139.267L94.3191 140.401Z" fill="#AF2500"/>
<path d="M93.3719 142.667L90.9092 142.289L92.4247 144.178L93.3719 142.667ZM93.7507 138.512L92.2353 138.701L92.993 140.023L93.7507 138.512Z" fill="#AF2500"/>
<path d="M92.993 142.478L92.6142 141.722L92.0459 142.478H92.993ZM92.0459 141.156L93.1825 140.4L91.4775 139.834L92.0459 141.156ZM113.642 127.935L113.263 126.802L112.316 127.746L113.642 127.935ZM115.725 120.947L115.536 120.002L114.589 120.758L115.725 120.947ZM117.051 128.69L116.294 126.613L114.589 128.124L117.051 128.69ZM111.179 124.913L110.8 123.78L110.042 124.724L111.179 124.913Z" fill="#AF2500"/>
<path d="M111.936 124.158L111.557 123.214L110.61 123.969L111.936 124.158ZM105.116 125.669L106.632 126.047V124.536L105.116 125.669ZM109.094 125.102L109.663 125.858L110.042 124.914L109.094 125.102ZM95.455 133.602L95.6444 132.279L94.3184 132.846L95.455 133.602Z" fill="#AF2500"/>
<path d="M95.8347 129.824L93.9403 130.58L95.6452 132.279L95.8347 129.824ZM95.6452 134.546L95.0769 134.924L95.4558 135.49L95.6452 134.546ZM93.9403 133.413L92.9931 133.79L93.9403 134.924V133.413ZM93.372 130.391L92.4248 130.957L93.372 131.524V130.391ZM95.2664 137.19L95.6452 135.679L94.1298 135.868L95.2664 137.19ZM94.1298 132.279L94.698 131.524H93.7509L94.1298 132.279ZM95.8347 126.991V125.858L94.8875 126.424L95.8347 126.991Z" fill="#AF2500"/>
<path d="M95.8338 126.991L95.2655 127.558L95.8338 127.935V126.991ZM94.3183 126.424L93.3711 127.369L94.6971 127.935L94.3183 126.424ZM95.8338 124.725L95.076 125.291L95.8338 125.669V124.725ZM95.8338 129.824V128.313L94.5077 128.691L95.8338 129.824ZM93.9394 126.047L94.5077 125.291H93.3711L93.9394 126.047ZM104.927 124.347L105.874 124.914L106.063 123.969L104.927 124.347ZM97.1598 122.269V120.381L95.4549 121.325L97.1598 122.269ZM104.927 120.192L104.548 119.059L103.79 119.814L104.927 120.192ZM103.411 118.303L103.98 118.114L103.411 117.548V118.303ZM102.275 119.625L102.653 119.436L102.275 118.87V119.625ZM100.57 120.381L100.001 119.436L99.4331 120.381H100.57ZM112.694 122.269L113.262 121.892L112.504 121.325L112.694 122.269ZM117.998 124.158L117.808 125.291L118.945 124.914L117.998 124.158ZM114.399 126.613L114.777 125.669L113.451 125.48L114.399 126.613Z" fill="#AF2500"/>
<path d="M117.999 124.158L119.325 123.78L118.378 122.647L117.999 124.158ZM119.514 124.725L119.325 123.969L118.567 124.725H119.514ZM121.598 124.347L122.356 123.969L121.788 123.214L121.598 124.347ZM124.629 124.913L124.44 123.78L123.493 124.536L124.629 124.913ZM117.62 121.325L117.241 120.381L116.294 121.325H117.62ZM107.769 121.703L107.39 120.947L106.443 121.703H107.769ZM110.8 121.703L110.421 120.758L109.474 121.514L110.8 121.703ZM124.061 126.047L123.682 125.102L122.735 125.858L124.061 126.047ZM119.893 122.836L120.651 122.458L119.704 121.892L119.893 122.836ZM116.294 124.347L116.862 124.913L117.431 123.969L116.294 124.347ZM103.981 123.969L104.549 124.347L104.928 123.402L103.981 123.969ZM100.192 122.269L100.95 121.703L99.6236 121.136L100.192 122.269ZM98.1081 122.647L98.2975 121.703L97.1609 122.269L98.1081 122.647ZM100.76 123.969L100.571 123.214L99.813 123.591L100.76 123.969ZM102.276 124.536L101.897 123.214L100.76 124.158L102.276 124.536ZM98.2975 122.836L99.6236 123.591L100.002 122.08L98.2975 122.836ZM98.2975 121.514L99.0553 122.269L99.4341 121.514H98.2975ZM97.5398 120.947L97.9187 121.514L98.4869 120.758L97.5398 120.947ZM118.378 120.758L118.946 121.514L119.325 120.381L118.378 120.758ZM86.9313 145.123L87.1208 143.8L88.2574 144.367L86.9313 145.123ZM85.4158 145.311L85.6053 143.989L86.9313 144.556L85.4158 145.311ZM87.8785 146.633L88.0679 145.311L89.2046 146.067L87.8785 146.633ZM85.7947 147.578L86.5525 146.445L87.8785 147.767L85.7947 147.578ZM83.5215 147.2L84.8475 145.878L85.4158 147.578L83.5215 147.2ZM95.456 121.325L94.6982 120.947L95.6454 120.192L95.456 121.325ZM90.7201 136.435L89.7729 135.868L90.5306 134.924L90.7201 136.435ZM91.6672 141.912L90.1517 141.156L91.4778 139.645L91.6672 141.912ZM93.1827 138.323L91.8567 139.456L91.0989 137.568L93.1827 138.323ZM94.6982 120.758L93.9405 120.381L94.6982 119.814V120.758ZM95.6454 124.725L94.8877 124.347L95.6454 123.78V124.725ZM75.3757 144.367L74.0496 144.178L74.9968 143.045L75.3757 144.367ZM73.6708 143.989H72.3447L73.1025 142.856L73.6708 143.989Z" fill="#AF2500"/>
<path d="M95.4557 133.79L94.5085 134.357L94.3191 133.223L95.4557 133.79ZM84.8473 139.834L85.605 140.589L84.6578 140.967L84.8473 139.834ZM91.4775 132.846L92.4247 133.601L91.2881 133.979L91.4775 132.846ZM92.2353 130.579L91.8564 129.446L93.3719 129.635L92.2353 130.579ZM89.0149 130.013H88.0677L88.4466 129.068L89.0149 130.013ZM77.4593 145.122L75.9438 144.556L77.4593 143.045V145.122ZM96.024 120.003L96.9712 119.247L97.3501 120.38L96.024 120.003ZM101.897 117.358L102.465 117.547V116.792L101.897 117.358ZM105.875 118.869L106.443 119.247V118.492L105.875 118.869ZM95.6451 123.402V123.78L95.0769 123.591L95.6451 123.402ZM74.2388 137.001L73.6705 137.567L73.4811 136.812L74.2388 137.001ZM73.6705 141.723L73.1022 141.156L73.8599 140.778L73.6705 141.723ZM72.5339 143.989L71.3973 143.422L72.3445 142.478L72.5339 143.989ZM70.4501 143.234L69.3135 142.667L70.2607 141.723L70.4501 143.234ZM79.3536 144.556L78.7853 143.989L79.543 143.611L79.3536 144.556ZM75.5649 131.524L74.9966 131.901V131.146L75.5649 131.524ZM94.8874 119.247L94.3191 119.436V118.869L94.8874 119.247ZM93.3719 117.736L93.7508 118.303H92.993L93.3719 117.736Z" fill="#AF2500"/>
<path d="M95.4556 118.87L94.8873 119.247V118.492L95.4556 118.87ZM91.8563 117.925L92.2352 118.492H91.4774L91.8563 117.925ZM93.7507 124.725V123.969L94.5084 124.347L93.7507 124.725ZM91.0986 135.112L90.3408 134.357L91.6669 133.979L91.0986 135.112ZM93.9401 133.413L92.9929 132.657L94.319 132.09L93.9401 133.413ZM92.6141 135.49L91.8563 134.735L93.1824 134.357L92.6141 135.49ZM94.8873 129.069L93.7507 129.257L94.1296 127.935L94.8873 129.069ZM98.1077 118.681L97.35 119.436L97.1605 118.303L98.1077 118.681Z" fill="#AF2500"/>
<path d="M93.751 130.391L93.9404 128.88L95.0771 129.635L93.751 130.391Z" fill="#AF2500"/>
<path d="M93.3727 130.202L93.5621 129.068L94.6987 129.824L93.3727 130.202ZM89.3945 140.023L88.4473 139.456L89.3945 138.512V140.023ZM81.4382 144.745L81.2487 143.611L82.9537 144.178L81.4382 144.745ZM80.8699 144.367L79.5438 143.611L80.8699 142.667V144.367ZM79.3544 146.067L78.0283 145.311L79.3544 144.367V146.067Z" fill="#AF2500"/>
<path d="M79.7324 146.634L79.1641 146.067L81.0584 145.123L79.7324 146.634ZM82.7634 145.689L81.2479 145.5L82.7634 143.989V145.689Z" fill="#AF2500"/>
<path d="M82.1948 145.5L82.3842 147.011L80.111 146.634L82.1948 145.5ZM66.0927 145.311L65.335 145.123L65.9033 144.367L66.0927 145.311ZM89.9617 136.623L89.0145 137.19L88.8251 135.868L89.9617 136.623ZM92.0455 137.568L90.53 138.323V136.623L92.0455 137.568ZM90.9089 139.268L89.9617 139.645V138.512L90.9089 139.268ZM78.9744 144.367L78.0272 145.123L77.8378 143.989L78.9744 144.367ZM80.4899 144.745L79.5427 145.5L79.3533 144.367L80.4899 144.745ZM85.0364 145.311L83.3314 146.822L83.5209 144.745L85.0364 145.311ZM88.0673 134.546L87.6885 133.979H88.6357L88.0673 134.546ZM83.8997 132.091L83.5209 131.335H84.4681L83.8997 132.091ZM84.0892 141.723L83.7103 140.967L84.4681 140.779L84.0892 141.723ZM92.0455 128.691L91.6667 128.124L92.235 127.935L92.0455 128.691ZM93.561 132.091L92.9927 131.335L93.9399 131.146L93.561 132.091ZM87.6885 138.512L87.3096 137.757L88.2568 137.568L87.6885 138.512ZM88.0673 147.956L86.9307 146.256L89.5828 147.2L88.0673 147.956ZM87.6885 143.8L89.3934 143.612L88.6357 145.123L87.6885 143.8Z" fill="#AF2500"/>
<path d="M86.3627 145.311L87.8782 145.122L87.1205 146.633L86.3627 145.311ZM89.5832 134.357V135.112H88.636L89.5832 134.357ZM89.0148 135.679L89.2043 136.434L88.4466 136.057L89.0148 135.679ZM84.2789 144.556L83.9001 143.611L85.0367 143.423L84.2789 144.556ZM89.5832 147.2L88.8254 144.933L90.9092 145.878L89.5832 147.2ZM89.7726 138.134H89.0148L89.3937 137.19L89.7726 138.134ZM89.7726 142.1H89.0148L89.3937 141.156L89.7726 142.1ZM89.2043 143.234H88.4466L88.8254 142.289L89.2043 143.234ZM90.1515 141.156L89.3937 140.967L89.5832 140.023L90.1515 141.156ZM81.248 139.645V140.589L80.3008 140.023L81.248 139.645ZM95.6451 120.003L94.8874 120.569L94.6979 119.625L95.6451 120.003ZM92.993 119.814L93.7508 119.247V120.192L92.993 119.814ZM92.8036 128.502L92.2353 127.369H93.7508L92.8036 128.502ZM92.4247 133.035L91.667 131.901L93.1825 131.713L92.4247 133.035ZM93.3719 119.058L92.8036 119.814L92.0458 118.869L93.3719 119.058ZM89.962 127.935V128.88L89.2043 128.502L89.962 127.935Z" fill="#AF2500"/>
<path d="M85.226 139.268L84.8471 138.323H85.9837L85.226 139.268ZM86.9309 142.101L86.5521 141.156H87.6887L86.9309 142.101ZM81.2478 137.945L80.6795 137.001H81.8161L81.2478 137.945ZM88.4464 141.912L88.0675 140.778L89.3936 140.967L88.4464 141.912ZM86.3626 143.234L85.7943 142.289L87.1203 142.478L86.3626 143.234ZM85.6049 147.011L85.226 146.067H86.5521L85.6049 147.011ZM89.583 145.123L89.2042 143.989L90.5302 144.178L89.583 145.123ZM92.2352 126.802L91.6668 126.047L92.8034 125.858L92.2352 126.802ZM93.7506 129.257L92.9929 129.446L93.1823 128.502L93.7506 129.257ZM93.3718 132.09V133.035L92.4246 132.468L93.3718 132.09ZM90.3408 130.957L90.5302 131.902L89.583 131.335L90.3408 130.957ZM78.9746 136.623L78.5957 135.49H79.7323L78.9746 136.623ZM90.9091 146.067L90.5302 143.8L92.4246 144.178L90.9091 146.067Z" fill="#AF2500"/>
<path d="M91.0991 143.989L89.5836 142.478L91.2885 141.534L91.0991 143.989ZM93.9406 137.19L92.4251 135.868L94.1301 134.734L93.9406 137.19ZM84.6583 137.001L83.9005 137.19L84.0899 136.245L84.6583 137.001ZM77.4597 139.645L76.323 139.078L77.2702 138.323L77.4597 139.645ZM83.1428 143.234H82.0061V142.1L83.1428 143.234ZM80.3012 139.645L79.7329 138.701H80.8695L80.3012 139.645ZM74.4287 142.1L74.0498 141.156H75.1864L74.4287 142.1ZM74.4287 143.423L74.0498 142.478H75.1864L74.4287 143.423Z" fill="#AF2500"/>
<path d="M71.7761 142.856L71.3972 141.911H72.5338L71.7761 142.856ZM73.481 143.989L73.6704 142.856L74.6176 143.422L73.481 143.989ZM75.7542 144.178L75.3754 143.234H76.512L75.7542 144.178ZM69.6923 144.556L68.3662 145.122L68.5557 143.611L69.6923 144.556Z" fill="#AF2500"/>
<path d="M67.9878 145.311L66.8512 145.878V144.367L67.9878 145.311ZM71.966 143.989L70.0716 144.367L70.6399 142.478L71.966 143.989ZM67.7984 145.123L67.4195 144.178H68.5561L67.7984 145.123ZM69.8822 144.178L68.935 143.612L69.8822 143.045V144.178ZM66.6618 146.067L65.5251 146.822L65.3357 145.5L66.6618 146.067ZM65.3357 147.2L64.3885 148.144L64.0096 146.634L65.3357 147.2ZM65.904 143.045V143.989L65.3357 143.612L65.904 143.045ZM63.4413 145.689H62.6836L62.873 144.745L63.4413 145.689Z" fill="#AF2500"/>
<path d="M64.3883 147.766L63.2517 148.333L63.0622 147.011L64.3883 147.766ZM62.4939 148.9L61.3573 149.466L61.1678 148.144L62.4939 148.9ZM60.9784 153.621L60.4101 153.999L60.2207 153.055L60.9784 153.621ZM64.3883 145.311L63.4411 144.933L64.1988 144.178L64.3883 145.311ZM65.3354 146.067L64.3883 145.689L65.146 144.933L65.3354 146.067ZM63.0622 147.766L62.115 147.389L62.8728 146.633L63.0622 147.766ZM64.9566 147.2L64.3883 146.444L65.5249 146.067L64.9566 147.2ZM66.6615 145.689L65.7143 145.311L66.4721 144.556L66.6615 145.689ZM62.8728 150.411L62.4939 151.733L61.5467 150.599L62.8728 150.411ZM61.1678 151.733L60.789 153.055L59.8418 151.922L61.1678 151.733Z" fill="#AF2500"/>
<path d="M62.3044 152.111L61.9255 153.433L60.9783 152.299L62.3044 152.111ZM64.0093 148.522L63.0621 150.033L61.9255 148.144L64.0093 148.522ZM62.1149 152.111L61.1678 151.922L61.9255 150.977L62.1149 152.111ZM67.9875 144.367L67.0403 144.178L67.6086 143.234L67.9875 144.367ZM62.6833 150.033L61.7361 150.222L61.9255 149.089L62.6833 150.033ZM60.9783 155.888L60.2206 156.455L60.0312 155.51L60.9783 155.888ZM61.9255 155.888V157.21L60.5994 156.455L61.9255 155.888ZM61.9255 153.621L61.7361 155.51L60.0312 154.188L61.9255 153.621ZM61.9255 157.588L62.1149 158.91L60.7889 158.343L61.9255 157.588ZM59.6523 158.154L59.2734 158.721L58.7051 158.154H59.6523Z" fill="#AF2500"/>
<path d="M61.9255 158.721L61.7361 159.854L60.5994 159.288L61.9255 158.721ZM61.7361 160.798L61.5466 162.121L60.2206 161.365L61.7361 160.798ZM64.7671 164.765V165.52L63.8199 165.142L64.7671 164.765ZM59.8417 157.21L59.084 157.777L58.8945 156.832L59.8417 157.21ZM61.1678 156.832L60.2206 157.399L60.0312 156.454L61.1678 156.832ZM61.1678 159.665L60.41 160.232L60.2206 159.099L61.1678 159.665Z" fill="#AF2500"/>
<path d="M61.7362 157.776H60.7891L61.1679 156.832L61.7362 157.776ZM61.5468 155.51L60.7891 156.077L60.5996 154.943L61.5468 155.51ZM63.2517 161.365L64.0095 162.498H62.494L63.2517 161.365ZM64.1989 162.876L65.1461 163.82L63.6306 164.198L64.1989 162.876Z" fill="#AF2500"/>
<path d="M62.3046 159.287L63.0623 160.987L60.9785 160.798L62.3046 159.287ZM64.1989 163.065L63.4412 163.631L63.0623 162.498L64.1989 163.065ZM62.8729 161.365L62.494 162.309L61.7363 161.365H62.8729ZM65.3355 164.198L66.2827 164.953L64.9567 165.52L65.3355 164.198Z" fill="#AF2500"/>
<path d="M66.0927 164.954L66.661 166.087L65.3349 166.276L66.0927 164.954ZM67.2293 166.842L67.7976 167.976L66.4716 168.164L67.2293 166.842ZM71.7758 167.409L72.9124 168.731L71.018 169.109L71.7758 167.409ZM66.0927 166.276L65.7138 167.22L64.9561 166.465L66.0927 166.276Z" fill="#AF2500"/>
<path d="M68.7451 166.465L70.0712 166.842L68.9346 167.787L68.7451 166.465ZM70.4501 167.031L71.7761 167.22L70.8289 168.353L70.4501 167.031ZM72.155 167.22H73.6705L73.1022 169.109L72.155 167.22ZM71.5867 169.109L73.1022 169.298L72.5338 171.186L71.5867 169.109Z" fill="#AF2500"/>
<path d="M71.0179 171.186H72.5334L71.9651 173.075L71.0179 171.186ZM71.0179 174.208L71.9651 173.453L71.3968 175.341L69.5025 174.586L71.0179 174.208ZM66.6609 165.331L68.1764 166.087L66.4715 167.409L66.6609 165.331ZM70.6391 167.22L70.2602 168.164L69.5025 167.409L70.6391 167.22ZM68.3658 166.465L68.5553 167.598L67.4187 167.409L68.3658 166.465ZM78.0271 143.989L77.0799 143.611L78.0271 142.856V143.989ZM83.8996 138.89L83.1419 139.078L83.3313 138.134L83.8996 138.89ZM68.1764 143.422L67.7975 142.289H69.1236L68.1764 143.422ZM65.1454 140.023L64.956 140.967L64.1982 140.401L65.1454 140.023ZM69.8813 140.023L69.6919 141.156L68.7447 140.401L69.8813 140.023ZM74.6173 137.19L74.2384 136.245H75.1856L74.6173 137.19ZM67.6081 142.856L66.4715 142.667L67.2292 141.534L67.6081 142.856Z" fill="#AF2500"/>
<path d="M67.6085 140.023L67.798 139.456L68.5557 140.212L67.6085 140.023ZM71.5867 140.4L71.7761 139.456L72.5339 140.212L71.5867 140.4ZM68.7451 141.156L68.3663 141.723L67.798 140.967L68.7451 141.156ZM67.4191 141.534L67.0402 142.289L66.6614 141.345L67.4191 141.534ZM63.8198 143.8L64.3881 142.667L65.3353 143.8H63.8198ZM78.217 140.967L78.7853 140.212L79.3536 141.156L78.217 140.967ZM74.6177 138.701L73.8599 139.267L73.6705 138.134L74.6177 138.701ZM70.8289 141.911L70.2606 141.345L71.0184 140.967L70.8289 141.911ZM65.5247 139.078L64.9564 138.512L65.9036 138.134L65.5247 139.078ZM59.2733 149.655L58.3261 149.466L58.8944 148.711L59.2733 149.655ZM61.736 146.255L60.7888 146.067L61.3571 145.311L61.736 146.255ZM58.8944 154.377L57.7578 154.188L58.5156 153.244L58.8944 154.377ZM58.8944 152.11L59.6522 152.488L58.8944 153.055V152.11ZM58.3261 155.888L59.0839 156.266L58.5156 157.021L58.3261 155.888ZM60.2205 150.033L60.7888 149.655L61.1677 150.411L60.2205 150.033ZM79.543 130.768V131.524L78.5958 131.146L79.543 130.768ZM90.7198 127.746V128.691L89.962 128.313L90.7198 127.746ZM77.4592 139.834L77.2698 140.589L76.512 140.212L77.4592 139.834ZM68.3663 167.787L67.798 168.353L67.6085 167.598L68.3663 167.787ZM67.798 172.508L67.2296 171.942L67.9874 171.564L67.798 172.508ZM69.6923 171.942L68.7451 170.809L70.0712 170.242L69.6923 171.942ZM71.0184 169.864L70.2606 169.109L71.2078 168.542L71.0184 169.864Z" fill="#AF2500"/>
<path d="M71.7768 170.431L70.6402 169.864L71.5874 169.109L71.7768 170.431ZM71.3979 174.397L69.5036 173.453L71.019 172.13L71.3979 174.397ZM69.3141 168.92L68.9353 167.975L70.0719 167.786L69.3141 168.92ZM65.7148 170.997L66.0937 170.242L66.8514 170.808L65.7148 170.997Z" fill="#AF2500"/>
<path d="M68.745 169.487L67.9873 170.053V168.92L68.745 169.487ZM70.6394 169.109L70.45 170.431L69.3134 169.298L70.6394 169.109ZM70.0711 173.642L69.3134 174.208V173.075L70.0711 173.642ZM70.2605 172.886L68.745 171.942L70.6394 170.997L70.2605 172.886Z" fill="#AF2500"/>
<path d="M71.7761 170.62L71.5866 171.375L70.8289 170.998L71.7761 170.62ZM71.7761 172.509L71.5866 173.264L70.8289 172.886L71.7761 172.509ZM69.3134 173.453L69.1239 174.208L68.3662 173.831L69.3134 173.453ZM79.7324 142.289L79.543 143.045L78.7852 142.667L79.7324 142.289ZM76.7014 141.156L77.4592 141.534L77.0803 142.101L76.7014 141.156ZM76.512 142.667L77.2697 142.856L76.7014 143.612L76.512 142.667Z" fill="#AF2500"/>
<path d="M121.978 216.893C121.978 216.893 145.657 247.49 158.16 257.877C170.474 268.265 181.84 269.21 189.607 264.866C197.753 260.333 211.581 249.189 216.507 245.034C217.454 244.09 219.159 244.279 220.106 245.223L243.217 268.832C244.164 269.587 244.164 271.098 243.596 271.854C239.05 278.653 220.902 306.228 198.359 323.604C173.164 342.869 166.685 336.636 145.657 323.415C117.431 306.984 121.978 216.893 121.978 216.893Z" fill="#1EC981"/>
<path d="M149.256 276.764C147.741 268.832 144.71 260.71 141.3 252.4C127.282 218.97 107.012 198.95 78.7858 200.083C71.9661 200.272 49.9915 202.538 37.8675 252.4C36.1626 258.633 8.50488 405.951 8.50488 405.951H158.728L149.256 276.764Z" fill="#FFFDF3"/>
<path d="M138.269 250.511C150.204 294.329 148.878 368.366 150.583 406.706C150.772 412.561 155.698 417.283 161.76 417.283H171.042C171.042 417.283 160.244 306.605 146.415 252.022C137.701 217.459 108.528 207.26 104.55 205.749C122.546 218.214 132.586 229.358 138.269 250.511Z" fill="#1EC981"/>
<path d="M123.683 299.995C125.577 248.811 119.894 199.328 74.9976 199.328C68.1779 199.328 43.5512 206.316 31.4272 255.044C30.1012 260.71 10.0209 386.12 5.66385 412.373C5.28498 415.017 7.36881 417.283 9.83148 417.283H85.6061C96.0251 417.283 109.854 410.484 112.317 400.474C119.515 373.843 122.546 330.403 123.683 299.995Z" fill="url(#paint4_linear_1816_2684)"/>
<path d="M94.6985 208.016C108.527 220.481 108.149 254.666 85.0373 283.941C75.1866 296.596 54.538 321.526 52.2648 327.381C48.2866 336.636 41.2775 411.995 40.1409 415.017C39.762 415.961 38.8148 415.961 37.8676 416.15L-4.56616 422.949C-5.70278 423.138 -7.97603 422.572 -8.54434 421.061C-8.54434 421.061 -29.3824 343.813 -21.8049 311.139C-12.7119 271.098 19.6817 223.881 39.1937 209.527C54.7275 198.761 81.6274 195.928 94.6985 208.016Z" fill="#1EC981"/>
</g>
<rect x="0.961035" y="0.523535" width="151.516" height="218.221" rx="8.0999" stroke="#E0E0E0" stroke-width="0.952929"/>
<defs>
<linearGradient id="paint0_linear_1816_2684" x1="82.0143" y1="194.219" x2="94.9837" y2="177.47" gradientUnits="userSpaceOnUse">
<stop stop-color="#BC5A32" stop-opacity="0"/>
<stop offset="0.99" stop-color="#BC5A32"/>
</linearGradient>
<linearGradient id="paint1_linear_1816_2684" x1="103.947" y1="131.903" x2="93.1596" y2="116.908" gradientUnits="userSpaceOnUse">
<stop stop-color="#BC5A32" stop-opacity="0"/>
<stop offset="0.99" stop-color="#BC5A32"/>
</linearGradient>
<linearGradient id="paint2_linear_1816_2684" x1="45.6953" y1="132.972" x2="75.9053" y2="106.367" gradientUnits="userSpaceOnUse">
<stop offset="0.007" stop-color="#FF7A00"/>
<stop offset="0.983" stop-color="#FFB600"/>
</linearGradient>
<linearGradient id="paint3_linear_1816_2684" x1="73.0813" y1="161.994" x2="73.7159" y2="151.93" gradientUnits="userSpaceOnUse">
<stop stop-color="#CC7A5E" stop-opacity="0"/>
<stop offset="0.924" stop-color="#AA5F4B"/>
</linearGradient>
<linearGradient id="paint4_linear_1816_2684" x1="99.8252" y1="315.292" x2="-48.02" y2="296.658" gradientUnits="userSpaceOnUse">
<stop stop-color="#1EC981"/>
<stop offset="0.998" stop-color="#00394A"/>
</linearGradient>
<clipPath id="clip0_1816_2684">
<rect x="1.4375" y="1" width="150.563" height="217.268" rx="7.62343" fill="white"/>
</clipPath>
</defs>
</svg>
