<svg width="10" height="6" viewBox="0 0 10 6" fill="none" xmlns="http://www.w3.org/2000/svg">
<path d="M9.51235 0.774224C9.42464 0.562289 9.27599 0.381139 9.08531 0.253692C8.89457 0.126239 8.67032 0.0582159 8.44097 0.0582275H1.96395C1.73465 0.0582739 1.51053 0.126308 1.31989 0.253721C1.12926 0.381134 0.980677 0.562202 0.892937 0.774045C0.805197 0.985887 0.782233 1.21899 0.826956 1.44388C0.871672 1.66877 0.982063 1.87535 1.14417 2.03751L4.38268 5.27602C4.60015 5.49337 4.89501 5.61552 5.20246 5.61552C5.5099 5.61552 5.80476 5.49337 6.02223 5.27602L9.26074 2.03751C9.4229 1.87541 9.53334 1.66888 9.5781 1.44402C9.62291 1.21916 9.60001 0.986078 9.51235 0.774224Z" fill="#BEBEBE"/>
</svg>
