<svg width="42" height="42" viewBox="0 0 42 42" fill="none" xmlns="http://www.w3.org/2000/svg">
<path d="M15.8284 38.2111H26.2307C34.8993 38.2111 38.3668 34.7437 38.3668 26.0751V15.6728C38.3668 7.00418 34.8993 3.53674 26.2307 3.53674H15.8284C7.15982 3.53674 3.69238 7.00418 3.69238 15.6728V26.0751C3.69238 34.7437 7.15982 38.2111 15.8284 38.2111Z" stroke="#9EA3AE" stroke-width="1.56035" stroke-linecap="round" stroke-linejoin="round"/>
<path d="M15.8278 17.4066C17.7428 17.4066 19.2952 15.8542 19.2952 13.9391C19.2952 12.0241 17.7428 10.4717 15.8278 10.4717C13.9128 10.4717 12.3604 12.0241 12.3604 13.9391C12.3604 15.8542 13.9128 17.4066 15.8278 17.4066Z" stroke="#9EA3AE" stroke-width="1.56035" stroke-linecap="round" stroke-linejoin="round"/>
<path d="M4.85352 32.9234L13.4008 27.1848C14.7704 26.2659 16.7468 26.3699 17.9778 27.4275L18.5499 27.9303C19.9022 29.0919 22.0867 29.0919 23.439 27.9303L30.6513 21.7409C32.0036 20.5793 34.188 20.5793 35.5403 21.7409L38.3663 24.1681" stroke="#9EA3AE" stroke-width="1.56035" stroke-linecap="round" stroke-linejoin="round"/>
</svg>
