<svg width="21" height="22" viewBox="0 0 21 22" fill="none" xmlns="http://www.w3.org/2000/svg">
<path d="M20.3596 10.8781C20.3596 10.1932 20.299 9.54309 20.1949 8.91028H10.3994V12.8198H16.008C15.7566 14.1028 15.0198 15.1863 13.9275 15.9232V18.5238H17.2736C19.2327 16.712 20.3596 14.0421 20.3596 10.8781Z" fill="#4285F4"/>
<path d="M10.3993 21.046C13.2079 21.046 15.5571 20.1098 17.2735 18.5234L13.9274 15.9229C12.9912 16.547 11.8036 16.9284 10.3993 16.9284C7.68603 16.9284 5.38885 15.0993 4.56534 12.6288H1.11523V15.3074C2.82295 18.7055 6.33373 21.046 10.3993 21.046Z" fill="#34A853"/>
<path d="M4.56542 12.6289C4.34871 12.0047 4.23601 11.3372 4.23601 10.6437C4.23601 9.95026 4.35737 9.28278 4.56542 8.65864V5.98004H1.11532C0.404494 7.38435 -0.00292969 8.96204 -0.00292969 10.6437C-0.00292969 12.3255 0.404494 13.9031 1.11532 15.3075L4.56542 12.6289Z" fill="#FBBC05"/>
<path d="M10.3993 4.3591C11.9336 4.3591 13.3033 4.88789 14.3869 5.91945L17.3515 2.95479C15.5571 1.27308 13.2079 0.241516 10.3993 0.241516C6.33373 0.241516 2.82295 2.58204 1.11523 5.98013L4.56534 8.65873C5.38885 6.18818 7.68603 4.3591 10.3993 4.3591Z" fill="#EA4335"/>
</svg>
