<svg width="29" height="29" viewBox="0 0 29 29" fill="none" xmlns="http://www.w3.org/2000/svg">
<g clip-path="url(#clip0_4081_37707)">
<mask id="mask0_4081_37707" style="mask-type:alpha" maskUnits="userSpaceOnUse" x="0" y="0" width="30" height="29">
<path d="M12.3614 2.91L10.0148 7.60333C9.6948 8.25667 8.8414 8.88333 8.1214 9.00333L3.8681 9.71C1.1481 10.1633 0.5081 12.1367 2.4681 14.0833L5.7748 17.39C6.3348 17.95 6.6414 19.03 6.4681 19.8033L5.5214 23.8967C4.7748 27.1367 6.4948 28.39 9.3614 26.6967L13.3481 24.3367C14.0681 23.91 15.2548 23.91 15.9881 24.3367L19.9748 26.6967C22.8281 28.39 24.5614 27.1233 23.8148 23.8967L22.8681 19.8033C22.6948 19.03 23.0014 17.95 23.5614 17.39L26.8681 14.0833C28.8148 12.1367 28.1881 10.1633 25.4681 9.71L21.2148 9.00333C20.5081 8.88333 19.6548 8.25667 19.3348 7.60333L16.9881 2.91C15.7081 0.363333 13.6281 0.363333 12.3614 2.91Z" fill="#FAAF3B" stroke="#FAAF3B" stroke-width="2" stroke-linecap="round" stroke-linejoin="round"/>
</mask>
<g mask="url(#mask0_4081_37707)">
<path d="M15 -2H45V30H15V-2Z" fill="#FAAF3B"/>
</g>
<mask id="mask1_4081_37707" style="mask-type:alpha" maskUnits="userSpaceOnUse" x="0" y="0" width="30" height="29">
<path d="M12.3614 2.91L10.0148 7.60333C9.6948 8.25667 8.8414 8.88333 8.1214 9.00333L3.8681 9.71C1.1481 10.1633 0.5081 12.1367 2.4681 14.0833L5.7748 17.39C6.3348 17.95 6.6414 19.03 6.4681 19.8033L5.5214 23.8967C4.7748 27.1367 6.4948 28.39 9.3614 26.6967L13.3481 24.3367C14.0681 23.91 15.2548 23.91 15.9881 24.3367L19.9748 26.6967C22.8281 28.39 24.5614 27.1233 23.8148 23.8967L22.8681 19.8033C22.6948 19.03 23.0014 17.95 23.5614 17.39L26.8681 14.0833C28.8148 12.1367 28.1881 10.1633 25.4681 9.71L21.2148 9.00333C20.5081 8.88333 19.6548 8.25667 19.3348 7.60333L16.9881 2.91C15.7081 0.363333 13.6281 0.363333 12.3614 2.91Z" fill="#FAAF3B" stroke="#FAAF3B" stroke-width="2" stroke-linecap="round" stroke-linejoin="round"/>
</mask>
<g mask="url(#mask1_4081_37707)">
<path d="M15 -2H45V30H15V-2Z" fill="#FAAF3B"/>
</g>
<mask id="mask2_4081_37707" style="mask-type:alpha" maskUnits="userSpaceOnUse" x="0" y="0" width="30" height="29">
<path d="M12.3614 2.91L10.0148 7.60333C9.6948 8.25667 8.8414 8.88333 8.1214 9.00333L3.8681 9.71C1.1481 10.1633 0.5081 12.1367 2.4681 14.0833L5.7748 17.39C6.3348 17.95 6.6414 19.03 6.4681 19.8033L5.5214 23.8967C4.7748 27.1367 6.4948 28.39 9.3614 26.6967L13.3481 24.3367C14.0681 23.91 15.2548 23.91 15.9881 24.3367L19.9748 26.6967C22.8281 28.39 24.5614 27.1233 23.8148 23.8967L22.8681 19.8033C22.6948 19.03 23.0014 17.95 23.5614 17.39L26.8681 14.0833C28.8148 12.1367 28.1881 10.1633 25.4681 9.71L21.2148 9.00333C20.5081 8.88333 19.6548 8.25667 19.3348 7.60333L16.9881 2.91C15.7081 0.363333 13.6281 0.363333 12.3614 2.91Z" fill="#FAAF3B" stroke="#FAAF3B" stroke-width="2" stroke-linecap="round" stroke-linejoin="round"/>
</mask>
<g mask="url(#mask2_4081_37707)">
<path d="M15 -2H45V30H15V-2Z" fill="#FAAF3B"/>
</g>
<path d="M12.3614 2.91L10.0148 7.60333C9.6948 8.25667 8.8414 8.88333 8.1214 9.00333L3.8681 9.71C1.1481 10.1633 0.5081 12.1367 2.4681 14.0833L5.7748 17.39C6.3348 17.95 6.6414 19.03 6.4681 19.8033L5.5214 23.8967C4.7748 27.1367 6.4948 28.39 9.3614 26.6967L13.3481 24.3367C14.0681 23.91 15.2548 23.91 15.9881 24.3367L19.9748 26.6967C22.8281 28.39 24.5614 27.1233 23.8148 23.8967L22.8681 19.8033C22.6948 19.03 23.0014 17.95 23.5614 17.39L26.8681 14.0833C28.8148 12.1367 28.1881 10.1633 25.4681 9.71L21.2148 9.00333C20.5081 8.88333 19.6548 8.25667 19.3348 7.60333L16.9881 2.91C15.7081 0.363333 13.6281 0.363333 12.3614 2.91Z" stroke="#FAAF3B" stroke-width="2" stroke-linecap="round" stroke-linejoin="round"/>
</g>
<defs>
<clipPath id="clip0_4081_37707">
<rect width="29" height="29" fill="white" transform="matrix(-1 0 0 1 29 0)"/>
</clipPath>
</defs>
</svg>
