<svg width="29" height="29" viewBox="0 0 29 29" fill="none" xmlns="http://www.w3.org/2000/svg">
<mask id="mask0_3986_2688" style="mask-type:alpha" maskUnits="userSpaceOnUse" x="-1" y="0" width="30" height="29">
<path d="M16.6386 2.91L18.9852 7.60333C19.3052 8.25667 20.1586 8.88333 20.8786 9.00333L25.1319 9.71C27.8519 10.1633 28.4919 12.1367 26.5319 14.0833L23.2252 17.39C22.6652 17.95 22.3586 19.03 22.5319 19.8033L23.4786 23.8967C24.2252 27.1367 22.5052 28.39 19.6386 26.6967L15.6519 24.3367C14.9319 23.91 13.7452 23.91 13.0119 24.3367L9.02524 26.6967C6.17191 28.39 4.43858 27.1233 5.18524 23.8967L6.13191 19.8033C6.30524 19.03 5.99858 17.95 5.43858 17.39L2.13191 14.0833C0.185243 12.1367 0.81191 10.1633 3.53191 9.71L7.78524 9.00333C8.49191 8.88333 9.34524 8.25667 9.66524 7.60333L12.0119 2.91C13.2919 0.363333 15.3719 0.363333 16.6386 2.91Z" fill="#FAAF3B" stroke="#FAAF3B" stroke-width="2" stroke-linecap="round" stroke-linejoin="round"/>
</mask>
<g mask="url(#mask0_3986_2688)">
<rect x="-16" y="-2" width="30" height="32" fill="#FAAF3B"/>
</g>
<mask id="mask1_3986_2688" style="mask-type:alpha" maskUnits="userSpaceOnUse" x="-1" y="0" width="30" height="29">
<path d="M16.6386 2.91L18.9852 7.60333C19.3052 8.25667 20.1586 8.88333 20.8786 9.00333L25.1319 9.71C27.8519 10.1633 28.4919 12.1367 26.5319 14.0833L23.2252 17.39C22.6652 17.95 22.3586 19.03 22.5319 19.8033L23.4786 23.8967C24.2252 27.1367 22.5052 28.39 19.6386 26.6967L15.6519 24.3367C14.9319 23.91 13.7452 23.91 13.0119 24.3367L9.02524 26.6967C6.17191 28.39 4.43858 27.1233 5.18524 23.8967L6.13191 19.8033C6.30524 19.03 5.99858 17.95 5.43858 17.39L2.13191 14.0833C0.185243 12.1367 0.81191 10.1633 3.53191 9.71L7.78524 9.00333C8.49191 8.88333 9.34524 8.25667 9.66524 7.60333L12.0119 2.91C13.2919 0.363333 15.3719 0.363333 16.6386 2.91Z" fill="#FAAF3B" stroke="#FAAF3B" stroke-width="2" stroke-linecap="round" stroke-linejoin="round"/>
</mask>
<g mask="url(#mask1_3986_2688)">
<rect x="-16" y="-2" width="30" height="32" fill="#FAAF3B"/>
</g>
<mask id="mask2_3986_2688" style="mask-type:alpha" maskUnits="userSpaceOnUse" x="-1" y="0" width="30" height="29">
<path d="M16.6386 2.91L18.9852 7.60333C19.3052 8.25667 20.1586 8.88333 20.8786 9.00333L25.1319 9.71C27.8519 10.1633 28.4919 12.1367 26.5319 14.0833L23.2252 17.39C22.6652 17.95 22.3586 19.03 22.5319 19.8033L23.4786 23.8967C24.2252 27.1367 22.5052 28.39 19.6386 26.6967L15.6519 24.3367C14.9319 23.91 13.7452 23.91 13.0119 24.3367L9.02524 26.6967C6.17191 28.39 4.43858 27.1233 5.18524 23.8967L6.13191 19.8033C6.30524 19.03 5.99858 17.95 5.43858 17.39L2.13191 14.0833C0.185243 12.1367 0.81191 10.1633 3.53191 9.71L7.78524 9.00333C8.49191 8.88333 9.34524 8.25667 9.66524 7.60333L12.0119 2.91C13.2919 0.363333 15.3719 0.363333 16.6386 2.91Z" fill="#FAAF3B" stroke="#FAAF3B" stroke-width="2" stroke-linecap="round" stroke-linejoin="round"/>
</mask>
<g mask="url(#mask2_3986_2688)">
<rect x="-16" y="-2" width="30" height="32" fill="#FAAF3B"/>
</g>
<path d="M16.6386 2.91L18.9852 7.60333C19.3052 8.25667 20.1586 8.88333 20.8786 9.00333L25.1319 9.71C27.8519 10.1633 28.4919 12.1367 26.5319 14.0833L23.2252 17.39C22.6652 17.95 22.3586 19.03 22.5319 19.8033L23.4786 23.8967C24.2252 27.1367 22.5052 28.39 19.6386 26.6967L15.6519 24.3367C14.9319 23.91 13.7452 23.91 13.0119 24.3367L9.02524 26.6967C6.17191 28.39 4.43858 27.1233 5.18524 23.8967L6.13191 19.8033C6.30524 19.03 5.99858 17.95 5.43858 17.39L2.13191 14.0833C0.185243 12.1367 0.81191 10.1633 3.53191 9.71L7.78524 9.00333C8.49191 8.88333 9.34524 8.25667 9.66524 7.60333L12.0119 2.91C13.2919 0.363333 15.3719 0.363333 16.6386 2.91Z" stroke="#FAAF3B" stroke-width="2" stroke-linecap="round" stroke-linejoin="round"/>
</svg>
