<svg width="318" height="227" viewBox="0 0 318 227" fill="none" xmlns="http://www.w3.org/2000/svg">
<path d="M102.282 73.463C102.282 73.463 65.0004 128.063 62.8307 134.079C59.221 144.108 45.2366 162.688 45.2366 162.688L0 206.395L16.0709 226.332H39.0028L71.9126 189.371C71.9126 189.371 88.1947 175.258 93.1101 175.258C98.0254 175.258 109.328 173.889 115.844 163.149C122.359 152.409 135.511 132.87 137.047 130.361C138.583 127.845 148.753 120.92 148.753 120.92L102.282 73.463Z" fill="#FFA480"/>
<path opacity="0.3" d="M106.134 85.105L92.0924 114.603C90.678 117.58 93.3469 120.869 96.5534 120.095L107.37 117.477L106.134 85.105Z" fill="#FF7A70"/>
<path d="M231.476 1H294.281C299.529 1 303.798 5.26893 303.798 10.5171V37.8907C303.798 43.1389 299.529 47.4078 294.281 47.4078H276.917" stroke="#8B9A76" stroke-width="0.960029" stroke-miterlimit="10"/>
<path d="M292.866 43.6189H201.343C197.778 43.6189 194.892 40.7325 194.892 37.1675V11.2467C194.892 7.68184 197.778 4.79535 201.343 4.79535H292.866C296.431 4.79535 299.317 7.68184 299.317 11.2467V37.1675C299.317 40.7325 296.431 43.6189 292.866 43.6189Z" fill="white"/>
<path d="M197.555 32.6362C206.038 32.6362 212.915 25.759 212.915 17.2757C212.915 8.79233 206.038 1.91522 197.555 1.91522C189.071 1.91522 182.194 8.79233 182.194 17.2757C182.194 25.759 189.071 32.6362 197.555 32.6362Z" fill="#8B9A76"/>
<path d="M198.802 18.0885C199.769 17.4677 200.409 16.3925 200.409 15.1572C200.409 13.2372 198.847 11.6755 196.927 11.6755C195.007 11.6755 193.445 13.2372 193.445 15.1572C193.445 16.3925 194.085 17.4677 195.052 18.0885C192.747 18.8694 191.09 21.0454 191.09 23.6119C191.09 23.8999 191.115 24.1815 191.16 24.4631C192.684 25.8328 194.7 26.6648 196.908 26.6648C199.135 26.6648 201.164 25.82 202.693 24.4311C202.732 24.1623 202.757 23.8935 202.757 23.6119C202.764 21.0454 201.106 18.8694 198.802 18.0885Z" fill="white"/>
<path d="M196.965 26.6584C202.119 26.6584 206.297 22.4805 206.297 17.3269C206.297 12.1733 202.119 7.99542 196.965 7.99542C191.812 7.99542 187.634 12.1733 187.634 17.3269C187.634 22.4805 191.812 26.6584 196.965 26.6584Z" stroke="white" stroke-width="0.713366" stroke-miterlimit="10"/>
<path d="M285.485 16.1237C285.389 16.1237 285.293 16.0853 285.222 16.0149L282.778 13.6596C282.63 13.5188 282.624 13.2884 282.758 13.1476C282.893 13.0068 283.123 13.0068 283.27 13.1476L285.453 15.2468L290.119 10.3827C290.253 10.2419 290.483 10.2419 290.631 10.3827C290.778 10.5235 290.784 10.7539 290.65 10.8947L285.734 16.0149C285.67 16.0853 285.581 16.1237 285.485 16.1237Z" fill="#183227"/>
<path d="M285.805 19.6502C283.028 19.6502 280.672 17.3909 280.563 14.6068C280.455 11.8291 282.624 9.56348 285.402 9.56348C286.279 9.56348 287.156 9.79388 287.93 10.2291C288.109 10.3315 288.18 10.5491 288.084 10.7219C287.994 10.8947 287.77 10.9523 287.597 10.8563C286.932 10.4851 286.183 10.2867 285.434 10.2867C283.053 10.2867 281.197 12.2196 281.293 14.6004C281.389 16.9813 283.405 18.9142 285.78 18.9142C288.161 18.9142 290.017 16.9813 289.921 14.6004C289.908 14.2484 289.85 13.8964 289.754 13.5508C289.697 13.3588 289.805 13.1604 289.997 13.1092C290.189 13.058 290.394 13.1796 290.445 13.3716C290.561 13.7684 290.625 14.178 290.644 14.594C290.753 17.3909 288.583 19.6502 285.805 19.6502Z" fill="#183227"/>
<path d="M216.912 15.7792V12.2121H218.415C218.796 12.2121 219.13 12.2868 219.419 12.4363C219.711 12.5858 219.937 12.7947 220.097 13.0631C220.26 13.3315 220.342 13.6424 220.342 13.9957C220.342 14.349 220.26 14.6598 220.097 14.9282C219.937 15.1966 219.711 15.4055 219.419 15.555C219.13 15.7045 218.796 15.7792 218.415 15.7792H216.912ZM217.422 15.3359H218.385C218.68 15.3359 218.935 15.2798 219.149 15.1677C219.367 15.0556 219.535 14.8993 219.654 14.6989C219.773 14.4951 219.832 14.2607 219.832 13.9957C219.832 13.7273 219.773 13.4929 219.654 13.2924C219.535 13.092 219.367 12.9357 219.149 12.8236C218.935 12.7115 218.68 12.6554 218.385 12.6554H217.422V15.3359ZM220.532 15.7792L222.148 12.2121H222.652L224.273 15.7792H223.738L222.295 12.4975H222.499L221.057 15.7792H220.532ZM221.22 14.8875L221.358 14.4798H223.366L223.513 14.8875H221.22ZM225.334 15.7792V12.6554H224.111V12.2121H227.061V12.6554H225.838V15.7792H225.334ZM228.08 13.7511H229.915V14.1842H228.08V13.7511ZM228.126 15.3359H230.205V15.7792H227.616V12.2121H230.134V12.6554H228.126V15.3359ZM231.721 16.2888L233.403 11.4885H233.846L232.164 16.2888H231.721ZM235.87 15.7792V12.4159L236.089 12.6554H235.065V12.2121H236.374V15.7792H235.87ZM237.098 15.7792V15.4327L238.551 14.0313C238.68 13.909 238.775 13.802 238.836 13.7103C238.901 13.6152 238.943 13.5285 238.963 13.4504C238.987 13.3689 238.999 13.2907 238.999 13.216C238.999 13.0325 238.935 12.8882 238.806 12.7828C238.676 12.6775 238.488 12.6249 238.24 12.6249C238.05 12.6249 237.878 12.6571 237.725 12.7217C237.572 12.7828 237.44 12.8797 237.328 13.0122L236.981 12.7115C237.117 12.5382 237.299 12.4057 237.526 12.314C237.757 12.2189 238.011 12.1713 238.286 12.1713C238.534 12.1713 238.749 12.2121 238.933 12.2936C239.116 12.3718 239.257 12.4856 239.356 12.6351C239.458 12.7845 239.509 12.9612 239.509 13.165C239.509 13.2805 239.493 13.3944 239.463 13.5065C239.432 13.6186 239.375 13.7375 239.29 13.8632C239.205 13.9889 239.082 14.1299 238.923 14.2861L237.628 15.5346L237.506 15.3359H239.662V15.7792H237.098ZM240.417 13.7511C240.322 13.7511 240.24 13.7188 240.172 13.6542C240.104 13.5863 240.07 13.5014 240.07 13.3995C240.07 13.2975 240.104 13.2143 240.172 13.1498C240.24 13.0852 240.322 13.0529 240.417 13.0529C240.509 13.0529 240.587 13.0852 240.651 13.1498C240.719 13.2143 240.753 13.2975 240.753 13.3995C240.753 13.5014 240.719 13.5863 240.651 13.6542C240.587 13.7188 240.509 13.7511 240.417 13.7511ZM240.417 15.8098C240.322 15.8098 240.24 15.7775 240.172 15.713C240.104 15.645 240.07 15.5601 240.07 15.4582C240.07 15.3563 240.104 15.273 240.172 15.2085C240.24 15.1439 240.322 15.1117 240.417 15.1117C240.509 15.1117 240.587 15.1439 240.651 15.2085C240.719 15.273 240.753 15.3563 240.753 15.4582C240.753 15.5601 240.719 15.645 240.651 15.713C240.587 15.7775 240.509 15.8098 240.417 15.8098ZM242.693 15.82C242.414 15.82 242.164 15.7487 241.943 15.606C241.726 15.4633 241.553 15.2561 241.424 14.9843C241.298 14.7125 241.235 14.383 241.235 13.9957C241.235 13.6084 241.298 13.2788 241.424 13.0071C241.553 12.7353 241.726 12.5281 241.943 12.3854C242.164 12.2427 242.414 12.1713 242.693 12.1713C242.968 12.1713 243.216 12.2427 243.437 12.3854C243.657 12.5281 243.831 12.7353 243.956 13.0071C244.082 13.2788 244.145 13.6084 244.145 13.9957C244.145 14.383 244.082 14.7125 243.956 14.9843C243.831 15.2561 243.657 15.4633 243.437 15.606C243.216 15.7487 242.968 15.82 242.693 15.82ZM242.693 15.3665C242.879 15.3665 243.043 15.3155 243.182 15.2136C243.324 15.1117 243.435 14.9588 243.513 14.755C243.595 14.5511 243.635 14.298 243.635 13.9957C243.635 13.6933 243.595 13.4402 243.513 13.2364C243.435 13.0325 243.324 12.8797 243.182 12.7778C243.043 12.6758 242.879 12.6249 242.693 12.6249C242.506 12.6249 242.341 12.6758 242.198 12.7778C242.056 12.8797 241.943 13.0325 241.862 13.2364C241.784 13.4402 241.745 13.6933 241.745 13.9957C241.745 14.298 241.784 14.5511 241.862 14.755C241.943 14.9588 242.056 15.1117 242.198 15.2136C242.341 15.3155 242.506 15.3665 242.693 15.3665ZM246.092 15.82C245.813 15.82 245.563 15.7487 245.342 15.606C245.125 15.4633 244.952 15.2561 244.823 14.9843C244.697 14.7125 244.634 14.383 244.634 13.9957C244.634 13.6084 244.697 13.2788 244.823 13.0071C244.952 12.7353 245.125 12.5281 245.342 12.3854C245.563 12.2427 245.813 12.1713 246.092 12.1713C246.367 12.1713 246.615 12.2427 246.836 12.3854C247.056 12.5281 247.23 12.7353 247.355 13.0071C247.481 13.2788 247.544 13.6084 247.544 13.9957C247.544 14.383 247.481 14.7125 247.355 14.9843C247.23 15.2561 247.056 15.4633 246.836 15.606C246.615 15.7487 246.367 15.82 246.092 15.82ZM246.092 15.3665C246.278 15.3665 246.441 15.3155 246.581 15.2136C246.723 15.1117 246.834 14.9588 246.912 14.755C246.993 14.5511 247.034 14.298 247.034 13.9957C247.034 13.6933 246.993 13.4402 246.912 13.2364C246.834 13.0325 246.723 12.8797 246.581 12.7778C246.441 12.6758 246.278 12.6249 246.092 12.6249C245.905 12.6249 245.74 12.6758 245.597 12.7778C245.455 12.8797 245.342 13.0325 245.261 13.2364C245.183 13.4402 245.144 13.6933 245.144 13.9957C245.144 14.298 245.183 14.5511 245.261 14.755C245.342 14.9588 245.455 15.1117 245.597 15.2136C245.74 15.3155 245.905 15.3665 246.092 15.3665ZM249.692 15.7792V12.2121H251.083C251.396 12.2121 251.662 12.2614 251.883 12.3599C252.104 12.4584 252.274 12.6011 252.393 12.7879C252.512 12.9748 252.571 13.1973 252.571 13.4555C252.571 13.7137 252.512 13.9362 252.393 14.1231C252.274 14.3065 252.104 14.4492 251.883 14.5511C251.662 14.6496 251.396 14.6989 251.083 14.6989H249.972L250.202 14.4594V15.7792H249.692ZM250.202 14.5104L249.972 14.2556H251.068C251.394 14.2556 251.64 14.1859 251.807 14.0466C251.977 13.9073 252.062 13.7103 252.062 13.4555C252.062 13.2007 251.977 13.0037 251.807 12.8644C251.64 12.7251 251.394 12.6554 251.068 12.6554H249.972L250.202 12.4007V14.5104ZM253.32 15.7792V12.2121H253.738L255.338 14.9078H255.114L256.693 12.2121H257.111L257.116 15.7792H256.627L256.622 12.9816H256.739L255.333 15.3461H255.098L253.682 12.9816H253.809V15.7792H253.32Z" fill="#183227"/>
<path d="M216.376 24.9375L219.079 18.8743H220.464L223.176 24.9375H221.703L219.486 19.5846H220.04L217.814 24.9375H216.376ZM217.727 23.6382L218.1 22.5729H221.218L221.599 23.6382H217.727ZM225.294 24.9375L222.678 18.8743H224.194L226.48 24.2446H225.588L227.91 18.8743H229.304L226.68 24.9375H225.294ZM228.81 24.9375L231.513 18.8743H232.899L235.61 24.9375H234.137L231.92 19.5846H232.474L230.248 24.9375H228.81ZM230.162 23.6382L230.534 22.5729H233.652L234.033 23.6382H230.162ZM236.239 24.9375V18.8743H237.642V24.9375H236.239ZM239.081 24.9375V18.8743H240.484V23.7942H243.525V24.9375H239.081ZM243.545 24.9375L246.248 18.8743H247.634L250.345 24.9375H248.872L246.655 19.5846H247.209L244.983 24.9375H243.545ZM244.897 23.6382L245.269 22.5729H248.387L248.768 23.6382H244.897ZM250.974 24.9375V18.8743H253.936C254.699 18.8743 255.27 19.0187 255.651 19.3074C256.038 19.5961 256.232 19.9772 256.232 20.4507C256.232 20.7683 256.154 21.0455 255.998 21.2823C255.842 21.5132 255.628 21.6922 255.357 21.8193C255.085 21.9463 254.774 22.0098 254.421 22.0098L254.586 21.6547C254.967 21.6547 255.305 21.7182 255.599 21.8453C255.894 21.9665 256.122 22.1484 256.284 22.391C256.451 22.6335 256.535 22.9309 256.535 23.2831C256.535 23.8028 256.33 24.2099 255.92 24.5044C255.51 24.7931 254.906 24.9375 254.11 24.9375H250.974ZM252.369 23.8808H254.006C254.369 23.8808 254.644 23.823 254.828 23.7075C255.019 23.5863 255.114 23.3957 255.114 23.1359C255.114 22.8818 255.019 22.6941 254.828 22.5729C254.644 22.4458 254.369 22.3823 254.006 22.3823H252.265V21.3602H253.763C254.104 21.3602 254.364 21.3025 254.543 21.187C254.727 21.0657 254.82 20.8838 254.82 20.6413C254.82 20.4045 254.727 20.2284 254.543 20.1129C254.364 19.9917 254.104 19.931 253.763 19.931H252.369V23.8808ZM257.597 24.9375V18.8743H259V23.7942H262.041V24.9375H257.597ZM264.115 21.3169H267.034V22.4083H264.115V21.3169ZM264.219 23.8115H267.519V24.9375H262.825V18.8743H267.407V20.0003H264.219V23.8115Z" fill="#183227"/>
<path d="M292.918 28.476H215.476V31.2473H292.918V28.476Z" fill="#D9D9D9"/>
<path d="M292.918 33.5961H215.476V36.3674H292.918V33.5961Z" fill="#D9D9D9"/>
<path d="M28.8075 155.622H27.0986V163.731H28.8075V155.622Z" fill="#FFBA00"/>
<path d="M32.0075 158.822H23.8984V160.531H32.0075V158.822Z" fill="#FFBA00"/>
<path d="M144.223 8.20667H142.514V16.3157H144.223V8.20667Z" fill="#5642F0"/>
<path d="M147.423 11.4067H139.313V13.1156H147.423V11.4067Z" fill="#5642F0"/>
<path d="M174.187 197.563H112.668C107.093 197.563 102.568 193.044 102.568 187.463V39.542C102.568 33.9674 107.087 29.4425 112.668 29.4425H174.187C179.761 29.4425 184.286 33.961 184.286 39.542V187.463C184.286 193.044 179.768 197.563 174.187 197.563Z" fill="white"/>
<path d="M185.118 77.9944H184.049V65.5076H185.118C185.732 65.5076 186.238 66.0068 186.238 66.6276V76.8807C186.231 77.4951 185.732 77.9944 185.118 77.9944Z" fill="white"/>
<path d="M185.118 93.5661H184.049V81.0793H185.118C185.732 81.0793 186.238 81.5785 186.238 82.1993V92.4524C186.231 93.0604 185.732 93.5661 185.118 93.5661Z" fill="white"/>
<path d="M172.972 34.8763H158.693V37.9804C158.693 39.094 157.79 39.99 156.683 39.99H129.668C128.554 39.99 127.658 39.0876 127.658 37.9804V34.8699H113.38C109.232 34.8699 105.872 38.23 105.872 42.3773V183.95C105.872 188.097 109.232 191.457 113.38 191.457H172.978C177.125 191.457 180.486 188.097 180.486 183.95V42.3773C180.486 38.2364 177.125 34.8763 172.972 34.8763Z" fill="#8B9A76"/>
<path opacity="0.31" d="M123.364 119.282L177.925 64.7204V42.3837C177.925 39.6572 175.705 37.4363 172.978 37.4363H161.259V37.9803C161.259 40.502 159.205 42.5501 156.69 42.5501H129.674C127.153 42.5501 125.105 40.4956 125.105 37.9803V37.4299H113.386C110.659 37.4299 108.438 39.6508 108.438 42.3773V134.207C113.405 129.234 118.384 124.255 123.364 119.282Z" fill="white"/>
<path d="M145.846 36.3675H138.806C138.454 36.3675 138.166 36.0795 138.166 35.7275C138.166 35.3755 138.454 35.0875 138.806 35.0875H145.846C146.198 35.0875 146.486 35.3755 146.486 35.7275C146.486 36.0795 146.198 36.3675 145.846 36.3675Z" fill="#D9D9D9"/>
<path d="M153.149 37.1995C153.99 37.1995 154.672 36.5175 154.672 35.6763C154.672 34.835 153.99 34.153 153.149 34.153C152.308 34.153 151.626 34.835 151.626 35.6763C151.626 36.5175 152.308 37.1995 153.149 37.1995Z" fill="#D9D9D9"/>
<path opacity="0.4" d="M184.435 71.8886H120.324V166.292C120.324 170.061 123.384 173.121 127.153 173.121H184.435V71.8886Z" fill="#A09FA4"/>
<path d="M302.519 54.0768V160.749C302.519 166.631 297.731 171.418 291.849 171.418H196.704" stroke="white" stroke-width="0.960029" stroke-miterlimit="10" stroke-linecap="round" stroke-linejoin="round"/>
<path d="M118.192 66.3397V160.743C118.192 164.512 121.252 167.572 125.021 167.572H291.855C295.625 167.572 298.684 164.512 298.684 160.743V66.3397H118.192Z" fill="white"/>
<path d="M298.678 73.8086V59.6194C298.678 56.3233 296.003 53.648 292.707 53.648H124.164C120.868 53.648 118.192 56.3233 118.192 59.6194V73.8086H298.678Z" fill="#183227"/>
<path d="M189.743 65.7671V60.3909H190.565L192.915 64.3155H192.485L194.797 60.3909H195.619L195.626 65.7671H194.682L194.674 61.8732H194.874L192.908 65.1527H192.462L190.465 61.8732H190.696V65.7671H189.743ZM199.598 65.8439C199.178 65.8439 198.791 65.7748 198.438 65.6365C198.085 65.4983 197.778 65.3063 197.516 65.0605C197.255 64.8096 197.053 64.5178 196.91 64.185C196.766 63.847 196.695 63.4784 196.695 63.079C196.695 62.6796 196.766 62.3135 196.91 61.9807C197.053 61.6428 197.255 61.351 197.516 61.1052C197.778 60.8543 198.085 60.6597 198.438 60.5215C198.791 60.3832 199.175 60.3141 199.59 60.3141C200.01 60.3141 200.394 60.3832 200.742 60.5215C201.095 60.6597 201.403 60.8543 201.664 61.1052C201.925 61.351 202.127 61.6428 202.27 61.9807C202.414 62.3135 202.486 62.6796 202.486 63.079C202.486 63.4784 202.414 63.847 202.27 64.185C202.127 64.5229 201.925 64.8147 201.664 65.0605C201.403 65.3063 201.095 65.4983 200.742 65.6365C200.394 65.7748 200.013 65.8439 199.598 65.8439ZM199.59 64.9683C199.861 64.9683 200.112 64.9223 200.343 64.8301C200.573 64.7379 200.773 64.6074 200.942 64.4384C201.111 64.2643 201.241 64.0646 201.334 63.8394C201.431 63.6089 201.479 63.3555 201.479 63.079C201.479 62.8025 201.431 62.5516 201.334 62.3263C201.241 62.0959 201.111 61.8963 200.942 61.7273C200.773 61.5532 200.573 61.4201 200.343 61.3279C200.112 61.2358 199.861 61.1897 199.59 61.1897C199.319 61.1897 199.068 61.2358 198.837 61.3279C198.612 61.4201 198.412 61.5532 198.238 61.7273C198.069 61.8963 197.936 62.0959 197.839 62.3263C197.747 62.5516 197.701 62.8025 197.701 63.079C197.701 63.3504 197.747 63.6013 197.839 63.8317C197.936 64.0621 198.069 64.2643 198.238 64.4384C198.407 64.6074 198.607 64.7379 198.837 64.8301C199.068 64.9223 199.319 64.9683 199.59 64.9683ZM203.544 65.7671V60.3909H204.366L207.737 64.5306H207.33V60.3909H208.321V65.7671H207.499L204.128 61.6274H204.535V65.7671H203.544ZM210.852 65.7671V61.2358H209.07V60.3909H213.632V61.2358H211.851V65.7671H210.852ZM218.16 60.3909H219.159V65.7671H218.16V60.3909ZM215.38 65.7671H214.382V60.3909H215.38V65.7671ZM218.237 63.463H215.296V62.6105H218.237V63.463Z" fill="white"/>
<path d="M141.585 99.6462H128.503C127.287 99.6462 126.295 98.6605 126.295 97.4381V92.3308C126.295 91.1147 127.281 90.1227 128.503 90.1227H141.585C142.801 90.1227 143.793 91.1083 143.793 92.3308V97.4381C143.793 98.6605 142.807 99.6462 141.585 99.6462Z" fill="#CFCFCF"/>
<path d="M165.585 99.6462H152.503C151.287 99.6462 150.295 98.6606 150.295 97.4382V92.3308C150.295 91.1148 151.281 90.1227 152.503 90.1227H165.585C166.801 90.1227 167.793 91.1084 167.793 92.3308V97.4382C167.793 98.6606 166.807 99.6462 165.585 99.6462Z" fill="#CFCFCF"/>
<path d="M189.586 99.6462H176.504C175.288 99.6462 174.296 98.6606 174.296 97.4382V92.3308C174.296 91.1148 175.282 90.1227 176.504 90.1227H189.586C190.802 90.1227 191.794 91.1084 191.794 92.3308V97.4382C191.794 98.6606 190.808 99.6462 189.586 99.6462Z" fill="#CFCFCF"/>
<path d="M213.587 99.6462H200.505C199.289 99.6462 198.297 98.6606 198.297 97.4382V92.3308C198.297 91.1148 199.282 90.1227 200.505 90.1227H213.587C214.803 90.1227 215.795 91.1084 215.795 92.3308V97.4382C215.795 98.6606 214.809 99.6462 213.587 99.6462Z" fill="#CFCFCF"/>
<path d="M237.588 99.6462H224.506C223.29 99.6462 222.298 98.6606 222.298 97.4382V92.3308C222.298 91.1148 223.283 90.1227 224.506 90.1227H237.588C238.804 90.1227 239.796 91.1084 239.796 92.3308V97.4382C239.796 98.6606 238.81 99.6462 237.588 99.6462Z" fill="#CFCFCF"/>
<path d="M261.589 99.6462H248.507C247.291 99.6462 246.299 98.6606 246.299 97.4382V92.3308C246.299 91.1148 247.284 90.1227 248.507 90.1227H261.589C262.805 90.1227 263.797 91.1084 263.797 92.3308V97.4382C263.797 98.6606 262.811 99.6462 261.589 99.6462Z" fill="#CFCFCF"/>
<path d="M285.589 99.6462H272.507C271.291 99.6462 270.299 98.6606 270.299 97.4382V92.3308C270.299 91.1148 271.284 90.1227 272.507 90.1227H285.589C286.805 90.1227 287.797 91.1084 287.797 92.3308V97.4382C287.797 98.6606 286.811 99.6462 285.589 99.6462Z" fill="#CFCFCF"/>
<path d="M141.585 114.546H128.503C127.287 114.546 126.295 113.56 126.295 112.338V107.231C126.295 106.014 127.281 105.022 128.503 105.022H141.585C142.801 105.022 143.793 106.008 143.793 107.231V112.338C143.793 113.56 142.807 114.546 141.585 114.546Z" fill="#CFCFCF"/>
<path d="M165.585 114.546H152.503C151.287 114.546 150.295 113.56 150.295 112.338V107.23C150.295 106.014 151.281 105.022 152.503 105.022H165.585C166.801 105.022 167.793 106.008 167.793 107.23V112.338C167.793 113.56 166.807 114.546 165.585 114.546Z" fill="#CFCFCF"/>
<path d="M189.586 114.546H176.504C175.288 114.546 174.296 113.56 174.296 112.338V107.23C174.296 106.014 175.282 105.022 176.504 105.022H189.586C190.802 105.022 191.794 106.008 191.794 107.23V112.338C191.794 113.56 190.808 114.546 189.586 114.546Z" fill="#CFCFCF"/>
<path d="M213.587 114.546H200.505C199.289 114.546 198.297 113.56 198.297 112.338V107.23C198.297 106.014 199.282 105.022 200.505 105.022H213.587C214.803 105.022 215.795 106.008 215.795 107.23V112.338C215.795 113.56 214.809 114.546 213.587 114.546Z" fill="#CFCFCF"/>
<path d="M237.588 114.546H224.506C223.29 114.546 222.298 113.56 222.298 112.338V107.23C222.298 106.014 223.283 105.022 224.506 105.022H237.588C238.804 105.022 239.796 106.008 239.796 107.23V112.338C239.796 113.56 238.81 114.546 237.588 114.546Z" fill="#CFCFCF"/>
<path d="M261.589 114.546H248.507C247.291 114.546 246.299 113.56 246.299 112.338V107.23C246.299 106.014 247.284 105.022 248.507 105.022H261.589C262.805 105.022 263.797 106.008 263.797 107.23V112.338C263.797 113.56 262.811 114.546 261.589 114.546Z" fill="#CFCFCF"/>
<path d="M285.589 114.546H272.507C271.291 114.546 270.299 113.56 270.299 112.338V107.23C270.299 106.014 271.284 105.022 272.507 105.022H285.589C286.805 105.022 287.797 106.008 287.797 107.23V112.338C287.797 113.56 286.811 114.546 285.589 114.546Z" fill="#CFCFCF"/>
<path d="M141.585 129.452H128.503C127.287 129.452 126.295 128.466 126.295 127.244V122.137C126.295 120.92 127.281 119.928 128.503 119.928H141.585C142.801 119.928 143.793 120.914 143.793 122.137V127.244C143.793 128.46 142.807 129.452 141.585 129.452Z" fill="#CFCFCF"/>
<path d="M165.585 129.452H152.503C151.287 129.452 150.295 128.466 150.295 127.244V122.137C150.295 120.92 151.281 119.928 152.503 119.928H165.585C166.801 119.928 167.793 120.914 167.793 122.137V127.244C167.793 128.46 166.807 129.452 165.585 129.452Z" fill="#CFCFCF"/>
<path d="M189.586 129.452H176.504C175.288 129.452 174.296 128.466 174.296 127.244V122.137C174.296 120.92 175.282 119.928 176.504 119.928H189.586C190.802 119.928 191.794 120.914 191.794 122.137V127.244C191.794 128.46 190.808 129.452 189.586 129.452Z" fill="#CFCFCF"/>
<path d="M213.587 129.452H200.505C199.289 129.452 198.297 128.466 198.297 127.244V122.137C198.297 120.92 199.282 119.928 200.505 119.928H213.587C214.803 119.928 215.795 120.914 215.795 122.137V127.244C215.795 128.46 214.809 129.452 213.587 129.452Z" fill="#CFCFCF"/>
<path d="M237.588 129.452H224.506C223.29 129.452 222.298 128.466 222.298 127.244V122.137C222.298 120.92 223.283 119.928 224.506 119.928H237.588C238.804 119.928 239.796 120.914 239.796 122.137V127.244C239.796 128.46 238.81 129.452 237.588 129.452Z" fill="#CFCFCF"/>
<path d="M261.589 129.452H248.507C247.291 129.452 246.299 128.466 246.299 127.244V122.137C246.299 120.92 247.284 119.928 248.507 119.928H261.589C262.805 119.928 263.797 120.914 263.797 122.137V127.244C263.797 128.46 262.811 129.452 261.589 129.452Z" fill="#CFCFCF"/>
<path d="M285.589 129.452H272.507C271.291 129.452 270.299 128.466 270.299 127.244V122.137C270.299 120.92 271.284 119.928 272.507 119.928H285.589C286.805 119.928 287.797 120.914 287.797 122.137V127.244C287.797 128.46 286.811 129.452 285.589 129.452Z" fill="#CFCFCF"/>
<path d="M141.585 144.352H128.503C127.287 144.352 126.295 143.366 126.295 142.143V137.036C126.295 135.82 127.281 134.828 128.503 134.828H141.585C142.801 134.828 143.793 135.814 143.793 137.036V142.143C143.793 143.36 142.807 144.352 141.585 144.352Z" fill="#CFCFCF"/>
<path d="M165.585 144.352H152.503C151.287 144.352 150.295 143.366 150.295 142.143V137.036C150.295 135.82 151.281 134.828 152.503 134.828H165.585C166.801 134.828 167.793 135.814 167.793 137.036V142.143C167.793 143.36 166.807 144.352 165.585 144.352Z" fill="#CFCFCF"/>
<path d="M189.586 144.352H176.504C175.288 144.352 174.296 143.366 174.296 142.143V137.036C174.296 135.82 175.282 134.828 176.504 134.828H189.586C190.802 134.828 191.794 135.814 191.794 137.036V142.143C191.794 143.36 190.808 144.352 189.586 144.352Z" fill="#CFCFCF"/>
<path d="M213.587 144.352H200.505C199.289 144.352 198.297 143.366 198.297 142.143V137.036C198.297 135.82 199.282 134.828 200.505 134.828H213.587C214.803 134.828 215.795 135.814 215.795 137.036V142.143C215.795 143.36 214.809 144.352 213.587 144.352Z" fill="#CFCFCF"/>
<path d="M237.588 144.352H224.506C223.29 144.352 222.298 143.366 222.298 142.143V137.036C222.298 135.82 223.283 134.828 224.506 134.828H237.588C238.804 134.828 239.796 135.814 239.796 137.036V142.143C239.796 143.36 238.81 144.352 237.588 144.352Z" fill="#183227"/>
<path d="M261.589 144.352H248.507C247.291 144.352 246.299 143.366 246.299 142.143V137.036C246.299 135.82 247.284 134.828 248.507 134.828H261.589C262.805 134.828 263.797 135.814 263.797 137.036V142.143C263.797 143.36 262.811 144.352 261.589 144.352Z" fill="#CFCFCF"/>
<path d="M285.589 144.352H272.507C271.291 144.352 270.299 143.366 270.299 142.143V137.036C270.299 135.82 271.284 134.828 272.507 134.828H285.589C286.805 134.828 287.797 135.814 287.797 137.036V142.143C287.797 143.36 286.811 144.352 285.589 144.352Z" fill="#CFCFCF"/>
<path d="M141.585 159.251H128.503C127.287 159.251 126.295 158.266 126.295 157.043V151.936C126.295 150.72 127.281 149.728 128.503 149.728H141.585C142.801 149.728 143.793 150.713 143.793 151.936V157.043C143.793 158.266 142.807 159.251 141.585 159.251Z" fill="#CFCFCF"/>
<path d="M165.585 159.251H152.503C151.287 159.251 150.295 158.266 150.295 157.043V151.936C150.295 150.72 151.281 149.728 152.503 149.728H165.585C166.801 149.728 167.793 150.713 167.793 151.936V157.043C167.793 158.266 166.807 159.251 165.585 159.251Z" fill="#CFCFCF"/>
<path d="M189.586 159.251H176.504C175.288 159.251 174.296 158.266 174.296 157.043V151.936C174.296 150.72 175.282 149.728 176.504 149.728H189.586C190.802 149.728 191.794 150.713 191.794 151.936V157.043C191.794 158.266 190.808 159.251 189.586 159.251Z" fill="#CFCFCF"/>
<path d="M138.078 95.3219C137.823 95.3219 137.593 95.2575 137.387 95.1285C137.184 94.9996 137.025 94.8123 136.908 94.5666C136.791 94.3179 136.733 94.0171 136.733 93.664C136.733 93.3109 136.791 93.0115 136.908 92.7659C137.025 92.5172 137.184 92.3284 137.387 92.1994C137.593 92.0705 137.823 92.006 138.078 92.006C138.336 92.006 138.566 92.0705 138.769 92.1994C138.971 92.3284 139.131 92.5172 139.247 92.7659C139.367 93.0115 139.427 93.3109 139.427 93.664C139.427 94.0171 139.367 94.3179 139.247 94.5666C139.131 94.8123 138.971 94.9996 138.769 95.1285C138.566 95.2575 138.336 95.3219 138.078 95.3219ZM138.078 94.8015C138.228 94.8015 138.359 94.7616 138.469 94.6818C138.58 94.5989 138.666 94.473 138.727 94.3041C138.792 94.1353 138.824 93.9219 138.824 93.664C138.824 93.403 138.792 93.1896 138.727 93.0238C138.666 92.8549 138.58 92.7306 138.469 92.6508C138.359 92.5679 138.228 92.5264 138.078 92.5264C137.933 92.5264 137.804 92.5679 137.691 92.6508C137.58 92.7306 137.493 92.8549 137.428 93.0238C137.367 93.1896 137.336 93.403 137.336 93.664C137.336 93.9219 137.367 94.1353 137.428 94.3041C137.493 94.473 137.58 94.5989 137.691 94.6818C137.804 94.7616 137.933 94.8015 138.078 94.8015ZM140.343 95.2759V92.2823L140.606 92.5541H139.661V92.0521H140.942V95.2759H140.343Z" fill="white"/>
<path d="M162.621 95.3219C162.366 95.3219 162.136 95.2575 161.93 95.1285C161.727 94.9996 161.568 94.8123 161.451 94.5666C161.334 94.3179 161.276 94.0171 161.276 93.664C161.276 93.3109 161.334 93.0115 161.451 92.7659C161.568 92.5172 161.727 92.3284 161.93 92.1994C162.136 92.0705 162.366 92.006 162.621 92.006C162.879 92.006 163.109 92.0705 163.311 92.1994C163.514 92.3284 163.674 92.5172 163.79 92.7659C163.91 93.0115 163.97 93.3109 163.97 93.664C163.97 94.0171 163.91 94.3179 163.79 94.5666C163.674 94.8123 163.514 94.9996 163.311 95.1285C163.109 95.2575 162.879 95.3219 162.621 95.3219ZM162.621 94.8015C162.771 94.8015 162.902 94.7616 163.012 94.6818C163.123 94.5989 163.209 94.473 163.27 94.3041C163.335 94.1353 163.367 93.9219 163.367 93.664C163.367 93.403 163.335 93.1896 163.27 93.0238C163.209 92.8549 163.123 92.7306 163.012 92.6508C162.902 92.5679 162.771 92.5264 162.621 92.5264C162.476 92.5264 162.347 92.5679 162.234 92.6508C162.123 92.7306 162.036 92.8549 161.971 93.0238C161.91 93.1896 161.879 93.403 161.879 93.664C161.879 93.9219 161.91 94.1353 161.971 94.3041C162.036 94.473 162.123 94.5989 162.234 94.6818C162.347 94.7616 162.476 94.8015 162.621 94.8015ZM164.329 95.2759V94.8752L165.609 93.6594C165.716 93.558 165.796 93.469 165.849 93.3922C165.901 93.3155 165.934 93.2449 165.95 93.1804C165.968 93.1129 165.977 93.0499 165.977 92.9916C165.977 92.8442 165.927 92.7306 165.825 92.6508C165.724 92.5679 165.575 92.5264 165.379 92.5264C165.222 92.5264 165.079 92.5541 164.95 92.6093C164.825 92.6646 164.716 92.749 164.623 92.8626L164.204 92.5402C164.33 92.3714 164.499 92.2409 164.711 92.1488C164.926 92.0536 165.165 92.006 165.429 92.006C165.663 92.006 165.865 92.0444 166.037 92.1211C166.212 92.1948 166.346 92.3008 166.438 92.4389C166.533 92.5771 166.581 92.7413 166.581 92.9317C166.581 93.0361 166.567 93.1405 166.539 93.2449C166.512 93.3462 166.46 93.4537 166.383 93.5673C166.306 93.6809 166.194 93.8083 166.047 93.9495L164.946 94.9949L164.822 94.7693H166.705V95.2759H164.329Z" fill="white"/>
<path d="M184.599 95.3219C184.344 95.3219 184.114 95.2575 183.908 95.1285C183.706 94.9996 183.546 94.8123 183.429 94.5666C183.313 94.3179 183.254 94.0171 183.254 93.664C183.254 93.3109 183.313 93.0115 183.429 92.7659C183.546 92.5172 183.706 92.3284 183.908 92.1994C184.114 92.0705 184.344 92.006 184.599 92.006C184.857 92.006 185.087 92.0705 185.29 92.1994C185.493 92.3284 185.652 92.5172 185.769 92.7659C185.889 93.0115 185.949 93.3109 185.949 93.664C185.949 94.0171 185.889 94.3179 185.769 94.5666C185.652 94.8123 185.493 94.9996 185.29 95.1285C185.087 95.2575 184.857 95.3219 184.599 95.3219ZM184.599 94.8015C184.75 94.8015 184.88 94.7616 184.991 94.6818C185.101 94.5989 185.187 94.473 185.249 94.3041C185.313 94.1353 185.345 93.9219 185.345 93.664C185.345 93.403 185.313 93.1896 185.249 93.0238C185.187 92.8549 185.101 92.7306 184.991 92.6508C184.88 92.5679 184.75 92.5264 184.599 92.5264C184.455 92.5264 184.326 92.5679 184.212 92.6508C184.102 92.7306 184.014 92.8549 183.95 93.0238C183.888 93.1896 183.858 93.403 183.858 93.664C183.858 93.9219 183.888 94.1353 183.95 94.3041C184.014 94.473 184.102 94.5989 184.212 94.6818C184.326 94.7616 184.455 94.8015 184.599 94.8015ZM187.321 95.3219C187.094 95.3219 186.872 95.2897 186.654 95.2252C186.439 95.1577 186.258 95.0656 186.11 94.9489L186.368 94.4837C186.485 94.5789 186.626 94.6557 186.792 94.714C186.958 94.7723 187.131 94.8015 187.312 94.8015C187.527 94.8015 187.694 94.7585 187.814 94.6726C187.934 94.5835 187.994 94.4638 187.994 94.3133C187.994 94.166 187.939 94.0493 187.828 93.9633C187.717 93.8774 187.539 93.8344 187.294 93.8344H186.999V93.4245L187.92 92.3284L187.998 92.5541H186.267V92.0521H188.464V92.4527L187.542 93.5488L187.229 93.3646H187.409C187.805 93.3646 188.101 93.4537 188.298 93.6317C188.497 93.8067 188.597 94.0324 188.597 94.3087C188.597 94.4899 188.551 94.6572 188.459 94.8107C188.367 94.9642 188.226 95.0886 188.035 95.1838C187.848 95.2759 187.61 95.3219 187.321 95.3219Z" fill="white"/>
<path d="M208.488 95.3219C208.233 95.3219 208.003 95.2575 207.797 95.1285C207.594 94.9996 207.435 94.8123 207.318 94.5666C207.201 94.3179 207.143 94.0171 207.143 93.664C207.143 93.3109 207.201 93.0115 207.318 92.7659C207.435 92.5172 207.594 92.3284 207.797 92.1994C208.003 92.0705 208.233 92.006 208.488 92.006C208.746 92.006 208.976 92.0705 209.179 92.1994C209.381 92.3284 209.541 92.5172 209.658 92.7659C209.777 93.0115 209.837 93.3109 209.837 93.664C209.837 94.0171 209.777 94.3179 209.658 94.5666C209.541 94.8123 209.381 94.9996 209.179 95.1285C208.976 95.2575 208.746 95.3219 208.488 95.3219ZM208.488 94.8015C208.638 94.8015 208.769 94.7616 208.879 94.6818C208.99 94.5989 209.076 94.473 209.137 94.3041C209.202 94.1353 209.234 93.9219 209.234 93.664C209.234 93.403 209.202 93.1896 209.137 93.0238C209.076 92.8549 208.99 92.7306 208.879 92.6508C208.769 92.5679 208.638 92.5264 208.488 92.5264C208.344 92.5264 208.215 92.5679 208.101 92.6508C207.99 92.7306 207.903 92.8549 207.838 93.0238C207.777 93.1896 207.746 93.403 207.746 93.664C207.746 93.9219 207.777 94.1353 207.838 94.3041C207.903 94.473 207.99 94.5989 208.101 94.6818C208.215 94.7616 208.344 94.8015 208.488 94.8015ZM210.196 94.5436V94.1291L211.785 92.0521H212.425L210.859 94.1291L210.56 94.037H213.116V94.5436H210.196ZM211.964 95.2759V94.5436L211.983 94.037V93.3876H212.545V95.2759H211.964Z" fill="white"/>
<path d="M232.276 95.3219C232.021 95.3219 231.791 95.2575 231.585 95.1285C231.382 94.9996 231.223 94.8123 231.106 94.5666C230.989 94.3179 230.931 94.0171 230.931 93.664C230.931 93.3109 230.989 93.0115 231.106 92.7659C231.223 92.5172 231.382 92.3284 231.585 92.1994C231.791 92.0705 232.021 92.006 232.276 92.006C232.534 92.006 232.764 92.0705 232.967 92.1994C233.169 92.3284 233.329 92.5172 233.446 92.7659C233.565 93.0115 233.625 93.3109 233.625 93.664C233.625 94.0171 233.565 94.3179 233.446 94.5666C233.329 94.8123 233.169 94.9996 232.967 95.1285C232.764 95.2575 232.534 95.3219 232.276 95.3219ZM232.276 94.8015C232.426 94.8015 232.557 94.7616 232.667 94.6818C232.778 94.5989 232.864 94.473 232.925 94.3041C232.99 94.1353 233.022 93.9219 233.022 93.664C233.022 93.403 232.99 93.1896 232.925 93.0238C232.864 92.8549 232.778 92.7306 232.667 92.6508C232.557 92.5679 232.426 92.5264 232.276 92.5264C232.132 92.5264 232.003 92.5679 231.889 92.6508C231.779 92.7306 231.691 92.8549 231.627 93.0238C231.565 93.1896 231.534 93.403 231.534 93.664C231.534 93.9219 231.565 94.1353 231.627 94.3041C231.691 94.473 231.779 94.5989 231.889 94.6818C232.003 94.7616 232.132 94.8015 232.276 94.8015ZM235.098 95.3219C234.871 95.3219 234.649 95.2897 234.431 95.2252C234.216 95.1577 234.035 95.0656 233.887 94.9489L234.14 94.4837C234.257 94.5789 234.398 94.6557 234.564 94.714C234.733 94.7723 234.908 94.8015 235.089 94.8015C235.301 94.8015 235.467 94.757 235.587 94.668C235.709 94.5789 235.771 94.4592 235.771 94.3087C235.771 94.2074 235.745 94.1184 235.693 94.0416C235.643 93.9649 235.554 93.9065 235.425 93.8666C235.3 93.8267 235.126 93.8067 234.905 93.8067H234.127L234.292 92.0521H236.185V92.5541H234.514L234.827 92.2685L234.702 93.5811L234.389 93.3001H235.039C235.358 93.3001 235.614 93.3431 235.808 93.4291C236.004 93.512 236.147 93.6287 236.236 93.7791C236.328 93.9265 236.374 94.0953 236.374 94.2857C236.374 94.473 236.328 94.6449 236.236 94.8015C236.144 94.9581 236.003 95.084 235.812 95.1792C235.625 95.2743 235.387 95.3219 235.098 95.3219Z" fill="white"/>
<path d="M256.917 95.3219C256.662 95.3219 256.431 95.2575 256.226 95.1285C256.023 94.9996 255.863 94.8123 255.747 94.5666C255.63 94.3179 255.572 94.0171 255.572 93.664C255.572 93.3109 255.63 93.0115 255.747 92.7659C255.863 92.5172 256.023 92.3284 256.226 92.1994C256.431 92.0705 256.662 92.006 256.917 92.006C257.174 92.006 257.405 92.0705 257.607 92.1994C257.81 92.3284 257.97 92.5172 258.086 92.7659C258.206 93.0115 258.266 93.3109 258.266 93.664C258.266 94.0171 258.206 94.3179 258.086 94.5666C257.97 94.8123 257.81 94.9996 257.607 95.1285C257.405 95.2575 257.174 95.3219 256.917 95.3219ZM256.917 94.8015C257.067 94.8015 257.198 94.7616 257.308 94.6818C257.419 94.5989 257.505 94.473 257.566 94.3041C257.63 94.1353 257.663 93.9219 257.663 93.664C257.663 93.403 257.63 93.1896 257.566 93.0238C257.505 92.8549 257.419 92.7306 257.308 92.6508C257.198 92.5679 257.067 92.5264 256.917 92.5264C256.772 92.5264 256.643 92.5679 256.53 92.6508C256.419 92.7306 256.332 92.8549 256.267 93.0238C256.206 93.1896 256.175 93.403 256.175 93.664C256.175 93.9219 256.206 94.1353 256.267 94.3041C256.332 94.473 256.419 94.5989 256.53 94.6818C256.643 94.7616 256.772 94.8015 256.917 94.8015ZM260.066 95.3219C259.774 95.3219 259.524 95.2605 259.315 95.1377C259.107 95.0118 258.947 94.8307 258.836 94.5943C258.726 94.3579 258.671 94.0662 258.671 93.7192C258.671 93.3508 258.737 93.0392 258.869 92.7843C259.004 92.5295 259.189 92.3361 259.426 92.204C259.665 92.072 259.94 92.006 260.25 92.006C260.413 92.006 260.568 92.0229 260.715 92.0567C260.866 92.0904 260.993 92.1426 261.098 92.2133L260.877 92.6646C260.788 92.6063 260.691 92.5663 260.586 92.5448C260.485 92.5203 260.378 92.508 260.264 92.508C259.96 92.508 259.719 92.6016 259.541 92.7889C259.363 92.9762 259.274 93.2525 259.274 93.6179C259.274 93.6763 259.275 93.7453 259.278 93.8252C259.282 93.9019 259.292 93.9802 259.311 94.06L259.127 93.8574C259.182 93.7315 259.257 93.6271 259.352 93.5442C259.45 93.4583 259.566 93.3938 259.698 93.3508C259.833 93.3078 259.979 93.2863 260.135 93.2863C260.347 93.2863 260.536 93.3278 260.702 93.4107C260.867 93.4905 260.999 93.6056 261.098 93.7561C261.196 93.9035 261.245 94.0769 261.245 94.2765C261.245 94.4883 261.193 94.6726 261.088 94.8291C260.984 94.9857 260.843 95.107 260.665 95.193C260.487 95.2789 260.287 95.3219 260.066 95.3219ZM260.034 94.8522C260.157 94.8522 260.266 94.8307 260.361 94.7877C260.456 94.7416 260.53 94.6772 260.582 94.5943C260.637 94.5114 260.665 94.4147 260.665 94.3041C260.665 94.1353 260.606 94.0017 260.49 93.9035C260.373 93.8052 260.216 93.7561 260.02 93.7561C259.891 93.7561 259.777 93.7806 259.679 93.8298C259.584 93.8758 259.507 93.9403 259.449 94.0232C259.394 94.1061 259.366 94.2013 259.366 94.3087C259.366 94.407 259.392 94.4976 259.444 94.5805C259.496 94.6634 259.572 94.7294 259.67 94.7785C259.771 94.8276 259.893 94.8522 260.034 94.8522Z" fill="white"/>
<path d="M280.918 95.3219C280.663 95.3219 280.432 95.2575 280.227 95.1285C280.024 94.9996 279.864 94.8123 279.748 94.5666C279.631 94.3179 279.573 94.0171 279.573 93.664C279.573 93.3109 279.631 93.0115 279.748 92.7659C279.864 92.5172 280.024 92.3284 280.227 92.1994C280.432 92.0705 280.663 92.006 280.918 92.006C281.175 92.006 281.406 92.0705 281.608 92.1994C281.811 92.3284 281.971 92.5172 282.087 92.7659C282.207 93.0115 282.267 93.3109 282.267 93.664C282.267 94.0171 282.207 94.3179 282.087 94.5666C281.971 94.8123 281.811 94.9996 281.608 95.1285C281.406 95.2575 281.175 95.3219 280.918 95.3219ZM280.918 94.8015C281.068 94.8015 281.198 94.7616 281.309 94.6818C281.42 94.5989 281.506 94.473 281.567 94.3041C281.631 94.1353 281.664 93.9219 281.664 93.664C281.664 93.403 281.631 93.1896 281.567 93.0238C281.506 92.8549 281.42 92.7306 281.309 92.6508C281.198 92.5679 281.068 92.5264 280.918 92.5264C280.773 92.5264 280.644 92.5679 280.531 92.6508C280.42 92.7306 280.333 92.8549 280.268 93.0238C280.207 93.1896 280.176 93.403 280.176 93.664C280.176 93.9219 280.207 94.1353 280.268 94.3041C280.333 94.473 280.42 94.5989 280.531 94.6818C280.644 94.7616 280.773 94.8015 280.918 94.8015ZM283.188 95.2759L284.519 92.2915L284.675 92.5587H282.847L283.133 92.2685V93.1067H282.575V92.0521H285.081V92.4527L283.828 95.2759H283.188Z" fill="white"/>
<path d="M136.806 110.682C136.551 110.682 136.321 110.618 136.115 110.489C135.913 110.36 135.753 110.173 135.636 109.927C135.52 109.678 135.461 109.378 135.461 109.024C135.461 108.671 135.52 108.372 135.636 108.126C135.753 107.878 135.913 107.689 136.115 107.56C136.321 107.431 136.551 107.366 136.806 107.366C137.064 107.366 137.294 107.431 137.497 107.56C137.7 107.689 137.859 107.878 137.976 108.126C138.096 108.372 138.156 108.671 138.156 109.024C138.156 109.378 138.096 109.678 137.976 109.927C137.859 110.173 137.7 110.36 137.497 110.489C137.294 110.618 137.064 110.682 136.806 110.682ZM136.806 110.162C136.957 110.162 137.087 110.122 137.198 110.042C137.308 109.959 137.394 109.833 137.456 109.665C137.52 109.496 137.552 109.282 137.552 109.024C137.552 108.763 137.52 108.55 137.456 108.384C137.394 108.215 137.308 108.091 137.198 108.011C137.087 107.928 136.957 107.887 136.806 107.887C136.662 107.887 136.533 107.928 136.419 108.011C136.309 108.091 136.221 108.215 136.157 108.384C136.095 108.55 136.065 108.763 136.065 109.024C136.065 109.282 136.095 109.496 136.157 109.665C136.221 109.833 136.309 109.959 136.419 110.042C136.533 110.122 136.662 110.162 136.806 110.162ZM139.854 110.682C139.587 110.682 139.355 110.642 139.159 110.563C138.962 110.483 138.81 110.371 138.703 110.226C138.596 110.079 138.542 109.907 138.542 109.711C138.542 109.514 138.594 109.348 138.698 109.213C138.803 109.078 138.953 108.975 139.15 108.905C139.346 108.834 139.581 108.799 139.854 108.799C140.128 108.799 140.362 108.834 140.559 108.905C140.759 108.975 140.911 109.08 141.015 109.218C141.122 109.353 141.176 109.517 141.176 109.711C141.176 109.907 141.121 110.079 141.01 110.226C140.903 110.371 140.749 110.483 140.55 110.563C140.353 110.642 140.121 110.682 139.854 110.682ZM139.854 110.213C140.075 110.213 140.25 110.167 140.379 110.074C140.508 109.982 140.573 109.855 140.573 109.692C140.573 109.533 140.508 109.407 140.379 109.315C140.25 109.222 140.075 109.176 139.854 109.176C139.633 109.176 139.46 109.222 139.334 109.315C139.208 109.407 139.145 109.533 139.145 109.692C139.145 109.855 139.208 109.982 139.334 110.074C139.46 110.167 139.633 110.213 139.854 110.213ZM139.854 109.112C139.606 109.112 139.392 109.08 139.214 109.015C139.036 108.948 138.898 108.851 138.8 108.725C138.705 108.596 138.657 108.443 138.657 108.265C138.657 108.08 138.706 107.922 138.804 107.79C138.906 107.655 139.047 107.551 139.228 107.477C139.409 107.403 139.618 107.366 139.854 107.366C140.094 107.366 140.304 107.403 140.485 107.477C140.666 107.551 140.808 107.655 140.909 107.79C141.01 107.922 141.061 108.08 141.061 108.265C141.061 108.443 141.012 108.596 140.914 108.725C140.818 108.851 140.68 108.948 140.499 109.015C140.318 109.08 140.103 109.112 139.854 109.112ZM139.854 108.744C140.045 108.744 140.195 108.704 140.306 108.624C140.416 108.541 140.471 108.43 140.471 108.292C140.471 108.148 140.415 108.036 140.301 107.956C140.187 107.876 140.039 107.836 139.854 107.836C139.67 107.836 139.523 107.876 139.412 107.956C139.302 108.036 139.246 108.148 139.246 108.292C139.246 108.43 139.3 108.541 139.408 108.624C139.518 108.704 139.667 108.744 139.854 108.744Z" fill="white"/>
<path d="M162.621 110.682C162.366 110.682 162.136 110.618 161.93 110.489C161.727 110.36 161.568 110.173 161.451 109.927C161.334 109.678 161.276 109.378 161.276 109.024C161.276 108.671 161.334 108.372 161.451 108.126C161.568 107.878 161.727 107.689 161.93 107.56C162.136 107.431 162.366 107.366 162.621 107.366C162.879 107.366 163.109 107.431 163.311 107.56C163.514 107.689 163.674 107.878 163.79 108.126C163.91 108.372 163.97 108.671 163.97 109.024C163.97 109.378 163.91 109.678 163.79 109.927C163.674 110.173 163.514 110.36 163.311 110.489C163.109 110.618 162.879 110.682 162.621 110.682ZM162.621 110.162C162.771 110.162 162.902 110.122 163.012 110.042C163.123 109.959 163.209 109.833 163.27 109.665C163.335 109.496 163.367 109.282 163.367 109.024C163.367 108.763 163.335 108.55 163.27 108.384C163.209 108.215 163.123 108.091 163.012 108.011C162.902 107.928 162.771 107.887 162.621 107.887C162.476 107.887 162.347 107.928 162.234 108.011C162.123 108.091 162.036 108.215 161.971 108.384C161.91 108.55 161.879 108.763 161.879 109.024C161.879 109.282 161.91 109.496 161.971 109.665C162.036 109.833 162.123 109.959 162.234 110.042C162.347 110.122 162.476 110.162 162.621 110.162ZM165.462 107.366C165.756 107.366 166.007 107.429 166.212 107.555C166.421 107.678 166.581 107.858 166.691 108.094C166.802 108.331 166.857 108.622 166.857 108.969C166.857 109.338 166.789 109.649 166.654 109.904C166.522 110.159 166.338 110.352 166.102 110.484C165.865 110.616 165.591 110.682 165.277 110.682C165.115 110.682 164.96 110.666 164.812 110.632C164.665 110.598 164.537 110.546 164.43 110.475L164.651 110.024C164.74 110.082 164.837 110.124 164.941 110.148C165.046 110.17 165.153 110.18 165.264 110.18C165.567 110.18 165.809 110.087 165.987 109.899C166.165 109.712 166.254 109.436 166.254 109.07C166.254 109.012 166.252 108.945 166.249 108.868C166.246 108.788 166.235 108.708 166.217 108.628L166.401 108.831C166.349 108.957 166.274 109.063 166.175 109.149C166.077 109.232 165.962 109.295 165.83 109.338C165.698 109.381 165.552 109.402 165.392 109.402C165.184 109.402 164.995 109.362 164.826 109.282C164.66 109.199 164.528 109.084 164.43 108.937C164.332 108.786 164.283 108.611 164.283 108.412C164.283 108.197 164.335 108.013 164.439 107.859C164.544 107.703 164.685 107.581 164.863 107.495C165.044 107.409 165.244 107.366 165.462 107.366ZM165.494 107.836C165.371 107.836 165.262 107.859 165.167 107.905C165.072 107.948 164.996 108.011 164.941 108.094C164.889 108.174 164.863 108.271 164.863 108.384C164.863 108.553 164.921 108.687 165.038 108.785C165.155 108.883 165.311 108.932 165.508 108.932C165.637 108.932 165.75 108.909 165.848 108.863C165.947 108.814 166.023 108.748 166.079 108.665C166.134 108.579 166.162 108.484 166.162 108.38C166.162 108.278 166.135 108.188 166.083 108.108C166.031 108.025 165.956 107.959 165.858 107.91C165.759 107.861 165.638 107.836 165.494 107.836Z" fill="white"/>
<path d="M184.65 110.636V107.643L184.913 107.915H183.968V107.413H185.249V110.636H184.65ZM187.233 110.682C186.978 110.682 186.748 110.618 186.542 110.489C186.34 110.36 186.18 110.173 186.063 109.927C185.947 109.678 185.888 109.378 185.888 109.024C185.888 108.671 185.947 108.372 186.063 108.126C186.18 107.878 186.34 107.689 186.542 107.56C186.748 107.431 186.978 107.366 187.233 107.366C187.491 107.366 187.721 107.431 187.924 107.56C188.127 107.689 188.286 107.878 188.403 108.126C188.523 108.372 188.583 108.671 188.583 109.024C188.583 109.378 188.523 109.678 188.403 109.927C188.286 110.173 188.127 110.36 187.924 110.489C187.721 110.618 187.491 110.682 187.233 110.682ZM187.233 110.162C187.384 110.162 187.514 110.122 187.625 110.042C187.735 109.959 187.821 109.833 187.882 109.665C187.947 109.496 187.979 109.282 187.979 109.024C187.979 108.763 187.947 108.55 187.882 108.384C187.821 108.215 187.735 108.091 187.625 108.011C187.514 107.928 187.384 107.887 187.233 107.887C187.089 107.887 186.96 107.928 186.846 108.011C186.736 108.091 186.648 108.215 186.584 108.384C186.522 108.55 186.492 108.763 186.492 109.024C186.492 109.282 186.522 109.496 186.584 109.665C186.648 109.833 186.736 109.959 186.846 110.042C186.96 110.122 187.089 110.162 187.233 110.162Z" fill="white"/>
<path d="M209.58 110.636V107.643L209.842 107.915H208.898V107.413H210.178V110.636H209.58ZM211.334 110.636V107.643L211.596 107.915H210.652V107.413H211.933V110.636H211.334Z" fill="white"/>
<path d="M233.367 110.636V107.643L233.629 107.915H232.685V107.413H233.966V110.636H233.367ZM234.564 110.636V110.236L235.844 109.02C235.951 108.919 236.031 108.829 236.083 108.753C236.136 108.676 236.169 108.605 236.185 108.541C236.203 108.473 236.212 108.41 236.212 108.352C236.212 108.205 236.162 108.091 236.06 108.011C235.959 107.928 235.81 107.887 235.614 107.887C235.457 107.887 235.314 107.915 235.185 107.97C235.06 108.025 234.951 108.109 234.858 108.223L234.439 107.901C234.565 107.732 234.734 107.601 234.946 107.509C235.161 107.414 235.4 107.366 235.664 107.366C235.898 107.366 236.1 107.405 236.272 107.482C236.447 107.555 236.581 107.661 236.673 107.799C236.768 107.938 236.816 108.102 236.816 108.292C236.816 108.397 236.802 108.501 236.774 108.605C236.747 108.707 236.694 108.814 236.618 108.928C236.541 109.041 236.429 109.169 236.281 109.31L235.181 110.355L235.056 110.13H236.94V110.636H234.564Z" fill="white"/>
<path d="M256.728 110.636V107.643L256.991 107.915H256.047V107.413H257.327V110.636H256.728ZM258.98 110.682C258.752 110.682 258.53 110.65 258.312 110.586C258.097 110.518 257.916 110.426 257.768 110.309L258.026 109.844C258.143 109.939 258.284 110.016 258.45 110.074C258.616 110.133 258.789 110.162 258.97 110.162C259.185 110.162 259.353 110.119 259.472 110.033C259.592 109.944 259.652 109.824 259.652 109.674C259.652 109.526 259.597 109.41 259.486 109.324C259.376 109.238 259.198 109.195 258.952 109.195H258.657V108.785L259.578 107.689L259.657 107.915H257.925V107.413H260.122V107.813L259.201 108.909L258.888 108.725H259.067C259.463 108.725 259.759 108.814 259.956 108.992C260.156 109.167 260.255 109.393 260.255 109.669C260.255 109.85 260.209 110.018 260.117 110.171C260.025 110.325 259.884 110.449 259.693 110.544C259.506 110.636 259.268 110.682 258.98 110.682Z" fill="white"/>
<path d="M280.728 110.636V107.643L280.991 107.915H280.047V107.413H281.327V110.636H280.728ZM281.92 109.904V109.49L283.509 107.413H284.149L282.584 109.49L282.284 109.397H284.84V109.904H281.92ZM283.689 110.636V109.904L283.707 109.397V108.748H284.269V110.636H283.689Z" fill="white"/>
<path d="M137.635 125.357V122.363L137.898 122.635H136.954V122.133H138.234V125.357H137.635ZM139.942 125.403C139.715 125.403 139.492 125.371 139.274 125.306C139.059 125.239 138.878 125.146 138.731 125.03L138.984 124.565C139.101 124.66 139.242 124.737 139.408 124.795C139.577 124.853 139.752 124.882 139.933 124.882C140.145 124.882 140.311 124.838 140.43 124.749C140.553 124.66 140.615 124.54 140.615 124.39C140.615 124.288 140.588 124.199 140.536 124.122C140.487 124.046 140.398 123.987 140.269 123.947C140.143 123.908 139.97 123.888 139.749 123.888H138.97L139.136 122.133H141.029V122.635H139.357L139.67 122.349L139.546 123.662L139.233 123.381H139.882C140.202 123.381 140.458 123.424 140.651 123.51C140.848 123.593 140.991 123.71 141.08 123.86C141.172 124.007 141.218 124.176 141.218 124.367C141.218 124.554 141.172 124.726 141.08 124.882C140.988 125.039 140.846 125.165 140.656 125.26C140.469 125.355 140.231 125.403 139.942 125.403Z" fill="white"/>
<path d="M161.792 125.357V122.363L162.054 122.635H161.11V122.133H162.39V125.357H161.792ZM164.425 125.403C164.134 125.403 163.883 125.341 163.675 125.219C163.466 125.093 163.306 124.912 163.196 124.675C163.085 124.439 163.03 124.147 163.03 123.8C163.03 123.432 163.096 123.12 163.228 122.865C163.363 122.61 163.549 122.417 163.785 122.285C164.025 122.153 164.299 122.087 164.61 122.087C164.772 122.087 164.927 122.104 165.075 122.138C165.225 122.171 165.353 122.224 165.457 122.294L165.236 122.745C165.147 122.687 165.05 122.647 164.946 122.626C164.844 122.601 164.737 122.589 164.623 122.589C164.319 122.589 164.078 122.683 163.9 122.87C163.722 123.057 163.633 123.333 163.633 123.699C163.633 123.757 163.635 123.826 163.638 123.906C163.641 123.983 163.652 124.061 163.67 124.141L163.486 123.938C163.541 123.812 163.616 123.708 163.712 123.625C163.81 123.539 163.925 123.475 164.057 123.432C164.192 123.389 164.338 123.367 164.494 123.367C164.706 123.367 164.895 123.409 165.061 123.492C165.227 123.571 165.359 123.687 165.457 123.837C165.555 123.984 165.604 124.158 165.604 124.357C165.604 124.569 165.552 124.753 165.448 124.91C165.343 125.067 165.202 125.188 165.024 125.274C164.846 125.36 164.646 125.403 164.425 125.403ZM164.393 124.933C164.516 124.933 164.625 124.912 164.72 124.869C164.815 124.823 164.889 124.758 164.941 124.675C164.996 124.592 165.024 124.496 165.024 124.385C165.024 124.216 164.966 124.083 164.849 123.984C164.732 123.886 164.576 123.837 164.379 123.837C164.25 123.837 164.137 123.862 164.039 123.911C163.943 123.957 163.867 124.021 163.808 124.104C163.753 124.187 163.725 124.282 163.725 124.39C163.725 124.488 163.751 124.578 163.804 124.661C163.856 124.744 163.931 124.81 164.029 124.859C164.131 124.908 164.252 124.933 164.393 124.933Z" fill="white"/>
<path d="M184.949 125.357V122.363L185.211 122.635H184.267V122.133H185.548V125.357H184.949ZM186.726 125.357L188.057 122.372L188.214 122.64H186.385L186.671 122.349V123.188H186.113V122.133H188.619V122.534L187.366 125.357H186.726Z" fill="white"/>
<path d="M209.58 125.357V122.363L209.842 122.635H208.898V122.133H210.178V125.357H209.58ZM212.112 125.403C211.845 125.403 211.613 125.363 211.417 125.283C211.22 125.203 211.068 125.091 210.961 124.947C210.853 124.799 210.8 124.628 210.8 124.431C210.8 124.235 210.852 124.069 210.956 123.934C211.061 123.799 211.211 123.696 211.407 123.625C211.604 123.554 211.839 123.519 212.112 123.519C212.385 123.519 212.62 123.554 212.817 123.625C213.016 123.696 213.168 123.8 213.273 123.938C213.38 124.073 213.434 124.238 213.434 124.431C213.434 124.628 213.379 124.799 213.268 124.947C213.161 125.091 213.007 125.203 212.808 125.283C212.611 125.363 212.379 125.403 212.112 125.403ZM212.112 124.933C212.333 124.933 212.508 124.887 212.637 124.795C212.766 124.703 212.831 124.575 212.831 124.413C212.831 124.253 212.766 124.127 212.637 124.035C212.508 123.943 212.333 123.897 212.112 123.897C211.891 123.897 211.718 123.943 211.592 124.035C211.466 124.127 211.403 124.253 211.403 124.413C211.403 124.575 211.466 124.703 211.592 124.795C211.718 124.887 211.891 124.933 212.112 124.933ZM212.112 123.832C211.863 123.832 211.65 123.8 211.472 123.736C211.294 123.668 211.156 123.571 211.057 123.445C210.962 123.317 210.915 123.163 210.915 122.985C210.915 122.801 210.964 122.643 211.062 122.511C211.163 122.375 211.305 122.271 211.486 122.197C211.667 122.124 211.876 122.087 212.112 122.087C212.352 122.087 212.562 122.124 212.743 122.197C212.924 122.271 213.065 122.375 213.167 122.511C213.268 122.643 213.319 122.801 213.319 122.985C213.319 123.163 213.27 123.317 213.171 123.445C213.076 123.571 212.938 123.668 212.757 123.736C212.576 123.8 212.361 123.832 212.112 123.832ZM212.112 123.464C212.302 123.464 212.453 123.424 212.563 123.344C212.674 123.261 212.729 123.151 212.729 123.013C212.729 122.868 212.672 122.756 212.559 122.676C212.445 122.597 212.296 122.557 212.112 122.557C211.928 122.557 211.781 122.597 211.67 122.676C211.559 122.756 211.504 122.868 211.504 123.013C211.504 123.151 211.558 123.261 211.665 123.344C211.776 123.424 211.925 123.464 212.112 123.464Z" fill="white"/>
<path d="M233.367 125.357V122.363L233.629 122.635H232.685V122.133H233.966V125.357H233.367ZM235.692 122.087C235.987 122.087 236.237 122.15 236.443 122.276C236.651 122.399 236.811 122.578 236.922 122.815C237.032 123.051 237.087 123.343 237.087 123.69C237.087 124.058 237.02 124.37 236.885 124.624C236.753 124.879 236.569 125.073 236.332 125.205C236.096 125.337 235.821 125.403 235.508 125.403C235.345 125.403 235.19 125.386 235.043 125.352C234.895 125.318 234.768 125.266 234.66 125.196L234.881 124.744C234.97 124.803 235.067 124.844 235.172 124.869C235.276 124.89 235.383 124.901 235.494 124.901C235.798 124.901 236.039 124.807 236.217 124.62C236.395 124.433 236.484 124.156 236.484 123.791C236.484 123.733 236.483 123.665 236.48 123.588C236.476 123.508 236.466 123.429 236.447 123.349L236.632 123.551C236.579 123.677 236.504 123.783 236.406 123.869C236.308 123.952 236.192 124.015 236.06 124.058C235.928 124.101 235.783 124.122 235.623 124.122C235.414 124.122 235.225 124.083 235.056 124.003C234.891 123.92 234.759 123.805 234.66 123.657C234.562 123.507 234.513 123.332 234.513 123.132C234.513 122.917 234.565 122.733 234.67 122.58C234.774 122.423 234.915 122.302 235.093 122.216C235.274 122.13 235.474 122.087 235.692 122.087ZM235.724 122.557C235.601 122.557 235.492 122.58 235.397 122.626C235.302 122.669 235.227 122.732 235.172 122.815C235.119 122.894 235.093 122.991 235.093 123.105C235.093 123.274 235.152 123.407 235.268 123.505C235.385 123.604 235.542 123.653 235.738 123.653C235.867 123.653 235.981 123.63 236.079 123.584C236.177 123.535 236.254 123.469 236.309 123.386C236.364 123.3 236.392 123.204 236.392 123.1C236.392 122.999 236.366 122.908 236.314 122.828C236.262 122.745 236.186 122.679 236.088 122.63C235.99 122.581 235.869 122.557 235.724 122.557Z" fill="white"/>
<path d="M255.53 125.357V124.956L256.811 123.74C256.918 123.639 256.998 123.55 257.05 123.473C257.102 123.396 257.136 123.326 257.151 123.261C257.17 123.194 257.179 123.131 257.179 123.072C257.179 122.925 257.128 122.811 257.027 122.732C256.926 122.649 256.777 122.607 256.58 122.607C256.424 122.607 256.281 122.635 256.152 122.69C256.026 122.745 255.917 122.83 255.825 122.943L255.406 122.621C255.532 122.452 255.701 122.322 255.913 122.23C256.128 122.134 256.367 122.087 256.631 122.087C256.864 122.087 257.067 122.125 257.239 122.202C257.414 122.276 257.548 122.382 257.64 122.52C257.735 122.658 257.782 122.822 257.782 123.013C257.782 123.117 257.769 123.221 257.741 123.326C257.713 123.427 257.661 123.535 257.584 123.648C257.508 123.762 257.396 123.889 257.248 124.03L256.147 125.076L256.023 124.85H257.907V125.357H255.53ZM259.597 125.403C259.342 125.403 259.112 125.338 258.906 125.209C258.704 125.08 258.544 124.893 258.427 124.648C258.311 124.399 258.252 124.098 258.252 123.745C258.252 123.392 258.311 123.092 258.427 122.847C258.544 122.598 258.704 122.409 258.906 122.28C259.112 122.151 259.342 122.087 259.597 122.087C259.855 122.087 260.085 122.151 260.288 122.28C260.491 122.409 260.65 122.598 260.767 122.847C260.887 123.092 260.946 123.392 260.946 123.745C260.946 124.098 260.887 124.399 260.767 124.648C260.65 124.893 260.491 125.08 260.288 125.209C260.085 125.338 259.855 125.403 259.597 125.403ZM259.597 124.882C259.748 124.882 259.878 124.842 259.989 124.763C260.099 124.68 260.185 124.554 260.246 124.385C260.311 124.216 260.343 124.003 260.343 123.745C260.343 123.484 260.311 123.27 260.246 123.105C260.185 122.936 260.099 122.811 259.989 122.732C259.878 122.649 259.748 122.607 259.597 122.607C259.453 122.607 259.324 122.649 259.21 122.732C259.1 122.811 259.012 122.936 258.948 123.105C258.886 123.27 258.856 123.484 258.856 123.745C258.856 124.003 258.886 124.216 258.948 124.385C259.012 124.554 259.1 124.68 259.21 124.763C259.324 124.842 259.453 124.882 259.597 124.882Z" fill="white"/>
<path d="M280.811 125.357V124.956L282.091 123.74C282.198 123.639 282.278 123.55 282.33 123.473C282.383 123.396 282.416 123.326 282.432 123.261C282.45 123.194 282.459 123.131 282.459 123.072C282.459 122.925 282.409 122.811 282.307 122.732C282.206 122.649 282.057 122.607 281.861 122.607C281.704 122.607 281.561 122.635 281.432 122.69C281.306 122.745 281.197 122.83 281.105 122.943L280.686 122.621C280.812 122.452 280.981 122.322 281.193 122.23C281.408 122.134 281.647 122.087 281.911 122.087C282.145 122.087 282.347 122.125 282.519 122.202C282.694 122.276 282.828 122.382 282.92 122.52C283.015 122.658 283.063 122.822 283.063 123.013C283.063 123.117 283.049 123.221 283.021 123.326C282.994 123.427 282.941 123.535 282.865 123.648C282.788 123.762 282.676 123.889 282.528 124.03L281.428 125.076L281.303 124.85H283.187V125.357H280.811ZM284.048 125.357V122.363L284.311 122.635H283.367V122.133H284.647V125.357H284.048Z" fill="white"/>
<path d="M136.162 140.717V140.317L137.442 139.101C137.55 138.999 137.63 138.91 137.682 138.834C137.734 138.757 137.768 138.686 137.783 138.622C137.802 138.554 137.811 138.491 137.811 138.433C137.811 138.286 137.76 138.172 137.659 138.092C137.558 138.009 137.409 137.968 137.212 137.968C137.056 137.968 136.913 137.995 136.784 138.051C136.658 138.106 136.549 138.19 136.457 138.304L136.038 137.982C136.164 137.813 136.333 137.682 136.544 137.59C136.759 137.495 136.999 137.447 137.263 137.447C137.496 137.447 137.699 137.486 137.871 137.563C138.046 137.636 138.179 137.742 138.271 137.88C138.367 138.018 138.414 138.183 138.414 138.373C138.414 138.477 138.4 138.582 138.373 138.686C138.345 138.788 138.293 138.895 138.216 139.009C138.139 139.122 138.027 139.25 137.88 139.391L136.779 140.436L136.655 140.211H138.539V140.717H136.162ZM138.843 140.717V140.317L140.123 139.101C140.23 138.999 140.31 138.91 140.362 138.834C140.415 138.757 140.448 138.686 140.464 138.622C140.482 138.554 140.491 138.491 140.491 138.433C140.491 138.286 140.441 138.172 140.339 138.092C140.238 138.009 140.089 137.968 139.893 137.968C139.736 137.968 139.593 137.995 139.464 138.051C139.339 138.106 139.23 138.19 139.137 138.304L138.718 137.982C138.844 137.813 139.013 137.682 139.225 137.59C139.44 137.495 139.679 137.447 139.943 137.447C140.177 137.447 140.379 137.486 140.551 137.563C140.726 137.636 140.86 137.742 140.952 137.88C141.047 138.018 141.095 138.183 141.095 138.373C141.095 138.477 141.081 138.582 141.053 138.686C141.026 138.788 140.973 138.895 140.897 139.009C140.82 139.122 140.708 139.25 140.561 139.391L139.46 140.436L139.335 140.211H141.219V140.717H138.843Z" fill="white"/>
<path d="M159.954 140.717V140.317L161.234 139.101C161.342 138.999 161.422 138.91 161.474 138.834C161.526 138.757 161.56 138.686 161.575 138.622C161.594 138.554 161.603 138.491 161.603 138.433C161.603 138.286 161.552 138.172 161.451 138.092C161.35 138.009 161.201 137.968 161.004 137.968C160.848 137.968 160.705 137.995 160.576 138.051C160.45 138.106 160.341 138.19 160.249 138.304L159.83 137.982C159.956 137.813 160.125 137.682 160.336 137.59C160.551 137.495 160.791 137.447 161.055 137.447C161.288 137.447 161.491 137.486 161.663 137.563C161.838 137.636 161.971 137.742 162.063 137.88C162.159 138.018 162.206 138.183 162.206 138.373C162.206 138.477 162.192 138.582 162.165 138.686C162.137 138.788 162.085 138.895 162.008 139.009C161.931 139.122 161.819 139.25 161.672 139.391L160.571 140.436L160.447 140.211H162.331V140.717H159.954ZM163.689 140.763C163.462 140.763 163.24 140.731 163.022 140.667C162.807 140.599 162.625 140.507 162.478 140.39L162.736 139.925C162.853 140.02 162.994 140.097 163.16 140.155C163.325 140.214 163.499 140.243 163.68 140.243C163.895 140.243 164.062 140.2 164.182 140.114C164.302 140.025 164.362 139.905 164.362 139.755C164.362 139.607 164.306 139.491 164.196 139.405C164.085 139.319 163.907 139.276 163.662 139.276H163.367V138.866L164.288 137.77L164.366 137.995H162.635V137.493H164.831V137.894L163.91 138.99L163.597 138.806H163.777C164.173 138.806 164.469 138.895 164.666 139.073C164.865 139.248 164.965 139.474 164.965 139.75C164.965 139.931 164.919 140.099 164.827 140.252C164.735 140.406 164.594 140.53 164.403 140.625C164.216 140.717 163.978 140.763 163.689 140.763Z" fill="white"/>
<path d="M183.208 140.717V140.317L184.488 139.101C184.596 138.999 184.676 138.91 184.728 138.834C184.78 138.757 184.814 138.686 184.829 138.622C184.848 138.554 184.857 138.491 184.857 138.433C184.857 138.286 184.806 138.172 184.705 138.092C184.604 138.009 184.455 137.968 184.258 137.968C184.102 137.968 183.959 137.995 183.83 138.051C183.704 138.106 183.595 138.19 183.503 138.304L183.084 137.982C183.21 137.813 183.378 137.682 183.59 137.59C183.805 137.495 184.045 137.447 184.309 137.447C184.542 137.447 184.745 137.486 184.917 137.563C185.092 137.636 185.225 137.742 185.317 137.88C185.413 138.018 185.46 138.183 185.46 138.373C185.46 138.477 185.446 138.582 185.419 138.686C185.391 138.788 185.339 138.895 185.262 139.009C185.185 139.122 185.073 139.25 184.926 139.391L183.825 140.436L183.701 140.211H185.584V140.717H183.208ZM185.817 139.985V139.571L187.405 137.493H188.046L186.48 139.571L186.18 139.478H188.736V139.985H185.817ZM187.585 140.717V139.985L187.603 139.478V138.829H188.165V140.717H187.585Z" fill="white"/>
<path d="M208.382 140.717V140.317L209.662 139.101C209.77 138.999 209.849 138.91 209.902 138.834C209.954 138.757 209.988 138.686 210.003 138.622C210.021 138.554 210.031 138.491 210.031 138.433C210.031 138.286 209.98 138.172 209.879 138.092C209.777 138.009 209.628 137.968 209.432 137.968C209.275 137.968 209.133 137.995 209.004 138.051C208.878 138.106 208.769 138.19 208.677 138.304L208.258 137.982C208.383 137.813 208.552 137.682 208.764 137.59C208.979 137.495 209.219 137.447 209.483 137.447C209.716 137.447 209.919 137.486 210.091 137.563C210.266 137.636 210.399 137.742 210.491 137.88C210.586 138.018 210.634 138.183 210.634 138.373C210.634 138.477 210.62 138.582 210.593 138.686C210.565 138.788 210.513 138.895 210.436 139.009C210.359 139.122 210.247 139.25 210.1 139.391L208.999 140.436L208.875 140.211H210.758V140.717H208.382ZM212.172 140.763C211.945 140.763 211.723 140.731 211.505 140.667C211.29 140.599 211.108 140.507 210.961 140.39L211.214 139.925C211.331 140.02 211.472 140.097 211.638 140.155C211.807 140.214 211.982 140.243 212.163 140.243C212.375 140.243 212.541 140.198 212.661 140.109C212.783 140.02 212.845 139.901 212.845 139.75C212.845 139.649 212.819 139.56 212.766 139.483C212.717 139.406 212.628 139.348 212.499 139.308C212.373 139.268 212.2 139.248 211.979 139.248H211.201L211.366 137.493H213.259V137.995H211.587L211.901 137.71L211.776 139.022L211.463 138.742H212.112C212.432 138.742 212.688 138.785 212.882 138.87C213.078 138.953 213.221 139.07 213.31 139.221C213.402 139.368 213.448 139.537 213.448 139.727C213.448 139.914 213.402 140.086 213.31 140.243C213.218 140.4 213.077 140.525 212.886 140.621C212.699 140.716 212.461 140.763 212.172 140.763Z" fill="white"/>
<path d="M255.53 140.717V140.317L256.811 139.101C256.918 138.999 256.998 138.91 257.05 138.834C257.102 138.757 257.136 138.686 257.151 138.622C257.17 138.554 257.179 138.491 257.179 138.433C257.179 138.286 257.128 138.172 257.027 138.092C256.926 138.009 256.777 137.968 256.58 137.968C256.424 137.968 256.281 137.995 256.152 138.051C256.026 138.106 255.917 138.19 255.825 138.304L255.406 137.982C255.532 137.813 255.701 137.682 255.913 137.59C256.128 137.495 256.367 137.447 256.631 137.447C256.864 137.447 257.067 137.486 257.239 137.563C257.414 137.636 257.548 137.742 257.64 137.88C257.735 138.018 257.782 138.183 257.782 138.373C257.782 138.477 257.769 138.582 257.741 138.686C257.713 138.788 257.661 138.895 257.584 139.009C257.508 139.122 257.396 139.25 257.248 139.391L256.147 140.436L256.023 140.211H257.907V140.717H255.53ZM258.791 140.717L260.122 137.733L260.279 138H258.45L258.736 137.71V138.548H258.179V137.493H260.684V137.894L259.431 140.717H258.791Z" fill="white"/>
<path d="M280.811 140.717V140.317L282.091 139.101C282.198 138.999 282.278 138.91 282.33 138.834C282.383 138.757 282.416 138.686 282.432 138.622C282.45 138.554 282.459 138.491 282.459 138.433C282.459 138.286 282.409 138.172 282.307 138.092C282.206 138.009 282.057 137.968 281.861 137.968C281.704 137.968 281.561 137.995 281.432 138.051C281.306 138.106 281.197 138.19 281.105 138.304L280.686 137.982C280.812 137.813 280.981 137.682 281.193 137.59C281.408 137.495 281.647 137.447 281.911 137.447C282.145 137.447 282.347 137.486 282.519 137.563C282.694 137.636 282.828 137.742 282.92 137.88C283.015 138.018 283.063 138.183 283.063 138.373C283.063 138.477 283.049 138.582 283.021 138.686C282.994 138.788 282.941 138.895 282.865 139.009C282.788 139.122 282.676 139.25 282.528 139.391L281.428 140.436L281.303 140.211H283.187V140.717H280.811ZM284.827 140.763C284.56 140.763 284.328 140.723 284.131 140.644C283.935 140.564 283.783 140.452 283.675 140.307C283.568 140.16 283.514 139.988 283.514 139.792C283.514 139.595 283.566 139.429 283.671 139.294C283.775 139.159 283.926 139.056 284.122 138.986C284.319 138.915 284.553 138.88 284.827 138.88C285.1 138.88 285.335 138.915 285.531 138.986C285.731 139.056 285.883 139.161 285.987 139.299C286.095 139.434 286.148 139.598 286.148 139.792C286.148 139.988 286.093 140.16 285.983 140.307C285.875 140.452 285.722 140.564 285.522 140.644C285.326 140.723 285.094 140.763 284.827 140.763ZM284.827 140.294C285.048 140.294 285.223 140.248 285.352 140.155C285.481 140.063 285.545 139.936 285.545 139.773C285.545 139.614 285.481 139.488 285.352 139.396C285.223 139.303 285.048 139.257 284.827 139.257C284.606 139.257 284.432 139.303 284.306 139.396C284.18 139.488 284.117 139.614 284.117 139.773C284.117 139.936 284.18 140.063 284.306 140.155C284.432 140.248 284.606 140.294 284.827 140.294ZM284.827 139.193C284.578 139.193 284.365 139.161 284.187 139.096C284.008 139.029 283.87 138.932 283.772 138.806C283.677 138.677 283.629 138.524 283.629 138.345C283.629 138.161 283.678 138.003 283.777 137.871C283.878 137.736 284.019 137.632 284.2 137.558C284.382 137.484 284.59 137.447 284.827 137.447C285.066 137.447 285.277 137.484 285.458 137.558C285.639 137.632 285.78 137.736 285.881 137.871C285.983 138.003 286.033 138.161 286.033 138.345C286.033 138.524 285.984 138.677 285.886 138.806C285.791 138.932 285.653 139.029 285.471 139.096C285.29 139.161 285.075 139.193 284.827 139.193ZM284.827 138.824C285.017 138.824 285.168 138.785 285.278 138.705C285.389 138.622 285.444 138.511 285.444 138.373C285.444 138.229 285.387 138.117 285.273 138.037C285.16 137.957 285.011 137.917 284.827 137.917C284.642 137.917 284.495 137.957 284.385 138.037C284.274 138.117 284.219 138.229 284.219 138.373C284.219 138.511 284.273 138.622 284.38 138.705C284.491 138.785 284.639 138.824 284.827 138.824Z" fill="white"/>
<path d="M135.954 155.438V155.037L137.234 153.821C137.342 153.72 137.422 153.631 137.474 153.554C137.526 153.477 137.56 153.407 137.575 153.342C137.594 153.275 137.603 153.212 137.603 153.153C137.603 153.006 137.552 152.892 137.451 152.813C137.35 152.73 137.201 152.688 137.004 152.688C136.848 152.688 136.705 152.716 136.576 152.771C136.45 152.826 136.341 152.911 136.249 153.024L135.83 152.702C135.956 152.533 136.125 152.403 136.336 152.311C136.551 152.215 136.791 152.168 137.055 152.168C137.288 152.168 137.491 152.206 137.663 152.283C137.838 152.357 137.971 152.463 138.063 152.601C138.159 152.739 138.206 152.903 138.206 153.094C138.206 153.198 138.192 153.302 138.165 153.407C138.137 153.508 138.085 153.615 138.008 153.729C137.931 153.843 137.819 153.97 137.672 154.111L136.571 155.157L136.447 154.931H138.331V155.438H135.954ZM139.763 152.168C140.058 152.168 140.308 152.231 140.514 152.357C140.722 152.479 140.882 152.659 140.993 152.895C141.103 153.132 141.158 153.424 141.158 153.771C141.158 154.139 141.091 154.451 140.956 154.705C140.824 154.96 140.64 155.154 140.403 155.286C140.167 155.418 139.892 155.484 139.579 155.484C139.416 155.484 139.261 155.467 139.114 155.433C138.966 155.399 138.839 155.347 138.731 155.276L138.952 154.825C139.041 154.883 139.138 154.925 139.243 154.95C139.347 154.971 139.454 154.982 139.565 154.982C139.869 154.982 140.11 154.888 140.288 154.701C140.466 154.514 140.555 154.237 140.555 153.872C140.555 153.813 140.554 153.746 140.551 153.669C140.547 153.589 140.537 153.51 140.518 153.43L140.703 153.632C140.65 153.758 140.575 153.864 140.477 153.95C140.379 154.033 140.263 154.096 140.131 154.139C139.999 154.182 139.854 154.203 139.694 154.203C139.485 154.203 139.296 154.164 139.127 154.084C138.962 154.001 138.83 153.886 138.731 153.738C138.633 153.588 138.584 153.413 138.584 153.213C138.584 152.998 138.636 152.814 138.741 152.661C138.845 152.504 138.986 152.383 139.164 152.297C139.345 152.211 139.545 152.168 139.763 152.168ZM139.795 152.638C139.672 152.638 139.563 152.661 139.468 152.707C139.373 152.75 139.298 152.813 139.243 152.895C139.19 152.975 139.164 153.072 139.164 153.186C139.164 153.354 139.223 153.488 139.339 153.586C139.456 153.685 139.613 153.734 139.809 153.734C139.938 153.734 140.052 153.711 140.15 153.665C140.248 153.615 140.325 153.549 140.38 153.467C140.435 153.381 140.463 153.285 140.463 153.181C140.463 153.08 140.437 152.989 140.385 152.909C140.333 152.826 140.257 152.76 140.159 152.711C140.061 152.662 139.94 152.638 139.795 152.638Z" fill="white"/>
<path d="M161.008 155.484C160.781 155.484 160.558 155.451 160.34 155.387C160.125 155.319 159.944 155.227 159.797 155.111L160.055 154.646C160.171 154.741 160.312 154.817 160.478 154.876C160.644 154.934 160.817 154.963 160.999 154.963C161.214 154.963 161.381 154.92 161.501 154.834C161.62 154.745 161.68 154.626 161.68 154.475C161.68 154.328 161.625 154.211 161.514 154.125C161.404 154.039 161.226 153.996 160.98 153.996H160.685V153.586L161.607 152.49L161.685 152.716H159.953V152.214H162.15V152.615L161.229 153.711L160.916 153.526H161.095C161.491 153.526 161.788 153.615 161.984 153.794C162.184 153.969 162.284 154.194 162.284 154.471C162.284 154.652 162.237 154.819 162.145 154.973C162.053 155.126 161.912 155.25 161.722 155.346C161.534 155.438 161.296 155.484 161.008 155.484ZM164.02 155.484C163.765 155.484 163.535 155.419 163.329 155.29C163.126 155.161 162.967 154.974 162.85 154.728C162.733 154.48 162.675 154.179 162.675 153.826C162.675 153.473 162.733 153.173 162.85 152.928C162.967 152.679 163.126 152.49 163.329 152.361C163.535 152.232 163.765 152.168 164.02 152.168C164.278 152.168 164.508 152.232 164.711 152.361C164.913 152.49 165.073 152.679 165.19 152.928C165.309 153.173 165.369 153.473 165.369 153.826C165.369 154.179 165.309 154.48 165.19 154.728C165.073 154.974 164.913 155.161 164.711 155.29C164.508 155.419 164.278 155.484 164.02 155.484ZM164.02 154.963C164.17 154.963 164.301 154.923 164.411 154.844C164.522 154.761 164.608 154.635 164.669 154.466C164.734 154.297 164.766 154.084 164.766 153.826C164.766 153.565 164.734 153.351 164.669 153.186C164.608 153.017 164.522 152.892 164.411 152.813C164.301 152.73 164.17 152.688 164.02 152.688C163.876 152.688 163.747 152.73 163.633 152.813C163.523 152.892 163.435 153.017 163.371 153.186C163.309 153.351 163.278 153.565 163.278 153.826C163.278 154.084 163.309 154.297 163.371 154.466C163.435 154.635 163.523 154.761 163.633 154.844C163.747 154.923 163.876 154.963 164.02 154.963Z" fill="white"/>
<path d="M185.566 156.124C185.339 156.124 185.117 156.092 184.899 156.027C184.684 155.959 184.503 155.867 184.355 155.751L184.613 155.286C184.73 155.381 184.871 155.457 185.037 155.516C185.203 155.574 185.376 155.603 185.557 155.603C185.772 155.603 185.939 155.56 186.059 155.474C186.179 155.385 186.239 155.266 186.239 155.115C186.239 154.968 186.184 154.851 186.073 154.765C185.962 154.679 185.784 154.636 185.539 154.636H185.244V154.226L186.165 153.13L186.243 153.356H184.512V152.854H186.709V153.255L185.787 154.351L185.474 154.166H185.654C186.05 154.166 186.346 154.255 186.543 154.434C186.742 154.609 186.842 154.834 186.842 155.111C186.842 155.292 186.796 155.459 186.704 155.613C186.612 155.766 186.471 155.89 186.28 155.986C186.093 156.078 185.855 156.124 185.566 156.124ZM187.75 156.078V153.084L188.012 153.356H187.068V152.854H188.348V156.078H187.75Z" fill="white"/>
<path d="M131.417 83.4744V78.0982H132.446L134.735 81.8922H134.189L136.44 78.0982H137.461L137.476 83.4744H136.309L136.301 79.8877H136.516L134.719 82.906H134.159L132.323 79.8877H132.584V83.4744H131.417Z" fill="#382B9C"/>
<path d="M156.851 83.4744V79.112H155.13V78.0982H159.815V79.112H158.095V83.4744H156.851Z" fill="#382B9C"/>
<path d="M181.348 83.4744L179.589 78.0982H180.879L182.408 82.8599H181.762L183.36 78.0982H184.512L186.048 82.8599H185.426L186.993 78.0982H188.183L186.424 83.4744H185.088L183.729 79.2963H184.082L182.684 83.4744H181.348Z" fill="#382B9C"/>
<path d="M205.492 83.4744V79.112H203.772V78.0982H208.457V79.112H206.737V83.4744H205.492Z" fill="#382B9C"/>
<path d="M229.852 80.5175H232.433V81.5159H229.852V80.5175ZM229.944 83.4744H228.7V78.0982H232.763V79.0966H229.944V83.4744Z" fill="#382B9C"/>
<path d="M254.788 83.5665C254.358 83.5665 253.945 83.5102 253.551 83.3976C253.157 83.2798 252.839 83.1288 252.599 82.9444L253.021 82.0074C253.252 82.1713 253.523 82.307 253.835 82.4145C254.153 82.5169 254.473 82.5681 254.795 82.5681C255.041 82.5681 255.238 82.5451 255.387 82.499C255.54 82.4478 255.653 82.3787 255.725 82.2916C255.796 82.2046 255.832 82.1047 255.832 81.9921C255.832 81.8487 255.776 81.7361 255.663 81.6541C255.551 81.5671 255.402 81.498 255.218 81.4468C255.033 81.3905 254.829 81.3393 254.603 81.2932C254.383 81.242 254.16 81.1805 253.935 81.1089C253.715 81.0372 253.513 80.945 253.328 80.8324C253.144 80.7197 252.993 80.5712 252.875 80.3869C252.763 80.2026 252.706 79.9671 252.706 79.6803C252.706 79.3731 252.788 79.0941 252.952 78.8432C253.121 78.5872 253.372 78.3849 253.705 78.2364C254.043 78.0828 254.465 78.006 254.972 78.006C255.31 78.006 255.643 78.047 255.97 78.1289C256.298 78.2057 256.587 78.3235 256.838 78.4822L256.454 79.4269C256.203 79.2835 255.953 79.1786 255.702 79.112C255.451 79.0403 255.205 79.0045 254.964 79.0045C254.724 79.0045 254.527 79.0326 254.373 79.089C254.219 79.1453 254.109 79.2195 254.043 79.3117C253.976 79.3987 253.943 79.5011 253.943 79.6189C253.943 79.7571 253.999 79.8698 254.112 79.9568C254.224 80.0387 254.373 80.1053 254.557 80.1565C254.742 80.2077 254.944 80.2589 255.164 80.3101C255.389 80.3613 255.612 80.4202 255.832 80.4868C256.058 80.5533 256.262 80.6429 256.447 80.7556C256.631 80.8682 256.779 81.0167 256.892 81.201C257.01 81.3853 257.069 81.6183 257.069 81.8999C257.069 82.202 256.984 82.4785 256.815 82.7294C256.646 82.9803 256.393 83.1825 256.055 83.3361C255.722 83.4897 255.3 83.5665 254.788 83.5665Z" fill="#382B9C"/>
<path d="M279.107 83.5665C278.677 83.5665 278.265 83.5102 277.871 83.3976C277.476 83.2798 277.159 83.1288 276.918 82.9444L277.341 82.0074C277.571 82.1713 277.842 82.307 278.155 82.4145C278.472 82.5169 278.792 82.5681 279.115 82.5681C279.36 82.5681 279.558 82.5451 279.706 82.499C279.86 82.4478 279.972 82.3787 280.044 82.2916C280.116 82.2046 280.152 82.1047 280.152 81.9921C280.152 81.8487 280.095 81.7361 279.983 81.6541C279.87 81.5671 279.721 81.498 279.537 81.4468C279.353 81.3905 279.148 81.3393 278.923 81.2932C278.703 81.242 278.48 81.1805 278.255 81.1089C278.034 81.0372 277.832 80.945 277.648 80.8324C277.463 80.7197 277.312 80.5712 277.195 80.3869C277.082 80.2026 277.026 79.9671 277.026 79.6803C277.026 79.3731 277.108 79.0941 277.271 78.8432C277.44 78.5872 277.691 78.3849 278.024 78.2364C278.362 78.0828 278.784 78.006 279.291 78.006C279.629 78.006 279.962 78.047 280.29 78.1289C280.617 78.2057 280.907 78.3235 281.158 78.4822L280.774 79.4269C280.523 79.2835 280.272 79.1786 280.021 79.112C279.77 79.0403 279.524 79.0045 279.284 79.0045C279.043 79.0045 278.846 79.0326 278.692 79.089C278.539 79.1453 278.429 79.2195 278.362 79.3117C278.295 79.3987 278.262 79.5011 278.262 79.6189C278.262 79.7571 278.319 79.8698 278.431 79.9568C278.544 80.0387 278.692 80.1053 278.877 80.1565C279.061 80.2077 279.263 80.2589 279.483 80.3101C279.709 80.3613 279.931 80.4202 280.152 80.4868C280.377 80.5533 280.582 80.6429 280.766 80.7556C280.95 80.8682 281.099 81.0167 281.211 81.201C281.329 81.3853 281.388 81.6183 281.388 81.8999C281.388 82.202 281.304 82.4785 281.135 82.7294C280.966 82.9803 280.712 83.1825 280.374 83.3361C280.041 83.4897 279.619 83.5665 279.107 83.5665Z" fill="#382B9C"/>
<path d="M269.237 66.5572C270.651 66.5572 271.797 65.411 271.797 63.9972C271.797 62.5833 270.651 61.4371 269.237 61.4371C267.823 61.4371 266.677 62.5833 266.677 63.9972C266.677 65.411 267.823 66.5572 269.237 66.5572Z" fill="white"/>
<path d="M277.557 66.5572C278.971 66.5572 280.117 65.411 280.117 63.9972C280.117 62.5833 278.971 61.4371 277.557 61.4371C276.143 61.4371 274.997 62.5833 274.997 63.9972C274.997 65.411 276.143 66.5572 277.557 66.5572Z" fill="white"/>
<path d="M285.877 66.5572C287.291 66.5572 288.438 65.411 288.438 63.9972C288.438 62.5833 287.291 61.4371 285.877 61.4371C284.464 61.4371 283.317 62.5833 283.317 63.9972C283.317 65.411 284.464 66.5572 285.877 66.5572Z" fill="#FFBA00"/>
<path opacity="0.4" d="M137.24 110.079C137.24 110.079 115.818 140.748 106.039 155.174C97.3091 168.045 80.2205 171.911 69.4746 163.968L137.24 110.079Z" fill="#A09FA4"/>
<path d="M96.7906 119.308C103.575 119.308 128.081 102.206 128.651 101.803C129.688 101.016 130.974 100.549 132.376 100.549C135.781 100.549 138.546 103.307 138.546 106.718C138.546 109.074 137.227 111.115 135.288 112.152C130.872 115.768 119.588 125.093 114.148 130.271C107.293 136.787 101.578 148.441 93.3537 157.574C85.1295 166.72 69.4746 163.975 69.4746 163.975C69.4746 163.975 89.9232 119.308 96.7906 119.308Z" fill="#FFA480"/>
<path opacity="0.7" d="M135.403 104.254C137.912 107.55 133.265 110.539 129.918 113.093C128.202 113.163 125.002 109.291 125.425 107.192C130.046 103.672 133.355 101.56 135.403 104.254Z" fill="#FEFEFE"/>
<path d="M243.105 40.7964V117.279L231.315 135.519" stroke="#183227" stroke-width="0.960029" stroke-miterlimit="10"/>
<path d="M243.105 41.9165C244.165 41.9165 245.025 41.0568 245.025 39.9964C245.025 38.936 244.165 38.0764 243.105 38.0764C242.044 38.0764 241.185 38.936 241.185 39.9964C241.185 41.0568 242.044 41.9165 243.105 41.9165Z" fill="#183227"/>
<path opacity="0.4" d="M287.791 202.177C274.766 185.441 236.205 140.729 236.205 140.729L266.491 205.269C266.491 205.269 292.418 208.123 287.791 202.177Z" fill="#A09FA4"/>
<path d="M272.021 206.606C264.731 193.793 255.489 173.741 251.457 167.341C247.457 160.986 240.532 148.089 237.856 143.052C237.216 140.947 235.475 139.257 233.171 138.79C229.824 138.118 226.579 140.281 225.907 143.622C225.632 144.998 225.843 146.348 226.406 147.52C226.611 147.993 233.779 163.175 236.672 173.69C237.223 175.681 242.868 191.675 248.026 206.606H272.021Z" fill="#FFA480"/>
<path opacity="0.7" d="M230.132 141.388C233.857 139.577 235.873 144.723 237.722 148.505C237.454 150.201 233.025 152.576 231.053 151.75C228.506 146.528 227.092 142.86 230.132 141.388Z" fill="#FEFEFE"/>
<path d="M317.999 206.606C313.896 202.421 308.898 199.182 303.381 197.147C299.79 195.822 295.937 195.368 292.129 195.713L267.335 197.966C265.031 193.403 258.387 180.314 256.435 176.487C256.23 180.391 254.534 183.566 250.547 184.615C249.197 184.974 240.819 185.882 240.121 183.879C242.31 190.19 245.235 198.548 248.019 206.606H317.999Z" fill="#FF8A5C"/>
<path opacity="0.28" d="M267.336 197.94L271.259 206.626L283.208 196.52L267.336 197.94Z" fill="#FF8A5C"/>
</svg>
