<svg width="278" height="186" viewBox="0 0 278 186" fill="none" xmlns="http://www.w3.org/2000/svg">
<path d="M89.9026 22.1314H60.9688V34.6985H89.9026V22.1314Z" stroke="#263238" stroke-width="0.370667" stroke-miterlimit="10"/>
<path d="M121.174 22.1314H92.2402V34.6985H121.174V22.1314Z" stroke="#263238" stroke-width="0.370667" stroke-miterlimit="10"/>
<path d="M186.348 22.1314H157.414V34.6985H186.348V22.1314Z" stroke="#263238" stroke-width="0.370667" stroke-miterlimit="10"/>
<path d="M217.619 22.1314H188.686V34.6985H217.619V22.1314Z" stroke="#263238" stroke-width="0.370667" stroke-miterlimit="10"/>
<path d="M219.645 42.6952H58.905L48.2676 88.7161H230.282L219.645 42.6952Z" fill="white" stroke="#263238" stroke-width="0.370667" stroke-miterlimit="10"/>
<path d="M219.644 41.5562H58.9042L57.6943 46.9534H220.854L219.644 41.5562Z" fill="white" stroke="#263238" stroke-width="0.370667" stroke-miterlimit="10"/>
<path d="M220.783 46.6387H57.7648L56.5205 52.1913H222.028L220.783 46.6387Z" fill="white" stroke="#263238" stroke-width="0.370667" stroke-miterlimit="10"/>
<path d="M221.956 51.8674H56.5932L55.3125 57.5819H223.237L221.956 51.8674Z" fill="white" stroke="#263238" stroke-width="0.370667" stroke-miterlimit="10"/>
<path d="M223.162 57.2487H55.3872L54.0684 63.1327H224.481L223.162 57.2487Z" fill="white" stroke="#263238" stroke-width="0.370667" stroke-miterlimit="10"/>
<path d="M224.404 62.7891H54.1456L52.7871 68.8502H225.763L224.404 62.7891Z" fill="white" stroke="#263238" stroke-width="0.370667" stroke-miterlimit="10"/>
<path d="M225.683 68.4962H52.8658L51.4658 74.7423H227.083L225.683 68.4962Z" fill="white" stroke="#263238" stroke-width="0.370667" stroke-miterlimit="10"/>
<path d="M227.001 74.3776H51.5479L50.1045 80.8172H228.445L227.001 74.3776Z" fill="white" stroke="#263238" stroke-width="0.370667" stroke-miterlimit="10"/>
<path d="M101.49 40.5821H58.2129V46.6091H101.49V40.5821Z" fill="#183227" stroke="#F7F7F7" stroke-width="0.370667" stroke-miterlimit="10" stroke-linecap="round" stroke-linejoin="round"/>
<path d="M100.834 45.6791H57.0869V51.8855H100.834V45.6791Z" fill="#183227" stroke="#F7F7F7" stroke-width="0.370667" stroke-miterlimit="10" stroke-linecap="round" stroke-linejoin="round"/>
<path d="M100.364 50.9274H55.8662V57.3217H100.364V50.9274Z" fill="#183227" stroke="#F7F7F7" stroke-width="0.370667" stroke-miterlimit="10" stroke-linecap="round" stroke-linejoin="round"/>
<path d="M99.7067 56.3343H54.5518V62.9247H99.7067V56.3343Z" fill="#183227" stroke="#F7F7F7" stroke-width="0.370667" stroke-miterlimit="10" stroke-linecap="round" stroke-linejoin="round"/>
<path d="M99.1432 61.9069H53.3311V68.7027H99.1432V61.9069Z" fill="#183227" stroke="#F7F7F7" stroke-width="0.370667" stroke-miterlimit="10" stroke-linecap="round" stroke-linejoin="round"/>
<path d="M98.486 67.6526H51.9229V74.6637H98.486V67.6526Z" fill="#183227" stroke="#F7F7F7" stroke-width="0.370667" stroke-miterlimit="10" stroke-linecap="round" stroke-linejoin="round"/>
<path d="M97.736 73.5803H50.5156V80.8168H97.736V73.5803Z" fill="#183227" stroke="#F7F7F7" stroke-width="0.370667" stroke-miterlimit="10" stroke-linecap="round" stroke-linejoin="round"/>
<path d="M220.654 40.5821H177.376V46.6091H220.654V40.5821Z" fill="#183227" stroke="white" stroke-width="0.370667" stroke-miterlimit="10" stroke-linecap="round" stroke-linejoin="round"/>
<path d="M221.78 45.6791H178.033V51.8855H221.78V45.6791Z" fill="#183227" stroke="white" stroke-width="0.370667" stroke-miterlimit="10" stroke-linecap="round" stroke-linejoin="round"/>
<path d="M223.001 50.9274H178.503V57.3217H223.001V50.9274Z" fill="#183227" stroke="white" stroke-width="0.370667" stroke-miterlimit="10" stroke-linecap="round" stroke-linejoin="round"/>
<path d="M224.314 56.3343H179.159V62.9247H224.314V56.3343Z" fill="#183227" stroke="white" stroke-width="0.370667" stroke-miterlimit="10" stroke-linecap="round" stroke-linejoin="round"/>
<path d="M225.535 61.9069H179.723V68.7027H225.535V61.9069Z" fill="#183227" stroke="white" stroke-width="0.370667" stroke-miterlimit="10" stroke-linecap="round" stroke-linejoin="round"/>
<path d="M226.943 67.6526H180.38V74.6637H226.943V67.6526Z" fill="#183227" stroke="white" stroke-width="0.370667" stroke-miterlimit="10" stroke-linecap="round" stroke-linejoin="round"/>
<path d="M228.351 73.5803H181.131V80.8168H228.351V73.5803Z" fill="#183227" stroke="white" stroke-width="0.370667" stroke-miterlimit="10" stroke-linecap="round" stroke-linejoin="round"/>
<path d="M161.158 40.5821H117.438V46.6091H161.158V40.5821Z" fill="#92E3A9" stroke="#263238" stroke-width="0.370667" stroke-miterlimit="10" stroke-linecap="round" stroke-linejoin="round"/>
<path d="M161.513 45.6791H117.081V51.8855H161.513V45.6791Z" fill="#92E3A9" stroke="#263238" stroke-width="0.370667" stroke-miterlimit="10" stroke-linecap="round" stroke-linejoin="round"/>
<path d="M161.869 50.9274H116.726V57.3217H161.869V50.9274Z" fill="#183227" stroke="#263238" stroke-width="0.370667" stroke-miterlimit="10" stroke-linecap="round" stroke-linejoin="round"/>
<path d="M162.225 56.3343H116.369V62.9247H162.225V56.3343Z" fill="#183227" stroke="#F7F7F7" stroke-width="0.370667" stroke-miterlimit="10" stroke-linecap="round" stroke-linejoin="round"/>
<path d="M162.522 61.9069H116.014V68.7027H162.522V61.9069Z" fill="#183227" stroke="#F7F7F7" stroke-width="0.370667" stroke-miterlimit="10" stroke-linecap="round" stroke-linejoin="round"/>
<path d="M162.937 67.6526H115.539V74.6637H162.937V67.6526Z" fill="#183227" stroke="#F7F7F7" stroke-width="0.370667" stroke-miterlimit="10" stroke-linecap="round" stroke-linejoin="round"/>
<path d="M163.352 73.5803H115.242V80.8172H163.352V73.5803Z" fill="#183227" stroke="#F7F7F7" stroke-width="0.370667" stroke-miterlimit="10" stroke-linecap="round" stroke-linejoin="round"/>
<path d="M230.349 77.6295H48.2383V88.7161H230.349V77.6295Z" fill="#BABABA" stroke="#263238" stroke-width="0.370667" stroke-miterlimit="10" stroke-linecap="round" stroke-linejoin="round"/>
<path d="M269.192 165.477H9.42773V171.834H269.192V165.477Z" fill="#263238"/>
<path d="M268.995 165.477H9.61914L48.2656 88.7161H230.349L268.995 165.477Z" fill="#8B9B74" stroke="#263238" stroke-width="0.370667" stroke-miterlimit="10" stroke-linecap="round" stroke-linejoin="round"/>
<path d="M241.463 152.666H37.1504L60.9605 95.6138H217.653L241.463 152.666Z" fill="white" stroke="white" stroke-width="0.370667" stroke-miterlimit="10"/>
<path d="M237.768 150.954H40.8447L62.849 96.6332H215.765L237.768 150.954Z" fill="#8B9B74" stroke="white" stroke-width="0.370667" stroke-miterlimit="10" stroke-linecap="round" stroke-linejoin="round"/>
<path opacity="0.32" d="M153.477 120.377C153.141 115.341 146.803 111.43 139.307 111.43C131.81 111.43 125.472 115.341 125.136 120.377C124.784 125.663 131.121 130.146 139.307 130.146C147.492 130.146 153.83 125.663 153.477 120.377Z" fill="black" stroke="white" stroke-width="0.370667" stroke-miterlimit="10"/>
<path d="M153.477 120.377C153.141 115.341 146.803 111.43 139.307 111.43C131.81 111.43 125.472 115.341 125.136 120.377C124.784 125.663 131.121 130.146 139.307 130.146C147.492 130.146 153.83 125.663 153.477 120.377Z" stroke="white" stroke-width="0.370667" stroke-miterlimit="10" stroke-linecap="round" stroke-linejoin="round"/>
<path opacity="0.32" d="M81.3355 130.231L86.2561 111.359H56.8804L49.2354 130.231H81.3355Z" fill="black" stroke="white" stroke-width="0.370667" stroke-miterlimit="10"/>
<path d="M81.3355 130.231L86.2561 111.359H56.8804L49.2354 130.231H81.3355Z" stroke="white" stroke-width="0.370667" stroke-miterlimit="10"/>
<path d="M65.7998 141.198H44.793L60.0403 103.56H77.6581C92.02 103.56 102.327 110.891 100.535 120.728C98.5608 131.567 82.9242 141.198 65.7998 141.198Z" stroke="white" stroke-width="0.370667" stroke-miterlimit="10"/>
<path d="M69.8521 120.317C71.4978 115.284 78.8511 111.376 86.3456 111.376C93.8401 111.376 99.1592 115.284 98.1851 120.317C97.1624 125.601 89.6609 130.081 81.4773 130.081C73.2937 130.081 68.1248 125.601 69.8521 120.317Z" stroke="white" stroke-width="0.370667" stroke-miterlimit="10" stroke-linecap="round" stroke-linejoin="round"/>
<path opacity="0.32" d="M197.299 130.231L192.378 111.359H221.754L229.399 130.231H197.299Z" fill="black" stroke="white" stroke-width="0.370667" stroke-miterlimit="10"/>
<path d="M197.299 130.231L192.378 111.359H221.754L229.399 130.231H197.299Z" stroke="white" stroke-width="0.370667" stroke-miterlimit="10"/>
<path d="M212.834 141.198H233.841L218.594 103.56H200.976C186.614 103.56 176.307 110.891 178.099 120.728C180.073 131.567 195.71 141.198 212.834 141.198Z" stroke="white" stroke-width="0.370667" stroke-miterlimit="10"/>
<path d="M208.781 120.317C207.136 115.284 199.782 111.376 192.288 111.376C184.793 111.376 179.474 115.284 180.448 120.317C181.471 125.601 188.972 130.081 197.156 130.081C205.339 130.081 210.509 125.601 208.781 120.317Z" stroke="white" stroke-width="0.370667" stroke-miterlimit="10" stroke-linecap="round" stroke-linejoin="round"/>
<path d="M139.307 150.312V96.6172" stroke="white" stroke-width="0.370667" stroke-miterlimit="10"/>
<path d="M29.4746 81.9258L43.8394 76.0204L42.9939 73.9632L29.4746 79.521V81.9258Z" fill="#263238"/>
<path d="M29.4746 88.3095L44.2194 86.2171L43.9073 84.0149L29.4746 86.0636V88.3095Z" fill="#263238"/>
<path d="M48.8648 60.7975H47.5029V82.0222H48.8648V60.7975Z" fill="white" stroke="#263238" stroke-width="0.370667" stroke-miterlimit="10" stroke-linecap="round" stroke-linejoin="round"/>
<path d="M44.6089 69.6597H43.2471V90.8845H44.6089V69.6597Z" fill="white" stroke="#263238" stroke-width="0.370667" stroke-miterlimit="10" stroke-linecap="round" stroke-linejoin="round"/>
<path d="M44.6094 69.6597L48.8646 60.7975V82.0222L44.6094 90.8841V69.6597Z" fill="#8B9B74" stroke="#263238" stroke-width="0.370667" stroke-miterlimit="10" stroke-linecap="round" stroke-linejoin="round"/>
<path d="M45.5547 74.1196L47.9195 69.1946V76.483L45.5547 81.408V74.1196Z" stroke="#263238" stroke-width="0.370667" stroke-miterlimit="10" stroke-linecap="round" stroke-linejoin="round"/>
<path d="M43.2471 69.6597L47.5023 60.7975H48.8642L44.6089 69.6597H43.2471Z" fill="white" stroke="#263238" stroke-width="0.370667" stroke-miterlimit="10" stroke-linecap="round" stroke-linejoin="round"/>
<path d="M29.5811 92.7645V79.6789H26.2451V95.3562L36.798 98.0495L35.8302 122.733H40.634L40.134 95.4574L29.5811 92.7645Z" fill="#263238"/>
<path d="M26.2451 79.6789L27.3082 77.1101H30.6442L29.5811 79.6789H26.2451Z" fill="#263238"/>
<path d="M30.6442 90.1958V77.1101H27.3082L26.2451 79.6789H29.5811V92.7645L40.134 95.4574L40.634 122.733L42.1649 119.034L41.1971 92.8891L30.6442 90.1958Z" fill="#263238"/>
<path d="M49.7295 79.7756L50.7933 82.7002L51.4346 80.408L52.3883 82.8332L53.2304 80.6619L54.3384 82.8777L55.136 80.6174L56.0223 82.4344L56.6869 80.13L57.0857 81.8139L57.7062 79.4654L57.9279 81.3265L58.2823 78.6677" stroke="#263238" stroke-width="0.185333" stroke-miterlimit="10" stroke-linecap="round" stroke-linejoin="round"/>
<path d="M50.793 82.7002C50.793 82.7002 51.346 84.449 51.3201 85.7849" stroke="#263238" stroke-width="0.185333" stroke-miterlimit="10" stroke-linecap="round" stroke-linejoin="round"/>
<path d="M57.928 81.3265C57.928 81.3265 57.2804 84.3463 57.1777 85.5539" stroke="#263238" stroke-width="0.185333" stroke-miterlimit="10" stroke-linecap="round" stroke-linejoin="round"/>
<path d="M57.4855 83.3188L57.0855 81.8139L55.79 85.8364" stroke="#263238" stroke-width="0.185333" stroke-miterlimit="10" stroke-linecap="round" stroke-linejoin="round"/>
<path d="M57.2032 84.8089L56.0222 82.4344L53.8379 85.8364" stroke="#263238" stroke-width="0.185333" stroke-miterlimit="10" stroke-linecap="round" stroke-linejoin="round"/>
<path d="M55.7903 85.8364L54.3384 82.8777L52.0654 85.6822" stroke="#263238" stroke-width="0.185333" stroke-miterlimit="10" stroke-linecap="round" stroke-linejoin="round"/>
<path d="M51.2949 84.5005L52.3884 82.8332L53.8381 85.8364" stroke="#263238" stroke-width="0.185333" stroke-miterlimit="10" stroke-linecap="round" stroke-linejoin="round"/>
<path d="M50.9609 83.1646L52.0399 85.5795" stroke="#263238" stroke-width="0.185333" stroke-miterlimit="10" stroke-linecap="round" stroke-linejoin="round"/>
<path d="M49.6455 77.9319L50.6089 78.8653L50.9399 76.788L51.7828 78.4438L52.4452 75.9451L53.4986 78.2329L54.462 75.9752L55.2148 78.2329L56.2382 76.3065L56.5692 78.6243L57.4425 76.9685L57.352 79.1362L58.0441 78.1788" stroke="#263238" stroke-width="0.185333" stroke-miterlimit="10" stroke-linecap="round" stroke-linejoin="round"/>
<path d="M50.3682 79.8586L50.6091 78.8652L52.084 80.4606" stroke="#263238" stroke-width="0.185333" stroke-miterlimit="10" stroke-linecap="round" stroke-linejoin="round"/>
<path d="M51.6621 80.1596L51.7822 78.4438L53.0769 80.3705L53.498 78.2329L54.6723 80.4306L55.2142 78.2329L55.9967 80.22" stroke="#263238" stroke-width="0.185333" stroke-miterlimit="10" stroke-linecap="round" stroke-linejoin="round"/>
<path d="M55.9072 79.9491L56.5692 78.6243L57.0211 79.7382L57.3521 79.1362L57.7064 79.4654" stroke="#263238" stroke-width="0.185333" stroke-miterlimit="10" stroke-linecap="round" stroke-linejoin="round"/>
<path d="M53.7239 75.7505C51.7412 75.7505 50.0428 76.3933 49.3278 77.307H47.4519L46.6331 78.73L46.5801 78.7963V82.2242L47.4367 80.8898V79.1407L48.9709 78.3337C48.9746 78.4167 48.9853 78.499 49.0039 78.5798C48.9965 78.6395 48.995 78.697 49.0091 78.7481C49.0091 78.7481 48.9294 79.6685 49.5591 80.1733C50.1889 80.6782 50.5225 80.6726 50.8049 80.6485C51.0032 80.6315 51.2312 80.521 51.3509 80.4558C52.05 80.6697 52.8588 80.7938 53.7239 80.7938C56.3523 80.7938 58.4829 79.6648 58.4829 78.2722C58.4829 76.8796 56.3523 75.7505 53.7239 75.7505ZM53.7239 80.4198C51.7668 80.4198 50.1159 79.7445 49.5847 78.8185C49.5943 78.5606 49.6674 78.1703 49.9594 77.6977C50.4847 76.8473 51.1597 76.9474 51.5099 76.6972C51.7731 76.5093 51.8524 76.265 51.8758 76.1553C52.437 76.017 53.0619 75.9377 53.7239 75.9377C56.1099 75.9377 58.0441 76.9411 58.0441 78.1788C58.0444 79.4164 56.1099 80.4198 53.7239 80.4198Z" fill="#263238"/>
<path d="M244.608 81.9258L230.243 76.0204L231.089 73.9632L244.608 79.521V81.9258Z" fill="#263238"/>
<path d="M244.608 88.3095L229.863 86.2171L230.176 84.0149L244.608 86.0636V88.3095Z" fill="#263238"/>
<path d="M225.22 82.0224H226.581V60.7977H225.22V82.0224Z" fill="white" stroke="#263238" stroke-width="0.370667" stroke-miterlimit="10" stroke-linecap="round" stroke-linejoin="round"/>
<path d="M229.475 90.8841H230.837V69.6594H229.475V90.8841Z" fill="white" stroke="#263238" stroke-width="0.370667" stroke-miterlimit="10" stroke-linecap="round" stroke-linejoin="round"/>
<path d="M229.475 69.6597L225.22 60.7975V82.0222L229.475 90.8841V69.6597Z" fill="#8B9B74" stroke="#263238" stroke-width="0.370667" stroke-miterlimit="10" stroke-linecap="round" stroke-linejoin="round"/>
<path d="M228.53 74.1196L226.165 69.1946V76.483L228.53 81.408V74.1196Z" stroke="#263238" stroke-width="0.370667" stroke-miterlimit="10" stroke-linecap="round" stroke-linejoin="round"/>
<path d="M230.836 69.6597L226.581 60.7975H225.22L229.475 69.6597H230.836Z" fill="white" stroke="#263238" stroke-width="0.370667" stroke-miterlimit="10" stroke-linecap="round" stroke-linejoin="round"/>
<path d="M244.502 92.7645V79.6789H247.838V95.3562L237.285 98.0495L238.253 122.733H233.449L233.949 95.4574L244.502 92.7645Z" fill="#263238"/>
<path d="M247.838 79.6789L246.775 77.1101H243.439L244.502 79.6789H247.838Z" fill="#263238"/>
<path d="M243.44 90.1958V77.1101H246.776L247.838 79.6789H244.502V92.7645L233.949 95.4574L233.449 122.733L231.919 119.034L232.887 92.8891L243.44 90.1958Z" fill="#263238"/>
<path d="M224.353 79.7756L223.289 82.7002L222.648 80.408L221.694 82.8332L220.852 80.6619L219.744 82.8777L218.946 80.6174L218.06 82.4344L217.395 80.13L216.996 81.8139L216.376 79.4654L216.155 81.3265L215.8 78.6677" stroke="#263238" stroke-width="0.185333" stroke-miterlimit="10" stroke-linecap="round" stroke-linejoin="round"/>
<path d="M223.289 82.7002C223.289 82.7002 222.736 84.449 222.762 85.7849" stroke="#263238" stroke-width="0.185333" stroke-miterlimit="10" stroke-linecap="round" stroke-linejoin="round"/>
<path d="M216.154 81.3265C216.154 81.3265 216.802 84.3463 216.905 85.5539" stroke="#263238" stroke-width="0.185333" stroke-miterlimit="10" stroke-linecap="round" stroke-linejoin="round"/>
<path d="M216.597 83.3188L216.997 81.8139L218.292 85.8364" stroke="#263238" stroke-width="0.185333" stroke-miterlimit="10" stroke-linecap="round" stroke-linejoin="round"/>
<path d="M216.879 84.8089L218.06 82.4344L220.244 85.8364" stroke="#263238" stroke-width="0.185333" stroke-miterlimit="10" stroke-linecap="round" stroke-linejoin="round"/>
<path d="M218.292 85.8364L219.744 82.8777L222.017 85.6822" stroke="#263238" stroke-width="0.185333" stroke-miterlimit="10" stroke-linecap="round" stroke-linejoin="round"/>
<path d="M222.788 84.5005L221.694 82.8332L220.244 85.8364" stroke="#263238" stroke-width="0.185333" stroke-miterlimit="10" stroke-linecap="round" stroke-linejoin="round"/>
<path d="M223.121 83.1646L222.042 85.5795" stroke="#263238" stroke-width="0.185333" stroke-miterlimit="10" stroke-linecap="round" stroke-linejoin="round"/>
<path d="M224.436 77.9319L223.473 78.8653L223.142 76.788L222.299 78.4438L221.637 75.9451L220.583 78.2329L219.62 75.9752L218.867 78.2329L217.844 76.3065L217.513 78.6243L216.64 76.9685L216.73 79.1362L216.038 78.1788" stroke="#263238" stroke-width="0.185333" stroke-miterlimit="10" stroke-linecap="round" stroke-linejoin="round"/>
<path d="M223.714 79.8586L223.473 78.8652L221.998 80.4606" stroke="#263238" stroke-width="0.185333" stroke-miterlimit="10" stroke-linecap="round" stroke-linejoin="round"/>
<path d="M222.42 80.1596L222.299 78.4438L221.005 80.3705L220.584 78.2329L219.409 80.4306L218.868 78.2329L218.085 80.22" stroke="#263238" stroke-width="0.185333" stroke-miterlimit="10" stroke-linecap="round" stroke-linejoin="round"/>
<path d="M218.175 79.9491L217.513 78.6243L217.061 79.7382L216.73 79.1362L216.376 79.4654" stroke="#263238" stroke-width="0.185333" stroke-miterlimit="10" stroke-linecap="round" stroke-linejoin="round"/>
<path d="M220.359 75.7505C222.341 75.7505 224.04 76.3933 224.755 77.307H226.631L227.449 78.73L227.502 78.7963V82.2242L226.646 80.8898V79.1407L225.112 78.3337C225.108 78.4167 225.097 78.499 225.079 78.5798C225.086 78.6395 225.088 78.697 225.073 78.7481C225.073 78.7481 225.153 79.6685 224.523 80.1733C223.894 80.6782 223.56 80.6726 223.278 80.6485C223.079 80.6315 222.851 80.521 222.732 80.4558C222.033 80.6697 221.224 80.7938 220.359 80.7938C217.73 80.7938 215.6 79.6648 215.6 78.2722C215.6 76.8796 217.73 75.7505 220.359 75.7505ZM220.359 80.4198C222.316 80.4198 223.967 79.7445 224.498 78.8185C224.488 78.5606 224.415 78.1703 224.123 77.6977C223.598 76.8473 222.923 76.9474 222.573 76.6972C222.31 76.5093 222.23 76.265 222.207 76.1553C221.646 76.017 221.021 75.9377 220.359 75.9377C217.973 75.9377 216.038 76.9411 216.038 78.1788C216.038 79.4164 217.973 80.4198 220.359 80.4198Z" fill="#263238"/>
<path d="M172.586 55.3161H102.349C101.532 55.3161 100.869 54.6537 100.869 53.8364V13.251C100.869 12.4336 101.532 11.7713 102.349 11.7713H172.586C173.404 11.7713 174.066 12.4336 174.066 13.251V53.8364C174.066 54.6537 173.403 55.3161 172.586 55.3161Z" fill="#263238"/>
<path d="M147.156 16.7982H127.779V26.1335H147.156V16.7982Z" fill="#263238" stroke="white" stroke-width="0.370667" stroke-miterlimit="10"/>
<path d="M141.058 31.3076H133.833V38.2354H141.058V31.3076Z" fill="#263238" stroke="white" stroke-width="0.370667" stroke-miterlimit="10"/>
<path d="M132.365 39.3414H125.141V46.2692H132.365V39.3414Z" fill="#263238" stroke="white" stroke-width="0.370667" stroke-miterlimit="10"/>
<path d="M149.623 39.3414H142.398V46.2692H149.623V39.3414Z" fill="#263238" stroke="white" stroke-width="0.370667" stroke-miterlimit="10"/>
<path d="M104.904 26.9493V20.6721H106.043V23.299H107.322V20.6721H108.469V26.9493H107.322V24.113H106.043V26.9493H104.904Z" fill="#BABABA"/>
<path d="M111.135 27.0346C110.69 27.0346 110.337 26.9519 110.073 26.7862C109.81 26.6213 109.621 26.3833 109.507 26.0734C109.394 25.7636 109.337 25.3966 109.337 24.9729V22.6251C109.337 22.2014 109.394 21.8386 109.507 21.5361C109.621 21.234 109.81 21.0027 110.073 20.8426C110.337 20.6825 110.69 20.6024 111.135 20.6024C111.589 20.6024 111.947 20.6825 112.208 20.8426C112.469 21.0031 112.658 21.234 112.774 21.5361C112.89 21.8386 112.948 22.2014 112.948 22.6251V24.9811C112.948 25.3996 112.89 25.7624 112.774 26.0701C112.657 26.3774 112.469 26.615 112.208 26.7829C111.947 26.9508 111.589 27.0346 111.135 27.0346ZM111.135 26.1898C111.326 26.1898 111.467 26.1487 111.557 26.0656C111.648 25.983 111.708 25.8696 111.739 25.7246C111.77 25.5801 111.786 25.4222 111.786 25.252V22.3612C111.786 22.1859 111.77 22.0283 111.739 21.8886C111.708 21.7492 111.648 21.6395 111.557 21.5591C111.467 21.479 111.326 21.439 111.135 21.439C110.954 21.439 110.817 21.479 110.724 21.5591C110.631 21.6395 110.569 21.7489 110.538 21.8886C110.507 22.028 110.491 22.1855 110.491 22.3612V25.252C110.491 25.4225 110.505 25.5801 110.534 25.7246C110.562 25.8692 110.623 25.983 110.716 26.0656C110.809 26.1487 110.949 26.1898 111.135 26.1898Z" fill="#BABABA"/>
<path d="M113.777 26.9493L113.886 20.6721H115.071L115.962 25.0196L116.892 20.6721H118.039L118.156 26.9493H117.303L117.21 22.5862L116.319 26.9493H115.63L114.723 22.571L114.637 26.9493H113.777Z" fill="#BABABA"/>
<path d="M119.039 26.9493V20.6721H121.674V21.4779H120.186V23.2834H121.356V24.0815H120.186V26.1587H121.69V26.9489L119.039 26.9493Z" fill="#BABABA"/>
<path d="M125.203 50.2146V47.7389H126.221V48.0506H125.655V48.7719H126.117V49.0866H125.655V50.2142L125.203 50.2146Z" fill="#BABABA"/>
<path d="M127.138 50.2483C126.962 50.2483 126.823 50.2157 126.719 50.1505C126.616 50.0852 126.541 49.9914 126.496 49.8691C126.451 49.7472 126.429 49.6022 126.429 49.4354V48.5095C126.429 48.3423 126.451 48.1993 126.496 48.0799C126.541 47.9606 126.616 47.8694 126.719 47.8064C126.823 47.7433 126.963 47.7118 127.138 47.7118C127.317 47.7118 127.458 47.7433 127.561 47.8064C127.664 47.8694 127.738 47.9606 127.784 48.0799C127.83 48.1993 127.853 48.3423 127.853 48.5095V49.4388C127.853 49.6037 127.83 49.7468 127.784 49.868C127.738 49.9892 127.664 50.083 127.561 50.1493C127.458 50.215 127.317 50.2483 127.138 50.2483ZM127.138 49.9151C127.213 49.9151 127.269 49.8988 127.305 49.8662C127.34 49.8339 127.364 49.7891 127.377 49.7316C127.389 49.6745 127.395 49.6122 127.395 49.5452V48.405C127.395 48.336 127.389 48.2738 127.377 48.2185C127.364 48.1637 127.34 48.1203 127.305 48.0888C127.269 48.0573 127.213 48.0414 127.138 48.0414C127.067 48.0414 127.013 48.0573 126.976 48.0888C126.939 48.1203 126.915 48.1637 126.902 48.2185C126.89 48.2734 126.884 48.3357 126.884 48.405V49.5452C126.884 49.6122 126.89 49.6745 126.901 49.7316C126.912 49.7887 126.936 49.8335 126.973 49.8662C127.01 49.8988 127.065 49.9151 127.138 49.9151Z" fill="#BABABA"/>
<path d="M128.865 50.2483C128.681 50.2483 128.539 50.2146 128.437 50.1471C128.335 50.08 128.265 49.9844 128.226 49.8599C128.187 49.7357 128.168 49.587 128.168 49.4136V47.7385H128.608V49.4655C128.608 49.5429 128.613 49.6159 128.623 49.6842C128.633 49.7524 128.657 49.8076 128.695 49.8491C128.733 49.891 128.789 49.9117 128.864 49.9117C128.944 49.9117 129.002 49.891 129.037 49.8491C129.073 49.8072 129.096 49.7524 129.108 49.6842C129.119 49.6159 129.124 49.5433 129.124 49.4655V47.7385H129.561V49.4136C129.561 49.5867 129.542 49.7353 129.503 49.8599C129.465 49.984 129.395 50.08 129.294 50.1471C129.194 50.2146 129.05 50.2483 128.865 50.2483Z" fill="#BABABA"/>
<path d="M129.916 50.2146V47.7389H130.368V49.9029H130.967V50.2146H129.916Z" fill="#BABABA"/>
<path d="M131.814 50.2483C131.665 50.2483 131.54 50.219 131.441 50.1612C131.341 50.103 131.265 50.0181 131.215 49.9058C131.164 49.7939 131.135 49.6564 131.129 49.4933L131.517 49.4169C131.521 49.5125 131.533 49.5971 131.552 49.6708C131.571 49.7438 131.601 49.8005 131.64 49.8406C131.68 49.8802 131.733 49.9003 131.798 49.9003C131.871 49.9003 131.923 49.8784 131.954 49.8343C131.984 49.7905 132 49.7349 132 49.6678C132 49.5596 131.975 49.471 131.927 49.4021C131.878 49.3328 131.812 49.2635 131.731 49.1941L131.419 48.9191C131.332 48.8435 131.262 48.7597 131.21 48.6671C131.158 48.5744 131.132 48.4598 131.132 48.3234C131.132 48.1277 131.189 47.9769 131.303 47.8709C131.417 47.7648 131.573 47.7122 131.771 47.7122C131.887 47.7122 131.984 47.73 132.061 47.7656C132.138 47.8012 132.2 47.8508 132.246 47.9139C132.292 47.9772 132.326 48.0488 132.348 48.1292C132.371 48.2096 132.385 48.2949 132.391 48.3846L132.006 48.4517C132.002 48.3746 131.993 48.3049 131.98 48.2441C131.967 48.183 131.944 48.1351 131.91 48.1007C131.877 48.0658 131.827 48.0484 131.762 48.0484C131.695 48.0484 131.643 48.0703 131.607 48.1144C131.572 48.1581 131.554 48.2126 131.554 48.2778C131.554 48.3616 131.571 48.4302 131.606 48.4843C131.64 48.5381 131.69 48.594 131.756 48.6507L132.064 48.9228C132.166 49.0084 132.254 49.1085 132.326 49.2238C132.398 49.3387 132.434 49.4781 132.434 49.6408C132.434 49.759 132.408 49.8639 132.356 49.9555C132.304 50.047 132.232 50.1189 132.139 50.1708C132.046 50.222 131.938 50.2483 131.814 50.2483Z" fill="#BABABA"/>
<path d="M142.461 50.2145V47.7388H143.479V48.0505H142.913V48.7718H143.375V49.0865H142.913V50.2141L142.461 50.2145Z" fill="#BABABA"/>
<path d="M144.396 50.2483C144.22 50.2483 144.081 50.2157 143.977 50.1505C143.873 50.0852 143.798 49.9914 143.753 49.8691C143.709 49.7472 143.687 49.6022 143.687 49.4354V48.5095C143.687 48.3423 143.709 48.1993 143.753 48.0799C143.798 47.9606 143.873 47.8694 143.977 47.8064C144.081 47.7433 144.22 47.7118 144.396 47.7118C144.575 47.7118 144.715 47.7433 144.819 47.8064C144.921 47.8694 144.996 47.9606 145.042 48.0799C145.088 48.1993 145.111 48.3423 145.111 48.5095V49.4388C145.111 49.6037 145.088 49.7468 145.042 49.868C144.996 49.9892 144.922 50.083 144.819 50.1493C144.716 50.215 144.575 50.2483 144.396 50.2483ZM144.396 49.9151C144.47 49.9151 144.526 49.8988 144.562 49.8662C144.598 49.8339 144.622 49.7891 144.634 49.7316C144.646 49.6745 144.653 49.6122 144.653 49.5452V48.405C144.653 48.336 144.646 48.2738 144.634 48.2185C144.622 48.1637 144.598 48.1203 144.562 48.0888C144.526 48.0573 144.471 48.0414 144.396 48.0414C144.324 48.0414 144.27 48.0573 144.234 48.0888C144.197 48.1203 144.172 48.1637 144.16 48.2185C144.148 48.2734 144.142 48.3357 144.142 48.405V49.5452C144.142 49.6122 144.148 49.6745 144.159 49.7316C144.17 49.7887 144.194 49.8335 144.231 49.8662C144.267 49.8988 144.322 49.9151 144.396 49.9151Z" fill="#BABABA"/>
<path d="M146.122 50.2483C145.938 50.2483 145.795 50.2146 145.694 50.1471C145.592 50.08 145.521 49.9844 145.483 49.8599C145.444 49.7357 145.425 49.587 145.425 49.4136V47.7385H145.865V49.4655C145.865 49.5429 145.87 49.6159 145.88 49.6842C145.89 49.7524 145.914 49.8076 145.952 49.8491C145.989 49.891 146.046 49.9117 146.122 49.9117C146.201 49.9117 146.258 49.891 146.294 49.8491C146.33 49.8072 146.353 49.7524 146.364 49.6842C146.376 49.6159 146.381 49.5433 146.381 49.4655V47.7385H146.819V49.4136C146.819 49.5867 146.799 49.7353 146.76 49.8599C146.721 49.984 146.652 50.08 146.551 50.1471C146.45 50.2146 146.307 50.2483 146.122 50.2483Z" fill="#BABABA"/>
<path d="M147.174 50.2146V47.7389H147.626V49.9029H148.225V50.2146H147.174Z" fill="#BABABA"/>
<path d="M149.072 50.2483C148.923 50.2483 148.799 50.219 148.699 50.1612C148.599 50.103 148.523 50.0181 148.472 49.9058C148.422 49.7939 148.393 49.6564 148.387 49.4933L148.775 49.4169C148.779 49.5125 148.791 49.5971 148.81 49.6708C148.829 49.7438 148.859 49.8005 148.899 49.8406C148.939 49.8802 148.991 49.9003 149.056 49.9003C149.13 49.9003 149.181 49.8784 149.212 49.8343C149.243 49.7905 149.258 49.7349 149.258 49.6678C149.258 49.5596 149.233 49.471 149.184 49.4021C149.136 49.3328 149.071 49.2635 148.989 49.1941L148.678 48.9191C148.59 48.8435 148.52 48.7597 148.468 48.6671C148.416 48.5744 148.39 48.4598 148.39 48.3234C148.39 48.1277 148.447 47.9769 148.561 47.8709C148.676 47.7648 148.831 47.7122 149.029 47.7122C149.145 47.7122 149.242 47.73 149.32 47.7656C149.397 47.8012 149.458 47.8508 149.505 47.9139C149.55 47.9772 149.585 48.0488 149.607 48.1292C149.629 48.2096 149.644 48.2949 149.65 48.3846L149.264 48.4517C149.26 48.3746 149.252 48.3049 149.239 48.2441C149.226 48.183 149.202 48.1351 149.168 48.1007C149.135 48.0658 149.085 48.0484 149.02 48.0484C148.953 48.0484 148.901 48.0703 148.866 48.1144C148.83 48.1581 148.812 48.2126 148.812 48.2778C148.812 48.3616 148.829 48.4302 148.864 48.4843C148.899 48.5381 148.949 48.594 149.014 48.6507L149.322 48.9228C149.424 49.0084 149.511 49.1085 149.584 49.2238C149.656 49.3387 149.692 49.4781 149.692 49.6408C149.692 49.759 149.666 49.8639 149.614 49.9555C149.562 50.047 149.489 50.1189 149.397 50.1708C149.305 50.222 149.196 50.2483 149.072 50.2483Z" fill="#BABABA"/>
<path d="M133.938 30.2915V28.2555H134.536C134.658 28.2555 134.757 28.2781 134.834 28.3233C134.91 28.3685 134.966 28.4341 135.002 28.5205C135.038 28.6069 135.056 28.711 135.056 28.8333C135.056 28.9657 135.034 29.0728 134.988 29.154C134.943 29.2351 134.88 29.2944 134.799 29.3311C134.717 29.3678 134.621 29.3864 134.511 29.3864H134.309V30.2915H133.938ZM134.31 29.125H134.451C134.517 29.125 134.57 29.1154 134.608 29.0961C134.645 29.0769 134.671 29.0457 134.686 29.0031C134.7 28.9605 134.707 28.903 134.707 28.8311C134.707 28.7573 134.701 28.6977 134.69 28.6513C134.68 28.6054 134.656 28.5713 134.62 28.5494C134.584 28.5275 134.527 28.5168 134.45 28.5168H134.309V29.125H134.31Z" fill="#BABABA"/>
<path d="M135.253 30.2916V28.2555H136.108V28.5169H135.625V29.1025H136.005V29.3616H135.625V30.0351H136.113V30.2916H135.253Z" fill="#BABABA"/>
<path d="M136.329 30.2916V28.2555H136.817C136.954 28.2555 137.07 28.2718 137.165 28.3045C137.259 28.3371 137.332 28.3931 137.381 28.472C137.431 28.551 137.456 28.6581 137.456 28.7937C137.456 28.876 137.448 28.9498 137.433 29.015C137.418 29.0803 137.393 29.1359 137.356 29.1822C137.32 29.2282 137.27 29.2641 137.206 29.289L137.491 30.292H137.119L136.873 29.3594H136.701V30.292L136.329 30.2916ZM136.701 29.1251H136.817C136.888 29.1251 136.946 29.1144 136.989 29.0936C137.032 29.0725 137.062 29.0391 137.08 28.9932C137.099 28.9472 137.108 28.8879 137.108 28.816C137.108 28.7137 137.089 28.637 137.052 28.5858C137.013 28.5347 136.942 28.5094 136.836 28.5094H136.701V29.1251Z" fill="#BABABA"/>
<path d="M137.744 30.2916V28.2555H138.111V30.2916H137.744Z" fill="#BABABA"/>
<path d="M138.978 30.319C138.834 30.319 138.719 30.292 138.634 30.2386C138.548 30.1849 138.487 30.1078 138.45 30.0069C138.413 29.9065 138.395 29.7875 138.395 29.65V28.8883C138.395 28.7508 138.413 28.6329 138.45 28.535C138.487 28.4372 138.548 28.3619 138.634 28.31C138.719 28.2581 138.834 28.2322 138.978 28.2322C139.125 28.2322 139.242 28.2581 139.326 28.31C139.411 28.3619 139.472 28.4372 139.51 28.535C139.547 28.6329 139.566 28.7508 139.566 28.8883V29.6522C139.566 29.7883 139.547 29.9061 139.51 30.0055C139.472 30.1052 139.411 30.1826 139.326 30.2371C139.242 30.292 139.125 30.319 138.978 30.319ZM138.978 30.0451C139.04 30.0451 139.085 30.0318 139.115 30.0047C139.144 29.978 139.164 29.941 139.174 29.8939C139.184 29.8472 139.189 29.796 139.189 29.7408V28.803C139.189 28.7459 139.184 28.6948 139.174 28.6496C139.164 28.6043 139.144 28.5688 139.115 28.5428C139.085 28.5169 139.04 28.5039 138.978 28.5039C138.919 28.5039 138.875 28.5169 138.845 28.5428C138.814 28.5688 138.794 28.6043 138.784 28.6496C138.774 28.6948 138.769 28.7459 138.769 28.803V29.7408C138.769 29.796 138.774 29.8472 138.783 29.8939C138.792 29.941 138.812 29.9777 138.842 30.0047C138.872 30.0318 138.918 30.0451 138.978 30.0451Z" fill="#BABABA"/>
<path d="M139.84 30.2916V28.2555H140.32C140.486 28.2555 140.615 28.2782 140.708 28.3234C140.801 28.3686 140.867 28.4383 140.907 28.5321C140.947 28.6258 140.966 28.7448 140.966 28.889V29.6329C140.966 29.7805 140.947 29.9032 140.907 30.001C140.867 30.0992 140.802 30.1719 140.711 30.2197C140.619 30.2675 140.494 30.2912 140.335 30.2912L139.84 30.2916ZM140.212 30.0325H140.325C140.411 30.0325 140.471 30.0177 140.509 29.9873C140.546 29.9573 140.568 29.9132 140.576 29.8553C140.585 29.7975 140.589 29.7267 140.589 29.6429V28.8634C140.589 28.7815 140.583 28.7152 140.571 28.6648C140.56 28.6143 140.535 28.5776 140.498 28.5539C140.461 28.5306 140.402 28.5187 140.32 28.5187H140.212V30.0325Z" fill="#BABABA"/>
<path d="M108.395 42.1945V32.5694C108.336 32.5986 108.221 32.6428 108.051 32.7013C107.88 32.7599 107.692 32.8162 107.486 32.8696C107.281 32.9237 107.093 32.9749 106.923 33.0234C106.751 33.0724 106.632 33.1113 106.563 33.1406V31.6316C106.7 31.5826 106.871 31.5144 107.076 31.4266C107.282 31.3387 107.499 31.2387 107.728 31.1264C107.958 31.014 108.173 30.8895 108.373 30.7527C108.573 30.616 108.736 30.4744 108.863 30.3279H110.416V42.1945H108.395Z" fill="#92E3A9"/>
<path d="M112.526 42.1945V40.7589L115.456 36.2319C115.671 35.9002 115.874 35.5825 116.064 35.2797C116.255 34.9772 116.411 34.6622 116.533 34.3345C116.655 34.0076 116.717 33.6484 116.717 33.2577C116.717 32.8185 116.638 32.4811 116.482 32.2469C116.326 32.0123 116.081 31.8951 115.75 31.8951C115.437 31.8951 115.193 31.983 115.017 32.1587C114.842 32.3347 114.722 32.5642 114.658 32.8474C114.595 33.1309 114.563 33.4434 114.563 33.7852V34.2833H112.57V33.7559C112.57 33.0527 112.675 32.4352 112.886 31.9025C113.095 31.3703 113.43 30.9529 113.889 30.6501C114.348 30.3476 114.948 30.1956 115.691 30.1956C116.707 30.1956 117.468 30.4692 117.977 31.0163C118.484 31.5634 118.738 32.3251 118.738 33.3018C118.738 33.7903 118.67 34.2318 118.533 34.6273C118.397 35.0228 118.216 35.4016 117.991 35.7627C117.766 36.1241 117.523 36.4955 117.259 36.8761L114.827 40.5676H118.431V42.1937H112.526V42.1945Z" fill="#92E3A9"/>
<path d="M137.307 36.957V35.8127H135.915V35.134L137.129 32.2988H138.055V35.18H138.532V35.8127H138.055V36.957H137.307ZM136.583 35.18H137.307V33.1558L136.583 35.18Z" fill="#92E3A9"/>
<path d="M153.664 42.1945V40.7589L156.594 36.2319C156.809 35.9002 157.012 35.5825 157.202 35.2797C157.393 34.9772 157.549 34.6622 157.671 34.3345C157.793 34.0076 157.854 33.6484 157.854 33.2577C157.854 32.8185 157.776 32.4811 157.62 32.2469C157.463 32.0123 157.219 31.8951 156.887 31.8951C156.575 31.8951 156.33 31.983 156.155 32.1587C155.979 32.3347 155.859 32.5642 155.796 32.8474C155.732 33.1309 155.701 33.4434 155.701 33.7852V34.2833H153.709V33.7559C153.709 33.0527 153.813 32.4352 154.024 31.9025C154.233 31.3703 154.567 30.9529 155.027 30.6501C155.486 30.3476 156.086 30.1956 156.829 30.1956C157.845 30.1956 158.607 30.4692 159.114 31.0163C159.622 31.5634 159.876 32.3251 159.876 33.3018C159.876 33.7903 159.807 34.2318 159.671 34.6273C159.534 35.0228 159.354 35.4016 159.129 35.7627C158.905 36.1241 158.661 36.4955 158.397 36.8761L155.965 40.5676H159.569V42.1937H153.664V42.1945Z" fill="#92E3A9"/>
<path d="M160.944 42.1945V40.7589L163.874 36.2319C164.089 35.9002 164.292 35.5825 164.482 35.2797C164.673 34.9772 164.829 34.6622 164.951 34.3345C165.073 34.0076 165.134 33.6484 165.134 33.2577C165.134 32.8185 165.056 32.4811 164.9 32.2469C164.743 32.0123 164.499 31.8951 164.167 31.8951C163.854 31.8951 163.61 31.983 163.434 32.1587C163.259 32.3347 163.139 32.5642 163.076 32.8474C163.012 33.1309 162.981 33.4434 162.981 33.7852V34.2833H160.988V33.7559C160.988 33.0527 161.093 32.4352 161.304 31.9025C161.513 31.3703 161.848 30.9529 162.307 30.6501C162.766 30.3476 163.366 30.1956 164.109 30.1956C165.125 30.1956 165.887 30.4692 166.394 31.0163C166.902 31.5634 167.156 32.3251 167.156 33.3018C167.156 33.7903 167.087 34.2318 166.951 34.6273C166.814 35.0228 166.634 35.4016 166.409 35.7627C166.185 36.1241 165.941 36.4955 165.677 36.8761L163.245 40.5676H166.849V42.1937H160.944V42.1945Z" fill="#92E3A9"/>
<path d="M128.879 45.2488V44.1045H127.487V43.4258L128.701 40.5906H129.627V43.4718H130.104V44.1045H129.627V45.2488H128.879ZM128.155 43.4718H128.879V41.4476L128.155 43.4718Z" fill="#92E3A9"/>
<path d="M146.048 45.3121C145.761 45.3121 145.527 45.2451 145.346 45.1109C145.166 44.9767 145.035 44.7936 144.953 44.5615C144.87 44.3295 144.829 44.0697 144.829 43.7824V42.1489C144.829 41.846 144.864 41.5729 144.933 41.3293C145.001 41.0858 145.124 40.8934 145.301 40.7515C145.477 40.6095 145.724 40.5383 146.042 40.5383C146.314 40.5383 146.536 40.5836 146.707 40.6736C146.877 40.7637 147.003 40.8949 147.083 41.0676C147.164 41.24 147.204 41.4528 147.204 41.7059C147.204 41.7174 147.205 41.73 147.207 41.7434C147.209 41.7567 147.21 41.7693 147.21 41.7808H146.444C146.444 41.5736 146.42 41.4183 146.37 41.3149C146.32 41.2115 146.212 41.1596 146.048 41.1596C145.948 41.1596 145.868 41.1903 145.806 41.2515C145.745 41.313 145.7 41.4135 145.671 41.5536C145.642 41.6937 145.628 41.8805 145.628 42.1144V42.6723C145.682 42.584 145.763 42.514 145.872 42.4625C145.982 42.4106 146.109 42.3846 146.255 42.3846C146.508 42.3809 146.707 42.4365 146.853 42.5514C146.999 42.6663 147.103 42.8257 147.166 43.0288C147.23 43.2323 147.261 43.464 147.261 43.7246C147.261 44.0274 147.223 44.2987 147.147 44.5382C147.069 44.778 146.943 44.9667 146.767 45.1046C146.591 45.2432 146.351 45.3121 146.048 45.3121ZM146.054 44.6968C146.165 44.6968 146.249 44.6624 146.307 44.5931C146.364 44.5241 146.405 44.4281 146.427 44.3058C146.451 44.1831 146.462 44.0393 146.462 43.8743C146.462 43.7057 146.455 43.5552 146.442 43.4229C146.429 43.2905 146.393 43.1853 146.336 43.1067C146.278 43.0281 146.182 42.9888 146.048 42.9888C145.983 42.9888 145.923 43.001 145.867 43.0259C145.811 43.0511 145.764 43.0826 145.723 43.1208C145.683 43.1593 145.651 43.1975 145.628 43.2357V43.9663C145.628 44.0964 145.64 44.2172 145.666 44.3284C145.691 44.44 145.735 44.5289 145.798 44.5956C145.861 44.6631 145.946 44.6968 146.054 44.6968Z" fill="#92E3A9"/>
<path d="M132.736 24.3769C132.343 24.3769 132.026 24.3035 131.786 24.156C131.546 24.0088 131.372 23.7994 131.263 23.5281C131.155 23.2567 131.101 22.9406 131.101 22.5788V22.3619H132.163C132.163 22.3775 132.163 22.4031 132.163 22.4394C132.163 22.4757 132.163 22.5117 132.163 22.5476C132.168 22.7441 132.186 22.9116 132.217 23.0514C132.248 23.1907 132.306 23.2968 132.391 23.369C132.476 23.4413 132.594 23.4773 132.744 23.4773C132.904 23.4773 133.024 23.4387 133.104 23.3609C133.184 23.2834 133.238 23.17 133.267 23.0199C133.295 22.8701 133.309 22.6918 133.309 22.485C133.309 22.1651 133.259 21.9131 133.158 21.7296C133.058 21.5461 132.862 21.4468 132.573 21.4308C132.563 21.4308 132.538 21.4308 132.499 21.4308C132.461 21.4308 132.426 21.4308 132.395 21.4308V20.5705C132.421 20.5705 132.448 20.5705 132.476 20.5705C132.504 20.5705 132.532 20.5705 132.558 20.5705C132.842 20.5653 133.038 20.4893 133.147 20.3422C133.255 20.1947 133.309 19.9585 133.309 19.6331C133.309 19.3695 133.269 19.1627 133.189 19.013C133.109 18.8632 132.955 18.7883 132.728 18.7883C132.506 18.7883 132.358 18.871 132.283 19.0363C132.208 19.2016 132.168 19.4163 132.163 19.6794C132.163 19.7157 132.163 19.7532 132.163 19.7917C132.163 19.8307 132.163 19.8707 132.163 19.9118H131.101V19.6097C131.101 19.2532 131.164 18.95 131.29 18.699C131.417 18.4484 131.602 18.2572 131.845 18.1256C132.087 17.994 132.382 17.928 132.728 17.928C133.085 17.928 133.384 17.9925 133.627 18.1219C133.87 18.2509 134.054 18.4384 134.181 18.6838C134.308 18.9292 134.371 19.2302 134.371 19.5868C134.371 19.9589 134.294 20.2636 134.139 20.5012C133.984 20.7392 133.785 20.8941 133.542 20.966C133.707 21.0175 133.852 21.1069 133.976 21.2333C134.1 21.36 134.197 21.5253 134.266 21.7292C134.336 21.9334 134.371 22.1799 134.371 22.4691C134.371 22.8464 134.318 23.1781 134.212 23.4647C134.106 23.7516 133.933 23.9751 133.693 24.1352C133.452 24.2968 133.133 24.3769 132.736 24.3769Z" fill="#92E3A9"/>
<path d="M135.138 21.0831V20.0449H136.145V21.0831H135.138ZM135.138 23.7026V22.664H136.145V23.7026H135.138Z" fill="#92E3A9"/>
<path d="M138.424 24.3769C138.005 24.3769 137.681 24.2994 137.451 24.1445C137.221 23.9895 137.063 23.7701 136.974 23.4858C136.887 23.2015 136.843 22.8683 136.843 22.4861H137.889C137.889 22.6981 137.903 22.8853 137.932 23.0481C137.96 23.2108 138.017 23.3375 138.102 23.4276C138.188 23.5184 138.312 23.5607 138.478 23.5555C138.659 23.5555 138.787 23.4977 138.861 23.3813C138.936 23.2649 138.984 23.1022 139.005 22.8931C139.026 22.6841 139.036 22.4398 139.036 22.1607C139.036 21.9179 139.022 21.7062 138.993 21.5254C138.965 21.3445 138.909 21.2036 138.827 21.1032C138.744 21.0023 138.615 20.9519 138.439 20.9519C138.289 20.9519 138.166 21.0023 138.067 21.1032C137.969 21.204 137.897 21.3371 137.85 21.5024H136.928L136.99 18.0074H139.811V18.9685H137.89L137.828 20.4797C137.905 20.3867 138.017 20.3122 138.165 20.2551C138.312 20.1984 138.476 20.1646 138.657 20.1543C138.987 20.1387 139.256 20.2084 139.463 20.3633C139.669 20.5183 139.822 20.7432 139.92 21.0376C140.018 21.3322 140.068 21.6833 140.068 22.0914C140.068 22.422 140.045 22.7267 140.002 23.0058C139.957 23.2845 139.876 23.5262 139.758 23.7304C139.639 23.9347 139.472 24.0933 139.258 24.2071C139.042 24.3198 138.765 24.3769 138.424 24.3769Z" fill="#92E3A9"/>
<path d="M142.275 24.3691C141.913 24.3691 141.617 24.3072 141.384 24.183C141.152 24.0592 140.981 23.8783 140.873 23.6407C140.764 23.4031 140.71 23.1137 140.71 22.773C140.71 22.7626 140.71 22.7497 140.71 22.7345C140.71 22.7189 140.71 22.7033 140.71 22.6878H141.733C141.733 22.9669 141.767 23.1759 141.837 23.3157C141.908 23.455 142.056 23.5247 142.283 23.5247C142.422 23.5247 142.531 23.4836 142.608 23.4005C142.686 23.3179 142.743 23.1811 142.779 22.9898C142.815 22.799 142.833 22.548 142.833 22.2381V21.4864C142.761 21.605 142.652 21.6981 142.507 21.7652C142.363 21.8326 142.19 21.8686 141.988 21.8738C141.653 21.879 141.385 21.8 141.187 21.6373C140.988 21.4746 140.845 21.2536 140.76 20.9749C140.675 20.6958 140.633 20.3807 140.633 20.0293C140.633 19.616 140.687 19.2532 140.796 18.9407C140.904 18.6282 141.08 18.3825 141.322 18.2042C141.565 18.0263 141.883 17.9369 142.276 17.9369C142.664 17.9369 142.979 18.0237 143.221 18.1964C143.464 18.3695 143.641 18.6086 143.752 18.9133C143.864 19.2183 143.919 19.5667 143.919 19.9593V22.1833C143.919 22.5914 143.871 22.9609 143.775 23.2916C143.68 23.6222 143.514 23.8843 143.279 24.0781C143.044 24.272 142.709 24.3691 142.275 24.3691ZM142.283 21.0598C142.427 21.0598 142.542 21.0238 142.628 20.9516C142.713 20.8793 142.781 20.8018 142.833 20.7191V19.7428C142.833 19.5619 142.818 19.3977 142.786 19.2506C142.755 19.103 142.699 18.9844 142.62 18.894C142.54 18.8035 142.425 18.7583 142.275 18.7583C142.13 18.7583 142.018 18.8047 141.938 18.8977C141.857 18.9907 141.802 19.1201 141.771 19.285C141.74 19.4507 141.724 19.6446 141.724 19.8666C141.724 20.0886 141.734 20.2903 141.752 20.4712C141.77 20.6521 141.818 20.7955 141.895 20.9011C141.973 21.0072 142.103 21.0598 142.283 21.0598Z" fill="#92E3A9"/>
<path d="M153.263 27.0346C152.85 27.0346 152.521 26.9467 152.279 26.771C152.036 26.5957 151.861 26.3462 151.756 26.0234C151.649 25.7005 151.597 25.3195 151.597 24.8803V22.7723C151.597 22.3227 151.648 21.9353 151.752 21.6099C151.855 21.2844 152.037 21.0353 152.298 20.8619C152.559 20.6888 152.919 20.6024 153.379 20.6024C153.808 20.6024 154.149 20.6747 154.402 20.8192C154.655 20.9638 154.837 21.1717 154.948 21.4431C155.059 21.7144 155.115 22.0435 155.115 22.4313V22.7567H154.022V22.4001C154.022 22.1988 154.008 22.0257 153.979 21.8808C153.951 21.7363 153.894 21.6262 153.808 21.5513C153.724 21.4764 153.585 21.439 153.394 21.439C153.192 21.439 153.047 21.4879 152.956 21.5861C152.866 21.6844 152.809 21.8134 152.786 21.9735C152.762 22.1336 152.751 22.3097 152.751 22.5006V25.1275C152.751 25.3443 152.769 25.533 152.805 25.6931C152.841 25.8533 152.908 25.9759 153.007 26.0612C153.105 26.1464 153.244 26.1891 153.425 26.1891C153.611 26.1891 153.753 26.1424 153.851 26.0497C153.949 25.9567 154.018 25.8277 154.056 25.6624C154.095 25.497 154.115 25.3006 154.115 25.0734V24.4844H153.44V23.7638H155.145V26.9489H154.409L154.323 26.3288C154.241 26.5356 154.115 26.7047 153.947 26.8363C153.78 26.969 153.552 27.0346 153.263 27.0346Z" fill="#BABABA"/>
<path d="M157.741 27.0346C157.276 27.0346 156.914 26.9493 156.656 26.7788C156.397 26.6079 156.219 26.3655 156.121 26.0504C156.023 25.7354 155.974 25.358 155.974 24.9192V20.6721H157.089V25.0504C157.089 25.2468 157.102 25.4314 157.128 25.6045C157.154 25.7776 157.214 25.9174 157.31 26.023C157.406 26.1287 157.549 26.1817 157.74 26.1817C157.942 26.1817 158.088 26.1287 158.178 26.023C158.268 25.917 158.328 25.7776 158.357 25.6045C158.385 25.4314 158.399 25.2468 158.399 25.0504V20.6721H159.508V24.9188C159.508 25.358 159.458 25.7354 159.36 26.0501C159.262 26.3655 159.085 26.6079 158.829 26.7784C158.574 26.9493 158.211 27.0346 157.741 27.0346Z" fill="#BABABA"/>
<path d="M160.407 26.9493V20.6721H163.042V21.4779H161.554V23.2834H162.724V24.0815H161.554V26.1587H163.058V26.9489L160.407 26.9493Z" fill="#BABABA"/>
<path d="M165.306 27.0346C164.928 27.0346 164.613 26.9608 164.36 26.8136C164.107 26.6665 163.915 26.4508 163.787 26.1668C163.657 25.8825 163.585 25.5341 163.569 25.1208L164.553 24.927C164.564 25.1697 164.593 25.384 164.643 25.5701C164.692 25.7558 164.767 25.8992 164.868 26C164.969 26.1009 165.101 26.1513 165.267 26.1513C165.453 26.1513 165.585 26.0957 165.662 25.9845C165.74 25.8736 165.779 25.7324 165.779 25.5619C165.779 25.288 165.717 25.0637 165.592 24.8877C165.468 24.712 165.303 24.5366 165.096 24.3606L164.306 23.6634C164.083 23.4721 163.907 23.259 163.775 23.024C163.643 22.7889 163.577 22.4983 163.577 22.1521C163.577 21.6562 163.722 21.274 164.011 21.0053C164.3 20.7366 164.696 20.6024 165.197 20.6024C165.492 20.6024 165.737 20.6476 165.933 20.7381C166.13 20.8285 166.286 20.9538 166.402 21.1139C166.518 21.274 166.605 21.4564 166.662 21.6603C166.719 21.8645 166.755 22.0802 166.77 22.3075L165.794 22.478C165.783 22.2819 165.762 22.1062 165.728 21.9509C165.694 21.7959 165.635 21.6747 165.55 21.5869C165.464 21.4994 165.339 21.4553 165.174 21.4553C165.003 21.4553 164.873 21.5109 164.783 21.6221C164.692 21.7333 164.647 21.8712 164.647 22.0365C164.647 22.2485 164.691 22.4227 164.778 22.5595C164.866 22.6967 164.993 22.8371 165.158 22.9817L165.941 23.6711C166.199 23.888 166.42 24.1426 166.604 24.4347C166.787 24.7264 166.879 25.0793 166.879 25.4926C166.879 25.7921 166.813 26.0582 166.681 26.2906C166.549 26.523 166.366 26.705 166.131 26.837C165.896 26.969 165.621 27.0346 165.306 27.0346Z" fill="#BABABA"/>
<path d="M168.18 26.9493V21.5168H167.181V20.6721H170.312V21.5168H169.328V26.9493H168.18Z" fill="#BABABA"/>
</svg>
