<svg width="18" height="18" viewBox="0 0 18 18" fill="none" xmlns="http://www.w3.org/2000/svg">
<g clip-path="url(#clip0_4144_5571)">
<path fill-rule="evenodd" clip-rule="evenodd" d="M8.94678 16.9856C7.72401 16.9856 6.57296 16.5115 5.70889 15.6505C4.83859 14.7865 4.36133 13.6323 4.36133 12.4002C4.36133 9.88912 6.41697 7.84592 8.94678 7.84592C11.4766 7.84592 13.5322 9.88907 13.5322 12.4002C13.5322 13.6323 13.055 14.7865 12.1847 15.6505C11.3206 16.5115 10.1696 16.9856 8.94678 16.9856ZM8.94678 15.8314C8.02969 15.8314 7.16562 15.4758 6.51994 14.827C5.87111 14.1813 5.5155 13.3173 5.5155 12.4002C5.5155 10.5254 7.05335 9.0001 8.94679 9.0001C10.8402 9.0001 12.3781 10.5255 12.3781 12.4002C12.3781 13.3173 12.0225 14.1813 11.3736 14.827C10.728 15.4758 9.86387 15.8314 8.94678 15.8314Z" fill="#7A869A" stroke="#7A869A" stroke-width="0.4"/>
<path fill-rule="evenodd" clip-rule="evenodd" d="M6.03117 8.33835L2.91979 2.96414C2.88236 2.90176 2.87923 2.82377 2.91356 2.75826L3.72458 1.13618C3.76515 1.06132 3.84001 1.01453 3.92423 1.01453H13.9686C14.0528 1.01453 14.1276 1.06132 14.1651 1.13618L14.9761 2.75826C15.0104 2.82376 15.0073 2.90176 14.9699 2.96414L11.8594 8.33673C11.4455 8.04305 10.9852 7.81028 10.4923 7.65134L13.2854 2.83933C13.3229 2.77069 13.3229 2.6896 13.2854 2.62096C13.2449 2.55236 13.1731 2.5118 13.0951 2.5118H4.79767C4.71967 2.5118 4.64794 2.55232 4.60738 2.62096C4.56994 2.6896 4.56994 2.77069 4.60738 2.83933L7.37726 7.65892C6.89226 7.8179 6.4392 8.04855 6.03117 8.33835Z" fill="#7A869A" stroke="#7A869A" stroke-width="0.4"/>
</g>
<defs>
<clipPath id="clip0_4144_5571">
<rect width="18" height="18" fill="white"/>
</clipPath>
</defs>
</svg>
