<svg width="18" height="18" viewBox="0 0 18 18" fill="none" xmlns="http://www.w3.org/2000/svg">
<g clip-path="url(#clip0_4144_5588)">
<path d="M8.5498 0.549316C4.98908 0.553288 2.10358 3.43879 2.09961 6.99951C2.09961 10.477 8.08847 17.0091 8.34372 17.2857C8.39671 17.3432 8.47148 17.3759 8.5498 17.3759C8.62813 17.3759 8.70276 17.3432 8.75589 17.2857C9.01114 17.0091 15 10.477 15 6.99951C14.996 3.43879 12.1105 0.553288 8.5498 0.549316ZM8.5498 16.6767C7.48418 15.4826 2.6605 9.91363 2.6605 6.99951C2.6605 3.74689 5.29718 1.1102 8.5498 1.1102C11.8024 1.1102 14.4391 3.74689 14.4391 6.99951C14.4391 9.91363 9.61543 15.4826 8.5498 16.6767Z" fill="#7A869A" stroke="#7A869A"/>
<path d="M8.55036 4.47546C7.15636 4.47546 6.02637 5.60545 6.02637 6.99945C6.02637 8.39345 7.15636 9.52344 8.55036 9.52344C9.94436 9.52344 11.0743 8.39345 11.0743 6.99945C11.0728 5.60614 9.94367 4.47697 8.55036 4.47546ZM8.55036 8.96256C7.4661 8.96256 6.58725 8.08371 6.58725 6.99945C6.58725 5.9152 7.4661 5.03635 8.55036 5.03635C9.63447 5.03635 10.5135 5.9152 10.5135 6.99945C10.5122 8.08316 9.63406 8.96132 8.55036 8.96256Z" fill="#807A7A" stroke="#7A869A" stroke-width="0.5"/>
</g>
<defs>
<clipPath id="clip0_4144_5588">
<rect width="18" height="18" fill="white"/>
</clipPath>
</defs>
</svg>
