<svg width="60" height="79" viewBox="0 0 60 79" fill="none" xmlns="http://www.w3.org/2000/svg">
<path d="M51.4998 43.6L59.6998 32.7L33.3998 24.9C33.0998 24.8 32.7998 24.6 32.6998 24.2C32.5998 23.9 32.5998 23.5 32.8998 23.3L50.1998 0H34.4998L22.6998 15.7C19.9998 19.3 19.2998 24 20.6998 28.3C22.0998 32.6 25.4998 35.9 29.8998 37.2L51.4998 43.6Z" fill="#8B9B74"/>
<path d="M8.2 34.5L0 45.4L26.3 53.2C26.6 53.3 26.9 53.5 27 53.9C27.1 54.2 27.1 54.6 26.8 54.8L9.5 78.1H25.4L37.1 62.4C39.8 58.8 40.5 54.1 39.1 49.8C37.7 45.5 34.3 42.2 29.9 40.9L8.2 34.5Z" fill="#8B9B74"/>
</svg>
