<svg width="146" height="145" viewBox="0 0 146 145" fill="none" xmlns="http://www.w3.org/2000/svg">
<path d="M94.2997 43.6L102.5 32.7L76.1996 24.9C75.8996 24.8 75.5996 24.6 75.4996 24.2C75.3996 23.9 75.3996 23.5 75.6996 23.3L92.9996 0H77.2997L65.4996 15.7C62.7996 19.3 62.0996 24 63.4996 28.3C64.8996 32.6 68.2996 35.9 72.6996 37.2L94.2997 43.6Z" fill="#8B9B74"/>
<path d="M50.9998 34.5L42.7998 45.4L69.0998 53.2C69.3998 53.3 69.6998 53.5 69.7998 53.9C69.8998 54.2 69.8998 54.6 69.5998 54.8L52.2998 78.1H68.1998L79.8998 62.4C82.5998 58.8 83.2998 54.1 81.8998 49.8C80.4998 45.5 77.0998 42.2 72.6998 40.9L50.9998 34.5Z" fill="#8B9B74"/>
<path d="M34 127.3C34 127.4 34 127.5 34 127.6V140C34 142.2 32.3 144.1 30.2 144.1C28.1 144.1 26.5 142.5 26.3 140.4C23.7 142.6 20.6 144.2 17 144.2C7.6 144.2 0 136.6 0 127.2C0 117.9 7.6 110.2 17 110.2C26.4 110.2 34 117.9 34 127.2V127.3ZM25.6 127.1C25.6 122.4 21.7 118.4 16.9 118.4C12.2 118.4 8.2 122.3 8.2 127.1C8.2 131.9 12.1 135.8 16.9 135.8C21.7 135.8 25.6 131.8 25.6 127.1Z" fill="white"/>
<path d="M38 127C38 117.5 45.7 109.8 55.2 109.8C59.1 109.8 62.7 111 65.7 113.4C67.6 114.9 68 117.5 66.5 119.3C65.1 121.1 62.4 121.4 60.6 120C59.1 118.9 57.2 118.2 55.2 118.2C50.4 118.2 46.5 122.1 46.5 126.9C46.5 131.7 50.4 135.6 55.2 135.6C57.2 135.6 59.1 135 60.6 133.8C62.5 132.4 65 132.7 66.5 134.5C67.9 136.3 67.6 139 65.7 140.4C62.7 142.8 59 144 55.2 144C45.7 144.1 38 136.5 38 127Z" fill="white"/>
<path d="M94.8999 139.7C94.8999 142.1 92.9999 143.9 90.7999 143.9H89.7999C82.0999 143.9 75.6999 138.8 75.6999 126.7V117.8H72.7999C70.5999 117.8 68.8999 116.1 68.8999 113.9C68.8999 112.8 69.2999 111.8 69.9999 111.1C70.6999 110.4 71.6999 110 72.7999 110H75.6999V97.9C75.6999 95.6 77.5999 93.7 79.8999 93.7C82.2999 93.7 84.0999 95.6 84.0999 97.9V110H87.3999C89.4999 110 91.2999 111.7 91.2999 113.9C91.2999 116 89.5999 117.8 87.3999 117.8H84.0999V126.7C84.0999 131.1 84.1999 135.4 89.7999 135.4L90.7999 135.5C92.9999 135.6 94.8999 137.4 94.8999 139.7Z" fill="white"/>
<path d="M101.3 101.7C101.3 99.1 103.4 97.1 105.9 97.1C108.5 97.1 110.5 99.1 110.5 101.7C110.5 104.2 108.4 106.4 105.9 106.4C103.4 106.4 101.3 104.2 101.3 101.7ZM101.8 139.7V114.2C101.8 111.9 103.7 110 105.9 110C108.3 110 110.2 111.9 110.2 114.2V139.7C110.2 142.1 108.3 143.9 105.9 143.9C103.6 143.9 101.8 142.1 101.8 139.7Z" fill="white"/>
<path d="M126.1 141.4L115.4 115.8C114.5 113.7 115.5 111.2 117.7 110.3C119.8 109.4 122.3 110.4 123.2 112.6L130.1 128.9L137.2 112.5C138.1 110.4 140.6 109.4 142.8 110.3C144.9 111.2 145.9 113.7 145 115.9L133.9 141.4C133.3 143 131.8 144 130 144C128.3 143.9 126.8 142.9 126.1 141.4Z" fill="white"/>
</svg>
