<svg xmlns="http://www.w3.org/2000/svg" fill="none" viewBox="0 43.6 151 174.4" style="max-height: 500px" width="151" height="174.4">
<g clip-path="url(#clip0_3933_1931)">
<path fill="#EA9D7D" d="M69.4476 134.324L57.0513 174.733L53.415 184.134C53.415 184.134 58.7041 190.896 71.2657 193.535C79.8604 195.349 85.6454 195.514 89.4469 195.184C92.5873 194.854 96.3888 194.195 94.4054 188.422C91.5956 179.845 92.5873 174.403 92.5873 174.403L97.0499 150.157L69.4476 134.324Z" data-darkreader-inline-fill="" style="--darkreader-inline-fill: var(--darkreader-background-ea9d7d, #7a3214);"/>
<path fill="url(#paint0_linear_3933_1931)" d="M67.6304 156.095C71.6618 161.768 76.9871 166.404 83.167 169.62C88.9519 172.423 93.084 173.083 93.084 173.083L96.8855 152.961L69.7791 134.324L68.2915 137.128L67.1345 141.746C66.6387 141.746 63.8289 150.322 67.6304 156.095Z"/>
<path fill="#CF7653" d="M54.4077 184.299H54.2424C53.9118 184.134 53.7466 183.804 53.7466 183.475L61.5149 159.724C63.0024 154.776 67.465 138.118 67.465 138.118C67.6303 137.788 67.9609 137.623 68.2914 137.623C68.622 137.788 68.7873 138.118 68.7873 138.448L62.8371 160.054C61.5149 164.507 55.0688 183.639 55.0688 183.639C55.0688 184.134 54.7383 184.299 54.4077 184.299Z" data-darkreader-inline-fill="" style="--darkreader-inline-fill: var(--darkreader-background-cf7653, #8f4528);"/>
<path fill="#A84D3B" d="M74.0762 143.89L74.4068 144.715L75.0679 143.89H74.0762Z" data-darkreader-inline-fill="" style="--darkreader-inline-fill: var(--darkreader-text-a84d3b, #c87464);"/>
<path fill="#A84D3B" d="M74.0767 142.735L73.7461 144.219L75.3989 144.054L74.0767 142.735ZM83.002 149.167V150.982L84.8201 150.157L83.002 149.167ZM78.5393 146.364L78.2087 148.013L80.1922 147.518L78.5393 146.364ZM76.0601 144.549L75.7295 146.199L77.7129 145.704L76.0601 144.549Z" data-darkreader-inline-fill="" style="--darkreader-inline-fill: var(--darkreader-text-a84d3b, #c87464);"/>
<path fill="#A84D3B" d="M73.0842 141.25L72.2578 142.9H74.2412L73.0842 141.25ZM85.3152 152.961L84.6541 151.971L83.9929 153.291L85.3152 152.961ZM83.1665 151.147L82.1748 149.992L81.679 151.311L83.1665 151.147ZM89.9431 154.775L88.7862 153.456L88.2903 154.94L89.9431 154.775ZM94.7363 156.424L93.7447 155.27L93.2488 156.589L94.7363 156.424ZM86.1416 150.652L84.9846 150.157V151.476L86.1416 150.652ZM88.4556 155.765L87.6292 154.775L86.968 156.095L88.4556 155.765ZM82.0095 149.002L80.8525 148.508V149.827L82.0095 149.002Z" data-darkreader-inline-fill="" style="--darkreader-inline-fill: var(--darkreader-background-a84d3b, #863e2f);"/>
<path fill="#A84D3B" d="M90.605 152.466L89.1174 151.807V153.951L90.605 152.466ZM93.9106 153.126L92.5884 152.796L92.919 154.446L93.9106 153.126ZM95.8941 155.765L94.7371 155.6L95.2329 156.92L95.8941 155.765ZM91.4314 155.27L90.7703 154.281L89.9439 155.435L91.4314 155.27ZM95.3982 159.064L95.5635 157.909L94.2412 158.404L95.3982 159.064ZM94.9024 161.373L95.2329 160.218L93.9106 160.548L94.9024 161.373ZM92.0925 161.373L91.4314 161.868L92.4231 162.362L92.0925 161.373ZM92.7537 154.94L92.0925 155.435L92.919 155.93L92.7537 154.94ZM96.3899 153.786L95.5635 153.621L95.7288 154.611L96.3899 153.786ZM93.4148 163.187L92.7537 163.847L93.5801 164.177L93.4148 163.187ZM76.8865 146.034L76.2253 146.529L77.2171 147.024L76.8865 146.034ZM71.4321 138.447L70.771 139.107L71.5974 139.437L71.4321 138.447ZM88.1257 154.116L87.6299 153.621L87.2993 154.446L88.1257 154.116ZM83.3325 152.796L83.6631 151.972L82.8367 152.137L83.3325 152.796ZM85.8118 154.281L85.9771 153.621H85.1507L85.8118 154.281ZM89.2827 157.414L89.6133 158.239L90.2744 157.579L89.2827 157.414ZM94.0759 154.281L93.4148 154.611L94.2412 155.105L94.0759 154.281Z" data-darkreader-inline-fill="" style="--darkreader-inline-fill: var(--darkreader-background-a84d3b, #863e2f);"/>
<path fill="#A84D3B" d="M94.4058 153.291L93.4141 153.951L94.5711 154.611L94.4058 153.291ZM92.2571 154.116L91.596 154.446L92.4224 154.941L92.2571 154.116ZM92.9183 165.826L92.2571 166.156L93.0835 166.651L92.9183 165.826ZM91.2654 163.847L91.4307 164.507L92.0918 164.012L91.2654 163.847ZM91.1001 159.889L91.2654 160.549L91.9265 160.054L91.1001 159.889ZM94.2405 161.538L93.7447 161.043L93.4141 161.868L94.2405 161.538ZM71.2661 153.786L71.5967 154.116L71.9273 153.456L71.2661 153.786ZM74.2412 151.642L73.9107 151.972L74.5718 152.137L74.2412 151.642ZM77.7122 157.58L77.2163 157.415V157.91L77.7122 157.58ZM76.0593 154.776L75.7288 155.271H76.3899L76.0593 154.776ZM87.2986 160.054V160.878L88.2903 160.549L87.2986 160.054ZM85.8111 152.467V153.291L86.8028 152.962L85.8111 152.467ZM85.9764 150.817V151.807L86.8028 151.312L85.9764 150.817ZM73.0842 145.869V146.694L74.0759 146.364L73.0842 145.869ZM92.9183 157.91L92.2571 158.075L92.753 158.734L92.9183 157.91ZM90.439 164.672L90.1084 164.012L89.6126 164.672H90.439ZM91.1001 156.095L91.4307 156.92L92.0918 156.095H91.1001ZM93.5794 157.085L94.0752 157.91L94.7364 157.085H93.5794ZM95.3975 154.116L94.9016 154.611L95.7281 154.941L95.3975 154.116ZM94.4058 159.229L93.7447 158.899V159.724L94.4058 159.229ZM75.7288 144.715L74.7371 145.375L75.8941 146.034L75.7288 144.715ZM72.4231 145.869L71.9273 145.54L71.762 146.199L72.4231 145.869ZM69.1174 144.22L68.6216 143.89L68.4563 144.55L69.1174 144.22ZM68.1257 149.333L68.291 148.838H67.6299L68.1257 149.333Z" data-darkreader-inline-fill="" style="--darkreader-inline-fill: var(--darkreader-background-a84d3b, #863e2f);"/>
<path fill="#A84D3B" d="M74.572 145.704L74.9026 146.364L75.3985 145.704H74.572ZM72.5886 144.055L72.9192 145.209L73.9109 144.22L72.5886 144.055ZM72.0928 139.601L71.5969 140.591L72.9192 140.756L72.0928 139.601ZM77.2166 147.683L76.7207 148.013L77.3819 148.343L77.2166 147.683ZM78.3736 147.023L77.8777 147.353L78.5389 147.683L78.3736 147.023ZM79.6958 147.683L79.2 148.013L79.8611 148.343L79.6958 147.683ZM77.3819 151.971L76.886 151.642L76.7207 152.301L77.3819 151.971ZM67.4648 146.364L67.7954 147.023L68.2913 146.364H67.4648ZM71.1011 142.57L70.7705 143.065L71.2664 143.23L71.1011 142.57ZM70.9358 148.838L70.44 148.508V149.168L70.9358 148.838ZM71.5969 141.91L71.9275 142.57L72.4234 141.91H71.5969ZM73.0845 142.9L73.4151 143.56L73.9109 142.9H73.0845ZM69.283 141.086L68.9524 141.581L69.4483 141.91L69.283 141.086ZM69.9441 139.436L69.4483 139.107L69.283 139.931L69.9441 139.436ZM78.7041 148.508V149.332L79.3653 149.003L78.7041 148.508ZM81.6792 149.992L81.1834 150.157L81.5139 150.652L81.6792 149.992ZM80.357 148.673L79.8611 148.838L80.1917 149.332L80.357 148.673ZM91.431 153.621L90.9351 153.786L91.2657 154.28L91.431 153.621ZM89.117 152.466L88.4559 152.631L88.9517 153.126L89.117 152.466ZM81.3487 153.786L81.0181 153.126L80.5223 153.786H81.3487ZM90.6045 161.867L90.274 161.373L89.7781 161.867H90.6045ZM80.357 151.971L80.0264 151.477L79.6958 151.971H80.357ZM84.6544 151.147V151.806L85.4808 151.477L84.6544 151.147ZM87.4642 151.642V152.466L88.1253 152.136L87.4642 151.642ZM90.274 153.126L89.7781 153.291L90.1087 153.951L90.274 153.126ZM88.1253 156.59L87.7947 156.095L87.4642 156.59H88.1253ZM80.8528 156.425V157.084L81.6792 156.755L80.8528 156.425ZM84.1585 154.61L83.4974 154.775L83.9932 155.27L84.1585 154.61ZM89.7781 155.93L89.4476 155.435L89.117 155.93H89.7781Z" data-darkreader-inline-fill="" style="--darkreader-inline-fill: var(--darkreader-background-a84d3b, #863e2f);"/>
<path fill="#EA9D7D" d="M109.612 94.74C109.612 94.74 114.405 102.492 115.231 106.12C115.894 108.763 116.227 111.478 116.223 114.202C116.223 121.129 115.727 130.861 114.901 136.303C113.248 145.705 108.785 151.312 103.496 152.962C98.2073 154.611 88.6209 151.147 82.1748 147.849C76.7205 145.045 73.5801 142.076 72.7537 138.612C71.9272 134.984 70.2744 130.366 70.2744 130.366L70.605 119.645L83.3318 92.5958L109.612 94.74Z" data-darkreader-inline-fill="" style="--darkreader-inline-fill: var(--darkreader-background-ea9d7d, #7a3214);"/>
<path fill="url(#paint1_linear_3933_1931)" d="M76.8858 124.593C76.8858 124.593 86.4722 113.872 92.5877 111.563C104.323 106.78 115.727 107.275 115.727 107.275L113.909 101.502L80.522 97.0491L73.2495 117.831L76.8858 124.593Z"/>
<path fill="#EA9D7D" d="M66.8035 137.953C71.6415 137.953 75.5635 133.744 75.5635 128.551C75.5635 123.359 71.6415 119.15 66.8035 119.15C61.9655 119.15 58.0435 123.359 58.0435 128.551C58.0435 133.744 61.9655 137.953 66.8035 137.953Z" data-darkreader-inline-fill="" style="--darkreader-inline-fill: var(--darkreader-background-ea9d7d, #7a3214);"/>
<path fill="#B76349" d="M66.8032 138.613C61.5142 138.613 57.2168 133.994 57.2168 128.552C57.2168 122.944 61.5142 118.491 66.8032 118.491C72.0923 118.491 76.3897 123.109 76.3897 128.552C76.3897 133.994 72.0923 138.613 66.8032 138.613ZM66.8032 119.81C62.3406 119.81 58.7044 123.768 58.7044 128.552C58.7044 133.335 62.3406 137.293 66.8032 137.293C71.2659 137.293 74.9021 133.335 74.9021 128.552C74.9021 123.604 71.2659 119.81 66.8032 119.81Z" data-darkreader-inline-fill="" style="--darkreader-inline-fill: var(--darkreader-background-b76349, #924e3a);"/>
<path fill="url(#paint2_linear_3933_1931)" d="M67.1333 132.675C69.3241 132.675 71.1001 130.829 71.1001 128.551C71.1001 126.274 69.3241 124.428 67.1333 124.428C64.9425 124.428 63.1665 126.274 63.1665 128.551C63.1665 130.829 64.9425 132.675 67.1333 132.675Z"/>
<path fill="#EA9D7D" d="M76.3896 122.614L73.5798 125.088L72.4229 134.324L72.9187 136.963C72.9187 136.963 76.8855 134.819 77.2161 130.531C77.5466 126.243 76.3896 122.614 76.3896 122.614Z" data-darkreader-inline-fill="" style="--darkreader-inline-fill: var(--darkreader-background-ea9d7d, #7a3214);"/>
<path fill="#B76349" d="M98.0416 153.621C96.2235 153.621 94.7359 153.292 91.4302 152.467C85.3259 150.677 79.6857 147.581 74.9019 143.395C71.2656 139.767 71.5962 136.303 71.5962 136.138C71.5962 135.809 71.5962 135.314 71.9268 135.314C72.2574 135.314 72.4226 135.644 72.5879 135.973C72.7532 136.633 72.7532 139.437 75.7283 142.406C80.3285 146.421 85.7398 149.402 91.5955 151.147C96.7193 152.302 97.711 152.632 101.513 152.302C105.149 151.972 107.297 150.488 107.297 150.488C107.793 150.158 108.289 149.993 107.959 150.488C107.628 150.818 104.984 152.962 101.678 153.456C100.19 153.621 99.1986 153.621 98.0416 153.621Z" data-darkreader-inline-fill="" style="--darkreader-inline-fill: var(--darkreader-background-b76349, #924e3a);"/>
<path fill="#F4B9A6" d="M98.7029 128.716L99.8599 127.727L98.3724 127.232L98.7029 128.716ZM84.158 128.057L83.8274 127.232L83.001 128.057H84.158ZM103.331 129.706L104.984 130.696L105.149 128.716L103.331 129.706ZM99.0335 121.294L101.182 122.614L101.513 119.975L99.0335 121.294Z" data-darkreader-inline-fill="" style="--darkreader-inline-fill: var(--darkreader-background-f4b9a6, #63210c);"/>
<path fill="#F4B9A6" d="M99.0335 119.975L101.182 118.656L99.0335 117.006V119.975ZM103.992 134.654L106.141 133.335L103.992 131.85V134.654ZM106.141 132.015L106.967 129.706H104.157L106.141 132.015ZM98.2071 127.232L96.8848 127.562L97.7112 128.717L98.2071 127.232ZM99.1988 125.418L97.7112 125.748L98.7029 126.902L99.1988 125.418ZM98.8682 132.51L99.364 133.83L100.521 132.675L98.8682 132.51ZM99.5293 134.984L100.686 135.644L101.017 134.324L99.5293 134.984ZM106.306 138.942L104.984 139.437L105.975 140.592L106.306 138.942ZM100.852 110.739L100.356 111.893L101.843 111.728L100.852 110.739ZM102.174 118.985L101.017 118.821L101.513 119.975L102.174 118.985ZM103.331 114.862L102.174 114.697L102.504 115.852L103.331 114.862ZM93.7444 117.171L93.5791 118.656L95.0667 117.996L93.7444 117.171ZM96.8848 114.862L95.7278 115.687L97.0501 116.511L96.8848 114.862ZM91.4304 116.841H90.604L91.0999 117.666L91.4304 116.841ZM103.992 139.107L102.835 139.437L103.661 140.262L103.992 139.107ZM102.67 138.283L101.513 138.613L102.339 139.602L102.67 138.283ZM92.7527 131.026L91.5957 131.191L92.2568 132.345L92.7527 131.026ZM95.5625 133.17L94.4055 133.5L95.0667 134.489L95.5625 133.17ZM91.761 127.397L91.5957 128.387L92.918 128.057L91.761 127.397ZM97.7112 126.078L97.2153 125.088L96.3889 126.078H97.7112ZM109.777 135.644L110.438 134.984L109.281 134.819L109.777 135.644ZM105.149 132.345L105.81 132.51V131.685L105.149 132.345ZM112.587 124.758V125.418L113.248 125.088L112.587 124.758ZM109.116 128.387L109.942 128.552L109.612 127.727L109.116 128.387Z" data-darkreader-inline-fill="" style="--darkreader-inline-fill: var(--darkreader-background-f4b9a6, #63210c);"/>
<path fill="#F4B9A6" d="M112.917 125.913L113.082 125.254L112.256 125.419L112.917 125.913ZM88.7854 119.646L88.2896 120.471H89.2813L88.7854 119.646ZM99.5288 114.368L101.016 114.038L99.8594 112.884L99.5288 114.368ZM101.016 131.356L103.992 130.532L101.512 128.057L101.016 131.356ZM98.7024 120.141L97.5454 119.976L97.7107 121.13L98.7024 120.141ZM90.1077 128.057V127.068L88.7854 127.563L90.1077 128.057ZM96.719 116.842L96.8843 118.326L98.2066 117.337L96.719 116.842ZM94.9009 119.316L95.0662 120.635L96.3884 119.976L94.9009 119.316ZM96.3884 118.326L96.5537 119.811L97.876 118.986L96.3884 118.326ZM108.785 116.842L109.942 117.337V116.017L108.785 116.842ZM98.8677 123.934L98.2066 123.109L97.3802 124.264L98.8677 123.934ZM104.487 137.624L103.33 137.954L104.157 138.943L104.487 137.624ZM99.3636 130.532L99.033 131.356H100.19L99.3636 130.532ZM100.521 136.304L100.025 135.48L99.5288 136.469L100.521 136.304ZM102.173 137.129L102.835 136.469L101.843 136.139L102.173 137.129ZM102.669 134.985L103.496 134.325L102.339 133.83L102.669 134.985Z" data-darkreader-inline-fill="" style="--darkreader-inline-fill: var(--darkreader-background-f4b9a6, #63210c);"/>
<path fill="#F4B9A6" d="M102.505 133.83L103.497 133.005L102.174 132.51L102.505 133.83ZM101.844 128.717L102.67 128.057L101.513 127.562L101.844 128.717ZM99.5298 129.211L100.356 129.706L100.687 128.882L99.5298 129.211ZM109.447 136.963L108.455 137.128L109.116 137.953L109.447 136.963ZM104.158 127.727L103.827 128.552L104.984 128.387L104.158 127.727ZM106.802 137.788L106.141 136.963L105.645 137.953L106.802 137.788ZM101.017 141.087L101.183 142.241L102.174 141.417L101.017 141.087ZM98.0422 135.809L97.2158 136.139L98.0422 136.798V135.809ZM87.7947 124.758L87.1336 123.934L86.6377 125.088L87.7947 124.758ZM98.8686 138.118L99.5298 138.448L99.6951 137.458L98.8686 138.118ZM95.8936 136.469L96.5547 136.798L96.72 135.644L95.8936 136.469ZM90.6045 137.623L90.2739 138.613L91.4309 138.448L90.6045 137.623ZM94.2407 141.252H93.249L93.5796 142.241L94.2407 141.252ZM90.7698 142.571L89.9434 142.406L90.1087 143.396L90.7698 142.571ZM100.191 127.067L102.174 126.573L100.521 124.923L100.191 127.067ZM98.7034 122.449L99.1992 123.274L99.8604 122.449H98.7034ZM98.8686 124.263L99.8604 125.748L101.183 123.934L98.8686 124.263ZM104.488 120.965L103.166 122.119L105.149 122.779L104.488 120.965ZM92.2573 124.263V123.274L91.2656 123.769L92.2573 124.263ZM102.67 123.439L102.009 124.099L103.001 124.428L102.67 123.439ZM98.8686 117.666L100.026 117.501L99.1992 116.512L98.8686 117.666ZM106.306 120.305L107.463 119.975L106.472 118.986L106.306 120.305ZM98.2075 120.305L99.5298 119.975L98.5381 119.15L98.2075 120.305ZM106.472 114.862L107.629 114.532L106.802 113.543L106.472 114.862ZM102.505 112.223L101.678 112.883L102.835 113.213L102.505 112.223ZM93.4143 115.687V114.697L92.4226 115.192L93.4143 115.687ZM94.7366 130.201L94.5713 131.521L96.0588 131.026L94.7366 130.201ZM92.9185 129.706L91.7615 129.871L92.4226 130.861L92.9185 129.706ZM95.3977 134.654L95.2324 135.974L96.5547 135.479L95.3977 134.654ZM97.0505 129.871V131.191L98.5381 130.366L97.0505 129.871ZM95.8936 132.345L96.0588 133.665L97.3811 132.84L95.8936 132.345ZM94.406 128.717V127.727L93.4143 128.222L94.406 128.717Z" data-darkreader-inline-fill="" style="--darkreader-inline-fill: var(--darkreader-background-f4b9a6, #63210c);"/>
<path fill="#F4B9A6" d="M109.116 120.8L110.273 120.47L109.281 119.48L109.116 120.8ZM104.818 117.006L105.314 117.666L105.975 116.841L104.818 117.006ZM113.413 130.201L114.405 129.706L113.578 129.046L113.413 130.201ZM95.5625 115.522V114.532L94.5708 115.027L95.5625 115.522ZM102.504 117.501V118.656L103.827 118.326L102.504 117.501ZM101.182 115.357L101.017 116.511L102.339 116.017L101.182 115.357ZM102.009 126.407L103.992 127.727L104.653 125.253L102.009 126.407ZM106.802 126.407L108.95 125.748L107.463 123.769L106.802 126.407ZM101.513 127.562L102.174 127.727L102.009 126.902L101.513 127.562ZM100.521 122.944L100.19 123.769H101.347L100.521 122.944ZM102.504 120.47L101.347 120.635L102.009 121.624L102.504 120.47ZM106.141 120.965L104.984 121.13L105.645 122.119L106.141 120.965Z" data-darkreader-inline-fill="" style="--darkreader-inline-fill: var(--darkreader-background-f4b9a6, #63210c);"/>
<path fill="#F4B9A6" d="M101.677 122.614L104.156 121.295L101.512 119.645L101.677 122.614ZM105.313 113.213L105.975 111.893H104.322L105.313 113.213ZM103.495 132.015L103.991 130.861H102.504L103.495 132.015ZM101.347 125.748L103.495 124.593L101.181 123.109L101.347 125.748ZM102.669 116.017L103.495 116.676L103.826 115.687L102.669 116.017ZM105.313 117.831L104.156 119.645L106.636 119.81L105.313 117.831ZM106.966 115.522L106.47 116.182L107.627 116.347L106.966 115.522ZM108.123 122.614L108.784 123.274L109.115 122.284L108.123 122.614ZM104.983 114.532L104.487 115.192L105.644 115.357L104.983 114.532ZM90.2727 124.263L89.1157 124.593L90.1074 125.583L90.2727 124.263ZM91.9255 119.315L91.4297 120.305H92.7519L91.9255 119.315ZM94.4048 119.315L94.2395 118.326L93.4131 119.15L94.4048 119.315ZM93.0825 124.593L92.9172 123.604L91.9255 124.428L93.0825 124.593Z" data-darkreader-inline-fill="" style="--darkreader-inline-fill: var(--darkreader-background-f4b9a6, #63210c);"/>
<path fill="#A84D3B" d="M97.7107 104.471L97.5454 105.296H98.2066L97.7107 104.471ZM98.0413 106.615L97.5454 105.956L97.3801 106.78L98.0413 106.615ZM104.487 105.461L103.991 104.966L103.661 105.626L104.487 105.461ZM110.107 103.976L110.603 104.471L110.933 103.647L110.107 103.976ZM113.082 103.152L113.578 103.647L113.743 102.822L113.082 103.152ZM112.09 104.141L112.752 103.976L112.256 103.317L112.09 104.141ZM99.6941 105.461L99.1983 104.966L98.8677 105.626L99.6941 105.461ZM107.462 104.966L106.801 104.471L106.636 105.296L107.462 104.966ZM96.719 105.791L96.2232 105.131L95.8926 105.956L96.719 105.791ZM81.3477 98.6986V100.513L83.0005 99.5233L81.3477 98.6986ZM91.5952 103.152L91.2647 103.976L92.2563 103.812L91.5952 103.152ZM84.8186 100.678V101.502L85.645 101.173L84.8186 100.678ZM84.488 103.812L84.3228 104.636L85.3144 104.306L84.488 103.812ZM85.3144 105.626L85.4797 106.615L86.3062 105.956L85.3144 105.626ZM93.2481 104.306L92.5869 103.812L92.2563 104.471L93.2481 104.306ZM93.7439 103.647L93.9092 104.801L95.0662 103.976L93.7439 103.647Z" data-darkreader-inline-fill="" style="--darkreader-inline-fill: var(--darkreader-background-a84d3b, #863e2f);"/>
<path fill="#A84D3B" d="M102.504 104.636L103 105.296L103.661 104.472L102.504 104.636ZM96.3882 104.307L96.8841 105.131L97.5452 104.307H96.3882ZM87.1323 102.657L87.4629 103.977L88.6199 102.987L87.1323 102.657ZM104.983 104.472L105.479 105.296L106.14 104.307L104.983 104.472ZM99.8592 104.472L100.19 105.626L101.347 104.801L99.8592 104.472ZM89.6116 103.647L89.9422 104.307L90.6033 103.812L89.6116 103.647ZM86.6365 106.616L86.4712 107.44L87.2976 107.111L86.6365 106.616ZM85.8101 107.275L85.6448 107.935L86.4712 107.77L85.8101 107.275ZM91.595 104.142L91.9256 104.472L92.0909 104.142H91.595ZM95.2312 104.636L95.5618 104.966L95.8924 104.472L95.2312 104.636ZM101.512 105.131L101.677 105.461L102.008 105.131H101.512ZM84.9836 107.77L84.4878 107.935L84.8184 108.265L84.9836 107.77ZM85.4795 101.008L85.6448 102.162L86.967 101.503L85.4795 101.008ZM85.3142 106.946L84.6531 107.111L85.1489 107.605L85.3142 106.946Z" data-darkreader-inline-fill="" style="--darkreader-inline-fill: var(--darkreader-background-a84d3b, #863e2f);"/>
<path fill="#A84D3B" d="M84.8188 107.11L84.6536 106.285L83.8272 106.945L84.8188 107.11ZM85.6453 102.162L86.3064 102.492V101.667L85.6453 102.162ZM90.4385 103.481L91.0996 103.646L90.9343 102.822L90.4385 103.481ZM83.9924 101.502V101.997L84.6536 101.832L83.9924 101.502ZM85.48 103.481L86.1411 103.646L85.9759 102.822L85.48 103.481ZM85.3147 109.419V109.914L85.8106 109.749L85.3147 109.419ZM83.8272 103.152L83.166 103.316L83.6619 103.811L83.8272 103.152ZM83.9924 107.77V108.924L85.1494 108.264L83.9924 107.77Z" data-darkreader-inline-fill="" style="--darkreader-inline-fill: var(--darkreader-text-a84d3b, #c87464);"/>
<path fill="#A84D3B" d="M84.3233 109.584L84.9844 109.089L84.158 108.759L84.3233 109.584ZM84.3233 103.152L84.8191 102.657L84.158 102.492L84.3233 103.152ZM83.3315 104.966L83.9927 104.471L83.001 103.976L83.3315 104.966ZM87.1331 104.471L87.6289 104.801L87.7942 104.141L87.1331 104.471ZM84.3233 111.398L84.9844 111.069L84.3233 110.574V111.398ZM82.5051 115.027L83.1663 114.697L82.5051 114.202V115.027ZM83.4968 99.6881L83.6621 101.008L84.8191 100.678L83.4968 99.6881ZM82.0093 102.492L82.5051 102.987L82.8357 102.162L82.0093 102.492ZM88.6206 102.162L88.9512 103.647L90.2734 102.822L88.6206 102.162ZM82.5051 101.502L83.001 101.997L83.3315 101.337L82.5051 101.502ZM92.7527 105.296L93.5791 105.626L93.4138 104.801L92.7527 105.296ZM108.455 104.801L109.116 105.131V104.306L108.455 104.801ZM83.8274 106.45L84.9844 105.956L83.8274 104.966V106.45ZM82.8357 99.6881L82.1746 100.843L83.4968 101.008L82.8357 99.6881Z" data-darkreader-inline-fill="" style="--darkreader-inline-fill: var(--darkreader-background-a84d3b, #863e2f);"/>
<path fill="#A84D3B" d="M86.1406 104.802L85.4795 104.637L85.6448 105.297L86.1406 104.802ZM82.1738 100.843L81.5127 101.173L82.1738 101.668V100.843ZM88.124 102.163L87.9587 102.823L88.6199 102.658L88.124 102.163ZM83.8267 102.823L82.6697 102.328V103.647L83.8267 102.823Z" data-darkreader-inline-fill="" style="--darkreader-inline-fill: var(--darkreader-text-a84d3b, #c87464);"/>
<path fill="#A84D3B" d="M84.6538 101.008H83.9927L84.3232 101.668L84.6538 101.008ZM82.1746 101.503L82.0093 101.998L82.6704 101.833L82.1746 101.503ZM87.6289 102.162L86.8025 101.503L86.6372 102.657L87.6289 102.162Z" data-darkreader-inline-fill="" style="--darkreader-inline-fill: var(--darkreader-text-a84d3b, #c87464);"/>
<path fill="#964C38" d="M70.9346 129.376V128.716L70.2734 128.881L70.9346 129.376ZM68.1248 124.593L67.2983 124.758L67.7942 125.417L68.1248 124.593Z" data-darkreader-inline-fill="" style="--darkreader-inline-fill: var(--darkreader-text-964c38, #ca8471);"/>
<path fill="#964C38" d="M67.9592 124.758L67.1328 125.747L68.4551 126.077L67.9592 124.758ZM66.4717 124.593L65.48 124.923L66.3064 125.747L66.4717 124.593ZM70.7691 126.902L70.2732 127.397L70.9344 127.562L70.7691 126.902ZM69.2815 126.242L68.7857 126.737L69.4468 126.902L69.2815 126.242Z" data-darkreader-inline-fill="" style="--darkreader-inline-fill: var(--darkreader-text-964c38, #ca8471);"/>
<path fill="#964C38" d="M70.2737 127.397L69.9431 127.892L70.6042 128.057L70.2737 127.397ZM66.6374 125.913L66.1416 126.407L66.8027 126.572L66.6374 125.913Z" data-darkreader-inline-fill="" style="--darkreader-inline-fill: var(--darkreader-text-964c38, #ca8471);"/>
<path fill="#964C38" d="M65.811 125.583L65.1499 126.242L66.3069 126.737L65.811 125.583ZM68.4556 128.551L68.9514 128.716L69.1167 128.222L68.4556 128.551ZM70.4389 126.407L70.2737 126.737H70.7695L70.4389 126.407ZM70.7695 128.057L70.6042 128.387H71.1001L70.7695 128.057Z" data-darkreader-inline-fill="" style="--darkreader-inline-fill: var(--darkreader-text-964c38, #ca8471);"/>
<path fill="#964C38" d="M64.8194 125.252L64.1582 125.912L65.1499 126.242L64.8194 125.252ZM66.1417 127.891H65.8111L65.9764 128.221L66.1417 127.891ZM67.1334 129.211L66.9681 128.881L66.6375 129.046L67.1334 129.211ZM68.2904 125.252L68.7862 124.758L68.1251 124.593L68.2904 125.252ZM66.4722 125.252L65.9764 125.582L66.6375 125.747L66.4722 125.252ZM65.6458 125.582L65.1499 125.417V126.077L65.6458 125.582Z" data-darkreader-inline-fill="" style="--darkreader-inline-fill: var(--darkreader-text-964c38, #ca8471);"/>
<path fill="#964C38" d="M65.6458 125.583V125.088L65.1499 125.253L65.6458 125.583ZM69.6125 126.408L69.9431 126.902L70.2737 126.243L69.6125 126.408ZM68.9514 124.923L68.7861 126.078L69.9431 125.748L68.9514 124.923Z" data-darkreader-inline-fill="" style="--darkreader-inline-fill: var(--darkreader-text-964c38, #ca8471);"/>
<path fill="#964C38" d="M68.4558 125.583L68.9516 126.078L69.1169 125.418L68.4558 125.583ZM64.489 127.232L64.1584 127.727H64.6543L64.489 127.232ZM67.4641 124.593L66.9682 124.428V124.923L67.4641 124.593ZM66.4724 127.562L66.8029 127.892L67.1335 127.397L66.4724 127.562ZM67.7946 129.541L67.4641 130.036L68.1252 130.201L67.7946 129.541ZM64.3237 126.078L63.9932 126.572H64.6543L64.3237 126.078Z" data-darkreader-inline-fill="" style="--darkreader-inline-fill: var(--darkreader-text-964c38, #ca8471);"/>
<path fill="#964C38" d="M65.8112 129.54L65.3154 129.376L65.4806 130.035L65.8112 129.54ZM63.9932 126.902H64.489L64.1584 126.407L63.9932 126.902Z" data-darkreader-inline-fill="" style="--darkreader-inline-fill: var(--darkreader-text-964c38, #ca8471);"/>
<path fill="#964C38" d="M63.4968 128.881L63.8274 128.716L63.6621 128.222L63.4968 128.881ZM63.8274 127.067H64.158L63.9927 126.572L63.8274 127.067ZM64.9844 126.572V127.067L65.4802 126.737L64.9844 126.572ZM63.3315 128.057H63.9927L63.6621 127.397L63.3315 128.057ZM64.3233 128.222V128.716L64.8191 128.386L64.3233 128.222ZM67.6289 126.242L67.1331 126.407L67.6289 126.902V126.242ZM69.9429 128.716L70.1082 129.211L70.604 128.881L69.9429 128.716ZM66.6372 125.088L66.8025 125.583L67.2984 125.253L66.6372 125.088ZM68.2901 126.902L67.9595 126.407L67.7942 127.067L68.2901 126.902Z" data-darkreader-inline-fill="" style="--darkreader-inline-fill: var(--darkreader-text-964c38, #ca8471);"/>
<path fill="#AF361A" d="M89.6124 116.016C89.4471 116.016 89.1166 116.016 88.9513 115.851C88.4554 115.521 88.2901 114.697 88.6207 114.202C88.786 114.037 91.4305 110.079 97.3807 110.573C98.0419 110.573 98.5377 111.233 98.5377 111.893C98.5377 112.553 97.8766 113.047 97.2154 113.047C92.7528 112.718 90.7694 115.521 90.7694 115.686C90.2735 115.851 89.943 116.016 89.6124 116.016ZM114.074 112.553C113.909 112.553 113.578 112.553 113.413 112.388C112.091 111.398 110.108 112.058 109.942 112.058C109.281 112.223 108.62 111.893 108.455 111.233C108.289 110.573 108.62 109.914 109.281 109.749C109.446 109.749 112.421 108.759 114.735 110.409C115.231 110.738 115.397 111.563 115.066 112.058C114.735 112.388 114.405 112.553 114.074 112.553Z" data-darkreader-inline-fill="" style="--darkreader-inline-fill: var(--darkreader-background-af361a, #8c2b15);"/>
<path fill="#4F2B23" d="M95.563 124.758C96.8409 124.758 97.8769 123.724 97.8769 122.449C97.8769 121.174 96.8409 120.14 95.563 120.14C94.285 120.14 93.249 121.174 93.249 122.449C93.249 123.724 94.285 124.758 95.563 124.758Z" data-darkreader-inline-fill="" style="--darkreader-inline-fill: var(--darkreader-text-4f2b23, #d7aea4);"/>
<path fill="#4F2B23" d="M112.752 123.604C114.03 123.604 115.066 122.57 115.066 121.295C115.066 120.019 114.03 118.986 112.752 118.986C111.474 118.986 110.438 120.019 110.438 121.295C110.438 122.57 111.474 123.604 112.752 123.604Z" data-darkreader-inline-fill="" style="--darkreader-inline-fill: var(--darkreader-text-4f2b23, #d7aea4);"/>
<path fill="#B4603F" d="M105.149 136.468C104.654 136.468 104.158 136.138 103.992 135.478C103.827 134.819 104.323 134.159 104.984 134.159C104.984 134.159 106.802 133.829 106.968 132.345C107.133 130.86 105.645 126.737 104.819 124.593C104.488 123.933 104.819 123.273 105.48 123.108C106.141 122.779 106.802 123.108 106.968 123.768C107.298 124.428 109.447 130.036 109.281 132.675C109.116 135.149 106.802 136.468 105.48 136.633C105.315 136.468 105.149 136.468 105.149 136.468Z" data-darkreader-inline-fill="" style="--darkreader-inline-fill: var(--darkreader-text-b4603f, #c6795b);"/>
<path fill="#CF7653" d="M99.5299 143.395C97.3625 143.375 95.2596 142.658 93.5328 141.35C91.8061 140.043 90.5474 138.216 89.9435 136.138C89.7782 135.479 90.1088 134.819 90.7699 134.654C91.431 134.489 92.0921 134.819 92.2574 135.479C92.7203 137.047 93.6783 138.423 94.9887 139.404C96.2991 140.385 97.8919 140.917 99.5299 140.921C100.191 140.921 100.687 141.581 100.687 142.076C100.687 142.901 100.191 143.395 99.5299 143.395Z" data-darkreader-inline-fill="" style="--darkreader-inline-fill: var(--darkreader-text-cf7653, #d27f5f);"/>
<path fill="white" d="M97.0503 135.973C92.4224 135.973 88.7861 131.025 88.7861 125.088C88.7861 119.15 92.5877 114.202 97.0503 114.202C101.513 114.202 105.314 119.15 105.314 125.088C105.314 131.025 101.513 135.973 97.0503 135.973ZM97.0503 115.851C93.4141 115.851 90.439 119.975 90.439 125.088C90.439 130.201 93.4141 134.324 97.0503 134.324C100.687 134.324 103.662 130.201 103.662 125.088C103.662 119.975 100.687 115.851 97.0503 115.851Z" data-darkreader-inline-fill="" style="--darkreader-inline-fill: var(--darkreader-background-ffffff, #181a1b);"/>
<path fill="white" d="M104.818 122.778L103.331 121.953C103.331 121.953 104.322 120.304 105.975 120.304C107.628 120.304 108.785 121.129 108.785 121.294L107.793 122.613C107.793 122.613 106.967 121.953 105.975 121.953C105.314 121.788 104.818 122.778 104.818 122.778ZM76.8193 122.349L77.1003 120.7L89.4966 122.844L89.2156 124.493L76.8193 122.349Z" data-darkreader-inline-fill="" style="--darkreader-inline-fill: var(--darkreader-background-ffffff, #181a1b);"/>
<path fill="#C94112" d="M72.2579 83.6894C72.2579 83.6894 63.9937 80.3907 57.3823 91.9361C50.1099 104.801 59.531 121.789 59.531 121.789C59.531 121.789 62.3408 117.666 67.7952 118.49C72.2579 119.15 73.5801 121.624 74.9024 123.109C76.2246 124.428 81.5137 123.274 83.3318 117.171C84.6541 112.388 84.6541 107.77 83.0013 104.471C81.3484 101.172 79.8609 97.3789 82.1749 99.0283C84.4888 100.678 88.4556 102.822 94.5711 103.811C100.687 104.801 112.422 105.791 118.372 100.678C124.322 95.7296 124.653 91.4413 124.487 87.9777C124.322 84.5141 122.504 82.5349 122.504 82.5349C122.504 82.5349 119.198 84.3491 117.546 84.5141C115.893 84.679 114.57 84.8439 114.736 82.6998C115.066 77.7518 112.256 76.1024 112.256 76.1024C112.256 76.1024 111.099 77.5869 109.777 78.4115C106.967 80.0609 105.315 80.2258 102.505 79.2362C98.8685 78.0817 95.067 74.783 87.6292 74.618C82.3401 74.783 76.3899 77.5869 72.2579 83.6894Z" data-darkreader-inline-fill="" style="--darkreader-inline-fill: var(--darkreader-background-c94112, #a1340e);"/>
<path fill="#FF593E" d="M106.968 79.896L108.62 81.2154L109.116 79.0713L107.959 79.5661L106.968 79.896ZM91.1003 75.2778L91.7615 77.257L93.4143 75.7726L91.1003 75.2778ZM112.257 76.4324L111.265 77.7518L112.918 77.9168L112.257 76.4324ZM105.811 82.205L103.992 83.5245L105.811 84.844V82.205ZM100.026 79.731L99.5298 80.5557L100.687 80.7206L100.026 79.731ZM85.9766 75.9376L85.3154 77.0921L86.803 77.422L85.9766 75.9376ZM87.4641 77.257L86.9682 78.5765L88.2905 78.7414L87.4641 77.257ZM84.3237 77.9168L85.8113 79.5661L87.1335 77.422L84.3237 77.9168Z" data-darkreader-inline-fill="" style="--darkreader-inline-fill: var(--darkreader-background-ff593e, #a71700);"/>
<path fill="#FF593E" d="M89.9434 78.0819L88.1252 78.2468L88.9516 80.0611L89.9434 78.0819ZM82.6709 76.5975L84.3237 77.917L84.8196 75.7728L82.6709 76.5975ZM108.29 84.5143L107.629 85.0091L108.29 85.504V84.5143ZM102.34 81.0507L101.678 81.5455L102.505 82.0403L102.34 81.0507ZM103.827 82.865L104.488 82.0403L103.331 81.7105L103.827 82.865ZM112.091 83.8546L111.43 84.3494L112.257 84.6793L112.091 83.8546ZM109.943 81.8754L109.116 81.0507L108.62 82.3702L109.943 81.8754ZM113.414 79.0715L112.587 78.2468L112.091 79.7312L113.414 79.0715Z" data-darkreader-inline-fill="" style="--darkreader-inline-fill: var(--darkreader-background-ff593e, #a71700);"/>
<path fill="#FF593E" d="M103.992 83.6891L103 82.8644L102.504 84.3488L103.992 83.6891ZM107.794 83.1943L106.967 82.3696L106.471 83.854L107.794 83.1943ZM103.992 81.545L103.166 80.7203L102.67 82.0398L103.992 81.545ZM102.504 80.8852L103.166 79.7307L101.678 79.5658L102.504 80.8852ZM98.2071 78.2463L97.2154 77.2567L96.7195 78.7411L98.2071 78.2463ZM100.356 79.4008L99.364 78.5762L99.0335 79.8956L100.356 79.4008ZM90.1082 76.1022L88.9512 75.1125L88.4553 76.7619L90.1082 76.1022ZM87.1331 77.0918L88.29 75.9372L86.6372 75.2775L87.1331 77.0918ZM94.5708 76.597L93.7444 75.7723L93.2486 77.2567L94.5708 76.597ZM89.6123 76.432L90.7693 77.7515L91.761 75.9372L89.6123 76.432Z" data-darkreader-inline-fill="" style="--darkreader-inline-fill: var(--darkreader-background-ff593e, #a71700);"/>
<path fill="#FF593E" d="M88.4554 76.9272L89.447 78.4116L90.4388 76.4324L88.4554 76.9272ZM89.7776 77.9168L90.1082 79.5661L91.761 78.4116L89.7776 77.9168ZM110.603 79.896L110.438 78.4116L109.116 79.2363L110.603 79.896ZM103.166 80.0609L103.827 81.7103L105.149 80.3908L103.166 80.0609ZM100.19 78.7415L100.686 80.5557L102.009 79.4012L100.19 78.7415ZM98.0418 77.5869L98.3724 79.4012L99.8599 78.4116L98.0418 77.5869ZM83.9927 75.1129L85.1497 76.4324L86.1414 74.948L83.9927 75.1129ZM90.9346 75.2779L89.7776 74.948L89.9429 76.1025L90.9346 75.2779Z" data-darkreader-inline-fill="" style="--darkreader-inline-fill: var(--darkreader-background-ff593e, #a71700);"/>
<path fill="#FF593E" d="M87.2996 75.2779L86.1426 74.948L86.3079 76.2675L87.2996 75.2779ZM84.3245 75.6077H83.1675L83.8286 76.7623L84.3245 75.6077ZM106.803 88.4726L106.307 88.9674L106.968 89.2973L106.803 88.4726ZM110.274 86.4934L109.778 86.1635L109.613 86.8232L110.274 86.4934ZM109.117 83.6895L109.448 84.5142L109.943 83.8544L109.117 83.6895ZM101.183 80.3908L101.514 81.2155L102.01 80.3908H101.183ZM107.629 86.1635L107.134 86.6583L107.795 86.8232L107.629 86.1635ZM89.9441 86.3284L89.4483 86.8232L90.1094 86.9882L89.9441 86.3284ZM107.464 80.3908L106.307 81.3804L107.795 82.2051L107.464 80.3908ZM105.977 87.6479L105.315 87.318V87.9778L105.977 87.6479ZM106.472 85.9986L106.968 86.1635L106.803 85.5038L106.472 85.9986ZM102.01 85.8336L103.001 85.9986L102.671 84.844L102.01 85.8336Z" data-darkreader-inline-fill="" style="--darkreader-inline-fill: var(--darkreader-background-ff593e, #a71700);"/>
<path fill="#FF593E" d="M106.307 81.38L106.803 80.0606L105.15 80.2255L106.307 81.38ZM101.349 86.6579V87.3177L102.01 87.1527L101.349 86.6579ZM104.985 82.3696L105.646 81.38L104.324 81.0502L104.985 82.3696ZM95.7292 78.0814L96.3904 77.0918L94.9028 76.597L95.7292 78.0814ZM88.4568 76.2671L89.1179 75.2775L87.6304 75.1125L88.4568 76.2671ZM108.291 88.6371V89.2969L108.952 89.1319L108.291 88.6371ZM104.489 88.6371L103.663 88.8021L104.159 89.2969L104.489 88.6371ZM92.5889 89.7917L91.7625 89.9566L92.2583 90.6163L92.5889 89.7917ZM102.506 90.1215H101.845L102.175 90.7813L102.506 90.1215ZM110.77 82.2047L111.266 83.0294L111.762 82.0398L110.77 82.2047ZM99.5308 89.1319L100.027 88.3073H99.0349L99.5308 89.1319ZM94.5723 76.432L93.0847 76.597L93.9111 78.0814L94.5723 76.432ZM102.506 83.1943L103.167 81.8748H101.514L102.506 83.1943ZM92.5889 83.854L91.2666 84.6787L92.5889 85.5034V83.854ZM97.3821 85.9982L96.2251 86.6579L97.3821 87.3177V85.9982ZM92.9194 86.9878L93.25 87.4826L93.5806 86.8229L92.9194 86.9878Z" data-darkreader-inline-fill="" style="--darkreader-inline-fill: var(--darkreader-background-ff593e, #a71700);"/>
<path fill="#FF593E" d="M90.1084 82.8648L89.7778 83.3596H90.439L90.1084 82.8648ZM95.5628 87.6479L95.0669 87.483V87.9778L95.5628 87.6479ZM93.7447 85.009L93.2488 85.8336L94.4058 85.9986L93.7447 85.009ZM97.8767 91.1115L97.3809 90.9466L97.5462 91.6063L97.8767 91.1115ZM88.9514 79.7311L88.6208 81.3804L90.439 80.7207L88.9514 79.7311ZM87.4639 86.3284L87.7944 87.6479L88.9514 86.6583L87.4639 86.3284ZM96.7198 77.5869L94.7363 78.5765L96.3892 80.0609L97.0503 79.0713L96.7198 77.5869ZM95.0669 79.7311L93.7447 80.3908L94.9016 81.5453L95.3975 80.5557L95.0669 79.7311Z" data-darkreader-inline-fill="" style="--darkreader-inline-fill: var(--darkreader-background-ff593e, #a71700);"/>
<path fill="#FF593E" d="M95.2326 81.8757L94.0757 81.216L93.084 81.3809L93.4145 83.69L95.2326 81.8757ZM86.6379 86.329L85.1504 87.1536L86.8032 87.9783L86.6379 86.329ZM95.7285 78.9069L93.084 78.5771L94.0757 80.7212L95.7285 78.9069ZM93.4145 77.4225L92.4228 77.0927L91.2659 77.4225L92.2575 79.0719L93.4145 77.4225ZM101.844 81.216L99.6953 80.7212L100.026 83.0303L101.844 81.216Z" data-darkreader-inline-fill="" style="--darkreader-inline-fill: var(--darkreader-background-ff593e, #a71700);"/>
<path fill="#FF593E" d="M102.671 82.7L100.522 82.2052L100.853 84.5143L102.671 82.7Z" data-darkreader-inline-fill="" style="--darkreader-inline-fill: var(--darkreader-text-ff593e, #ff5f45);"/>
<path fill="#FF593E" d="M101.512 84.8444L100.686 83.5249L99.6943 85.0093L101.512 84.8444ZM92.0913 81.5457L90.9343 79.8963L89.9426 80.721L89.6121 81.7106L92.0913 81.5457ZM90.2732 82.8652L88.7856 82.0405L88.4551 84.0197L90.2732 82.8652ZM88.6204 80.5561L87.4634 78.9067L86.1411 80.8859L88.6204 80.5561ZM98.7026 85.5041L99.3638 84.0197L97.3804 83.8548L98.7026 85.5041ZM95.2317 85.669L96.7192 85.0093L95.5622 83.6898L95.2317 85.669ZM109.281 80.8859L110.438 80.5561L109.446 79.5665L109.281 80.8859ZM85.8105 86.1638L87.2981 85.669L86.1411 84.3496L85.8105 86.1638Z" data-darkreader-inline-fill="" style="--darkreader-inline-fill: var(--darkreader-background-ff593e, #a71700);"/>
<path fill="#FF593E" d="M79.3657 85.8332L80.5227 85.3384L79.6963 84.3488L79.3657 85.8332ZM110.604 78.2463L111.431 79.0709L111.927 77.7515L110.604 78.2463ZM94.7371 84.6787L94.4065 83.1943L92.919 84.1839L94.7371 84.6787ZM94.5718 79.8956L92.4231 79.2359L92.7537 81.5449L94.5718 79.8956ZM99.5303 80.2255L97.3816 79.7307L97.7122 82.0397L99.5303 80.2255ZM99.0345 82.6995L97.0511 82.2047L97.2163 84.5138L99.0345 82.6995ZM96.5552 82.3696L95.3982 83.0293L96.3899 84.019L96.5552 82.3696ZM91.762 86.9878L91.2661 86.493L91.1008 87.1527L91.762 86.9878Z" data-darkreader-inline-fill="" style="--darkreader-inline-fill: var(--darkreader-background-ff593e, #a71700);"/>
<path fill="#FF593E" d="M90.7695 85.0089L89.9431 84.0193L89.4473 85.5037L90.7695 85.0089ZM94.5711 83.1946L94.9016 84.0193L95.5628 83.1946H94.5711ZM97.5462 79.0713L97.3809 79.896L98.2073 79.5661L97.5462 79.0713ZM99.8601 83.3596L99.3643 82.0401L98.2073 83.1946L99.8601 83.3596ZM93.5794 82.205L92.2571 81.7102V83.3596L93.5794 82.205Z" data-darkreader-inline-fill="" style="--darkreader-inline-fill: var(--darkreader-text-ff593e, #ff5f45);"/>
<path fill="#FF593E" d="M92.2571 82.3703L90.9348 81.7105V83.3599L92.2571 82.3703ZM89.282 80.8858L88.125 80.391V81.8755L89.282 80.8858ZM99.0337 81.7105L98.8684 81.2157L98.2073 81.7105H99.0337ZM100.852 87.978V88.8027L101.678 88.4728L100.852 87.978ZM98.2073 89.1326H97.5461L97.8767 89.7923L98.2073 89.1326ZM99.0337 86.6585V87.3183L99.8601 86.9884L99.0337 86.6585ZM97.0503 83.5248L97.2155 82.7001L96.2239 82.8651L97.0503 83.5248ZM97.3808 80.391L95.8933 80.7209L95.728 81.3806L97.3808 82.5352V80.391ZM96.7197 79.8962L96.2239 80.391H96.885L96.7197 79.8962ZM98.042 83.5248L97.7114 84.0196H98.5378L98.042 83.5248ZM95.2322 86.1637L94.9016 86.8235H95.5627L95.2322 86.1637ZM99.8601 80.556L99.5295 80.2261L99.199 80.8858L99.8601 80.556ZM105.314 85.6689L105.48 84.8443L104.653 85.0092L105.314 85.6689ZM103.827 87.4832L103.992 86.8235H103.166L103.827 87.4832ZM88.125 89.7923L88.2903 88.9676L87.4639 89.1326L88.125 89.7923ZM103.331 83.8547L103.496 84.8443L104.488 84.1845L103.331 83.8547Z" data-darkreader-inline-fill="" style="--darkreader-inline-fill: var(--darkreader-background-ff593e, #a71700);"/>
<path fill="#FF593E" d="M90.2747 79.5661L91.2664 80.7206L91.9275 79.0713L90.2747 79.5661ZM98.043 81.3804L98.2083 82.205L99.0347 81.7102L98.043 81.3804ZM103.993 85.8336L103.663 85.3388L103.332 85.9985L103.993 85.8336ZM86.8038 90.7816L86.3079 90.2868L85.9773 90.9465L86.8038 90.7816ZM98.043 85.5037L97.3819 85.6686L98.043 86.1634V85.5037ZM97.0513 84.844L96.886 84.1842L96.3902 84.679L97.0513 84.844ZM60.8542 87.318L63.1682 88.1427L63.0029 85.3388L60.8542 87.318ZM85.1509 87.6479L84.3245 87.8128L84.8203 88.4725L85.1509 87.6479ZM79.6966 82.5349L77.8784 82.8648L79.2007 84.5141L79.6966 82.5349ZM74.9033 87.1531L74.4075 86.4933L73.9116 87.1531H74.9033ZM81.1841 88.3076L80.6883 87.318L79.8618 88.1427L81.1841 88.3076ZM67.4656 86.4933V88.1427L69.2837 87.4829L67.4656 86.4933ZM82.5064 79.731V81.3804L84.1592 80.7206L82.5064 79.731ZM85.4815 79.5661L85.3162 80.5557L86.4732 80.0609L85.4815 79.5661ZM85.1509 81.5453V82.5349L86.1426 82.205L85.1509 81.5453ZM57.0527 92.9257L56.061 95.3997L58.375 95.2348L57.0527 92.9257ZM55.8957 95.5647L55.3999 97.7088L57.3833 96.7192L55.8957 95.5647ZM60.5237 98.6984V99.688L61.5154 99.3582L60.5237 98.6984ZM58.2097 98.5335V99.3582L59.2014 99.0283L58.2097 98.5335ZM73.2505 82.5349L72.5894 83.8544H74.2422L73.2505 82.5349ZM70.4407 87.6479L70.1101 86.9881L69.449 87.6479H70.4407ZM69.9448 89.1323L69.2837 87.8128L68.292 88.9673L69.9448 89.1323ZM81.3494 83.5245L80.6883 85.0089H82.5064L81.3494 83.5245ZM77.5479 87.4829V88.3076L78.3743 87.9777L77.5479 87.4829Z" data-darkreader-inline-fill="" style="--darkreader-inline-fill: var(--darkreader-background-ff593e, #a71700);"/>
<path fill="#FF593E" d="M64.821 94.5751V95.2349L65.6475 95.0699L64.821 94.5751ZM64.1599 98.8634L63.3335 98.6985L63.4988 99.5231L64.1599 98.8634ZM59.8626 95.5647L59.6973 97.379L61.3501 96.7193L59.8626 95.5647ZM57.3833 95.5647V97.379L59.0361 96.7193L57.3833 95.5647ZM59.2014 100.843L59.0361 101.667L60.0278 101.337L59.2014 100.843ZM86.3079 80.8856L86.1426 83.0297L88.6218 82.2051L86.3079 80.8856ZM82.6717 83.1947L84.4898 83.8544L84.3245 81.5453L82.6717 83.1947ZM80.0271 80.0609L81.6799 80.7207L81.5146 78.7415L80.0271 80.0609ZM85.3162 80.2259L83.9939 80.3908L84.8203 81.7103L85.3162 80.2259ZM62.5071 98.0387H63.1682L63.0029 97.379L62.5071 98.0387ZM63.1682 94.2453V94.7401L63.6641 94.4102L63.1682 94.2453ZM70.2754 95.5647L69.7795 95.8946L70.2754 96.2245V95.5647ZM62.8377 101.667L62.3418 101.997L62.8377 102.327V101.667ZM60.1931 103.482L59.8626 103.811L60.3584 104.141L60.1931 103.482ZM66.8044 95.0699L66.9697 95.5647L67.4656 95.0699H66.8044ZM63.8293 96.0595L64.1599 96.8842L64.821 96.0595H63.8293ZM71.1018 94.7401L70.7712 94.905L71.2671 95.2349L71.1018 94.7401ZM84.4898 84.6791L83.8286 84.0193L83.4981 85.0089L84.4898 84.6791ZM111.762 81.0505L112.588 81.7103L112.753 80.7207L111.762 81.0505ZM116.885 85.0089L117.877 86.4934L118.869 84.844L117.712 85.0089H116.885ZM122.505 82.8648L121.183 83.8544L122.67 84.5141L122.505 82.8648ZM116.555 89.792L115.728 89.957L116.389 90.6167L116.555 89.792ZM120.522 89.957L119.695 90.2868L120.356 90.9466L120.522 89.957ZM119.034 87.6479L118.373 86.4934L117.546 87.8128L119.034 87.6479ZM123.001 85.8336L122.34 84.844L121.513 85.9986L123.001 85.8336ZM116.555 88.3076L115.894 87.318L115.067 88.4726L116.555 88.3076ZM114.902 85.5037L114.241 84.3492L113.58 85.6687L114.902 85.5037ZM120.356 85.5037V84.0193L118.869 84.6791L120.356 85.5037ZM117.877 92.1011L117.546 91.6063L117.216 92.266L117.877 92.1011ZM117.712 89.1323V89.957L118.538 89.4622L117.712 89.1323ZM115.563 91.1115L114.902 91.4414L115.563 91.9362V91.1115ZM116.555 85.0089L114.902 85.1739L115.728 86.6583L116.555 85.0089Z" data-darkreader-inline-fill="" style="--darkreader-inline-fill: var(--darkreader-background-ff593e, #a71700);"/>
<path fill="#FF593E" d="M114.405 90.6169L114.901 90.9467V90.287L114.405 90.6169ZM114.24 86.9883L114.736 87.3182V86.4935L114.24 86.9883ZM119.529 88.1428L119.86 89.1324L120.521 88.1428H119.529ZM118.537 86.4935L119.694 86.3286L119.033 85.174L118.537 86.4935ZM120.356 84.1844L121.017 85.174L121.843 84.1844H120.356ZM120.851 87.3182L121.513 88.1428L122.008 87.1532L120.851 87.3182ZM71.2664 83.5247L71.4316 85.0091L73.0845 84.1844L71.2664 83.5247ZM61.1841 91.7714L61.6799 92.5961L62.1758 91.7714H61.1841ZM59.5312 90.6169L60.1924 91.9363L61.1841 90.4519L59.5312 90.6169ZM60.0271 88.3078L61.1841 89.4623L61.6799 87.648L60.0271 88.3078ZM78.2083 80.226L77.8777 80.8858L78.7041 81.0507L78.2083 80.226ZM77.2166 79.8962L76.886 80.7208H77.7124L77.2166 79.8962ZM85.9766 83.3598L84.3238 83.0299L84.8196 84.8442L85.9766 83.3598ZM84.8196 85.5039L83.4973 85.174L83.8279 86.8234L84.8196 85.5039ZM101.513 85.6688L100.026 85.339L100.522 86.9883L101.513 85.6688ZM78.2083 79.8962L79.0347 78.7416L77.2166 78.4117L78.2083 79.8962Z" data-darkreader-inline-fill="" style="--darkreader-inline-fill: var(--darkreader-background-ff593e, #a71700);"/>
<path fill="#FF593E" d="M78.3736 81.7099L77.3819 80.5553L76.7207 82.2047L78.3736 81.7099ZM77.3819 80.2255L76.886 78.7411L75.5638 79.8956L77.3819 80.2255ZM76.0596 81.8748L76.886 80.5553L75.2332 80.2255L76.0596 81.8748ZM81.5139 79.7307L82.3404 79.8956L82.1751 78.906L81.5139 79.7307ZM80.0264 79.8956L78.7041 79.4008L78.8694 80.8852L80.0264 79.8956ZM78.5389 77.7515L78.7041 78.7411L79.6958 78.2463L78.5389 77.7515ZM84.4891 77.9164L82.5057 78.7411L84.1585 80.3904L84.4891 77.9164ZM59.2007 99.5228V100.182L60.0271 100.018L59.2007 99.5228ZM61.1841 91.6059H60.5229L60.8535 92.2657L61.1841 91.6059ZM57.2173 101.667L56.5562 101.832L57.052 102.327L57.2173 101.667ZM58.209 100.842L58.0437 100.182L57.5478 100.842H58.209ZM58.209 94.0799L59.6965 95.0695L60.0271 93.0903L58.209 94.0799ZM64.1592 91.1111L64.8203 91.2761V90.4514L64.1592 91.1111ZM59.6965 88.6371L58.8701 89.9566L60.6882 90.2865L59.6965 88.6371ZM61.8452 94.9046L61.6799 96.0591L63.0022 95.5643L61.8452 94.9046ZM63.3328 88.802L62.0105 88.6371L62.3411 90.1215L63.3328 88.802ZM65.4815 92.2657L63.9939 92.4306L64.8203 93.7501L65.4815 92.2657ZM63.4981 90.2865L62.0105 90.4514L63.0022 91.7709L63.4981 90.2865ZM66.969 86.6579L65.6467 86.8228L66.4732 88.1423L66.969 86.6579ZM57.2173 92.4306L59.5313 92.7605L58.7048 90.1215L57.2173 92.4306ZM55.3992 98.0384L54.9033 100.018L57.3826 99.5228L55.3992 98.0384ZM62.3411 96.5539L61.3494 96.8838L62.1758 97.8734L62.3411 96.5539ZM58.209 97.7085L59.366 98.0384L59.2007 96.7189L58.209 97.7085ZM60.1924 100.842V101.502L60.8535 101.172L60.1924 100.842ZM58.209 102.327L57.7131 102.492L58.0437 102.986L58.209 102.327ZM72.5886 86.9878L71.7622 87.6475L72.7539 88.1423L72.5886 86.9878ZM71.2664 85.1735L70.44 85.6683L71.4317 86.328L71.2664 85.1735ZM67.9607 84.6787L66.6384 85.6683L68.2913 86.493L67.9607 84.6787Z" data-darkreader-inline-fill="" style="--darkreader-inline-fill: var(--darkreader-background-ff593e, #a71700);"/>
<path fill="#FF593E" d="M73.5811 84.3495L72.9199 84.8443L73.5811 85.3391V84.3495ZM70.1101 87.3183L69.449 87.8131L70.2754 88.3079L70.1101 87.3183ZM71.9282 86.9884L72.4241 87.4832L72.7547 86.8235L71.9282 86.9884ZM60.5237 93.091L61.0195 94.2455L62.0112 93.2559L60.5237 93.091ZM65.6475 90.2871L65.978 90.7819L66.3086 90.1222L65.6475 90.2871ZM77.5479 84.3495L77.8784 84.8443L78.209 84.1846L77.5479 84.3495ZM75.2339 84.6794L75.5645 85.0092L75.895 84.5144L75.2339 84.6794ZM74.5728 83.3599L75.2339 84.0196L75.7297 83.03L74.5728 83.3599ZM65.978 88.4729L66.3086 88.9677L66.6392 88.3079L65.978 88.4729ZM71.1018 86.4936L70.4407 86.9884L71.2671 87.4832L71.1018 86.4936ZM69.7796 86.4936L70.2754 85.504H68.9531L69.7796 86.4936ZM68.6226 84.8443L69.1184 83.3599H67.3003L68.6226 84.8443ZM72.5894 86.1638L72.0935 85.8339L71.9282 86.4936L72.5894 86.1638ZM70.7712 88.143L70.2754 88.4729L70.9365 88.8027L70.7712 88.143ZM68.292 87.6482L67.7962 87.1534L67.6309 87.9781L68.292 87.6482ZM57.7139 103.977L58.2097 103.482L57.5486 103.152L57.7139 103.977ZM55.5652 106.945L55.8957 106.616L55.3999 106.286L55.5652 106.945ZM56.061 104.636L56.5569 104.142L55.8957 103.977L56.061 104.636ZM55.5652 108.1L56.061 108.595L56.2263 107.77L55.5652 108.1ZM56.3916 106.286L57.218 105.956L56.3916 105.461V106.286Z" data-darkreader-inline-fill="" style="--darkreader-inline-fill: var(--darkreader-background-ff593e, #a71700);"/>
<path fill="#FF593E" d="M58.209 105.625L58.8701 105.296L58.209 104.801V105.625ZM55.0686 100.842L55.895 101.667L56.3909 100.512L55.0686 100.842ZM55.7297 101.832L54.9033 103.151L56.8867 103.316L55.7297 101.832ZM54.9033 103.811V105.296L56.0603 104.636L54.9033 103.811ZM55.5644 107.11L55.2339 107.605L55.895 107.77L55.5644 107.11ZM64.1592 88.9671L65.1509 89.7918L65.6468 88.3074L64.1592 88.9671Z" data-darkreader-inline-fill="" style="--darkreader-inline-fill: var(--darkreader-background-ff593e, #a71700);"/>
<path fill="#FF593E" d="M64.3242 84.6789L63.6631 86.1633L65.3159 86.3282L64.3242 84.6789ZM65.4812 87.8126L65.1506 88.3074L65.977 88.4724L65.4812 87.8126ZM64.3242 86.988L63.8284 87.9776L65.1506 88.1425L64.3242 86.988ZM70.1091 89.6269L68.9522 89.297L69.2827 90.6165L70.1091 89.6269ZM64.6548 89.6269L63.6631 89.462L63.8284 90.6165L64.6548 89.6269ZM82.836 82.3698L81.5137 82.04L81.8443 83.5244L82.836 82.3698ZM80.522 81.875L81.3484 82.2049V81.2153L80.522 81.875ZM81.0179 76.2673L82.5054 77.5867L83.0012 75.6075L81.0179 76.2673ZM79.0344 81.0504L78.8692 82.5348L80.3567 82.04L79.0344 81.0504ZM79.0344 77.4218L80.3567 78.5764L81.0179 76.7621L79.0344 77.4218ZM73.7454 82.2049L75.3982 82.5348L74.9023 80.7205L73.7454 82.2049ZM80.8526 83.0296L80.0261 82.8646L80.1914 83.6893L80.8526 83.0296Z" data-darkreader-inline-fill="" style="--darkreader-inline-fill: var(--darkreader-background-ff593e, #a71700);"/>
<path fill="#FF593E" d="M79.1995 86.9876L78.7036 86.8227L78.8689 87.6473L79.1995 86.9876ZM67.6296 89.6266L67.1338 89.4616L67.2991 90.2863L67.6296 89.6266ZM69.4478 83.3591L70.1089 84.6785L71.1006 83.3591H69.4478ZM80.687 77.4214L81.844 78.411L82.3399 76.9266L80.687 77.4214ZM64.8198 84.3487L66.3074 85.6681L66.9685 83.524L64.8198 84.3487ZM70.77 91.6058L71.2659 92.2655L71.5964 91.2759L70.77 91.6058ZM81.844 86.3279L82.5052 86.8227L82.8357 86.1629L81.844 86.3279ZM75.7285 83.524L76.2244 84.5136L77.0508 83.6889L75.7285 83.524ZM77.3814 82.2045L76.7202 83.0292L77.8772 83.1941L77.3814 82.2045ZM75.5633 81.7097L76.0591 82.6993L76.8855 81.7097H75.5633ZM74.0757 82.6993L74.5715 83.6889L75.398 82.8643L74.0757 82.6993ZM74.5715 85.5032L73.9104 85.3383L74.0757 85.998L74.5715 85.5032ZM77.2161 86.3279L76.5549 86.1629L76.7202 86.9876L77.2161 86.3279ZM71.5964 92.2655L72.0923 92.7603L72.4229 91.9356L71.5964 92.2655ZM71.4312 89.9564L71.2659 90.4512L71.927 90.6162L71.4312 89.9564ZM68.2908 88.9668L67.9602 88.3071L67.2991 88.9668H68.2908Z" data-darkreader-inline-fill="" style="--darkreader-inline-fill: var(--darkreader-background-ff593e, #a71700);"/>
<path fill="#FF593E" d="M69.1179 92.7609V93.5856L69.9443 93.2557L69.1179 92.7609ZM67.6304 89.1323L66.9692 89.7921L67.7957 90.2869L67.6304 89.1323Z" data-darkreader-inline-fill="" style="--darkreader-inline-fill: var(--darkreader-text-ff593e, #ff5f45);"/>
<path fill="#FF593E" d="M67.1343 89.1319L67.4648 89.6267L67.7954 88.967L67.1343 89.1319ZM63.4981 91.9358L62.5063 92.5956L63.8286 93.0904L63.4981 91.9358ZM65.9773 92.5956L66.6384 93.0904L66.8037 92.2657L65.9773 92.5956ZM69.4483 90.7813L70.1094 91.2761L70.2747 90.4514L69.4483 90.7813ZM66.6384 94.4098L67.1343 94.9046L67.4648 94.08L66.6384 94.4098ZM67.4648 90.6163L67.1343 91.1111H67.9607L67.4648 90.6163ZM88.6211 83.8541L87.1336 83.3593L87.4641 85.1735L88.6211 83.8541ZM77.5471 84.8437L76.886 84.6787L77.0513 85.5034L77.5471 84.8437ZM68.9524 92.7605L68.2913 92.5956L68.4566 93.4202L68.9524 92.7605Z" data-darkreader-inline-fill="" style="--darkreader-inline-fill: var(--darkreader-background-ff593e, #a71700);"/>
<path fill="#AF2500" d="M89.2808 101.667L89.9419 100.843L88.7849 100.678L89.2808 101.667ZM101.512 104.636L102.338 103.482L100.851 103.152L101.512 104.636ZM104.652 104.636L103.165 102.657L101.677 104.636H104.652ZM99.0325 104.471L101.016 104.636L100.52 102.657L99.0325 104.471ZM87.1321 100.018L87.7932 99.6882L87.1321 99.1934V100.018ZM85.6445 98.2038L85.1487 98.8635L86.1404 99.1934L85.6445 98.2038ZM81.6777 98.0389L82.5042 98.6986L82.8347 97.709L81.6777 98.0389ZM85.4793 99.6882L86.3057 100.678L86.9668 99.1934L85.4793 99.6882Z" data-darkreader-inline-fill="" style="--darkreader-inline-fill: var(--darkreader-background-af2500, #8c1e00);"/>
<path fill="#AF2500" d="M86.9678 100.183L85.9761 101.173L87.4636 101.833L86.9678 100.183ZM99.3641 104.472L98.8682 102.822L97.2154 104.307L99.3641 104.472ZM89.447 102.492L89.1165 100.678L87.6289 101.833L89.447 102.492ZM92.918 103.317L92.2569 101.668L90.9346 102.987L92.918 103.317ZM82.0093 96.5549L82.5051 96.225L82.0093 95.7302V96.5549ZM88.2901 100.843L87.9595 100.018L87.2984 100.678L88.2901 100.843ZM99.8599 96.0601L100.521 95.7302L99.8599 95.4003V96.0601ZM85.1497 95.8951L85.6455 96.3899L85.8108 95.7302L85.1497 95.8951ZM87.1331 97.0497L86.3067 96.8847L86.4719 97.8743L87.1331 97.0497ZM89.1165 97.0497V96.3899L88.4554 96.5549L89.1165 97.0497ZM83.4968 94.7406H84.158L83.8274 94.0808L83.4968 94.7406ZM96.389 95.5653L97.0501 95.4003L96.7196 94.7406L96.389 95.5653ZM89.447 94.5756H90.1082L89.7776 93.751L89.447 94.5756ZM90.7693 95.4003L90.2735 96.0601L91.0999 96.225L90.7693 95.4003ZM94.5709 103.812L96.0584 104.142L95.7278 102.492L94.5709 103.812ZM87.1331 97.8743L86.3067 99.1938L87.9595 99.3587L87.1331 97.8743ZM96.0584 97.5445L95.8931 97.0497L95.3973 97.5445H96.0584ZM99.1988 100.183L100.025 99.3587L98.8682 99.0289L99.1988 100.183ZM95.0667 96.225L95.3973 96.5549L95.5625 96.0601L95.0667 96.225ZM93.7444 94.7406L94.075 94.9055V94.2458L93.7444 94.7406ZM100.356 102.822L100.686 101.173L98.8682 101.668L100.356 102.822ZM92.918 103.482L94.5709 103.647L94.2403 101.833L93.2486 102.163L92.918 103.482Z" data-darkreader-inline-fill="" style="--darkreader-inline-fill: var(--darkreader-background-af2500, #8c1e00);"/>
<path fill="#AF2500" d="M94.2405 102.162L95.5628 101.667L94.5711 100.513L93.9099 101.337L94.2405 102.162ZM95.8933 103.646L96.885 104.141L97.8767 103.976L97.2156 102.162L95.8933 103.646ZM97.2156 100.678L98.3726 102.492L99.3643 101.832L99.8601 100.678H97.2156ZM100.191 99.1932L101.348 99.8529L101.678 98.3685L100.191 99.1932ZM100.687 101.997L101.678 103.811L103.166 101.997H100.687ZM90.6042 101.172L89.4473 102.492L91.2654 102.987L90.6042 101.172ZM92.7529 99.3581L91.1001 99.8529L92.2571 101.337L92.7529 99.3581ZM103.827 97.214L102.835 97.5439L103.496 98.3685L103.827 97.214Z" data-darkreader-inline-fill="" style="--darkreader-inline-fill: var(--darkreader-background-af2500, #8c1e00);"/>
<path fill="#AF2500" d="M110.438 97.709L109.281 98.0389L109.942 99.0285L110.438 97.709ZM94.7359 102.162L96.7193 102.822V100.513L94.7359 102.162ZM83.8271 100.018L85.48 100.843L85.3147 99.3583L83.8271 100.018ZM93.083 99.5233L94.4053 99.0285L93.4136 97.8739L93.083 99.5233ZM97.0498 98.0389L97.5457 98.5337L97.8763 97.8739L97.0498 98.0389ZM95.0664 98.6986L94.9012 98.0389L94.24 98.6986H95.0664ZM91.7608 102.657V101.832L90.9344 101.997L91.7608 102.657ZM88.6204 99.0285L88.9509 100.348L90.1079 99.3583L88.6204 99.0285Z" data-darkreader-inline-fill="" style="--darkreader-inline-fill: var(--darkreader-background-af2500, #8c1e00);"/>
<path fill="#AF2500" d="M94.7363 99.8536L95.8933 100.678L96.0586 99.0289L94.7363 99.8536ZM96.5544 99.8536L97.7114 100.513L97.8767 98.864L96.5544 99.8536ZM100.025 101.503L101.182 102.328L101.348 100.678L100.025 101.503ZM90.439 99.6886L90.6042 100.348L91.1001 99.8536L90.439 99.6886ZM92.7529 98.2042L92.4224 99.0289L93.2488 98.864L92.7529 98.2042ZM92.7529 101.668L94.2405 101.503L94.571 100.843L92.9182 99.5237L92.7529 101.668Z" data-darkreader-inline-fill="" style="--darkreader-inline-fill: var(--darkreader-text-af2500, #ff7652);"/>
<path fill="#AF2500" d="M92.5867 101.832L93.0826 101.502L92.5867 101.337V101.832ZM91.595 98.0388L91.9256 97.544H91.2645L91.595 98.0388ZM93.4131 96.3894L93.7437 95.8946L93.2479 95.7297L93.4131 96.3894ZM89.4463 100.843L89.7769 101.337L90.2727 100.678L89.4463 100.843ZM84.3225 97.8738L84.1573 98.6985L84.9837 98.5336L84.3225 97.8738ZM88.6199 98.6985V97.7089L87.6282 98.2037L88.6199 98.6985ZM99.0328 102.822L98.0411 101.502L97.2146 103.152L99.0328 102.822ZM91.2645 100.183V99.3582L90.438 99.853L91.2645 100.183ZM83.6614 96.5544L83.992 97.2141L84.3225 96.3894L83.6614 96.5544ZM102.504 95.7297L102.834 96.3894L103.165 95.7297H102.504ZM91.7603 96.2245L92.4214 96.0596L91.9256 95.3998L91.7603 96.2245ZM92.752 96.8842L92.9173 97.544L93.4131 97.0492L92.752 96.8842ZM83.6614 116.182L81.3474 116.676L82.835 118.82L83.6614 116.182ZM100.52 97.8738H101.347L100.851 97.0492L100.52 97.8738ZM109.941 101.173L111.594 101.008L110.603 99.5232L109.941 101.173ZM114.735 94.905L115.065 95.7297L115.561 95.07L114.735 94.905ZM109.115 95.5648L109.28 96.2245L109.776 95.7297L109.115 95.5648ZM78.3723 120.305L77.5459 118.656L76.2236 120.14L78.3723 120.305ZM106.636 103.482L106.966 101.832L105.148 102.327L106.636 103.482ZM103.661 103.317L103.826 102.492L102.834 102.657L103.661 103.317ZM104.157 101.337L104.487 100.348L103.33 100.678L104.157 101.337ZM84.4878 109.419L83.992 106.78L82.0086 108.1L84.4878 109.419ZM83.8267 106.615L83.1655 104.471L82.0086 106.285L83.8267 106.615ZM78.3723 105.956L77.8765 105.131L77.2154 105.956H78.3723ZM80.521 105.131L80.0252 104.306L79.364 105.131H80.521ZM74.5708 121.294L74.4055 119.81L72.918 120.635L74.5708 121.294ZM75.232 120.47L75.8931 120.965L76.0584 119.975L75.232 120.47ZM75.0667 119.15L76.0584 119.81L76.3889 118.326L75.0667 119.15ZM108.289 99.6881L108.784 98.6985H107.462L108.289 99.6881ZM112.421 96.3894L112.586 95.5648L111.76 95.7297L112.421 96.3894ZM76.7195 111.893L76.3889 111.069L75.7278 111.728L76.7195 111.893ZM75.232 107.77L75.8931 107.44L75.3972 106.78L75.232 107.77Z" data-darkreader-inline-fill="" style="--darkreader-inline-fill: var(--darkreader-background-af2500, #8c1e00);"/>
<path fill="#AF2500" d="M80.5213 108.595L79.6948 106.945L78.5379 108.265L80.5213 108.595ZM82.6699 107.275L81.8435 105.626L80.6865 107.11L82.6699 107.275ZM78.5379 103.482L78.2073 102.822L77.5462 103.482H78.5379ZM103 101.832L103.496 99.6883L101.016 100.348L103 101.832ZM106.967 100.018L105.148 99.1935V101.503L106.967 100.018ZM109.115 103.317L107.628 102.657V104.471L109.115 103.317ZM117.545 101.503L116.057 100.678L115.727 102.492L117.545 101.503ZM103.991 102.822H105.314L104.653 101.338L103.991 102.822ZM76.885 107.605L76.3892 107.935L76.885 108.43V107.605ZM78.3726 111.234L78.042 110.904L77.8767 111.399L78.3726 111.234ZM71.4307 113.543L71.7612 113.048H71.1001L71.4307 113.543ZM74.9016 104.636L75.2322 104.142H74.5711L74.9016 104.636ZM76.2239 101.832L76.5544 101.338L75.8933 101.173L76.2239 101.832ZM74.7363 112.388L74.2405 111.893L74.0752 112.718L74.7363 112.388ZM76.885 110.079L76.2239 109.584L75.8933 110.574L76.885 110.079ZM71.1001 114.862L71.4307 114.367H70.7695L71.1001 114.862ZM105.314 98.3688L105.975 99.0285L106.305 98.0389L105.314 98.3688ZM77.2156 123.439L76.5544 121.954L75.3975 123.274L77.2156 123.439ZM81.1824 112.388L80.356 111.893L80.1907 113.048L81.1824 112.388ZM83.3311 112.718L82.0088 111.893L81.8435 113.543L83.3311 112.718ZM83.8269 115.027L82.3394 114.532L82.6699 116.347L83.8269 115.027ZM110.933 103.482L111.429 102.822L110.603 102.657L110.933 103.482ZM111.925 103.812L112.917 103.482L111.595 102.987L111.925 103.812ZM103.496 99.8532L104.653 100.183L104.487 98.8636L103.496 99.8532Z" data-darkreader-inline-fill="" style="--darkreader-inline-fill: var(--darkreader-background-af2500, #8c1e00);"/>
<path fill="#AF2500" d="M105.148 97.544L106.14 97.8739L105.975 96.7194L105.148 97.544ZM88.9507 97.709L90.273 98.2038L90.1077 96.5544L88.9507 97.709ZM110.933 101.832L111.925 103.152L112.752 101.667L110.933 101.832Z" data-darkreader-inline-fill="" style="--darkreader-inline-fill: var(--darkreader-background-af2500, #8c1e00);"/>
<path fill="#AF2500" d="M112.587 101.008L111.595 102.327L113.248 102.657L112.587 101.008ZM107.794 103.647L106.802 103.317L106.967 104.307L107.794 103.647ZM109.116 104.307L111.099 103.977L110.438 102.657L109.116 104.307ZM104.819 104.636H106.802L105.149 102.657L104.819 104.636ZM79.1997 104.636L78.8692 103.977L78.208 104.636H79.1997ZM81.3484 112.553L81.8443 112.223L81.3484 111.729V112.553ZM79.8608 101.998L80.3567 101.503L79.5303 101.338L79.8608 101.998ZM79.365 103.152L79.8608 103.482L80.0261 102.822L79.365 103.152ZM82.6707 109.09L81.0178 108.76L81.679 110.739L82.6707 109.09ZM79.0344 114.532L78.208 114.697L78.7039 115.357L79.0344 114.532ZM83.9929 114.532L84.1582 112.883L82.3401 113.543L83.9929 114.532ZM79.1997 110.079L78.7039 108.925L77.7122 109.914L79.1997 110.079ZM80.8525 116.182L82.0095 115.687L81.0178 114.532L80.8525 116.182ZM77.2163 114.038L78.3733 113.213L77.051 112.388L77.2163 114.038ZM80.0261 114.862L81.0178 114.038L79.6956 113.378L80.0261 114.862ZM78.5386 119.81L79.6956 118.986L78.3733 118.161L78.5386 119.81ZM84.4888 109.914L82.1748 110.904L84.3235 112.718L84.4888 109.914ZM83.0012 104.307L82.1748 102.327L80.522 104.142L83.0012 104.307ZM77.7122 108.925L78.5386 108.1L77.3816 107.605L77.7122 108.925ZM80.8525 105.791L79.6956 106.121L80.6873 107.275L80.8525 105.791ZM77.7122 104.142L77.2163 103.482L76.8858 104.142H77.7122ZM78.5386 101.833L79.0344 101.338L78.3733 101.173L78.5386 101.833ZM71.9273 119.81L72.4231 118.821H71.2661L71.9273 119.81ZM75.7288 123.109L76.0593 122.284H75.0676L75.7288 123.109ZM78.7039 121.954L79.5303 120.47H77.5469L78.7039 121.954ZM73.0842 120.305L73.4148 119.48H72.5884L73.0842 120.305ZM75.5635 120.635L75.8941 119.975H75.0676L75.5635 120.635ZM76.2246 117.501L75.5635 117.171L75.7288 117.996L76.2246 117.501ZM81.1831 110.904L80.0261 110.079L79.6956 111.564L81.1831 110.904ZM78.0427 116.017L77.5469 115.687V116.347L78.0427 116.017ZM112.091 99.3586L111.761 98.8638L111.43 99.3586H112.091ZM114.405 99.3586L114.074 98.8638L113.744 99.3586H114.405ZM114.901 100.678L114.405 100.018L113.744 100.843L114.901 100.678ZM78.7039 117.666L78.0427 117.501V118.161L78.7039 117.666ZM75.0676 121.954L75.3982 121.13H74.5718L75.0676 121.954ZM76.2246 121.295L76.3899 122.449L77.5469 121.79L76.2246 121.295Z" data-darkreader-inline-fill="" style="--darkreader-inline-fill: var(--darkreader-background-af2500, #8c1e00);"/>
<path fill="#AF2500" d="M78.3721 121.625L78.7026 123.109L80.1902 122.12L78.3721 121.625ZM74.5706 122.284H75.2317L75.0664 121.625L74.5706 122.284ZM74.5706 120.305L74.9011 119.81H74.0747L74.5706 120.305ZM77.0498 119.645H77.7109L77.3804 118.986L77.0498 119.645ZM78.2068 100.018L78.0415 100.843L78.8679 100.678L78.2068 100.018ZM80.5207 98.0391L80.3554 98.6989L81.0166 98.5339L80.5207 98.0391ZM79.529 99.8534L79.3638 100.513L80.0249 100.348L79.529 99.8534ZM79.0332 97.5443L78.3721 97.3794L78.5374 98.0391L79.0332 97.5443ZM79.529 98.6989L79.1985 99.3586H80.0249L79.529 98.6989ZM81.6777 104.636L81.3471 105.131L82.1736 105.296L81.6777 104.636ZM81.843 101.833L80.8513 101.503L81.0166 102.822L81.843 101.833ZM81.6777 101.668L81.1819 100.018L79.6943 101.173L81.6777 101.668Z" data-darkreader-inline-fill="" style="--darkreader-inline-fill: var(--darkreader-background-af2500, #8c1e00);"/>
<path fill="#AF2500" d="M81.1819 100.018V98.8638L80.1902 99.3586L81.1819 100.018ZM80.0249 116.347L78.7026 116.182L79.0332 117.666L80.0249 116.347Z" data-darkreader-inline-fill="" style="--darkreader-inline-fill: var(--darkreader-background-af2500, #8c1e00);"/>
<path fill="#AF2500" d="M82.0098 120.14L81.8445 118.491L80.1917 119.315L82.0098 120.14ZM79.3653 117.996V117.336L78.7041 117.666L79.3653 117.996ZM80.8528 118.161V116.841L79.5305 117.501L80.8528 118.161ZM74.4068 118.82L75.729 118.491L74.7373 117.501L74.4068 118.82ZM79.2 116.017L80.3569 115.687L79.3653 114.697L79.2 116.017ZM106.637 100.843L107.959 101.337L107.794 99.853L106.637 100.843ZM109.282 102.162L108.29 101.667V102.822L109.282 102.162ZM110.108 102.657L110.604 101.173L108.786 101.502L110.108 102.657ZM115.562 102.657L114.075 101.502V103.152L115.562 102.657ZM108.786 100.348L109.447 100.678L109.282 99.6881L108.786 100.348ZM110.604 96.5544L111.265 96.7193V96.0596L110.604 96.5544ZM76.5554 117.501L77.2166 117.336L76.7207 116.841L76.5554 117.501ZM78.7041 123.109L77.7124 121.954L77.0513 123.439L78.7041 123.109ZM81.8445 120.47L79.8611 119.81L80.0264 121.954L81.8445 120.47ZM72.9192 117.171L72.0928 117.006L72.4233 117.831L72.9192 117.171ZM107.959 96.8842L107.463 96.3894L107.133 97.0492L107.959 96.8842ZM117.876 101.337V99.5232L116.058 100.513L117.876 101.337ZM115.397 99.3582L116.885 99.853V98.3686L115.397 99.3582Z" data-darkreader-inline-fill="" style="--darkreader-inline-fill: var(--darkreader-background-af2500, #8c1e00);"/>
<path fill="#AF2500" d="M115.561 97.709L114.57 98.2038L115.561 99.0285V97.709ZM117.214 100.018L118.536 100.513L118.371 98.8636L117.214 100.018ZM118.371 93.9156L118.867 94.4104L119.032 93.5857L118.371 93.9156ZM117.379 97.709L118.206 97.3792L117.545 96.7194L117.379 97.709ZM123.495 92.5961L123.826 93.0909L124.321 92.4312L123.495 92.5961ZM119.693 97.874L119.528 96.8844L118.702 97.3792L119.693 97.874ZM122.999 95.7298L123.495 94.5753H122.173L122.999 95.7298ZM119.032 100.183L120.52 98.6986L118.206 97.874L119.032 100.183ZM122.173 96.8844L120.189 96.5545L120.685 98.6986L122.173 96.8844ZM121.677 95.8948L122.338 96.3896L122.503 95.4L121.677 95.8948ZM118.371 96.3896L119.528 96.5545L119.032 95.235L118.371 96.3896ZM120.685 94.7402L121.677 94.9052L121.181 93.7506L120.685 94.7402ZM123.991 93.7506L123.33 93.2558L123.164 94.0805L123.991 93.7506ZM113.743 100.348L113.578 99.3584L112.586 100.183L113.743 100.348ZM112.09 101.667L112.752 100.843L111.595 100.513L112.09 101.667ZM113.743 102.327L113.413 101.338L112.586 101.997L113.743 102.327ZM115.231 101.338L115.065 100.348L114.074 101.173L115.231 101.338ZM115.727 96.5545L116.388 96.8844V96.0597L115.727 96.5545ZM112.752 97.5441L113.247 97.709V96.8844L112.752 97.5441ZM71.9265 117.006L71.1001 116.841L71.2654 117.666L71.9265 117.006ZM73.0835 119.15V118.491L72.4223 118.821L73.0835 119.15ZM76.3892 118.491L77.0503 118.821L77.2156 117.996L76.3892 118.491ZM73.9099 115.357L73.4141 114.697L72.9182 115.522L73.9099 115.357ZM78.3726 117.666L78.7031 116.841L77.7114 116.676L78.3726 117.666ZM77.3808 117.666L76.7197 117.336L76.885 118.161L77.3808 117.666ZM79.199 113.378L79.5295 112.388L78.3726 112.553L79.199 113.378ZM76.7197 114.037L75.8933 113.873L76.0586 114.862L76.7197 114.037ZM74.4058 117.336L73.5793 117.171L73.9099 117.996L74.4058 117.336ZM75.2322 112.883L74.4058 112.718L74.571 113.543L75.2322 112.883ZM76.3892 116.511L76.2239 116.017L75.5627 116.347L76.3892 116.511ZM82.1741 99.1934L83.6616 99.8532L83.4964 98.6986L82.1741 99.1934ZM112.256 98.8636L112.752 99.0285V98.3688L112.256 98.8636ZM74.0752 115.357L74.571 115.192L74.0752 114.532V115.357Z" data-darkreader-inline-fill="" style="--darkreader-inline-fill: var(--darkreader-background-af2500, #8c1e00);"/>
<path fill="white" d="M114.735 130.861C111.76 130.861 109.281 126.738 109.281 122.119C109.281 117.501 111.76 113.378 114.735 113.378C115.231 113.378 115.892 113.543 116.388 113.708V111.893C115.892 111.729 115.397 111.564 114.901 111.564C110.934 111.564 107.793 116.347 107.793 122.119C107.793 127.892 110.934 132.675 114.901 132.675H115.562L115.727 131.026C115.231 130.696 114.901 130.861 114.735 130.861Z" data-darkreader-inline-fill="" style="--darkreader-inline-fill: var(--darkreader-background-ffffff, #181a1b);"/>
<path fill="#CCCCCC" d="M121.843 121.954C121.843 117.006 119.529 112.718 116.223 111.728V113.542C118.372 114.697 120.025 117.996 120.025 121.954C120.025 126.242 118.041 129.871 115.397 130.531L115.231 132.18C119.033 131.85 121.843 127.397 121.843 121.954Z" data-darkreader-inline-fill="" style="--darkreader-inline-fill: var(--darkreader-background-cccccc, #35393b);"/>
<path fill="#FE4938" d="M117.462 207.967C117.462 207.967 144.156 250.108 154.568 264.457C163.824 277.157 168.122 281.94 175.725 283.095C181.84 283.919 202.997 284.084 210.93 284.084C213.409 284.084 213.575 283.919 213.74 285.569L217.872 327.792C218.037 329.441 217.541 329.441 215.393 329.936C205.641 332.575 173.08 340.657 149.445 338.512C122.504 336.203 112.091 330.266 102.504 311.958C89.1163 287.218 117.462 207.967 117.462 207.967Z" data-darkreader-inline-fill="" style="--darkreader-inline-fill: var(--darkreader-background-fe4938, #aa0f01);"/>
<path fill="url(#paint3_linear_3933_1931)" d="M187.625 283.754L197.872 334.059C197.872 334.059 160.518 341.151 143.164 337.853C130.933 335.544 107.628 332.74 107.793 315.587C108.123 280.786 113.958 201.337 113.958 201.337C113.958 201.337 155.56 271.054 167.13 279.796C175.063 285.899 187.625 283.754 187.625 283.754Z"/>
<path fill="#FE4938" d="M10.6069 346.759L36.7217 198.318C41.3497 180.341 40.8042 165.793 62.9522 166.123C91.9429 166.816 121.016 199.473 132.09 241.366C140.354 272.704 148.619 346.594 148.619 346.594L10.6069 346.759Z" data-darkreader-inline-fill="" style="--darkreader-inline-fill: var(--darkreader-background-fe4938, #aa0f01);"/>
<path fill="url(#paint4_linear_3933_1931)" d="M10.6069 346.759L36.7217 198.318C41.3497 180.34 32.1764 164.144 65.3984 166.123C89.8603 166.618 120.52 198.318 131.594 240.211C139.859 271.549 148.619 346.594 148.619 346.594L10.6069 346.759Z"/>
<path fill="#FE4938" d="M75.5636 176.547C56.2255 156.92 18.8714 164.837 -3.7724 217.946C-26.4162 271.054 -24.5981 302.557 -16.4992 331.09C-8.40033 359.624 11.4337 396.074 11.4337 396.074L58.7047 378.426C58.7047 378.426 42.6722 325.483 44.6556 302.062C46.639 278.476 68.2911 249.283 77.0511 234.439C85.8112 219.595 96.0587 197.329 75.5636 176.547Z" data-darkreader-inline-fill="" style="--darkreader-inline-fill: var(--darkreader-background-fe4938, #aa0f01);"/>
<path fill="#FE4938" d="M78.2073 194.525L75.8933 195.515L77.8767 197.494L78.2073 194.525ZM72.753 197.164L75.8933 196.01L72.9182 194.195L72.753 197.164ZM70.9348 187.763L71.2654 184.959L68.7861 185.784L70.9348 187.763ZM70.1084 183.97L70.439 181.825L68.7861 182.485L70.1084 183.97ZM74.5711 191.886H76.3892L75.5628 190.567L74.5711 191.886ZM61.8442 191.227L62.836 190.072L61.1831 189.577L61.8442 191.227ZM60.522 197.824L58.5386 197.494L59.1997 199.143L60.522 197.824ZM68.4556 191.557L67.2986 192.381L68.6209 193.206L68.4556 191.557ZM66.3069 206.566L67.2986 206.236L66.968 206.73H67.9597L67.1333 208.05L67.9597 207.885L69.282 209.369L70.2737 206.73L68.4556 207.225L67.9597 206.73L68.4556 206.566L67.7945 205.081L67.4639 205.741L66.8027 205.081L66.3069 206.566ZM68.7861 190.237L67.9597 188.423L67.1333 190.237H68.7861ZM64.4888 180.506L65.811 179.516L64.1582 179.186L64.4888 180.506ZM64.8194 168.796L62.6707 171.105L65.9763 172.259L64.8194 168.796ZM73.2488 183.475L73.0835 187.433L77.2156 185.784L73.2488 183.475ZM69.282 176.712L67.2986 178.362L69.9431 179.681L69.282 176.712ZM70.6043 173.744L68.6209 175.393L70.6043 176.383L69.7779 178.692L72.2571 178.032L69.7779 180.671L73.9099 182.155L72.4224 178.032L73.2488 177.702L74.0752 180.176L74.5711 179.846L75.728 181.001L74.0752 183.805L77.5462 183.475V184.135L76.885 184.629L77.5462 185.124V185.949L80.356 184.959L78.2073 187.763L77.0503 187.103L76.885 190.072L80.0254 188.918L79.6949 188.753H81.3477L79.199 189.577L81.1824 191.557L81.513 188.753H81.6783L81.513 191.557L83.4964 190.897L81.1824 193.041L79.5296 192.051L79.199 195.02L81.0171 194.36L83.1658 194.69L82.67 196.175L81.513 195.185L81.3477 196.01L80.1907 194.69L79.199 197.164L77.7115 198.154L75.8933 196.505L75.0669 199.473L77.8767 198.979L78.2073 199.143L77.8767 199.473L79.0337 199.803L78.042 201.947H78.5379L76.7198 204.421L79.6949 204.916L79.0337 201.947L81.1824 201.782L79.6949 198.979L79.5296 197.494L81.1824 197.329L81.0171 197.989L81.513 197.824L81.3477 198.319L81.1824 198.484H81.3477L81.0171 200.298L84.3228 199.473L87.2979 200.463L86.3062 194.855L85.4798 195.515L84.6534 194.525L86.4715 194.855L84.6534 189.412L84.3228 189.577L82.1741 188.258H83.9922L81.1824 183.31L80.356 184.299L78.3726 183.145L80.6865 182.98L77.3809 178.197L76.3892 179.846L76.5545 178.197L76.2239 178.362L76.885 177.867L74.4058 177.372L76.3892 176.712L72.2571 172.754L71.2654 175.393L70.6043 173.744ZM83.6617 196.669L83.0005 196.01L84.8186 195.845L83.6617 196.669ZM72.5877 199.803H74.0752L73.4141 198.319L72.5877 199.803Z" data-darkreader-inline-fill="" style="--darkreader-inline-fill: var(--darkreader-background-fe4938, #aa0f01);"/>
<path fill="#FE4938" d="M65.3154 198.649L63.9932 199.473L65.4807 200.298L65.3154 198.649ZM70.935 187.763L72.5879 188.423L72.092 186.774L70.935 187.763ZM64.6543 174.568L65.8113 177.372L68.1252 174.898H67.7947L71.7615 172.424L66.803 169.62L66.1418 174.733L64.6543 174.568ZM70.2739 192.711L72.7532 193.041L71.9267 190.402L70.2739 192.711ZM73.0837 216.132V216.462L70.935 218.606L70.4392 218.276L70.1086 219.925L68.9516 220.42L70.1086 221.41L70.2739 220.915L72.5879 219.76L70.935 218.606L74.0754 219.925L73.7448 218.441L75.2324 217.616L73.0837 216.132ZM83.4965 211.679L81.5131 213.988L82.8354 214.317L80.5214 214.647V214.482V214.647H79.695L80.0256 215.142L78.7033 216.791L79.695 217.121L79.5297 218.111L80.852 217.451L81.8437 217.781L81.5131 217.121L81.8437 216.956L84.1577 219.595L85.9758 214.153H84.4882L83.4965 211.679ZM82.3395 217.616L79.695 219.101L81.5131 220.42H77.5463L81.6784 225.698L83.9924 220.42H82.3395V217.616Z" data-darkreader-inline-fill="" style="--darkreader-inline-fill: var(--darkreader-background-fe4938, #aa0f01);"/>
<path fill="#FE4938" d="M78.2078 216.791L75.5633 218.441H75.7286L75.398 218.771L77.0508 219.925L76.8856 219.265L78.3731 220.42L78.2078 216.791ZM78.0425 207.06L79.6954 205.906L78.2078 205.081L78.0425 207.06ZM77.5467 215.637L75.8939 215.967L77.2161 217.121L77.5467 215.637ZM59.6961 210.689H61.6795L60.3572 209.204L59.6961 210.689ZM70.6048 212.833L71.5965 211.678L70.2742 211.348L70.6048 212.833ZM61.1836 220.255L59.6961 221.08L61.3489 221.739L61.1836 220.255ZM53.9111 197.329L53.7459 199.143L55.564 198.484L53.9111 197.329ZM64.8199 197.659L65.481 196.175L63.9934 196.34L64.8199 197.659ZM58.8696 209.039L58.3738 207.72L57.2168 208.874L58.8696 209.039ZM71.5965 202.772L71.9271 200.958L72.4229 201.123L72.5882 199.143L72.0923 199.473V199.143L70.1089 199.803L69.6131 198.978L70.4395 197.989L68.4561 197.824L68.7867 198.814L68.2908 199.638L70.1089 199.803L69.1172 200.298L71.5965 202.772ZM73.7452 190.567L75.398 190.402L74.0757 189.247L73.7452 190.567ZM82.1746 200.298L82.8358 201.782L83.001 201.288L83.1663 201.782L84.4886 200.793L83.4969 200.463V200.298H82.1746ZM57.878 181.001L56.2251 181.99L57.5474 183.145L57.878 181.001ZM60.5225 171.27L59.8614 172.589H61.5142L60.5225 171.27ZM68.7867 183.31L67.2991 183.145L67.9602 184.794L68.7867 183.31ZM72.4229 207.72L72.9187 208.05L73.084 207.06L73.4146 207.225L73.5799 205.741L72.2576 206.565L71.1006 206.73L72.0923 208.215L72.4229 207.72ZM81.3482 211.678L81.1829 213.163L82.6705 212.173L81.3482 211.678ZM85.8109 208.05L83.1663 207.885L83.6622 209.039L82.0093 209.369L82.3399 205.906L78.7037 207.39L81.8441 210.524V210.359L86.1414 213.658L87.1331 208.05L85.4803 208.545L85.8109 208.05ZM77.8773 211.843L76.7203 211.678H75.7286V211.843H75.2327L76.0591 213.328L76.2244 212.998L76.7203 214.317L77.5467 212.998L81.3482 213.987L79.5301 209.699L77.8773 211.843ZM83.3316 202.112L83.6622 202.442L82.1746 203.102L82.6705 202.112L80.0259 201.947L81.0177 204.751L81.8441 203.597L84.4886 205.246L83.3316 207.225L86.8026 207.555L85.6456 205.906L86.9678 206.73L87.2984 200.958L85.315 201.782L83.3316 202.112ZM67.2991 216.132L66.638 217.781H68.6214L67.2991 216.132ZM64.4893 214.647L63.0017 214.317L63.4976 215.967L64.4893 214.647ZM70.6048 202.772L69.2825 203.597L70.4395 204.421L70.6048 202.772ZM63.6629 210.524L64.4893 208.545L62.1753 209.204L63.6629 210.524ZM67.4644 227.347L67.1338 229.656L65.481 228.337L64.8199 231.141L67.1338 230.151L66.9686 230.316L69.6131 228.831L67.4644 227.347ZM74.4063 226.357L73.9105 229.326L76.555 227.842L74.4063 226.357ZM64.8199 226.193L64.9851 226.852L65.3157 226.522L67.1338 227.677L66.8033 224.213L65.6463 225.038L64.4893 224.708L64.6546 225.533L64.324 225.698L64.8199 226.193ZM76.7203 228.667L74.0757 230.151L75.0674 230.811L72.7535 230.646L72.5882 228.007L69.9436 229.491L72.7535 231.47L75.5633 235.759L74.4063 234.439L73.5799 236.418L75.5633 235.924L75.7286 236.254L78.5384 231.141L76.7203 230.976V228.667ZM75.2327 223.389L77.3814 224.873L77.2161 221.409L74.5716 222.894L75.0674 223.224L72.7535 224.873L75.398 226.687V225.698L78.869 230.976L81.5135 225.863L75.398 225.533L75.2327 223.389ZM74.5716 214.482L75.8939 213.163L74.4063 212.668L74.5716 214.482L74.241 214.152L73.7452 215.967L75.5633 215.142L74.5716 214.482ZM70.7701 225.698L71.2659 224.378H69.6131L70.7701 225.698ZM63.0017 213.493L64.324 213.658L63.9934 212.008L63.0017 213.493ZM56.721 216.297L55.8945 214.482L54.9029 215.802L56.721 216.297ZM65.1504 220.255L66.4727 219.1L65.1504 218.606V220.255ZM54.2417 227.017L54.407 225.533L52.7542 226.028L54.2417 227.017ZM61.1836 222.729L60.3572 224.213L62.1753 224.543L61.1836 222.729ZM57.5474 221.739L58.7044 220.585L57.3821 220.09L57.5474 221.739ZM51.9277 256.046L51.4319 258.849L54.0764 257.365L51.9277 256.046ZM56.5557 260.829L54.407 259.344L53.9111 262.148L54.2417 261.983L53.7459 263.138L54.5723 262.808L54.2417 264.457L52.7542 264.292L52.5889 260.829L49.9444 262.313L52.5889 264.127L51.5972 263.962L52.9195 265.777L52.5889 267.921L53.9111 267.261L55.0681 268.91L51.5972 268.581L51.1013 265.777L50.6055 266.107V264.787L48.9526 265.612L50.1096 266.436L48.7874 267.591L49.2832 267.921L46.804 269.24L49.1179 270.725L49.6138 268.086L50.6055 268.581H49.9444L53.25 273.694L51.2666 272.704L51.1013 275.013H48.2915L48.7874 274.683L46.9692 273.694L46.804 276.003L47.961 275.178L48.4568 276.003L45.4817 276.332L46.9692 279.301L46.1428 279.136L46.4734 281.116H45.1511L46.6387 282.93L45.1511 284.414L44.9858 283.919L43.6636 285.239L42.0107 284.579L42.176 287.383L44.3247 285.404L45.4817 285.734H44.8206L43.6636 285.899L44.9858 287.053V287.548L45.1511 287.383L47.1676 289.296L48.4899 285.948L45.4817 285.569L44.9858 284.249L47.2998 285.074L46.4734 282.6L48.6221 285.536L50.1757 281.083L46.3081 280.456L47.6304 279.136L49.4485 280.291L49.1179 277.487L47.1345 278.806L47.2998 278.971L46.804 278.806L48.1262 275.673L50.7046 279.466L52.5228 275.343L50.936 274.683L52.5889 273.529L53.1509 274.898L55.1343 270.444L55.2995 270.213L57.7788 265.595L57.911 265.463L59.7291 262L54.7376 261.175L56.5557 260.845V260.829ZM55.0681 264.787L56.8863 263.797L57.878 265.117L55.0681 264.787ZM56.8863 263.633L55.564 262.808L55.8945 262.643L55.0681 261.818L55.3987 261.653L56.8863 263.633ZM54.2417 251.757L51.7625 253.407L54.5723 255.221L54.2417 251.757Z" data-darkreader-inline-fill="" style="--darkreader-inline-fill: var(--darkreader-background-fe4938, #aa0f01);"/>
<path fill="#FE4938" d="M58.5391 253.571L55.8946 255.056L57.2168 256.045H56.721L57.3821 257.035L56.721 256.54L56.0599 259.344L58.2086 258.519L60.0267 261.818L63.1671 256.21L58.5391 256.045V253.571ZM64.324 234.934L66.9686 236.913L66.8033 233.285L64.324 234.934ZM64.4893 240.542L61.1837 241.696L63.4976 243.675L64.4893 240.542ZM67.795 237.573L64.4893 238.727L66.8033 240.707L67.795 237.573ZM59.6961 246.809L59.2002 249.448V248.623L56.3904 250.438H56.0599L56.2252 250.603L55.8946 250.768L56.2252 251.097L56.5557 251.922L56.8863 251.427L59.5308 253.406L59.2002 249.613L61.8448 248.294L59.6961 246.809ZM47.961 266.271L50.4402 264.622L48.1262 263.467L47.961 266.271ZM64.4893 235.923L63.6629 237.738L65.6463 237.243L64.4893 235.923ZM59.6961 245.49L58.0433 245.16L58.8697 246.644L59.6961 245.49ZM53.5806 233.12L54.9029 233.614V231.965L53.5806 233.12ZM63.0018 231.47V235.099L65.9769 232.79L63.0018 231.47ZM58.0433 229.491V233.12L60.8531 230.975L58.0433 229.491ZM59.035 233.614V237.408L61.8448 235.099L59.035 233.614ZM69.1173 216.626L72.0924 214.482L69.1173 213.163V216.626ZM76.8856 208.874L74.0758 207.39V211.018L76.8856 208.874ZM73.2493 204.916L76.0592 202.607L73.2493 201.287V204.916ZM46.3081 247.634V251.262L49.118 248.953L46.3081 247.634ZM54.2417 230.481L55.7293 229.326L53.7459 228.831L54.2417 230.481ZM63.9935 225.038L63.8282 223.224L62.5059 224.048L63.9935 225.038ZM61.8448 236.748L61.1837 238.233L62.8365 237.738L61.8448 236.748ZM56.2252 219.76L58.0433 218.935L56.2252 218.111V219.76ZM66.8033 216.131L67.1339 214.482L65.8116 214.977L66.8033 216.131ZM63.1671 228.172L63.6629 227.017L62.0101 227.182L62.3406 227.677L61.6795 228.666L63.3323 228.501L63.1671 228.172ZM44.1594 265.447L43.8289 267.261L42.6719 267.591L43.8289 268.745L43.9942 268.251L46.3081 266.931L44.1594 265.447ZM33.416 258.025H35.2341L34.7383 257.2L36.0605 256.21L34.0771 255.716L34.2424 256.705L34.0771 256.375L33.416 258.025Z" data-darkreader-inline-fill="" style="--darkreader-inline-fill: var(--darkreader-background-fe4938, #aa0f01);"/>
<path fill="#FE4938" d="M45.3167 258.85L43.8292 258.52L44.1597 260.169L45.3167 258.85ZM35.0691 269.076L34.9038 267.591L33.4163 268.251L35.0691 269.076ZM27.6314 244.666L27.4661 246.315L29.2842 245.82L27.6314 244.666ZM38.5401 244.996L39.0359 243.346L37.7136 243.511L38.5401 244.996ZM32.094 255.056L30.937 256.211L32.5899 256.376L32.094 255.056ZM36.722 261.489L37.2178 263.138L38.2095 261.984L36.722 261.489ZM37.2178 257.86L38.2095 255.881L35.7303 256.376L37.2178 257.86ZM42.8374 245.49L42.5069 245.985L41.0193 245.82L41.6805 247.305L42.011 246.975L43.8292 247.14L42.8374 245.49ZM48.1265 260.004L48.2918 261.654L47.7959 261.324L47.3001 263.303L49.2835 262.478L48.2918 261.819L49.6141 260.499L48.1265 260.004ZM38.5401 273.364L38.7054 274.189L39.0359 273.859L40.854 275.013L40.5235 271.55L39.3665 272.21L38.2095 272.045L38.3748 272.869L38.0442 273.034L38.5401 273.364ZM43.3333 271.55L44.4903 273.034L44.9861 271.55H43.3333ZM36.5567 260.664L38.0442 260.829L37.5484 259.345L36.5567 260.664ZM30.4412 263.468L29.6148 261.654L28.6231 263.138L30.4412 263.468ZM38.8707 267.097L38.2095 267.427L39.5318 268.251L39.3665 266.932L40.1929 266.437L38.7054 265.777L38.8707 267.097ZM28.1272 272.869L26.4744 273.199L27.9619 274.354L28.1272 272.869ZM34.9038 269.901L33.9121 271.385L35.8955 271.715L34.9038 269.901ZM31.1023 268.911L32.4246 267.921L31.1023 267.262V268.911ZM27.9619 277.817L29.4495 276.498L27.4661 276.003L27.9619 277.817ZM37.5484 270.56L36.2261 271.385L37.5484 272.21V270.56ZM36.5567 285.074L35.3997 283.92L34.9038 285.569L36.5567 285.074ZM29.9453 267.097L31.7635 266.107L29.9453 265.282V267.097ZM40.5235 263.468L40.854 261.819L39.5318 262.314L40.5235 263.468ZM35.3997 276.003L37.0525 275.838L36.2261 274.684L35.3997 276.003ZM41.8457 237.573L40.6888 235.924L39.8623 237.573H41.8457ZM50.7711 239.718L51.928 238.398L50.4405 238.068L50.7711 239.718ZM41.5152 248.624V247.14L40.0276 247.964L41.5152 248.624ZM34.2427 224.214L33.9121 225.863L35.8955 225.368L34.2427 224.214ZM45.1514 224.544L45.6473 222.894L44.1597 223.059L45.1514 224.544ZM46.9695 244.666L48.9529 244.501L47.6307 243.016L46.9695 244.666ZM49.2835 247.305L50.4405 248.294L50.6058 247.799L52.7545 246.48L50.7711 245.16L50.4405 246.81L49.2835 247.305ZM43.3333 241.202L43.6639 242.686L44.6556 241.367L43.3333 241.202ZM43.8292 237.409L44.6556 235.429L42.3416 235.924L43.8292 237.409ZM50.4405 226.688L49.4488 225.038L48.6224 226.523L50.4405 226.688ZM54.9031 241.367L54.4073 241.037L53.9114 242.851L55.8948 242.027L54.9031 241.367L56.2254 240.047L54.7378 239.553L54.9031 241.367ZM47.1348 250.933L45.8126 251.758L44.6556 251.593L44.8208 252.418L44.4903 252.582L44.9861 253.077L45.3167 253.737L45.6473 253.407L47.4654 254.562L47.1348 250.933ZM51.5975 251.098H49.9446L50.9363 252.418L51.5975 251.098ZM44.1597 238.893L43.168 240.212L44.6556 240.377L44.1597 238.893ZM37.0525 243.016L36.0608 241.202L35.0691 242.686L37.0525 243.016ZM45.3167 246.975L46.8042 245.985L45.3167 245.325V246.975ZM34.7386 252.418L33.0857 252.747L34.408 253.902L34.7386 252.418ZM40.5235 250.933L42.5069 251.263L41.5152 249.614L40.5235 250.933ZM37.7136 246.81V248.459L39.0359 247.47L37.7136 246.81ZM42.8374 250.933L44.1597 251.758V250.108L42.8374 250.933ZM41.8457 264.953L42.1763 265.777L43.4986 264.623L43.0027 264.458L42.011 263.633L41.6805 264.293L41.0193 263.468L40.3582 264.953H41.5152V265.117L41.8457 264.953ZM57.2171 246.81V244.666L57.0518 244.831L57.3824 242.027L54.5726 243.676L56.7212 244.996L55.5643 245.49L57.2171 246.81ZM36.5567 246.645L38.3748 245.655L36.3914 244.831L36.5567 246.645ZM47.4654 241.367L45.9778 241.697L47.1348 243.016L47.4654 241.367ZM42.8374 254.232L41.8457 255.551L43.6639 255.386L42.8374 254.232ZM68.7869 242.521L69.9439 242.686L68.9522 241.202L68.2911 242.521H68.6217L68.2911 244.501L66.1424 244.006L67.4647 243.346L65.4813 241.862L64.9854 243.676H64.159L66.1424 247.634L64.159 248.459L63.8284 248.294L65.316 246.315L61.3492 245.655L62.3409 249.944L63.3326 248.789L62.8368 250.108L60.3575 249.779L61.6797 252.418L59.2005 253.572L61.6797 255.716L61.845 252.747L63.3326 255.716L66.6382 250.933L63.6632 250.438L65.316 249.779L66.473 250.768L66.6382 248.624L67.1341 249.449L70.2745 244.831L69.4481 244.666L70.7703 243.841L68.7869 242.521ZM44.9861 259.675L45.9778 260.829L46.639 259.345L44.9861 259.675ZM73.2496 235.759L72.2579 236.254L71.9273 235.759L71.4315 236.749L71.2662 236.914L71.1009 234.275L72.2579 235.099L72.0926 231.636L69.4481 233.12L69.9439 233.45L67.63 234.935L68.2911 235.429L67.2994 235.924L69.9439 237.903V236.584L70.7703 237.079L70.6051 237.244L72.0926 238.233L67.9605 237.738L71.2662 243.511L74.2413 238.563L73.2496 238.398V235.759ZM56.556 239.718L57.2171 239.223L57.3824 239.553L58.5394 238.563L57.0518 238.233V238.563L56.2254 238.398L56.556 239.718ZM58.8699 241.862L59.3658 244.171L61.6797 242.521L58.8699 241.862ZM53.2503 248.459L53.7462 249.944L55.2337 248.789L53.2503 248.459ZM57.3824 235.429L58.5394 234.44L57.0518 234.11L57.3824 235.429ZM45.6473 272.869L43.0027 274.519L45.3167 275.838L45.6473 272.869ZM44.6556 281.446L45.1514 278.312L42.3416 279.962L44.6556 281.446ZM50.1099 258.19L48.9529 259.015L50.2752 259.675L50.1099 258.19ZM49.7793 270.395L49.4488 271.88L50.1099 271.55L49.7793 272.704L51.2669 272.539L50.4405 271.55L50.7711 271.385L49.7793 270.395ZM49.6141 241.202L49.4488 239.718L48.4571 240.542L49.6141 241.202ZM49.1182 252.088L48.7877 253.572L50.2752 252.747L49.1182 252.088ZM31.2676 227.512L30.937 229.162L32.7551 228.502L31.2676 227.512ZM42.011 227.842L42.6722 226.193L41.1846 226.358L42.011 227.842ZM34.408 238.893L36.0608 239.223L35.565 237.903L34.408 238.893ZM40.854 240.707L41.6805 238.563L39.3665 239.223L40.854 240.707ZM46.1431 228.832L44.4903 228.667L45.1514 230.151L45.6473 229.657L47.4654 229.987L46.4737 228.337L46.1431 228.832ZM51.7627 244.666L53.085 243.346L51.5975 242.686L51.7627 244.666ZM44.1597 218.771L43.4986 220.42H45.482L44.1597 218.771ZM54.0767 220.915L54.4073 222.564L55.5643 221.245L54.0767 220.915ZM45.1514 231.471L44.9861 229.987L43.4986 230.646L45.1514 231.471ZM37.8789 207.061L37.5484 208.71L39.3665 208.05L37.8789 207.061ZM49.2835 205.741L47.7959 205.906L48.6224 207.226L49.2835 205.741ZM42.1763 217.452L41.0193 218.606L42.6722 218.771L42.1763 217.452ZM52.4239 227.348L51.1016 225.863L50.4405 227.348H52.4239ZM47.3001 225.533L48.2918 224.214L46.8042 223.884L47.3001 225.533ZM48.2918 218.111L45.9778 218.771L47.3001 220.255L48.2918 218.111ZM52.9197 207.885L52.0933 209.37L54.0767 209.535L52.9197 207.885ZM58.3741 224.049L57.8782 223.719L57.3824 225.698L59.3658 224.874L58.3741 224.214L59.6964 222.894L58.2088 222.235L58.3741 224.049ZM54.5726 235.429L55.2337 233.945H53.4156L54.5726 235.429ZM46.639 223.059L48.1265 223.224L47.7959 221.74L46.639 223.059ZM40.5235 225.863L39.6971 224.049L38.7054 225.368L40.5235 225.863ZM48.9529 228.172V229.822L50.2752 228.832L48.9529 228.172ZM38.2095 235.759L39.0359 235.924L38.7054 234.605L37.8789 235.264L36.722 235.594L38.0442 236.749L38.2095 235.759ZM41.3499 231.306L42.5069 230.316L41.1846 229.657L41.3499 231.306ZM40.0276 229.492L41.8457 228.502L40.0276 227.677V229.492ZM50.9363 224.214L49.6141 224.544L50.6058 225.698L50.9363 224.214ZM45.482 238.398L47.1348 238.233L46.3084 236.914L45.482 238.398ZM52.9197 222.564L51.928 223.389L53.2503 224.049L52.9197 222.564ZM52.5892 235.594H52.2586L52.4239 235.759L52.2586 236.254L52.7545 236.089L53.5809 236.749L53.9114 235.264L53.4156 235.429L52.7545 234.77L52.5892 235.594ZM31.4329 274.354L32.7551 273.034L30.937 272.869L31.4329 274.354ZM39.0359 278.972L38.7054 280.456L40.0276 279.797L39.0359 278.972ZM28.6231 304.042L29.7801 302.722L27.9619 302.557L28.6231 304.042ZM36.3914 296.29L35.3997 297.115L36.722 297.939L36.3914 296.29ZM35.7303 310.144L37.2178 309.485L36.0608 308.66L35.7303 310.144ZM34.408 266.272L35.565 264.953L33.7469 264.788L34.408 266.272ZM42.1763 258.52L41.1846 259.51L42.5069 260.169L42.1763 258.52ZM42.011 271.055L41.6805 272.375L43.0027 271.715L42.011 271.055ZM32.7551 298.599L33.9121 297.115L32.4246 296.95L32.7551 298.599ZM23.6646 307.341L23.4993 305.856L22.0117 306.681L23.6646 307.341ZM16.0615 284.745L17.8796 284.085L16.2268 282.93L16.0615 284.745ZM27.1355 283.26L27.6314 281.776L26.1438 281.941L27.1355 283.26ZM21.1853 294.641L20.6895 293.321L19.5325 294.476L21.1853 294.641ZM26.6397 300.248L25.3174 299.919L25.648 301.568L26.6397 300.248ZM25.8132 296.125L26.6397 294.146L24.3257 294.806L25.8132 296.125ZM31.4329 283.92L30.6065 285.239L32.4246 285.404L31.4329 283.92ZM36.722 298.269L36.8872 300.083L36.3914 299.754L35.8955 301.733L37.0525 301.073L35.2344 303.382L37.8789 304.042L37.2178 301.073L37.8789 300.743L36.8872 300.083L38.2095 298.929L36.722 298.269ZM33.0857 311.299L33.5816 309.979H31.9287L33.0857 311.299ZM25.1521 299.094L26.6397 299.259L26.1438 297.609L25.1521 299.094ZM19.0366 301.898L18.2102 300.083L17.0532 301.403L19.0366 301.898ZM27.3008 304.207L27.4661 305.691L28.7884 304.702L27.3008 304.207ZM16.7227 311.134L15.0698 311.629L16.5574 312.618L16.7227 311.134ZM19.8631 307.341L21.02 306.186L19.6978 305.691L19.8631 307.341ZM18.5408 303.712V305.361L20.3589 304.372L18.5408 303.712ZM28.1272 300.578L29.1189 301.733L29.4495 300.083L28.1272 300.578ZM23.6646 280.951L25.648 281.446L24.6563 279.632L23.6646 280.951ZM35.2344 284.25L33.9121 283.755V285.404L35.2344 284.25ZM23.0034 292.167L23.334 290.682L21.6812 291.177L23.0034 292.167ZM28.7884 271.88L26.6397 271.385L27.1355 273.034L28.7884 271.88ZM36.8872 267.591V265.777L35.565 266.602L36.8872 267.591ZM35.7303 280.291L34.7386 279.302L34.0774 280.786L35.7303 280.291ZM15.5657 278.147L15.2351 279.962L17.2185 279.302L15.5657 278.147ZM26.9702 276.993L25.4827 277.158L26.3091 278.477L26.9702 276.993ZM19.8631 288.703L18.7061 289.693L20.3589 290.022L19.8631 288.703ZM25.1521 291.507L25.9785 289.363L23.6646 290.022L25.1521 291.507ZM30.7718 279.137L29.9453 280.621L31.7635 280.786L30.7718 279.137ZM35.8955 293.486L36.0608 295.465L37.5484 294.146L35.8955 293.486ZM23.9951 274.849L23.0034 276.333L24.9868 276.663L23.9951 274.849ZM33.251 280.621L34.5733 279.632L33.251 278.972V280.621Z" data-darkreader-inline-fill="" style="--darkreader-inline-fill: var(--darkreader-background-fe4938, #aa0f01);"/>
</g>
<defs>
<linearGradient gradientUnits="userSpaceOnUse" y2="147.611" x2="86.1287" y1="162.231" x1="74.8037" id="paint0_linear_3933_1931">
<stop stop-opacity="0" stop-color="#BC5A32" data-darkreader-inline-stopcolor="" style="--darkreader-inline-stopcolor: var(--darkreader-background-bc5a32, #964828);"/>
<stop stop-color="#BC5A32" offset="0.99" data-darkreader-inline-stopcolor="" style="--darkreader-inline-stopcolor: var(--darkreader-background-bc5a32, #964828);"/>
</linearGradient>
<linearGradient gradientUnits="userSpaceOnUse" y2="97.782" x2="88.4606" y1="111.761" x1="94.4884" id="paint1_linear_3933_1931">
<stop stop-opacity="0" stop-color="#BC5A32" data-darkreader-inline-stopcolor="" style="--darkreader-inline-stopcolor: var(--darkreader-background-bc5a32, #964828);"/>
<stop stop-color="#BC5A32" offset="0.99" data-darkreader-inline-stopcolor="" style="--darkreader-inline-stopcolor: var(--darkreader-background-bc5a32, #964828);"/>
</linearGradient>
<linearGradient gradientUnits="userSpaceOnUse" y2="125.203" x2="67.3458" y1="133.994" x1="66.7862" id="paint2_linear_3933_1931">
<stop stop-opacity="0" stop-color="#CC7A5E" data-darkreader-inline-stopcolor="" style="--darkreader-inline-stopcolor: var(--darkreader-background-cc7a5e, #87422b);"/>
<stop stop-color="#AA5F4B" offset="0.92" data-darkreader-inline-stopcolor="" style="--darkreader-inline-stopcolor: var(--darkreader-background-aa5f4b, #884c3c);"/>
</linearGradient>
<linearGradient gradientUnits="userSpaceOnUse" y2="266.246" x2="115.313" y1="288.698" x1="189.575" id="paint3_linear_3933_1931">
<stop stop-opacity="0" stop-color="#F5B421" offset="0.01" data-darkreader-inline-stopcolor="" style="--darkreader-inline-stopcolor: var(--darkreader-background-f5b421, #896106);"/>
<stop stop-color="#DD6002" offset="0.985" data-darkreader-inline-stopcolor="" style="--darkreader-inline-stopcolor: var(--darkreader-background-dd6002, #b14d02);"/>
</linearGradient>
<linearGradient gradientUnits="userSpaceOnUse" y2="256.239" x2="33.8399" y1="260.638" x1="138.31" id="paint4_linear_3933_1931">
<stop stop-opacity="0" stop-color="#F5B421" offset="0.01" data-darkreader-inline-stopcolor="" style="--darkreader-inline-stopcolor: var(--darkreader-background-f5b421, #896106);"/>
<stop stop-color="#DD6002" offset="0.985" data-darkreader-inline-stopcolor="" style="--darkreader-inline-stopcolor: var(--darkreader-background-dd6002, #b14d02);"/>
</linearGradient>
<clipPath id="clip0_3933_1931">
<rect fill="white" rx="7.62343" height="217.268" width="150.563" data-darkreader-inline-fill="" style="--darkreader-inline-fill: var(--darkreader-background-ffffff, #181a1b);"/>
</clipPath>
</defs>
</svg>