<svg width="158" height="224" viewBox="0 0 158 224" fill="none" xmlns="http://www.w3.org/2000/svg">
<g clip-path="url(#clip0_1816_3074)">
<path d="M73.4124 137.324L61.0161 177.732L57.3799 187.134C57.3799 187.134 62.669 193.896 75.2305 196.535C83.8253 198.349 89.6102 198.514 93.4117 198.184C96.5521 197.854 100.354 197.195 98.3702 191.422C95.5604 182.845 96.5521 177.403 96.5521 177.403L101.015 153.157L73.4124 137.324Z" fill="#EA9D7D"/>
<path d="M71.5952 159.095C75.6266 164.768 80.9519 169.404 87.1319 172.619C92.9168 175.423 97.0489 176.083 97.0489 176.083L100.85 155.961L73.7439 137.324L72.2564 140.127L71.0994 144.746C70.6035 144.746 67.7937 153.322 71.5952 159.095Z" fill="url(#paint0_linear_1816_3074)"/>
<path d="M58.373 187.299H58.2077C57.8772 187.134 57.7119 186.804 57.7119 186.475L65.4802 162.724C66.9677 157.776 71.4304 141.118 71.4304 141.118C71.5956 140.788 71.9262 140.623 72.2568 140.623C72.5873 140.788 72.7526 141.118 72.7526 141.448L66.8025 163.054C65.4802 167.507 59.0342 186.639 59.0342 186.639C59.0342 187.134 58.7036 187.299 58.373 187.299Z" fill="#CF7653"/>
<path d="M78.041 146.89L78.3716 147.715L79.0327 146.89H78.041Z" fill="#A84D3B"/>
<path d="M78.0415 145.735L77.7109 147.219L79.3638 147.054L78.0415 145.735ZM86.9668 152.167V153.982L88.7849 153.157L86.9668 152.167ZM82.5042 149.364L82.1736 151.013L84.157 150.518L82.5042 149.364ZM80.0249 147.549L79.6943 149.199L81.6778 148.704L80.0249 147.549Z" fill="#A84D3B"/>
<path d="M77.0491 144.25L76.2227 145.9H78.2061L77.0491 144.25ZM89.28 155.961L88.6189 154.971L87.9578 156.291L89.28 155.961ZM87.1313 154.147L86.1397 152.992L85.6438 154.311L87.1313 154.147ZM93.908 157.775L92.751 156.456L92.2551 157.94L93.908 157.775ZM98.7012 159.424L97.7095 158.27L97.2136 159.589L98.7012 159.424ZM90.1065 153.652L88.9495 153.157V154.476L90.1065 153.652ZM92.4204 158.765L91.594 157.775L90.9329 159.095L92.4204 158.765ZM85.9744 152.002L84.8174 151.508V152.827L85.9744 152.002Z" fill="#A84D3B"/>
<path d="M94.5703 155.466L93.0828 154.807V156.951L94.5703 155.466ZM97.876 156.126L96.5537 155.796L96.8843 157.446L97.876 156.126ZM99.8594 158.765L98.7024 158.6L99.1982 159.92L99.8594 158.765ZM95.3967 158.27L94.7356 157.281L93.9092 158.435L95.3967 158.27ZM99.3635 162.064L99.5288 160.909L98.2066 161.404L99.3635 162.064ZM98.8677 164.373L99.1982 163.218L97.876 163.548L98.8677 164.373ZM96.0579 164.373L95.3967 164.868L96.3884 165.362L96.0579 164.373ZM96.719 157.94L96.0579 158.435L96.8843 158.93L96.719 157.94ZM100.355 156.786L99.5288 156.621L99.6941 157.611L100.355 156.786ZM97.3801 166.187L96.719 166.847L97.5454 167.177L97.3801 166.187ZM80.8518 149.034L80.1907 149.529L81.1824 150.024L80.8518 149.034ZM75.3975 141.447L74.7363 142.107L75.5627 142.437L75.3975 141.447ZM92.0911 157.116L91.5952 156.621L91.2647 157.446L92.0911 157.116ZM87.2979 155.796L87.6284 154.972L86.802 155.137L87.2979 155.796ZM89.7771 157.281L89.9424 156.621H89.116L89.7771 157.281ZM93.2481 160.414L93.5786 161.239L94.2398 160.579L93.2481 160.414ZM98.0413 157.281L97.3801 157.611L98.2066 158.105L98.0413 157.281Z" fill="#A84D3B"/>
<path d="M98.3706 156.291L97.379 156.951L98.5359 157.611L98.3706 156.291ZM96.2219 157.116L95.5608 157.446L96.3872 157.941L96.2219 157.116ZM96.8831 168.826L96.2219 169.156L97.0484 169.651L96.8831 168.826ZM95.2303 166.847L95.3955 167.507L96.0567 167.012L95.2303 166.847ZM95.065 162.889L95.2303 163.549L95.8914 163.054L95.065 162.889ZM98.2054 164.538L97.7095 164.043L97.379 164.868L98.2054 164.538ZM75.231 156.786L75.5615 157.116L75.8921 156.456L75.231 156.786ZM78.2061 154.642L77.8755 154.972L78.5366 155.137L78.2061 154.642ZM81.677 160.58L81.1812 160.415V160.91L81.677 160.58ZM80.0242 157.776L79.6936 158.271H80.3548L80.0242 157.776ZM91.2634 163.054V163.878L92.2552 163.549L91.2634 163.054ZM89.7759 155.467V156.291L90.7676 155.962L89.7759 155.467ZM89.9412 153.817V154.807L90.7676 154.312L89.9412 153.817ZM77.0491 148.869V149.694L78.0408 149.364L77.0491 148.869ZM96.8831 160.91L96.2219 161.075L96.7178 161.734L96.8831 160.91ZM94.4038 167.672L94.0733 167.012L93.5774 167.672H94.4038ZM95.065 159.095L95.3955 159.92L96.0567 159.095H95.065ZM97.5442 160.085L98.0401 160.91L98.7012 160.085H97.5442ZM99.3623 157.116L98.8665 157.611L99.6929 157.941L99.3623 157.116ZM98.3706 162.229L97.7095 161.899V162.724L98.3706 162.229ZM79.6936 147.715L78.7019 148.375L79.8589 149.034L79.6936 147.715ZM76.3879 148.869L75.8921 148.54L75.7268 149.199L76.3879 148.869ZM73.0823 147.22L72.5864 146.89L72.4211 147.55L73.0823 147.22ZM72.0906 152.333L72.2559 151.838H71.5947L72.0906 152.333Z" fill="#A84D3B"/>
<path d="M78.5369 148.704L78.8674 149.364L79.3633 148.704H78.5369ZM76.5535 147.055L76.8841 148.209L77.8758 147.22L76.5535 147.055ZM76.0576 142.601L75.5618 143.591L76.8841 143.756L76.0576 142.601ZM81.1814 150.683L80.6856 151.013L81.3467 151.343L81.1814 150.683ZM82.3384 150.023L81.8426 150.353L82.5037 150.683L82.3384 150.023ZM83.6607 150.683L83.1648 151.013L83.826 151.343L83.6607 150.683ZM81.3467 154.971L80.8509 154.642L80.6856 155.301L81.3467 154.971ZM71.4297 149.364L71.7603 150.023L72.2561 149.364H71.4297ZM75.0659 145.57L74.7354 146.065L75.2312 146.23L75.0659 145.57ZM74.9007 151.838L74.4048 151.508V152.168L74.9007 151.838ZM75.5618 144.91L75.8924 145.57L76.3882 144.91H75.5618ZM77.0493 145.9L77.3799 146.56L77.8758 145.9H77.0493ZM73.2478 144.086L72.9173 144.581L73.4131 144.91L73.2478 144.086ZM73.9089 142.436L73.4131 142.107L73.2478 142.931L73.9089 142.436ZM82.669 151.508V152.332L83.3301 152.003L82.669 151.508ZM85.6441 152.992L85.1482 153.157L85.4788 153.652L85.6441 152.992ZM84.3218 151.673L83.826 151.838L84.1565 152.332L84.3218 151.673ZM95.3958 156.621L94.9 156.786L95.2305 157.28L95.3958 156.621ZM93.0818 155.466L92.4207 155.631L92.9166 156.126L93.0818 155.466ZM85.3135 156.786L84.983 156.126L84.4871 156.786H85.3135ZM94.5694 164.867L94.2388 164.373L93.743 164.867H94.5694ZM84.3218 154.971L83.9913 154.477L83.6607 154.971H84.3218ZM88.6192 154.147V154.806L89.4456 154.477L88.6192 154.147ZM91.429 154.642V155.466L92.0901 155.136L91.429 154.642ZM94.2388 156.126L93.743 156.291L94.0736 156.951L94.2388 156.126ZM92.0901 159.59L91.7596 159.095L91.429 159.59H92.0901ZM84.8177 159.425V160.084L85.6441 159.755L84.8177 159.425ZM88.1233 157.61L87.4622 157.775L87.958 158.27L88.1233 157.61ZM93.743 158.93L93.4124 158.435L93.0818 158.93H93.743Z" fill="#A84D3B"/>
<path d="M113.577 97.7399C113.577 97.7399 118.37 105.492 119.196 109.12C119.858 111.763 120.191 114.478 120.188 117.202C120.188 124.129 119.692 133.86 118.866 139.303C117.213 148.705 112.75 154.312 107.461 155.962C102.172 157.611 92.5857 154.147 86.1397 150.849C80.6853 148.045 77.5449 145.076 76.7185 141.612C75.8921 137.984 74.2393 133.366 74.2393 133.366L74.5698 122.645L87.2966 95.5958L113.577 97.7399Z" fill="#EA9D7D"/>
<path d="M80.8511 127.593C80.8511 127.593 90.4375 116.872 96.553 114.563C108.288 109.78 119.693 110.275 119.693 110.275L117.875 104.502L84.4873 100.049L77.2148 120.831L80.8511 127.593Z" fill="url(#paint1_linear_1816_3074)"/>
<path d="M70.7678 140.953C75.6059 140.953 79.5279 136.744 79.5279 131.551C79.5279 126.359 75.6059 122.15 70.7678 122.15C65.9298 122.15 62.0078 126.359 62.0078 131.551C62.0078 136.744 65.9298 140.953 70.7678 140.953Z" fill="#EA9D7D"/>
<path d="M70.7681 141.613C65.479 141.613 61.1816 136.994 61.1816 131.552C61.1816 125.944 65.479 121.491 70.7681 121.491C76.0572 121.491 80.3545 126.109 80.3545 131.552C80.3545 136.994 76.0572 141.613 70.7681 141.613ZM70.7681 122.81C66.3054 122.81 62.6692 126.768 62.6692 131.552C62.6692 136.335 66.3054 140.293 70.7681 140.293C75.2307 140.293 78.867 136.335 78.867 131.552C78.867 126.604 75.2307 122.81 70.7681 122.81Z" fill="#B76349"/>
<path d="M71.0986 135.675C73.2895 135.675 75.0655 133.829 75.0655 131.551C75.0655 129.274 73.2895 127.428 71.0986 127.428C68.9078 127.428 67.1318 129.274 67.1318 131.551C67.1318 133.829 68.9078 135.675 71.0986 135.675Z" fill="url(#paint2_linear_1816_3074)"/>
<path d="M80.3545 125.614L77.5447 128.088L76.3877 137.324L76.8835 139.963C76.8835 139.963 80.8503 137.819 81.1809 133.531C81.5115 129.243 80.3545 125.614 80.3545 125.614Z" fill="#EA9D7D"/>
<path d="M102.006 156.621C100.188 156.621 98.7003 156.291 95.3946 155.467C89.2903 153.677 83.65 150.581 78.8662 146.395C75.23 142.767 75.5606 139.303 75.5606 139.138C75.5606 138.808 75.5606 138.314 75.8911 138.314C76.2217 138.314 76.387 138.643 76.5523 138.973C76.7176 139.633 76.7175 142.437 79.6926 145.406C84.2929 149.421 89.7042 152.402 95.5599 154.147C100.684 155.302 101.675 155.632 105.477 155.302C109.113 154.972 111.262 153.488 111.262 153.488C111.758 153.158 112.254 152.993 111.923 153.488C111.592 153.817 108.948 155.962 105.642 156.456C104.155 156.621 103.163 156.621 102.006 156.621Z" fill="#B76349"/>
<path d="M102.668 131.716L103.825 130.727L102.337 130.232L102.668 131.716ZM88.1228 131.057L87.7922 130.232L86.9658 131.057H88.1228ZM107.296 132.706L108.949 133.696L109.114 131.716L107.296 132.706ZM102.998 124.294L105.147 125.614L105.478 122.975L102.998 124.294Z" fill="#F4B9A6"/>
<path d="M102.999 122.975L105.148 121.656L102.999 120.006V122.975ZM107.957 137.654L110.106 136.335L107.957 134.85V137.654ZM110.106 135.015L110.932 132.706H108.123L110.106 135.015ZM102.172 130.232L100.85 130.562L101.677 131.717L102.172 130.232ZM103.164 128.418L101.677 128.748L102.668 129.902L103.164 128.418ZM102.834 135.51L103.329 136.83L104.486 135.675L102.834 135.51ZM103.495 137.984L104.652 138.644L104.982 137.324L103.495 137.984ZM110.271 141.943L108.949 142.437L109.941 143.592L110.271 141.943ZM104.817 113.739L104.321 114.893L105.809 114.728L104.817 113.739ZM106.139 121.986L104.982 121.821L105.478 122.975L106.139 121.986ZM107.296 117.862L106.139 117.697L106.47 118.852L107.296 117.862ZM97.7097 120.171L97.5444 121.656L99.032 120.996L97.7097 120.171ZM100.85 117.862L99.6931 118.687L101.015 119.512L100.85 117.862ZM95.3958 119.841H94.5693L95.0652 120.666L95.3958 119.841ZM107.957 142.107L106.8 142.437L107.627 143.262L107.957 142.107ZM106.635 141.283L105.478 141.613L106.304 142.602L106.635 141.283ZM96.718 134.026L95.561 134.191L96.2222 135.345L96.718 134.026ZM99.5278 136.17L98.3709 136.5L99.032 137.489L99.5278 136.17ZM95.7263 130.397L95.561 131.387L96.8833 131.057L95.7263 130.397ZM101.677 129.078L101.181 128.088L100.354 129.078H101.677ZM113.742 138.644L114.403 137.984L113.246 137.819L113.742 138.644ZM109.114 135.345L109.775 135.51V134.685L109.114 135.345ZM116.552 127.758V128.418L117.213 128.088L116.552 127.758ZM113.081 131.387L113.908 131.552L113.577 130.727L113.081 131.387Z" fill="#F4B9A6"/>
<path d="M116.881 128.913L117.046 128.254L116.22 128.419L116.881 128.913ZM92.7498 122.646L92.2539 123.471H93.2456L92.7498 122.646ZM103.493 117.368L104.981 117.038L103.824 115.884L103.493 117.368ZM104.981 134.356L107.956 133.532L105.477 131.057L104.981 134.356ZM102.667 123.141L101.51 122.976L101.675 124.13L102.667 123.141ZM94.072 131.057V130.068L92.7498 130.563L94.072 131.057ZM100.683 119.842L100.849 121.326L102.171 120.337L100.683 119.842ZM98.8653 122.316L99.0305 123.635L100.353 122.976L98.8653 122.316ZM100.353 121.326L100.518 122.811L101.84 121.986L100.353 121.326ZM112.749 119.842L113.906 120.337V119.017L112.749 119.842ZM102.832 126.934L102.171 126.109L101.345 127.264L102.832 126.934ZM108.452 140.624L107.295 140.954L108.121 141.943L108.452 140.624ZM103.328 133.532L102.997 134.356H104.154L103.328 133.532ZM104.485 139.304L103.989 138.48L103.493 139.469L104.485 139.304ZM106.138 140.129L106.799 139.469L105.807 139.139L106.138 140.129ZM106.634 137.985L107.46 137.325L106.303 136.83L106.634 137.985Z" fill="#F4B9A6"/>
<path d="M106.47 136.83L107.461 136.005L106.139 135.51L106.47 136.83ZM105.809 131.717L106.635 131.057L105.478 130.562L105.809 131.717ZM103.495 132.211L104.321 132.706L104.652 131.882L103.495 132.211ZM113.412 139.963L112.42 140.128L113.081 140.953L113.412 139.963ZM108.123 130.727L107.792 131.552L108.949 131.387L108.123 130.727ZM110.767 140.788L110.106 139.963L109.61 140.953L110.767 140.788ZM104.982 144.087L105.147 145.241L106.139 144.417L104.982 144.087ZM102.007 138.809L101.181 139.139L102.007 139.798V138.809ZM91.7595 127.758L91.0984 126.934L90.6025 128.088L91.7595 127.758ZM102.833 141.118L103.495 141.448L103.66 140.458L102.833 141.118ZM99.8584 139.469L100.52 139.798L100.685 138.644L99.8584 139.469ZM94.5693 140.623L94.2388 141.613L95.3957 141.448L94.5693 140.623ZM98.2056 144.252H97.2139L97.5444 145.241L98.2056 144.252ZM94.7346 145.571L93.9082 145.406L94.0735 146.396L94.7346 145.571ZM104.156 130.067L106.139 129.573L104.486 127.923L104.156 130.067ZM102.668 125.449L103.164 126.274L103.825 125.449H102.668ZM102.833 127.263L103.825 128.748L105.147 126.934L102.833 127.263ZM108.453 123.965L107.131 125.119L109.114 125.779L108.453 123.965ZM96.2222 127.263V126.274L95.2305 126.769L96.2222 127.263ZM106.635 126.439L105.974 127.099L106.966 127.428L106.635 126.439ZM102.833 120.666L103.99 120.501L103.164 119.512L102.833 120.666ZM110.271 123.305L111.428 122.975L110.437 121.986L110.271 123.305ZM102.172 123.305L103.495 122.975L102.503 122.15L102.172 123.305ZM110.437 117.862L111.594 117.532L110.767 116.543L110.437 117.862ZM106.47 115.223L105.643 115.883L106.8 116.213L106.47 115.223ZM97.3792 118.687V117.697L96.3875 118.192L97.3792 118.687ZM98.7014 133.201L98.5361 134.521L100.024 134.026L98.7014 133.201ZM96.8833 132.706L95.7263 132.871L96.3875 133.861L96.8833 132.706ZM99.3626 137.654L99.1973 138.974L100.52 138.479L99.3626 137.654ZM101.015 132.871V134.191L102.503 133.366L101.015 132.871ZM99.8584 135.345L100.024 136.665L101.346 135.84L99.8584 135.345ZM98.3708 131.717V130.727L97.3792 131.222L98.3708 131.717Z" fill="#F4B9A6"/>
<path d="M113.08 123.8L114.237 123.47L113.245 122.48L113.08 123.8ZM108.783 120.006L109.279 120.666L109.94 119.841L108.783 120.006ZM117.377 133.201L118.369 132.706L117.543 132.046L117.377 133.201ZM99.5268 118.522V117.532L98.5352 118.027L99.5268 118.522ZM106.469 120.501V121.656L107.791 121.326L106.469 120.501ZM105.146 118.357L104.981 119.512L106.303 119.017L105.146 118.357ZM105.973 129.408L107.956 130.727L108.617 128.253L105.973 129.408ZM110.766 129.408L112.915 128.748L111.427 126.769L110.766 129.408ZM105.477 130.562L106.138 130.727L105.973 129.902L105.477 130.562ZM104.485 125.944L104.155 126.769H105.312L104.485 125.944ZM106.469 123.47L105.312 123.635L105.973 124.624L106.469 123.47ZM110.105 123.965L108.948 124.13L109.609 125.119L110.105 123.965Z" fill="#F4B9A6"/>
<path d="M105.643 125.614L108.122 124.295L105.477 122.645L105.643 125.614ZM109.279 116.213L109.94 114.893H108.287L109.279 116.213ZM107.461 135.015L107.957 133.861H106.469L107.461 135.015ZM105.312 128.748L107.461 127.593L105.147 126.109L105.312 128.748ZM106.634 119.017L107.461 119.676L107.791 118.687L106.634 119.017ZM109.279 120.831L108.122 122.645L110.601 122.81L109.279 120.831ZM110.932 118.522L110.436 119.182L111.593 119.347L110.932 118.522ZM112.089 125.614L112.75 126.274L113.08 125.284L112.089 125.614ZM108.948 117.532L108.452 118.192L109.609 118.357L108.948 117.532ZM94.238 127.263L93.0811 127.593L94.0728 128.583L94.238 127.263ZM95.8909 122.315L95.395 123.305H96.7173L95.8909 122.315ZM98.3701 122.315L98.2048 121.326L97.3784 122.15L98.3701 122.315ZM97.0478 127.593L96.8826 126.604L95.8909 127.428L97.0478 127.593Z" fill="#F4B9A6"/>
<path d="M101.676 107.471L101.51 108.296H102.171L101.676 107.471ZM102.006 109.615L101.51 108.956L101.345 109.78L102.006 109.615ZM108.452 108.461L107.956 107.966L107.626 108.626L108.452 108.461ZM114.072 106.976L114.568 107.471L114.898 106.647L114.072 106.976ZM117.047 106.152L117.543 106.647L117.708 105.822L117.047 106.152ZM116.055 107.141L116.716 106.976L116.221 106.317L116.055 107.141ZM103.659 108.461L103.163 107.966L102.833 108.626L103.659 108.461ZM111.427 107.966L110.766 107.471L110.601 108.296L111.427 107.966ZM100.684 108.791L100.188 108.131L99.8574 108.956L100.684 108.791ZM85.3125 101.698V103.513L86.9653 102.523L85.3125 101.698ZM95.5601 106.152L95.2295 106.976L96.2212 106.811L95.5601 106.152ZM88.7834 103.678V104.502L89.6099 104.172L88.7834 103.678ZM88.4529 106.811L88.2876 107.636L89.2793 107.306L88.4529 106.811ZM89.2793 108.626L89.4446 109.615L90.271 108.956L89.2793 108.626ZM97.2129 107.306L96.5518 106.811L96.2212 107.471L97.2129 107.306ZM97.7088 106.647L97.874 107.801L99.031 106.976L97.7088 106.647Z" fill="#A84D3B"/>
<path d="M106.468 107.636L106.964 108.296L107.625 107.471L106.468 107.636ZM100.353 107.307L100.848 108.131L101.51 107.307H100.353ZM91.0967 105.657L91.4273 106.977L92.5842 105.987L91.0967 105.657ZM108.947 107.471L109.443 108.296L110.104 107.307L108.947 107.471ZM103.824 107.471L104.154 108.626L105.311 107.801L103.824 107.471ZM93.576 106.647L93.9065 107.307L94.5676 106.812L93.576 106.647ZM90.6008 109.616L90.4355 110.44L91.262 110.11L90.6008 109.616ZM89.7744 110.275L89.6091 110.935L90.4355 110.77L89.7744 110.275ZM95.5594 107.142L95.8899 107.471L96.0552 107.142H95.5594ZM99.1956 107.636L99.5262 107.966L99.8567 107.471L99.1956 107.636ZM105.476 108.131L105.642 108.461L105.972 108.131H105.476ZM88.948 110.77L88.4521 110.935L88.7827 111.265L88.948 110.77ZM89.4439 104.008L89.6091 105.162L90.9314 104.503L89.4439 104.008ZM89.2786 109.946L88.6174 110.11L89.1133 110.605L89.2786 109.946Z" fill="#A84D3B"/>
<path d="M88.7837 110.11L88.6184 109.285L87.792 109.945L88.7837 110.11ZM89.6101 105.162L90.2713 105.492V104.667L89.6101 105.162ZM94.4033 106.481L95.0645 106.646L94.8992 105.822L94.4033 106.481ZM87.9573 104.502V104.997L88.6184 104.832L87.9573 104.502ZM89.4448 106.481L90.106 106.646L89.9407 105.822L89.4448 106.481ZM89.2795 112.419V112.914L89.7754 112.749L89.2795 112.419ZM87.792 106.151L87.1309 106.316L87.6267 106.811L87.792 106.151ZM87.9573 110.77V111.924L89.1143 111.264L87.9573 110.77Z" fill="#A84D3B"/>
<path d="M88.2876 112.584L88.9487 112.089L88.1223 111.759L88.2876 112.584ZM88.2876 106.152L88.7834 105.657L88.1223 105.492L88.2876 106.152ZM87.2959 107.966L87.957 107.471L86.9653 106.976L87.2959 107.966ZM91.0974 107.471L91.5933 107.801L91.7585 107.141L91.0974 107.471ZM88.2876 114.398L88.9487 114.068L88.2876 113.574V114.398ZM86.4695 118.027L87.1306 117.697L86.4695 117.202V118.027ZM87.4612 102.688L87.6265 104.007L88.7834 103.678L87.4612 102.688ZM85.9736 105.492L86.4695 105.987L86.8 105.162L85.9736 105.492ZM92.585 105.162L92.9155 106.646L94.2378 105.822L92.585 105.162ZM86.4695 104.502L86.9653 104.997L87.2959 104.337L86.4695 104.502ZM96.717 108.296L97.5435 108.626L97.3782 107.801L96.717 108.296ZM112.419 107.801L113.08 108.131V107.306L112.419 107.801ZM87.7918 109.45L88.9487 108.955L87.7918 107.966V109.45ZM86.8 102.688L86.1389 103.843L87.4612 104.007L86.8 102.688Z" fill="#A84D3B"/>
<path d="M90.1055 107.802L89.4443 107.637L89.6096 108.296L90.1055 107.802ZM86.1387 103.843L85.4775 104.173L86.1387 104.668V103.843ZM92.0889 105.163L91.9236 105.822L92.5847 105.658L92.0889 105.163ZM87.7915 105.822L86.6345 105.328V106.647L87.7915 105.822Z" fill="#A84D3B"/>
<path d="M88.6182 104.008H87.957L88.2876 104.668L88.6182 104.008ZM86.1389 104.503L85.9736 104.997L86.6348 104.833L86.1389 104.503ZM91.5932 105.162L90.7668 104.503L90.6015 105.657L91.5932 105.162Z" fill="#A84D3B"/>
<path d="M74.8999 132.376V131.716L74.2388 131.881L74.8999 132.376ZM72.0901 127.593L71.2637 127.758L71.7595 128.417L72.0901 127.593Z" fill="#964C38"/>
<path d="M71.9246 127.758L71.0982 128.747L72.4204 129.077L71.9246 127.758ZM70.437 127.593L69.4453 127.922L70.2717 128.747L70.437 127.593ZM74.7344 129.902L74.2386 130.396L74.8997 130.561L74.7344 129.902ZM73.2469 129.242L72.751 129.737L73.4122 129.902L73.2469 129.242Z" fill="#964C38"/>
<path d="M74.2385 130.397L73.9079 130.892L74.5691 131.057L74.2385 130.397ZM70.6023 128.912L70.1064 129.407L70.7676 129.572L70.6023 128.912Z" fill="#964C38"/>
<path d="M69.7764 128.583L69.1152 129.242L70.2722 129.737L69.7764 128.583ZM72.4209 131.551L72.9167 131.716L73.082 131.222L72.4209 131.551ZM74.4043 129.407L74.239 129.737H74.7348L74.4043 129.407ZM74.7348 131.057L74.5696 131.386H75.0654L74.7348 131.057Z" fill="#964C38"/>
<path d="M68.7842 128.252L68.123 128.912L69.1148 129.242L68.7842 128.252ZM70.1065 130.891H69.7759L69.9412 131.221L70.1065 130.891ZM71.0982 132.211L70.9329 131.881L70.6023 132.046L71.0982 132.211ZM72.2552 128.252L72.7511 127.758L72.0899 127.593L72.2552 128.252ZM70.4371 128.252L69.9412 128.582L70.6023 128.747L70.4371 128.252ZM69.6106 128.582L69.1148 128.417V129.077L69.6106 128.582Z" fill="#964C38"/>
<path d="M69.6111 128.583V128.088L69.1152 128.253L69.6111 128.583ZM73.5779 129.407L73.9084 129.902L74.239 129.243L73.5779 129.407ZM72.9168 127.923L72.7515 129.078L73.9084 128.748L72.9168 127.923Z" fill="#964C38"/>
<path d="M72.4206 128.583L72.9164 129.077L73.0817 128.418L72.4206 128.583ZM68.4539 130.232L68.1233 130.727H68.6191L68.4539 130.232ZM71.4289 127.593L70.9331 127.428V127.923L71.4289 127.593ZM70.4372 130.562L70.7678 130.892L71.0983 130.397L70.4372 130.562ZM71.7595 132.541L71.4289 133.036L72.09 133.201L71.7595 132.541ZM68.2886 129.077L67.958 129.572H68.6191L68.2886 129.077Z" fill="#964C38"/>
<path d="M69.776 132.54L69.2802 132.375L69.4455 133.035L69.776 132.54ZM67.958 129.901H68.4538L68.1233 129.407L67.958 129.901Z" fill="#964C38"/>
<path d="M67.4622 131.881L67.7927 131.716L67.6275 131.221L67.4622 131.881ZM67.7927 130.067H68.1233L67.958 129.572L67.7927 130.067ZM68.9497 129.572V130.067L69.4456 129.737L68.9497 129.572ZM67.2969 131.056H67.958L67.6275 130.397L67.2969 131.056ZM68.2886 131.221V131.716L68.7844 131.386L68.2886 131.221ZM71.5943 129.242L71.0984 129.407L71.5943 129.902V129.242ZM73.9082 131.716L74.0735 132.211L74.5694 131.881L73.9082 131.716ZM70.6026 128.088L70.7678 128.582L71.2637 128.253L70.6026 128.088ZM72.2554 129.902L71.9248 129.407L71.7596 130.067L72.2554 129.902Z" fill="#964C38"/>
<path d="M93.5778 119.016C93.4125 119.016 93.0819 119.016 92.9166 118.851C92.4208 118.521 92.2555 117.697 92.586 117.202C92.7513 117.037 95.3959 113.079 101.346 113.573C102.007 113.573 102.503 114.233 102.503 114.893C102.503 115.553 101.842 116.047 101.181 116.047C96.7181 115.718 94.7347 118.521 94.7347 118.686C94.2389 118.851 93.9083 119.016 93.5778 119.016ZM118.04 115.553C117.874 115.553 117.544 115.553 117.379 115.388C116.056 114.398 114.073 115.058 113.908 115.058C113.246 115.223 112.585 114.893 112.42 114.233C112.255 113.573 112.585 112.914 113.246 112.749C113.412 112.749 116.387 111.759 118.701 113.409C119.197 113.738 119.362 114.563 119.031 115.058C118.701 115.388 118.37 115.553 118.04 115.553Z" fill="#AF361A"/>
<path d="M99.5278 127.758C100.806 127.758 101.842 126.724 101.842 125.449C101.842 124.174 100.806 123.14 99.5278 123.14C98.2499 123.14 97.2139 124.174 97.2139 125.449C97.2139 126.724 98.2499 127.758 99.5278 127.758Z" fill="#4F2B23"/>
<path d="M116.717 126.604C117.995 126.604 119.031 125.57 119.031 124.295C119.031 123.019 117.995 121.986 116.717 121.986C115.439 121.986 114.403 123.019 114.403 124.295C114.403 125.57 115.439 126.604 116.717 126.604Z" fill="#4F2B23"/>
<path d="M109.115 139.468C108.619 139.468 108.123 139.138 107.958 138.478C107.793 137.819 108.288 137.159 108.95 137.159C108.95 137.159 110.768 136.829 110.933 135.345C111.098 133.86 109.611 129.737 108.784 127.593C108.454 126.933 108.784 126.273 109.445 126.108C110.106 125.778 110.768 126.108 110.933 126.768C111.263 127.428 113.412 133.035 113.247 135.674C113.082 138.148 110.768 139.468 109.445 139.633C109.28 139.468 109.115 139.468 109.115 139.468Z" fill="#B4603F"/>
<path d="M103.495 146.395C101.327 146.375 99.2244 145.658 97.4977 144.35C95.7709 143.043 94.5123 141.216 93.9083 139.138C93.743 138.479 94.0736 137.819 94.7347 137.654C95.3959 137.489 96.057 137.819 96.2223 138.479C96.6852 140.047 97.6432 141.423 98.9536 142.404C100.264 143.385 101.857 143.917 103.495 143.921C104.156 143.921 104.652 144.581 104.652 145.076C104.652 145.901 104.156 146.395 103.495 146.395Z" fill="#CF7653"/>
<path d="M101.015 138.973C96.3872 138.973 92.751 134.025 92.751 128.088C92.751 122.15 96.5525 117.202 101.015 117.202C105.478 117.202 109.279 122.15 109.279 128.088C109.279 134.025 105.478 138.973 101.015 138.973ZM101.015 118.851C97.3789 118.851 94.4038 122.975 94.4038 128.088C94.4038 133.201 97.3789 137.324 101.015 137.324C104.651 137.324 107.626 133.201 107.626 128.088C107.626 122.975 104.651 118.851 101.015 118.851Z" fill="white"/>
<path d="M108.783 125.778L107.296 124.953C107.296 124.953 108.287 123.304 109.94 123.304C111.593 123.304 112.75 124.129 112.75 124.294L111.758 125.613C111.758 125.613 110.932 124.953 109.94 124.953C109.279 124.788 108.783 125.778 108.783 125.778ZM80.7842 125.349L81.0652 123.7L93.4614 125.844L93.1804 127.493L80.7842 125.349Z" fill="white"/>
<path d="M76.2232 86.6894C76.2232 86.6894 67.959 83.3907 61.3477 94.9361C54.0752 107.801 63.4964 124.789 63.4964 124.789C63.4964 124.789 66.3062 120.666 71.7605 121.49C76.2232 122.15 77.5454 124.624 78.8677 126.109C80.19 127.428 85.4791 126.274 87.2972 120.171C88.6194 115.388 88.6194 110.77 86.9666 107.471C85.3138 104.172 83.8262 100.379 86.1402 102.028C88.4542 103.678 92.421 105.822 98.5365 106.811C104.652 107.801 116.387 108.791 122.337 103.678C128.287 98.7296 128.618 94.4413 128.453 90.9777C128.287 87.5141 126.469 85.5349 126.469 85.5349C126.469 85.5349 123.164 87.3491 121.511 87.5141C119.858 87.679 118.536 87.8439 118.701 85.6998C119.032 80.7518 116.222 79.1024 116.222 79.1024C116.222 79.1024 115.065 80.5869 113.743 81.4115C110.933 83.0609 109.28 83.2258 106.47 82.2362C102.834 81.0817 99.0323 77.783 91.5946 77.618C86.3055 77.783 80.3553 80.5869 76.2232 86.6894Z" fill="#C94112"/>
<path d="M110.933 82.896L112.586 84.2154L113.082 82.0713L111.925 82.5661L110.933 82.896ZM95.0657 78.2778L95.7268 80.257L97.3796 78.7726L95.0657 78.2778ZM116.222 79.4324L115.23 80.7518L116.883 80.9168L116.222 79.4324ZM109.776 85.205L107.958 86.5245L109.776 87.844V85.205ZM103.991 82.731L103.495 83.5557L104.652 83.7206L103.991 82.731ZM89.9419 78.9376L89.2807 80.0921L90.7683 80.422L89.9419 78.9376ZM91.4294 80.257L90.9336 81.5765L92.2559 81.7414L91.4294 80.257ZM88.2891 80.9168L89.7766 82.5661L91.0989 80.422L88.2891 80.9168Z" fill="#FF593E"/>
<path d="M93.9082 81.0818L92.0901 81.2468L92.9165 83.0611L93.9082 81.0818ZM86.6357 79.5974L88.2886 80.9169L88.7844 78.7728L86.6357 79.5974ZM112.255 87.5143L111.594 88.0091L112.255 88.5039V87.5143ZM106.304 84.0507L105.643 84.5455L106.47 85.0403L106.304 84.0507ZM107.792 85.8649L108.453 85.0403L107.296 84.7104L107.792 85.8649ZM116.056 86.8545L115.395 87.3494L116.221 87.6792L116.056 86.8545ZM113.907 84.8753L113.081 84.0507L112.585 85.3701L113.907 84.8753ZM117.378 82.0715L116.552 81.2468L116.056 82.7312L117.378 82.0715Z" fill="#FF593E"/>
<path d="M107.957 86.689L106.966 85.8644L106.47 87.3488L107.957 86.689ZM111.759 86.1942L110.932 85.3696L110.437 86.854L111.759 86.1942ZM107.957 84.5449L107.131 83.7202L106.635 85.0397L107.957 84.5449ZM106.47 83.8852L107.131 82.7306L105.643 82.5657L106.47 83.8852ZM102.172 81.2462L101.181 80.2566L100.685 81.741L102.172 81.2462ZM104.321 82.4008L103.329 81.5761L102.999 82.8956L104.321 82.4008ZM94.0735 79.1021L92.9165 78.1125L92.4207 79.7618L94.0735 79.1021ZM91.0984 80.0917L92.2554 78.9372L90.6025 78.2774L91.0984 80.0917ZM98.5362 79.5969L97.7097 78.7722L97.2139 80.2566L98.5362 79.5969ZM93.5777 79.432L94.7346 80.7514L95.7263 78.9372L93.5777 79.432Z" fill="#FF593E"/>
<path d="M92.4197 79.9271L93.4114 81.4115L94.4031 79.4323L92.4197 79.9271ZM93.742 80.9167L94.0725 82.5661L95.7254 81.4115L93.742 80.9167ZM114.568 82.8959L114.402 81.4115L113.08 82.2362L114.568 82.8959ZM107.13 83.0609L107.791 84.7102L109.113 83.3907L107.13 83.0609ZM104.155 81.7414L104.651 83.5557L105.973 82.4011L104.155 81.7414ZM102.006 80.5869L102.337 82.4011L103.824 81.4115L102.006 80.5869ZM87.957 78.1129L89.114 79.4323L90.1057 77.9479L87.957 78.1129ZM94.899 78.2778L93.742 77.9479L93.9073 79.1025L94.899 78.2778Z" fill="#FF593E"/>
<path d="M91.2639 78.2778L90.1069 77.9479L90.2722 79.2674L91.2639 78.2778ZM88.2888 78.6077H87.1318L87.793 79.7622L88.2888 78.6077ZM110.767 91.4725L110.272 91.9673L110.933 92.2972L110.767 91.4725ZM114.238 89.4933L113.742 89.1634L113.577 89.8232L114.238 89.4933ZM113.081 86.6894L113.412 87.5141L113.908 86.8544L113.081 86.6894ZM105.148 83.3908L105.478 84.2154L105.974 83.3908H105.148ZM111.594 89.1634L111.098 89.6582L111.759 89.8232L111.594 89.1634ZM93.9085 89.3284L93.4126 89.8232L94.0738 89.9881L93.9085 89.3284ZM111.429 83.3908L110.272 84.3804L111.759 85.205L111.429 83.3908ZM109.941 90.6479L109.28 90.318V90.9777L109.941 90.6479ZM110.437 88.9985L110.933 89.1634L110.767 88.5037L110.437 88.9985ZM105.974 88.8336L106.966 88.9985L106.635 87.844L105.974 88.8336Z" fill="#FF593E"/>
<path d="M110.272 84.38L110.768 83.0605L109.115 83.2254L110.272 84.38ZM105.313 89.6579V90.3176L105.974 90.1527L105.313 89.6579ZM108.949 85.3696L109.611 84.38L108.288 84.0501L108.949 85.3696ZM99.6936 81.0813L100.355 80.0917L98.8672 79.5969L99.6936 81.0813ZM92.4211 79.267L93.0823 78.2774L91.5947 78.1125L92.4211 79.267ZM112.255 91.6371V92.2968L112.916 92.1319L112.255 91.6371ZM108.454 91.6371L107.627 91.802L108.123 92.2968L108.454 91.6371ZM96.5532 92.7916L95.7268 92.9565L96.2226 93.6163L96.5532 92.7916ZM106.47 93.1215H105.809L106.14 93.7812L106.47 93.1215ZM114.734 85.2046L115.23 86.0293L115.726 85.0397L114.734 85.2046ZM103.495 92.1319L103.991 91.3072H102.999L103.495 92.1319ZM98.5366 79.432L97.0491 79.5969L97.8755 81.0813L98.5366 79.432ZM106.47 86.1943L107.131 84.8748H105.479L106.47 86.1943ZM96.5532 86.854L95.231 87.6787L96.5532 88.5033V86.854ZM101.346 88.9981L100.189 89.6579L101.346 90.3176V88.9981ZM96.8838 89.9877L97.2143 90.4825L97.5449 89.8228L96.8838 89.9877Z" fill="#FF593E"/>
<path d="M94.0733 85.8647L93.7427 86.3595H94.4038L94.0733 85.8647ZM99.5276 90.6478L99.0318 90.4829V90.9777L99.5276 90.6478ZM97.7095 88.0089L97.2136 88.8336L98.3706 88.9985L97.7095 88.0089ZM101.842 94.1115L101.346 93.9465L101.511 94.6063L101.842 94.1115ZM92.9163 82.731L92.5857 84.3803L94.4038 83.7206L92.9163 82.731ZM91.4287 89.3284L91.7593 90.6478L92.9163 89.6582L91.4287 89.3284ZM100.685 80.5869L98.7012 81.5765L100.354 83.0609L101.015 82.0713L100.685 80.5869ZM99.0318 82.731L97.7095 83.3907L98.8665 84.5453L99.3623 83.5557L99.0318 82.731Z" fill="#FF593E"/>
<path d="M99.1975 84.8757L98.0405 84.216L97.0488 84.3809L97.3794 86.69L99.1975 84.8757ZM90.6028 89.329L89.1152 90.1536L90.7681 90.9783L90.6028 89.329ZM99.6933 81.9069L97.0488 81.5771L98.0405 83.7212L99.6933 81.9069ZM97.3794 80.4225L96.3877 80.0927L95.2307 80.4225L96.2224 82.0719L97.3794 80.4225ZM105.809 84.216L103.66 83.7212L103.991 86.0303L105.809 84.216Z" fill="#FF593E"/>
<path d="M106.635 85.6999L104.486 85.2051L104.817 87.5142L106.635 85.6999Z" fill="#FF593E"/>
<path d="M105.477 87.8443L104.651 86.5248L103.659 88.0092L105.477 87.8443ZM96.0562 84.5456L94.8992 82.8963L93.9075 83.721L93.5769 84.7106L96.0562 84.5456ZM94.238 85.8651L92.7505 85.0404L92.4199 87.0196L94.238 85.8651ZM92.5852 83.556L91.4282 81.9067L90.106 83.8859L92.5852 83.556ZM102.667 88.504L103.329 87.0196L101.345 86.8547L102.667 88.504ZM99.1965 88.669L100.684 88.0092L99.5271 86.6898L99.1965 88.669ZM113.246 83.8859L114.403 83.556L113.411 82.5664L113.246 83.8859ZM89.7754 89.1638L91.2629 88.669L90.106 87.3495L89.7754 89.1638Z" fill="#FF593E"/>
<path d="M83.3301 88.8332L84.4871 88.3384L83.6606 87.3488L83.3301 88.8332ZM114.569 81.2462L115.395 82.0709L115.891 80.7514L114.569 81.2462ZM98.7014 87.6786L98.3709 86.1942L96.8833 87.1838L98.7014 87.6786ZM98.5362 82.8955L96.3875 82.2358L96.718 84.5449L98.5362 82.8955ZM103.495 83.2254L101.346 82.7306L101.677 85.0397L103.495 83.2254ZM102.999 85.6994L101.015 85.2046L101.181 87.5137L102.999 85.6994ZM100.52 85.3696L99.3626 86.0293L100.354 87.0189L100.52 85.3696ZM95.7263 89.9877L95.2305 89.4929L95.0652 90.1526L95.7263 89.9877Z" fill="#FF593E"/>
<path d="M94.7344 88.0088L93.908 87.0192L93.4121 88.5036L94.7344 88.0088ZM98.5359 86.1946L98.8665 87.0192L99.5276 86.1946H98.5359ZM101.511 82.0712L101.346 82.8959L102.172 82.566L101.511 82.0712ZM103.825 86.3595L103.329 85.04L102.172 86.1946L103.825 86.3595ZM97.5442 85.205L96.2219 84.7102V86.3595L97.5442 85.205Z" fill="#FF593E"/>
<path d="M96.2219 85.3701L94.8997 84.7104V86.3597L96.2219 85.3701ZM93.2468 83.8857L92.0898 83.3909V84.8753L93.2468 83.8857ZM102.999 84.7104L102.833 84.2156L102.172 84.7104H102.999ZM104.817 90.9779V91.8026L105.643 91.4727L104.817 90.9779ZM102.172 92.1324H101.511L101.842 92.7922L102.172 92.1324ZM102.999 89.6584V90.3182L103.825 89.9883L102.999 89.6584ZM101.015 86.5247L101.18 85.7L100.189 85.8649L101.015 86.5247ZM101.346 83.3909L99.8581 83.7208L99.6929 84.3805L101.346 85.5351V83.3909ZM100.685 82.8961L100.189 83.3909H100.85L100.685 82.8961ZM102.007 86.5247L101.676 87.0195H102.503L102.007 86.5247ZM99.197 89.1636L98.8664 89.8234H99.5276L99.197 89.1636ZM103.825 83.5559L103.494 83.226L103.164 83.8857L103.825 83.5559ZM109.279 88.6688L109.445 87.8441L108.618 88.0091L109.279 88.6688ZM107.792 90.4831L107.957 89.8234H107.131L107.792 90.4831ZM92.0898 92.7922L92.2551 91.9675L91.4287 92.1324L92.0898 92.7922ZM107.296 86.8545L107.461 87.8441L108.453 87.1844L107.296 86.8545Z" fill="#FF593E"/>
<path d="M94.2391 82.566L95.2308 83.7206L95.8919 82.0712L94.2391 82.566ZM102.007 84.3803L102.173 85.205L102.999 84.7102L102.007 84.3803ZM107.958 88.8335L107.627 88.3387L107.296 88.9985L107.958 88.8335ZM90.7681 93.7815L90.2723 93.2867L89.9417 93.9465L90.7681 93.7815ZM102.007 88.5036L101.346 88.6686L102.007 89.1634V88.5036ZM101.016 87.8439L100.85 87.1842L100.355 87.679L101.016 87.8439ZM64.8186 90.3179L67.1326 91.1426L66.9673 88.3387L64.8186 90.3179ZM89.1153 90.6478L88.2889 90.8127L88.7847 91.4725L89.1153 90.6478ZM83.6609 85.5348L81.8428 85.8647L83.1651 87.514L83.6609 85.5348ZM78.8677 90.153L78.3719 89.4933L77.876 90.153H78.8677ZM85.1485 91.3075L84.6526 90.3179L83.8262 91.1426L85.1485 91.3075ZM71.4299 89.4933V91.1426L73.2481 90.4829L71.4299 89.4933ZM86.4707 82.731V84.3803L88.1236 83.7206L86.4707 82.731ZM89.4458 82.566L89.2806 83.5556L90.4375 83.0608L89.4458 82.566ZM89.1153 84.5452V85.5348L90.107 85.205L89.1153 84.5452ZM61.0171 95.9257L60.0254 98.3997L62.3393 98.2348L61.0171 95.9257ZM59.8601 98.5646L59.3643 100.709L61.3477 99.7192L59.8601 98.5646ZM64.488 101.698V102.688L65.4797 102.358L64.488 101.698ZM62.1741 101.533V102.358L63.1658 102.028L62.1741 101.533ZM77.2149 85.5348L76.5537 86.8543H78.2066L77.2149 85.5348ZM74.405 90.6478L74.0745 89.9881L73.4134 90.6478H74.405ZM73.9092 92.1322L73.2481 90.8127L72.2563 91.9673L73.9092 92.1322ZM85.3138 86.5244L84.6526 88.0088H86.4707L85.3138 86.5244ZM81.5122 90.4829V91.3075L82.3386 90.9777L81.5122 90.4829Z" fill="#FF593E"/>
<path d="M68.7854 97.575V98.2347L69.6118 98.0698L68.7854 97.575ZM68.1243 101.863L67.2978 101.698L67.4631 102.523L68.1243 101.863ZM63.8269 98.5646L63.6616 100.379L65.3144 99.7191L63.8269 98.5646ZM61.3477 98.5646V100.379L63.0005 99.7191L61.3477 98.5646ZM63.1658 103.842L63.0005 104.667L63.9922 104.337L63.1658 103.842ZM90.2722 83.8855L90.1069 86.0296L92.5862 85.2049L90.2722 83.8855ZM86.636 86.1946L88.4541 86.8543L88.2888 84.5452L86.636 86.1946ZM83.9915 83.0608L85.6443 83.7205L85.479 81.7413L83.9915 83.0608ZM89.2805 83.2257L87.9583 83.3907L88.7847 84.7101L89.2805 83.2257ZM66.4714 101.039H67.1326L66.9673 100.379L66.4714 101.039ZM67.1326 97.2451V97.7399L67.6284 97.4101L67.1326 97.2451ZM74.2398 98.5646L73.7439 98.8945L74.2398 99.2243V98.5646ZM66.802 104.667L66.3062 104.997L66.802 105.327V104.667ZM64.1575 106.481L63.8269 106.811L64.3228 107.141L64.1575 106.481ZM70.7688 98.0698L70.9341 98.5646L71.4299 98.0698H70.7688ZM67.7937 99.0594L68.1243 99.8841L68.7854 99.0594H67.7937ZM75.0662 97.7399L74.7356 97.9049L75.2314 98.2347L75.0662 97.7399ZM88.4541 87.679L87.793 87.0192L87.4624 88.0088L88.4541 87.679ZM115.726 84.0504L116.552 84.7101L116.718 83.7205L115.726 84.0504ZM120.85 88.0088L121.841 89.4932L122.833 87.8439L121.676 88.0088H120.85ZM126.469 85.8647L125.147 86.8543L126.635 87.514L126.469 85.8647ZM120.519 92.7919L119.693 92.9568L120.354 93.6166L120.519 92.7919ZM124.486 92.9568L123.659 93.2867L124.321 93.9464L124.486 92.9568ZM122.998 90.6478L122.337 89.4932L121.511 90.8127L122.998 90.6478ZM126.965 88.8335L126.304 87.8439L125.478 88.9984L126.965 88.8335ZM120.519 91.3075L119.858 90.3179L119.032 91.4724L120.519 91.3075ZM118.866 88.5036L118.205 87.3491L117.544 88.6686L118.866 88.5036ZM124.321 88.5036V87.0192L122.833 87.679L124.321 88.5036ZM121.841 95.101L121.511 94.6062L121.18 95.2659L121.841 95.101ZM121.676 92.1322V92.9568L122.502 92.462L121.676 92.1322ZM119.527 94.1114L118.866 94.4412L119.527 94.9361V94.1114ZM120.519 88.0088L118.866 88.1738L119.693 89.6582L120.519 88.0088Z" fill="#FF593E"/>
<path d="M118.37 93.6168L118.866 93.9467V93.2869L118.37 93.6168ZM118.205 89.9882L118.701 90.3181V89.4934L118.205 89.9882ZM123.494 91.1428L123.825 92.1324L124.486 91.1428H123.494ZM122.502 89.4934L123.659 89.3285L122.998 88.174L122.502 89.4934ZM124.32 87.1844L124.981 88.174L125.808 87.1844H124.32ZM124.816 90.3181L125.477 91.1428L125.973 90.1532L124.816 90.3181ZM75.2312 86.5246L75.3965 88.009L77.0493 87.1844L75.2312 86.5246ZM65.1489 94.7713L65.6448 95.596L66.1406 94.7713H65.1489ZM63.4961 93.6168L64.1572 94.9363L65.1489 93.4519L63.4961 93.6168ZM63.9919 91.3077L65.1489 92.4623L65.6448 90.648L63.9919 91.3077ZM82.1731 83.226L81.8425 83.8857L82.669 84.0506L82.1731 83.226ZM81.1814 82.8961L80.8508 83.7208H81.6773L81.1814 82.8961ZM89.9414 86.3597L88.2886 86.0298L88.7844 87.8441L89.9414 86.3597ZM88.7844 88.5038L87.4622 88.174L87.7927 89.8233L88.7844 88.5038ZM105.478 88.6688L103.991 88.3389L104.486 89.9882L105.478 88.6688ZM82.1731 82.8961L82.9995 81.7416L81.1814 81.4117L82.1731 82.8961Z" fill="#FF593E"/>
<path d="M82.3384 84.7098L81.3467 83.5553L80.6856 85.2046L82.3384 84.7098ZM81.3467 83.2254L80.8509 81.741L79.5286 82.8955L81.3467 83.2254ZM80.0245 84.8748L80.8509 83.5553L79.198 83.2254L80.0245 84.8748ZM85.4788 82.7306L86.3052 82.8955L86.1399 81.9059L85.4788 82.7306ZM83.9913 82.8955L82.669 82.4007L82.8343 83.8851L83.9913 82.8955ZM82.5037 80.7514L82.669 81.741L83.6607 81.2462L82.5037 80.7514ZM88.4539 80.9163L86.4705 81.741L88.1233 83.3903L88.4539 80.9163ZM63.1655 102.523V103.182L63.9919 103.018L63.1655 102.523ZM65.1489 94.6059H64.4878L64.8184 95.2656L65.1489 94.6059ZM61.1821 104.667L60.521 104.832L61.0169 105.327L61.1821 104.667ZM62.1738 103.842L62.0085 103.182L61.5127 103.842H62.1738ZM62.1738 97.0799L63.6614 98.0695L63.9919 96.0903L62.1738 97.0799ZM68.124 94.1111L68.7852 94.276V93.4513L68.124 94.1111ZM63.6614 91.6371L62.835 92.9565L64.6531 93.2864L63.6614 91.6371ZM65.8101 97.9045L65.6448 99.0591L66.967 98.5643L65.8101 97.9045ZM67.2976 91.802L65.9754 91.6371L66.3059 93.1215L67.2976 91.802ZM69.4463 95.2656L67.9588 95.4305L68.7852 96.75L69.4463 95.2656ZM67.4629 93.2864L65.9754 93.4513L66.967 94.7708L67.4629 93.2864ZM70.9339 89.6578L69.6116 89.8228L70.438 91.1423L70.9339 89.6578ZM61.1821 95.4305L63.4961 95.7604L62.6697 93.1215L61.1821 95.4305ZM59.364 101.038L58.8682 103.018L61.3474 102.523L59.364 101.038ZM66.3059 99.5539L65.3142 99.8838L66.1406 100.873L66.3059 99.5539ZM62.1738 100.708L63.3308 101.038L63.1655 99.7188L62.1738 100.708ZM64.1572 103.842V104.502L64.8184 104.172L64.1572 103.842ZM62.1738 105.327L61.678 105.492L62.0085 105.986L62.1738 105.327ZM76.5535 89.9877L75.7271 90.6474L76.7188 91.1423L76.5535 89.9877ZM75.2312 88.1734L74.4048 88.6682L75.3965 89.328L75.2312 88.1734ZM71.9256 87.6786L70.6033 88.6682L72.2561 89.4929L71.9256 87.6786Z" fill="#FF593E"/>
<path d="M77.5454 87.3495L76.8843 87.8443L77.5454 88.3391V87.3495ZM74.0745 90.3183L73.4133 90.8131L74.2398 91.3079L74.0745 90.3183ZM75.8926 89.9884L76.3884 90.4832L76.719 89.8235L75.8926 89.9884ZM64.488 96.091L64.9839 97.2455L65.9756 96.2559L64.488 96.091ZM69.6118 93.2871L69.9424 93.7819L70.2729 93.1222L69.6118 93.2871ZM81.5122 87.3495L81.8428 87.8443L82.1734 87.1846L81.5122 87.3495ZM79.1983 87.6794L79.5288 88.0092L79.8594 87.5144L79.1983 87.6794ZM78.5371 86.3599L79.1983 87.0196L79.6941 86.03L78.5371 86.3599ZM69.9424 91.4729L70.2729 91.9677L70.6035 91.3079L69.9424 91.4729ZM75.0662 89.4936L74.405 89.9884L75.2315 90.4832L75.0662 89.4936ZM73.7439 89.4936L74.2398 88.504H72.9175L73.7439 89.4936ZM72.5869 87.8443L73.0828 86.3599H71.2647L72.5869 87.8443ZM76.5537 89.1638L76.0579 88.8339L75.8926 89.4936L76.5537 89.1638ZM74.7356 91.143L74.2398 91.4729L74.9009 91.8027L74.7356 91.143ZM72.2563 90.6482L71.7605 90.1534L71.5952 90.9781L72.2563 90.6482ZM61.6782 106.977L62.1741 106.482L61.5129 106.152L61.6782 106.977ZM59.5295 109.945L59.8601 109.616L59.3643 109.286L59.5295 109.945ZM60.0254 107.636L60.5212 107.142L59.8601 106.977L60.0254 107.636ZM59.5295 111.1L60.0254 111.595L60.1907 110.77L59.5295 111.1ZM60.3559 109.286L61.1824 108.956L60.3559 108.461V109.286Z" fill="#FF593E"/>
<path d="M62.1738 108.625L62.835 108.296L62.1738 107.801V108.625ZM59.0334 103.842L59.8599 104.667L60.3557 103.512L59.0334 103.842ZM59.6946 104.832L58.8682 106.151L60.8516 106.316L59.6946 104.832ZM58.8682 106.811V108.296L60.0251 107.636L58.8682 106.811ZM59.5293 110.11L59.1987 110.605L59.8599 110.77L59.5293 110.11ZM68.124 91.9671L69.1157 92.7918L69.6116 91.3074L68.124 91.9671Z" fill="#FF593E"/>
<path d="M68.2891 87.6788L67.6279 89.1632L69.2808 89.3282L68.2891 87.6788ZM69.446 90.8126L69.1155 91.3074L69.9419 91.4723L69.446 90.8126ZM68.2891 89.9879L67.7932 90.9775L69.1155 91.1424L68.2891 89.9879ZM74.074 92.6268L72.917 92.297L73.2476 93.6165L74.074 92.6268ZM68.6196 92.6268L67.6279 92.4619L67.7932 93.6165L68.6196 92.6268ZM86.8008 85.3698L85.4785 85.0399L85.8091 86.5243L86.8008 85.3698ZM84.4868 84.875L85.3133 85.2048V84.2152L84.4868 84.875ZM84.9827 79.2672L86.4702 80.5867L86.9661 78.6075L84.9827 79.2672ZM82.9993 84.0503L82.834 85.5347L84.3215 85.0399L82.9993 84.0503ZM82.9993 80.4218L84.3215 81.5763L84.9827 79.762L82.9993 80.4218ZM77.7102 85.2048L79.363 85.5347L78.8672 83.7204L77.7102 85.2048ZM84.8174 86.0295L83.991 85.8646L84.1563 86.6892L84.8174 86.0295Z" fill="#FF593E"/>
<path d="M83.1639 89.9875L82.668 89.8226L82.8333 90.6472L83.1639 89.9875ZM71.594 92.6264L71.0981 92.4615L71.2634 93.2862L71.594 92.6264ZM73.4121 86.3589L74.0733 87.6784L75.065 86.3589H73.4121ZM84.6514 80.4213L85.8084 81.4109L86.3042 79.9265L84.6514 80.4213ZM68.7842 87.3485L70.2717 88.668L70.9329 86.5239L68.7842 87.3485ZM74.7344 94.6056L75.2302 95.2654L75.5608 94.2758L74.7344 94.6056ZM85.8084 89.3277L86.4695 89.8226L86.8001 89.1628L85.8084 89.3277ZM79.6929 86.5239L80.1887 87.5135L81.0152 86.6888L79.6929 86.5239ZM81.3457 85.2044L80.6846 86.0291L81.8416 86.194L81.3457 85.2044ZM79.5276 84.7096L80.0235 85.6992L80.8499 84.7096H79.5276ZM78.04 85.6992L78.5359 86.6888L79.3623 85.8641L78.04 85.6992ZM78.5359 88.5031L77.8748 88.3381L78.04 88.9979L78.5359 88.5031ZM81.1805 89.3277L80.5193 89.1628L80.6846 89.9875L81.1805 89.3277ZM75.5608 95.2654L76.0566 95.7602L76.3872 94.9355L75.5608 95.2654ZM75.3955 92.9563L75.2302 93.4511L75.8914 93.616L75.3955 92.9563ZM72.2551 91.9667L71.9246 91.307L71.2634 91.9667H72.2551Z" fill="#FF593E"/>
<path d="M73.0832 95.7608V96.5855L73.9096 96.2556L73.0832 95.7608ZM71.5957 92.1323L70.9346 92.792L71.761 93.2868L71.5957 92.1323Z" fill="#FF593E"/>
<path d="M71.0996 92.1318L71.4302 92.6266L71.7608 91.9669L71.0996 92.1318ZM67.4634 94.9357L66.4717 95.5954L67.794 96.0902L67.4634 94.9357ZM69.9426 95.5954L70.6038 96.0902L70.7691 95.2656L69.9426 95.5954ZM73.4136 93.7812L74.0747 94.276L74.24 93.4513L73.4136 93.7812ZM70.6038 97.4097L71.0996 97.9045L71.4302 97.0798L70.6038 97.4097ZM71.4302 93.6162L71.0996 94.111H71.926L71.4302 93.6162ZM92.5864 86.8539L91.0989 86.3591L91.4295 88.1734L92.5864 86.8539ZM81.5125 87.8435L80.8513 87.6786L81.0166 88.5033L81.5125 87.8435ZM72.9177 95.7604L72.2566 95.5954L72.4219 96.4201L72.9177 95.7604Z" fill="#FF593E"/>
<path d="M93.2456 104.667L93.9068 103.843L92.7498 103.678L93.2456 104.667ZM105.477 107.636L106.303 106.482L104.815 106.152L105.477 107.636ZM108.617 107.636L107.129 105.657L105.642 107.636H108.617ZM102.997 107.471L104.981 107.636L104.485 105.657L102.997 107.471ZM91.0969 103.018L91.7581 102.688L91.0969 102.193V103.018ZM89.6094 101.204L89.1135 101.863L90.1052 102.193L89.6094 101.204ZM85.6426 101.039L86.469 101.699L86.7996 100.709L85.6426 101.039ZM89.4441 102.688L90.2705 103.678L90.9316 102.193L89.4441 102.688Z" fill="#AF2500"/>
<path d="M90.9321 103.183L89.9405 104.173L91.428 104.833L90.9321 103.183ZM103.328 107.472L102.833 105.822L101.18 107.307L103.328 107.472ZM93.4114 105.492L93.0808 103.678L91.5933 104.833L93.4114 105.492ZM96.8824 106.317L96.2212 104.668L94.899 105.987L96.8824 106.317ZM85.9736 99.5548L86.4695 99.2249L85.9736 98.7301V99.5548ZM92.2544 103.843L91.9239 103.018L91.2627 103.678L92.2544 103.843ZM103.824 99.06L104.485 98.7301L103.824 98.4003V99.06ZM89.114 98.8951L89.6099 99.3899L89.7752 98.7301L89.114 98.8951ZM91.0974 100.05L90.271 99.8847L90.4363 100.874L91.0974 100.05ZM93.0808 100.05V99.3899L92.4197 99.5548L93.0808 100.05ZM87.4612 97.7405H88.1223L87.7918 97.0808L87.4612 97.7405ZM100.353 98.5652L101.014 98.4003L100.684 97.7405L100.353 98.5652ZM93.4114 97.5756H94.0726L93.742 96.7509L93.4114 97.5756ZM94.7337 98.4003L94.2378 99.06L95.0642 99.2249L94.7337 98.4003ZM98.5352 106.812L100.023 107.142L99.6922 105.492L98.5352 106.812ZM91.0974 100.874L90.271 102.194L91.9239 102.359L91.0974 100.874ZM100.023 100.544L99.8575 100.05L99.3616 100.544H100.023ZM103.163 103.183L103.99 102.359L102.833 102.029L103.163 103.183ZM99.0311 99.2249L99.3616 99.5548L99.5269 99.06L99.0311 99.2249ZM97.7088 97.7405L98.0394 97.9055V97.2457L97.7088 97.7405ZM104.32 105.822L104.651 104.173L102.833 104.668L104.32 105.822ZM96.8824 106.482L98.5352 106.647L98.2046 104.833L97.2129 105.163L96.8824 106.482Z" fill="#AF2500"/>
<path d="M98.2054 105.162L99.5276 104.667L98.5359 103.513L97.8748 104.337L98.2054 105.162ZM99.8582 106.646L100.85 107.141L101.842 106.976L101.18 105.162L99.8582 106.646ZM101.18 103.678L102.337 105.492L103.329 104.832L103.825 103.678H101.18ZM104.156 102.193L105.313 102.853L105.643 101.369L104.156 102.193ZM104.651 104.997L105.643 106.811L107.131 104.997H104.651ZM94.5691 104.172L93.4121 105.492L95.2302 105.987L94.5691 104.172ZM96.7178 102.358L95.0649 102.853L96.2219 104.337L96.7178 102.358ZM107.792 100.214L106.8 100.544L107.461 101.369L107.792 100.214Z" fill="#AF2500"/>
<path d="M114.403 100.709L113.246 101.039L113.907 102.028L114.403 100.709ZM98.7007 105.162L100.684 105.822V103.513L98.7007 105.162ZM87.792 103.018L89.4448 103.843L89.2795 102.358L87.792 103.018ZM97.0479 102.523L98.3701 102.028L97.3785 100.874L97.0479 102.523ZM101.015 101.039L101.511 101.534L101.841 100.874L101.015 101.039ZM99.0313 101.699L98.866 101.039L98.2049 101.699H99.0313ZM95.7256 105.657V104.832L94.8992 104.997L95.7256 105.657ZM92.5852 102.028L92.9158 103.348L94.0728 102.358L92.5852 102.028Z" fill="#AF2500"/>
<path d="M98.7007 102.854L99.8577 103.678L100.023 102.029L98.7007 102.854ZM100.519 102.854L101.676 103.513L101.841 101.864L100.519 102.854ZM103.99 104.503L105.147 105.328L105.312 103.678L103.99 104.503ZM94.4033 102.689L94.5686 103.348L95.0644 102.854L94.4033 102.689ZM96.7173 101.204L96.3867 102.029L97.2131 101.864L96.7173 101.204ZM96.7173 104.668L98.2048 104.503L98.5354 103.843L96.8826 102.524L96.7173 104.668Z" fill="#AF2500"/>
<path d="M96.5516 104.832L97.0474 104.502L96.5516 104.337V104.832ZM95.5599 101.039L95.8904 100.544H95.2293L95.5599 101.039ZM97.378 99.3894L97.7085 98.8946L97.2127 98.7296L97.378 99.3894ZM93.4112 103.843L93.7417 104.337L94.2376 103.678L93.4112 103.843ZM88.2874 100.874L88.1221 101.698L88.9485 101.534L88.2874 100.874ZM92.5847 101.698V100.709L91.5931 101.204L92.5847 101.698ZM102.998 105.822L102.006 104.502L101.179 106.152L102.998 105.822ZM95.2293 103.183V102.358L94.4029 102.853L95.2293 103.183ZM87.6262 99.5543L87.9568 100.214L88.2874 99.3894L87.6262 99.5543ZM106.469 98.7296L106.799 99.3894L107.13 98.7296H106.469ZM95.7252 99.2244L96.3863 99.0595L95.8904 98.3998L95.7252 99.2244ZM96.7168 99.8842L96.8821 100.544L97.378 100.049L96.7168 99.8842ZM87.6262 119.181L85.3123 119.676L86.7998 121.82L87.6262 119.181ZM104.485 100.874H105.312L104.816 100.049L104.485 100.874ZM113.906 104.172L115.559 104.008L114.567 102.523L113.906 104.172ZM118.7 97.905L119.03 98.7296L119.526 98.0699L118.7 97.905ZM113.08 98.5647L113.245 99.2244L113.741 98.7296L113.08 98.5647ZM82.3372 123.305L81.5108 121.655L80.1885 123.14L82.3372 123.305ZM110.601 106.482L110.931 104.832L109.113 105.327L110.601 106.482ZM107.626 106.317L107.791 105.492L106.799 105.657L107.626 106.317ZM108.121 104.337L108.452 103.348L107.295 103.678L108.121 104.337ZM88.4527 112.419L87.9568 109.78L85.9734 111.1L88.4527 112.419ZM87.7915 109.615L87.1304 107.471L85.9734 109.285L87.7915 109.615ZM82.3372 108.956L81.8413 108.131L81.1802 108.956H82.3372ZM84.4859 108.131L83.99 107.306L83.3289 108.131H84.4859ZM78.5356 124.294L78.3704 122.81L76.8828 123.635L78.5356 124.294ZM79.1968 123.47L79.8579 123.965L80.0232 122.975L79.1968 123.47ZM79.0315 122.15L80.0232 122.81L80.3538 121.326L79.0315 122.15ZM112.254 102.688L112.749 101.698H111.427L112.254 102.688ZM116.386 99.3894L116.551 98.5647L115.724 98.7296L116.386 99.3894ZM80.6843 114.893L80.3538 114.069L79.6926 114.728L80.6843 114.893ZM79.1968 110.77L79.8579 110.44L79.3621 109.78L79.1968 110.77Z" fill="#AF2500"/>
<path d="M84.4861 111.595L83.6597 109.945L82.5027 111.265L84.4861 111.595ZM86.6348 110.275L85.8084 108.626L84.6514 110.11L86.6348 110.275ZM82.5027 106.482L82.1721 105.822L81.511 106.482H82.5027ZM106.965 104.832L107.46 102.688L104.981 103.348L106.965 104.832ZM110.931 103.018L109.113 102.193V104.502L110.931 103.018ZM113.08 106.317L111.593 105.657V107.471L113.08 106.317ZM121.51 104.502L120.022 103.678L119.691 105.492L121.51 104.502ZM107.956 105.822H109.279L108.617 104.338L107.956 105.822ZM80.8499 110.605L80.354 110.935L80.8499 111.43V110.605ZM82.3374 114.234L82.0069 113.904L81.8416 114.399L82.3374 114.234ZM75.3955 116.543L75.7261 116.048H75.065L75.3955 116.543ZM78.8665 107.636L79.197 107.141H78.5359L78.8665 107.636ZM80.1887 104.832L80.5193 104.338L79.8582 104.173L80.1887 104.832ZM78.7012 115.388L78.2053 114.893L78.04 115.718L78.7012 115.388ZM80.8499 113.079L80.1887 112.584L79.8582 113.574L80.8499 113.079ZM75.065 117.862L75.3955 117.367H74.7344L75.065 117.862ZM109.279 101.369L109.94 102.028L110.27 101.039L109.279 101.369ZM81.1804 126.439L80.5193 124.954L79.3623 126.274L81.1804 126.439ZM85.1472 115.388L84.3208 114.893L84.1555 116.048L85.1472 115.388ZM87.2959 115.718L85.9736 114.893L85.8084 116.543L87.2959 115.718ZM87.7918 118.027L86.3042 117.532L86.6348 119.347L87.7918 118.027ZM114.898 106.482L115.394 105.822L114.568 105.657L114.898 106.482ZM115.89 106.812L116.882 106.482L115.559 105.987L115.89 106.812ZM107.46 102.853L108.617 103.183L108.452 101.864L107.46 102.853Z" fill="#AF2500"/>
<path d="M109.113 100.544L110.105 100.874L109.939 99.7194L109.113 100.544ZM92.915 100.709L94.2373 101.204L94.072 99.5544L92.915 100.709ZM114.898 104.832L115.889 106.152L116.716 104.667L114.898 104.832Z" fill="#AF2500"/>
<path d="M116.551 104.008L115.56 105.327L117.212 105.657L116.551 104.008ZM111.758 106.647L110.766 106.317L110.932 107.307L111.758 106.647ZM113.08 107.307L115.064 106.977L114.403 105.657L113.08 107.307ZM108.783 107.636H110.766L109.114 105.657L108.783 107.636ZM83.1641 107.636L82.8335 106.977L82.1724 107.636H83.1641ZM85.3128 115.553L85.8086 115.223L85.3128 114.729V115.553ZM83.8252 104.997L84.321 104.503L83.4946 104.338L83.8252 104.997ZM83.3294 106.152L83.8252 106.482L83.9905 105.822L83.3294 106.152ZM86.635 112.09L84.9822 111.76L85.6433 113.739L86.635 112.09ZM82.9988 117.532L82.1724 117.697L82.6682 118.357L82.9988 117.532ZM87.9573 117.532L88.1226 115.883L86.3044 116.543L87.9573 117.532ZM83.1641 113.079L82.6682 111.925L81.6765 112.914L83.1641 113.079ZM84.8169 119.182L85.9739 118.687L84.9822 117.532L84.8169 119.182ZM81.1807 117.038L82.3377 116.213L81.0154 115.388L81.1807 117.038ZM83.9905 117.862L84.9822 117.038L83.6599 116.378L83.9905 117.862ZM82.5029 122.81L83.6599 121.986L82.3377 121.161L82.5029 122.81ZM88.4531 112.914L86.1392 113.904L88.2879 115.718L88.4531 112.914ZM86.9656 107.307L86.1392 105.327L84.4863 107.142L86.9656 107.307ZM81.6765 111.925L82.5029 111.1L81.3459 110.605L81.6765 111.925ZM84.8169 108.791L83.6599 109.121L84.6516 110.275L84.8169 108.791ZM81.6765 107.142L81.1807 106.482L80.8501 107.142H81.6765ZM82.5029 104.833L82.9988 104.338L82.3377 104.173L82.5029 104.833ZM75.8916 122.81L76.3874 121.821H75.2305L75.8916 122.81ZM79.6931 126.109L80.0237 125.284H79.032L79.6931 126.109ZM82.6682 124.954L83.4946 123.47H81.5112L82.6682 124.954ZM77.0486 123.305L77.3792 122.48H76.5527L77.0486 123.305ZM79.5278 123.635L79.8584 122.975H79.032L79.5278 123.635ZM80.189 120.501L79.5278 120.171L79.6931 120.996L80.189 120.501ZM85.1475 113.904L83.9905 113.079L83.6599 114.564L85.1475 113.904ZM82.0071 119.017L81.5112 118.687V119.347L82.0071 119.017ZM116.055 102.359L115.725 101.864L115.394 102.359H116.055ZM118.369 102.359L118.039 101.864L117.708 102.359H118.369ZM118.865 103.678L118.369 103.018L117.708 103.843L118.865 103.678ZM82.6682 120.666L82.0071 120.501V121.161L82.6682 120.666ZM79.032 124.954L79.3626 124.13H78.5361L79.032 124.954ZM80.189 124.295L80.3543 125.449L81.5112 124.789L80.189 124.295Z" fill="#AF2500"/>
<path d="M82.3364 124.625L82.667 126.109L84.1545 125.119L82.3364 124.625ZM78.5349 125.284H79.1961L79.0308 124.625L78.5349 125.284ZM78.5349 123.305L78.8655 122.81H78.0391L78.5349 123.305ZM81.0141 122.645H81.6753L81.3447 121.986L81.0141 122.645ZM82.1711 103.018L82.0059 103.843L82.8323 103.678L82.1711 103.018ZM84.4851 101.039L84.3198 101.699L84.9809 101.534L84.4851 101.039ZM83.4934 102.853L83.3281 103.513L83.9892 103.348L83.4934 102.853ZM82.9975 100.544L82.3364 100.379L82.5017 101.039L82.9975 100.544ZM83.4934 101.699L83.1628 102.359H83.9892L83.4934 101.699ZM85.6421 107.636L85.3115 108.131L86.1379 108.296L85.6421 107.636ZM85.8074 104.833L84.8156 104.503L84.9809 105.822L85.8074 104.833ZM85.6421 104.668L85.1462 103.018L83.6587 104.173L85.6421 104.668Z" fill="#AF2500"/>
<path d="M85.1472 103.018V101.864L84.1555 102.359L85.1472 103.018ZM83.9902 119.347L82.668 119.182L82.9985 120.666L83.9902 119.347Z" fill="#AF2500"/>
<path d="M85.9746 123.14L85.8094 121.49L84.1565 122.315L85.9746 123.14ZM83.3301 120.996V120.336L82.669 120.666L83.3301 120.996ZM84.8176 121.161V119.841L83.4954 120.501L84.8176 121.161ZM78.3716 121.82L79.6938 121.49L78.7022 120.501L78.3716 121.82ZM83.1648 119.016L84.3218 118.687L83.3301 117.697L83.1648 119.016ZM110.602 103.843L111.924 104.337L111.759 102.853L110.602 103.843ZM113.246 105.162L112.255 104.667V105.822L113.246 105.162ZM114.073 105.657L114.569 104.172L112.751 104.502L114.073 105.657ZM119.527 105.657L118.04 104.502V106.152L119.527 105.657ZM112.751 103.348L113.412 103.678L113.246 102.688L112.751 103.348ZM114.569 99.5542L115.23 99.7192V99.0594L114.569 99.5542ZM80.5203 120.501L81.1814 120.336L80.6856 119.841L80.5203 120.501ZM82.669 126.109L81.6773 124.954L81.0161 126.438L82.669 126.109ZM85.8094 123.47L83.8259 122.81L83.9912 124.954L85.8094 123.47ZM76.884 120.171L76.0576 120.006L76.3882 120.831L76.884 120.171ZM111.924 99.8841L111.428 99.3893L111.098 100.049L111.924 99.8841ZM121.841 104.337V102.523L120.023 103.513L121.841 104.337ZM119.362 102.358L120.849 102.853V101.369L119.362 102.358Z" fill="#AF2500"/>
<path d="M119.526 100.709L118.534 101.204L119.526 102.028V100.709ZM121.179 103.018L122.501 103.513L122.336 101.864L121.179 103.018ZM122.336 96.9155L122.831 97.4103L122.997 96.5856L122.336 96.9155ZM121.344 100.709L122.17 100.379L121.509 99.7194L121.344 100.709ZM127.459 95.596L127.79 96.0908L128.286 95.4311L127.459 95.596ZM123.658 100.874L123.492 99.8843L122.666 100.379L123.658 100.874ZM126.963 98.7298L127.459 97.5752H126.137L126.963 98.7298ZM122.997 103.183L124.484 101.699L122.17 100.874L122.997 103.183ZM126.137 99.8843L124.154 99.5544L124.649 101.699L126.137 99.8843ZM125.641 98.8947L126.302 99.3895L126.468 98.3999L125.641 98.8947ZM122.336 99.3895L123.492 99.5544L122.997 98.235L122.336 99.3895ZM124.649 97.7402L125.641 97.9051L125.145 96.7506L124.649 97.7402ZM127.955 96.7506L127.294 96.2558L127.129 97.0804L127.955 96.7506ZM117.708 103.348L117.542 102.358L116.551 103.183L117.708 103.348ZM116.055 104.667L116.716 103.843L115.559 103.513L116.055 104.667ZM117.708 105.327L117.377 104.338L116.551 104.997L117.708 105.327ZM119.195 104.338L119.03 103.348L118.038 104.173L119.195 104.338ZM119.691 99.5544L120.352 99.8843V99.0596L119.691 99.5544ZM116.716 100.544L117.212 100.709V99.8843L116.716 100.544ZM75.8909 120.006L75.0645 119.841L75.2297 120.666L75.8909 120.006ZM77.0478 122.15V121.491L76.3867 121.82L77.0478 122.15ZM80.3535 121.491L81.0146 121.82L81.1799 120.996L80.3535 121.491ZM77.8743 118.357L77.3784 117.697L76.8826 118.522L77.8743 118.357ZM82.3369 120.666L82.6675 119.841L81.6758 119.676L82.3369 120.666ZM81.3452 120.666L80.6841 120.336L80.8494 121.161L81.3452 120.666ZM83.1633 116.378L83.4939 115.388L82.3369 115.553L83.1633 116.378ZM80.6841 117.037L79.8577 116.872L80.023 117.862L80.6841 117.037ZM78.3701 120.336L77.5437 120.171L77.8743 120.996L78.3701 120.336ZM79.1965 115.883L78.3701 115.718L78.5354 116.543L79.1965 115.883ZM80.3535 119.511L80.1882 119.017L79.5271 119.346L80.3535 119.511ZM86.1384 102.193L87.626 102.853L87.4607 101.699L86.1384 102.193ZM116.22 101.864L116.716 102.028V101.369L116.22 101.864ZM78.0395 118.357L78.5354 118.192L78.0395 117.532V118.357Z" fill="#AF2500"/>
<path d="M118.701 133.861C115.726 133.861 113.246 129.737 113.246 125.119C113.246 120.501 115.726 116.378 118.701 116.378C119.197 116.378 119.858 116.543 120.354 116.708V114.893C119.858 114.728 119.362 114.563 118.866 114.563C114.899 114.563 111.759 119.347 111.759 125.119C111.759 130.892 114.899 135.675 118.866 135.675H119.527L119.692 134.026C119.197 133.696 118.866 133.861 118.701 133.861Z" fill="white"/>
<path d="M125.808 124.954C125.808 120.006 123.494 115.718 120.188 114.728V116.542C122.337 117.697 123.99 120.996 123.99 124.954C123.99 129.242 122.006 132.871 119.362 133.531L119.196 135.18C122.998 134.85 125.808 130.397 125.808 124.954Z" fill="#CCCCCC"/>
<path d="M121.427 210.967C121.427 210.967 148.12 253.108 158.533 267.457C167.789 280.157 172.087 284.94 179.69 286.095C185.805 286.919 206.961 287.084 214.895 287.084C217.374 287.084 217.539 286.919 217.705 288.569L221.837 330.792C222.002 332.441 221.506 332.441 219.358 332.936C209.606 335.575 177.045 343.657 153.41 341.512C126.468 339.203 116.056 333.266 106.469 314.958C93.0811 290.218 121.427 210.967 121.427 210.967Z" fill="#FE4938"/>
<path d="M191.59 286.754L201.837 337.059C201.837 337.059 164.483 344.151 147.128 340.853C134.897 338.544 111.592 335.74 111.758 318.587C112.088 283.785 117.923 204.337 117.923 204.337C117.923 204.337 159.525 274.054 171.094 282.796C179.028 288.898 191.59 286.754 191.59 286.754Z" fill="url(#paint3_linear_1816_3074)"/>
<path d="M14.5713 349.759L40.6861 201.318C45.314 183.341 44.7686 168.793 66.9165 169.123C95.9073 169.816 124.981 202.473 136.055 244.366C144.319 275.704 152.583 349.594 152.583 349.594L14.5713 349.759Z" fill="#FE4938"/>
<path d="M14.5713 349.759L40.6861 201.318C45.314 183.34 36.1408 167.144 69.3627 169.123C93.8247 169.618 124.485 201.318 135.559 243.211C143.823 274.549 152.583 349.594 152.583 349.594L14.5713 349.759Z" fill="url(#paint4_linear_1816_3074)"/>
<path d="M79.5285 179.547C60.1903 159.92 22.8363 167.837 0.192446 220.946C-22.4514 274.054 -20.6332 305.557 -12.5344 334.09C-4.43548 362.624 15.3985 399.074 15.3985 399.074L62.6695 381.426C62.6695 381.426 46.6371 328.482 48.6205 305.062C50.6039 281.476 72.256 252.283 81.016 237.439C89.776 222.595 100.024 200.329 79.5285 179.547Z" fill="#FE4938"/>
<path d="M82.1716 197.525L79.8577 198.515L81.8411 200.494L82.1716 197.525ZM76.7173 200.164L79.8577 199.01L76.8826 197.195L76.7173 200.164ZM74.8992 190.763L75.2297 187.959L72.7505 188.784L74.8992 190.763ZM74.0728 186.969L74.4033 184.825L72.7505 185.485L74.0728 186.969ZM78.5354 194.886H80.3535L79.5271 193.567L78.5354 194.886ZM65.8086 194.227L66.8003 193.072L65.1475 192.577L65.8086 194.227ZM64.4863 200.824L62.5029 200.494L63.1641 202.143L64.4863 200.824ZM72.4199 194.556L71.263 195.381L72.5852 196.206L72.4199 194.556ZM70.2712 209.565L71.263 209.236L70.9324 209.73H71.9241L71.0977 211.05L71.9241 210.885L73.2464 212.369L74.2381 209.73L72.4199 210.225L71.9241 209.73L72.4199 209.565L71.7588 208.081L71.4282 208.741L70.7671 208.081L70.2712 209.565ZM72.7505 193.237L71.9241 191.423L71.0977 193.237H72.7505ZM68.4531 183.506L69.7754 182.516L68.1226 182.186L68.4531 183.506ZM68.7837 171.796L66.635 174.105L69.9407 175.259L68.7837 171.796ZM77.2131 186.475L77.0479 190.433L81.18 188.784L77.2131 186.475ZM73.2464 179.712L71.263 181.362L73.9075 182.681L73.2464 179.712ZM74.5686 176.744L72.5852 178.393L74.5686 179.382L73.7422 181.692L76.2215 181.032L73.7422 183.671L77.8743 185.155L76.3867 181.032L77.2131 180.702L78.0396 183.176L78.5354 182.846L79.6924 184.001L78.0396 186.805L81.5105 186.475V187.134L80.8494 187.629L81.5105 188.124V188.949L84.3203 187.959L82.1716 190.763L81.0147 190.103L80.8494 193.072L83.9898 191.917L83.6592 191.753H85.312L83.1634 192.577L85.1468 194.556L85.4773 191.753H85.6426L85.4773 194.556L87.4607 193.897L85.1468 196.041L83.4939 195.051L83.1634 198.02L84.9815 197.36L87.1302 197.69L86.6343 199.175L85.4773 198.185L85.312 199.01L84.1551 197.69L83.1634 200.164L81.6758 201.154L79.8577 199.504L79.0313 202.473L81.8411 201.978L82.1716 202.143L81.8411 202.473L82.9981 202.803L82.0064 204.947H82.5022L80.6841 207.421L83.6592 207.916L82.9981 204.947L85.1468 204.782L83.6592 201.978L83.4939 200.494L85.1468 200.329L84.9815 200.989L85.4773 200.824L85.312 201.319L85.1468 201.484H85.312L84.9815 203.298L88.2872 202.473L91.2622 203.463L90.2706 197.855L89.4441 198.515L88.6177 197.525L90.4358 197.855L88.6177 192.412L88.2872 192.577L86.1385 191.258H87.9566L85.1468 186.31L84.3203 187.299L82.3369 186.145L84.6509 185.98L81.3452 181.197L80.3535 182.846L80.5188 181.197L80.1883 181.362L80.8494 180.867L78.3702 180.372L80.3535 179.712L76.2215 175.754L75.2297 178.393L74.5686 176.744ZM87.626 199.669L86.9649 199.01L88.783 198.845L87.626 199.669ZM76.552 202.803H78.0396L77.3784 201.319L76.552 202.803Z" fill="#FE4938"/>
<path d="M69.2803 201.649L67.958 202.473L69.4455 203.298L69.2803 201.649ZM74.8999 190.763L76.5527 191.423L76.0569 189.774L74.8999 190.763ZM68.6191 177.568L69.7761 180.372L72.0901 177.898H71.7595L75.7263 175.424L70.7678 172.62L70.1067 177.733L68.6191 177.568ZM74.2388 195.711L76.718 196.041L75.8916 193.402L74.2388 195.711ZM77.0486 219.132V219.462L74.8999 221.606L74.404 221.276L74.0735 222.925L72.9165 223.42L74.0735 224.41L74.2388 223.915L76.5527 222.76L74.8999 221.606L78.0402 222.925L77.7097 221.441L79.1972 220.616L77.0486 219.132ZM87.4614 214.679L85.478 216.988L86.8002 217.317L84.4863 217.647V217.482V217.647H83.6599L83.9904 218.142L82.6682 219.791L83.6599 220.121L83.4946 221.111L84.8168 220.451L85.8086 220.781L85.478 220.121L85.8086 219.956L88.1225 222.595L89.9406 217.153H88.4531L87.4614 214.679ZM86.3044 220.616L83.6599 222.101L85.478 223.42H81.5112L85.6433 228.698L87.9572 223.42H86.3044V220.616Z" fill="#FE4938"/>
<path d="M82.1727 219.791L79.5281 221.44H79.6934L79.3628 221.77L81.0157 222.925L80.8504 222.265L82.3379 223.42L82.1727 219.791ZM82.0074 210.06L83.6602 208.905L82.1727 208.081L82.0074 210.06ZM81.5115 218.637L79.8587 218.966L81.181 220.121L81.5115 218.637ZM63.6609 213.689H65.6443L64.3221 212.204L63.6609 213.689ZM74.5696 215.833L75.5613 214.678L74.2391 214.348L74.5696 215.833ZM65.1485 223.255L63.6609 224.079L65.3137 224.739L65.1485 223.255ZM57.876 200.329L57.7107 202.143L59.5288 201.483L57.876 200.329ZM68.7847 200.659L69.4458 199.174L67.9583 199.339L68.7847 200.659ZM62.8345 212.039L62.3386 210.72L61.1817 211.874L62.8345 212.039ZM75.5613 205.772L75.8919 203.957L76.3877 204.122L76.553 202.143L76.0572 202.473V202.143L74.0738 202.803L73.5779 201.978L74.4043 200.989L72.4209 200.824L72.7515 201.813L72.2556 202.638L74.0738 202.803L73.0821 203.298L75.5613 205.772ZM77.71 193.567L79.3628 193.402L78.0406 192.247L77.71 193.567ZM86.1395 203.298L86.8006 204.782L86.9659 204.287L87.1312 204.782L88.4534 203.792L87.4617 203.463V203.298H86.1395ZM61.8428 184L60.19 184.99L61.5122 186.145L61.8428 184ZM64.4873 174.269L63.8262 175.589H65.479L64.4873 174.269ZM72.7515 186.309L71.264 186.145L71.9251 187.794L72.7515 186.309ZM76.3877 210.72L76.8836 211.05L77.0489 210.06L77.3794 210.225L77.5447 208.74L76.2225 209.565L75.0655 209.73L76.0572 211.215L76.3877 210.72ZM85.3131 214.678L85.1478 216.163L86.6353 215.173L85.3131 214.678ZM89.7757 211.05L87.1312 210.885L87.627 212.039L85.9742 212.369L86.3047 208.905L82.6685 210.39L85.8089 213.524V213.359L90.1063 216.657L91.098 211.05L89.4451 211.544L89.7757 211.05ZM81.8421 214.843L80.6851 214.678H79.6934V214.843H79.1976L80.024 216.327L80.1893 215.998L80.6851 217.317L81.5115 215.998L85.3131 216.987L83.4949 212.699L81.8421 214.843ZM87.2965 205.112L87.627 205.442L86.1395 206.102L86.6353 205.112L83.9908 204.947L84.9825 207.751L85.8089 206.596L88.4534 208.246L87.2965 210.225L90.7674 210.555L89.6104 208.905L90.9327 209.73L91.2632 203.957L89.2799 204.782L87.2965 205.112ZM71.264 219.131L70.6028 220.781H72.5862L71.264 219.131ZM68.4541 217.647L66.9666 217.317L67.4624 218.966L68.4541 217.647ZM74.5696 205.772L73.2474 206.596L74.4043 207.421L74.5696 205.772ZM67.6277 213.524L68.4541 211.544L66.1402 212.204L67.6277 213.524ZM71.4292 230.347L71.0987 232.656L69.4458 231.336L68.7847 234.14L71.0987 233.151L70.9334 233.316L73.5779 231.831L71.4292 230.347ZM78.3712 229.357L77.8753 232.326L80.5198 230.842L78.3712 229.357ZM68.7847 229.192L68.95 229.852L69.2806 229.522L71.0987 230.677L70.7681 227.213L69.6111 228.038L68.4541 227.708L68.6194 228.533L68.2889 228.698L68.7847 229.192ZM80.6851 231.666L78.0406 233.151L79.0323 233.81L76.7183 233.646L76.553 231.007L73.9085 232.491L76.7183 234.47L79.5281 238.758L78.3712 237.439L77.5447 239.418L79.5281 238.923L79.6934 239.253L82.5032 234.14L80.6851 233.975V231.666ZM79.1976 226.388L81.3462 227.873L81.181 224.409L78.5364 225.894L79.0323 226.224L76.7183 227.873L79.3628 229.687V228.698L82.8338 233.975L85.4783 228.862L79.3628 228.533L79.1976 226.388ZM78.5364 217.482L79.8587 216.163L78.3712 215.668L78.5364 217.482L78.2059 217.152L77.71 218.966L79.5281 218.142L78.5364 217.482ZM74.7349 228.698L75.2308 227.378H73.5779L74.7349 228.698ZM66.9666 216.492L68.2889 216.657L67.9583 215.008L66.9666 216.492ZM60.6858 219.296L59.8594 217.482L58.8677 218.801L60.6858 219.296ZM69.1153 223.255L70.4375 222.1L69.1153 221.605V223.255ZM58.2066 230.017L58.3718 228.533L56.719 229.027L58.2066 230.017ZM65.1485 225.729L64.3221 227.213L66.1402 227.543L65.1485 225.729ZM61.5122 224.739L62.6692 223.585L61.347 223.09L61.5122 224.739ZM55.8926 259.045L55.3967 261.849L58.0413 260.365L55.8926 259.045ZM60.5205 263.828L58.3718 262.344L57.876 265.148L58.2066 264.983L57.7107 266.138L58.5371 265.808L58.2066 267.457L56.719 267.292L56.5537 263.828L53.9092 265.313L56.5537 267.127L55.562 266.962L56.8843 268.776L56.5537 270.921L57.876 270.261L59.033 271.91L55.562 271.58L55.0662 268.776L54.5703 269.106V267.787L52.9175 268.612L54.0745 269.436L52.7522 270.591L53.248 270.921L50.7688 272.24L53.0828 273.724L53.5786 271.086L54.5703 271.58H53.9092L57.2149 276.693L55.2315 275.704L55.0662 278.013H52.2564L52.7522 277.683L50.9341 276.693L50.7688 279.002L51.9258 278.178L52.4216 279.002L49.4465 279.332L50.9341 282.301L50.1077 282.136L50.4382 284.115H49.116L50.6035 285.93L49.116 287.414L48.9507 286.919L47.6284 288.239L45.9756 287.579L46.1409 290.383L48.2895 288.404L49.4465 288.733H48.7854L47.6284 288.898L48.9507 290.053V290.548L49.116 290.383L51.1324 292.296L52.4547 288.948L49.4465 288.569L48.9507 287.249L51.2647 288.074L50.4382 285.6L52.5869 288.536L54.1406 284.082L50.273 283.456L51.5952 282.136L53.4133 283.291L53.0828 280.487L51.0994 281.806L51.2647 281.971L50.7688 281.806L52.0911 278.672L54.6695 282.466L56.4876 278.343L54.9009 277.683L56.5537 276.528L57.1157 277.897L59.0991 273.444L59.2644 273.213L61.7436 268.595L61.8758 268.463L63.694 264.999L58.7024 264.175L60.5205 263.845V263.828ZM59.033 267.787L60.8511 266.797L61.8428 268.117L59.033 267.787ZM60.8511 266.632L59.5288 265.808L59.8594 265.643L59.033 264.818L59.3636 264.653L60.8511 266.632ZM58.2066 254.757L55.7273 256.406L58.5371 258.221L58.2066 254.757Z" fill="#FE4938"/>
<path d="M62.504 256.571L59.8594 258.056L61.1817 259.045H60.6858L61.347 260.035L60.6858 259.54L60.0247 262.344L62.1734 261.519L63.9915 264.818L67.1319 259.21L62.504 259.045V256.571ZM68.2889 237.934L70.9334 239.913L70.7681 236.284L68.2889 237.934ZM68.4542 243.542L65.1485 244.696L67.4625 246.675L68.4542 243.542ZM71.7598 240.573L68.4542 241.727L70.7681 243.706L71.7598 240.573ZM63.6609 249.809L63.1651 252.448V251.623L60.3553 253.438H60.0247L60.19 253.602L59.8594 253.767L60.19 254.097L60.5206 254.922L60.8511 254.427L63.4957 256.406L63.1651 252.613L65.8096 251.293L63.6609 249.809ZM51.9258 269.271L54.4051 267.622L52.0911 266.467L51.9258 269.271ZM68.4542 238.923L67.6278 240.738L69.6112 240.243L68.4542 238.923ZM63.6609 248.49L62.0081 248.16L62.8345 249.644L63.6609 248.49ZM57.5455 236.119L58.8677 236.614V234.965L57.5455 236.119ZM66.9666 234.47V238.099L69.9417 235.79L66.9666 234.47ZM62.0081 232.491V236.119L64.8179 233.975L62.0081 232.491ZM62.9998 236.614V240.408L65.8096 238.099L62.9998 236.614ZM73.0821 219.626L76.0572 217.482L73.0821 216.162V219.626ZM80.8504 211.874L78.0406 210.39V214.018L80.8504 211.874ZM77.2142 207.916L80.024 205.607L77.2142 204.287V207.916ZM50.273 250.634V254.262L53.0828 251.953L50.273 250.634ZM58.2066 233.481L59.6941 232.326L57.7107 231.831L58.2066 233.481ZM67.9583 228.038L67.793 226.223L66.4708 227.048L67.9583 228.038ZM65.8096 239.748L65.1485 241.232L66.8013 240.738L65.8096 239.748ZM60.19 222.76L62.0081 221.935L60.19 221.11V222.76ZM70.7681 219.131L71.0987 217.482L69.7764 217.977L70.7681 219.131ZM67.1319 231.171L67.6278 230.017L65.9749 230.182L66.3055 230.677L65.6443 231.666L67.2972 231.501L67.1319 231.171ZM48.1243 268.447L47.7937 270.261L46.6367 270.591L47.7937 271.745L47.959 271.25L50.273 269.931L48.1243 268.447ZM37.3809 261.025H39.199L38.7031 260.2L40.0254 259.21L38.042 258.715L38.2073 259.705L38.042 259.375L37.3809 261.025Z" fill="#FE4938"/>
<path d="M49.2811 261.85L47.7935 261.52L48.1241 263.169L49.2811 261.85ZM39.0335 272.076L38.8682 270.591L37.3806 271.251L39.0335 272.076ZM31.5957 247.665L31.4304 249.315L33.2486 248.82L31.5957 247.665ZM42.5044 247.995L43.0003 246.346L41.678 246.511L42.5044 247.995ZM36.0584 258.056L34.9014 259.211L36.5542 259.376L36.0584 258.056ZM40.6863 264.489L41.1822 266.138L42.1739 264.983L40.6863 264.489ZM41.1822 260.86L42.1739 258.881L39.6946 259.376L41.1822 260.86ZM46.8018 248.49L46.4712 248.985L44.9837 248.82L45.6448 250.304L45.9754 249.974L47.7935 250.139L46.8018 248.49ZM52.0909 263.004L52.2562 264.654L51.7603 264.324L51.2645 266.303L53.2478 265.478L52.2562 264.819L53.5784 263.499L52.0909 263.004ZM42.5044 276.364L42.6697 277.189L43.0003 276.859L44.8184 278.013L44.4878 274.55L43.3308 275.209L42.1739 275.044L42.3392 275.869L42.0086 276.034L42.5044 276.364ZM47.2977 274.55L48.4546 276.034L48.9505 274.55H47.2977ZM40.521 263.664L42.0086 263.829L41.5127 262.345L40.521 263.664ZM34.4055 266.468L33.5791 264.654L32.5874 266.138L34.4055 266.468ZM42.835 270.096L42.1739 270.426L43.4961 271.251L43.3308 269.931L44.1573 269.437L42.6697 268.777L42.835 270.096ZM32.0916 275.869L30.4388 276.199L31.9263 277.354L32.0916 275.869ZM38.8682 272.9L37.8765 274.385L39.8599 274.715L38.8682 272.9ZM35.0667 271.911L36.3889 270.921L35.0667 270.261V271.911ZM31.9263 280.817L33.4138 279.498L31.4304 279.003L31.9263 280.817ZM41.5127 273.56L40.1905 274.385L41.5127 275.209V273.56ZM40.521 288.074L39.364 286.92L38.8682 288.569L40.521 288.074ZM33.9097 270.096L35.7278 269.107L33.9097 268.282V270.096ZM44.4878 266.468L44.8184 264.819L43.4961 265.313L44.4878 266.468ZM39.364 279.003L41.0169 278.838L40.1905 277.683L39.364 279.003ZM45.8101 240.573L44.6531 238.924L43.8267 240.573H45.8101ZM54.7354 242.717L55.8924 241.398L54.4049 241.068L54.7354 242.717ZM45.4795 251.624V250.139L43.992 250.964L45.4795 251.624ZM38.2071 227.214L37.8765 228.863L39.8599 228.368L38.2071 227.214ZM49.1158 227.543L49.6116 225.894L48.1241 226.059L49.1158 227.543ZM50.9339 247.665L52.9173 247.5L51.595 246.016L50.9339 247.665ZM53.2478 250.304L54.4049 251.294L54.5701 250.799L56.7188 249.48L54.7354 248.16L54.4049 249.81L53.2478 250.304ZM47.2977 244.202L47.6282 245.686L48.6199 244.367L47.2977 244.202ZM47.7935 240.408L48.6199 238.429L46.3059 238.924L47.7935 240.408ZM54.4049 229.688L53.4131 228.038L52.5867 229.523L54.4049 229.688ZM58.8675 244.367L58.3716 244.037L57.8758 245.851L59.8592 245.026L58.8675 244.367L60.1898 243.047L58.7022 242.552L58.8675 244.367ZM51.0992 253.933L49.7769 254.758L48.6199 254.593L48.7852 255.417L48.4546 255.582L48.9505 256.077L49.2811 256.737L49.6116 256.407L51.4297 257.561L51.0992 253.933ZM55.5618 254.098H53.909L54.9007 255.417L55.5618 254.098ZM48.1241 241.893L47.1324 243.212L48.6199 243.377L48.1241 241.893ZM41.0169 246.016L40.0252 244.202L39.0335 245.686L41.0169 246.016ZM49.2811 249.974L50.7686 248.985L49.2811 248.325V249.974ZM38.7029 255.417L37.0501 255.747L38.3723 256.902L38.7029 255.417ZM44.4878 253.933L46.4712 254.263L45.4795 252.613L44.4878 253.933ZM41.678 249.81V251.459L43.0003 250.469L41.678 249.81ZM46.8018 253.933L48.1241 254.758V253.108L46.8018 253.933ZM45.8101 267.952L46.1407 268.777L47.4629 267.622L46.9671 267.457L45.9754 266.633L45.6448 267.293L44.9837 266.468L44.3225 267.952H45.4795V268.117L45.8101 267.952ZM61.1815 249.81V247.665L61.0162 247.83L61.3467 245.026L58.5369 246.676L60.6856 247.995L59.5286 248.49L61.1815 249.81ZM40.521 249.645L42.3392 248.655L40.3558 247.83L40.521 249.645ZM51.4297 244.367L49.9422 244.697L51.0992 246.016L51.4297 244.367ZM46.8018 257.232L45.8101 258.551L47.6282 258.386L46.8018 257.232ZM72.7513 245.521L73.9083 245.686L72.9166 244.202L72.2554 245.521H72.586L72.2554 247.5L70.1068 247.006L71.429 246.346L69.4456 244.861L68.9498 246.676H68.1234L70.1068 250.634L68.1234 251.459L67.7928 251.294L69.2804 249.315L65.3135 248.655L66.3053 252.943L67.2969 251.789L66.8011 253.108L64.3219 252.778L65.6441 255.417L63.1649 256.572L65.6441 258.716L65.8094 255.747L67.2969 258.716L70.6026 253.933L67.6275 253.438L69.2804 252.778L70.4373 253.768L70.6026 251.624L71.0985 252.448L74.2389 247.83L73.4124 247.665L74.7347 246.841L72.7513 245.521ZM48.9505 262.674L49.9422 263.829L50.6033 262.345L48.9505 262.674ZM77.2139 238.759L76.2223 239.254L75.8917 238.759L75.3958 239.749L75.2305 239.913L75.0653 237.275L76.2223 238.099L76.057 234.636L73.4124 236.12L73.9083 236.45L71.5943 237.934L72.2554 238.429L71.2638 238.924L73.9083 240.903V239.584L74.7347 240.078L74.5694 240.243L76.057 241.233L71.9249 240.738L75.2305 246.511L78.2057 241.563L77.2139 241.398V238.759ZM60.5203 242.717L61.1815 242.223L61.3467 242.552L62.5037 241.563L61.0162 241.233V241.563L60.1898 241.398L60.5203 242.717ZM62.8343 244.861L63.3301 247.171L65.6441 245.521L62.8343 244.861ZM57.2147 251.459L57.7105 252.943L59.1981 251.789L57.2147 251.459ZM61.3467 238.429L62.5037 237.439L61.0162 237.11L61.3467 238.429ZM49.6116 275.869L46.9671 277.518L49.2811 278.838L49.6116 275.869ZM48.6199 284.446L49.1158 281.312L46.3059 282.961L48.6199 284.446ZM54.0743 261.19L52.9173 262.015L54.2396 262.674L54.0743 261.19ZM53.7437 273.395L53.4131 274.88L54.0743 274.55L53.7437 275.704L55.2313 275.539L54.4049 274.55L54.7354 274.385L53.7437 273.395ZM53.5784 244.202L53.4131 242.717L52.4214 243.542L53.5784 244.202ZM53.0826 255.087L52.752 256.572L54.2396 255.747L53.0826 255.087ZM35.232 230.512L34.9014 232.162L36.7195 231.502L35.232 230.512ZM45.9754 230.842L46.6365 229.193L45.149 229.358L45.9754 230.842ZM38.3723 241.893L40.0252 242.223L39.5293 240.903L38.3723 241.893ZM44.8184 243.707L45.6448 241.563L43.3308 242.223L44.8184 243.707ZM50.1075 231.832L48.4546 231.667L49.1158 233.151L49.6116 232.656L51.4297 232.986L50.438 231.337L50.1075 231.832ZM55.7271 247.665L57.0494 246.346L55.5618 245.686L55.7271 247.665ZM48.1241 221.771L47.4629 223.42H49.4463L48.1241 221.771ZM58.0411 223.915L58.3716 225.564L59.5286 224.245L58.0411 223.915ZM49.1158 234.471L48.9505 232.986L47.4629 233.646L49.1158 234.471ZM41.8433 210.06L41.5127 211.71L43.3308 211.05L41.8433 210.06ZM53.2478 208.741L51.7603 208.906L52.5867 210.225L53.2478 208.741ZM46.1407 220.451L44.9837 221.606L46.6365 221.771L46.1407 220.451ZM56.3882 230.347L55.066 228.863L54.4049 230.347H56.3882ZM51.2645 228.533L52.2562 227.214L50.7686 226.884L51.2645 228.533ZM52.2562 221.111L49.9422 221.771L51.2645 223.255L52.2562 221.111ZM56.8841 210.885L56.0577 212.37L58.0411 212.534L56.8841 210.885ZM62.3384 227.049L61.8426 226.719L61.3467 228.698L63.3301 227.873L62.3384 227.214L63.6607 225.894L62.1732 225.234L62.3384 227.049ZM58.5369 238.429L59.1981 236.945H57.3799L58.5369 238.429ZM50.6033 226.059L52.0909 226.224L51.7603 224.74L50.6033 226.059ZM44.4878 228.863L43.6614 227.049L42.6697 228.368L44.4878 228.863ZM52.9173 231.172V232.821L54.2396 231.832L52.9173 231.172ZM42.1739 238.759L43.0003 238.924L42.6697 237.604L41.8433 238.264L40.6863 238.594L42.0086 239.749L42.1739 238.759ZM45.3143 234.306L46.4712 233.316L45.149 232.656L45.3143 234.306ZM43.992 232.491L45.8101 231.502L43.992 230.677V232.491ZM54.9007 227.214L53.5784 227.543L54.5701 228.698L54.9007 227.214ZM49.4463 241.398L51.0992 241.233L50.2728 239.913L49.4463 241.398ZM56.8841 225.564L55.8924 226.389L57.2147 227.049L56.8841 225.564ZM56.5535 238.594H56.2229L56.3882 238.759L56.2229 239.254L56.7188 239.089L57.5452 239.749L57.8758 238.264L57.3799 238.429L56.7188 237.769L56.5535 238.594ZM35.3973 277.354L36.7195 276.034L34.9014 275.869L35.3973 277.354ZM43.0003 281.972L42.6697 283.456L43.992 282.796L43.0003 281.972ZM32.5874 307.042L33.7444 305.722L31.9263 305.557L32.5874 307.042ZM40.3558 299.29L39.364 300.114L40.6863 300.939L40.3558 299.29ZM39.6946 313.144L41.1822 312.484L40.0252 311.66L39.6946 313.144ZM38.3723 269.272L39.5293 267.952L37.7112 267.787L38.3723 269.272ZM46.1407 261.52L45.149 262.509L46.4712 263.169L46.1407 261.52ZM45.9754 274.055L45.6448 275.374L46.9671 274.715L45.9754 274.055ZM36.7195 301.599L37.8765 300.114L36.3889 299.949L36.7195 301.599ZM27.6289 310.34L27.4636 308.856L25.9761 309.681L27.6289 310.34ZM20.0259 287.744L21.844 287.085L20.1912 285.93L20.0259 287.744ZM31.0999 286.26L31.5957 284.776L30.1082 284.94L31.0999 286.26ZM25.1497 297.64L24.6538 296.321L23.4968 297.475L25.1497 297.64ZM30.604 303.248L29.2817 302.918L29.6123 304.568L30.604 303.248ZM29.7776 299.125L30.604 297.146L28.2901 297.805L29.7776 299.125ZM35.3973 286.92L34.5708 288.239L36.3889 288.404L35.3973 286.92ZM40.6863 301.269L40.8516 303.083L40.3558 302.753L39.8599 304.733L41.0169 304.073L39.1988 306.382L41.8433 307.042L41.1822 304.073L41.8433 303.743L40.8516 303.083L42.1739 301.929L40.6863 301.269ZM37.0501 314.299L37.5459 312.979H35.8931L37.0501 314.299ZM29.1165 302.094L30.604 302.259L30.1082 300.609L29.1165 302.094ZM23.001 304.897L22.1746 303.083L21.0176 304.403L23.001 304.897ZM31.2652 307.207L31.4304 308.691L32.7527 307.701L31.2652 307.207ZM20.687 314.134L19.0342 314.629L20.5217 315.618L20.687 314.134ZM23.8274 310.34L24.9844 309.186L23.6621 308.691L23.8274 310.34ZM22.5051 306.712V308.361L24.3232 307.371L22.5051 306.712ZM32.0916 303.578L33.0833 304.733L33.4138 303.083L32.0916 303.578ZM27.6289 283.951L29.6123 284.446L28.6206 282.631L27.6289 283.951ZM39.1988 287.25L37.8765 286.755V288.404L39.1988 287.25ZM26.9678 295.166L27.2984 293.682L25.6455 294.177L26.9678 295.166ZM32.7527 274.88L30.604 274.385L31.0999 276.034L32.7527 274.88ZM40.8516 270.591V268.777L39.5293 269.602L40.8516 270.591ZM39.6946 283.291L38.7029 282.302L38.0418 283.786L39.6946 283.291ZM19.53 281.147L19.1995 282.961L21.1829 282.302L19.53 281.147ZM30.9346 279.992L29.447 280.157L30.2735 281.477L30.9346 279.992ZM23.8274 291.703L22.6704 292.692L24.3232 293.022L23.8274 291.703ZM29.1165 294.507L29.9429 292.362L27.6289 293.022L29.1165 294.507ZM34.7361 282.137L33.9097 283.621L35.7278 283.786L34.7361 282.137ZM39.8599 296.486L40.0252 298.465L41.5127 297.146L39.8599 296.486ZM27.9595 277.848L26.9678 279.333L28.9512 279.663L27.9595 277.848ZM37.2154 283.621L38.5376 282.631L37.2154 281.972V283.621Z" fill="#FE4938"/>
<path d="M61.9148 39.7515L63.9884 29.0787H65.7646L68.2423 35.612L70.7275 29.0787H72.5038L74.5773 39.7515H72.4275L71.2459 33.6299L68.9665 39.6448H67.518L65.2463 33.6299L64.057 39.7515H61.9148ZM81.1343 32.1281H83.2384V39.7515H81.1267L81.0276 38.9587C80.8294 39.2535 80.5753 39.4923 80.2652 39.6753C79.9552 39.8583 79.5918 39.9497 79.1751 39.9497C78.6059 39.9497 78.0748 39.843 77.5818 39.6296C77.0888 39.4161 76.6543 39.1213 76.2782 38.7452C75.9021 38.3691 75.6073 37.9346 75.3939 37.4416C75.1855 36.9436 75.0813 36.4099 75.0813 35.8407C75.0813 35.2969 75.1804 34.7887 75.3786 34.316C75.5768 33.8434 75.8564 33.4266 76.2172 33.0658C76.578 32.7049 76.9923 32.4229 77.4598 32.2196C77.9325 32.0163 78.4407 31.9146 78.9845 31.9146C79.4521 31.9146 79.8714 32.0137 80.2424 32.212C80.6185 32.4102 80.9463 32.6617 81.2258 32.9667L81.1343 32.1281ZM79.1217 37.9295C79.4673 37.9295 79.7799 37.8406 80.0594 37.6627C80.3389 37.4848 80.56 37.246 80.7227 36.9461C80.8853 36.6412 80.9666 36.3057 80.9666 35.9398C80.9666 35.5688 80.8853 35.2334 80.7227 34.9335C80.56 34.6337 80.3389 34.3948 80.0594 34.2169C79.7799 34.039 79.4673 33.9501 79.1217 33.9501C78.7711 33.9501 78.4534 34.039 78.1688 34.2169C77.8842 34.3948 77.658 34.6362 77.4903 34.9411C77.3226 35.241 77.2387 35.5739 77.2387 35.9398C77.2387 36.3057 77.3226 36.6412 77.4903 36.9461C77.6631 37.246 77.8918 37.4848 78.1764 37.6627C78.461 37.8406 78.7761 37.9295 79.1217 37.9295ZM84.7851 39.7515V28.3164H86.8892V39.7515H84.7851ZM91.9214 39.9497C91.22 39.9497 90.5796 39.7693 90.0003 39.4085C89.426 39.0476 88.966 38.5623 88.6204 37.9524C88.2799 37.3425 88.1096 36.6691 88.1096 35.9322C88.1096 35.3782 88.2087 34.8598 88.407 34.377C88.6052 33.8891 88.8771 33.4622 89.2227 33.0963C89.5733 32.7253 89.9799 32.4356 90.4424 32.2272C90.9049 32.0188 91.3979 31.9146 91.9214 31.9146C92.5261 31.9146 93.0776 32.0442 93.5756 32.3034C94.0788 32.5626 94.5032 32.9158 94.8488 33.3631C95.1994 33.8103 95.4485 34.316 95.5958 34.8802C95.7483 35.4443 95.7737 36.0313 95.6721 36.6412H90.3814C90.4475 36.8648 90.5491 37.0681 90.6864 37.251C90.8287 37.4289 91.0015 37.5712 91.2048 37.678C91.4131 37.7847 91.652 37.8406 91.9214 37.8457C92.1856 37.8508 92.4296 37.7898 92.6532 37.6627C92.8768 37.5356 93.0674 37.3654 93.225 37.1519L95.3748 37.6475C95.0648 38.3234 94.6023 38.8774 93.9873 39.3094C93.3723 39.7363 92.6837 39.9497 91.9214 39.9497ZM90.3052 35.086H93.5451C93.4791 34.8319 93.3673 34.6032 93.2097 34.3999C93.0522 34.1966 92.8616 34.0365 92.638 33.9196C92.4194 33.8027 92.1806 33.7443 91.9214 33.7443C91.6672 33.7443 91.4284 33.8027 91.2048 33.9196C90.9862 34.0365 90.7982 34.1966 90.6406 34.3999C90.4882 34.5981 90.3763 34.8268 90.3052 35.086Z" fill="#8B9B75"/>
</g>
<rect x="2.46484" y="1.5" width="153.563" height="220.268" rx="9.12343" stroke="#8B9B74" stroke-width="3"/>
<defs>
<linearGradient id="paint0_linear_1816_3074" x1="78.7685" y1="165.23" x2="90.0935" y2="150.611" gradientUnits="userSpaceOnUse">
<stop stop-color="#BC5A32" stop-opacity="0"/>
<stop offset="0.99" stop-color="#BC5A32"/>
</linearGradient>
<linearGradient id="paint1_linear_1816_3074" x1="98.4538" y1="114.761" x2="92.4259" y2="100.782" gradientUnits="userSpaceOnUse">
<stop stop-color="#BC5A32" stop-opacity="0"/>
<stop offset="0.99" stop-color="#BC5A32"/>
</linearGradient>
<linearGradient id="paint2_linear_1816_3074" x1="70.7516" y1="136.994" x2="71.3112" y2="128.203" gradientUnits="userSpaceOnUse">
<stop stop-color="#CC7A5E" stop-opacity="0"/>
<stop offset="0.92" stop-color="#AA5F4B"/>
</linearGradient>
<linearGradient id="paint3_linear_1816_3074" x1="193.54" y1="291.697" x2="119.278" y2="269.245" gradientUnits="userSpaceOnUse">
<stop offset="0.01" stop-color="#F5B421" stop-opacity="0"/>
<stop offset="0.985" stop-color="#DD6002"/>
</linearGradient>
<linearGradient id="paint4_linear_1816_3074" x1="142.274" y1="263.638" x2="37.8043" y2="259.239" gradientUnits="userSpaceOnUse">
<stop offset="0.01" stop-color="#F5B421" stop-opacity="0"/>
<stop offset="0.985" stop-color="#DD6002"/>
</linearGradient>
<clipPath id="clip0_1816_3074">
<rect x="3.96484" y="3" width="150.563" height="217.268" rx="7.62343" fill="white"/>
</clipPath>
</defs>
</svg>
