<svg width="16" height="20" viewBox="0 0 16 20" fill="none" xmlns="http://www.w3.org/2000/svg">
<path d="M8.38158 20H7.62296C6.19643 20 5.04201 18.8478 5.04201 17.4241C5.04201 17.0208 5.3636 16.6999 5.76764 16.6999H10.2369C10.6409 16.6999 10.9625 17.0208 10.9625 17.4241C10.9625 18.8478 9.80811 20 8.38158 20ZM15.91 14.4285C15.6957 15.2514 15.036 15.7534 14.1537 15.7864C13.5435 15.8028 12.9415 15.7946 12.3313 15.7946H7.97753C5.98203 15.7946 3.98654 15.7864 1.9828 15.8028C0.943817 15.8111 0.0862484 15.1033 0.00378987 13.8935C-0.0374394 13.1611 0.259412 12.4451 0.811884 11.9595C1.95806 10.9226 2.35386 9.56468 2.56001 8.1327C2.6672 7.35088 2.64246 6.54436 2.74141 5.76253C2.99704 3.74625 3.99478 2.24843 5.91607 1.44192C6.01502 1.40077 6.08923 1.31847 6.13046 1.22794C6.57574 0.199226 7.77139 -0.278099 8.80212 0.166307C9.28038 0.372051 9.66793 0.758848 9.87408 1.23617C9.92356 1.33493 9.99777 1.409 10.0885 1.45838C11.449 2.07561 12.488 2.99734 13.0075 4.42932C13.1889 4.95602 13.2796 5.51564 13.2796 6.07527C13.3044 7.3838 13.4528 8.67587 13.8733 9.92679C14.1124 10.6592 14.533 11.3176 15.0937 11.8361C15.8441 12.5109 16.1739 13.3997 15.91 14.4285Z" fill="white"/>
</svg>
