<svg width="20" height="21" viewBox="0 0 20 21" fill="none" xmlns="http://www.w3.org/2000/svg">
<path d="M4.18329 0.503573C2.18863 0.407942 0.310264 2.24513 0.7435 4.41127L1.74124 9.41074C1.76688 9.40982 1.79252 9.40982 1.81816 9.41074H7.45433C8.05612 9.35669 8.58775 9.80075 8.6418 10.4025C8.69584 11.0043 8.25179 11.536 7.65 11.59C7.58493 11.5958 7.51945 11.5958 7.45433 11.59H1.81816C1.79247 11.5887 1.76678 11.5865 1.74124 11.5834L0.7435 16.5893C0.210326 19.2553 3.18037 21.4221 5.5571 20.1018L17.6691 13.3675C19.8702 12.1447 19.8702 8.85577 17.6691 7.63303L5.55705 0.898814C5.11145 0.65125 4.6436 0.525622 4.18329 0.503573Z" fill="white"/>
</svg>
