<svg width="18" height="18" viewBox="0 0 18 18" fill="none" xmlns="http://www.w3.org/2000/svg">
<path d="M9 0.5625C7.33122 0.5625 5.69992 1.05735 4.31238 1.98448C2.92484 2.9116 1.84338 4.22936 1.20477 5.77111C0.566156 7.31286 0.399065 9.00936 0.724628 10.6461C1.05019 12.2828 1.85378 13.7862 3.03379 14.9662C4.2138 16.1462 5.71722 16.9498 7.35393 17.2754C8.99065 17.6009 10.6871 17.4338 12.2289 16.7952C13.7706 16.1566 15.0884 15.0752 16.0155 13.6876C16.9427 12.3001 17.4375 10.6688 17.4375 9C17.4348 6.76308 16.5449 4.61857 14.9632 3.03683C13.3814 1.45509 11.2369 0.565254 9 0.5625ZM1.4175 6.87375L1.7325 7.335C1.74679 7.35536 1.75271 7.38042 1.74905 7.40502C1.74538 7.42962 1.73241 7.45187 1.71282 7.46719L1.39219 7.71187C1.31822 7.7678 1.26721 7.84881 1.24875 7.93969L1.1475 8.42344C1.18367 7.89893 1.27415 7.37959 1.4175 6.87375ZM15.2156 5.90344C15.2915 5.90701 15.3645 5.93333 15.4252 5.97898C15.4859 6.02462 15.5315 6.08748 15.5559 6.15937L15.57 6.19875C15.5982 6.28468 15.6528 6.35951 15.726 6.41255C15.7993 6.46558 15.8874 6.49411 15.9778 6.49406H16.4644C16.5314 6.68511 16.5886 6.87942 16.6359 7.07625L16.1719 7.54031C16.1637 7.54839 16.1541 7.55479 16.1435 7.55913C16.1328 7.56348 16.1215 7.56568 16.11 7.56562H15.4181C15.4068 7.56563 15.3956 7.56336 15.3852 7.55894C15.3748 7.55453 15.3653 7.54806 15.3575 7.53993C15.3496 7.53179 15.3434 7.52215 15.3394 7.51159C15.3353 7.50103 15.3334 7.48975 15.3338 7.47844C15.3339 7.40877 15.3141 7.34052 15.2767 7.28173C15.2393 7.22293 15.1859 7.17604 15.1228 7.14656C15.06 7.11587 14.9897 7.10405 14.9203 7.11254C14.8509 7.12102 14.7854 7.14945 14.7319 7.19438L13.4438 8.24062C13.2181 8.42284 13.0363 8.65341 12.9117 8.9153C12.787 9.17719 12.7228 9.46372 12.7238 9.75375V10.7634C12.7237 10.8115 12.7331 10.859 12.7514 10.9034C12.7698 10.9478 12.7967 10.9882 12.8306 11.0222L13.7222 11.9166C13.7923 11.9847 13.886 12.023 13.9838 12.0234H14.3213C14.4797 12.0238 14.6349 11.978 14.7678 11.8916C14.9006 11.8051 15.0054 11.6819 15.0694 11.5369L15.9441 12.7153C15.2709 13.9717 14.2696 15.0221 13.0468 15.7546C11.824 16.4871 10.4254 16.8743 9 16.875C8.96063 16.875 8.92407 16.875 8.88469 16.8722V16.7991C8.88469 16.7468 8.90543 16.6968 8.94236 16.6599C8.97928 16.6229 9.02935 16.6022 9.08157 16.6022C9.23724 16.6014 9.38632 16.5393 9.4964 16.4292C9.60647 16.3191 9.66864 16.17 9.66938 16.0144V15.4941C9.6693 15.4445 9.68819 15.3968 9.72219 15.3607C9.75618 15.3246 9.8027 15.3029 9.85219 15.3C9.95243 15.2931 10.0479 15.2545 10.1247 15.1898C10.2016 15.1251 10.2559 15.0376 10.2797 14.94C10.3064 14.8427 10.3008 14.7394 10.2638 14.6456C10.2268 14.5518 10.1603 14.4725 10.0744 14.4197L8.57532 13.4634C8.54739 13.4458 8.52446 13.4212 8.50871 13.3922C8.49295 13.3631 8.4849 13.3305 8.48532 13.2975V13.0191C8.48457 12.8927 8.43387 12.7719 8.34429 12.6828C8.2547 12.5937 8.13351 12.5437 8.00719 12.5437H7.76532C7.62035 12.543 7.48157 12.4849 7.37933 12.3821C7.27709 12.2794 7.21969 12.1403 7.21969 11.9953C7.21969 11.9325 7.20732 11.8704 7.1833 11.8123C7.15927 11.7543 7.12405 11.7016 7.07965 11.6572C7.03525 11.6128 6.98255 11.5776 6.92454 11.5536C6.86653 11.5296 6.80436 11.5172 6.74157 11.5172H4.54782C4.4215 11.5179 4.30061 11.5686 4.21155 11.6582C4.12249 11.7478 4.0725 11.869 4.0725 11.9953V12.1416C4.07251 12.189 4.05555 12.2349 4.02469 12.2709L3.52688 12.8531C3.46085 12.9303 3.42138 13.0266 3.41429 13.1279C3.4072 13.2292 3.43287 13.33 3.4875 13.4156L3.81375 13.9416C3.83773 13.9827 3.86921 14.0189 3.90657 14.0484L5.09907 15.0891C5.11995 15.1079 5.13672 15.1309 5.14833 15.1566C5.15994 15.1822 5.16615 15.21 5.16657 15.2381V15.8766C3.94169 15.194 2.92128 14.1967 2.21077 12.9878C1.50027 11.7789 1.12543 10.4022 1.125 9C1.125 8.96344 1.125 8.92406 1.12782 8.8875C1.22418 9.40108 1.5193 9.85588 1.94907 10.1531L3.82219 11.5594C3.84687 11.577 3.87626 11.5868 3.90657 11.5875C3.93136 11.587 3.9556 11.5801 3.97691 11.5674C3.99821 11.5548 4.01584 11.5367 4.02805 11.5151C4.04026 11.4936 4.04664 11.4692 4.04654 11.4444C4.04644 11.4196 4.03988 11.3952 4.0275 11.3737L3.1725 9.94781C3.15844 9.91969 3.15844 9.90844 3.15563 9.90844C3.16693 9.89599 3.18024 9.88554 3.195 9.8775L3.42844 9.74813C3.45074 9.73491 3.46905 9.7159 3.48143 9.69313C3.4938 9.67035 3.49979 9.64465 3.49875 9.61875C3.49778 9.59336 3.48994 9.5687 3.47608 9.54741C3.46221 9.52611 3.44283 9.50898 3.42 9.49781L2.83782 9.21656C2.82078 9.20804 2.80664 9.1947 2.79713 9.1782C2.78763 9.16169 2.7832 9.14276 2.78438 9.12375L2.79844 8.78625C2.79848 8.77344 2.80126 8.76079 2.8066 8.74915C2.81194 8.73751 2.8197 8.72714 2.82938 8.71875C2.84882 8.7018 2.87391 8.69277 2.89969 8.69344L3.61407 8.72437C3.62693 8.72404 3.6397 8.72666 3.6514 8.73202C3.6631 8.73738 3.67342 8.74535 3.68157 8.75531L4.30313 9.43031C4.35243 9.48624 4.41755 9.52587 4.48988 9.54395C4.5622 9.56203 4.63831 9.55771 4.70813 9.53156C4.77939 9.50646 4.84155 9.46067 4.88664 9.40004C4.93173 9.33942 4.95771 9.26672 4.96125 9.19125L4.97532 8.81437C4.9757 8.80163 4.97863 8.78908 4.98394 8.77749C4.98926 8.76589 4.99684 8.75549 5.00625 8.74687L5.9175 7.90875C5.93849 7.89222 5.96398 7.88241 5.99063 7.88063L6.66844 7.91156C6.76782 7.91509 6.86466 7.87979 6.93844 7.81313C6.97525 7.7798 7.00512 7.73955 7.02636 7.69466C7.04759 7.64978 7.05977 7.60115 7.06219 7.55156L7.07907 7.15219C7.07916 7.13979 7.08198 7.12757 7.08732 7.11639C7.09267 7.10521 7.10041 7.09535 7.11 7.0875L7.89188 6.3675C7.96245 6.30037 8.0047 6.20882 8.01 6.11156L8.04938 5.45062C8.05782 5.26219 7.91719 4.96969 7.68657 4.95844L6.90469 4.93031C6.8524 4.92914 6.80041 4.93849 6.75179 4.95779C6.70318 4.97709 6.65894 5.00596 6.62169 5.04268C6.58444 5.07941 6.55495 5.12323 6.53496 5.17157C6.51497 5.2199 6.50489 5.27176 6.50532 5.32406C6.50407 5.33493 6.50005 5.34529 6.49365 5.35415C6.48725 5.36302 6.47867 5.37009 6.46875 5.37469C6.44972 5.38572 6.42841 5.39223 6.40646 5.39369C6.38451 5.39515 6.36252 5.39154 6.34219 5.38312C6.13969 5.2875 6.06094 4.94438 6.01032 4.71938L5.985 4.62375C5.9817 4.60911 5.98175 4.59392 5.98516 4.5793C5.98857 4.56469 5.99525 4.55104 6.00469 4.53937C6.01435 4.52717 6.0268 4.51748 6.041 4.51111C6.0552 4.50475 6.07072 4.5019 6.08625 4.50281L7.27594 4.55344C7.38784 4.55879 7.49969 4.54187 7.605 4.50365C7.71031 4.46544 7.80698 4.40668 7.88939 4.33081C7.97181 4.25493 8.03834 4.16344 8.08512 4.06164C8.13189 3.95985 8.15799 3.84977 8.16188 3.73781L8.19563 2.94187C8.19944 2.84163 8.16342 2.74394 8.09544 2.67016C8.02746 2.59639 7.93304 2.55251 7.83282 2.54813L7.46438 2.53406C7.44041 2.53353 7.41753 2.52396 7.40032 2.50727C7.38311 2.49058 7.37284 2.468 7.37157 2.44406C7.37157 1.76344 7.02282 1.67344 6.87375 1.66781C6.63837 1.66784 6.41155 1.75616 6.23813 1.91531C6.13877 2.01818 6.00408 2.07949 5.86125 2.08687C5.80786 2.08521 5.75603 2.06849 5.71174 2.03863C5.66745 2.00877 5.63251 1.967 5.61094 1.91813C5.60813 1.9125 5.60532 1.90406 5.6025 1.89844C6.66199 1.38715 7.8236 1.12271 9 1.125C9.15751 1.125 9.31219 1.13063 9.46688 1.14187L9.67219 1.68187C9.70363 1.76323 9.75877 1.83327 9.83049 1.88292C9.9022 1.93256 9.98716 1.95953 10.0744 1.96031H11.1375C11.1725 1.95928 11.2066 1.97131 11.2331 1.99406L11.9728 2.59875C11.992 2.61472 12.007 2.63521 12.0163 2.65838C12.0256 2.68155 12.029 2.70667 12.0262 2.73149C12.0234 2.75631 12.0145 2.78004 12.0003 2.80057C11.9861 2.82109 11.967 2.83775 11.9447 2.84906L11.8603 2.89688C11.8075 2.92479 11.7612 2.96351 11.7244 3.01052C11.6876 3.05752 11.661 3.11176 11.6466 3.16969C11.6317 3.22766 11.6291 3.28809 11.6388 3.34714C11.6484 3.4062 11.6702 3.46261 11.7028 3.51281L12.2316 4.31156C12.276 4.37889 12.3383 4.43247 12.4116 4.46625L12.9572 4.71375C12.9833 4.72608 13.0054 4.74559 13.0208 4.76999C13.0362 4.79439 13.0444 4.82269 13.0444 4.85156V5.83031C13.0446 5.89422 13.0588 5.9573 13.086 6.01513C13.1132 6.07295 13.1528 6.12411 13.2019 6.165C13.2184 6.1769 13.2321 6.19219 13.2422 6.20985C13.2523 6.22752 13.2585 6.24714 13.2604 6.26739C13.2622 6.28765 13.2597 6.30807 13.253 6.32728C13.2464 6.34649 13.2356 6.36404 13.2216 6.37875L12.6872 6.98906C12.5995 7.08995 12.5537 7.22052 12.5591 7.35408C12.5646 7.48763 12.6208 7.61405 12.7164 7.70748C12.812 7.80091 12.9397 7.85428 13.0733 7.85666C13.207 7.85905 13.3365 7.81027 13.4353 7.72031L14.6194 6.64313C14.6788 6.58875 14.7221 6.519 14.7445 6.44158C14.7668 6.36416 14.7673 6.28207 14.7459 6.20437C14.7397 6.18332 14.7359 6.16161 14.7347 6.13969C14.735 6.10701 14.7418 6.07472 14.7549 6.04476C14.7679 6.0148 14.7869 5.98778 14.8106 5.96531C14.8596 5.92005 14.9239 5.89494 14.9906 5.895L15.2156 5.90344Z" fill="#8B9B75"/>
</svg>
