<svg width="23" height="23" viewBox="0 0 23 23" fill="none" xmlns="http://www.w3.org/2000/svg">
<path d="M10.4385 0.442322C12.2884 0.442512 14.1019 0.96009 15.6738 1.93549C17.2456 2.91094 18.5135 4.30631 19.335 5.96381C20.1564 7.62142 20.4991 9.4757 20.3232 11.3173C20.1473 13.1589 19.4601 14.9145 18.3398 16.3867L18.1816 16.5956L18.3662 16.7812L21.5938 20.0068C21.6687 20.0817 21.7315 20.1676 21.7812 20.2607L21.8262 20.3564C21.8801 20.4868 21.9082 20.6264 21.9082 20.7675L21.9033 20.873C21.893 20.9779 21.8667 21.0809 21.8262 21.1786C21.7856 21.2765 21.731 21.3676 21.6641 21.4492L21.5938 21.5273C21.5188 21.6022 21.433 21.666 21.3398 21.7158L21.2441 21.7607C21.1138 21.8146 20.9741 21.8427 20.833 21.8427L20.7275 21.8369C20.6577 21.83 20.5887 21.8162 20.5215 21.7958L20.4219 21.7607C20.3241 21.7202 20.2329 21.6654 20.1514 21.5986L20.0732 21.5273L16.8467 18.3007L16.6611 18.1161L16.4531 18.2744C14.6607 19.638 12.4616 20.3495 10.2188 20.2997L9.76953 20.2792C7.52227 20.1274 5.39788 19.217 3.74121 17.704L3.41602 17.3935C2.11429 16.0917 1.20202 14.4553 0.777344 12.6689L0.699219 12.3095C0.339995 10.5035 0.490221 8.6356 1.12988 6.914L1.26367 6.5722C1.96825 4.87128 3.13116 3.40213 4.61914 2.32611L4.9209 2.11615C6.4518 1.09329 8.2352 0.517093 10.0703 0.449158L10.4385 0.442322ZM15.9395 4.87103C13.0006 1.93191 8.27691 1.84017 5.22656 4.59564L4.93652 4.87103C3.91652 5.89106 3.20186 7.17342 2.86914 8.57318L2.80762 8.85443C2.52621 10.2692 2.64454 11.7323 3.14551 13.081L3.25 13.3495C3.83885 14.7711 4.83681 15.9859 6.11621 16.8408C7.31571 17.6422 8.71255 18.0933 10.1504 18.1464L10.4385 18.1523C11.8807 18.1523 13.2927 17.7512 14.5176 16.997L14.7607 16.8408C15.9602 16.0393 16.9114 14.9212 17.5107 13.6132L17.626 13.3495C18.178 12.017 18.3473 10.559 18.1191 9.13861L18.0684 8.85443C17.7869 7.43986 17.1184 6.13323 16.1396 5.07904L15.9395 4.87103Z" fill="#8B9B75" stroke="white" stroke-width="0.6"/>
</svg>
