<svg width="23" height="23" viewBox="0 0 23 23" fill="none" xmlns="http://www.w3.org/2000/svg">
<path d="M15.9335 5.64209H9.51719C9.01096 5.64209 8.60059 6.05246 8.60059 6.55869C8.60059 7.06492 9.01096 7.47529 9.51719 7.47529H15.9335C16.4397 7.47529 16.8501 7.06492 16.8501 6.55869C16.8501 6.05246 16.4397 5.64209 15.9335 5.64209Z" fill="#8B9B75"/>
<path d="M15.9333 9.30859H6.76719C6.26096 9.30859 5.85059 9.71897 5.85059 10.2252C5.85059 10.7314 6.26096 11.1418 6.76719 11.1418H15.9333C16.4395 11.1418 16.8499 10.7314 16.8499 10.2252C16.85 9.71901 16.4395 9.30859 15.9333 9.30859Z" fill="#8B9B75"/>
<path d="M5.80664 0.242188H16.8936C19.8515 0.242188 22.249 2.64068 22.249 5.59863V11.1855C22.249 14.1435 19.8515 16.542 16.8936 16.542H15.833V21.2246C15.833 22.0475 14.7819 22.3274 14.3506 21.7012L14.2734 21.5635C13.8489 20.6314 13.201 19.7439 12.3838 18.915L12.0234 18.5635C11.5474 18.1163 11.0438 17.708 10.5342 17.3408L10.0234 16.9873C9.74126 16.8004 9.50454 16.6553 9.33008 16.5547L9.30664 16.542H5.80664C2.84868 16.542 0.450195 14.1435 0.450195 11.1855V5.59863C0.450195 2.73325 2.70061 0.393644 5.53027 0.25L5.80664 0.242188ZM5.80664 1.87598C3.75073 1.87598 2.08398 3.54268 2.08398 5.59863V11.1855C2.08398 13.2415 3.75068 14.9082 5.80664 14.9082H9.5166C9.61554 14.9082 9.71361 14.9261 9.80566 14.9609L9.89551 15.002C10.0562 15.0862 10.2987 15.2251 10.6025 15.417L10.9258 15.626C11.5862 16.0636 12.2461 16.5649 12.874 17.1279L13.1416 17.373C13.4544 17.6669 13.7498 17.9686 14.0254 18.2783L14.2002 18.4756V15.7246C14.2004 15.2738 14.5657 14.9082 15.0166 14.9082H16.8936C18.9495 14.9082 20.6162 13.2415 20.6162 11.1855V5.59863C20.6162 3.54272 18.9495 1.87598 16.8936 1.87598H5.80664Z" fill="#8B9B75" stroke="white" stroke-width="0.2"/>
</svg>
