<svg width="23" height="23" viewBox="0 0 23 23" fill="none" xmlns="http://www.w3.org/2000/svg">
<g clip-path="url(#clip0_4049_7162)">
<path d="M16.8945 0.142517H5.80471C2.79711 0.142517 0.349609 2.59002 0.349609 5.59852V11.1865C0.349609 14.195 2.79711 16.6425 5.80471 16.6425H9.27796C10.0434 17.0844 12.9492 18.8994 14.1821 21.6063C14.3334 21.9381 14.6625 22.1425 15.0163 22.1425C15.0804 22.1425 15.1464 22.1361 15.2106 22.1214C15.6323 22.0298 15.933 21.6576 15.933 21.2258V16.6425H16.8946C19.9021 16.6425 22.3496 14.195 22.3496 11.1865V5.59852C22.3496 2.59002 19.9021 0.142517 16.8945 0.142517ZM15.933 11.1425H6.76626C6.25936 11.1425 5.84961 10.7319 5.84961 10.2259C5.84961 9.71986 6.25936 9.30921 6.76626 9.30921H15.9329C16.4398 9.30921 16.8496 9.71986 16.8496 10.2259C16.8496 10.7319 16.4399 11.1425 15.933 11.1425ZM15.933 7.47586H9.51626C9.00936 7.47586 8.59961 7.06521 8.59961 6.55921C8.59961 6.05321 9.00936 5.64252 9.51626 5.64252H15.9329C16.4398 5.64252 16.8496 6.05317 16.8496 6.55917C16.8496 7.06517 16.4399 7.47586 15.933 7.47586Z" fill="#183227"/>
</g>
<defs>
<clipPath id="clip0_4049_7162">
<rect width="22" height="22" fill="white" transform="translate(0.349609 0.142517)"/>
</clipPath>
</defs>
</svg>
