<svg width="17" height="24" viewBox="0 0 17 24" fill="none" xmlns="http://www.w3.org/2000/svg">
<path d="M4.00781 18.24L2.82227 21.8142L2.77832 21.946H14.2227L14.1797 21.8142L12.9932 18.24L12.9707 18.1716H4.03125L4.00781 18.24ZM9.67676 15.3181C9.29036 15.3785 8.89962 15.4187 8.5 15.4187C8.10038 15.4187 7.70948 15.3785 7.32227 15.3181L7.20703 15.2996V16.9626H9.79199V15.2996L9.67676 15.3181ZM8.50586 6.14722C8.05933 6.14723 7.62135 6.17288 7.18945 6.20972L7.125 6.21558L7.10352 6.27612C6.9103 6.8122 6.59853 7.2806 6.25488 7.7312L5.9043 8.17749C5.32048 8.90629 4.70138 9.67687 4.43359 10.7585C4.27902 11.3744 4.26619 12.0087 4.37988 12.6853L4.38574 12.7214L4.41504 12.7458C5.52745 13.6613 6.95029 14.2117 8.5 14.2117C10.0499 14.2117 11.4742 13.6606 12.5859 12.7449L12.6143 12.7205L12.6201 12.6843C12.7189 12.0925 12.7215 11.5333 12.6182 10.991L12.5674 10.7585C12.366 9.9468 11.9671 9.31091 11.5342 8.73608L11.0957 8.17651L10.7441 7.73022C10.4002 7.27944 10.0887 6.81025 9.89551 6.27417L9.87402 6.21362L9.80957 6.20874L9.16309 6.16479C8.94599 6.15399 8.72681 6.14722 8.50586 6.14722ZM11.417 6.60718C11.5062 6.73881 11.6048 6.87122 11.709 7.00659L12.0371 7.42261C12.6454 8.18182 13.3177 9.02243 13.6719 10.2234L13.7383 10.4685C13.7832 10.6483 13.8155 10.8331 13.8418 11.0193L13.8809 11.3005L14.0264 11.0564C14.5944 10.102 14.9288 8.99151 14.9336 7.80249V7.74585L14.8857 7.71655C13.9423 7.14559 12.7911 6.71568 11.5205 6.45288L11.2793 6.40308L11.417 6.60718ZM5.47754 6.45679C4.20761 6.72037 3.05695 7.15063 2.11426 7.72241L2.06641 7.75171V7.80835C2.07196 8.99504 2.40555 10.1045 2.97363 11.0574L3.11816 11.2996L3.1582 11.0203C3.17177 10.9264 3.187 10.8332 3.2041 10.741L3.2627 10.4685C3.59201 9.13591 4.3141 8.23339 4.96289 7.42358L4.96191 7.42261C5.18936 7.13908 5.40255 6.87339 5.58008 6.61108L5.71875 6.40698L5.47754 6.45679ZM4.59375 2.67261C3.49645 3.51445 2.67857 4.69921 2.30078 6.06909L2.24414 6.2771L2.43945 6.18628C3.49388 5.69623 4.70657 5.34227 6.00488 5.14038L6.09473 5.12671L6.08887 5.03491C6.03951 4.27286 5.57125 3.48217 4.72363 2.67944L4.66113 2.62085L4.59375 2.67261ZM12.2764 2.67847C11.43 3.4799 10.9628 4.27026 10.9111 5.03296L10.9053 5.12378L10.9961 5.13843C12.2926 5.33955 13.5043 5.69274 14.5586 6.18042L14.7549 6.27124L14.6973 6.06226C14.3423 4.78112 13.6022 3.66217 12.6084 2.83374L12.4062 2.67163L12.3389 2.61987L12.2764 2.67847ZM8.5 1.3396C7.5561 1.3396 6.66205 1.54909 5.85449 1.91479L5.72559 1.97339L5.82422 2.07495C6.71993 3.00386 7.2041 3.94706 7.28516 4.8894L7.29297 4.98706L7.39062 4.98022C7.75991 4.95612 8.13126 4.94215 8.50586 4.94214C8.87601 4.94214 9.24484 4.95613 9.60938 4.98022L9.70703 4.98608L9.71484 4.88843C9.7975 3.94447 10.281 3.00213 11.1758 2.07495L11.2744 1.97339L11.1455 1.91479C10.3379 1.54909 9.4439 1.3396 8.5 1.3396ZM6.00098 14.989L5.93457 14.9656C2.98059 13.9082 0.857422 11.0885 0.857422 7.77612C0.857422 3.5626 4.28648 0.133545 8.5 0.133545C12.7135 0.133545 16.1426 3.5626 16.1426 7.77612C16.1426 11.0885 14.0194 13.9074 11.0654 14.9656L10.999 14.989V16.9656H13.1123C13.4945 16.9656 13.8369 17.178 14.0078 17.5085L14.0703 17.657L15.4521 21.8259C15.5409 22.0938 15.5121 22.3869 15.377 22.6316L15.3125 22.7332C15.1235 22.9946 14.8176 23.1511 14.4951 23.1511H2.50293C2.22074 23.1511 1.95173 23.0313 1.76172 22.8259L1.68555 22.7332C1.52091 22.5044 1.46028 22.2162 1.51562 21.9421L1.54688 21.8259L2.92969 17.656C3.0669 17.2429 3.45191 16.9656 3.8877 16.9656H6.00098V14.989Z" fill="#8B9B75" stroke="white" stroke-width="0.2"/>
<path d="M10.3152 19.3558H6.68555C6.29727 19.3558 5.98242 19.6707 5.98242 20.059C5.98242 20.4472 6.29727 20.7621 6.68555 20.7621H10.3152C10.7035 20.7621 11.0184 20.4472 11.0184 20.059C11.0184 19.6707 10.7035 19.3558 10.3152 19.3558Z" fill="#8B9B75"/>
</svg>
