<svg width="17" height="24" viewBox="0 0 17 24" fill="none" xmlns="http://www.w3.org/2000/svg">
<path d="M13.4977 18.7031C13.443 18.5375 13.2875 18.4258 13.1133 18.4258H10.3984V16.1406C13.75 15.2891 16.2422 12.25 16.2422 8.6328C16.2422 4.36718 12.7656 0.890614 8.5 0.890614C4.23437 0.890614 0.757812 4.36718 0.757812 8.6328C0.757812 12.25 3.25 15.2891 6.60156 16.1406V18.4258H3.8875C3.7125 18.4258 3.55781 18.5375 3.50312 18.7031L2.12031 22.8726C2.03359 23.1351 2.22891 23.4055 2.50469 23.4055H14.4961C14.7727 23.4055 14.968 23.1351 14.8805 22.8726L13.4977 18.7031ZM5.98437 9.10155C5.39844 9.82811 4.78906 10.5859 4.53125 11.6406C4.41406 12.1094 4.375 12.5859 4.41406 13.0859C4.44531 13.4297 4.19531 13.7344 3.85156 13.8047C3.80469 13.8125 3.76562 13.8203 3.71875 13.8203C3.35937 13.8203 3.04687 13.5391 3.01562 13.1641C2.96875 12.5234 3.01562 11.8984 3.16406 11.3047C3.5 9.9453 4.23437 9.03124 4.88281 8.21874C5.10937 7.93749 5.32031 7.67186 5.5 7.41405C4.33594 7.65624 3.27344 8.02343 2.39062 8.52343C2.07812 8.6953 1.6875 8.58593 1.48437 8.29686C1.40625 8.17968 1.36719 8.03905 1.36719 7.90624C1.36719 7.65624 1.5 7.41405 1.73437 7.28124C2.9375 6.61718 4.39844 6.14061 5.98437 5.89843C5.9375 5.21874 5.55469 4.49999 4.82031 3.76561C4.5625 3.5078 4.54687 3.09374 4.78906 2.8203C4.92969 2.65624 5.125 2.57811 5.32031 2.57811C5.50781 2.57811 5.6875 2.64843 5.82812 2.78905C6.78125 3.74999 7.30469 4.74218 7.39062 5.74218C7.75781 5.71874 8.13281 5.6953 8.50781 5.6953C8.875 5.6953 9.25 5.71874 9.60937 5.74218C9.70312 4.74218 10.2187 3.74999 11.1719 2.78905C11.4609 2.49218 11.9453 2.5078 12.2109 2.8203C12.3281 2.95311 12.3828 3.10936 12.3828 3.27343C12.3828 3.45311 12.3125 3.6328 12.1797 3.76561C11.4453 4.49999 11.0625 5.21874 11.0156 5.89843C12.6016 6.14061 14.0625 6.60936 15.2656 7.27343C15.6328 7.47655 15.7422 7.9453 15.5156 8.28905C15.3125 8.57811 14.9219 8.6953 14.6094 8.51561C13.7187 8.02343 12.6562 7.64843 11.5 7.40624C11.6797 7.67186 11.8828 7.92968 12.1172 8.21874C12.7656 9.03124 13.5 9.9453 13.8359 11.3047C13.9844 11.8984 14.0312 12.5234 13.9844 13.1641C13.9531 13.5859 13.5625 13.8828 13.1484 13.8047C12.8203 13.7422 12.5859 13.4609 12.5859 13.1406V13.0859C12.625 12.5859 12.5859 12.1094 12.4687 11.6406C12.2109 10.5859 11.6016 9.82811 11.0156 9.10155C10.5469 8.5078 10.0625 7.89843 9.80469 7.16405C9.375 7.1328 8.94531 7.10155 8.50781 7.10155C8.0625 7.10155 7.625 7.1328 7.19531 7.16405C6.9375 7.89843 6.45312 8.5078 5.98437 9.10155ZM10.3148 21.6187H6.68516C6.29687 21.6187 5.98203 21.3039 5.98203 20.9156C5.98203 20.5273 6.29687 20.2125 6.68516 20.2125H10.3148C10.7031 20.2125 11.018 20.5273 11.018 20.9156C11.018 21.3039 10.7031 21.6187 10.3148 21.6187Z" fill="#183227"/>
</svg>
