<svg width="23" height="23" viewBox="0 0 23 23" fill="none" xmlns="http://www.w3.org/2000/svg">
<g clip-path="url(#clip0_4049_18880)">
<path d="M2.66391 12.7925L2.70516 19.1587C2.70238 19.7638 2.93964 20.3453 3.36493 20.7758C3.79021 21.2062 4.36882 21.4504 4.97391 21.455H17.5964C18.2015 21.4504 18.7801 21.2062 19.2054 20.7758C19.6307 20.3453 19.8679 19.7638 19.8652 19.1587V12.7925H19.9064C20.2406 12.7955 20.5679 12.6974 20.8453 12.5108C21.1226 12.3243 21.337 12.0582 21.4602 11.7475C21.5952 11.4359 21.6333 11.0909 21.5695 10.7574C21.5058 10.4238 21.3431 10.1172 21.1027 9.87745L12.8939 1.5037C12.4621 1.08692 11.8853 0.854004 11.2852 0.854004C10.685 0.854004 10.1083 1.08692 9.67641 1.5037L1.46766 9.87745C1.22723 10.1172 1.06455 10.4238 1.00079 10.7574C0.937026 11.0909 0.975137 11.4359 1.11016 11.7475C1.23333 12.0582 1.44769 12.3243 1.72503 12.5108C2.00237 12.6974 2.32969 12.7955 2.66391 12.7925Z" fill="#183227"/>
</g>
<defs>
<clipPath id="clip0_4049_18880">
<rect width="22" height="22" fill="white" transform="translate(0.285156 0.142578)"/>
</clipPath>
</defs>
</svg>
