<svg width="23" height="23" viewBox="0 0 23 23" fill="none" xmlns="http://www.w3.org/2000/svg">
<g clip-path="url(#clip0_2130_3557)">
<path d="M1.10827 11.7534C1.23375 12.0631 1.44929 12.3279 1.72699 12.5137C2.0047 12.6995 2.33177 12.7976 2.66587 12.7954L2.71029 19.1596C2.70706 19.7641 2.94372 20.3453 3.36835 20.7756C3.79298 21.2059 4.37093 21.4502 4.97546 21.455H17.5949C18.1995 21.4502 18.7774 21.2059 19.202 20.7756C19.6267 20.3453 19.8633 19.7641 19.8601 19.1596V12.7954H19.9045C20.2386 12.7976 20.5657 12.6995 20.8434 12.5137C21.1211 12.3279 21.3366 12.0631 21.4621 11.7534C21.5943 11.4407 21.6308 11.0958 21.5672 10.7623C21.5036 10.4289 21.3426 10.1217 21.1046 9.87957L12.8912 1.50747C12.4621 1.08756 11.8856 0.852417 11.2852 0.852417C10.6848 0.852417 10.1083 1.08756 9.6792 1.50747L1.4655 9.87957C1.22755 10.1217 1.06664 10.4289 1.00306 10.7624C0.939488 11.0959 0.976098 11.4407 1.10827 11.7534ZM2.44574 10.8423L10.6608 2.47024C10.7417 2.38635 10.8387 2.31962 10.946 2.27405C11.0533 2.22847 11.1686 2.20498 11.2852 2.20498C11.4018 2.20498 11.5171 2.22847 11.6244 2.27405C11.7317 2.31962 11.8287 2.38635 11.9096 2.47024H11.911L20.1247 10.8423C20.1735 10.8908 20.2063 10.9531 20.2186 11.0209C20.2309 11.0886 20.2221 11.1585 20.1934 11.221C20.172 11.2801 20.1327 11.3311 20.0809 11.3669C20.0291 11.4026 19.9675 11.4213 19.9047 11.4204H19.1727C18.9904 11.4204 18.8155 11.4928 18.6866 11.6218C18.5577 11.7507 18.4852 11.9256 18.4852 12.1079V19.1596C18.489 19.3996 18.3974 19.6313 18.2305 19.8039C18.0636 19.9764 17.8351 20.0757 17.5951 20.08H4.97546C4.73544 20.0757 4.50692 19.9764 4.34004 19.8039C4.17315 19.6313 4.08153 19.3996 4.08529 19.1596V12.1079C4.08529 11.9256 4.01285 11.7507 3.88392 11.6218C3.75499 11.4928 3.58012 11.4204 3.39779 11.4204H2.66587C2.60299 11.4213 2.54139 11.4026 2.48964 11.3669C2.43788 11.3311 2.39856 11.2801 2.37712 11.221C2.34841 11.1585 2.33959 11.0886 2.35186 11.0209C2.36413 10.9532 2.3969 10.8908 2.44574 10.8423Z" fill="#8B9B75"/>
</g>
<defs>
<clipPath id="clip0_2130_3557">
<rect width="22" height="22" fill="white" transform="translate(0.285156 0.142517)"/>
</clipPath>
</defs>
</svg>
