<svg width="23" height="23" viewBox="0 0 23 23" fill="none" xmlns="http://www.w3.org/2000/svg">
<g clip-path="url(#clip0_2132_2376)">
<path d="M10.8722 10.7401C12.3281 10.7401 13.5886 10.2179 14.6188 9.18765C15.6487 8.15758 16.1711 6.89722 16.1711 5.44115C16.1711 3.98559 15.6489 2.72506 14.6187 1.69465C13.5884 0.664748 12.3279 0.142578 10.8722 0.142578C9.41608 0.142578 8.15573 0.664748 7.12565 1.69482C6.09558 2.72489 5.57324 3.98542 5.57324 5.44115C5.57324 6.89722 6.09558 8.15775 7.12565 9.18782C8.15606 10.2177 9.41659 10.7401 10.8722 10.7401ZM8.03739 2.60639C8.82778 1.81601 9.75497 1.43181 10.8722 1.43181C11.9892 1.43181 12.9165 1.81601 13.7071 2.60639C14.4975 3.39695 14.8818 4.3243 14.8818 5.44115C14.8818 6.55834 14.4975 7.48552 13.7071 8.27608C12.9165 9.06663 11.9892 9.45083 10.8722 9.45083C9.7553 9.45083 8.82812 9.06647 8.03739 8.27608C7.24684 7.48569 6.86247 6.55834 6.86247 5.44115C6.86247 4.3243 7.24684 3.39695 8.03739 2.60639Z" fill="#8B9B75"/>
<path d="M20.1442 17.0596C20.1145 16.6309 20.0544 16.1633 19.9659 15.6695C19.8766 15.172 19.7617 14.7017 19.624 14.2718C19.4817 13.8275 19.2885 13.3888 19.0493 12.9683C18.8014 12.5319 18.51 12.1519 18.1831 11.8392C17.8412 11.5121 17.4225 11.2491 16.9385 11.0572C16.4561 10.8664 15.9215 10.7697 15.3496 10.7697C15.1251 10.7697 14.9079 10.8618 14.4884 11.1349C14.2303 11.3033 13.9283 11.498 13.5913 11.7133C13.3031 11.897 12.9127 12.069 12.4305 12.2248C11.96 12.377 11.4823 12.4542 11.0106 12.4542C10.5393 12.4542 10.0616 12.377 9.59084 12.2248C9.10912 12.0692 8.71854 11.8971 8.43085 11.7135C8.097 11.5002 7.79488 11.3055 7.53287 11.1348C7.11376 10.8617 6.89657 10.7695 6.67199 10.7695C6.09997 10.7695 5.56554 10.8664 5.08332 11.0574C4.59959 11.2489 4.18081 11.5119 3.83857 11.8394C3.51161 12.1522 3.22023 12.5321 2.97249 12.9683C2.73364 13.3888 2.54028 13.8274 2.39795 14.272C2.26048 14.7018 2.14551 15.172 2.05621 15.6695C1.96759 16.1626 1.90767 16.6304 1.87796 17.0601C1.84875 17.4802 1.83398 17.9174 1.83398 18.3592C1.83398 19.5076 2.19905 20.4373 2.91894 21.123C3.62994 21.7996 4.57055 22.1426 5.71476 22.1426H16.3079C17.4518 22.1426 18.3924 21.7996 19.1035 21.123C19.8236 20.4378 20.1887 19.5078 20.1887 18.359C20.1885 17.9158 20.1735 17.4785 20.1442 17.0596ZM18.2146 20.1889C17.7448 20.636 17.1211 20.8534 16.3077 20.8534H5.71476C4.90121 20.8534 4.27749 20.636 3.80786 20.1891C3.34712 19.7505 3.12321 19.1518 3.12321 18.3592C3.12321 17.947 3.13681 17.5399 3.164 17.1492C3.19052 16.7658 3.24473 16.3447 3.32513 15.8972C3.40452 15.4553 3.50557 15.0405 3.62574 14.6651C3.74105 14.305 3.89833 13.9485 4.09336 13.6051C4.27951 13.2778 4.49368 12.997 4.73001 12.7708C4.95106 12.5591 5.22968 12.3859 5.55799 12.256C5.86163 12.1358 6.20286 12.07 6.57329 12.0601C6.61844 12.0841 6.69884 12.1299 6.82909 12.2149C7.09412 12.3876 7.3996 12.5846 7.73731 12.8003C8.11798 13.043 8.60843 13.2622 9.19438 13.4514C9.79343 13.6451 10.4044 13.7434 11.0108 13.7434C11.6172 13.7434 12.2284 13.6451 12.8271 13.4515C13.4135 13.262 13.9038 13.043 14.285 12.8C14.6306 12.5791 14.9275 12.3877 15.1925 12.2149C15.3228 12.1301 15.4032 12.0841 15.4483 12.0601C15.8189 12.07 16.1602 12.1358 16.464 12.256C16.7921 12.3859 17.0707 12.5593 17.2918 12.7708C17.5281 12.9969 17.7423 13.2777 17.9284 13.6053C18.1236 13.9485 18.2811 14.3052 18.3962 14.6649C18.5166 15.0409 18.6178 15.4555 18.697 15.8971C18.7772 16.3454 18.8316 16.7667 18.8581 17.1494V17.1497C18.8855 17.5389 18.8993 17.9458 18.8994 18.3592C18.8993 19.1519 18.6754 19.7505 18.2146 20.1889Z" fill="#8B9B75"/>
</g>
<defs>
<clipPath id="clip0_2132_2376">
<rect width="22" height="22" fill="white" transform="translate(0.0292969 0.142578)"/>
</clipPath>
</defs>
</svg>
