<svg width="23" height="23" viewBox="0 0 23 23" fill="none" xmlns="http://www.w3.org/2000/svg">
<g clip-path="url(#clip0_4049_7550)">
<path d="M10.8722 10.74C12.3281 10.74 13.5888 10.2178 14.6188 9.18757C15.6489 8.1575 16.1711 6.89714 16.1711 5.44108C16.1711 3.98552 15.6489 2.725 14.6187 1.69459C13.5884 0.664686 12.3279 0.142517 10.8722 0.142517C9.41609 0.142517 8.15573 0.664686 7.12566 1.69476C6.09558 2.72483 5.57324 3.98535 5.57324 5.44108C5.57324 6.89714 6.09558 8.15767 7.12582 9.18774C8.15607 10.2176 9.4166 10.74 10.8722 10.74Z" fill="#183227"/>
<path d="M20.1442 17.0594C20.1145 16.6307 20.0544 16.1631 19.966 15.6693C19.8767 15.1718 19.7617 14.7015 19.6241 14.2716C19.4819 13.8273 19.2885 13.3886 19.0495 12.9681C18.8014 12.5317 18.5101 12.1517 18.1831 11.839C17.8412 11.5119 17.4226 11.2489 16.9385 11.057C16.4561 10.8662 15.9215 10.7695 15.3497 10.7695C15.1251 10.7695 14.9079 10.8617 14.4884 11.1347C14.2303 11.3031 13.9283 11.4978 13.5913 11.7131C13.3031 11.8968 12.9127 12.0688 12.4305 12.2246C11.96 12.3768 11.4823 12.454 11.0108 12.454C10.5394 12.454 10.0618 12.3768 9.59085 12.2246C9.10913 12.069 8.71872 11.8969 8.43086 11.7133C8.09702 11.5 7.79489 11.3053 7.53288 11.1346C7.11394 10.8615 6.89658 10.7693 6.672 10.7693C6.09998 10.7693 5.56555 10.8662 5.08333 11.0572C4.59959 11.2487 4.18082 11.5117 3.83858 11.8392C3.51178 12.1521 3.22023 12.5319 2.97249 12.9681C2.73364 13.3886 2.54028 13.8272 2.39795 14.2718C2.26048 14.7016 2.14551 15.1718 2.05621 15.6693C1.96776 16.1624 1.90767 16.6302 1.87796 17.0599C1.84875 17.4808 1.83398 17.9177 1.83398 18.359C1.83398 19.5074 2.19905 20.4371 2.91895 21.1228C3.62994 21.7993 4.57072 22.1426 5.71477 22.1426H16.3079C17.452 22.1426 18.3924 21.7995 19.1036 21.1228C19.8236 20.4376 20.1887 19.5077 20.1887 18.3588C20.1885 17.9156 20.1736 17.4783 20.1442 17.0594Z" fill="#183227"/>
</g>
<defs>
<clipPath id="clip0_4049_7550">
<rect width="22" height="22" fill="white" transform="translate(0.0292969 0.142517)"/>
</clipPath>
</defs>
</svg>
