<svg width="23" height="23" viewBox="0 0 23 23" fill="none" xmlns="http://www.w3.org/2000/svg">
<g clip-path="url(#clip0_2132_2359)">
<path d="M10.4385 0.442383C12.2884 0.442573 14.1019 0.960151 15.6738 1.93555C17.2456 2.911 18.5135 4.30637 19.335 5.96387C20.1564 7.62148 20.4991 9.47576 20.3232 11.3174C20.1473 13.1589 19.4601 14.9146 18.3398 16.3867L18.1816 16.5957L18.3662 16.7812L21.5938 20.0068C21.6687 20.0818 21.7315 20.1676 21.7812 20.2607L21.8262 20.3564C21.8801 20.4868 21.9082 20.6265 21.9082 20.7676L21.9033 20.873C21.893 20.978 21.8667 21.0809 21.8262 21.1787C21.7856 21.2765 21.731 21.3677 21.6641 21.4492L21.5938 21.5273C21.5188 21.6023 21.433 21.6661 21.3398 21.7158L21.2441 21.7607C21.1138 21.8147 20.9741 21.8428 20.833 21.8428L20.7275 21.8369C20.6577 21.83 20.5887 21.8163 20.5215 21.7959L20.4219 21.7607C20.3241 21.7202 20.2329 21.6655 20.1514 21.5986L20.0732 21.5273L16.8467 18.3008L16.6611 18.1162L16.4531 18.2744C14.6607 19.6381 12.4616 20.3496 10.2188 20.2998L9.76953 20.2793C7.52227 20.1275 5.39788 19.217 3.74121 17.7041L3.41602 17.3936C2.11429 16.0917 1.20202 14.4554 0.777344 12.6689L0.699219 12.3096C0.339995 10.5036 0.490221 8.63566 1.12988 6.91406L1.26367 6.57227C1.96825 4.87135 3.13116 3.40219 4.61914 2.32617L4.9209 2.11621C6.4518 1.09335 8.2352 0.517154 10.0703 0.449219L10.4385 0.442383ZM15.9395 4.87109C13.0006 1.93197 8.27691 1.84023 5.22656 4.5957L4.93652 4.87109C3.91652 5.89112 3.20186 7.17348 2.86914 8.57324L2.80762 8.85449C2.52621 10.2692 2.64454 11.7324 3.14551 13.0811L3.25 13.3496C3.83885 14.7712 4.83681 15.986 6.11621 16.8408C7.31571 17.6422 8.71255 18.0933 10.1504 18.1465L10.4385 18.1523C11.8807 18.1523 13.2927 17.7513 14.5176 16.9971L14.7607 16.8408C15.9602 16.0394 16.9114 14.9213 17.5107 13.6133L17.626 13.3496C18.178 12.017 18.3473 10.5591 18.1191 9.13867L18.0684 8.85449C17.7869 7.43992 17.1184 6.13329 16.1396 5.0791L15.9395 4.87109Z" fill="#8B9B75" stroke="white" stroke-width="0.6"/>
</g>
<defs>
<clipPath id="clip0_2132_2359">
<rect width="22" height="22" fill="white" transform="translate(0.208008 0.142578)"/>
</clipPath>
</defs>
</svg>
