<svg width="23" height="23" viewBox="0 0 23 23" fill="none" xmlns="http://www.w3.org/2000/svg">
<g clip-path="url(#clip0_4049_22684)">
<path fill-rule="evenodd" clip-rule="evenodd" d="M18.5102 16.5164C19.6547 15.0124 20.3563 13.2186 20.5359 11.3372C20.7155 9.45582 20.366 7.56167 19.5268 5.86828C18.6875 4.1749 17.3919 2.74963 15.786 1.75314C14.1801 0.756657 12.3278 0.228583 10.4379 0.228455C8.43162 0.228442 6.47043 0.823342 4.80229 1.93793C3.13414 3.05252 1.83397 4.63673 1.06618 6.49024C0.298387 8.34375 0.0974624 10.3833 0.488811 12.351C0.88016 14.3187 1.84621 16.1262 3.26479 17.5449C5.00034 19.2801 7.30599 20.3274 9.7546 20.4929C12.2032 20.6583 14.6288 19.9307 16.582 18.4448L16.6418 18.399L19.9212 21.6787C20.1629 21.9205 20.4908 22.0564 20.8327 22.0564C21.1746 22.0564 21.5026 21.9206 21.7444 21.6789C21.9862 21.4371 22.122 21.1092 22.122 20.7673C22.1221 20.4254 21.9863 20.0975 21.7445 19.8557L18.4648 16.5762L18.5102 16.5164Z" fill="#183227"/>
<path fill-rule="evenodd" clip-rule="evenodd" d="M10.4381 17.852C8.95871 17.852 7.51256 17.4134 6.28249 16.5915C5.05243 15.7697 4.09371 14.6015 3.52757 13.2347C2.96143 11.868 2.81329 10.364 3.1019 8.9131C3.39051 7.46216 4.10289 6.12938 5.14897 5.08332C8.06543 2.16656 12.8107 2.16656 15.7272 5.08332C16.7733 6.12937 17.4857 7.46214 17.7744 8.9131C18.063 10.3641 17.9149 11.868 17.3487 13.2348C16.7826 14.6015 15.8238 15.7697 14.5937 16.5916C13.3636 17.4135 11.9175 17.8521 10.4381 17.852ZM18.5787 16.5686C19.733 15.0518 20.4405 13.2428 20.6217 11.3455C20.8029 9.44815 20.4504 7.53792 19.604 5.83017C18.7577 4.12242 17.4511 2.68505 15.8316 1.68012C14.2121 0.675179 12.344 0.142633 10.4381 0.142517C8.4148 0.142453 6.43694 0.742372 4.75461 1.86641C3.07229 2.99044 1.76107 4.58811 0.986764 6.45736C0.21246 8.32662 0.00985149 10.3835 0.404561 12.3679C0.79927 14.3523 1.77357 16.1751 3.20425 17.6058C4.95453 19.3557 7.27976 20.412 9.74916 20.5788C12.2186 20.7457 14.6647 20.0118 16.6345 18.5132L19.8607 21.7396C19.9884 21.8673 20.14 21.9687 20.3068 22.0378C20.4736 22.1069 20.6524 22.1425 20.833 22.1425C21.0136 22.1425 21.1924 22.1069 21.3593 22.0379C21.5261 21.9688 21.6777 21.8675 21.8054 21.7398C21.9331 21.6121 22.0344 21.4605 22.1036 21.2937C22.1727 21.1269 22.2083 20.948 22.2083 20.7675C22.2083 20.5869 22.1727 20.408 22.1036 20.2412C22.0346 20.0744 21.9333 19.9228 21.8056 19.795L18.5787 16.5686Z" fill="#183227"/>
</g>
<defs>
<clipPath id="clip0_4049_22684">
<rect width="22" height="22" fill="white" transform="translate(0.208008 0.142517)"/>
</clipPath>
</defs>
</svg>
